<?xml version="1.0" encoding="UTF-8"?><svg id="_レイヤー_2" xmlns="http://www.w3.org/2000/svg" viewBox="0 0 155.95572 50.30494"><defs><style>.cls-1{fill:none;stroke:#fff;stroke-miterlimit:10;}.cls-2{fill:#fff;stroke-width:0px;}</style></defs><g id="_レイヤー_1-2"><path class="cls-1" d="M130.80325.5H25.15247C11.53679.5.5,11.53728.5,25.15247s11.03679,24.65247,24.65247,24.65247h105.65078c13.61519,0,24.65247-11.03728,24.65247-24.65247S144.41844.5,130.80325.5Z"/><path class="cls-2" d="M41.45467,19.63457h1.80005l.19214,1.89648h.07202c1.12793-1.24805,2.49609-2.23242,4.05615-2.23242,1.99219,0,3.07227.95996,3.60034,2.49609,1.34424-1.46387,2.7124-2.49609,4.29639-2.49609,2.68823,0,3.96045,1.77637,3.96045,5.1123v8.25684h-2.18433v-7.96875c0-2.44824-.76807-3.48047-2.42407-3.48047-1.00806,0-2.06421.64844-3.28833,1.99219v9.45703h-2.18408v-7.96875c0-2.44824-.76807-3.48047-2.42432-3.48047-.98413,0-2.08813.64844-3.28833,1.99219v9.45703h-2.18408v-13.0332Z"/><path class="cls-2" d="M63.69514,26.16289c0-4.34375,2.8562-6.86426,6.04858-6.86426,3.19214,0,6.04834,2.52051,6.04834,6.86426,0,4.32031-2.8562,6.81738-6.04834,6.81738-3.19238,0-6.04858-2.49707-6.04858-6.81738ZM73.53596,26.16289c0-3-1.53613-5.04004-3.79224-5.04004-2.25635,0-3.76831,2.04004-3.76831,5.04004,0,3.00098,1.51196,4.99316,3.76831,4.99316,2.2561,0,3.79224-1.99219,3.79224-4.99316Z"/><path class="cls-2" d="M80.15413,19.63457h1.80005l.19214,2.37598h.07202c.91187-1.65625,2.23218-2.71191,3.69629-2.71191.57593,0,.98413.07227,1.39209.28809l-.40796,1.91992c-.43213-.16797-.74414-.21582-1.27222-.21582-1.08008,0-2.42432.76758-3.28833,3v8.37695h-2.18408v-13.0332Z"/><path class="cls-2" d="M89.41292,26.16289c0-4.22363,2.8562-6.86426,5.88037-6.86426,3.3125,0,5.18457,2.40039,5.18457,6.12012,0,.48047-.0481.93652-.09595,1.24805h-8.78491c.14404,2.78516,1.84814,4.56055,4.32056,4.56055,1.27197,0,2.3042-.38379,3.26416-1.03223l.79199,1.44043c-1.1521.74414-2.54419,1.34473-4.32031,1.34473-3.4563,0-6.24048-2.52051-6.24048-6.81738ZM98.55769,25.08281c0-2.61621-1.2002-4.03223-3.24023-4.03223-1.84814,0-3.48022,1.48828-3.74438,4.03223h6.98462Z"/><polyline class="cls-2" points="111.25982 31.22933 127.12675 25.34116 111.25982 19.45299 111.25982 31.22933"/></g></svg>