<svg viewBox="0 0 492.58 342.267" xmlns="http://www.w3.org/2000/svg"><path d="m0 257.039h218.717v85.229h-218.717z" fill="#b3bfc4"/><path d="m273.863 257.039h218.717v85.229h-218.717z" fill="#d9dfe1"/><path d="m0 0h491.645v72.906h-491.645z" fill="#005a96"/><path d="m81.419 304.931h-4.019v2.187c0 1.065-.225 1.57-1.01 1.869-.767.28-1.888.3-3.383.3-.094-.599-.411-1.384-.691-1.944.99.037 2.168.037 2.485.037.299-.019.411-.093.411-.336v-2.112h-6.074c.935.673 1.962 1.589 2.467 2.262l-1.775 1.309c-.505-.748-1.683-1.869-2.673-2.617l1.346-.953h-4v-1.869h10.71v-.991h-8.916v-6.354h5.496v-.842h-6.86v-1.812h6.86v-1.234h2.168v1.234h7.01v1.812h-7.01v.842h5.738v6.354h-2.299v.991h4.019v1.869zm-13.066-6.748h3.439v-.953h-3.439zm0 2.374h3.439v-.953h-3.439zm5.608-3.327v.953h3.57v-.953zm3.57 2.374h-3.57v.953h3.57z"/><path d="m90.953 299.753h-4.916v9.514h-2.205v-16.71h7.121zm-4.916-5.402v.973h2.842v-.973zm2.841 3.627v-1.065h-2.842v1.065zm10.692 8.598c0 1.271-.262 1.926-1.084 2.262-.804.374-2.038.411-3.851.411-.094-.635-.449-1.682-.785-2.28 1.178.075 2.561.057 2.953.057s.523-.131.523-.486v-6.729h-5.065v-7.252h7.309v14.019zm-5.196-12.225v.973h2.953v-.973zm2.953 3.664v-1.103h-2.953v1.103z"/><path d="m103.628 297.51c-.355.393-.748.804-1.159 1.178-.243-.505-.822-1.327-1.233-1.683 1.757-1.514 2.916-3.532 3.552-5.178h1.775c1.215.973 2.841 2.449 3.57 3.533l-1.365 1.963c-.561-.897-1.682-2.281-2.747-3.253-.449.822-1.01 1.738-1.72 2.636h4.037v1.851h-4.71zm5.57 7.44c0 .841-.112 1.402-.654 1.701-.542.317-1.196.336-2.131.336-.057-.561-.262-1.346-.505-1.869.523.019.99.019 1.159 0 .168 0 .205-.056.205-.224v-3.196h-1.551v7.532h-1.981v-7.532h-1.552v-1.926h7.01zm4.43 1.775c-1.028.991-2.785 2.038-4.225 2.599-.354-.43-1.009-1.065-1.495-1.458 1.458-.505 3.103-1.495 3.906-2.317l1.813 1.177zm-.898-11.084c.075-.411.131-.822.188-1.233h-3.552v-1.869h9.477v1.869h-3.495c-.131.43-.262.841-.393 1.233h3.364v9.888h-8.317v-9.888h2.729zm3.458 1.645h-4.168v1.178h4.168zm0 2.692h-4.168v1.196h4.168zm0 2.729h-4.168v1.196h4.168zm-.019 2.971c1.028.674 2.449 1.683 3.178 2.393l-1.757 1.253c-.636-.71-2.019-1.795-3.065-2.542l1.645-1.104z"/><path d="m126.059 304.202c-1.645.973-3.458 2-4.991 2.823l-.841-2.243c.523-.225 1.159-.523 1.851-.842v-5.589h-1.683v-2.112h1.683v-4.187h2.075v4.187h1.401v2.132h-1.401v4.504l1.271-.635.636 1.962zm11.234-6.205c-.579 2.448-1.401 4.636-2.485 6.505.317 1.663.747 2.673 1.196 2.673.262 0 .411-.691.467-2.355.411.523 1.028.99 1.496 1.233-.318 2.486-.86 3.196-2.262 3.196-1.047 0-1.832-.99-2.412-2.579-.766.953-1.645 1.775-2.616 2.468-.3-.374-1.122-1.085-1.589-1.402.896-.561 1.682-1.233 2.393-1.981-1.981.523-4.075 1.084-5.683 1.495l-.523-2.074c1.626-.3 4.075-.86 6.43-1.384l.169 1.477c.28-.336.542-.673.785-1.027-.431-2.225-.673-4.954-.785-7.851h-6.038v-2.02h5.963c-.019-.859-.037-1.7-.037-2.561h2.112c-.019.86-.019 1.701 0 2.561h1.981c-.468-.485-1.085-1.046-1.627-1.477l1.253-1.084c.729.523 1.626 1.271 2.056 1.813l-.804.747h.822v2.02h-3.626c.075 1.7.188 3.289.355 4.71.43-1.084.747-2.243 1.028-3.495l1.98.393zm-6.113-.356v5.683h-4.804v-5.683zm-1.738 1.701h-1.438v2.28h1.438z"/><path d="m151.24 304.09h-4.486l-.972 3.551h-2.805l4.431-13.832h3.252l4.449 13.832h-2.897zm-.599-2.15-.411-1.514c-.43-1.439-.804-3.028-1.215-4.523h-.075c-.354 1.514-.766 3.084-1.178 4.523l-.411 1.514z"/><path d="m354.895 306.141h-4.019v2.188c0 1.065-.225 1.57-1.01 1.869-.767.28-1.888.299-3.383.299-.094-.598-.411-1.383-.691-1.943.99.037 2.168.037 2.485.037.299-.019.411-.094.411-.337v-2.112h-6.074c.935.673 1.962 1.589 2.467 2.262l-1.775 1.309c-.505-.747-1.683-1.869-2.673-2.616l1.346-.954h-4v-1.869h10.71v-.99h-8.916v-6.355h5.496v-.841h-6.86v-1.813h6.86v-1.233h2.168v1.233h7.01v1.813h-7.01v.841h5.738v6.355h-2.299v.99h4.019v1.869zm-13.065-6.747h3.439v-.954h-3.439zm0 2.373h3.439v-.953h-3.439zm5.607-3.327v.954h3.57v-.954zm3.57 2.374h-3.57v.953h3.57z"/><path d="m364.429 300.963h-4.916v9.515h-2.205v-16.711h7.121zm-4.916-5.401v.972h2.842v-.972zm2.842 3.626v-1.065h-2.842v1.065zm10.691 8.599c0 1.271-.262 1.925-1.084 2.262-.804.374-2.038.411-3.851.411-.094-.636-.449-1.683-.785-2.28 1.178.074 2.561.056 2.953.056s.523-.131.523-.486v-6.729h-5.065v-7.253h7.309v14.02zm-5.196-12.225v.972h2.953v-.972zm2.953 3.663v-1.103h-2.953v1.103z"/><path d="m377.104 298.721c-.355.392-.748.804-1.159 1.177-.243-.504-.822-1.327-1.233-1.682 1.757-1.515 2.916-3.533 3.552-5.178h1.775c1.215.972 2.841 2.448 3.57 3.532l-1.365 1.963c-.561-.897-1.682-2.28-2.747-3.252-.449.822-1.01 1.738-1.72 2.635h4.037v1.851h-4.71zm5.57 7.44c0 .841-.112 1.401-.654 1.7-.542.318-1.196.337-2.131.337-.057-.561-.262-1.346-.505-1.869.523.019.99.019 1.159 0 .168 0 .205-.057.205-.225v-3.196h-1.551v7.533h-1.981v-7.533h-1.552v-1.925h7.01zm4.43 1.775c-1.028.99-2.785 2.037-4.225 2.598-.354-.43-1.009-1.065-1.495-1.458 1.458-.504 3.103-1.495 3.906-2.317l1.813 1.178zm-.897-11.085c.075-.411.131-.822.188-1.233h-3.552v-1.869h9.477v1.869h-3.495c-.131.43-.262.842-.393 1.233h3.364v9.889h-8.317v-9.889h2.729zm3.458 1.646h-4.168v1.178h4.168zm0 2.691h-4.168v1.196h4.168zm0 2.73h-4.168v1.196h4.168zm-.019 2.971c1.028.673 2.449 1.683 3.178 2.393l-1.757 1.252c-.636-.71-2.019-1.794-3.065-2.542l1.645-1.103z"/><path d="m399.536 305.413c-1.645.972-3.458 2-4.991 2.822l-.841-2.243c.523-.224 1.159-.523 1.851-.841v-5.589h-1.683v-2.112h1.683v-4.188h2.075v4.188h1.401v2.131h-1.401v4.505l1.271-.636.636 1.963zm11.233-6.206c-.579 2.449-1.401 4.636-2.485 6.505.317 1.664.747 2.673 1.196 2.673.262 0 .411-.691.467-2.354.411.522 1.028.99 1.496 1.233-.318 2.486-.86 3.196-2.262 3.196-1.047 0-1.832-.991-2.412-2.58-.766.954-1.645 1.776-2.616 2.468-.3-.374-1.122-1.084-1.589-1.402.896-.561 1.682-1.233 2.393-1.98-1.981.522-4.075 1.084-5.683 1.495l-.523-2.075c1.626-.299 4.075-.859 6.43-1.383l.169 1.477c.28-.337.542-.673.785-1.028-.431-2.225-.673-4.953-.785-7.851h-6.038v-2.019h5.963c-.019-.86-.037-1.701-.037-2.561h2.112c-.019.859-.019 1.7 0 2.561h1.981c-.468-.486-1.085-1.047-1.627-1.477l1.253-1.084c.729.523 1.626 1.271 2.056 1.812l-.804.748h.822v2.019h-3.626c.075 1.701.188 3.29.355 4.711.43-1.085.747-2.243 1.028-3.496l1.98.393zm-6.112-.355v5.682h-4.804v-5.682zm-1.738 1.7h-1.438v2.28h1.438z"/><path d="m418.23 295.02h4.579c2.842 0 5.01.822 5.01 3.401 0 1.271-.71 2.58-1.888 2.991v.093c1.495.355 2.598 1.402 2.598 3.271 0 2.785-2.317 4.075-5.364 4.075h-4.935v-13.832zm4.374 5.626c1.757 0 2.523-.71 2.523-1.813 0-1.215-.823-1.7-2.486-1.7h-1.645v3.514h1.607zm.317 6.075c1.888 0 2.916-.673 2.916-2.112 0-1.346-1.01-1.907-2.916-1.907h-1.925v4.02h1.925z"/><circle cx="34.116" cy="145.25" fill="#005a96" r="24.382"/><g fill="#fff"><path d="m29.046 139.489c-2.225-.931-4.449-1.862-6.674-2.793l-.952-.398c-.449-.188-.99.202-1.107.629-.143.519.178.919.629 1.107 2.225.931 4.449 1.862 6.674 2.793.317.133.634.265.952.398.449.188.99-.202 1.107-.629.143-.519-.178-.919-.629-1.107z"/><path d="m28.636 139.74c-2.231.915-4.462 1.83-6.694 2.744-.318.13-.636.261-.954.391-.449.184-.768.598-.629 1.107.117.425.655.814 1.107.629 2.231-.915 4.462-1.83 6.694-2.744.318-.13.636-.261.954-.391.449-.184.768-.598.629-1.107-.117-.425-.655-.814-1.107-.629z"/><path d="m39.665 141.224c2.225-.931 4.449-1.862 6.674-2.793l.952-.398c.448-.187.769-.596.629-1.107-.116-.423-.656-.817-1.107-.629-2.225.931-4.449 1.862-6.674 2.793l-.952.398c-.448.187-.769.596-.629 1.107.116.423.656.817 1.107.629z"/><path d="m39.118 141.475c2.231.915 4.462 1.83 6.694 2.744.318.13.636.261.954.391.45.184.989-.2 1.107-.629.142-.516-.177-.922-.629-1.107-2.231-.915-4.462-1.83-6.694-2.744-.318-.13-.636-.261-.954-.391-.45-.184-.989.2-1.107.629-.142.516.177.922.629 1.107z"/><path d="m34.116 148.353c-5.141 0-9.31 4.168-9.31 9.31h18.619c0-5.142-4.168-9.31-9.31-9.31z"/></g><circle cx="116.359" cy="144.691" fill="#b3bfc4" r="17.574"/><path d="m107.22 167.233h18.277c15.117 0 27.389 12.273 27.389 27.389v27.055c0 .945-.767 1.712-1.712 1.712h-69.632c-.945 0-1.712-.767-1.712-1.712v-27.055c0-15.117 12.273-27.389 27.389-27.389z" fill="#b3bfc4"/><circle cx="376.221" cy="144.691" fill="#d4dadc" r="17.574"/><path d="m367.083 167.233h18.277c15.117 0 27.389 12.273 27.389 27.389v27.055c0 .945-.767 1.712-1.712 1.712h-69.632c-.945 0-1.712-.767-1.712-1.712v-27.055c0-15.117 12.273-27.389 27.389-27.389z" fill="#d4dadc"/><path d="m172.236 102.346h-1.727v9.714h-2.218v-9.714h-1.903c-.02 2.924-.432 7.064-2.963 9.772-.295-.51-1.139-1.295-1.668-1.589.098-.118.216-.236.313-.354h-5.572v1.373h-2.021v-17.13h2.021v10.635c.98-.863 1.942-2.296 2.551-3.688h-2.178v-1.963h2.374v-5.455h1.903v4.572c.354-.941.726-2.374.902-3.355l1.825.432c-.49 1.178-1.001 2.551-1.433 3.414l-1.295-.432v.824h2.354v1.963h-2.354v.274c.55.451 2.119 1.903 2.492 2.276l-1.256 1.55c-.255-.412-.746-1.079-1.236-1.707v4.022h-1.903v-3.395c-.569 1.06-1.217 2.021-1.923 2.669-.157-.55-.53-1.314-.824-1.845v2.943h6.691v.138c.863-2.021.961-4.278.961-6.182v-6.809l1.374.373c1.766-.433 3.591-1.08 4.729-1.688l1.884 1.708c-1.667.745-3.787 1.334-5.749 1.766v2.728h5.848v2.158zm-14.658-3.336c-.02-.922-.314-2.315-.667-3.375l1.412-.451c.412 1.021.707 2.414.766 3.316z"/><path d="m178.168 105.565c-.196 1.845-.608 3.807-1.178 5.062-.412-.255-1.275-.667-1.785-.844.568-1.158.883-2.904 1.04-4.553l1.923.334zm3.472-5.475c.746 1.334 1.512 3.041 1.728 4.16l-1.648.745c-.059-.294-.138-.628-.255-1.001l-1.001.079v8.025h-2.021v-7.889l-2.845.177-.196-2.021 1.412-.06c.295-.373.608-.805.923-1.256-.569-.844-1.511-1.884-2.315-2.669l1.118-1.589c.138.117.294.255.451.393.55-1.079 1.099-2.375 1.433-3.415l2.021.746c-.707 1.334-1.491 2.846-2.198 3.944.255.274.471.549.667.785.668-1.1 1.296-2.218 1.747-3.18l1.903.884c-1.079 1.707-2.434 3.688-3.67 5.278l1.884-.079c-.216-.49-.451-.98-.687-1.412l1.55-.647zm.511 4.984c.49 1.119 1.001 2.552 1.217 3.532l-1.728.628c-.176-.98-.687-2.492-1.138-3.649l1.648-.511zm8.517 4.867c.961 0 1.138-.432 1.275-2.61.49.314 1.393.688 1.981.824-.274 2.924-.883 3.807-3.081 3.807h-3.826c-2.473 0-3.237-.647-3.237-3.12v-7.339l-.04.04c-.392-.412-1.334-1.158-1.884-1.492 1.57-1.511 2.964-3.943 3.788-6.318l2.236.569c-.137.393-.294.766-.451 1.158h2.315l.412-.138 1.433.941c-.373.903-.863 1.903-1.374 2.826h3.042v7.339h-2.158v-.628h-5.161v3.041c0 .942.196 1.1 1.295 1.1zm-4.18-12.481c-.295.569-.608 1.118-.942 1.629h2.374c.275-.49.55-1.06.785-1.629zm-.55 6.319h1.569v-2.648h-1.569zm5.161-2.649h-1.629v2.648h1.629z"/><path d="m212.167 99.403v1.982h-13.932v-1.982zm-13.932 4.611h13.932v1.982h-13.932z"/><path d="m222.911 98.835h-6.476v-1.845h6.476zm-.51 12.185h-3.415v.785h-1.805v-6.691h5.22zm-5.161-11.303h5.2v1.785h-5.2zm0 2.689h5.2v1.746h-5.2zm5.14-6.279h-5.023v-1.767h5.023zm-3.394 10.811v2.257h1.551v-2.257zm14.893.53c-.51.766-1.157 1.491-1.903 2.139.295.49.647.746 1.021.746.295 0 .491-.511.55-1.57.393.354.922.628 1.334.805-.274 1.884-.883 2.57-2.1 2.57-1.001 0-1.746-.51-2.315-1.393-.667.432-1.334.784-2.001 1.079-.236-.354-.746-.903-1.119-1.217.824-.334 1.668-.805 2.453-1.354-.255-.805-.451-1.747-.589-2.807h-1.903v.746l1.57-.157.039 1.648-1.609.196v1.314c0 .902-.177 1.314-.766 1.59-.628.255-1.472.274-2.629.274-.079-.49-.334-1.178-.569-1.648.667.02 1.413.02 1.629.02.235-.02.313-.078.313-.294v-1.021c-.844.117-1.648.196-2.354.274l-.216-1.785c.746-.06 1.609-.138 2.57-.216v-.942h-2.452v-1.688h2.452v-.844c-.628.078-1.236.118-1.824.157-.06-.393-.275-.981-.451-1.354 1.647-.156 3.61-.451 4.768-.824l1.197 1.374c-.02-.373-.039-.746-.039-1.118h1.942c0 .941.02 1.824.059 2.609h2.021c-.393-.569-1.178-1.314-1.864-1.806l1.334-.922c.727.49 1.609 1.256 2.002 1.806l-1.275.922h1.394v1.688h-3.454c.078.55.177 1.021.274 1.452.354-.373.688-.785.942-1.217l1.569.766zm-6.279-10.361h-4.12v-1.55h2.139c-.216-.412-.49-.863-.746-1.236l1.648-.569c.432.53.903 1.296 1.119 1.806h2.413c.334-.55.707-1.295.883-1.806l2.041.491c-.333.471-.647.922-.922 1.314h2.119v1.55h-4.337v.727h3.729v1.472h-3.729v.785h4.729v1.668h-11.695v-1.668h4.729v-.785h-3.492v-1.472h3.492zm1.452 7.673c-.039-.471-.059-.981-.078-1.491-.51.138-1.079.255-1.668.373v1.118z"/><path d="m246.951 99.638c-.529.433-1.079.845-1.648 1.178-.235-.569-.745-1.394-1.118-1.903l.137-.078h-6.357v-1.845h6.946v1.472c1.786-1.236 3.435-3.14 4.278-4.69h2.1c1.334 1.963 3.316 3.925 5.278 4.887-.451.549-.902 1.373-1.236 2.041-.51-.314-1.04-.688-1.55-1.119v1.314h-6.829v-1.256zm-2.65 11.382h-3.63v.785h-1.903v-6.691h5.533zm-.039-9.518h-5.436v-1.785h5.436zm-5.435.904h5.436v1.746h-5.436zm5.396-6.279h-5.278v-1.767h5.278zm-3.552 10.811v2.257h1.727v-2.257zm14.757 3.101c0 .824-.118 1.314-.608 1.629-.472.294-1.06.334-1.864.334-.06-.53-.314-1.276-.55-1.786.354.02.687.02.824.02.157 0 .196-.059.196-.216v-2.119h-1.04v3.925h-1.53v-3.925h-.981v3.925h-1.53v-3.925h-.942v4.062h-1.942v-9.89h9.969v7.967zm-7.084-3.964v-2.158h-.942v2.158zm4.748-7.084c-1.099-1-2.1-2.139-2.786-3.14-.608 1.001-1.55 2.14-2.629 3.14zm-2.236 7.084v-2.158h-.981v2.158zm2.57 0v-2.158h-1.04v2.158z"/><path d="m261.899 96.852c1.629-.137 4.847-.432 8.398-.745 2.002-.157 4.121-.275 5.494-.334l.02 2.512c-1.04 0-2.708.02-3.747.255-2.355.628-4.102 3.14-4.102 5.436 0 3.198 2.982 4.356 6.279 4.514l-.902 2.688c-4.082-.256-7.928-2.453-7.928-6.672 0-2.807 1.55-5.004 2.864-5.985-1.688.177-5.769.608-8.025 1.099l-.255-2.668c.785-.02 1.53-.06 1.903-.099zm12.755 5.985-1.491.667c-.491-1.079-.903-1.845-1.531-2.728l1.452-.608c.472.706 1.197 1.884 1.57 2.669zm2.276-.961-1.472.707c-.53-1.061-.981-1.786-1.609-2.649l1.433-.667c.49.687 1.236 1.845 1.648 2.609z"/><path d="m295.648 101.424c-.804.294-1.863.55-3.002.785.49 1.04 1.04 2.178 1.609 3.237l-1.158 1.472c-1.079-.196-2.943-.49-4.238-.647l.216-1.864c.766.099 1.53.157 2.061.216l-.883-2.021c-2.434.274-5.593.333-8.536.117l-.099-2.236c2.904.274 5.554.274 7.751.039l-.333-.766-.471-1.099c-1.903.157-4.337.157-6.691-.079l-.118-2.217c2.218.235 4.16.313 5.887.216v-.02c-.353-.707-.608-1.139-.941-1.668l2.767-.53c.138.589.354 1.256.608 1.943 1.314-.216 2.57-.511 3.729-.903l.412 2.179c-1.001.294-2.061.568-3.336.784l.372.844.452.981c1.491-.294 2.609-.628 3.473-.961l.471 2.197zm-10.891 3.65c-.255.589-.471 1.413-.471 1.884 0 1.217.863 2.041 3.395 2.041 1.845 0 3.768-.157 5.142-.432l-.078 2.492c-1.08.177-3.062.373-5.004.373-3.631 0-5.867-1.236-5.867-3.925 0-.883.255-1.923.471-2.649l2.413.216z"/><path d="m309.673 98.932c-.883.235-2.08.49-3.375.667-.923 2.728-2.591 6.103-4.16 8.32l-2.375-1.197c1.57-1.903 3.101-4.768 3.964-6.867-.333.02-.667.02-1 .02-.805 0-1.59-.02-2.434-.06l-.177-2.276c.844.099 1.884.138 2.591.138.568 0 1.157-.02 1.746-.059.274-1.079.49-2.257.529-3.258l2.688.275c-.156.628-.393 1.608-.667 2.648.942-.157 1.845-.373 2.61-.608l.059 2.257zm2.551 1.746c-.059.824-.02 1.629 0 2.492.02.55.059 1.491.118 2.453 1.668.628 3.041 1.609 4.022 2.492l-1.295 2.08c-.688-.628-1.57-1.413-2.63-2.061v.177c0 1.806-.981 3.218-3.748 3.218-2.413 0-4.317-1.079-4.317-3.218 0-1.903 1.59-3.375 4.298-3.375.451 0 .902.039 1.314.078-.059-1.452-.156-3.159-.216-4.337h2.453zm-2.138 6.437c-.511-.117-1.021-.196-1.57-.196-1.118 0-1.845.472-1.845 1.158 0 .726.608 1.217 1.668 1.217 1.315 0 1.747-.766 1.747-1.806zm5.474-5.397c-1.118-.902-3.336-2.178-4.67-2.767l1.256-1.923c1.393.608 3.807 1.923 4.787 2.63z"/><path d="m323.813 98.755c-.02 1.256 0 2.728.118 4.121.274 2.806.863 4.709 2.08 4.709.922 0 1.688-2.275 2.061-3.807l1.962 2.355c-1.295 3.375-2.512 4.571-4.081 4.571-2.119 0-3.983-1.923-4.533-7.143-.177-1.785-.216-4.042-.216-5.239 0-.549-.02-1.373-.138-1.962l2.983.039c-.138.687-.236 1.825-.236 2.354zm13.501 7.987-2.57.981c-.295-3.12-1.335-7.692-3.454-10.086l2.473-.824c1.845 2.257 3.336 6.946 3.552 9.929z"/><path d="m244.33 44.017h-3.7l-4.217-8.973c-1.01-2.176-1.705-3.791-2.49-5.742h-.314c.112 2.063.157 4.127.157 6.28v8.435h-2.781v-17.406h4.554l3.611 7.716c.986 2.176 1.659 3.948 2.31 5.967h.314c-.135-2.131-.225-4.037-.225-6.37v-7.312h2.781v17.406z" fill="#fff"/><path d="m259.681 32.106c-.427-2.198-1.615-3.454-3.611-3.454-2.646 0-4.419 2.243-4.419 6.685 0 4.419 1.728 6.684 4.374 6.684 2.444 0 3.611-1.951 3.88-4.732h-4.06v-2.333h6.887v9.175h-2.02l-.336-2.535c-.897 1.795-2.58 2.759-4.666 2.759-4.329 0-7.268-3.229-7.268-8.994s3.118-9.04 7.582-9.04c3.611 0 5.854 2.02 6.595 5.092l-2.938.695z" fill="#fff"/><path d="m248.921 127.117-10 10.695 10 10.695-10 10.693 10 10.693-10 10.695 10 10.7-10 10.695 10 10.704-10 10.703" fill="none" stroke="#005a96" stroke-miterlimit="10" stroke-width="4"/></svg>