<?xml version="1.0" encoding="UTF-8"?>
<svg id="_レイヤー_2" data-name="レイヤー 2" xmlns="http://www.w3.org/2000/svg" viewBox="0 0 1109.89 109.49">
  <defs>
    <style>
      .cls-1 {
        fill: #fff;
        stroke: #000;
        stroke-miterlimit: 10;
      }

      .cls-2 {
        fill: #000;
        stroke-width: 0px;
      }
    </style>
  </defs>
  <g id="_枠" data-name="枠">
    <g>
      <g>
        <rect class="cls-1" x=".5" y=".5" width="237.02" height="108.49"/>
        <g>
          <path class="cls-2" d="M56.76,60.42c-2.87,0-3.86.07-4.06.07-.3,0-.33-.03-.33-.36v-1.98c0-.33.03-.36.33-.36.2,0,1.19.07,4.06.07h8.85v-1.55h-5.45c-3.2,0-4.29.07-4.49.07-.33,0-.36-.03-.36-.33v-1.81c0-.33.03-.36.36-.36.2,0,1.29.07,4.49.07h5.45v-1.45h-4.26c-3.23,0-4.39.07-4.59.07-.36,0-.4-.03-.4-.4,0-.2.07-.63.07-1.72v-1.78c0-1.09-.07-1.52-.07-1.72,0-.36.03-.4.4-.4.2,0,1.35.07,4.59.07h4.26v-1.45h-8.32c-2.97,0-3.99.07-4.19.07-.33,0-.36-.03-.36-.36v-2.08c0-.33.03-.36.36-.36.2,0,1.22.07,4.19.07h8.32c0-1.32-.07-2.11-.23-3.04,1.22.03,2.28.07,3.43.2.3.03.53.17.53.36,0,.26-.1.43-.2.63-.13.36-.2.76-.2,1.85h8.38c2.97,0,3.99-.07,4.19-.07.33,0,.36.03.36.36v2.08c0,.33-.03.36-.36.36-.2,0-1.22-.07-4.19-.07h-8.38v1.45h4.39c3.23,0,4.39-.07,4.62-.07.33,0,.36.03.36.4,0,.2-.07.63-.07,1.72v1.78c0,1.09.07,1.52.07,1.72,0,.36-.03.4-.36.4-.23,0-1.39-.07-4.62-.07h-4.39v1.45h5.35c3.23,0,4.39-.07,4.55-.07.33,0,.36.03.36.36,0,.2-.07.99-.07,2.87v.76c1.95,0,2.71-.07,2.87-.07.3,0,.33.03.33.36v1.98c0,.33-.03.36-.33.36-.17,0-.92-.03-2.87-.07v1.68c0,1.98.07,2.84.07,3.04,0,.33-.03.36-.36.36h-2.54c-.33,0-.36-.03-.36-.36v-.73h-6.96c.03.59.03,1.16.03,1.65,0,1.52-.3,2.41-1.19,2.94-.83.46-2.28.69-4.65.73-.99,0-.99-.03-1.32-.96-.3-.83-.73-1.72-1.29-2.51,1.22.13,2.11.16,3.33.13,1.42-.03,1.72-.26,1.72-1.22v-.76h-5.41c-3.23,0-4.32.07-4.52.07-.33,0-.36-.03-.36-.4v-1.78c0-.36.03-.4.36-.4.2,0,1.29.07,4.52.07h5.41v-1.55h-8.85ZM65.61,50.35v-1.65h-5.97v1.65h5.97ZM75.05,48.7h-6.11v1.65h6.11v-1.65ZM68.94,56.29v1.55h7v-1.55h-7ZM75.94,61.97v-1.55h-7v1.55h7Z"/>
          <path class="cls-2" d="M91.62,61.7c-2.97,0-3.96.07-4.16.07-.36,0-.4-.03-.4-.36v-1.95c0-.36.03-.4.4-.4.2,0,1.19.07,4.16.07h8.15v-1.78h-4.65c-3.2,0-4.36.07-4.55.07-.33,0-.33-.03-.33-.36v-1.88c0-.36,0-.4.33-.4.2,0,1.35.07,4.55.07h4.65v-1.75h-6.21c-3.17,0-4.22.07-4.42.07-.36,0-.4-.03-.4-.33v-1.95c0-.33.03-.36.4-.36.2,0,1.25.07,4.42.07h2.01c-.36-.79-.69-1.45-1.06-2.08-.17-.3-.2-.43.23-.56l2.15-.59h-5.28c-2.97,0-3.96.07-4.16.07-.36,0-.4-.03-.4-.36v-2.05c0-.36.03-.4.4-.4.2,0,1.19.07,4.16.07h.23c-.53-1.06-1.12-1.88-1.88-2.84-.2-.23-.13-.36.26-.56l1.91-.89c.33-.17.43-.13.63.13.79.96,1.62,2.08,2.21,3.2.17.3.17.33-.26.56l-.79.4h3.07v-2.18c0-1.16,0-1.95-.2-2.87,1.02.03,2.31.1,3.2.2.26.03.4.13.4.3,0,.2-.07.36-.13.56-.1.23-.2.73-.2,1.82v2.18h2.67v-2.15c0-1.19,0-1.98-.2-2.9.99.03,2.28.1,3.17.23.3.03.43.13.43.3s-.07.36-.13.53c-.1.23-.2.73-.2,1.82v2.18h2.05c.59-.92,1.06-1.75,1.52-2.71.23-.5.43-.99.56-1.78,1.16.23,2.31.56,3.2.86.3.1.43.26.43.43,0,.26-.13.4-.33.56-.23.2-.4.4-.56.63-.43.69-.89,1.35-1.35,2.01h.46c2.97,0,3.96-.07,4.16-.07.33,0,.36.03.36.4v2.05c0,.33-.03.36-.36.36-.2,0-1.19-.07-4.16-.07h-5.78c.86.17,1.62.33,2.61.59.26.07.43.2.43.4,0,.23-.17.4-.36.5-.17.1-.33.46-.46.69l-.59,1.06h2.15c3.17,0,4.22-.07,4.42-.07.33,0,.36.03.36.36v1.95c0,.3-.03.33-.36.33-.2,0-1.25-.07-4.42-.07h-6.67v1.75h5.25c3.24,0,4.36-.07,4.55-.07.33,0,.36.03.36.4v1.88c0,.33-.03.36-.36.36-.2,0-1.32-.07-4.55-.07h-5.25v1.78h8.68c2.97,0,3.96-.07,4.16-.07.33,0,.36.03.36.4v1.95c0,.33-.03.36-.36.36-.2,0-1.19-.07-4.16-.07h-5.88c2.77,1.95,6.24,3.23,10.99,4.29-.43.53-.89,1.22-1.29,2.11-.26.63-.4.86-.73.86-.17,0-.4-.07-.76-.17-4.46-1.29-8.38-3.47-11.09-5.91,0,3.93.17,5.97.17,6.54,0,.33-.03.36-.36.36h-2.8c-.3,0-.33-.03-.33-.36,0-.56.1-2.48.13-6.4-2.77,2.64-6.21,4.49-10.59,5.91-.36.13-.59.2-.76.2-.3,0-.43-.23-.73-.86-.43-.86-.89-1.55-1.32-1.98,4.39-1.09,7.76-2.44,10.53-4.59h-5.35ZM104.36,50.58c.3-.56.56-1.12.89-1.91.17-.36.23-.69.36-1.32h-8.42c.1.03.17.13.26.26.5.82,1.02,1.81,1.49,2.97h5.41Z"/>
          <path class="cls-2" d="M130.83,40.48c2.18,0,3.14-.07,3.33-.07.3,0,.33.03.33.36,0,.23-.07,1.15-.07,3.17v3.89c0,2.01.07,2.94.07,3.14,0,.33-.03.36-.33.36-.2,0-1.16-.07-3.33-.07h-5.41v11.02c0,4.62.07,6.9.07,7.13,0,.33-.03.36-.36.36h-2.81c-.33,0-.36-.03-.36-.36,0-.23.07-2.51.07-7.13v-14.32c0-4.62-.07-6.96-.07-7.19,0-.33.03-.36.36-.36.23,0,1.49.07,3.93.07h4.59ZM125.42,42.92v1.88h5.78v-1.88h-5.78ZM131.19,47.02h-5.78v1.91h5.78v-1.91ZM133.93,61.74c-.07.53-.13.99-.23,1.42-.46,2.15-1.55,4.03-3.13,5.54-.33.3-.5.46-.63.46-.2,0-.36-.2-.76-.59-.53-.53-1.32-1.06-1.95-1.39,1.82-1.16,3-2.71,3.53-4.85l.07-.59c-2.51.03-3.43.07-3.6.07-.33,0-.36-.03-.36-.4v-1.98c0-.33.03-.36.36-.36.17,0,1.12.07,3.76.07.03-.83.07-1.85.07-3-1.98.03-2.74.07-2.9.07-.36,0-.4-.03-.4-.36v-2.01c0-.33.03-.36.4-.36.2,0,1.19.07,4.13.07h7.06c2.94,0,3.93-.07,4.12-.07.33,0,.36.03.36.36v2.01c0,.33-.03.36-.36.36-.17,0-.99-.03-3.04-.07v3c2.61,0,3.6-.07,3.76-.07.33,0,.36.03.36.36v1.98c0,.36-.03.4-.36.4-.17,0-1.16-.07-3.76-.07v3.07c0,2.28.07,3.37.07,3.56,0,.36-.03.4-.36.4h-2.44c-.33,0-.36-.03-.36-.4,0-.2.07-1.29.07-3.56v-3.07h-3.46ZM137.4,59.13v-3h-3.2c0,1.12-.03,2.15-.07,3h3.27ZM149.61,59.46c0,2.31.13,4.42.13,6.04s-.2,2.38-.96,3.04c-.76.66-1.72.89-4.36.89-1.02,0-1.06,0-1.22-1.02-.17-.99-.43-1.75-.76-2.41.92.13,1.68.17,2.41.17,1.09,0,1.35-.3,1.35-1.29v-13.6h-5.41c-2.58,0-3.43.07-3.63.07-.36,0-.4-.03-.4-.36,0-.2.07-.92.07-2.87v-4.42c0-1.91-.07-2.67-.07-2.9,0-.33.03-.36.4-.36.2,0,1.06.07,3.63.07h4.85c2.57,0,3.46-.07,3.66-.07.33,0,.36.03.36.36,0,.23-.07,1.62-.07,4.52v14.16ZM140.07,42.92v1.88h6.14v-1.88h-6.14ZM146.21,47.02h-6.14v1.91h6.14v-1.91Z"/>
          <path class="cls-2" d="M174.85,64.81c0,.63.1.96.36,1.16.3.23.92.33,2.41.33s2.21-.17,2.61-.53c.43-.4.69-1.16.83-3.3.66.43,1.42.73,2.24.92.89.23.96.26.83,1.12-.33,2.34-.76,3.33-1.75,3.96-.92.59-2.38.83-4.75.83-2.71,0-4.26-.13-5.12-.73-.83-.56-1.02-1.12-1.02-2.77v-5.45h-4.06c-.92,4.59-3.46,7.06-8.91,9.04-.36.13-.56.23-.73.23-.26,0-.4-.23-.73-.83-.46-.86-1.09-1.65-1.68-2.15,5.15-1.35,7.52-2.9,8.48-6.3h-2.47c-3.14,0-4.22.07-4.42.07-.36,0-.4-.03-.4-.36v-2.38c0-.33.03-.36.4-.36.2,0,1.29.07,4.42.07h2.97c.03-.73.07-1.52.07-2.41v-1.12c-1.42.03-2.01.07-2.15.07-.36,0-.4-.03-.4-.36v-1.25c-1.39.89-2.87,1.68-4.42,2.44-.36.17-.59.26-.76.26-.26,0-.4-.26-.69-.86-.36-.69-.79-1.25-1.35-1.82,2.28-.89,4.32-1.91,6.11-3.04-1.12-1.25-2.14-2.24-3.33-3.2-.17-.13-.26-.23-.26-.33,0-.07.1-.17.26-.3l1.65-1.32c.3-.23.36-.3.66-.07,1.32,1.09,2.44,2.15,3.6,3.33,1.45-1.19,2.67-2.48,3.7-3.93h-3.7c-2.48,0-3.27.07-3.47.07-.36,0-.4-.03-.4-.36v-2.28c0-.33.03-.36.4-.36.2,0,.99.07,3.47.07h4.55c1.85,0,2.77-.07,3-.07.3,0,.4.03.56.4.36,1.02.86,1.98,1.52,2.84.13.23.3.43.46.66.79-.73,1.45-1.42,1.98-2.11.33-.4.59-.79.92-1.39.99.5,1.95,1.12,2.54,1.52.3.2.36.36.36.53,0,.2-.13.36-.43.5-.26.13-.59.3-1.12.89-.69.73-1.39,1.42-2.28,2.18.59.53,1.19,1.06,1.82,1.52,1.12-.96,2.11-1.95,2.81-2.74.33-.43.63-.83.92-1.42.96.53,1.82,1.02,2.57,1.52.3.2.4.36.4.56s-.17.36-.43.46c-.33.13-.59.3-1.16.89-.73.73-1.58,1.52-2.54,2.34,1.65.89,3.43,1.62,5.38,2.24-.5.66-.86,1.29-1.19,2.08-.26.63-.36.86-.63.86-.17,0-.4-.07-.76-.23-1.91-.83-3.6-1.68-5.08-2.64v1.55c0,.33-.03.36-.36.36-.17,0-.79-.03-2.31-.07v3.53h3.33c3.17,0,4.22-.07,4.46-.07.33,0,.36.03.36.36v2.38c0,.33-.03.36-.36.36-.23,0-1.29-.07-4.46-.07h-3.33v4.46ZM175.97,50.94c-2.48-1.85-4.39-3.99-5.97-6.63-1.58,2.54-3.66,4.72-6.21,6.63h12.18ZM171.48,57.38v-3.53h-3.63v1.12c0,.86-.03,1.65-.07,2.41h3.7Z"/>
        </g>
      </g>
      <g>
        <rect class="cls-1" x="320.28" y=".5" width="169.99" height="108.49"/>
        <g>
          <path class="cls-2" d="M385.14,45.27h-7.62v22.01h-4.49v-22.01h-7.56v-3.6h19.67v3.6Z"/>
          <path class="cls-2" d="M390.01,59.13c.03,3.43,1.55,5.71,4.55,5.71,1.88,0,3.2-1.06,3.83-3.43l3.76,1.09c-1.12,3.47-3.6,5.25-7.62,5.25-5.41,0-8.58-3.47-8.58-9.41s3.33-9.57,8.22-9.57c4.62,0,8.09,3.37,8.09,9.51v.86h-12.25ZM398.19,56.39c-.2-3.04-1.49-4.75-3.96-4.75s-3.96,1.85-4.16,4.75h8.12Z"/>
          <path class="cls-2" d="M418.32,55.47c-.4-2.51-1.52-3.66-3.2-3.66-2.67,0-4.06,2.28-4.06,6.44s1.39,6.47,4.06,6.47c1.95,0,3.07-1.29,3.47-3.8l3.86,1.06c-.89,3.76-3.53,5.78-7.43,5.78-5.15,0-8.22-3.53-8.22-9.44s3.17-9.54,8.22-9.54c3.89,0,6.53,2.08,7.33,5.78l-4.03.92Z"/>
          <path class="cls-2" d="M431.64,52.23c1.45-2.05,3.53-3.43,5.81-3.43,3,0,5.18,1.95,5.18,5.41v13.07h-4.26v-11.88c0-2.11-.89-3.04-2.51-3.04-1.45,0-3.1,1.22-4.22,3.1v11.82h-4.16v-26.07h4.16v11.02Z"/>
        </g>
      </g>
      <rect class="cls-1" x="573.03" y=".5" width="237.02" height="108.49"/>
      <g>
        <path class="cls-2" d="M611.26,46.32c1.91,0,2.31-.1,2.74-.3.17-.1.33-.17.46-.17.2,0,.4.1.56.26.89.79,1.65,1.62,2.38,2.64.17.26.26.5.26.73,0,.26-.13.5-.43.69-.69.5-1.16.79-1.58,1.25-2.84,3.14-5.91,6.21-8.88,8.85,1.06,1.06,1.95,2.08,2.9,3.3.17.2.23.33.23.5s-.1.33-.3.53c-.66.66-1.39,1.35-2.15,1.95-.17.1-.3.17-.43.17s-.26-.1-.4-.3c-3.2-4.13-6.54-7.36-10.59-10.26.66-.63,1.78-1.68,2.38-2.21.13-.1.26-.17.36-.17.13,0,.26.1.46.23,1.72,1.25,3.3,2.41,4.69,3.7,2.77-2.41,5.18-4.95,7.62-7.79l-13.9.07c-1.91,0-4.36.07-6.14.23-.43,0-.53-.2-.59-.59-.2-1.16-.33-2.31-.4-3.53,2.24.23,4.92.23,7.2.23h13.53Z"/>
        <path class="cls-2" d="M624.52,57.02c-2.29,0-3.17.4-3.4.4-.28,0-.46-.2-.53-.69-.12-.76-.25-2.31-.35-3.99,1.5.33,2.66.4,4.99.4h7.44c1.76,0,3.53-.07,5.31-.1.35-.03.42.07.42.46.05.99.05,2.11,0,3.1,0,.4-.09.53-.42.5-1.73-.03-3.44-.07-5.15-.07h-8.32Z"/>
        <path class="cls-2" d="M661.82,51.37c-.3,4.39-1.02,7.1-2.67,10.1-1.62,2.87-3.83,5.41-6.54,7.06-.2.16-.46.26-.69.26-.2,0-.36-.07-.56-.23-.99-.66-2.24-1.12-3.4-1.45,3.83-2.28,5.91-4.29,7.46-7.1,1.42-2.54,2.11-5.12,2.28-8.65h-6.8c-1.39,2.18-3.07,4.22-4.59,5.68-.17.17-.36.26-.56.26-.17,0-.33-.07-.46-.17-.83-.53-2.08-.99-3.07-1.19,3.7-3.6,5.97-6.87,7.79-10.76.73-1.65,1.12-2.77,1.32-4.55,1.29.4,2.94.96,3.96,1.52.26.1.4.33.4.56s-.13.5-.36.63c-.46.3-.79.92-.99,1.35-.49,1.16-1.09,2.34-1.52,3.17h10.59c2.05,0,4.26-.13,6.34-.17.4,0,.53.17.53.59.03.89.03,1.78,0,2.67,0,.33-.13.53-.46.53-1.35-.07-4.03-.13-6.04-.13h-1.95Z"/>
        <path class="cls-2" d="M692.3,53.72c-.2,3.7-.66,5.91-1.95,8.42-1.32,2.57-3.7,4.98-5.81,6.24-.36.23-.69.4-.99.4-.23,0-.46-.1-.69-.33-.66-.66-1.78-1.32-2.94-1.75,3.23-1.75,5.18-3.37,6.57-5.88,1.22-2.18,1.55-3.96,1.68-7.1h-6.27c-1.65,0-3.27.1-4.95.2-.3.03-.4-.2-.43-.63-.17-.92-.26-2.18-.26-3.17,1.85.17,3.7.17,5.61.17h14.82c2.57,0,4.49-.07,6.44-.2.33,0,.36.2.36.66.03.43.03,2.11,0,2.54,0,.43-.2.56-.5.56-1.72-.07-3.99-.13-6.27-.13h-4.42ZM685.76,46.06c-1.52,0-2.84.07-4.69.13-.43,0-.53-.17-.56-.56-.1-.79-.13-1.98-.23-3.17,2.31.13,3.99.17,5.48.17h7.39c1.85,0,3.93-.03,5.58-.13.33,0,.4.2.4.63.07.79.07,1.62,0,2.41,0,.46-.07.63-.43.63-1.78-.07-3.73-.1-5.54-.1h-7.39Z"/>
        <path class="cls-2" d="M721.69,62.89c0,1.58.07,3.7.1,5.38.03.4-.17.56-.56.59-.86.07-1.82.07-2.67,0-.36-.03-.56-.2-.53-.59.03-1.88.1-3.53.1-5.28v-5.64c-2.24,1.88-5.15,3.89-6.83,4.75-.13.1-.3.13-.43.13-.23,0-.5-.13-.66-.33-.59-.69-1.49-1.35-2.38-1.65,5.18-2.71,9.67-6.17,13.7-10.73.76-.89,1.32-1.72,1.75-2.84,1.12.66,2.51,1.52,3.04,1.98.23.2.36.43.36.59,0,.23-.17.46-.5.63-.43.23-1.19,1.02-1.49,1.35-.86.99-1.85,2.08-3,3.2v8.45Z"/>
        <path class="cls-2" d="M737.47,44.08c.13-.17.3-.26.46-.26.13,0,.26.07.43.17,1.68.89,4.42,2.9,6.3,4.69.2.2.3.33.3.46s-.07.26-.2.43c-.5.66-1.58,1.98-2.05,2.48-.17.17-.26.26-.4.26s-.26-.1-.43-.26c-1.98-2.05-4.36-3.93-6.73-5.38.73-.89,1.68-1.91,2.31-2.57ZM740.34,61.47c4.03-2.08,6.17-3.47,9.5-6.14,4.03-3.27,6.24-5.38,9.04-8.98.2,1.65.5,2.77.92,3.86.1.23.17.43.17.63,0,.3-.17.56-.53.99-1.75,2.05-4.59,4.69-7.59,7-2.74,2.15-5.51,3.99-9.97,6.47-1.49.89-1.91,1.22-2.21,1.52-.2.2-.4.33-.59.33-.17,0-.36-.13-.56-.36-.83-.92-1.85-2.28-2.64-3.66,1.68-.46,2.71-.76,4.46-1.65Z"/>
        <path class="cls-2" d="M783.52,46.29c.86-.03,1.29-.17,1.65-.4.13-.1.26-.13.43-.13s.33.07.53.2c.83.53,1.58,1.16,2.24,1.78.3.26.43.53.43.76,0,.26-.17.49-.4.69-.46.36-.79.82-1.09,1.42-2.21,4.49-4.32,7.69-6.53,10.2-2.84,3.2-6.77,6.4-10.03,8.22-.2.13-.36.17-.53.17-.26,0-.5-.13-.76-.36-.83-.66-1.85-1.15-3.13-1.52,5.15-2.84,7.76-4.92,10.99-8.42,2.61-2.9,4.13-5.15,6.11-9.37l-7.99.23c-2.71,3.33-4.36,5.21-6.24,6.77-.23.23-.46.36-.69.36-.17,0-.33-.07-.5-.2-.83-.59-2.05-1.19-3.17-1.42,4.29-3.5,6.83-6.57,8.88-9.8,1.09-1.85,1.58-2.87,1.95-4.46,1.88.66,3.14,1.22,3.86,1.75.23.17.33.36.33.56s-.1.4-.36.56c-.33.2-.56.56-.83.89-.36.56-.69,1.06-1.09,1.65l5.94-.13ZM787.61,41.84c.17-.13.3-.1.5.07,1.02.79,2.21,2.11,3.13,3.53.13.2.13.36-.1.53l-1.39,1.02c-.23.17-.4.13-.56-.1-.99-1.52-2.05-2.77-3.33-3.83l1.75-1.22ZM790.55,39.69c.2-.13.3-.1.5.07,1.22.92,2.41,2.24,3.14,3.4.13.2.17.4-.1.59l-1.32,1.02c-.26.2-.43.1-.56-.1-.89-1.42-1.95-2.67-3.3-3.8l1.65-1.19Z"/>
      </g>
      <rect class="cls-1" x="892.8" y=".5" width="216.58" height="108.49"/>
      <g>
        <path class="cls-2" d="M960.95,49.76h-11.52c-2.24,0-3.8.07-4.95.2-.36,0-.5-.17-.5-.56-.1-.89-.17-2.44-.17-3.53,1.98.2,3.14.23,5.51.23h9.8c1.72,0,3.47-.07,5.21-.13.53,0,.69.13.66.56,0,1.75-.07,3.47-.07,5.21v7.89c0,2.41.1,5.05.13,5.97,0,.33-.13.43-.59.46-.92.07-1.98.07-2.9,0-.53-.03-.63-.07-.63-.56v-1.32h-11.35c-2.08,0-3.83.1-5.41.13-.3,0-.43-.13-.46-.5-.1-.86-.17-2.05-.17-3.43,1.55.1,3.47.17,6.07.17h11.32v-10.79Z"/>
        <path class="cls-2" d="M975.47,44.57c.13-.17.3-.26.46-.26.13,0,.26.07.43.17,1.68.89,4.42,2.9,6.3,4.69.2.2.3.33.3.46s-.07.26-.2.43c-.5.66-1.58,1.98-2.05,2.48-.17.17-.26.26-.4.26s-.26-.1-.43-.26c-1.98-2.05-4.36-3.93-6.73-5.38.73-.89,1.68-1.91,2.31-2.57ZM978.35,61.97c4.03-2.08,6.17-3.47,9.5-6.14,4.03-3.27,6.24-5.38,9.04-8.98.2,1.65.5,2.77.92,3.86.1.23.17.43.17.63,0,.3-.17.56-.53.99-1.75,2.05-4.59,4.69-7.59,7-2.74,2.15-5.51,3.99-9.97,6.47-1.49.89-1.91,1.22-2.21,1.52-.2.2-.4.33-.59.33-.17,0-.36-.13-.56-.36-.83-.92-1.85-2.28-2.64-3.66,1.68-.46,2.71-.76,4.46-1.65Z"/>
        <path class="cls-2" d="M1026.8,49.06c1.62,0,3.47-.03,4.98-.1.4-.03.43.17.46.53.07.83.07,1.78,0,2.61-.03.43-.1.56-.56.53-1.12,0-3.13-.03-4.75-.03h-1.35c-.2,4.72-.92,7.49-2.54,10.17-1.65,2.74-4.32,4.72-7.79,6.14-.46.2-.73.3-.92.3s-.36-.1-.63-.36c-.99-1.02-1.62-1.48-2.74-1.98,4.69-1.45,7.23-3.14,8.91-5.84,1.29-2.11,1.82-4.39,1.95-8.42h-7.03v1.19c0,1.95,0,3.73.1,5.48.03.36-.2.43-.56.46-.86.07-1.95.07-2.84,0-.43-.03-.63-.1-.59-.46.1-1.72.17-3.33.17-5.41v-1.25h-.99c-1.78,0-4.42.1-5.45.17-.26,0-.36-.2-.4-.63-.13-.69-.17-1.85-.23-3.2,1.39.1,3.53.17,6.07.17h.99v-2.41c0-2.11-.07-2.94-.4-4.85,1.72.17,3.33.33,4.03.53.36.07.5.23.5.46,0,.2-.1.43-.2.69-.23.59-.23.92-.23,3.17v2.41h7.1l.03-3.23c.03-1.85-.07-3.37-.3-4.52,1.25.13,3.07.33,3.86.56.46.1.59.26.59.53,0,.13-.03.33-.13.59-.23.63-.26,1.48-.26,2.9v3.14h1.15Z"/>
        <path class="cls-2" d="M1044.66,46.79c.56.17.63.56.43,1.02-.36.73-.4,1.45-.4,2.24-.07,4.13-.69,7.26-1.78,9.7-.86,2.01-2.31,4.16-4.69,6.2-.33.26-.59.43-.86.43-.2,0-.4-.1-.63-.26-.83-.56-1.62-.96-2.81-1.39,2.57-1.95,4.32-3.96,5.48-6.57.92-2.24,1.35-4.06,1.39-9.34,0-1.25-.07-1.78-.33-2.77,1.88.23,3.4.46,4.19.73ZM1051.99,60.75c1.62-.86,3.13-1.88,4.69-3.07,1.98-1.52,3.93-3.27,5.78-5.61.13,1.16.46,2.24,1.02,3.33.1.23.2.4.2.56,0,.23-.13.46-.5.83-1.65,1.68-3.17,3.04-4.88,4.32-1.72,1.32-3.56,2.61-5.88,3.96-.59.4-.66.46-.96.69-.2.17-.43.26-.66.26-.2,0-.43-.1-.69-.26-.73-.5-1.49-1.35-1.98-2.01-.2-.3-.3-.5-.3-.69,0-.17.03-.3.13-.5.23-.43.2-.83.2-2.51v-10.33c0-2.87,0-4.22-.33-5.74,1.32.17,3.14.4,4.13.69.43.1.59.3.59.56,0,.2-.1.5-.26.83-.3.63-.3,1.29-.3,3.66v11.02Z"/>
      </g>
    </g>
  </g>
</svg>