<?xml version="1.0" encoding="UTF-8"?><svg xmlns="http://www.w3.org/2000/svg" viewBox="0 0 755.31338 755.31338"><defs><style>.cls-1{fill:none;stroke:#000;stroke-miterlimit:10;stroke-width:.9px;}.cls-2{fill:#005a96;mix-blend-mode:multiply;}.cls-2,.cls-3{stroke-width:0px;}.cls-4{isolation:isolate;}.cls-3{fill:#fff;}</style></defs><g class="cls-4"><g id="_レイヤー_2"><g id="_枠"><rect class="cls-2" x="160.45721" y="160.45721" width="434.39897" height="434.39897" transform="translate(377.65669 -156.43052) rotate(45)"/><rect class="cls-1" x="111.06308" y="111.06308" width="533.18722" height="533.18722" transform="translate(377.65669 -156.43052) rotate(45)"/><path class="cls-3" d="M296.977,330.60878c-3.2998,1.16992-6.89941,2.30957-9.7793,3.23975l-.80957-3.62988c1.0498-.27002,2.2793-.6001,3.65918-.99023v-7.04932h-3.0293v-3.27002h3.0293v-5.27979h-3.2998v-3.33008h9.89941v3.33008h-3.20898v5.27979h2.69922v3.27002h-2.69922v5.99951c.98926-.2998,1.97949-.6001,2.93945-.92969l.59961,3.35986ZM314.79634,332.43837v3.23975h-19.28906v-3.23975h8.28027v-2.84961h-6.20996v-3.20996h6.20996v-2.58008h-6v-13.94922h15.65918v13.94922h-6.0293v2.58008h6.35938v3.20996h-6.35938v2.84961h7.37891ZM300.99751,315.36903h3.08984v-2.48975h-3.08984v2.48975ZM300.99751,320.76894h3.08984v-2.58008h-3.08984v2.58008ZM310.05708,312.87929h-2.96973v2.48975h2.96973v-2.48975ZM310.05708,318.18886h-2.96973v2.58008h2.96973v-2.58008Z"/><path class="cls-3" d="M332.2397,317.58925c-.80957.65967-1.65039,1.29004-2.51953,1.7998-.36035-.87012-1.14062-2.12988-1.70996-2.91016l.20996-.11963h-9.71973v-2.81982h10.61914v2.24951c2.73047-1.88965,5.25-4.7998,6.54004-7.16943h3.20996c2.04004,3,5.06934,5.99951,8.06934,7.46973-.68945.83984-1.37988,2.09961-1.88965,3.11963-.78027-.47998-1.58984-1.0498-2.37012-1.70996v2.01025h-10.43945v-1.91992ZM328.1899,334.98817h-5.5498v1.2002h-2.91016v-10.22949h8.45996v9.0293ZM328.12935,320.43886h-8.30957v-2.72998h8.30957v2.72998ZM319.81978,321.81874h8.30957v2.66992h-8.30957v-2.66992ZM328.06978,312.21913h-8.06934v-2.69971h8.06934v2.69971ZM322.64009,328.74843v3.4502h2.63965v-3.4502h-2.63965ZM345.19868,333.48866c0,1.25977-.17969,2.00977-.92969,2.48975-.71973.44971-1.62012.50977-2.84961.50977-.08984-.81006-.48047-1.94971-.83984-2.72998.54004.03027,1.0498.03027,1.25977.03027.24023,0,.2998-.08984.2998-.33008v-3.23975h-1.58984v5.99951h-2.33984v-5.99951h-1.5v5.99951h-2.33984v-5.99951h-1.44043v6.20947h-2.96973v-15.11914h15.23926v12.17969ZM334.36958,327.4286v-3.2998h-1.44043v3.2998h1.44043ZM341.62935,316.59901c-1.67969-1.52979-3.20996-3.26953-4.25977-4.7998-.92969,1.53027-2.37012,3.27002-4.01953,4.7998h8.2793ZM338.20943,327.4286v-3.2998h-1.5v3.2998h1.5ZM342.13911,327.4286v-3.2998h-1.58984v3.2998h1.58984Z"/><path class="cls-3" d="M371.27193,316.53896c-.89941.54004-1.85938,1.05029-2.93945,1.59033-1.86035.92969-5.58008,2.66992-8.28027,4.40967-2.48926,1.61963-4.13965,3.32959-4.13965,5.3999,0,2.12988,2.07031,3.26953,6.17969,3.26953,3.06055,0,7.08008-.47998,9.71973-1.07959l-.05957,4.28955c-2.52051.41992-5.66992.72021-9.54004.72021-5.90918,0-10.37988-1.6499-10.37988-6.75,0-3.2998,2.07031-5.72949,4.91992-7.82959-1.37988-2.5498-2.81934-5.69971-4.16992-8.84961l3.75-1.52979c1.14062,3.08984,2.52051,5.93945,3.71973,8.21924,2.43066-1.40967,5.00977-2.72949,6.41992-3.50977,1.11035-.65967,1.98047-1.16992,2.73047-1.7998l2.06934,3.44971Z"/><path class="cls-3" d="M394.90962,329.25868c2.12988,2.3999,5.48926,3.77979,10.22949,4.28955-.71973.75-1.65039,2.16016-2.09961,3.12012-5.7002-.8999-9.26953-3.02979-11.63965-6.75-1.77051,2.66992-5.09961,5.04004-11.21973,6.68994-.41992-.77979-1.44043-2.12988-2.21973-2.87988,5.04004-1.14014,7.91992-2.69971,9.56934-4.46973h-9.0293v-3.08984h10.76953c.14941-.62988.24023-1.26025.2998-1.89014h-7.67969v-2.87988h7.70996v-1.7998h-8.19043v-1.97998h-2.66992v-6.38965h10.9502v-2.60986h3.66016v2.60986h10.97949v6.38965h-2.40039v1.97998h-8.75977v1.7998h8.16016v2.87988h-8.19043c-.0293.62988-.08984,1.26025-.23926,1.89014h11.84961v3.08984h-9.83984ZM389.60005,316.71913v-1.70996h3.56934v1.70996h7.46973v-2.37012h-18.35938v2.37012h7.32031Z"/><path class="cls-3" d="M421.35396,332.55849c-4.01953,1.0498-8.30957,2.06982-11.51953,2.8501l-.68945-3.30029,1.31934-.27002v-10.10938h2.82031v9.53955l1.2002-.27002v-11.39941h-3.83984v-9.86963h9.83887v9.86963h-2.87988v3.54004h3.2998v3.08984h-3.2998v4.07959c1.14062-.27002,2.28027-.54004,3.41992-.81006l.33008,3.06006ZM413.644,316.59901h3.66016v-3.86963h-3.66016v3.86963ZM436.08345,326.82851c-1.16992,1.65039-2.61035,3.12012-4.22949,4.41016.62988,1.19971,1.31934,1.88965,2.09961,1.88965.59961,0,.90039-.80957,1.08008-3.44971.68945.81006,1.7998,1.52979,2.63965,1.91992-.59961,3.98975-1.55957,5.00977-4.01953,5.00977-1.98047,0-3.50977-1.25977-4.70996-3.38965-2.16016,1.25977-4.55957,2.30957-7.01953,3.11963-.41992-.92969-1.29004-2.15967-2.10059-2.96973,2.76074-.72021,5.45996-1.7998,7.83008-3.18018-.4502-1.31982-.80957-2.78955-1.11035-4.40967l-4.91895.51025-.33008-3.06006,4.76953-.47998c-.08984-.56982-.15039-1.14014-.20996-1.70996l-3.47949.35986-.33008-2.96973,3.53906-.35986c-.0293-.51025-.05957-1.02002-.08984-1.56006l-3.95996.39014-.33008-3.06006,4.14062-.39014c-.06055-1.58984-.08984-3.20947-.08984-4.82959h3.62891c-.0293,1.5-.0293,3,0,4.46973l4.11035-.39014c-.92969-.68994-2.21973-1.46973-3.26953-2.06982l1.94922-2.09961c1.35059.62988,3.18066,1.70996,4.11035,2.48975l-1.32031,1.56006,1.44043-.15039.2998,3-7.2002.72021c.03027.54004.06055,1.07959.09082,1.58984l6.14941-.6001.33008,2.91016-6.20996.62988c.05957.59961.12012,1.16992.20996,1.70996l7.34961-.72021.36035,3-7.22949.75c.20996.95996.38965,1.83008.62988,2.63965.89941-.77979,1.70996-1.6499,2.36914-2.57959l3.03027,1.34961Z"/><path class="cls-3" d="M453.8354,331.71864c1.13965-.1499,1.97949-.30029,2.75977-.47998,3.80957-.8999,6.74902-3.62988,6.74902-7.94971,0-4.10986-2.21973-7.16992-6.20898-7.85986-.41992,2.52002-.93066,5.27979-1.77051,8.06982-1.76953,5.99951-4.34961,9.65967-7.58984,9.65967-3.26953,0-6.05957-3.62988-6.05957-8.63965,0-6.83984,5.96973-12.71973,13.67969-12.71973,7.34961,0,11.99902,5.12988,11.99902,11.60986,0,6.23975-3.83984,10.6792-11.33887,11.81934l-2.21973-3.50977ZM451.52486,322.71913c.69043-2.18994,1.23047-4.74023,1.58984-7.2002-4.91992,1.02002-7.5293,5.33984-7.5293,8.60986,0,3,1.2002,4.46973,2.30957,4.46973,1.23047,0,2.42969-1.85986,3.62988-5.87939Z"/><path class="cls-3" d="M319.26314,369.87929v2.84961h10.65039v16.10938c0,1.67969-.36035,2.5498-1.5,3.06006-1.16992.50977-2.82031.56982-5.10059.53955-.14941-.8999-.68945-2.27979-1.16992-3.11963,1.4707.08984,3.12012.08984,3.60059.06006.50977,0,.66016-.1499.66016-.6001v-12.74951h-7.14062v7.40967h2.19043v-5.78955h3.14941v10.34961h-3.14941v-1.47021h-7.76953v2.1001h-2.96973v-10.97949h2.96973v5.78955h2.09961v-7.40967h-6.86914v16.43945h-3.48047v-19.73926h10.34961v-2.84961h-11.5498v-3.4502h26.93945v3.4502h-11.91016Z"/><path class="cls-3" d="M342.77193,384.54823h4.37988v3.12012h-4.37988v4.73975h-2.93945v-4.73975h-4.65039v-3.12012h4.65039v-1.7998h-3.75v-10.82959h3.71973v-1.56006h-4.2002v-3.08984h4.2002v-2.84961h2.93945v2.84961h4.29004v3.08984h-4.29004v1.56006h3.90039c2.66992-1.7998,5.30957-4.94971,6.56934-7.43945h3.12012c1.83008,2.90967,4.62012,5.87939,7.31934,7.40967-.62988.81006-1.37988,2.00977-1.88965,3.02979-.66016-.4502-1.34961-.98975-2.00977-1.58984v2.09961h-9.50977v-2.15967c-.68945.62988-1.43945,1.19971-2.18945,1.70996-.30078-.68994-.84082-1.62012-1.35059-2.33984v10.10938h-3.92969v1.7998ZM338.57271,376.1786h1.58984v-1.76953h-1.58984v1.76953ZM338.57271,380.28847h1.58984v-1.76953h-1.58984v1.76953ZM344.12154,374.40907h-1.67969v1.76953h1.67969v-1.76953ZM344.12154,378.51894h-1.67969v1.76953h1.67969v-1.76953ZM362.3315,389.37831c0,1.22998-.18066,1.97998-.90039,2.45996-.71973.50977-1.58984.56982-2.72949.54004-.12012-.81006-.48047-2.01025-.87012-2.76025.50977.03027,1.01953.03027,1.22949.03027s.27051-.09033.27051-.33008v-3.44971h-1.53027v6.14941h-2.16016v-6.14941h-1.46973v6.14941h-2.15918v-6.14941h-1.41016v6.53955h-2.7002v-15.26953h14.42969v12.23975ZM352.01216,382.98866v-2.97021h-1.41016v2.97021h1.41016ZM358.8813,372.51894c-1.55957-1.52979-3.0293-3.2998-4.01953-4.85986-.90039,1.56006-2.25,3.2998-3.83984,4.85986h7.85938ZM355.64107,382.98866v-2.97021h-1.46973v2.97021h1.46973ZM359.3315,382.98866v-2.97021h-1.53027v2.97021h1.53027Z"/><path class="cls-3" d="M374.25142,366.90907c-.24023.6001-.60059,2.1001-.71973,2.64014-.4209,1.97998-1.44043,7.91943-1.44043,10.88965,0,.56982.03027,1.28955.12012,1.91992.41992-1.05029.89941-2.04004,1.32031-3l1.85938,1.43994c-.83984,2.48975-1.83008,5.69971-2.12988,7.28955-.08984.41992-.17969,1.08008-.17969,1.37988.0293.33008.0293.81006.05957,1.22998l-3.41992.24023c-.59961-2.07031-1.16992-5.69971-1.16992-9.71973,0-4.46973.90039-9.47949,1.23047-11.75977.12012-.83984.2998-1.97998.2998-2.90967l4.16992.35986ZM381.21138,381.57851c-.24023.95996-.36035,1.68018-.36035,2.48975,0,1.32031,1.13965,2.1001,4.13965,2.1001,2.66992,0,4.85938-.23975,7.43945-.77979l.08984,4.01953c-1.91992.36035-4.31934.6001-7.67969.6001-5.12891,0-7.55957-1.85986-7.55957-4.88965,0-1.22998.20996-2.49023.51074-3.87012l3.41992.33008ZM391.59029,368.85927v3.83984c-3.66016.32959-9.0293.32959-12.74902,0l-.03027-3.83984c3.66016.50977,9.56934.38965,12.7793,0Z"/><path class="cls-3" d="M419.04341,389.94814c-1.67969-1.67969-3.92969-3.44971-6.56934-4.6499.0293.39014.0293.72021.0293,1.02002,0,2.60986-1.34961,5.12988-6.3291,5.12988-4.23047,0-7.70996-1.37988-7.70996-5.42969,0-3.08984,2.63965-5.5498,8.09961-5.5498.60059,0,1.2002.02979,1.77051.08984-.09082-2.30957-.21094-4.85986-.21094-6.41943,0-1.80029-.0293-3.56982-.05957-4.83008-.03027-1.46973-.12012-2.72998-.2998-3.47998h4.46973c-.12012.87012-.20996,2.31006-.27051,3.47998v2.16016c2.34082-.06006,5.82031-.18018,8.28027-.4502l.14941,3.54004c-2.48926.23975-6.0293.35986-8.42969.41992.06055,1.7998.18066,4.13965.33008,6.32959,3.78027,1.14014,6.99023,3.18018,9.03027,5.1001l-2.28027,3.53955ZM408.45357,384.00868c-.7793-.12012-1.61914-.21045-2.45996-.21045-2.30957,0-3.68945.78027-3.68945,2.04004,0,1.47021,1.5,2.01025,3.57031,2.01025,1.91992,0,2.60938-.87012,2.60938-2.82031,0-.27002,0-.62988-.03027-1.01953Z"/><path class="cls-3" d="M433.52779,365.79921c-.41992,1.46973-1.02051,4.5-1.2002,6.1499,1.41016-2.28027,3.99023-4.7998,7.34961-4.7998,4.13965,0,7.34961,4.0498,7.34961,10.58936,0,8.3999-5.15918,12.41943-13.01953,13.85938l-2.24902-3.44971c6.59961-1.02002,11.21875-3.17969,11.21875-10.37939,0-4.58984-1.5293-7.14014-3.98926-7.14014-3.50977,0-6.57031,5.27979-6.71973,9.17969-.03027.81006-.03027,1.77002.14941,3.1499l-3.68945.24023c-.15039-1.14014-.36035-2.97021-.36035-4.94971,0-2.76025.39062-6.44971.83984-9.50977.15039-1.08008.20996-2.27979.24023-3.12012l4.08008.18018Z"/><path class="cls-3" d="M256.71919,422.40956c-.83984,1.52979-1.86035,3-3,4.40967,1.43945,3.12012,1.70996,6.38965,1.70996,9.80957,0,4.14014-.33008,8.15967-1.70996,9.98975-.4502.6001-1.11035,1.02002-1.88965,1.19971-1.16992.27002-2.43066.30029-3.83984.24023-.03027-1.14014-.36035-2.3999-.95996-3.41992,1.46973.12012,2.5498.08984,3.17969.02979.41992-.05957.68945-.20996.92969-.53955.60059-.75.83984-3.33008.90039-6.50977-1.2002,1.43994-2.45996,2.75977-3.66016,3.71973-.57031-.81006-1.53027-2.00977-2.37012-2.60986,2.07031-1.31982,4.41016-3.81006,5.82031-6.17969-.15039-1.02002-.33008-1.97998-.62988-2.91016-.87012.87012-1.80078,1.68018-2.73047,2.3999-.54004-.71973-1.67969-1.77002-2.45996-2.33984,1.29004-.92969,2.5498-2.1001,3.71973-3.35986-.80957-1.29004-1.91992-2.52002-3.3291-3.71973l2.45996-1.89014c1.19922.95996,2.15918,1.9502,2.96973,3,.65918-.98975,1.29004-1.94971,1.76953-2.87988l3.12012,1.56006ZM270.93892,448.1786c-.15039-.66016-.39062-1.43994-.63086-2.25-5.12891.6001-10.43945,1.19971-14.2793,1.61963l-.59961-3.77979c2.07031-.17969,4.73926-.38965,7.62012-.65967v-5.3999h-6.12012v-11.96973h6.12012v-5.45947h3.59961v5.45947h6.23926v11.96973h-6.23926v5.03955l2.42969-.23975c-.41992-1.16992-.90039-2.27979-1.29004-3.33008l3.2998-.92969c1.25977,2.78955,2.79004,6.44971,3.41992,8.75977l-3.56934,1.16992ZM263.04927,434.64882v-5.84961h-2.61035v5.84961h2.61035ZM266.64888,428.79921v5.84961h2.48926v-5.84961h-2.48926Z"/><path class="cls-3" d="M301.88033,424.05946v24.08887h-3.80957v-1.46973h-14.25v1.5h-3.62988v-24.11914h7.67969c.33008-1.29004.66016-2.72998.81055-3.92969l4.31934.47998c-.4502,1.19971-.92969,2.36963-1.41016,3.44971h10.29004ZM283.82075,427.47939v3.08984h14.25v-3.08984h-14.25ZM283.82075,433.86903v3.08984h14.25v-3.08984h-14.25ZM298.07075,443.3788v-3.12012h-14.25v3.12012h14.25Z"/><path class="cls-3" d="M330.65962,423.57948c-.38965.66016-.95996,1.97998-1.22949,2.66992-.90039,2.3999-2.25,5.3999-4.0498,8.15967,2.63965,2.15967,5.12988,4.46973,7.13965,6.59961l-3.08984,3.44971c-2.09961-2.45996-4.22949-4.52979-6.62988-6.59961-2.63965,3.17969-6.08984,6.50977-11.15918,9.26953l-3.4502-3.08984c4.88965-2.36963,8.45996-5.27979,11.39941-8.84961-2.12988-1.67969-4.97949-3.83984-8.03906-5.66992l2.5791-3.08984c2.40039,1.5,5.49023,3.6001,7.91992,5.3999,1.53027-2.3999,2.49023-4.76953,3.2998-7.10986.27051-.74951.57031-1.97949.71973-2.75977l4.58984,1.62012Z"/><path class="cls-3" d="M340.82075,423.15956c1.5,2.09961,4.08008,6.68945,5.19043,8.78955l-3.95996,2.25c-1.23047-2.66992-3.4502-6.77979-5.07031-9.05957l3.83984-1.97998ZM351.7104,435.69911c2.21973-3.20996,3.05957-6.6001,3.54004-9.06006.2998-1.37988.41992-2.87988.38965-3.62939l4.86035.68994c-.36035,1.13965-.69043,2.60986-.90039,3.47949-.7793,3.51025-1.97949,7.16992-4.16992,10.52979-2.33984,3.62988-5.66992,6.8999-10.40918,9.20947l-3.57031-3.08984c4.86035-2.00977,8.07031-4.97949,10.25977-8.12939Z"/><path class="cls-3" d="M372.9897,436.17909l-3.66016,1.37988c-.50977-1.62012-2.00977-5.60986-2.72949-6.92969l3.59961-1.29004c.75,1.52979,2.19043,5.15967,2.79004,6.83984ZM388.22896,429.93935c-.35938.95996-.54004,1.58984-.71973,2.18994-.78027,3.02979-2.04004,6.14941-4.08008,8.78955-2.79004,3.59961-6.54004,6.11963-10.0498,7.43945l-3.14941-3.20996c3.2998-.86963,7.46973-3.1499,9.95996-6.26953,2.03906-2.5498,3.47949-6.53955,3.80957-10.28955l4.22949,1.3501ZM379.61958,434.31874l-3.59961,1.26025c-.36035-1.47021-1.68066-5.1001-2.43066-6.65967l3.57031-1.16992c.57031,1.29004,2.04004,5.18945,2.45996,6.56934Z"/><path class="cls-3" d="M401.25044,430.29921c3.98926,1.19971,9.7793,3.32959,12.53906,4.67969l-1.67969,4.16992c-3.12012-1.6499-7.61914-3.38965-10.85938-4.46973v8.48975c0,.83984.14941,2.93945.2998,4.16943h-4.70996c.18066-1.16992.2998-2.99951.2998-4.16943v-17.24951c0-1.08008-.08984-2.5498-.2998-3.62988h4.67969c-.12012,1.0498-.26953,2.37012-.26953,3.62988v4.37988ZM409.22993,428.97939c-.87012-1.89014-1.53027-3.08984-2.63965-4.62012l2.51953-1.07959c.83984,1.25977,2.04004,3.17969,2.73047,4.52979l-2.61035,1.16992ZM413.34029,427.29921c-.95996-1.88965-1.68066-3-2.79004-4.5l2.48926-1.16992c.87012,1.2002,2.12988,3.08984,2.82031,4.43994l-2.51953,1.22998Z"/><path class="cls-3" d="M433.56294,441.2787c.06055-.87012.08984-2.25.12012-3.54004-2.18945,1.2002-3.38965,2.37012-3.38965,3.83984,0,1.6499,1.41016,2.1001,4.31934,2.1001,2.52051,0,5.82031-.33008,8.42969-.87012l-.12012,3.87012c-1.97949.23975-5.60938.47998-8.39941.47998-4.64941,0-8.15918-1.10986-8.15918-4.94971,0-3.78027,3.59961-6.18018,6.98926-7.91992-.47949-.75-1.25977-1.02002-2.06934-1.02002-1.68066,0-3.50977.95996-4.65039,2.04004-.89941.8999-1.73926,1.97998-2.75977,3.27002l-3.17969-2.37012c3.12012-2.87988,5.21973-5.51953,6.54004-8.15967h-.36035c-1.2002,0-3.38965-.06006-5.00977-.20996v-3.47998c1.5.24023,3.71973.33008,5.21973.33008h1.44043c.35938-1.3501.56934-2.5498.59961-3.38965l3.89941.32959c-.14941.72021-.35938,1.74023-.71973,2.93994,2.79004-.1499,5.79004-.38965,8.39941-.86963l-.0293,3.47949c-2.85059.41992-6.50977.66016-9.69043.78027-.47949,1.0498-1.0791,2.12988-1.70996,3,.78027-.39014,2.37012-.6001,3.36035-.6001,1.7998,0,3.2998.77979,3.95996,2.30957,1.53027-.71973,2.79004-1.22998,4.01953-1.76953,1.13965-.51025,2.19043-1.02002,3.27051-1.53027l1.49902,3.4502c-.95996.23975-2.51953.83984-3.53906,1.25977-1.32031.50977-3,1.16992-4.83008,2.00977.03027,1.6499.08984,3.83984.12012,5.18994h-3.57031Z"/><path class="cls-3" d="M454.519,431.94911v16.25928h-3.48047v-26.87891h11.5498v10.61963h-8.06934ZM454.519,423.87929v1.53027h4.70898v-1.53027h-4.70898ZM459.22798,429.36903v-1.6499h-4.70898v1.6499h4.70898ZM468.01802,441.45888v6.17969h-3.12012v-6.17969h-2.87988c-.2998,2.06982-1.29004,4.97949-3.83984,6.71973-.50977-.63037-1.58984-1.56006-2.2793-2.04004,1.91992-1.2002,2.75977-3.1499,3.05957-4.67969h-3.03027v-2.91016h3.15039v-2.25h-2.73047v-2.81982h14.49023v2.81982h-2.82031v2.25h3.2998v2.91016h-3.2998ZM464.8979,438.54872v-2.25h-2.79004v2.25h2.79004ZM476.32759,444.03847c0,1.83008-.33008,2.81982-1.41016,3.39014-1.08008.59961-2.63965.68994-4.91992.68994-.11914-.99023-.59961-2.60986-1.0791-3.54004,1.34961.06006,2.81934.06006,3.26953.03027.47949,0,.62988-.18018.62988-.6001v-11.99951h-8.25v-10.67969h11.75977v22.70898ZM467.95845,423.87929v1.53027h4.85938v-1.53027h-4.85938ZM472.81783,429.42909v-1.70996h-4.85938v1.70996h4.85938Z"/><path class="cls-3" d="M500.45357,433.68886v3.39014h6.39062v3.26953h-6.39062v3.24023c0,1.07959.12012,1.25977.95996,1.25977h2.31055c.78027,0,.92969-.6001,1.0498-3.41992.75.6001,2.18945,1.2002,3.20996,1.41016-.36035,3.95947-1.29004,5.15967-3.92969,5.15967h-3.27051c-3.23926,0-4.0498-1.0498-4.0498-4.37988v-3.27002h-3.95996c-.65918,3.1499-2.63965,6.12012-8.18945,7.97998-.4502-.81006-1.5293-2.18994-2.2793-2.8501,4.13965-1.25977,5.93945-3.11963,6.68945-5.12988h-5.93945v-3.26953h6.41895v-3.39014h-2.51953v-.98975c-1.25977.92969-2.61035,1.70996-3.99023,2.36963-.47949-.80957-1.46973-2.03955-2.15918-2.69971,1.73926-.71973,3.44922-1.77002,4.97949-3.08984-.78027-.77979-1.97949-1.7998-2.96973-2.5498l2.25-1.85986c.89941.62988,2.04004,1.5,2.87988,2.21973.71973-.83984,1.34961-1.73975,1.88965-2.69971h-6.12012v-3.06006h7.83008l.62988-.12012,2.40039,1.11035c-1.05078,3.14941-2.76074,5.81934-4.89062,7.97949h10.86035c-2.33984-2.52002-4.14062-5.63965-5.45996-9.17969l3.20996-.8999c.41992,1.10986.89941,2.18994,1.5,3.20996.98926-.8999,1.97949-1.9502,2.66992-2.79004l2.69922,1.91992c-1.22949,1.10986-2.60938,2.27979-3.83984,3.17969.41992.54004.87012,1.05029,1.35059,1.56006,1.19922-1.02002,2.51953-2.21973,3.35938-3.23975l2.61035,1.85986c-1.23047,1.10986-2.66992,2.31006-3.95996,3.23975,1.37988,1.10986,2.93945,2.04004,4.64941,2.72998-.83984.72021-1.91992,2.12988-2.45996,3.08984-1.31934-.62988-2.5498-1.37988-3.68945-2.25v.95996h-2.73047ZM496.73384,433.68886h-3.68945v3.39014h3.68945v-3.39014Z"/></g></g></g></svg>