<?xml version="1.0" encoding="utf-8"?>
<!-- Generator: Adobe Illustrator 25.2.3, SVG Export Plug-In . SVG Version: 6.00 Build 0)  -->
<svg version="1.1" id="レイヤー_1" xmlns="http://www.w3.org/2000/svg" xmlns:xlink="http://www.w3.org/1999/xlink" x="0px"
	 y="0px" viewBox="0 0 32 32" style="enable-background:new 0 0 32 32;" xml:space="preserve">
<style type="text/css">
	.st0{fill:#FFFFFF;}
	.st1{stroke:#000000;stroke-width:6.086069e-03;stroke-miterlimit:10;}
</style>
<rect class="st0" width="32" height="32"/>
<g>
	<g>
		<g>
			<path d="M4.6,20.2c0-0.1-0.1-0.2-0.3-0.2c-0.1,0-0.2,0.1-0.2,0.2s0,0.2,0.2,0.3l0.5,0.6l0.4-0.3l0.3,0.3l-0.4,0.4L5.5,22H4.9
				l-0.2-0.3l-0.2,0.2c-0.3,0.3-0.8,0.2-1,0c-0.2-0.3-0.2-0.7,0.1-1l0.2-0.2v-0.1c-0.1-0.1-0.1-0.2-0.1-0.4c0-0.3,0.3-0.6,0.6-0.6
				s0.5,0.2,0.6,0.4L4.6,20.2z M4.2,21.6l0.2-0.2L4,21l-0.2,0.2c-0.1,0.1-0.2,0.3-0.1,0.5C3.9,21.8,4.1,21.8,4.2,21.6z"/>
		</g>
		<g>
			<g>
				<path d="M7.5,11.2c-0.4-0.2-1.1-0.5-1.6-0.5c-0.8,0-1.3,0.4-1.3,0.9c0,0.6,0.6,0.9,1.5,1.2c1.5,0.6,2.1,1.3,2,2.2
					c0,1.2-1.1,1.9-2.4,1.9c-1,0-1.8-0.4-2.3-0.7l0.4-0.8C4.2,15.7,4.9,16,5.6,16C6.4,16,7,15.6,7,15c0-0.7-0.7-1-1.7-1.4
					c-1.1-0.5-1.8-1-1.8-2.1c0-0.9,0.7-1.9,2.3-1.9c0.7,0,1.6,0.3,2,0.5L7.5,11.2z"/>
				<path d="M11.1,14.5v2.3h-1V10c3.2-0.5,4.6,0.5,4.6,2.2C14.7,13.7,13.4,14.6,11.1,14.5z M11.1,13.6c1.7,0.1,2.4-0.5,2.4-1.5
					c0-0.9-0.7-1.6-2.4-1.3V13.6z"/>
				<path d="M20.9,15.9v0.9h-4.4V9.9h4.2v0.9h-3.2v2.1h2.7v0.9h-2.6V16L20.9,15.9L20.9,15.9z"/>
				<path d="M28.6,15.9c-0.5,0.5-1.3,1.1-2.8,1.1c-2.1,0-3.6-1.6-3.6-3.6c0-2.1,1.7-3.6,3.7-3.6c1.4,0,2.2,0.6,2.7,1L28,11.5
					c-0.4-0.4-1.1-0.8-2-0.8c-1.4,0-2.6,1.2-2.6,2.6s1,2.7,2.6,2.7c0.8,0,1.6-0.4,2-0.8L28.6,15.9z"/>
			</g>
			<g>
				<path class="st1" d="M9.4,21.7c-0.2,0.2-0.5,0.4-1.1,0.4c-0.8,0-1.5-0.6-1.5-1.5s0.7-1.5,1.5-1.5c0.6,0,0.9,0.2,1.1,0.4
					l-0.3,0.3c-0.2-0.2-0.4-0.3-0.8-0.3c-0.6,0-1,0.5-1,1.1s0.4,1.1,1,1.1c0.3,0,0.6-0.2,0.8-0.3L9.4,21.7z"/>
				<path class="st1" d="M11.4,19.2c0.8,0,1.5,0.7,1.5,1.5s-0.6,1.5-1.5,1.5s-1.5-0.7-1.5-1.5C10,19.9,10.6,19.2,11.4,19.2z
					 M11.4,21.8c0.5,0,1-0.4,1-1.1s-0.5-1.1-1-1.1s-1,0.5-1,1.1S10.9,21.8,11.4,21.8z"/>
				<path class="st1" d="M13.7,22.1v-2.9h0.1l1.2,1.6l1.2-1.6h0.1v2.9h-0.4v-1.9L15,21.4l0,0l-0.9-1.2V22h-0.4V22.1z"/>
				<path class="st1" d="M17.8,21.2v0.9h-0.4v-2.8c1.3-0.2,1.8,0.2,1.8,0.9C19.2,20.8,18.7,21.2,17.8,21.2z M17.8,20.8
					c0.7,0,1-0.2,1-0.6s-0.3-0.6-1-0.6V20.8z"/>
				<path class="st1" d="M19.5,22.1l1.3-2.9h0.1l1.3,2.9h-0.5l-0.3-0.6h-1.2l-0.3,0.6H19.5z M20.4,21.2h1L20.8,20L20.4,21.2z"/>
				<path class="st1" d="M25.2,19.3v2.9h-0.1l-1.8-2v1.9h-0.4v-2.9H23l1.8,2v-1.9H25.2z"/>
				<path class="st1" d="M28.3,19.3l-1,1.6v1.2h-0.4v-1.2l-1-1.6h0.5l0.7,1.2l0.7-1.2H28.3z"/>
			</g>
		</g>
	</g>
</g>
</svg>
