<?xml version="1.0" encoding="UTF-8"?><svg id="_レイヤー_2" xmlns="http://www.w3.org/2000/svg" viewBox="0 0 126.31446 61.80877"><defs><style>.cls-1{fill:#000;stroke-width:0px;}</style></defs><g id="_メニュー"><path class="cls-1" d="M6.67643,52.04197c-.33085-.62954-.9562-1.05041-1.66399-1.11989-.65375.00847-1.18248.53485-1.19384,1.18856,0,.57579.21658.95613.83463,1.66927l2.57258,3.07441,2.19224-2.04961,1.28893,1.43156-2.19224,2.07074,2.38241,2.78916h-2.76803l-1.11989-1.33647-.99839.86105c-1.54777,1.31006-4.05168,1.18856-5.1927-.21658-1.14102-1.40515-1.21497-3.57097.59164-5.1927l1.09876-.97726-.23771-.40675c-.36017-.5686-.53547-1.23475-.50184-1.90698.09331-1.66057,1.48009-2.95179,3.14309-2.9265,1.31582.01821,2.52701.7209,3.19591,1.85416l-1.43156,1.19385ZM4.73247,59.07297l.90331-.81351-2.0232-2.40354-.95085.85577c-.73913.5831-.88814,1.64478-.33808,2.40882.59164.6656,1.5689.71314,2.40882-.04754Z"/><path class="cls-1" d="M20.84937,6.91886c-2.08659-1.11989-5.31419-2.33486-7.92375-2.33486-3.97772,0-6.50804,1.99678-6.50804,4.67501,0,2.96876,3.1695,4.62747,7.3057,6.13826,7.55397,2.87368,10.28502,6.339,10.18466,10.81328-.15847,6.01677-5.64171,9.39757-12.1022,9.35002-5.0712-.04754-9.04364-1.89642-11.23059-3.65021l2.113-3.94603c1.93868,1.41043,5.21911,3.11667,8.84819,3.11667,3.82453,0,7.15779-1.9017,7.15779-4.75425,0-3.35967-3.62908-4.75425-8.40446-6.81971C4.60041,17.0507,1.11924,14.26682,1.11924,9.25901,1.11924,4.75832,4.84868.00407,12.4502.00407,16.14795.00407,20.50601,1.58882,22.53977,2.64532l-1.6904,4.27354Z"/><path class="cls-1" d="M39.06871,23.57986v11.2887h-5.19798V.92851c15.71015-2.72577,22.76757,2.64125,22.76757,10.86082,0,7.79697-6.2175,12.47198-17.56959,11.79054ZM39.06871,19.04748c8.452.58636,12.14975-2.38241,12.14975-7.3057,0-4.47956-3.32798-7.74414-12.14975-6.62425v13.92995Z"/><path class="cls-1" d="M87.49865,30.59502v4.27354h-21.65824V.68552h21.02435v4.33693h-15.8158v10.30087h13.0689v4.28939h-13.0689v10.98231h16.4497Z"/><path class="cls-1" d="M126.31446,30.2992c-2.3824,2.2926-6.25976,5.2825-13.76619,5.2825-10.28503,0-18.1401-7.74414-18.1401-17.82843,0-10.73404,8.70027-17.74919,18.38838-17.74919,4.90494-.10148,9.65933,1.69656,13.26963,5.01837l-3.12724,3.65021c-1.9915-1.80133-5.52021-4.1362-10.03675-4.1362-7.20533,0-12.82063,5.81075-12.82063,13.20625,0,7.16307,5.21382,13.24851,12.86817,13.24851,3.76967-.08681,7.38325-1.52249,10.18466-4.0464l3.18007,3.35439Z"/><path class="cls-1" d="M30.52691,59.59066c-1.43253,1.48692-3.43664,2.28395-5.49908,2.18695-4.10978,0-7.24231-3.22232-7.24231-7.3955-.09389-3.98996,3.06449-7.30057,7.05445-7.39447.09606-.00226.19215-.0026.28822-.00103,1.97085-.02126,3.87.7384,5.2825,2.113l-1.25195,1.51608c-1.07095-1.0599-2.50339-1.67515-4.00942-1.7221-2.87896,0-5.12402,2.4141-5.12402,5.48852,0,2.97933,2.08659,5.50965,5.13987,5.50965,1.51786-.04064,2.96764-.63861,4.07281-1.67983l1.28893,1.37873Z"/><path class="cls-1" d="M40.49498,47.01831c4.08412-.0496,7.43516,3.22103,7.48476,7.30515s-3.22103,7.43516-7.30515,7.48475c-4.08412.0496-7.43516-3.22103-7.48475-7.30515-.00036-.02975-.00054-.05951-.00055-.08926-.09066-3.99295,3.07277-7.30337,7.06572-7.39403.07998-.00182.15998-.00231.23998-.00147ZM40.49498,59.89704c2.72049,0,5.08177-2.18695,5.08177-5.46739s-2.36128-5.55719-5.08177-5.55719-5.06063,2.25034-5.06063,5.54134,2.31902,5.45682,5.06063,5.45682v.02641Z"/><path class="cls-1" d="M51.95272,61.49236v-14.26275l.59164-.16376,6.11713,8.16146,6.096-8.15618.59164.16376v14.26275h-2.06018v-9.26022l-4.5271,6.15411h-.22186l-4.5271-6.09072v9.19155h-2.06018Z"/><path class="cls-1" d="M72.40128,56.79093v4.70142h-2.08659v-14.12012c6.27561-1.13045,9.09118,1.09876,9.09118,4.52182,0,3.23817-2.4775,5.161-7.0046,4.89688ZM72.40128,54.91036c3.37552.24299,4.8599-.99311,4.8599-3.03744,0-1.86472-1.3259-3.22232-4.8599-2.75746v5.7949Z"/><path class="cls-1" d="M80.70008,61.49236l6.43937-14.37896h.71314l6.339,14.37896h-2.29789l-1.31006-2.89481h-6.29146l-1.31006,2.89481h-2.28204ZM85.04757,56.83319h4.78066l-2.3824-5.66812-2.39826,5.66812Z"/><path class="cls-1" d="M108.98786,47.27187v14.26275l-.47542.14263-8.81649-9.84658v9.66169h-2.04433v-14.26275l.47542-.16376,8.81649,9.90468v-9.69867h2.04433Z"/><path class="cls-1" d="M124.6716,47.27187l-5.02365,8.16674v6.05374h-2.113v-6.05374l-4.98139-8.16674h2.46165l3.63436,5.95866,3.65021-5.95866h2.37183Z"/></g></svg>