<?xml version="1.0" encoding="UTF-8"?><svg id="_レイヤー_2" xmlns="http://www.w3.org/2000/svg" viewBox="0 0 48.08594 15.91699"><defs><style>.cls-1{fill:#000;stroke-width:0px;}</style></defs><g id="_メニュー"><path class="cls-1" d="M8.55273,15.62891h-1.62109v-1.31445h-.03516c-.64844.9541-1.65723,1.60254-2.86328,1.60254-2.57422,0-4.0332-2.14258-4.0332-4.55566,0-2.30469,1.53027-4.41113,3.97852-4.41113,1.24316,0,2.25098.64844,2.91797,1.65625h.03516v-1.4043h1.62109v8.42676ZM7.02148,11.41602c0-1.63867-.99023-3.02539-2.73633-3.02539-1.67383,0-2.66504,1.45898-2.66504,3.02539,0,1.58398.9541,3.06055,2.66504,3.06055,1.76465,0,2.73633-1.4043,2.73633-3.06055Z"/><path class="cls-1" d="M11.78809,0h1.62012v8.60645h.03711c.66602-1.00781,1.67383-1.65625,2.93359-1.65625,2.43164,0,3.96191,2.10645,3.96191,4.41113,0,2.41309-1.44043,4.55566-4.0332,4.55566-1.18848,0-2.21484-.64844-2.8623-1.60254h-.03711v1.31445h-1.62012V0ZM18.7207,11.41602c0-1.63867-.99023-3.02539-2.7373-3.02539-1.6748,0-2.66504,1.45898-2.66504,3.02539,0,1.58398.95508,3.06055,2.66504,3.06055,1.76465,0,2.7373-1.4043,2.7373-3.06055Z"/><path class="cls-1" d="M31.56836,11.43359c0,2.53906-1.98047,4.4834-4.50098,4.4834s-4.50098-1.94434-4.50098-4.4834,1.98047-4.4834,4.50098-4.4834,4.50098,1.94434,4.50098,4.4834ZM24.18652,11.43359c0,1.58496,1.27832,2.93457,2.88086,2.93457s2.88086-1.34961,2.88086-2.93457c0-1.60254-1.27832-2.93457-2.88086-2.93457s-2.88086,1.33203-2.88086,2.93457Z"/><path class="cls-1" d="M35.84668,7.20215v4.66406c0,1.34961.34277,2.53809,1.94434,2.53809,1.60352,0,1.94531-1.18848,1.94531-2.53809v-4.66406h1.62012v4.84375c0,2.30469-1.08008,3.87109-3.56543,3.87109-2.48438,0-3.56445-1.56641-3.56445-3.87109v-4.84375h1.62012Z"/><path class="cls-1" d="M46.50098,15.62891h-1.62012v-6.91406h-.88281v-1.5127h.88281v-3.22266h1.62012v3.22266h1.58496v1.5127h-1.58496v6.91406Z"/></g></svg>