<?xml version="1.0" encoding="UTF-8"?><svg id="_レイヤー_2" xmlns="http://www.w3.org/2000/svg" viewBox="0 0 76.69824 13.50391"><defs><style>.cls-1{fill:#000;stroke-width:0px;}</style></defs><g id="_メニュー"><path class="cls-1" d="M6.8418,2.64648c-.64746-.7373-1.44043-1.13379-2.41309-1.13379-1.58398,0-2.80859,1.4043-2.80859,2.95312,0,1.72852,1.20703,2.98828,2.91699,2.98828.93652,0,1.69238-.43164,2.30469-1.11621v2.07031c-.73828.39648-1.47656.55859-2.32324.55859-2.48438,0-4.51855-1.9082-4.51855-4.42969C0,1.92676,2.0166,0,4.60938,0c.75586,0,1.58496.18066,2.23242.55859v2.08789Z"/><path class="cls-1" d="M18.10156,4.4834c0,2.53906-1.98047,4.4834-4.50098,4.4834-2.52148,0-4.50195-1.94434-4.50195-4.4834S11.0791,0,13.60059,0c2.52051,0,4.50098,1.94434,4.50098,4.4834ZM10.71973,4.4834c0,1.58496,1.27734,2.93457,2.88086,2.93457,1.60156,0,2.88086-1.34961,2.88086-2.93457,0-1.60254-1.2793-2.93457-2.88086-2.93457-1.60352,0-2.88086,1.33203-2.88086,2.93457Z"/><path class="cls-1" d="M22.4502,1.31445h.03516c.46875-.73828,1.31445-1.31445,2.2334-1.31445,1.09863,0,1.89062.55859,2.43066,1.49414.52148-.89941,1.53027-1.49414,2.59277-1.49414,2.21387,0,2.79004,1.72852,2.79004,3.6377v5.04102h-1.61914V3.90723c0-1.08008-.14453-2.4668-1.56738-2.4668-1.72852,0-1.85449,1.80078-1.85449,3.09668v4.1416h-1.62012v-4.46484c0-1.09863-.05371-2.77344-1.54883-2.77344-1.72852,0-1.87207,1.78223-1.87207,3.09668v4.1416h-1.62109V.25195h1.62109v1.0625Z"/><path class="cls-1" d="M37.41895,1.65625h.03613c.66602-1.00781,1.6748-1.65625,2.93457-1.65625,2.43066,0,3.96094,2.10645,3.96094,4.41113,0,2.41309-1.43945,4.55566-4.0332,4.55566-1.1875,0-2.21484-.64844-2.8623-1.60254h-.03613v6.13965h-1.62109V.25195h1.62109v1.4043ZM42.73047,4.46582c0-1.63867-.99023-3.02539-2.7373-3.02539-1.67383,0-2.66406,1.45898-2.66406,3.02539,0,1.58398.9541,3.06055,2.66406,3.06055,1.76562,0,2.7373-1.4043,2.7373-3.06055Z"/><path class="cls-1" d="M55.2207,8.67871h-1.62012v-1.31445h-.03613c-.64844.9541-1.65723,1.60254-2.8623,1.60254-2.5752,0-4.0332-2.14258-4.0332-4.55566,0-2.30469,1.5293-4.41113,3.97852-4.41113,1.24219,0,2.25098.64844,2.91699,1.65625h.03613V.25195h1.62012v8.42676ZM53.69043,4.46582c0-1.63867-.99023-3.02539-2.73633-3.02539-1.6748,0-2.66504,1.45898-2.66504,3.02539,0,1.58398.9541,3.06055,2.66504,3.06055,1.76367,0,2.73633-1.4043,2.73633-3.06055Z"/><path class="cls-1" d="M60.13965,1.38672h.03613c.50391-.90039,1.5127-1.38672,2.53809-1.38672,2.37695,0,2.98926,1.60254,2.98926,3.65527v5.02344h-1.62012V3.85352c0-1.44043-.19824-2.41309-1.85449-2.41309-2.08887,0-2.08887,1.83691-2.08887,3.36719v3.87109h-1.62109V.25195h1.62109v1.13477Z"/><path class="cls-1" d="M67.49707.25195h1.89062l2.8457,5.34766,2.64648-5.34766h1.81836l-6.82422,13.25195h-1.83594l3.3125-6.26562-3.85352-6.98633Z"/></g></svg>