<?xml version="1.0" encoding="UTF-8"?><svg id="_レイヤー_2" xmlns="http://www.w3.org/2000/svg" viewBox="0 0 60.96289 11.9375"><defs><style>.cls-1{fill:#000;stroke-width:0px;}</style></defs><g id="_メニュー"><path class="cls-1" d="M6.8418,5.61719c-.64746-.7373-1.43945-1.13379-2.41211-1.13379-1.58398,0-2.80859,1.4043-2.80859,2.95312,0,1.72852,1.20605,2.98828,2.91602,2.98828.9375,0,1.69336-.43164,2.30469-1.11621v2.07031c-.73828.39648-1.47656.55859-2.32227.55859-2.48438,0-4.51953-1.9082-4.51953-4.42969C0,4.89746,2.01758,2.9707,4.60938,2.9707c.75586,0,1.58496.18066,2.23242.55859v2.08789Z"/><path class="cls-1" d="M18.10156,7.4541c0,2.53906-1.98047,4.4834-4.50098,4.4834s-4.50098-1.94434-4.50098-4.4834,1.98047-4.4834,4.50098-4.4834,4.50098,1.94434,4.50098,4.4834ZM10.71973,7.4541c0,1.58496,1.27832,2.93457,2.88086,2.93457s2.88086-1.34961,2.88086-2.93457c0-1.60254-1.27832-2.93457-2.88086-2.93457s-2.88086,1.33203-2.88086,2.93457Z"/><path class="cls-1" d="M22.47754,4.35742h.03613c.50391-.90039,1.51172-1.38672,2.53906-1.38672,2.37695,0,2.98828,1.60254,2.98828,3.65527v5.02344h-1.62012v-4.8252c0-1.44043-.19824-2.41309-1.85449-2.41309-2.08887,0-2.08887,1.83691-2.08887,3.36719v3.87109h-1.62012V3.22266h1.62012v1.13477Z"/><path class="cls-1" d="M33.18164,11.64941h-1.61914v-6.91406h-.88281v-1.5127h.88281V0h1.61914v3.22266h1.58496v1.5127h-1.58496v6.91406Z"/><path class="cls-1" d="M44.90137,11.64941h-1.62012v-1.31445h-.03613c-.64844.9541-1.65723,1.60254-2.8623,1.60254-2.5752,0-4.0332-2.14258-4.0332-4.55566,0-2.30469,1.5293-4.41113,3.97852-4.41113,1.24219,0,2.25.64844,2.91699,1.65625h.03613v-1.4043h1.62012v8.42676ZM43.37109,7.43652c0-1.63867-.99023-3.02539-2.73633-3.02539-1.6748,0-2.66602,1.45898-2.66602,3.02539,0,1.58398.95508,3.06055,2.66602,3.06055,1.76367,0,2.73633-1.4043,2.73633-3.06055Z"/><path class="cls-1" d="M54.48926,5.61719c-.64746-.7373-1.44043-1.13379-2.41309-1.13379-1.58398,0-2.80859,1.4043-2.80859,2.95312,0,1.72852,1.20703,2.98828,2.91699,2.98828.93652,0,1.69238-.43164,2.30469-1.11621v2.07031c-.73828.39648-1.47559.55859-2.32324.55859-2.48438,0-4.51855-1.9082-4.51855-4.42969,0-2.61035,2.0166-4.53711,4.60938-4.53711.75684,0,1.58496.18066,2.23242.55859v2.08789Z"/><path class="cls-1" d="M59.37891,11.64941h-1.62012v-6.91406h-.88184v-1.5127h.88184V0h1.62012v3.22266h1.58398v1.5127h-1.58398v6.91406Z"/></g></svg>