<?xml version="1.0" encoding="UTF-8"?><svg id="_レイヤー_2" xmlns="http://www.w3.org/2000/svg" viewBox="0 0 199.08008 20.48535"><defs><style>.cls-1{fill:#fff;stroke-width:0px;}</style></defs><g id="_メニュー"><path class="cls-1" d="M16.78809,8.42676c0,4.64355-3.7627,8.38379-8.40527,8.38379S0,13.07031,0,8.42676C0,3.78418,3.74023.02246,8.38281.02246s8.40527,3.76172,8.40527,8.4043ZM.83594,8.42676c0,4.24707,3.30078,7.56934,7.54688,7.56934,4.22461,0,7.56934-3.32227,7.56934-7.56934,0-4.22461-3.34473-7.59082-7.56934-7.59082C4.13672.83594.83594,4.20215.83594,8.42676ZM10.97949,6.40332c-.35156-1.32031-1.14453-2.04688-2.28809-2.04688-1.58398,0-2.81641,1.4082-2.81641,4.02637,0,2.64062,1.25391,4.04883,2.81641,4.04883,1.1875,0,2.0459-.61621,2.39844-2.1123l1.42969.44043c-.59375,2.0459-1.93652,2.94824-3.85059,2.94824-2.55176,0-4.40039-1.98047-4.40039-5.30273,0-3.34473,1.87012-5.3252,4.40039-5.3252,1.91406,0,3.30078,1.12207,3.80664,2.94922l-1.49609.37402Z"/><path class="cls-1" d="M28.0498,4.55469c.46191-2.79492,2.30957-4.26855,4.77441-4.26855,2.61816,0,4.4668,1.54004,4.4668,4.1582,0,1.76074-.66016,3.08105-3.32324,5.41309-2.37598,2.08984-3.49805,3.52051-4.22461,5.12695h7.56934v1.51758h-9.39551v-1.36328c.90234-2.13477,2.31055-4.02734,4.70898-6.24902,2.2666-2.1123,2.77246-3.03711,2.77246-4.44531,0-1.62793-1.05664-2.63965-2.59668-2.63965-1.60645,0-2.66211,1.05566-2.94824,3.16797l-1.80371-.41797Z"/><path class="cls-1" d="M50.60938,8.44922c0,5.83105-1.71582,8.33887-4.84082,8.33887-3.12402,0-4.81836-2.46387-4.81836-8.29492,0-5.80859,1.78223-8.20703,4.8623-8.20703,3.08105,0,4.79688,2.35449,4.79688,8.16309ZM42.82031,8.47168c0,4.92871.96777,6.79883,2.94824,6.79883,2.00293,0,2.9707-1.87012,2.9707-6.79883s-.94629-6.66699-2.92676-6.66699c-1.95801,0-2.99219,1.71582-2.99219,6.66699Z"/><path class="cls-1" d="M54.18066,4.55469c.46191-2.79492,2.30957-4.26855,4.77441-4.26855,2.61816,0,4.4668,1.54004,4.4668,4.1582,0,1.76074-.66016,3.08105-3.32324,5.41309-2.37598,2.08984-3.49805,3.52051-4.22461,5.12695h7.56934v1.51758h-9.39551v-1.36328c.90234-2.13477,2.31055-4.02734,4.70898-6.24902,2.2666-2.1123,2.77246-3.03711,2.77246-4.44531,0-1.62793-1.05664-2.63965-2.59668-2.63965-1.60645,0-2.66211,1.05566-2.94824,3.16797l-1.80371-.41797Z"/><path class="cls-1" d="M74.16895,11.30957h2.22168v1.45215h-2.22168v3.74023h-1.65039v-3.74023h-6.38086v-1.36426L71.66016.39648h2.50879v10.91309ZM72.51855,5.7207c0-1.27637.04395-2.44238.08789-3.87207h-.37402c-.52832,1.20996-.99023,2.33203-1.54004,3.4541l-2.92676,6.00684h4.75293v-5.58887Z"/><path class="cls-1" d="M96.16895,4.42285c-.57227-1.98047-1.78223-2.86035-3.43262-2.86035-2.02441,0-3.25684,1.03418-3.25684,2.61816,0,1.69434.81445,2.46387,3.36621,3.10254l.7041.19824c3.87305.99023,4.84082,2.37598,4.84082,4.70801,0,2.75098-1.98047,4.62109-5.58887,4.62109-2.99219,0-5.06055-1.38672-5.85254-4.07031l1.89258-.66016c.52734,2.1123,2.0459,3.16797,3.91602,3.16797,2.53027,0,3.6748-1.18848,3.6748-2.83789,0-1.67285-.6377-2.48633-3.63086-3.2793l-.6377-.19727c-3.52051-.94629-4.59863-2.2666-4.59863-4.66504,0-2.24414,1.75977-4.26855,5.12695-4.26855,2.61816,0,4.53223,1.20996,5.39062,3.85059l-1.91406.57227Z"/><path class="cls-1" d="M104.2666,7.01855c.81445-1.29785,2.04688-2.00195,3.32324-2.00195,2.48633,0,4.33398,2.09082,4.33398,5.83105s-1.98047,5.91895-4.44434,5.91895c-1.43066,0-2.39844-.63867-3.14648-1.95801v5.67676h-1.78223V5.25879h1.71582v1.75977ZM104.33301,13.22363c.74805,1.43066,1.65039,2.09082,2.77246,2.09082,1.67188,0,2.99219-1.49609,2.99219-4.42285s-1.23242-4.42285-2.86035-4.42285c-1.12207,0-2.15625.68262-2.9043,2.15625v4.59863Z"/><path class="cls-1" d="M117.31738,11.13379c0,2.75,1.29785,4.29004,3.30078,4.29004,1.51758,0,2.41992-.7041,2.86035-2.28809l1.64941.5498c-.72559,2.02441-2.17773,3.08105-4.53223,3.08105-3.03613,0-5.0166-2.2002-5.0166-5.85254,0-3.58691,2.06836-5.91895,4.8623-5.91895,2.75098,0,4.75293,2.13379,4.75293,5.74219v.39648h-7.87695ZM123.45605,9.85742c-.17578-2.2666-1.27637-3.49805-2.99219-3.49805-1.73828,0-2.94824,1.36328-3.10254,3.49805h6.09473Z"/><path class="cls-1" d="M130.56641,11.13379c0,2.75,1.29785,4.29004,3.30078,4.29004,1.51758,0,2.41992-.7041,2.86035-2.28809l1.64941.5498c-.72559,2.02441-2.17773,3.08105-4.53223,3.08105-3.03613,0-5.0166-2.2002-5.0166-5.85254,0-3.58691,2.06836-5.91895,4.8623-5.91895,2.75098,0,4.75293,2.13379,4.75293,5.74219v.39648h-7.87695ZM136.70508,9.85742c-.17578-2.2666-1.27637-3.49805-2.99219-3.49805-1.73828,0-2.94824,1.36328-3.10254,3.49805h6.09473Z"/><path class="cls-1" d="M143.81445,11.13379c0,2.75,1.29785,4.29004,3.30078,4.29004,1.51758,0,2.41992-.7041,2.86035-2.28809l1.64941.5498c-.72559,2.02441-2.17773,3.08105-4.53223,3.08105-3.03613,0-5.0166-2.2002-5.0166-5.85254,0-3.58691,2.06836-5.91895,4.8623-5.91895,2.75098,0,4.75293,2.13379,4.75293,5.74219v.39648h-7.87695ZM149.95312,9.85742c-.17578-2.2666-1.27637-3.49805-2.99219-3.49805-1.73828,0-2.94824,1.36328-3.10254,3.49805h6.09473Z"/><path class="cls-1" d="M165.66016,16.50195h-1.91406V.28613h1.91406v16.21582Z"/><path class="cls-1" d="M172.44238,7.30469c1.10059-1.4082,2.48633-2.28809,3.93848-2.28809,1.84863,0,3.125,1.16602,3.125,3.21289v8.27246h-1.82617v-7.63477c0-1.60645-.68262-2.28809-1.89258-2.28809-1.05566,0-2.2666.79199-3.27832,2.22168v7.70117h-1.78223V5.25879h1.71582v2.0459Z"/><path class="cls-1" d="M191.10156,8.80078c-.33008-1.62793-1.25391-2.39746-2.50879-2.39746-1.87012,0-3.03613,1.58398-3.03613,4.46582,0,2.90527,1.16602,4.51074,3.03613,4.51074,1.47461,0,2.31055-.81348,2.64062-2.46387l1.69434.52832c-.61621,2.15625-2.1123,3.32227-4.35645,3.32227-2.9707,0-4.84082-2.2002-4.84082-5.85254,0-3.65332,1.93652-5.91895,4.84082-5.91895,2.15625,0,3.71875,1.14355,4.29004,3.34375l-1.75977.46191Z"/><path class="cls-1" d="M199.08008,16.50195h-2.39844v-2.39746h2.39844v2.39746Z"/></g></svg>