<svg viewBox="0 0 49.107 35.987" xmlns="http://www.w3.org/2000/svg"><g fill="#fff"><path d="m0 11.87c0-7.537 4.428-11.87 10.928-11.87s10.928 4.333 10.928 11.87v12.247c0 7.536-4.428 11.87-10.928 11.87s-10.928-4.334-10.928-11.87zm6.689 11.776c0 4.004 1.743 5.841 4.239 5.841s4.239-1.837 4.239-5.841v-11.305c0-4.004-1.743-5.841-4.239-5.841s-4.239 1.837-4.239 5.841z"/><path d="m27.769 28.451c4.239-4.24 7.16-7.442 9.232-9.515 4.098-4.145 4.616-5.652 4.616-7.772 0-2.685-1.743-4.004-3.439-4.004-1.602 0-3.627.753-3.627 4.71h-7.16c0-4.098 1.178-7.066 3.109-8.997 1.931-1.979 4.663-2.873 7.725-2.873 6.265 0 10.74 4.616 10.74 11.305 0 2.92-.754 5.511-2.355 7.678-1.884 2.45-4.946 5.417-9.421 9.845h11.917v6.595h-21.338v-6.971z"/></g></svg>