<svg viewBox="0 0 50.111 35.987" xmlns="http://www.w3.org/2000/svg"><g fill="#fff"><path d="m0 11.87c0-7.537 4.428-11.87 10.928-11.87s10.928 4.333 10.928 11.87v12.247c0 7.536-4.428 11.87-10.928 11.87s-10.928-4.334-10.928-11.87zm6.689 11.776c0 4.004 1.743 5.841 4.239 5.841s4.239-1.837 4.239-5.841v-11.305c0-4.004-1.743-5.841-4.239-5.841s-4.239 1.837-4.239 5.841z"/><path d="m27.689 10.504c.047-6.83 4.381-10.504 10.74-10.504 6.312 0 10.269 3.768 10.269 9.232 0 4.004-1.649 5.935-4.239 7.019 4.239 1.272 5.652 5.04 5.652 9.044 0 5.888-3.957 10.693-11.117 10.693-4.805 0-8.243-1.837-10.127-4.946-1.083-1.79-1.696-3.957-1.743-6.406h7.348c0 2.873 1.46 4.757 4.381 4.757 2.308 0 3.91-1.79 3.91-4.428 0-3.486-2.167-4.993-5.181-4.993h-2.261v-6.312h1.79c2.826 0 4.239-1.319 4.239-3.674 0-1.884-1.036-3.392-3.344-3.392-2.073 0-2.968 1.79-2.968 3.91h-7.348z"/></g></svg>