<svg viewBox="0 0 650 98.037" xmlns="http://www.w3.org/2000/svg"><path d="m155.805 0h338.39v45.667h-338.39z" fill="#d9dfe1"/><path d="m325.187 98.037-18.035-22.106h35.696z" fill="#d9dfe1"/><path d="m187.232 16.3h-8.497v-2.256h8.497zm-.744 14.905h-4.44v.96h-2.328v-8.185h6.769v7.225zm-.048-11.641h-6.649v-2.184h6.649zm-6.649 1.104h6.649v2.136h-6.649zm6.601-7.68h-6.457v-2.16h6.457zm-4.345 13.225v2.76h2.088v-2.76zm15.506.36c1.392 1.32 3.096 3.168 3.864 4.488l-2.52 1.44c-.672-1.296-2.328-3.288-3.72-4.68l2.304-1.248h-6.073l2.232 1.248c-1.128 1.656-3.096 3.6-4.824 4.656-.456-.528-1.392-1.32-2.064-1.8 1.656-.984 3.384-2.736 4.296-4.104h-3.696v-2.544h9.313v-2.136h-5.857v.984h-2.592v-10.225h2.592v6.769h8.641v4.608h1.776v2.544zm2.544-8.497h-7.969v-7.321h7.969zm-2.616-4.968h-2.88v2.616h2.88z"/><path d="m207.867 19.612c1.632-.504 5.713-1.872 8.617-1.872 3.792 0 6.337 2.256 6.337 5.881 0 4.344-3.816 7.297-11.449 7.777l-1.272-2.952c5.497-.144 9.529-1.608 9.529-4.872 0-1.8-1.344-3.048-3.432-3.048-2.784 0-7.585 1.992-9.625 2.856l-1.248-3.12c.72-.144 1.824-.432 2.544-.648z"/><path d="m236.194 13.516c-.048.264-.12.576-.192.912 1.344-.192 2.688-.456 4.008-.768v3c-1.44.336-3.072.6-4.68.792-.216 1.032-.456 2.088-.72 3.072-.864 3.36-2.472 8.257-3.816 11.113l-3.336-1.128c1.44-2.4 3.264-7.441 4.152-10.801.168-.648.36-1.32.504-2.016-.552.024-1.08.048-1.584.048-1.152 0-2.064-.048-2.904-.096l-.072-3c1.224.144 2.04.192 3.024.192.696 0 1.416-.024 2.16-.072.096-.528.168-.984.216-1.368.096-.888.144-1.872.072-2.424l3.672.288c-.192.648-.408 1.728-.504 2.256zm2.881 13.033c0 1.056.72 1.848 3.288 1.848 1.608 0 3.264-.192 4.992-.504l-.12 3.072c-1.344.168-2.976.336-4.896.336-4.032 0-6.217-1.392-6.217-3.816 0-1.104.24-2.256.432-3.216l2.856.288c-.192.672-.336 1.464-.336 1.992zm3.648-8.281c1.368 0 2.808.072 4.224.216l-.072 2.88c-1.2-.144-2.664-.288-4.128-.288-1.632 0-3.12.072-4.632.24v-2.808c1.344-.12 3.072-.24 4.608-.24z"/><path d="m271.305 15.412c-1.128 1.872-3.408 4.896-5.76 6.576l-2.496-1.992c1.92-1.176 3.792-3.288 4.416-4.464h-12.505c-1.008 0-1.8.072-2.928.168v-3.336c.912.144 1.92.24 2.928.24h12.937c.672 0 1.992-.072 2.448-.216l1.896 1.776c-.264.312-.72.888-.936 1.248zm-15.505 16.346-2.808-2.28c.768-.264 1.632-.672 2.52-1.32 3.048-2.112 3.624-4.656 3.624-8.593 0-.744-.048-1.392-.168-2.16h3.48c0 5.952-.12 10.849-6.649 14.353z"/><path d="m284.326 16.78c2.472-1.536 5.208-3.936 6.769-5.832l2.592 2.472c-1.824 1.8-4.128 3.672-6.457 5.208v9.697c0 1.056.048 2.544.216 3.144h-3.792c.096-.576.168-2.088.168-3.144v-7.681c-2.472 1.296-5.521 2.592-8.473 3.456l-1.512-3.024c4.296-1.104 7.825-2.664 10.489-4.296z"/><path d="m299.621 18.58h15.721c.504 0 1.56-.048 2.184-.144v3.12c-.6-.048-1.512-.072-2.184-.072h-5.784c-.144 2.472-.672 4.488-1.536 6.168-.84 1.68-2.688 3.528-4.824 4.608l-2.808-2.04c1.704-.648 3.384-2.016 4.344-3.432.984-1.488 1.392-3.288 1.488-5.304h-6.601c-.696 0-1.632.048-2.304.096v-3.144c.72.096 1.56.144 2.304.144zm3.048-6.096h7.849c.816 0 1.776-.072 2.592-.192v3.096c-.816-.048-1.752-.072-2.592-.072h-7.849c-.816 0-1.848.024-2.568.072v-3.096c.768.12 1.752.192 2.568.192zm13.777 1.44-1.92.84c-.504-.984-1.248-2.424-1.896-3.336l1.92-.792c.6.888 1.44 2.4 1.896 3.288zm2.881-1.104-1.92.84c-.504-1.008-1.272-2.4-1.92-3.312l1.896-.792c.624.912 1.512 2.424 1.944 3.264z"/><path d="m342.748 15.412c-1.128 1.872-3.408 4.896-5.76 6.576l-2.496-1.992c1.92-1.176 3.792-3.288 4.416-4.464h-12.505c-1.008 0-1.8.072-2.928.168v-3.336c.912.144 1.92.24 2.928.24h12.937c.672 0 1.992-.072 2.448-.216l1.896 1.776c-.264.312-.72.888-.936 1.248zm-15.505 16.346-2.808-2.28c.768-.264 1.632-.672 2.52-1.32 3.048-2.112 3.624-4.656 3.624-8.593 0-.744-.048-1.392-.168-2.16h3.48c0 5.952-.12 10.849-6.649 14.353z"/><path d="m351.701 16.66v-.912c-.648.6-1.344 1.176-2.136 1.752h9.601v7.465h-7.753c-.048.312-.096.648-.168.96h8.281v6.457h-2.472v-.672h-4.056v.744h-2.4v-3.96c-.432 1.272-1.032 2.496-1.848 3.504-.36-.48-1.368-1.416-1.872-1.704 2.112-2.76 2.376-6.601 2.376-9.313v-3.264c-.264.168-.528.36-.792.528-.336-.624-1.152-1.584-1.704-2.016 2.856-1.656 4.896-3.888 6.025-5.856h2.544c1.68 1.296 3.864 3.072 5.016 4.32l-1.824 2.112c-.336-.384-.768-.864-1.272-1.392v1.248h-5.544zm4.897 6.313v-.912h-4.944c0 .288-.024.6-.048.912zm-4.921-3.481v.864h4.92v-.864zm4.896-4.752c-.696-.672-1.44-1.368-2.136-1.92-.504.624-1.056 1.272-1.68 1.92zm-3.576 13.225v1.704h4.056v-1.704zm10.273-1.464h-2.688v-13.513h2.688zm5.329-15.937v18.53c0 1.584-.312 2.376-1.272 2.808-.912.48-2.4.576-4.464.576-.12-.792-.528-2.088-.936-2.904 1.44.048 2.832.048 3.288.048.432 0 .6-.144.6-.552v-18.506z"/><path d="m393.314 22.325v10.153h-2.976v-1.368h-13.297v1.392h-2.904v-10.177h2.904v5.976h5.016v-7.249h-6.961v-8.713h2.832v5.928h4.128v-7.945h2.928v7.945h4.368v-5.928h3v8.713h-7.369v7.249h5.352v-5.976h2.976z"/><path d="m409.698 31.542-1.8-2.856c.912-.096 1.584-.24 2.232-.384 3.072-.72 5.472-2.928 5.472-6.432 0-3.312-1.8-5.785-5.04-6.337-.336 2.04-.744 4.249-1.44 6.505-1.44 4.848-3.504 7.825-6.12 7.825-2.664 0-4.872-2.928-4.872-6.985 0-5.544 4.8-10.273 11.017-10.273 5.953 0 9.697 4.128 9.697 9.361 0 5.064-3.096 8.641-9.145 9.577zm-6.601-5.377c1.008 0 1.944-1.512 2.928-4.752.552-1.776 1.008-3.816 1.272-5.809-3.96.816-6.097 4.32-6.097 6.961 0 2.424.96 3.6 1.896 3.6z"/><path d="m431.593 11.02c-.672 1.68-1.512 3.36-2.472 5.016v16.441h-2.832v-12.313c-.624.792-1.272 1.488-1.92 2.136-.288-.696-1.128-2.232-1.656-2.928 2.424-2.208 4.752-5.688 6.097-9.241l2.784.888zm7.824 9.096v8.737h5.664v2.736h-14.353v-2.736h5.76v-8.737h-6.361v-2.784h6.361v-6.769h2.928v6.769h6.073v2.784h-6.073z"/><path d="m459.382 16.636c-.072 1.032-.144 2.088-.264 3.12h9.265s-.024.864-.096 1.248c-.432 6.528-.936 9.217-1.896 10.273-.72.768-1.464 1.008-2.592 1.104-.888.096-2.496.072-4.104 0-.048-.816-.48-1.992-1.008-2.808 1.656.168 3.336.168 4.032.168.528 0 .864-.048 1.152-.312.624-.528 1.056-2.616 1.392-6.985h-6.601c-.912 4.056-2.904 7.801-7.705 10.225-.408-.792-1.272-1.8-2.016-2.424 6.481-3 7.033-8.473 7.297-13.609h-6.865v-2.736h9.193v-3.912h2.952v3.912h9.481v2.736z"/><g fill="none" stroke="#a0afb5" stroke-miterlimit="10" stroke-width="2"><path d="m650 22.834h-146.598"/><path d="m146.598 22.834h-146.598"/></g></svg>