<svg viewBox="0 0 1002.18 237.792" xmlns="http://www.w3.org/2000/svg"><path d="m139.904 201.616h475.756" fill="none" stroke="#005a96" stroke-miterlimit="10" stroke-width="10.945"/><rect fill="#d9dfe1" height="68.82" rx="5.555" width="195.758" y=".143"/><path d="m69.299 39.472c.042 1.602.582 2.35 1.955 2.35 1.165 0 1.789-.728 1.789-1.83 0-1.394-1.664-1.726-3.328-2.371-1.664-.665-3.328-1.622-3.328-4.222 0-2.911 1.789-4.783 4.721-4.783 2.849 0 4.43 1.372 4.887 4.409h-3.078c-.042-1.123-.666-1.789-1.685-1.789-.998 0-1.601.749-1.601 1.685 0 1.456 1.664 1.727 3.328 2.392 1.664.666 3.328 1.706 3.328 4.639 0 2.891-2.163 4.658-5.095 4.658-3.515 0-5.054-1.893-5.054-5.137h3.161z"/><path d="m80.876 31.839h-2.579v-2.912h8.319v2.912h-2.579v12.479h-3.161z"/><path d="m89.227 28.927h7.487v2.912h-4.326v2.953h4.326v2.912h-4.326v3.701h4.326v2.912h-7.487v-15.391z"/><path d="m104.637 28.927c1.456 0 2.724.438 3.619 1.29.894.853 1.414 2.121 1.414 3.723 0 1.622-.52 2.87-1.414 3.723s-2.163 1.289-3.619 1.289h-1.206v5.366h-3.161v-15.391h4.368zm-1.206 7.113h1.165c.624 0 1.082-.146 1.373-.499.312-.333.458-.832.458-1.602 0-.79-.146-1.29-.458-1.622-.291-.333-.749-.479-1.373-.479h-1.165v4.201z"/><path d="m121.482 44.318h-3.203l4.201-15.391h2.912l4.367 15.391h-3.203l-.79-2.933h-3.536l-.749 2.933zm2.495-10.877-.977 5.033h1.955l-.977-5.033z"/><rect fill="#d9dfe1" height="68.82" rx="5.555" width="195.758" x="202.729" y=".143"/><path d="m272.027 39.472c.042 1.602.582 2.35 1.955 2.35 1.165 0 1.789-.728 1.789-1.83 0-1.394-1.664-1.726-3.328-2.371-1.664-.665-3.328-1.622-3.328-4.222 0-2.911 1.789-4.783 4.721-4.783 2.849 0 4.43 1.372 4.887 4.409h-3.078c-.042-1.123-.666-1.789-1.685-1.789-.998 0-1.601.749-1.601 1.685 0 1.456 1.664 1.727 3.328 2.392 1.664.666 3.328 1.706 3.328 4.639 0 2.891-2.163 4.658-5.095 4.658-3.515 0-5.054-1.893-5.054-5.137h3.161z"/><path d="m283.604 31.839h-2.579v-2.912h8.319v2.912h-2.579v12.479h-3.161z"/><path d="m291.955 28.927h7.487v2.912h-4.326v2.953h4.326v2.912h-4.326v3.701h4.326v2.912h-7.487v-15.391z"/><path d="m307.365 28.927c1.456 0 2.724.438 3.619 1.29s1.414 2.121 1.414 3.723c0 1.622-.52 2.87-1.414 3.723s-2.163 1.289-3.619 1.289h-1.206v5.366h-3.161v-15.391h4.368zm-1.206 7.113h1.165c.624 0 1.082-.146 1.373-.499.312-.333.458-.832.458-1.602 0-.79-.146-1.29-.458-1.622-.291-.333-.749-.479-1.373-.479h-1.165v4.201z"/><path d="m322.275 28.927h4.659c1.456 0 2.516.396 3.224 1.103.686.687 1.019 1.664 1.019 2.767 0 1.871-.957 2.911-2.537 3.119 1.768.374 3.141 1.289 3.141 3.89 0 1.227-.374 2.35-1.123 3.182-.728.79-1.83 1.331-3.265 1.331h-5.116v-15.391zm3.161 5.99h.728c.603 0 1.04-.146 1.331-.396.291-.291.437-.665.437-1.248 0-.54-.146-.936-.437-1.186-.291-.249-.728-.374-1.331-.374h-.728v3.203zm0 6.613h1.185c.666 0 1.165-.187 1.477-.52s.458-.77.437-1.331c.021-.604-.125-1.082-.437-1.414-.312-.354-.811-.562-1.477-.562h-1.185v3.826z"/><rect fill="#d9dfe1" height="68.82" rx="5.555" width="195.758" x="403.734" y=".143"/><path d="m472.46 39.472c.042 1.602.582 2.35 1.955 2.35 1.165 0 1.789-.728 1.789-1.83 0-1.394-1.664-1.726-3.328-2.371-1.664-.665-3.328-1.622-3.328-4.222 0-2.911 1.789-4.783 4.721-4.783 2.849 0 4.43 1.372 4.888 4.409h-3.078c-.042-1.123-.666-1.789-1.685-1.789-.998 0-1.601.749-1.601 1.685 0 1.456 1.664 1.727 3.328 2.392 1.664.666 3.328 1.706 3.328 4.639 0 2.891-2.163 4.658-5.095 4.658-3.515 0-5.054-1.893-5.054-5.137h3.161z"/><path d="m484.037 31.839h-2.579v-2.912h8.319v2.912h-2.579v12.479h-3.161z"/><path d="m492.388 28.927h7.487v2.912h-4.326v2.953h4.326v2.912h-4.326v3.701h4.326v2.912h-7.487v-15.391z"/><path d="m507.798 28.927c1.456 0 2.724.438 3.619 1.29s1.414 2.121 1.414 3.723c0 1.622-.52 2.87-1.414 3.723s-2.163 1.289-3.619 1.289h-1.206v5.366h-3.161v-15.391h4.368zm-1.206 7.113h1.165c.624 0 1.082-.146 1.373-.499.312-.333.458-.832.458-1.602 0-.79-.146-1.29-.458-1.622-.291-.333-.749-.479-1.373-.479h-1.165v4.201z"/><path d="m533.232 38.349c-.021 3.515-1.955 6.26-5.574 6.26-3.369 0-5.574-2.6-5.574-7.986s2.205-7.986 5.574-7.986c3.723 0 5.615 2.808 5.574 6.385h-3.244c-.083-2.745-.874-3.39-2.08-3.39-1.456 0-2.579 1.311-2.579 4.991s1.123 4.991 2.579 4.991c1.643 0 1.997-1.622 2.08-3.265z"/><rect fill="#d9dfe1" height="195.758" rx="5.555" transform="matrix(.00155334 -.99999879 .99999879 .00155334 666.978 737.117)" width="68.82" x="668.209" y="-63.326"/><path d="m673.45 39.336c.039 1.602.579 2.351 1.951 2.353 1.165.002 1.79-.725 1.791-1.827.002-1.394-1.661-1.729-3.324-2.376-1.663-.668-3.325-1.628-3.321-4.228.005-2.911 1.796-4.78 4.729-4.775 2.849.004 4.428 1.379 4.881 4.417l-3.078-.005c-.04-1.123-.663-1.79-1.682-1.792-.998-.002-1.603.747-1.604 1.683-.002 1.456 1.661 1.729 3.324 2.396 1.663.668 3.325 1.711 3.32 4.644-.005 2.891-2.17 4.655-5.103 4.65-3.515-.006-5.051-1.9-5.046-5.145l3.161.005z"/><path d="m685.039 31.721-2.579-.004.005-2.912 8.319.013-.005 2.912-2.579-.004-.019 12.479-3.161-.005z"/><path d="m693.394 28.822 7.487.012-.005 2.912-4.326-.007-.005 2.953 4.326.007-.005 2.912-4.326-.007-.006 3.701 4.326.007-.005 2.912-7.487-.012.024-15.391z"/><path d="m708.804 28.846c1.456.002 2.724.441 3.617 1.296.893.854 1.411 2.123 1.408 3.725-.002 1.622-.524 2.869-1.42 3.721-.896.851-2.165 1.285-3.621 1.283l-1.206-.002-.008 5.366-3.161-.005.024-15.391 4.368.007zm-1.217 7.111 1.165.002c.624 0 1.082-.144 1.373-.497.312-.332.459-.831.46-1.601.001-.79-.143-1.29-.455-1.623-.291-.333-.748-.479-1.372-.48l-1.165-.002z"/><path d="m723.694 28.869 4.43.007c2.267.003 3.742.88 4.759 2.274.996 1.396 1.513 3.33 1.51 5.431-.006 4.201-2.092 7.691-6.189 7.686l-4.534-.007zm3.142 12.484 1.373.002c2.558.004 2.937-3.156 2.94-4.778.002-1.456-.225-2.663-.702-3.496-.456-.811-1.142-1.29-2.327-1.292l-1.269-.002z"/><rect fill="#d9dfe1" height="68.82" rx="5.564" width="196.435" x="805.745" y=".143"/><path d="m887.297 34.553c0 1.833-1.466 3.3-3.3 3.3s-3.3-1.467-3.3-3.3 1.466-3.3 3.3-3.3c1.938 0 3.3 1.57 3.3 3.3zm17.441 0c0 1.833-1.466 3.3-3.3 3.3s-3.3-1.467-3.3-3.3 1.467-3.3 3.3-3.3c1.938 0 3.3 1.57 3.3 3.3zm17.441 0c0 1.833-1.466 3.3-3.3 3.3s-3.3-1.467-3.3-3.3 1.467-3.3 3.3-3.3c1.938 0 3.3 1.57 3.3 3.3z"/><rect fill="#d9dfe1" height="75.851" rx="5.802" width="193.763" y="77.162"/><path d="m43.11 115.825h-3.567l-.773 2.824h-2.229l3.522-10.998h2.586l3.537 10.998h-2.304l-.773-2.824zm-.476-1.709-.327-1.203c-.342-1.145-.639-2.408-.966-3.597h-.059c-.282 1.203-.609 2.452-.936 3.597l-.327 1.203h2.616z"/><path d="m54.248 107.31c-.119.297-.297 1.04-.357 1.308-.208.981-.713 3.924-.713 5.396 0 .282.015.639.059.951.208-.521.446-1.011.654-1.486l.921.713c-.416 1.234-.907 2.824-1.055 3.612-.045.208-.089.534-.089.684.015.163.015.401.03.609l-1.694.118c-.297-1.025-.58-2.823-.58-4.815 0-2.214.446-4.696.609-5.825.059-.416.149-.981.149-1.442l2.066.179zm3.448 7.267c-.119.476-.178.832-.178 1.233 0 .654.565 1.041 2.051 1.041 1.323 0 2.408-.119 3.686-.387l.045 1.991c-.951.179-2.14.298-3.805.298-2.541 0-3.745-.922-3.745-2.423 0-.609.104-1.233.253-1.917l1.694.163zm5.142-6.301v1.902c-1.813.164-4.474.164-6.316 0l-.015-1.902c1.813.253 4.741.193 6.331 0z"/><path d="m78.317 113.953c-.401 1.396-1.04 2.556-1.873 3.492.743.491 1.635.862 2.616 1.1-.342.327-.803.967-1.04 1.383-1.055-.312-1.977-.773-2.764-1.383-.758.58-1.605 1.041-2.527 1.383-.163-.342-.49-.832-.788-1.189v1.204h-1.694v-1.204c-1.709.164-3.403.312-4.711.432l-.134-1.517c.386-.029.832-.044 1.293-.089v-4.518h-1.159v-1.397h13.212v1.397h-6.807v5.439c.758-.253 1.486-.609 2.11-1.07-.535-.64-.996-1.382-1.352-2.2l.981-.267h-1.367v-1.353h4.622l.297-.06 1.085.416zm-1.278-2.853h-9.764v-4.562h9.764zm-8.724 1.947v.594h1.932v-.594zm0 2.452h1.932v-.625h-1.932zm0 1.946c.624-.044 1.278-.089 1.932-.148v-.579h-1.932v.728zm6.955-9.779h-6.302v.609h6.302zm0 1.68h-6.302v.624h6.302zm-1.085 5.603c.253.534.594 1.025.996 1.456.401-.431.743-.922 1.011-1.456h-2.006z"/><path d="m83.541 116.569c.58.996 1.62 1.412 3.136 1.472 1.783.074 5.291.029 7.342-.134-.208.416-.461 1.233-.55 1.724-1.843.09-4.994.119-6.807.045-1.769-.074-2.958-.505-3.849-1.649-.594.579-1.204 1.145-1.962 1.783l-.832-1.754c.58-.371 1.248-.861 1.843-1.367v-3.24h-1.665v-1.619h3.344v4.74zm-1.055-6.659c-.416-.728-1.397-1.753-2.229-2.467l1.352-1.011c.832.669 1.858 1.649 2.333 2.363l-1.456 1.114zm3.641-1.456h-1.962v-1.367h3.79v-1.025h1.709v1.025h4.013v1.367h-1.709c-.193.387-.372.729-.535 1.04h1.932v6.376c0 .714-.119 1.1-.594 1.367-.49.238-1.115.253-2.006.253-.045-.342-.193-.803-.342-1.174h-2.318v.445h-1.204v-3.27h1.367v-.817h-1.739v-1.07h1.739v-.772h-2.125v6.599h-1.59v-7.937h1.694c-.074-.327-.208-.684-.372-.98l.253-.06zm3.701 1.04c.134-.312.268-.698.386-1.04h-2.72c.178.342.312.729.357 1.04zm-.119 4.994h-1.605v.817h1.605zm2.036-3.656h-2.214v.772h1.754v1.07h-1.754v.817h1.397v2.586h.594c.163-.015.223-.06.223-.237v-5.009z"/><path d="m102.988 109.985c-.669.179-1.575.372-2.556.506-.699 2.065-1.962 4.622-3.151 6.302l-1.798-.907c1.189-1.441 2.348-3.611 3.002-5.201-.253.015-.505.015-.758.015-.609 0-1.204-.015-1.843-.045l-.134-1.724c.639.074 1.427.104 1.962.104.431 0 .877-.015 1.323-.044.208-.817.372-1.709.401-2.467l2.036.208c-.119.476-.297 1.218-.505 2.006.713-.119 1.397-.282 1.977-.461l.045 1.709zm1.932 1.323c-.045.624-.015 1.233 0 1.888.015.416.045 1.129.089 1.857 1.263.476 2.304 1.219 3.047 1.888l-.981 1.575c-.52-.476-1.189-1.07-1.992-1.561v.134c0 1.367-.743 2.438-2.839 2.438-1.828 0-3.27-.817-3.27-2.438 0-1.441 1.204-2.557 3.255-2.557.342 0 .684.03.996.06-.045-1.1-.119-2.393-.164-3.284h1.858zm-1.62 4.875c-.386-.09-.773-.148-1.189-.148-.847 0-1.397.356-1.397.876 0 .55.461.922 1.263.922.996 0 1.323-.58 1.323-1.367v-.282zm4.147-4.087c-.847-.685-2.527-1.65-3.537-2.096l.951-1.457c1.055.461 2.883 1.457 3.626 1.992z"/><path d="m123.475 117.787v1.739h-13.361v-1.739h5.737v-2.987h-4.028v-1.709h4.028v-2.615h-3.076c-.431.817-.892 1.575-1.382 2.154-.357-.282-1.144-.817-1.59-1.055 1.159-1.248 2.125-3.3 2.631-5.32l1.828.4c-.208.714-.446 1.412-.699 2.096h2.289v-2.675h1.858v2.675h5.008v1.725h-5.008v2.615h4.444v1.709h-4.444v2.987h5.766z"/><path d="m137.631 111.234c-.609 1.932-1.486 3.656-2.556 5.098.431 1.07.907 1.694 1.382 1.694.357 0 .535-.743.609-2.601.401.416 1.025.802 1.501.995-.282 2.75-.877 3.403-2.259 3.403-1.04 0-1.858-.743-2.512-1.962-.758.788-1.59 1.457-2.512 2.021-.268-.387-.907-1.114-1.278-1.456 1.144-.624 2.17-1.441 3.032-2.408-.505-1.679-.832-3.76-1.025-5.989h-4.31v1.591h3.671s-.015.46-.015.668c-.045 3.121-.134 4.444-.476 4.875-.282.387-.58.521-1.025.595-.386.06-1.026.06-1.709.045-.03-.521-.223-1.204-.49-1.65.535.045 1.04.06 1.278.06.208 0 .327-.029.446-.178.149-.209.208-.922.253-2.795h-1.932c-.059 2.17-.372 5.068-1.59 6.882-.312-.342-1.1-.996-1.501-1.204 1.13-1.783 1.234-4.369 1.234-6.302v-4.34h6.064c-.03-.728-.059-1.456-.059-2.199h1.858c-.015.743 0 1.472.03 2.199h2.274c-.55-.445-1.293-.921-1.902-1.293l1.07-1.055c.817.416 1.902 1.1 2.423 1.59l-.713.758h1.546v1.754h-4.592c.134 1.486.342 2.884.594 4.072.58-.996 1.07-2.096 1.427-3.3l1.769.432z"/><path d="m149.292 115.825h-3.567l-.773 2.824h-2.229l3.522-10.998h2.586l3.537 10.998h-2.304l-.773-2.824zm-.475-1.709-.327-1.203c-.342-1.145-.639-2.408-.966-3.597h-.059c-.282 1.203-.609 2.452-.936 3.597l-.327 1.203h2.616z"/><path d="m153.667 107.652h2.2v10.998h-2.2z"/><rect fill="#d9dfe1" height="75.851" rx="5.802" width="193.763" x="203.468" y="77.162"/><path d="m241.094 108.65h3.641c2.259 0 3.983.654 3.983 2.705 0 1.011-.565 2.051-1.501 2.378v.074c1.189.282 2.066 1.114 2.066 2.601 0 2.215-1.843 3.24-4.265 3.24h-3.924zm3.478 4.473c1.397 0 2.006-.564 2.006-1.441 0-.966-.654-1.353-1.977-1.353h-1.308v2.794h1.278zm.253 4.83c1.501 0 2.318-.535 2.318-1.68 0-1.069-.803-1.516-2.318-1.516h-1.531v3.195h1.531z"/><path d="m257.984 108.308c-.119.297-.297 1.04-.357 1.308-.208.981-.713 3.924-.713 5.396 0 .282.015.639.059.951.208-.521.446-1.011.654-1.486l.921.713c-.416 1.234-.907 2.824-1.055 3.612-.045.208-.089.534-.089.684.015.163.015.401.03.609l-1.694.118c-.297-1.025-.58-2.823-.58-4.815 0-2.214.446-4.696.609-5.825.059-.416.149-.981.149-1.442l2.066.179zm3.448 7.267c-.119.476-.178.832-.178 1.233 0 .654.565 1.041 2.051 1.041 1.323 0 2.408-.119 3.686-.387l.045 1.991c-.951.179-2.14.298-3.805.298-2.541 0-3.745-.922-3.745-2.423 0-.609.104-1.233.253-1.917l1.694.163zm5.143-6.301v1.902c-1.813.164-4.474.164-6.316 0l-.015-1.902c1.813.253 4.741.193 6.331 0z"/><path d="m282.053 114.951c-.401 1.396-1.04 2.556-1.873 3.492.743.491 1.635.862 2.616 1.1-.342.327-.803.967-1.04 1.383-1.055-.312-1.977-.773-2.764-1.383-.758.58-1.605 1.041-2.527 1.383-.163-.342-.49-.832-.788-1.189v1.204h-1.694v-1.204c-1.709.164-3.403.312-4.711.432l-.134-1.517c.386-.029.832-.044 1.293-.089v-4.518h-1.159v-1.397h13.212v1.397h-6.807v5.439c.758-.253 1.486-.609 2.11-1.07-.535-.64-.996-1.382-1.352-2.2l.981-.267h-1.367v-1.353h4.622l.297-.06 1.085.416zm-1.278-2.853h-9.764v-4.562h9.764zm-8.724 1.947v.594h1.932v-.594zm0 2.452h1.932v-.625h-1.932zm0 1.947c.624-.044 1.278-.089 1.932-.148v-.579h-1.932v.728zm6.956-9.78h-6.302v.609h6.302zm0 1.68h-6.302v.624h6.302zm-1.085 5.603c.253.534.594 1.025.996 1.456.401-.431.743-.922 1.011-1.456h-2.006z"/><path d="m287.277 117.567c.58.996 1.62 1.412 3.136 1.472 1.783.074 5.291.029 7.342-.134-.208.416-.461 1.233-.55 1.724-1.843.09-4.994.119-6.807.045-1.769-.074-2.958-.505-3.849-1.649-.594.579-1.204 1.145-1.962 1.783l-.832-1.754c.58-.371 1.248-.861 1.843-1.367v-3.24h-1.665v-1.619h3.344v4.74zm-1.055-6.659c-.416-.728-1.397-1.753-2.229-2.467l1.352-1.011c.832.669 1.858 1.649 2.333 2.363l-1.456 1.114zm3.641-1.456h-1.962v-1.367h3.79v-1.025h1.709v1.025h4.013v1.367h-1.709c-.193.387-.372.729-.535 1.04h1.932v6.376c0 .714-.119 1.1-.594 1.367-.49.238-1.115.253-2.006.253-.045-.342-.193-.803-.342-1.174h-2.318v.445h-1.204v-3.27h1.367v-.817h-1.739v-1.07h1.739v-.772h-2.125v6.599h-1.59v-7.937h1.694c-.074-.327-.208-.684-.372-.98l.253-.06zm3.701 1.04c.134-.312.268-.698.386-1.04h-2.72c.178.342.312.729.357 1.04zm-.119 4.994h-1.605v.817h1.605zm2.036-3.656h-2.214v.772h1.754v1.07h-1.754v.817h1.397v2.586h.594c.163-.015.223-.06.223-.237v-5.009z"/><path d="m306.724 110.983c-.669.179-1.575.372-2.556.506-.699 2.065-1.962 4.622-3.151 6.302l-1.798-.907c1.189-1.441 2.348-3.611 3.002-5.201-.253.015-.505.015-.758.015-.609 0-1.204-.015-1.843-.045l-.134-1.724c.639.074 1.427.104 1.962.104.431 0 .877-.015 1.323-.044.208-.817.372-1.709.401-2.467l2.036.208c-.119.476-.297 1.218-.505 2.006.713-.119 1.397-.282 1.977-.461l.045 1.709zm1.932 1.323c-.045.624-.015 1.233 0 1.888.015.416.045 1.129.089 1.857 1.263.476 2.304 1.219 3.047 1.888l-.981 1.575c-.52-.476-1.189-1.07-1.992-1.561v.134c0 1.367-.743 2.438-2.839 2.438-1.828 0-3.27-.817-3.27-2.438 0-1.441 1.204-2.557 3.255-2.557.342 0 .684.03.996.06-.045-1.1-.119-2.393-.163-3.284zm-1.62 4.875c-.386-.09-.773-.148-1.189-.148-.847 0-1.397.356-1.397.876 0 .55.461.922 1.263.922.996 0 1.323-.58 1.323-1.367v-.282zm4.147-4.087c-.847-.685-2.527-1.65-3.537-2.096l.951-1.457c1.055.461 2.883 1.457 3.626 1.992z"/><path d="m327.212 118.785v1.739h-13.361v-1.739h5.737v-2.987h-4.028v-1.709h4.028v-2.615h-3.076c-.431.817-.892 1.575-1.382 2.154-.357-.282-1.144-.817-1.59-1.055 1.159-1.248 2.125-3.3 2.631-5.32l1.828.4c-.208.714-.446 1.412-.698 2.096h2.289v-2.675h1.858v2.675h5.009v1.725h-5.009v2.615h4.444v1.709h-4.444v2.987h5.766z"/><path d="m341.368 112.232c-.609 1.932-1.486 3.656-2.556 5.098.431 1.07.907 1.694 1.382 1.694.357 0 .535-.743.609-2.601.401.416 1.026.802 1.501.995-.282 2.75-.877 3.403-2.259 3.403-1.04 0-1.858-.743-2.512-1.962-.758.788-1.59 1.457-2.512 2.021-.268-.387-.907-1.114-1.278-1.456 1.144-.624 2.17-1.441 3.032-2.408-.505-1.679-.832-3.76-1.025-5.989h-4.31v1.591h3.671s-.015.46-.015.668c-.045 3.121-.134 4.444-.476 4.875-.282.387-.58.521-1.025.595-.386.06-1.026.06-1.709.045-.03-.521-.223-1.204-.49-1.65.535.045 1.04.06 1.278.06.208 0 .327-.029.446-.178.149-.209.208-.922.253-2.795h-1.932c-.059 2.17-.372 5.068-1.59 6.882-.312-.342-1.1-.996-1.501-1.204 1.13-1.783 1.234-4.369 1.234-6.302v-4.34h6.064c-.03-.728-.059-1.456-.059-2.199h1.858c-.015.743 0 1.472.03 2.199h2.274c-.55-.445-1.293-.921-1.902-1.293l1.07-1.055c.817.416 1.902 1.1 2.423 1.59l-.713.758h1.546v1.754h-4.592c.134 1.486.342 2.884.594 4.072.58-.996 1.07-2.096 1.427-3.3l1.769.432z"/><path d="m353.029 116.823h-3.567l-.773 2.824h-2.229l3.522-10.998h2.586l3.537 10.998h-2.304l-.773-2.824zm-.476-1.709-.327-1.203c-.342-1.145-.639-2.408-.966-3.597h-.059c-.282 1.203-.609 2.452-.936 3.597l-.327 1.203h2.616z"/><path d="m357.403 108.65h2.2v10.998h-2.2z"/><rect fill="#d9dfe1" height="75.851" rx="5.802" width="193.763" x="404.732" y="77.162"/><path d="m441.985 115.191c0-3.627 2.333-5.752 5.113-5.752 1.397 0 2.512.669 3.225 1.412l-1.159 1.396c-.55-.534-1.189-.921-2.021-.921-1.665 0-2.913 1.427-2.913 3.79 0 2.393 1.13 3.834 2.868 3.834.936 0 1.679-.445 2.274-1.085l1.159 1.367c-.907 1.056-2.081 1.62-3.507 1.62-2.779 0-5.038-1.991-5.038-5.662z"/><path d="m459.068 109.305c-.119.297-.297 1.04-.357 1.308-.208.981-.713 3.924-.713 5.396 0 .282.015.639.059.951.208-.521.446-1.011.654-1.486l.921.713c-.416 1.234-.906 2.824-1.055 3.612-.045.208-.089.534-.089.684.015.163.015.4.03.609l-1.694.118c-.297-1.025-.58-2.823-.58-4.815 0-2.214.446-4.696.609-5.825.059-.416.149-.981.149-1.442l2.066.179zm3.448 7.267c-.119.476-.178.832-.178 1.233 0 .654.565 1.041 2.051 1.041 1.323 0 2.408-.119 3.686-.387l.045 1.991c-.951.179-2.14.298-3.805.298-2.542 0-3.745-.922-3.745-2.423 0-.609.104-1.233.253-1.917l1.694.163zm5.142-6.301v1.902c-1.813.164-4.474.164-6.316 0l-.015-1.902c1.813.253 4.741.193 6.331 0z"/><path d="m483.137 115.948c-.401 1.396-1.04 2.557-1.873 3.492.743.49 1.635.862 2.616 1.1-.342.327-.803.967-1.04 1.383-1.055-.312-1.977-.773-2.764-1.383-.758.58-1.605 1.041-2.527 1.383-.163-.342-.49-.832-.788-1.189v1.204h-1.694v-1.204c-1.709.164-3.403.312-4.711.432l-.134-1.517c.386-.029.832-.044 1.293-.089v-4.518h-1.159v-1.397h13.212v1.397h-6.807v5.439c.758-.253 1.486-.609 2.11-1.07-.535-.64-.996-1.383-1.352-2.2l.981-.267h-1.367v-1.353h4.622l.297-.06 1.085.416zm-1.278-2.853h-9.764v-4.562h9.764zm-8.724 1.947v.594h1.932v-.594zm0 2.452h1.932v-.625h-1.932zm0 1.947c.624-.044 1.278-.089 1.932-.148v-.579h-1.932v.728zm6.956-9.78h-6.302v.609h6.302zm0 1.68h-6.302v.624h6.302zm-1.085 5.603c.253.534.594 1.025.996 1.456.401-.431.743-.922 1.011-1.456h-2.006z"/><path d="m488.361 118.564c.58.996 1.62 1.412 3.136 1.472 1.783.074 5.291.029 7.342-.134-.208.416-.461 1.233-.55 1.724-1.843.09-4.994.119-6.807.045-1.769-.074-2.958-.505-3.849-1.649-.594.579-1.204 1.145-1.962 1.783l-.832-1.754c.58-.371 1.248-.861 1.843-1.367v-3.24h-1.665v-1.619h3.344v4.74zm-1.055-6.659c-.416-.728-1.397-1.753-2.229-2.467l1.352-1.011c.832.669 1.858 1.649 2.333 2.363l-1.457 1.114zm3.641-1.456h-1.962v-1.367h3.79v-1.025h1.709v1.025h4.013v1.367h-1.709c-.193.387-.372.729-.535 1.04h1.932v6.376c0 .714-.119 1.1-.594 1.367-.49.238-1.115.253-2.006.253-.045-.342-.193-.803-.342-1.174h-2.318v.445h-1.204v-3.27h1.367v-.817h-1.739v-1.07h1.739v-.772h-2.125v6.599h-1.59v-7.937h1.694c-.074-.327-.208-.684-.372-.98l.253-.06zm3.701 1.04c.134-.312.267-.698.386-1.04h-2.72c.178.342.312.729.357 1.04zm-.119 4.995h-1.605v.817h1.605zm2.036-3.657h-2.214v.772h1.754v1.07h-1.754v.817h1.397v2.586h.594c.164-.015.223-.06.223-.237v-5.009z"/><path d="m507.808 111.98c-.669.179-1.575.372-2.556.506-.698 2.065-1.962 4.622-3.151 6.302l-1.798-.907c1.189-1.441 2.348-3.611 3.002-5.201-.253.015-.505.015-.758.015-.609 0-1.204-.015-1.843-.045l-.134-1.724c.639.074 1.427.104 1.962.104.431 0 .877-.015 1.323-.044.208-.817.372-1.709.401-2.468l2.036.209c-.119.476-.297 1.219-.505 2.006.713-.119 1.397-.282 1.977-.461l.045 1.709zm1.932 1.323c-.045.624-.015 1.233 0 1.888.015.416.045 1.129.089 1.857 1.263.476 2.304 1.219 3.047 1.888l-.981 1.575c-.52-.476-1.189-1.07-1.992-1.561v.134c0 1.367-.743 2.438-2.839 2.438-1.828 0-3.27-.817-3.27-2.438 0-1.441 1.204-2.557 3.255-2.557.342 0 .684.03.996.06-.045-1.1-.119-2.393-.164-3.284h1.858zm-1.62 4.875c-.386-.09-.773-.149-1.189-.149-.847 0-1.397.357-1.397.877 0 .551.461.922 1.263.922.996 0 1.323-.58 1.323-1.367v-.282zm4.147-4.087c-.847-.685-2.526-1.65-3.537-2.096l.951-1.457c1.055.461 2.883 1.457 3.626 1.992z"/><path d="m528.295 119.782v1.739h-13.361v-1.739h5.737v-2.987h-4.028v-1.709h4.028v-2.615h-3.076c-.431.817-.892 1.575-1.382 2.154-.357-.282-1.144-.817-1.59-1.055 1.159-1.249 2.125-3.3 2.631-5.32l1.828.4c-.208.714-.446 1.412-.698 2.096h2.289v-2.675h1.858v2.675h5.009v1.725h-5.009v2.615h4.444v1.709h-4.444v2.987h5.766z"/><path d="m542.451 113.229c-.609 1.932-1.486 3.656-2.556 5.098.431 1.07.907 1.694 1.382 1.694.357 0 .535-.743.609-2.601.401.416 1.026.802 1.501.995-.282 2.75-.877 3.403-2.259 3.403-1.04 0-1.858-.743-2.512-1.962-.758.788-1.59 1.457-2.512 2.021-.268-.387-.907-1.114-1.278-1.456 1.144-.624 2.17-1.442 3.032-2.408-.505-1.679-.832-3.76-1.025-5.989h-4.31v1.591h3.671s-.015.46-.015.668c-.045 3.121-.134 4.444-.476 4.875-.282.387-.58.521-1.025.595-.386.06-1.026.06-1.709.045-.03-.521-.223-1.204-.49-1.65.535.045 1.04.06 1.278.06.208 0 .327-.029.446-.179.149-.208.208-.921.253-2.794h-1.932c-.059 2.17-.372 5.068-1.59 6.882-.312-.342-1.1-.996-1.501-1.204 1.13-1.783 1.234-4.369 1.234-6.302v-4.34h6.064c-.03-.728-.059-1.456-.059-2.199h1.858c-.015.743 0 1.472.03 2.199h2.274c-.55-.445-1.293-.921-1.902-1.293l1.07-1.055c.817.416 1.902 1.1 2.423 1.59l-.713.758h1.546v1.754h-4.592c.134 1.486.342 2.884.594 4.072.58-.996 1.07-2.096 1.427-3.299l1.769.431z"/><path d="m554.112 117.82h-3.567l-.773 2.824h-2.229l3.522-10.998h2.586l3.537 10.998h-2.304l-.773-2.824zm-.475-1.709-.327-1.203c-.342-1.145-.639-2.408-.966-3.597h-.059c-.282 1.203-.609 2.452-.936 3.597l-.327 1.203h2.616z"/><path d="m558.486 109.647h2.2v10.998h-2.2z"/><rect fill="#d9dfe1" height="75.851" rx="5.802" width="193.763" x="605.737" y="77.162"/><path d="m643.117 110.644h3.017c3.359 0 5.439 1.739 5.439 5.454s-2.081 5.544-5.321 5.544h-3.136v-10.998zm2.883 9.229c2.051 0 3.329-1.1 3.329-3.775 0-2.689-1.278-3.7-3.329-3.7h-.684v7.476h.684z"/><path d="m660.498 110.302c-.119.297-.297 1.04-.357 1.308-.208.981-.713 3.924-.713 5.396 0 .282.015.639.059.951.208-.521.446-1.011.654-1.486l.922.713c-.416 1.234-.907 2.824-1.055 3.612-.045.208-.089.534-.089.684.015.163.015.401.03.609l-1.694.118c-.297-1.025-.58-2.823-.58-4.815 0-2.214.446-4.696.609-5.825.059-.416.149-.981.149-1.442l2.066.179zm3.448 7.267c-.119.476-.178.832-.178 1.233 0 .654.565 1.041 2.051 1.041 1.323 0 2.408-.119 3.686-.387l.045 1.991c-.951.179-2.14.298-3.805.298-2.541 0-3.745-.922-3.745-2.423 0-.609.104-1.233.253-1.917l1.694.163zm5.142-6.301v1.902c-1.813.164-4.473.164-6.316 0l-.015-1.902c1.813.253 4.741.193 6.331 0z"/><path d="m684.567 116.945c-.401 1.396-1.04 2.556-1.873 3.492.743.491 1.635.862 2.616 1.1-.342.327-.803.967-1.04 1.383-1.055-.312-1.977-.773-2.764-1.383-.758.58-1.605 1.041-2.527 1.383-.163-.342-.49-.832-.788-1.189v1.204h-1.694v-1.204c-1.709.164-3.403.312-4.711.432l-.134-1.517c.386-.029.832-.044 1.293-.089v-4.518h-1.159v-1.397h13.212v1.397h-6.807v5.439c.758-.253 1.486-.609 2.11-1.07-.535-.64-.996-1.382-1.352-2.2l.981-.267h-1.367v-1.353h4.622l.297-.06 1.085.416zm-1.278-2.853h-9.764v-4.562h9.764zm-8.724 1.947v.594h1.932v-.594zm0 2.452h1.932v-.625h-1.932zm0 1.947c.624-.044 1.278-.089 1.932-.148v-.579h-1.932v.728zm6.955-9.78h-6.302v.609h6.302zm0 1.68h-6.302v.624h6.302zm-1.085 5.604c.253.534.594 1.025.996 1.456.401-.431.743-.922 1.011-1.456h-2.006z"/><path d="m689.791 119.561c.58.996 1.62 1.412 3.136 1.472 1.783.074 5.291.029 7.342-.134-.208.416-.461 1.233-.55 1.724-1.843.09-4.994.119-6.807.045-1.769-.074-2.958-.505-3.849-1.649-.594.579-1.204 1.145-1.962 1.783l-.832-1.754c.58-.371 1.248-.861 1.843-1.367v-3.24h-1.665v-1.619h3.344v4.74zm-1.055-6.658c-.416-.728-1.397-1.753-2.229-2.467l1.352-1.011c.832.669 1.858 1.649 2.333 2.363l-1.457 1.114zm3.641-1.457h-1.962v-1.367h3.79v-1.025h1.709v1.025h4.013v1.367h-1.709c-.193.387-.372.729-.535 1.04h1.932v6.376c0 .714-.119 1.1-.594 1.367-.49.238-1.115.253-2.006.253-.045-.342-.193-.803-.342-1.174h-2.318v.445h-1.204v-3.27h1.367v-.817h-1.739v-1.07h1.739v-.772h-2.125v6.599h-1.59v-7.937h1.694c-.074-.327-.208-.684-.372-.98l.253-.06zm3.701 1.04c.134-.312.267-.698.386-1.04h-2.72c.178.342.312.729.357 1.04zm-.119 4.995h-1.605v.817h1.605zm2.036-3.657h-2.214v.772h1.754v1.07h-1.754v.817h1.397v2.586h.594c.164-.015.223-.06.223-.237v-5.009z"/><path d="m709.238 112.977c-.669.179-1.575.372-2.556.506-.698 2.065-1.962 4.622-3.151 6.302l-1.798-.907c1.189-1.441 2.348-3.611 3.002-5.201-.253.015-.505.015-.758.015-.609 0-1.204-.015-1.843-.045l-.134-1.724c.639.074 1.427.104 1.962.104.431 0 .877-.015 1.323-.044.208-.817.372-1.709.401-2.467l2.036.208c-.119.476-.297 1.218-.505 2.006.713-.119 1.397-.282 1.977-.461l.045 1.709zm1.932 1.323c-.045.624-.015 1.233 0 1.888.015.416.045 1.129.089 1.857 1.263.476 2.304 1.219 3.047 1.888l-.981 1.575c-.52-.476-1.189-1.07-1.992-1.561v.134c0 1.367-.743 2.438-2.839 2.438-1.828 0-3.27-.817-3.27-2.438 0-1.441 1.204-2.557 3.255-2.557.342 0 .684.03.996.06-.045-1.1-.119-2.393-.164-3.284h1.858zm-1.62 4.875c-.386-.09-.773-.148-1.189-.148-.847 0-1.397.356-1.397.876 0 .55.461.922 1.263.922.996 0 1.323-.58 1.323-1.367v-.282zm4.146-4.087c-.847-.685-2.526-1.65-3.537-2.096l.951-1.457c1.055.461 2.883 1.457 3.626 1.992z"/><path d="m729.725 120.779v1.739h-13.361v-1.739h5.737v-2.987h-4.028v-1.709h4.028v-2.615h-3.076c-.431.817-.892 1.575-1.382 2.154-.357-.282-1.144-.817-1.59-1.055 1.159-1.248 2.125-3.3 2.631-5.32l1.828.4c-.208.714-.446 1.412-.698 2.096h2.289v-2.675h1.858v2.675h5.009v1.725h-5.009v2.615h4.444v1.709h-4.444v2.987h5.766z"/><path d="m743.881 114.226c-.609 1.932-1.486 3.656-2.556 5.098.431 1.07.907 1.694 1.382 1.694.357 0 .535-.743.609-2.601.401.416 1.026.802 1.501.995-.282 2.75-.877 3.403-2.259 3.403-1.04 0-1.858-.743-2.512-1.962-.758.788-1.59 1.457-2.512 2.021-.268-.387-.907-1.114-1.278-1.456 1.144-.624 2.17-1.441 3.032-2.408-.505-1.679-.832-3.76-1.025-5.989h-4.31v1.591h3.671s-.015.46-.015.668c-.045 3.121-.134 4.444-.476 4.875-.282.387-.58.521-1.025.595-.386.06-1.026.06-1.709.045-.03-.521-.223-1.204-.49-1.65.535.045 1.04.06 1.278.06.208 0 .327-.029.446-.178.149-.209.208-.922.253-2.795h-1.932c-.059 2.17-.372 5.068-1.59 6.882-.312-.342-1.1-.996-1.501-1.204 1.13-1.783 1.234-4.369 1.234-6.302v-4.34h6.064c-.03-.728-.059-1.456-.059-2.199h1.858c-.015.743 0 1.472.03 2.199h2.274c-.55-.445-1.293-.921-1.902-1.293l1.07-1.055c.817.416 1.902 1.1 2.423 1.59l-.713.758h1.546v1.754h-4.592c.134 1.486.342 2.884.594 4.072.58-.996 1.07-2.096 1.427-3.3l1.769.432z"/><path d="m755.542 118.818h-3.567l-.773 2.824h-2.229l3.522-10.998h2.586l3.537 10.998h-2.304l-.773-2.824zm-.476-1.709-.327-1.203c-.342-1.145-.639-2.408-.966-3.597h-.059c-.282 1.203-.609 2.452-.936 3.597l-.327 1.203h2.616z"/><path d="m759.916 110.644h2.2v10.998h-2.2z"/><rect fill="#d9dfe1" height="75.851" rx="5.802" width="193.763" x="203.468" y="161.941"/><path d="m235.302 193.428h3.641c2.259 0 3.983.654 3.983 2.705 0 1.011-.565 2.051-1.501 2.378v.074c1.189.282 2.066 1.114 2.066 2.601 0 2.215-1.843 3.24-4.265 3.24h-3.924zm3.478 4.474c1.397 0 2.006-.564 2.006-1.441 0-.966-.654-1.353-1.977-1.353h-1.308v2.794h1.278zm.253 4.83c1.501 0 2.318-.535 2.318-1.68 0-1.069-.803-1.516-2.318-1.516h-1.531v3.195h1.531z"/><path d="m252.193 193.086c-.119.297-.297 1.04-.357 1.308-.208.981-.713 3.924-.713 5.396 0 .282.015.639.059.951.208-.521.446-1.011.654-1.486l.921.713c-.416 1.234-.907 2.824-1.055 3.612-.045.208-.089.534-.089.684.015.163.015.4.03.609l-1.694.118c-.297-1.025-.58-2.823-.58-4.815 0-2.214.446-4.696.609-5.825.059-.416.149-.981.149-1.442l2.066.179zm3.448 7.268c-.119.476-.178.832-.178 1.233 0 .654.565 1.041 2.051 1.041 1.323 0 2.408-.119 3.686-.387l.045 1.991c-.951.179-2.14.298-3.805.298-2.541 0-3.745-.922-3.745-2.423 0-.609.104-1.233.253-1.917l1.694.163zm5.142-6.302v1.902c-1.813.164-4.474.164-6.316 0l-.015-1.902c1.813.253 4.741.193 6.331 0z"/><path d="m266.274 196.281c-.312 1.754-.788 3.835-1.531 5.112l-1.709-.639c.728-1.278 1.293-3.166 1.56-4.904l1.679.431zm5.707 7.506c.758 0 .877-.432.996-2.527.431.312 1.219.625 1.739.743-.238 2.676-.758 3.553-2.586 3.553h-2.601c-1.828 0-2.452-.506-2.556-2.141-.862.595-1.798 1.13-2.749 1.591-.268-.401-.803-1.056-1.159-1.397 1.382-.624 2.69-1.427 3.894-2.349v-6.078h1.887v4.488c2.244-2.11 4.028-4.577 5.157-6.955l1.783.698c-1.62 3.106-3.953 6.168-6.941 8.605v.906c0 .758.119.862.877.862h2.259zm-1.308-7.996c-.862-.714-2.378-1.873-3.537-2.675l1.144-1.293c1.204.772 2.705 1.872 3.552 2.526l-1.159 1.441zm4.221 1.055c.936 1.397 1.873 3.211 2.244 4.43l-1.694.861c-.342-1.233-1.263-3.136-2.14-4.532z"/><path d="m288.902 201.276c-.372.758-.832 1.382-1.382 1.902 1.442.401 2.735.802 3.745 1.159l-1.085 1.441c-1.13-.461-2.631-.981-4.31-1.472-1.665.817-3.864 1.204-6.747 1.427-.119-.505-.401-1.129-.669-1.516 1.962-.074 3.567-.253 4.89-.595-.476-.119-.951-.237-1.442-.342l-.163.223-1.709-.534c.372-.476.803-1.056 1.248-1.694h-3.091v-1.427h4.042c.208-.327.401-.64.594-.951h-3.686v-4.162h3.225v-.847h-3.909v-1.531h12.945v1.531h-4.028v.847h3.552v4.162h-6.079c-.178.312-.386.624-.594.951h7.505v1.427h-2.854zm-8.1-3.761h1.56v-1.382h-1.56zm2.006 4.488c.921.193 1.858.416 2.764.654.55-.371 1.011-.832 1.367-1.382h-3.626zm1.219-7.267h1.679v-.847h-1.679zm1.679 2.779v-1.382h-1.679v1.382zm1.665-1.382v1.382h1.783v-1.382z"/><path d="m300.933 195.761c-.669.179-1.575.372-2.556.506-.698 2.065-1.962 4.622-3.151 6.302l-1.798-.907c1.189-1.441 2.348-3.611 3.002-5.201-.253.015-.505.015-.758.015-.609 0-1.204-.015-1.843-.045l-.134-1.724c.639.074 1.427.104 1.962.104.431 0 .877-.015 1.323-.044.208-.817.372-1.709.401-2.468l2.036.209c-.119.476-.297 1.219-.505 2.006.713-.119 1.397-.282 1.977-.461l.045 1.709zm1.932 1.323c-.045.624-.015 1.233 0 1.888.015.416.045 1.129.089 1.857 1.263.476 2.304 1.219 3.047 1.888l-.981 1.575c-.52-.476-1.189-1.07-1.992-1.561v.134c0 1.367-.743 2.438-2.839 2.438-1.828 0-3.27-.817-3.27-2.438 0-1.441 1.204-2.557 3.255-2.557.342 0 .684.03.996.06-.045-1.1-.119-2.393-.164-3.284h1.858zm-1.62 4.875c-.386-.09-.773-.149-1.189-.149-.847 0-1.397.357-1.397.877 0 .551.461.922 1.263.922.996 0 1.323-.58 1.323-1.367v-.282zm4.146-4.087c-.847-.685-2.526-1.65-3.537-2.096l.951-1.457c1.055.461 2.883 1.457 3.626 1.992z"/><path d="m312.963 198.139-1.085 1.665c-.847-.58-2.378-1.59-3.388-2.11l1.085-1.649c.996.535 2.631 1.561 3.389 2.095zm1.204 3.404c2.527-1.412 4.592-3.448 5.781-5.573l1.144 2.021c-1.382 2.051-3.478 3.938-5.915 5.336-1.516.862-3.641 1.604-4.964 1.843l-1.115-1.962c1.665-.282 3.448-.788 5.068-1.664zm1.085-6.763-1.115 1.649c-.832-.579-2.378-1.59-3.359-2.14l1.085-1.635c.981.55 2.616 1.59 3.389 2.125z"/><path d="m334.536 194.35c-.119.163-.386.624-.52.921-.505 1.159-1.338 2.75-2.333 4.087 1.471 1.278 3.27 3.181 4.147 4.251l-1.694 1.472c-.966-1.338-2.348-2.854-3.745-4.206-1.575 1.664-3.552 3.21-5.588 4.176l-1.531-1.604c2.393-.907 4.696-2.705 6.094-4.266.981-1.115 1.887-2.586 2.214-3.642h-5.038c-.624 0-1.442.09-1.754.104v-2.11c.401.06 1.308.104 1.754.104h5.231c.654 0 1.248-.089 1.546-.193l1.219.907z"/><path d="m349.435 196.921c.312 0 .951-.03 1.352-.09v1.933c-.371-.03-.936-.045-1.352-.045h-3.582c-.089 1.531-.416 2.779-.951 3.819-.52 1.025-1.665 2.185-2.987 2.854l-1.739-1.263c1.055-.401 2.095-1.264 2.69-2.126.609-.921.862-2.036.922-3.284h-4.087c-.431 0-1.011.029-1.427.06v-1.947c.446.045.966.09 1.427.09h9.735zm-7.832-2.036c-.52 0-1.144.029-1.59.059v-1.917c.476.074 1.085.104 1.575.104h5.975c.505 0 1.1-.03 1.605-.104v1.917c-.52-.029-1.085-.059-1.605-.059z"/><path d="m364.037 205.095c-.193-.506-.431-1.115-.698-1.754-2.422.282-6.926.758-8.798.951-.372.045-.921.119-1.397.179l-.342-2.17c.505 0 1.144 0 1.635-.015l.401-.016c.862-2.199 2.14-6.271 2.571-7.817.208-.758.297-1.219.357-1.709l2.363.476c-.208.446-.416.996-.639 1.649-.476 1.457-1.679 5.231-2.422 7.224 1.813-.179 3.924-.416 5.425-.595-.52-1.07-1.07-2.065-1.56-2.72l1.858-.758c1.055 1.604 2.571 4.518 3.255 6.183l-2.006.892z"/><rect fill="#d9dfe1" height="75.851" rx="5.802" width="193.763" y="161.941"/><path d="m37.289 201.602h-3.567l-.773 2.824h-2.229l3.522-10.998h2.586l3.537 10.998h-2.304l-.773-2.824zm-.476-1.709-.327-1.203c-.342-1.145-.639-2.408-.966-3.597h-.059c-.282 1.203-.609 2.452-.936 3.597l-.327 1.203h2.616z"/><path d="m48.427 193.086c-.119.297-.297 1.04-.357 1.308-.208.981-.713 3.924-.713 5.396 0 .282.015.639.059.951.208-.521.446-1.011.654-1.486l.921.713c-.416 1.234-.907 2.824-1.055 3.612-.045.208-.089.534-.089.684.015.163.015.4.03.609l-1.694.118c-.297-1.025-.58-2.823-.58-4.815 0-2.214.446-4.696.609-5.825.059-.416.149-.981.149-1.442l2.066.179zm3.448 7.268c-.119.476-.178.832-.178 1.233 0 .654.565 1.041 2.051 1.041 1.323 0 2.408-.119 3.686-.387l.045 1.991c-.951.179-2.14.298-3.805.298-2.541 0-3.745-.922-3.745-2.423 0-.609.104-1.233.253-1.917l1.694.163zm5.142-6.302v1.902c-1.813.164-4.473.164-6.316 0l-.015-1.902c1.813.253 4.741.193 6.331 0z"/><path d="m62.508 196.281c-.312 1.754-.788 3.835-1.531 5.112l-1.709-.639c.728-1.278 1.293-3.166 1.561-4.904zm5.707 7.506c.758 0 .877-.432.996-2.527.431.312 1.219.625 1.739.743-.238 2.676-.758 3.553-2.586 3.553h-2.601c-1.828 0-2.452-.506-2.556-2.141-.862.595-1.798 1.13-2.75 1.591-.267-.401-.802-1.056-1.159-1.397 1.382-.624 2.69-1.427 3.894-2.349v-6.078h1.888v4.488c2.244-2.11 4.028-4.577 5.157-6.955l1.783.698c-1.62 3.106-3.953 6.168-6.941 8.605v.906c0 .758.119.862.877.862h2.259zm-1.307-7.996c-.862-.714-2.378-1.873-3.537-2.675l1.144-1.293c1.204.772 2.705 1.872 3.552 2.526l-1.159 1.441zm4.22 1.055c.936 1.397 1.873 3.211 2.244 4.43l-1.694.861c-.342-1.233-1.263-3.136-2.14-4.532z"/><path d="m85.136 201.276c-.372.758-.832 1.382-1.382 1.902 1.442.401 2.735.802 3.745 1.159l-1.085 1.441c-1.13-.461-2.631-.981-4.31-1.472-1.665.817-3.864 1.204-6.747 1.427-.119-.505-.401-1.129-.669-1.516 1.962-.074 3.567-.253 4.89-.595-.476-.119-.951-.237-1.442-.342l-.164.223-1.709-.534c.372-.476.803-1.056 1.248-1.694h-3.091v-1.427h4.042c.208-.327.401-.64.594-.951h-3.686v-4.162h3.225v-.847h-3.909v-1.531h12.945v1.531h-4.028v.847h3.552v4.162h-6.079c-.178.312-.386.624-.594.951h7.505v1.427h-2.854zm-8.1-3.761h1.561v-1.382h-1.561zm2.006 4.488c.922.193 1.858.416 2.764.654.55-.371 1.011-.832 1.367-1.382h-3.626zm1.219-7.267h1.679v-.847h-1.679zm1.679 2.779v-1.382h-1.679v1.382zm1.665-1.382v1.382h1.783v-1.382z"/><path d="m97.167 195.761c-.669.179-1.575.372-2.556.506-.698 2.065-1.962 4.622-3.151 6.302l-1.798-.907c1.189-1.441 2.348-3.611 3.002-5.201-.253.015-.505.015-.758.015-.609 0-1.204-.015-1.843-.045l-.134-1.724c.639.074 1.427.104 1.962.104.431 0 .877-.015 1.323-.044.208-.817.372-1.709.401-2.468l2.036.209c-.119.476-.297 1.219-.505 2.006.713-.119 1.397-.282 1.977-.461l.045 1.709zm1.932 1.323c-.045.624-.015 1.233 0 1.888.015.416.045 1.129.089 1.857 1.263.476 2.304 1.219 3.047 1.888l-.981 1.575c-.52-.476-1.189-1.07-1.991-1.561v.134c0 1.367-.743 2.438-2.839 2.438-1.828 0-3.27-.817-3.27-2.438 0-1.441 1.204-2.557 3.255-2.557.342 0 .684.03.996.06-.045-1.1-.119-2.393-.163-3.284h1.858zm-1.62 4.875c-.386-.09-.773-.149-1.189-.149-.847 0-1.397.357-1.397.877 0 .551.461.922 1.263.922.996 0 1.323-.58 1.323-1.367v-.282zm4.146-4.087c-.847-.685-2.527-1.65-3.537-2.096l.951-1.457c1.055.461 2.883 1.457 3.626 1.992z"/><path d="m109.197 198.139-1.085 1.665c-.847-.58-2.378-1.59-3.389-2.11l1.085-1.649c.996.535 2.631 1.561 3.389 2.095zm1.204 3.404c2.527-1.412 4.592-3.448 5.781-5.573l1.144 2.021c-1.382 2.051-3.478 3.938-5.915 5.336-1.516.862-3.641 1.604-4.964 1.843l-1.115-1.962c1.665-.282 3.448-.788 5.068-1.664zm1.085-6.763-1.115 1.649c-.832-.579-2.378-1.59-3.359-2.14l1.085-1.635c.981.55 2.616 1.59 3.389 2.125z"/><path d="m130.77 194.35c-.119.163-.386.624-.52.921-.505 1.159-1.338 2.75-2.333 4.087 1.471 1.278 3.27 3.181 4.146 4.251l-1.694 1.472c-.966-1.338-2.348-2.854-3.745-4.206-1.575 1.664-3.552 3.21-5.588 4.176l-1.531-1.604c2.393-.907 4.696-2.705 6.093-4.266.981-1.115 1.887-2.586 2.214-3.642h-5.038c-.624 0-1.442.09-1.754.104v-2.11c.401.06 1.308.104 1.754.104h5.231c.654 0 1.248-.089 1.546-.193l1.219.907z"/><path d="m145.669 196.921c.312 0 .951-.03 1.352-.09v1.933c-.372-.03-.936-.045-1.352-.045h-3.582c-.089 1.531-.416 2.779-.951 3.819-.52 1.025-1.665 2.185-2.987 2.854l-1.739-1.263c1.055-.401 2.096-1.264 2.69-2.126.609-.921.862-2.036.921-3.284h-4.087c-.431 0-1.011.029-1.427.06v-1.947c.446.045.966.09 1.427.09h9.735zm-7.832-2.036c-.52 0-1.144.029-1.59.059v-1.917c.476.074 1.085.104 1.575.104h5.975c.505 0 1.1-.03 1.605-.104v1.917c-.52-.029-1.085-.059-1.605-.059z"/><path d="m160.271 205.095c-.193-.506-.431-1.115-.698-1.754-2.423.282-6.926.758-8.798.951-.372.045-.922.119-1.397.179l-.342-2.17c.505 0 1.144 0 1.635-.015l.401-.016c.862-2.199 2.14-6.271 2.571-7.817.208-.758.297-1.219.357-1.709l2.363.476c-.208.446-.416.996-.639 1.649-.476 1.457-1.679 5.231-2.423 7.224 1.813-.179 3.924-.416 5.425-.595-.52-1.07-1.07-2.065-1.561-2.72l1.858-.758c1.055 1.604 2.571 4.518 3.255 6.183l-2.006.892z"/><rect fill="#d9dfe1" height="75.851" rx="5.802" width="193.763" x="404.732" y="161.941"/><path d="m436.194 198.972c0-3.627 2.333-5.752 5.113-5.752 1.397 0 2.512.669 3.225 1.412l-1.159 1.396c-.55-.534-1.189-.921-2.021-.921-1.665 0-2.913 1.427-2.913 3.79 0 2.393 1.13 3.834 2.868 3.834.936 0 1.679-.445 2.274-1.085l1.159 1.367c-.907 1.056-2.081 1.62-3.507 1.62-2.779 0-5.038-1.991-5.038-5.662z"/><path d="m453.277 193.086c-.119.297-.297 1.04-.357 1.308-.208.981-.713 3.924-.713 5.396 0 .282.015.639.059.951.208-.521.446-1.011.654-1.486l.922.713c-.416 1.234-.907 2.824-1.055 3.612-.045.208-.089.534-.089.684.015.163.015.4.03.609l-1.694.118c-.297-1.025-.58-2.823-.58-4.815 0-2.214.446-4.696.609-5.825.059-.416.149-.981.149-1.442l2.066.179zm3.448 7.268c-.119.476-.178.832-.178 1.233 0 .654.565 1.041 2.051 1.041 1.323 0 2.408-.119 3.686-.387l.045 1.991c-.951.179-2.14.298-3.805.298-2.541 0-3.745-.922-3.745-2.423 0-.609.104-1.233.253-1.917l1.694.163zm5.142-6.302v1.902c-1.813.164-4.473.164-6.316 0l-.015-1.902c1.813.253 4.741.193 6.331 0z"/><path d="m467.359 196.281c-.312 1.754-.788 3.835-1.531 5.112l-1.709-.639c.728-1.278 1.293-3.166 1.56-4.904l1.679.431zm5.707 7.506c.758 0 .877-.432.996-2.527.431.312 1.219.625 1.739.743-.238 2.676-.758 3.553-2.586 3.553h-2.601c-1.828 0-2.452-.506-2.556-2.141-.862.595-1.798 1.13-2.749 1.591-.268-.401-.803-1.056-1.159-1.397 1.382-.624 2.69-1.427 3.894-2.349v-6.078h1.887v4.488c2.244-2.11 4.028-4.577 5.157-6.955l1.783.698c-1.62 3.106-3.953 6.168-6.941 8.605v.906c0 .758.119.862.877.862h2.259zm-1.308-7.996c-.862-.714-2.378-1.873-3.537-2.675l1.144-1.293c1.204.772 2.705 1.872 3.552 2.526l-1.159 1.441zm4.221 1.055c.936 1.397 1.873 3.211 2.244 4.43l-1.694.861c-.342-1.233-1.263-3.136-2.14-4.532z"/><path d="m489.986 201.276c-.372.758-.832 1.382-1.382 1.902 1.442.401 2.735.802 3.745 1.159l-1.085 1.441c-1.13-.461-2.631-.981-4.31-1.472-1.665.817-3.864 1.204-6.747 1.427-.119-.505-.401-1.129-.669-1.516 1.962-.074 3.567-.253 4.89-.595-.476-.119-.951-.237-1.442-.342l-.164.223-1.709-.534c.372-.476.803-1.056 1.248-1.694h-3.091v-1.427h4.042c.208-.327.401-.64.594-.951h-3.686v-4.162h3.225v-.847h-3.909v-1.531h12.945v1.531h-4.028v.847h3.552v4.162h-6.079c-.178.312-.386.624-.594.951h7.505v1.427h-2.854zm-8.1-3.761h1.561v-1.382h-1.561zm2.007 4.488c.922.193 1.858.416 2.764.654.55-.371 1.011-.832 1.367-1.382h-3.626zm1.219-7.267h1.679v-.847h-1.679zm1.679 2.779v-1.382h-1.679v1.382zm1.665-1.382v1.382h1.783v-1.382z"/><path d="m502.017 195.761c-.669.179-1.575.372-2.556.506-.698 2.065-1.962 4.622-3.151 6.302l-1.798-.907c1.189-1.441 2.348-3.611 3.002-5.201-.253.015-.505.015-.758.015-.609 0-1.204-.015-1.843-.045l-.134-1.724c.639.074 1.427.104 1.962.104.431 0 .877-.015 1.323-.044.208-.817.372-1.709.401-2.468l2.036.209c-.119.476-.297 1.219-.505 2.006.713-.119 1.397-.282 1.977-.461l.045 1.709zm1.932 1.323c-.045.624-.015 1.233 0 1.888.015.416.045 1.129.089 1.857 1.263.476 2.304 1.219 3.047 1.888l-.981 1.575c-.52-.476-1.189-1.07-1.992-1.561v.134c0 1.367-.743 2.438-2.839 2.438-1.828 0-3.27-.817-3.27-2.438 0-1.441 1.204-2.557 3.255-2.557.342 0 .684.03.996.06-.045-1.1-.119-2.393-.164-3.284h1.858zm-1.62 4.875c-.386-.09-.773-.149-1.189-.149-.847 0-1.397.357-1.397.877 0 .551.461.922 1.263.922.996 0 1.323-.58 1.323-1.367v-.282zm4.147-4.087c-.847-.685-2.526-1.65-3.537-2.096l.951-1.457c1.055.461 2.883 1.457 3.626 1.992z"/><path d="m514.048 198.139-1.085 1.665c-.847-.58-2.378-1.59-3.389-2.11l1.085-1.649c.996.535 2.631 1.561 3.389 2.095zm1.204 3.404c2.526-1.412 4.592-3.448 5.781-5.573l1.144 2.021c-1.382 2.051-3.478 3.938-5.915 5.336-1.516.862-3.641 1.604-4.964 1.843l-1.115-1.962c1.665-.282 3.448-.788 5.068-1.664zm1.085-6.763-1.115 1.649c-.832-.579-2.378-1.59-3.359-2.14l1.085-1.635c.981.55 2.616 1.59 3.389 2.125z"/><path d="m535.62 194.35c-.119.163-.386.624-.52.921-.505 1.159-1.338 2.75-2.333 4.087 1.471 1.278 3.27 3.181 4.147 4.251l-1.694 1.472c-.966-1.338-2.348-2.854-3.745-4.206-1.575 1.664-3.552 3.21-5.588 4.176l-1.531-1.604c2.393-.907 4.696-2.705 6.094-4.266.981-1.115 1.887-2.586 2.214-3.642h-5.038c-.624 0-1.442.09-1.754.104v-2.11c.401.06 1.308.104 1.754.104h5.231c.654 0 1.248-.089 1.546-.193l1.219.907z"/><path d="m550.519 196.921c.312 0 .951-.03 1.352-.09v1.933c-.371-.03-.936-.045-1.352-.045h-3.582c-.089 1.531-.416 2.779-.951 3.819-.52 1.025-1.665 2.185-2.987 2.854l-1.739-1.263c1.055-.401 2.095-1.264 2.69-2.126.609-.921.862-2.036.922-3.284h-4.087c-.431 0-1.011.029-1.427.06v-1.947c.446.045.966.09 1.427.09h9.735zm-7.832-2.036c-.52 0-1.144.029-1.59.059v-1.917c.476.074 1.085.104 1.575.104h5.975c.505 0 1.1-.03 1.605-.104v1.917c-.52-.029-1.085-.059-1.605-.059z"/><path d="m565.121 205.095c-.193-.506-.431-1.115-.698-1.754-2.422.282-6.926.758-8.798.951-.372.045-.921.119-1.397.179l-.342-2.17c.505 0 1.144 0 1.635-.015l.401-.016c.862-2.199 2.14-6.271 2.571-7.817.208-.758.297-1.219.357-1.709l2.363.476c-.208.446-.416.996-.639 1.649-.476 1.457-1.679 5.231-2.422 7.224 1.813-.179 3.924-.416 5.425-.595-.52-1.07-1.07-2.065-1.56-2.72l1.858-.758c1.055 1.604 2.571 4.518 3.255 6.183l-2.006.892z"/><rect fill="#d9dfe1" height="75.851" rx="5.802" width="193.763" x="605.737" y="161.941"/><path d="m637.355 193.428h3.017c3.359 0 5.439 1.739 5.439 5.454s-2.081 5.544-5.321 5.544h-3.136v-10.998zm2.883 9.229c2.051 0 3.329-1.1 3.329-3.775 0-2.689-1.278-3.7-3.329-3.7h-.684v7.476h.684z"/><path d="m654.736 193.086c-.119.297-.297 1.04-.357 1.308-.208.981-.713 3.924-.713 5.396 0 .282.015.639.059.951.208-.521.446-1.011.654-1.486l.922.713c-.416 1.234-.907 2.824-1.055 3.612-.045.208-.089.534-.089.684.015.163.015.4.03.609l-1.694.118c-.297-1.025-.58-2.823-.58-4.815 0-2.214.446-4.696.609-5.825.059-.416.149-.981.149-1.442l2.066.179zm3.448 7.268c-.119.476-.178.832-.178 1.233 0 .654.565 1.041 2.051 1.041 1.323 0 2.408-.119 3.686-.387l.045 1.991c-.951.179-2.14.298-3.805.298-2.541 0-3.745-.922-3.745-2.423 0-.609.104-1.233.253-1.917l1.694.163zm5.142-6.302v1.902c-1.813.164-4.473.164-6.316 0l-.015-1.902c1.813.253 4.741.193 6.331 0z"/><path d="m668.817 196.281c-.312 1.754-.788 3.835-1.531 5.112l-1.709-.639c.728-1.278 1.293-3.166 1.56-4.904l1.679.431zm5.707 7.506c.758 0 .877-.432.996-2.527.431.312 1.219.625 1.739.743-.238 2.676-.758 3.553-2.586 3.553h-2.601c-1.828 0-2.452-.506-2.556-2.141-.862.595-1.798 1.13-2.749 1.591-.268-.401-.803-1.056-1.159-1.397 1.382-.624 2.69-1.427 3.894-2.349v-6.078h1.887v4.488c2.244-2.11 4.028-4.577 5.157-6.955l1.783.698c-1.62 3.106-3.953 6.168-6.941 8.605v.906c0 .758.119.862.877.862h2.259zm-1.307-7.996c-.862-.714-2.378-1.873-3.537-2.675l1.144-1.293c1.204.772 2.705 1.872 3.552 2.526l-1.159 1.441zm4.22 1.055c.936 1.397 1.873 3.211 2.244 4.43l-1.694.861c-.342-1.233-1.263-3.136-2.14-4.532z"/><path d="m691.445 201.276c-.372.758-.832 1.382-1.382 1.902 1.442.401 2.735.802 3.745 1.159l-1.085 1.441c-1.13-.461-2.631-.981-4.31-1.472-1.665.817-3.864 1.204-6.747 1.427-.119-.505-.401-1.129-.669-1.516 1.962-.074 3.567-.253 4.89-.595-.476-.119-.951-.237-1.442-.342l-.164.223-1.709-.534c.372-.476.803-1.056 1.248-1.694h-3.091v-1.427h4.042c.208-.327.401-.64.594-.951h-3.686v-4.162h3.225v-.847h-3.909v-1.531h12.945v1.531h-4.028v.847h3.552v4.162h-6.079c-.178.312-.386.624-.594.951h7.505v1.427h-2.854zm-8.1-3.761h1.561v-1.382h-1.561zm2.006 4.488c.922.193 1.858.416 2.764.654.55-.371 1.011-.832 1.367-1.382h-3.626zm1.219-7.267h1.679v-.847h-1.679zm1.68 2.779v-1.382h-1.679v1.382zm1.664-1.382v1.382h1.783v-1.382z"/><path d="m703.476 195.761c-.669.179-1.575.372-2.556.506-.698 2.065-1.962 4.622-3.151 6.302l-1.798-.907c1.189-1.441 2.348-3.611 3.002-5.201-.253.015-.505.015-.758.015-.609 0-1.204-.015-1.843-.045l-.134-1.724c.639.074 1.427.104 1.962.104.431 0 .877-.015 1.323-.044.208-.817.372-1.709.401-2.468l2.036.209c-.119.476-.297 1.219-.505 2.006.713-.119 1.397-.282 1.977-.461l.045 1.709zm1.932 1.323c-.045.624-.015 1.233 0 1.888.015.416.045 1.129.089 1.857 1.263.476 2.304 1.219 3.047 1.888l-.981 1.575c-.52-.476-1.189-1.07-1.992-1.561v.134c0 1.367-.743 2.438-2.839 2.438-1.828 0-3.27-.817-3.27-2.438 0-1.441 1.204-2.557 3.255-2.557.342 0 .684.03.996.06-.045-1.1-.119-2.393-.164-3.284h1.858zm-1.62 4.875c-.386-.09-.773-.149-1.189-.149-.847 0-1.397.357-1.397.877 0 .551.461.922 1.263.922.996 0 1.323-.58 1.323-1.367v-.282zm4.146-4.087c-.847-.685-2.526-1.65-3.537-2.096l.951-1.457c1.055.461 2.883 1.457 3.626 1.992z"/><path d="m715.506 198.139-1.085 1.665c-.847-.58-2.378-1.59-3.389-2.11l1.085-1.649c.996.535 2.631 1.561 3.389 2.095zm1.204 3.404c2.526-1.412 4.592-3.448 5.781-5.573l1.144 2.021c-1.382 2.051-3.478 3.938-5.915 5.336-1.516.862-3.641 1.604-4.964 1.843l-1.115-1.962c1.665-.282 3.448-.788 5.068-1.664zm1.085-6.763-1.115 1.649c-.832-.579-2.378-1.59-3.359-2.14l1.085-1.635c.981.55 2.616 1.59 3.389 2.125z"/><path d="m737.078 194.35c-.119.163-.386.624-.52.921-.505 1.159-1.338 2.75-2.333 4.087 1.471 1.278 3.27 3.181 4.147 4.251l-1.694 1.472c-.966-1.338-2.348-2.854-3.745-4.206-1.575 1.664-3.552 3.21-5.588 4.176l-1.531-1.604c2.393-.907 4.696-2.705 6.094-4.266.981-1.115 1.887-2.586 2.214-3.642h-5.038c-.624 0-1.442.09-1.754.104v-2.11c.401.06 1.308.104 1.754.104h5.231c.654 0 1.248-.089 1.546-.193l1.219.907z"/><path d="m751.978 196.921c.312 0 .951-.03 1.352-.09v1.933c-.371-.03-.936-.045-1.352-.045h-3.582c-.089 1.531-.416 2.779-.951 3.819-.52 1.025-1.665 2.185-2.987 2.854l-1.739-1.263c1.055-.401 2.095-1.264 2.69-2.126.609-.921.862-2.036.922-3.284h-4.087c-.431 0-1.011.029-1.427.06v-1.947c.446.045.966.09 1.427.09h9.735zm-7.833-2.036c-.52 0-1.144.029-1.59.059v-1.917c.476.074 1.085.104 1.575.104h5.975c.505 0 1.1-.03 1.605-.104v1.917c-.52-.029-1.085-.059-1.605-.059z"/><path d="m766.579 205.095c-.193-.506-.431-1.115-.698-1.754-2.422.282-6.926.758-8.798.951-.372.045-.921.119-1.397.179l-.342-2.17c.505 0 1.144 0 1.635-.015l.401-.016c.862-2.199 2.14-6.271 2.571-7.817.208-.758.297-1.219.357-1.709l2.363.476c-.208.446-.416.996-.639 1.649-.476 1.457-1.679 5.231-2.422 7.224 1.813-.179 3.924-.416 5.425-.595-.52-1.07-1.07-2.065-1.56-2.72l1.858-.758c1.055 1.604 2.571 4.518 3.255 6.183l-2.006.892z"/><g fill="#005a96"><path d="m599.492 53.101v-37.27c5.003 6.212 10.006 12.423 15.008 18.635-5.003 6.212-10.006 12.423-15.008 18.635z"/><path d="m398.487 53.101v-37.27c5.003 6.212 10.006 12.423 15.008 18.635-5.003 6.212-10.006 12.423-15.008 18.635z"/><path d="m195.758 53.101v-37.27c5.003 6.212 10.006 12.423 15.008 18.635-5.003 6.212-10.006 12.423-15.008 18.635z"/><path d="m800.551 53.101v-37.27c5.003 6.212 10.006 12.423 15.008 18.635-5.003 6.212-10.006 12.423-15.008 18.635z"/></g></svg>