<?xml version="1.0" encoding="UTF-8"?>
<svg id="_レイヤー_1" data-name="レイヤー 1" xmlns="http://www.w3.org/2000/svg" version="1.1" viewBox="0 0 645.4 31.9">
  <defs>
    <style>
      .cls-1 {
        opacity: .5;
      }

      .cls-2 {
        fill: #fff;
        stroke-width: 0px;
      }
    </style>
  </defs>
  <g class="cls-1">
    <path class="cls-2" d="M6.1,7.5H0V.6h19.9v6.9h-6v23.8h-7.8V7.5Z"/>
    <path class="cls-2" d="M24.3.6h10c4.8,0,7.8.9,9.5,2.2,2.6,2,3.7,5,3.7,8.4s-.7,4.2-1.5,5.6c-1,1.6-2.5,2.7-4,3.3l6.4,11.3h-8.1l-8-14.8h1.3c2,0,3.7-.2,4.7-.8,1-.6,1.7-2.1,1.7-3.8s-.8-2.9-1.8-3.6c-.9-.5-2.1-.8-3.2-.8h-2.9v23.8h-7.8V.6Z"/>
    <path class="cls-2" d="M60.2,31.3h-8.5L63.8.6h6.8l11.8,30.7h-8.6l-1.5-4.4h-10.8l-1.4,4.4ZM66.8,9.9l-3.3,10.7h6.8l-3.4-10.7Z"/>
    <path class="cls-2" d="M105.3,19.3l-.2-18.7h7.5v30.7h-6.8l-11.7-18.5.2,18.5h-7.5V.6h6.8l11.8,18.7Z"/>
    <path class="cls-2" d="M126.4,21.1c0,3.6,2.2,4.2,3.2,4.2,1.9,0,3-1.5,3-2.9s-1.3-2.1-6-4.1c-2.2-.9-7.5-3-7.5-8.8S124.7,0,129.8,0s10.2,2.2,10.3,9.5h-7.8c-.2-1-.4-3-2.8-3s-2.7,1-2.7,2.4.8,1.8,6.4,4.3c5.7,2.6,7.2,5.2,7.2,8.8s-2.6,9.8-10.7,9.8-11.3-4.7-11.1-10.8h7.8Z"/>
    <path class="cls-2" d="M146.4.6h16.8v6.9h-8.9v5.2h8.6v6.9h-8.6v11.7h-7.8V.6Z"/>
    <path class="cls-2" d="M167.3,16.3C167.3,6.2,175,0,183.5,0s16.2,7.4,16.2,15.9-6.7,15.9-16.3,15.9-16.1-7.7-16.1-15.6h0ZM175.1,15.9c0,4.7,3.2,9.1,8.5,9.1s8.3-5.1,8.3-9-2.7-9.1-8.3-9.1-8.4,4.6-8.4,9h0Z"/>
    <path class="cls-2" d="M205.6.6h10c4.8,0,7.8.9,9.5,2.2,2.6,2,3.7,5,3.7,8.4s-.7,4.2-1.5,5.6c-1,1.6-2.5,2.7-4,3.3l6.4,11.3h-8.1l-8-14.8h1.3c2,0,3.7-.2,4.7-.8,1-.6,1.7-2.1,1.7-3.8s-.8-2.9-1.8-3.6c-.9-.5-2.1-.8-3.2-.8h-2.9v23.8h-7.8V.6Z"/>
    <path class="cls-2" d="M234.9,31.3V.6h10.5l5.8,19.8,5.6-19.8h10.5v30.7h-7.2l.2-23-6.6,23h-5.2l-6.6-23,.2,23h-7.2Z"/>
    <path class="cls-2" d="M280.2,31.3h-8.5l12.2-30.7h6.8l11.8,30.7h-8.6l-1.5-4.4h-10.8l-1.4,4.4ZM286.9,9.9l-3.3,10.7h6.8l-3.4-10.7Z"/>
    <path class="cls-2" d="M308.5,7.5h-6.1V.6h19.9v6.9h-6v23.8h-7.8V7.5Z"/>
    <path class="cls-2" d="M326.7.6h7.8v30.7h-7.8V.6Z"/>
    <path class="cls-2" d="M340.5,16.3C340.5,6.2,348.2,0,356.7,0s16.2,7.4,16.2,15.9-6.7,15.9-16.3,15.9-16.1-7.7-16.1-15.6h0ZM348.3,15.9c0,4.7,3.2,9.1,8.5,9.1s8.3-5.1,8.3-9-2.7-9.1-8.3-9.1-8.4,4.6-8.4,9h0Z"/>
    <path class="cls-2" d="M397.4,19.3l-.2-18.7h7.5v30.7h-6.8l-11.7-18.5.2,18.5h-7.5V.6h6.8l11.8,18.7Z"/>
    <path class="cls-2" d="M434,.6c5.7,0,7.8.9,9.5,2.2,2.4,2,3.6,5,3.6,8.1s-1.3,6.4-3.2,8.1c-2.1,1.8-4.2,2.7-9,2.7h-3.1v9.6h-7.8V.6h10ZM431.8,14.8h2.9c.7,0,2,0,3-.5,1-.5,1.9-1.4,1.9-3.2s-.9-2.7-2-3.2-2.4-.5-3.2-.5h-2.6v7.3Z"/>
    <path class="cls-2" d="M450.8,16.3C450.8,6.2,458.5,0,467,0s16.2,7.4,16.2,15.9-6.7,15.9-16.3,15.9-16.1-7.7-16.1-15.6h0ZM458.6,15.9c0,4.7,3.2,9.1,8.5,9.1s8.3-5.1,8.3-9-2.7-9.1-8.3-9.1-8.4,4.6-8.4,9h0Z"/>
    <path class="cls-2" d="M489.2.6h7.8v23.8h9.1v6.9h-16.9V.6Z"/>
    <path class="cls-2" d="M510.5.6h7.8v30.7h-7.8V.6Z"/>
    <path class="cls-2" d="M555.9,19.8c-1.8,7.3-8.1,12.1-15.5,12.1s-16.2-7.7-16.2-16S530.2,0,540.3,0s14.8,7.4,15.6,12.2h-8.2c-.9-2.3-3.2-5.4-7.4-5.4s-8.2,4.6-8.2,9,3.2,9.1,8.3,9.1,6.9-4.1,7.4-5.2h8.2Z"/>
    <path class="cls-2" d="M566.3,20.1l-9.2-19.5h8.5l4.6,12.3,4.6-12.3h8.4l-9.1,19.5v11.2h-7.8v-11.2Z"/>
    <path class="cls-2" d="M595.5,11.7C595.5,2.8,602.7,0,607.1,0s11.3,2.6,11.3,11.7v8.6c0,8.6-6.5,11.7-11.3,11.7s-11.6-3-11.6-11.7v-8.6ZM603.3,20.4c0,1.8.6,4.6,3.6,4.6s3.6-3.7,3.6-4.6v-9c0-1,0-4.6-3.6-4.6s-3.6,2.9-3.6,4.6v9Z"/>
    <path class="cls-2" d="M623.7,25.2c2.8-2.3,5.5-4.6,8.3-7,3.2-2.7,5.4-4.6,5.4-7.9s-1.4-3.4-3.3-3.4c-2.7,0-3.1,2.6-3.2,4.9h-7.5c0-2,.2-4.5,1.8-7.1C627.8.6,632.5,0,634.7,0c6.8,0,10.5,4.6,10.5,9.5s-1.1,6.4-5.1,10c-1.9,1.7-3.7,3.4-5.6,5.1h10.9v6.6h-21.7v-6.1Z"/>
  </g>
</svg>