<?xml version="1.0" encoding="UTF-8"?>
<svg id="_レイヤー_1" data-name="レイヤー 1" xmlns="http://www.w3.org/2000/svg" version="1.1" viewBox="0 0 535.7 675.3">
  <defs>
    <style>
      .cls-1 {
        fill: #a0afb5;
      }

      .cls-1, .cls-2, .cls-3, .cls-4 {
        stroke-width: 0px;
      }

      .cls-5 {
        fill: none;
        stroke: #005a96;
        stroke-width: 2.6px;
      }

      .cls-5, .cls-6 {
        stroke-miterlimit: 10;
      }

      .cls-2 {
        fill: #000;
      }

      .cls-3 {
        fill: #005a96;
      }

      .cls-6 {
        stroke: #000;
        stroke-width: 1.4px;
      }

      .cls-6, .cls-4 {
        fill: #fff;
      }
    </style>
  </defs>
  <g>
    <rect class="cls-1" y="218.1" width="208.2" height="52.7" rx="6.6" ry="6.6"/>
    <path class="cls-3" d="M130.4,269.5v141c0,3.6-3,6.6-6.6,6.6h-39.5c-3.6,0-6.6-3-6.6-6.6v-141"/>
    <g>
      <path class="cls-4" d="M55.3,241.6c0,2.5-.2,4.7-.6,6.7-.3,1.8-.8,3.2-1.7,4.6-.1.3-.2.4-.3.4s-.2-.1-.4-.3c-.4-.5-1-.9-1.4-1.2.9-1.3,1.4-2.6,1.7-4.4.4-1.7.5-3.9.5-6.3s0-3.8,0-3.9c0-.2,0-.2.2-.2s.9,0,2.8,0h4.2v-.9c0-.6,0-1.2-.1-1.7.8,0,1.5,0,2.2.1.2,0,.3,0,.3.2s0,.3-.1.4c0,.1-.1.4-.1.9v1h4.2c2,0,2.7,0,2.8,0,.2,0,.2,0,.2.2v1.6c0,.2,0,.3-.2.3s-.8,0-2.8,0h-11.4v2.5ZM65,245c.3-.1.3-.1.4,0,1.5,2.2,3,4.8,4,7,0,.2,0,.3-.2.4l-1.5.8c-.3.1-.4,0-.4-.1-.3-.6-.5-1.3-.8-1.9-2.7.5-6.3,1-9.8,1.4-.3,0-.6.1-.8.2-.1,0-.3.1-.3.1-.1,0-.2,0-.3-.3-.2-.6-.3-1.3-.5-2.2.8,0,1.4,0,2.4,0,1.2-3,1.9-5.4,2.6-8.3.1-.6.2-1.2.3-1.9.8.2,1.7.4,2.3.6.3,0,.4.2.4.4s0,.3-.2.4c-.2.2-.4.5-.5,1.2-.7,2.6-1.5,4.9-2.5,7.4,2.1-.2,4.1-.5,6-.8-.6-1.2-1.3-2.3-2.1-3.4-.1-.2,0-.3.2-.4l1.4-.6Z"/>
      <path class="cls-4" d="M80.2,240.4c1.8,0,2.4,0,2.5,0,.2,0,.3,0,.3.2v1.2c0,.2,0,.2-.3.2s-.7,0-2.5,0h-1v1h.7c1.6,0,2.2,0,2.3,0,.2,0,.3,0,.3.2s0,.6,0,1.7v2.2c0,1.1,0,1.6,0,1.7,0,.2,0,.2-.3.2s-.7,0-2.3,0h-.7v1h1.2c1.8,0,2.5,0,2.6,0,.2,0,.3,0,.3.3v1.1c0,.2,0,.2-.3.2s-.8,0-2.6,0h-1.2c0,1.3,0,2,0,2.1,0,.2,0,.2-.2.2h-1.5c-.2,0-.2,0-.2-.2s0-.7,0-2.1h-1.4c-1.8,0-2.5,0-2.6,0-.2,0-.2,0-.2-.2v-1.1c0-.2,0-.3.2-.3s.8,0,2.6,0h1.4v-1h-.6c-1.7,0-2.2,0-2.3,0-.2,0-.2,0-.2-.2s0-.6,0-1.7v-2.2c0-1.1,0-1.5,0-1.7s0-.2.2-.2.7,0,2.3,0h.6v-1h-1.2c-1.8,0-2.4,0-2.5,0-.2,0-.2,0-.2-.2v-1.2c0-.2,0-.2.2-.2s.7,0,2.5,0h1.1c0-.5,0-.9-.1-1.4.5,0,.9,0,1.3,0-.2-.6-.4-1-.6-1.5h-1.5c-.4.6-.9,1.3-1.6,1.9-.3.2-.4.4-.5.4s-.2-.1-.5-.4c-.3-.4-.6-.6-.9-.8,1.1-1,2-2,2.6-3.3.2-.4.3-.7.4-1.1.6,0,1.4.2,1.8.3.2,0,.3.1.3.3s0,.2-.2.3c-.1.1-.2.2-.3.5,0,.1-.1.3-.2.4h2.1c1.8,0,2.3,0,2.4,0,.2,0,.3,0,.3.2v1.2c0,.2,0,.2-.3.2s-.6,0-1.9,0c.2.3.4.6.5,1.1,0,.2,0,.3-.2.3l-1,.2c0,0,.1.1.1.2,0,.1,0,.3-.1.4,0,.1,0,.3-.1.6h1ZM77.3,245.3v-1.1h-1.4v1.1h1.4ZM77.3,247.6v-1.2h-1.4v1.2h1.4ZM79.1,244.2v1.1h1.5v-1.1h-1.5ZM80.6,246.4h-1.5v1.2h1.5v-1.2ZM84.6,237.6c-.3.5-.7,1.1-1.2,1.6-.2.3-.3.4-.5.4s-.3-.1-.5-.4c-.3-.3-.7-.5-1-.7,1-1,1.7-2.1,2.2-3.2.1-.3.2-.6.3-1,.6,0,1.3.2,1.8.3.2,0,.3.1.3.3s0,.2-.2.3c-.1.1-.2.2-.3.5v.3c-.1,0,3,0,3,0,2.1,0,2.9,0,3,0,.2,0,.2,0,.2.2v1.2c0,.2,0,.2-.2.2s-.9,0-3,0h-.4c.3.4.5.9.7,1.4,0,.2,0,.3-.2.3l-1.4.2c-.3,0-.3,0-.4-.2-.2-.6-.4-1.1-.7-1.7h-1.6ZM85.8,250.1c0,.5,0,.7.2.9.2.2.7.3,1.8.3s1.8-.2,2-.5c.2-.2.3-.6.3-2,.3.2.8.4,1.4.6.5.1.5.2.5.8-.1,1.2-.4,1.9-.8,2.3-.6.6-1.5.8-3.8.8s-2.7-.1-3.2-.5c-.4-.3-.5-.8-.5-1.7v-8c0-1.7,0-2.5,0-2.7,0-.2,0-.2.2-.2s.9,0,2.4,0h2.5c1.5,0,1.9,0,2.1,0,.2,0,.3,0,.3.3,0,.5,0,.9,0,1.4,0,2.5-.1,3.9-.2,4.9,0,.6-.4,1.3-1,1.5-.4.2-1,.2-2,.3q-.6,0-.7-.6c-.1-.6-.3-1.1-.4-1.5.5,0,.9.1,1.5.1s.6-.1.6-.5c.1-.9.1-1.9.1-4h-3.2v8.1Z"/>
      <path class="cls-4" d="M104.7,238.1c.2,0,.3,0,.3.2.1.5.2,1.2.2,1.7,0,.2,0,.2-.3.3-1.1.2-2.2.4-3.5.6-1.3,3.5-2.6,6.4-4.1,9,0,.1-.1.2-.2.2s-.1,0-.3-.1c-.5-.3-1.1-.7-1.4-1.1-.1,0-.1-.1-.1-.2s0-.1.1-.3c1.6-2.6,2.7-4.8,3.6-7.3-.8,0-1.4,0-2.1,0s-.6,0-1.2,0c-.2,0-.3,0-.3-.3-.1-.4-.2-1.1-.2-1.8.9,0,1.3,0,1.9,0s1.4,0,2.4-.1c.3-.9.4-1.6.5-2.3.1-.7.1-1,.1-1.7.9.1,1.8.3,2.4.4.2,0,.3.2.3.3s0,.3-.2.4c-.1.2-.2.4-.3.8-.1.5-.3,1.2-.5,1.8.8,0,1.8-.3,2.6-.5ZM105.3,243.7c0-.6,0-.9-.2-1.5,1,.1,1.6.2,2.3.4.2,0,.3.1.3.3s0,.2-.1.4c0,.3-.1.5,0,.9,0,1.2,0,2.1.2,3.6,1.5.6,2.5,1.1,3.8,1.9.2.1.2.2.1.4-.3.6-.6,1.2-1,1.7,0,.1-.1.1-.2.1s-.1,0-.2-.1c-.9-.8-1.7-1.3-2.6-1.8,0,2.1-1.5,3.1-3.9,3.1s-3.8-1.2-3.8-3,1.5-3.1,3.9-3.1,1,0,1.7.1c-.1-1.3-.2-2.6-.2-3.6ZM103.8,249c-1,0-1.9.4-1.9,1.2s.6,1,1.8,1,1.8-.6,1.8-1.5,0-.3,0-.4c-.5-.2-1.1-.3-1.7-.3ZM107.7,238.9c.1-.2.2-.2.4-.1,1.2.3,2.9,1.2,4.1,2,.1,0,.2.1.2.2s0,.1,0,.3c-.2.5-.6,1.1-.9,1.5,0,.1-.1.1-.2.1s-.1,0-.2,0c-1.2-.8-2.7-1.8-4.3-2.3.4-.6.7-1.3.9-1.6Z"/>
      <path class="cls-4" d="M121.8,244.6c0,.1,0,.2,0,.3,1,2.1,2.2,3.4,3.9,4.5-.3.4-.7.9-1,1.5-.1.3-.2.4-.3.4s-.2-.1-.4-.3c-1.2-1.2-2-2.2-2.7-3.7-.6,1.9-1.8,3.7-3.6,5.3-.2.2-.3.3-.4.3s-.3-.1-.4-.4c-.3-.5-.7-.9-1.1-1.2,2.3-1.8,3.5-3.6,4-6,0-.3.1-.5.1-.8h-1.1c-1.8,0-2.4,0-2.5,0-.2,0-.3,0-.3-.3v-1.5c0-.2,0-.2.3-.2s.7,0,2.5,0h1.3c0-1,.1-2.1.1-3.2h-1.2c-.3.6-.6,1.1-1,1.7-.2.3-.3.4-.4.4s-.3-.1-.5-.3c-.4-.4-.8-.6-1.2-.8,1.2-1.3,1.9-2.9,2.5-4.6.1-.5.2-.8.2-1.3.7.1,1.3.3,1.9.4.2,0,.4.1.4.3s0,.2-.2.4c-.1.1-.3.3-.4.8-.1.4-.3.8-.4,1.2h2.5c1.8,0,2.4,0,2.6,0,.2,0,.3,0,.3.2v1.5c0,.2,0,.2-.3.2s-.7,0-2.6,0c0,1.1,0,2.2-.1,3.2h.5c1.8,0,2.4,0,2.5,0,.2,0,.2,0,.2.2v1.5c0,.2,0,.3-.2.3s-.7,0-2.5,0h-.7ZM126.2,252.9c-.2,0-.2,0-.2-.2s0-1.3,0-6.3v-4.9c0-3.5,0-4.7,0-4.8s0-.2.2-.2.7,0,2.3,0h2.9c1.6,0,2.2,0,2.3,0,.2,0,.3,0,.3.2s0,1.3,0,4.2v5.4c0,4.9,0,6,0,6.2,0,.2,0,.2-.3.2h-1.7c-.2,0-.2,0-.2-.2v-1.3h-3.6v1.5c0,.2,0,.2-.2.2h-1.7ZM128.2,249.1h3.6v-10.6h-3.6v10.6Z"/>
      <path class="cls-4" d="M149.9,250.4c0,.5.1.6.4.7.3,0,.8.1,1.6.1s1.5,0,1.8-.3c.3-.3.5-.8.5-2.2.4.3,1,.5,1.5.7q.5.2.5.7c-.1,1.5-.4,2-1,2.4-.6.5-1.9.6-3.5.6s-2.6,0-3.2-.3c-.5-.2-.9-.5-.9-1.5v-4.3h-1.9c-.6,3.5-2.8,5.7-6.4,6.4-.2,0-.3,0-.4,0-.2,0-.3-.1-.5-.5-.3-.5-.6-1-1-1.4,3.7-.5,5.6-2,6.1-4.6h0c-2,0-2.7,0-2.8,0-.2,0-.3,0-.3-.2s0-.9,0-2.6v-6.3c0-1.7,0-2.4,0-2.6,0-.2,0-.2.3-.2s.8,0,2.9,0h6.7c2,0,2.7,0,2.9,0,.2,0,.2,0,.2.2s0,.9,0,2.6v6.3c0,1.6,0,2.4,0,2.6,0,.2,0,.2-.2.2s-.9,0-2.9,0h-.4v3.3ZM142.6,237.2v1.5h8.5v-1.5h-8.5ZM151.2,242v-1.5h-8.5v1.5h8.5ZM151.2,243.7h-8.5v1.5h8.5v-1.5Z"/>
    </g>
    <g>
      <path class="cls-4" d="M106.4,313.2c0-.3,0-.6-.1-.9.8,0,1.6,0,2.2.1.2,0,.3.1.3.2s0,.2-.1.3c0,0,0,.1,0,.3h1.7c1.9,0,2.5,0,2.6,0,.2,0,.2,0,.2.2v1.4c0,.2,0,.3-.2.3s-.8,0-2.6,0h-1.7v.3c0,.8,0,1.5,0,2.2s-.3,1.3-.8,1.5c-.4.2-1.1.4-2.8.4s-.6,0-.8-.5c-.1-.7-.4-1.3-.6-1.6.8,0,1.5,0,1.9,0,.6,0,.9-.2.9-.7v-1.8h-9.1c-1.9,0-2.5,0-2.6,0-.2,0-.2,0-.2-.3v-1.4c0-.2,0-.2.2-.2s.8,0,2.6,0h9.1ZM100.1,311.9c-2.1,0-2.8,0-2.9,0-.2,0-.3,0-.3-.2s0-.7,0-1.9v-2.8c0-1.3,0-1.8,0-1.9,0-.2,0-.2.3-.2s.9,0,2.9,0h2.5v-1.1h-5c-1.9,0-2.5,0-2.7,0-.2,0-.2,0-.2-.2v-1.4c0-.2,0-.3.2-.3s.8,0,2.7,0h5c0-.8,0-1.3-.1-1.8.7,0,1.4,0,2.2.1.2,0,.3,0,.3.2s0,.3-.1.4c0,.1-.1.4-.1,1h5.3c1.9,0,2.6,0,2.7,0,.2,0,.2,0,.2.3v1.4c0,.2,0,.2-.2.2s-.8,0-2.7,0h-5.3v1.1h2.8c2.1,0,2.8,0,2.9,0,.2,0,.2,0,.2.2s0,.7,0,1.9v2.8c0,1.2,0,1.8,0,1.9,0,.2,0,.2-.2.2s-.9,0-2.9,0h-7.4ZM100,315.2c.3-.1.3-.1.5,0,.7.7,1.4,1.5,1.9,2.3.1.2,0,.3-.2.4l-1.5.8c-.3.1-.3.2-.4,0-.5-.9-1.2-1.7-1.9-2.4-.2-.2-.1-.3.1-.4l1.4-.7ZM102.6,307.7v-1.2h-3.5v1.2h3.5ZM102.6,310.4v-1.3h-3.5v1.3h3.5ZM104.6,306.5v1.2h3.9v-1.2h-3.9ZM108.5,309.2h-3.9v1.3h3.9v-1.3Z"/>
      <path class="cls-4" d="M100.6,323.1c1.3,0,1.9,0,2,0,.2,0,.2,0,.2.2s0,.8,0,2.1v3.1c0,1.3,0,2,0,2.1,0,.2,0,.2-.2.2s-.7,0-2,0h-3.2v5.9c0,2.8,0,4.2,0,4.4,0,.2,0,.2-.2.2h-1.8c-.2,0-.2,0-.2-.2s0-1.5,0-4.4v-9c0-2.8,0-4.3,0-4.4,0-.2,0-.2.2-.2s.9,0,2.4,0h2.8ZM97.4,324.8v1.5h3.3v-1.5h-3.3ZM100.8,327.7h-3.3v1.5h3.3v-1.5ZM112.3,334.5c0,1.5,0,3.1,0,4.2s-.1,1.5-.6,1.9c-.5.4-1,.6-3.2.6s-.7,0-.8-.7c-.1-.6-.3-1.2-.5-1.6.8,0,1.5.1,2,.1s.9-.2.9-.8v-7.4h-3.2c-1.6,0-2.1,0-2.3,0-.2,0-.3,0-.3-.2s0-.7,0-2v-3.4c0-1.3,0-1.8,0-2,0-.2,0-.2.3-.2s.6,0,2.3,0h2.9c1.6,0,2.2,0,2.3,0,.2,0,.2,0,.2.2s0,1,0,2.7v8.4ZM106.5,324.8v1.5h3.6v-1.5h-3.6ZM110.1,329.2v-1.5h-3.6v1.5h3.6Z"/>
      <path class="cls-4" d="M106.5,344.7c.3-.1.3-.1.4.1,1.4,3.2,3.9,6.1,6.8,7.7-.4.3-.9,1-1.2,1.6-.2.3-.3.5-.4.5s-.2-.1-.4-.3c-.7-.5-1.4-1.1-2-1.7,0,.6,0,1.3,0,2.1,0,2.2-.2,3.9-.5,5.9-.3,1.7-1.1,2.6-3.1,2.6s-.9,0-1.4,0c-.6,0-.6,0-.8-.7-.1-.7-.4-1.3-.6-1.7,1,.1,1.7.2,2.4.2s1.2-.3,1.4-1.3c.2-1.2.4-2.8.4-5.2h-3.7c-.4,4.2-2.5,7.2-6.4,8.9-.2.1-.4.2-.5.2s-.2-.1-.4-.5c-.3-.5-.7-1-1.1-1.3,3.8-1.4,5.7-3.6,6-7.3h-.3c-2,0-2.6,0-2.8,0-.2,0-.2,0-.2-.2v-1.5c-.6.6-1.3,1.2-2,1.7-.2.2-.4.3-.5.3s-.2-.1-.4-.5c-.3-.5-.8-1-1.2-1.3,2.8-1.8,4.9-4.3,6-6.9.2-.4.3-.8.4-1.3.8.2,1.6.5,2.2.7.2.1.3.2.3.4s0,.2-.2.3c-.2.2-.3.4-.5.7-1,2.3-2.3,4-3.8,5.5.3,0,1,0,2.6,0h5.6c1.8,0,2.5,0,2.7,0-1.9-2-3.5-4.2-4.5-6.6,0-.2,0-.3.2-.4l1.5-.6Z"/>
      <path class="cls-4" d="M101.2,377.7c1.8,0,2.4,0,2.5,0,.2,0,.3,0,.3.2v1.4c0,.2,0,.2-.3.2s-.7,0-2.5,0h-.9v2c1.3-.2,2.6-.4,3.9-.7,0,.4-.1.8-.1,1.2q0,.7-.7.8c-2.2.5-4.6.9-7.1,1.3-.4,0-.7.1-.8.2-.1.1-.3.1-.4.1s-.2-.1-.3-.3c-.2-.6-.4-1.4-.5-2,.7,0,1.4,0,2.1-.2.6,0,1.3-.1,2-.3v-2.3h-.9c-1.8,0-2.4,0-2.5,0-.2,0-.2,0-.2-.2v-1.4c0-.2,0-.2.2-.2s.7,0,2.5,0h.9v-1.8h-.8c-1.7,0-2.3,0-2.4,0-.2,0-.2,0-.2-.2s0-.7,0-2.2v-4c0-1.4,0-2,0-2.2,0-.2,0-.2.2-.2s.7,0,2.4,0h3.4c1.7,0,2.3,0,2.4,0,.2,0,.3,0,.3.2s0,.8,0,2.2v4c0,1.4,0,2,0,2.2,0,.2,0,.2-.3.2s-.7,0-2.4,0h-.7v1.8h.9ZM98.4,370.7v-1.8h-1.5v1.8h1.5ZM98.4,374.3v-2h-1.5v2h1.5ZM100.3,368.9v1.8h1.5v-1.8h-1.5ZM101.8,372.3h-1.5v2h1.5v-2ZM106.3,370.1c.2-.2.3-.1.4,0,.5.4.9.8,1.4,1.2.7-.6,1.2-1.4,1.8-2.2h-2.8c-1.7,0-2.2,0-2.3,0-.2,0-.2,0-.2-.2v-1.5c0-.2,0-.2.2-.2s.6,0,2.3,0h3.6c.3,0,.4,0,.5,0,.1,0,.2,0,.3,0s.3.1.8.6c.5.5.6.7.6.9s0,.3-.2.3c-.2.1-.3.3-.6.7-.8,1.1-1.6,2.1-2.5,3,.2.2.3.4.5.6.1.1.1.3,0,.4l-.2.2h1.8c.2,0,.3,0,.4,0,.1,0,.2-.1.3-.1.2,0,.3,0,.8.6.5.5.5.7.5.9s0,.2-.1.3c0,.1-.1.3-.3.6-.5,1-1,1.9-1.6,2.7-.2.3-.3.4-.4.4s-.2,0-.4-.2c-.5-.3-.9-.6-1.3-.7.8-.9,1.2-1.5,1.7-2.5h-1.8v4.8c0,1,0,1.9,0,2.4,0,.9-.1,1.5-.7,1.9-.5.4-1.2.5-2.7.5s-.7,0-.8-.6c-.1-.6-.3-1.1-.6-1.5.7,0,1.2,0,1.9,0s.8-.1.8-.8v-6.8h-.2c-1.8,0-2.4,0-2.5,0-.2,0-.2,0-.2-.2v-1.5c0-.2,0-.3.2-.3s.7,0,2.5,0h.9c-.9-1-1.8-1.9-2.7-2.6-.2-.1-.2-.2,0-.4l1-.8Z"/>
    </g>
  </g>
  <polygon class="cls-1" points="254.8 253.2 254.8 234.4 275.4 243.8 254.8 253.2"/>
  <g>
    <rect class="cls-6" x="313.4" y="217.4" width="134.4" height="52.7"/>
    <g>
      <path class="cls-2" d="M342.2,239h-4.8v-2.8h13v2.8h-4.8v14.2h-3.4v-14.2Z"/>
      <path class="cls-2" d="M374.9,251.9v2.5h-20.7v-2.5h9v-1.8h-6.7v-2.5h6.6v-1.4h-1.7v-4.4h-2.1c-.4,1.9-1.3,3.8-3.6,5-.3-.5-1.3-1.5-1.8-1.9,1.7-.9,2.5-2,2.8-3.1h-2.3v-2.4h2.6v-2.4h-1.8v-2.4h10.4v2.4h-1.6v2.4h2.2v2.4h-2.2v4h2v1.8h6.6v2.5h-6.6v1.8h8.9ZM361.4,239.3v-2.4h-1.9v2.4h1.9ZM369.6,242.8h-2.5v-7.8h2.5v7.8ZM373.9,243.8c0,1.3-.2,1.9-1.1,2.3-.8.4-2,.4-3.6.4-.1-.7-.5-1.7-.8-2.4,1,0,2.1,0,2.5,0,.3,0,.4,0,.4-.4v-9.8h2.6v9.8Z"/>
      <path class="cls-2" d="M390.9,234.2c0,.4,0,.8,0,1.3.2,3.2,1.3,13.1,9.9,17.1-.9.6-1.7,1.6-2.1,2.3-5.2-2.6-7.8-7.3-9.1-11.5-1.2,4.1-3.7,8.6-8.5,11.5-.5-.7-1.4-1.5-2.3-2.2,9.2-5.1,8.8-15.5,9-18.5h3.1Z"/>
      <path class="cls-2" d="M412,247.5c-.5-.7-1.2-1.8-2-2.8v10.4h-2.8v-8.9c-.8,2-1.7,3.9-2.8,5.1-.3-.9-.9-2-1.4-2.7,1.6-1.8,3.1-4.9,3.9-7.6h-3.2v-2.6h3.5v-4.7h2.8v4.7h2.9v2.6h-2.9v.6c.9.8,3,3,3.5,3.5l-1.6,2.3ZM424.8,241h-2.2v10.8c0,1.6-.3,2.3-1.3,2.7-.9.5-2.4.5-4.4.5-.1-.8-.5-2-.9-2.8,1.3,0,2.7,0,3.1,0,.4,0,.6-.1.6-.6v-7c-1.7,2.7-3.9,5.3-6.1,7-.5-.7-1.3-1.7-2-2.3,2.8-1.8,5.6-5.1,7.3-8.5h-5.3v-2.6h6.1v-4.7h2.9v4.7h2.2v2.6Z"/>
    </g>
    <g>
      <g>
        <line class="cls-5" x1="399.9" y1="323.8" x2="362.5" y2="361.3"/>
        <line class="cls-5" x1="399.9" y1="361.3" x2="362.5" y2="323.8"/>
      </g>
      <g>
        <path class="cls-2" d="M315.4,298.7v2.1h2.3v2.5h-2.3v4.8c0,1.4-.2,2.1-1.1,2.6-.9.4-2.2.5-4,.5,0-.8-.5-2-.8-2.7,1.1,0,2.4,0,2.8,0,.4,0,.5,0,.5-.4v-4.8h-4.8c1,1,2.2,2.4,2.8,3.4l-2.2,1.4c-.5-1-1.6-2.5-2.6-3.6l2-1.2h-2.8v-1.2c-.7.2-1.4.4-2,.6v8.4h-2.5v-7.7c-1.2.4-2.4.7-3.4,1l-.6-2.6c1.1-.3,2.6-.6,4.1-1v-4.2h-1.5c-.2,1.1-.5,2.1-.9,2.9-.4-.3-1.4-1-1.9-1.2.7-1.8,1.1-4.7,1.3-7.4l2.3.4c0,.9-.2,1.8-.3,2.8h1.1v-4.3h2.5v4.3h1.9v2.2h5.1v-2h-4.1v-2.5h4.1v-2h2.7v2h4.2v2.5h-4.2v2h5.2v2.5h-2.5ZM312.7,298.7h-8.2v-2.1h-1.5v3.5l2.1-.6.2,1.2h7.4v-2.1Z"/>
        <path class="cls-2" d="M333.4,308c.8,0,1.7.1,2.6.1s5,0,6.6,0c-.4.7-.8,2-1,2.8h-5.7c-4.3,0-7.4-.7-9.5-4-.8,1.8-1.8,3.2-3.1,4.4-.5-.5-1.6-1.4-2.3-1.9,2.5-1.8,3.6-5,4-8.9l2.8.3c-.1,1-.3,2-.5,2.9.7,1.8,1.8,2.9,3.1,3.6v-8.1h-4.9v-2.6h12.6v2.6h-4.9v2.9h6.3v2.6h-6.3v3.4ZM324.9,297.7h-2.7v-5.7h8.3v-2.3h2.9v2.3h8.4v5.7h-2.8v-3.1h-14.1v3.1Z"/>
        <path class="cls-2" d="M355.4,307.4c.9-.1,1.5-.2,2.1-.4,2.9-.7,5.2-2.8,5.2-6.1s-1.7-5.5-4.8-6c-.3,1.9-.7,4-1.4,6.2-1.4,4.6-3.3,7.4-5.8,7.4s-4.6-2.8-4.6-6.6,4.6-9.7,10.5-9.7,9.2,3.9,9.2,8.9-2.9,8.2-8.7,9.1l-1.7-2.7ZM353.6,300.5c.5-1.7.9-3.6,1.2-5.5-3.8.8-5.8,4.1-5.8,6.6s.9,3.4,1.8,3.4,1.9-1.4,2.8-4.5Z"/>
        <path class="cls-2" d="M390.9,305.8h-4.9v2.7c0,1.3-.3,1.9-1.2,2.3-.9.3-2.3.4-4.2.4-.1-.7-.5-1.7-.9-2.4,1.2,0,2.7,0,3.1,0,.4,0,.5-.1.5-.4v-2.6h-7.5c1.1.8,2.4,2,3,2.8l-2.2,1.6c-.6-.9-2.1-2.3-3.3-3.2l1.7-1.2h-4.9v-2.3h13.2v-1.2h-11v-7.8h6.8v-1h-8.4v-2.2h8.4v-1.5h2.7v1.5h8.6v2.2h-8.6v1h7.1v7.8h-2.8v1.2h4.9v2.3ZM374.9,297.5h4.2v-1.2h-4.2v1.2ZM374.9,300.4h4.2v-1.2h-4.2v1.2ZM381.8,296.3v1.2h4.4v-1.2h-4.4ZM386.2,299.3h-4.4v1.2h4.4v-1.2Z"/>
        <path class="cls-2" d="M404.2,299.4h-6v11.7h-2.7v-20.5h8.8v8.8ZM398.2,292.8v1.2h3.5v-1.2h-3.5ZM401.7,297.3v-1.3h-3.5v1.3h3.5ZM414.8,307.8c0,1.6-.3,2.4-1.3,2.8-1,.5-2.5.5-4.7.5-.1-.8-.6-2.1-1-2.8,1.4,0,3.1,0,3.6,0s.6-.2.6-.6v-8.3h-6.2v-8.9h9v17.2ZM408.4,292.8v1.2h3.6v-1.2h-3.6ZM412.1,297.3v-1.4h-3.6v1.4h3.6Z"/>
        <path class="cls-2" d="M434.4,289.9c1.4,2.9,4.3,6.3,6.8,8.2-.7.6-1.8,1.7-2.3,2.5-.5-.4-1-.9-1.5-1.5v.2c-.3,6.9-.5,9.7-1.3,10.6-.6.7-1.2,1-2.1,1.1-.8.1-2.1.1-3.5,0,0-.8-.4-2-.9-2.8,1.3,0,2.5.1,3,.1s.7,0,.9-.3c.5-.5.7-2.5.9-7.3h-4.5c-.6,4.4-2.1,8.3-8,10.6-.3-.8-1.1-1.9-1.8-2.5,5.2-1.7,6.4-4.7,6.8-8h-3.9v-1.6c-.6.6-1.2,1.2-1.8,1.7-.5-.6-1.7-1.7-2.3-2.2,2.9-1.9,5.4-5.1,6.8-8.6l2.9.8c-1.1,2.6-2.7,5.2-4.6,7.2h12.4c-1.8-2.1-3.5-4.6-4.8-7.1l2.7-1.1Z"/>
        <path class="cls-2" d="M451.6,307.1c1.4-.1,2.8-.3,4.2-.5v2.4c-3.8.6-8,1-11,1.4l-.3-2.7c1.2-.1,2.8-.2,4.5-.4v-2.5h-3.7v-2.5h3.7v-1.9h-3.8v-9.8h10.2v9.8h-3.8v1.9h3.8v2.5h-3.8v2.3ZM447.4,294.6h1.7v-1.7h-1.7v1.7ZM447.4,298.4h1.7v-1.7h-1.7v1.7ZM453,292.9h-1.7v1.7h1.7v-1.7ZM453,296.6h-1.7v1.7h1.7v-1.7ZM466.1,298.6c-.4,2-1,4.3-1.5,5.8l-2.2-.5c.2-.8.5-1.9.7-3.1h-1.5v7.3c0,1.3-.3,2.1-1.1,2.5-.9.4-2.1.5-3.8.5,0-.8-.5-1.9-.8-2.7,1,0,2.2,0,2.5,0,.3,0,.5,0,.5-.4v-7.3h-3v-2.6h4.8c-1.3-.9-2.8-1.8-4.2-2.5l1.7-1.7c.6.3,1.3.6,2,1,.5-.6,1.1-1.2,1.5-1.8h-5.5v-2.5h7.9c0-.1,1.7,1.1,1.7,1.1-.9,1.5-2.3,3.1-3.6,4.4.7.5,1.4.9,1.9,1.3l-.6.7h.9c0,0,1.8.3,1.8.3Z"/>
      </g>
      <g>
        <path class="cls-2" d="M293,389.9c0,.9,0,1.5-.6,2s-1,.5-1.8.5c0-.6-.3-1.6-.6-2.2v7.3h-2.3v-14.8h-1v10.1h-2v-12.5h3v-4.2h2.3v4.2h3v9.8ZM290.9,390.1c.1,0,.2,0,.2-.2v-7.3h-1v7.5h.9ZM305.4,376.9v2.2h-11.8v-2.2h11.8ZM293.6,387.2h11.7v10.1h-2.5v-.7h-6.8v.7h-2.4v-10.2ZM304.5,380.2v5.7h-9.9v-5.7h9.9ZM296,389.3v1.6h2.2v-1.6h-2.2ZM298.2,394.5v-1.6h-2.2v1.6h2.2ZM302.1,382.3h-5.2v1.7h5.2v-1.7ZM302.8,389.3h-2.3v1.6h2.3v-1.6ZM302.8,394.5v-1.6h-2.3v1.6h2.3Z"/>
        <path class="cls-2" d="M314.1,384.6c0,3.6-.4,9.2-2.5,12.7-.5-.5-1.7-1.3-2.3-1.5,2-3.2,2.1-8,2.1-11.2v-5.8h8.1v-2.9h2.8v2.9h8.3v2.6h-16.5v3.2ZM328.3,397.4c-.2-.6-.4-1.3-.8-2-4.8.4-10,.8-13.6,1l-.3-2.8c.8,0,1.7,0,2.7,0,1.1-3.1,2.4-7.5,3-11l3.1.6c-.9,3.5-2.1,7.3-3.2,10.2,2.2,0,4.6-.2,7-.3-.8-1.5-1.8-3-2.7-4.3l2.6-1.1c2,2.6,4.1,6.1,5,8.5l-2.8,1.3Z"/>
        <path class="cls-2" d="M338.6,381.8c0,1.5,0,3.2.1,4.8.3,3.3,1,5.5,2.4,5.5s2-2.7,2.4-4.5l2.3,2.8c-1.5,4-2.9,5.4-4.8,5.4s-4.7-2.3-5.3-8.4c-.2-2.1-.3-4.7-.3-6.1s0-1.6-.2-2.3h3.5c-.2.8-.3,2.2-.3,2.8ZM354.4,391.1l-3,1.1c-.3-3.7-1.6-9-4-11.8l2.9-1c2.2,2.6,3.9,8.1,4.2,11.6Z"/>
        <path class="cls-2" d="M360.5,382.9c-.4.5-.9,1-1.4,1.4-.3-.6-1-1.6-1.5-2.1,2.2-1.9,3.6-4.3,4.4-6.4h2.2c1.5,1.2,3.5,3,4.4,4.3l-1.7,2.4c-.7-1.1-2.1-2.8-3.4-4-.6,1-1.2,2.1-2.1,3.2h5v2.3h-5.8v-1.3ZM367.3,392.1c0,1-.1,1.7-.8,2.1-.7.4-1.5.4-2.6.4,0-.7-.3-1.7-.6-2.3.6,0,1.2,0,1.4,0,.2,0,.3,0,.3-.3v-3.9h-1.9v9.3h-2.4v-9.3h-1.9v-2.4h8.6v6.4ZM372.8,394.2c-1.3,1.2-3.4,2.5-5.2,3.2-.4-.5-1.2-1.3-1.8-1.8,1.8-.6,3.8-1.8,4.8-2.8l2.2,1.4ZM371.7,380.6c0-.5.2-1,.2-1.5h-4.4v-2.3h11.7v2.3h-4.3c-.2.5-.3,1-.5,1.5h4.1v12.2h-10.2v-12.2h3.4ZM375.9,382.6h-5.1v1.4h5.1v-1.4ZM375.9,385.9h-5.1v1.5h5.1v-1.5ZM375.9,389.3h-5.1v1.5h5.1v-1.5ZM375.9,393c1.3.8,3,2.1,3.9,2.9l-2.2,1.5c-.8-.9-2.5-2.2-3.8-3.1l2-1.4Z"/>
        <path class="cls-2" d="M390,391.1c-2,1.2-4.3,2.5-6.1,3.5l-1-2.8c.6-.3,1.4-.6,2.3-1v-6.9h-2.1v-2.6h2.1v-5.1h2.6v5.1h1.7v2.6h-1.7v5.5l1.6-.8.8,2.4ZM403.8,383.5c-.7,3-1.7,5.7-3.1,8,.4,2,.9,3.3,1.5,3.3s.5-.8.6-2.9c.5.6,1.3,1.2,1.8,1.5-.4,3.1-1.1,3.9-2.8,3.9s-2.3-1.2-3-3.2c-.9,1.2-2,2.2-3.2,3-.4-.5-1.4-1.3-2-1.7,1.1-.7,2.1-1.5,2.9-2.4-2.4.6-5,1.3-7,1.8l-.6-2.6c2-.4,5-1.1,7.9-1.7l.2,1.8c.3-.4.7-.8,1-1.3-.5-2.7-.8-6.1-1-9.7h-7.4v-2.5h7.3c0-1.1,0-2.1,0-3.1h2.6c0,1.1,0,2.1,0,3.1h2.4c-.6-.6-1.3-1.3-2-1.8l1.5-1.3c.9.6,2,1.6,2.5,2.2l-1,.9h1v2.5h-4.5c0,2.1.2,4,.4,5.8.5-1.3.9-2.8,1.3-4.3l2.4.5ZM396.3,383.1v7h-5.9v-7h5.9ZM394.2,385.2h-1.8v2.8h1.8v-2.8Z"/>
        <path class="cls-2" d="M417.4,393.6c.9-.1,1.5-.2,2.1-.4,2.9-.7,5.2-2.8,5.2-6.1s-1.7-5.5-4.8-6c-.3,1.9-.7,4-1.4,6.2-1.4,4.6-3.3,7.4-5.8,7.4s-4.6-2.8-4.6-6.6,4.6-9.7,10.5-9.7,9.2,3.9,9.2,8.9-2.9,8.2-8.7,9.1l-1.7-2.7ZM415.6,386.7c.5-1.7.9-3.6,1.2-5.5-3.8.8-5.8,4.1-5.8,6.6s.9,3.4,1.8,3.4,1.9-1.4,2.8-4.5Z"/>
        <path class="cls-2" d="M439,387.6c0,.3,0,.6-.2.9,1.2,1.2,3.7,4,4.3,4.8l-1.8,2.3c-.8-1.2-2.1-2.9-3.2-4.3-.8,2.3-2.1,4.4-4.3,6-.4-.6-1.4-1.7-2-2.1,3-2.1,4-5,4.4-7.7h-4.1v-2.6h4.3v-3.7h-.9c-.5,1.2-1,2.2-1.6,3.1-.5-.5-1.6-1.2-2.2-1.6,1.2-1.7,2.1-4.3,2.6-6.9l2.6.5c-.2.8-.3,1.6-.6,2.4h6.1v2.5h-3.2v3.7h3.8v2.6h-4ZM452.3,377.9v18.5h-2.8v-1.3h-3.3v1.7h-2.6v-18.8h8.8ZM449.6,392.5v-12h-3.3v12h3.3Z"/>
        <path class="cls-2" d="M474.7,394.6c.8,0,.9-.4,1-3.1.6.4,1.8.9,2.5,1.1-.3,3.6-1,4.6-3.3,4.6h-3c-2.7,0-3.4-.8-3.4-3.4v-3.7h-2.8c-.5,3.7-1.8,6.1-7.5,7.4-.3-.7-1-1.9-1.5-2.4,4.7-.9,5.7-2.4,6.1-4.9h-2.8v-13.5h15v13.5h-3.7v3.7c0,.7.1.8,1,.8h2.4ZM462.6,380.4h9.6v-1.4h-9.6v1.4ZM462.6,384.1h9.6v-1.4h-9.6v1.4ZM462.6,387.7h9.6v-1.4h-9.6v1.4Z"/>
      </g>
    </g>
  </g>
  <g>
    <rect class="cls-1" y="474.3" width="208.2" height="52.7" rx="6.6" ry="6.6"/>
    <path class="cls-3" d="M184.5,527v141c0,3.6-3,6.6-6.6,6.6h-39.5c-3.6,0-6.6-3-6.6-6.6v-141"/>
    <g>
      <path class="cls-4" d="M55.3,498.5c0,2.5-.2,4.7-.6,6.7-.3,1.8-.8,3.2-1.7,4.6-.1.3-.2.4-.3.4s-.2-.1-.4-.3c-.4-.5-1-.9-1.4-1.2.9-1.3,1.4-2.6,1.7-4.4.4-1.7.5-3.9.5-6.3s0-3.8,0-3.9c0-.2,0-.2.2-.2s.9,0,2.8,0h4.2v-.9c0-.6,0-1.2-.1-1.7.8,0,1.5,0,2.2.1.2,0,.3,0,.3.2s0,.3-.1.4c0,.1-.1.4-.1.9v1h4.2c2,0,2.7,0,2.8,0,.2,0,.2,0,.2.2v1.6c0,.2,0,.3-.2.3s-.8,0-2.8,0h-11.4v2.5ZM65,501.9c.3-.1.3-.1.4,0,1.5,2.2,3,4.8,4,7,0,.2,0,.3-.2.4l-1.5.8c-.3.1-.4,0-.4-.1-.3-.6-.5-1.3-.8-1.9-2.7.5-6.3,1-9.8,1.4-.3,0-.6.1-.8.2-.1,0-.3.1-.3.1-.1,0-.2,0-.3-.3-.2-.6-.3-1.3-.5-2.2.8,0,1.4,0,2.4,0,1.2-3,1.9-5.4,2.6-8.3.1-.6.2-1.2.3-1.9.8.2,1.7.4,2.3.6.3,0,.4.2.4.4s0,.3-.2.4c-.2.2-.4.5-.5,1.2-.7,2.6-1.5,4.9-2.5,7.4,2.1-.2,4.1-.5,6-.8-.6-1.2-1.3-2.3-2.1-3.4-.1-.2,0-.3.2-.4l1.4-.6Z"/>
      <path class="cls-4" d="M80.2,497.3c1.8,0,2.4,0,2.5,0,.2,0,.3,0,.3.2v1.2c0,.2,0,.2-.3.2s-.7,0-2.5,0h-1v1h.7c1.6,0,2.2,0,2.3,0,.2,0,.3,0,.3.2s0,.6,0,1.7v2.2c0,1.1,0,1.6,0,1.7,0,.2,0,.2-.3.2s-.7,0-2.3,0h-.7v1h1.2c1.8,0,2.5,0,2.6,0,.2,0,.3,0,.3.3v1.1c0,.2,0,.2-.3.2s-.8,0-2.6,0h-1.2c0,1.3,0,2,0,2.1,0,.2,0,.2-.2.2h-1.5c-.2,0-.2,0-.2-.2s0-.7,0-2.1h-1.4c-1.8,0-2.5,0-2.6,0-.2,0-.2,0-.2-.2v-1.1c0-.2,0-.3.2-.3s.8,0,2.6,0h1.4v-1h-.6c-1.7,0-2.2,0-2.3,0-.2,0-.2,0-.2-.2s0-.6,0-1.7v-2.2c0-1.1,0-1.5,0-1.7s0-.2.2-.2.7,0,2.3,0h.6v-1h-1.2c-1.8,0-2.4,0-2.5,0-.2,0-.2,0-.2-.2v-1.2c0-.2,0-.2.2-.2s.7,0,2.5,0h1.1c0-.5,0-.9-.1-1.4.5,0,.9,0,1.3,0-.2-.6-.4-1-.6-1.5h-1.5c-.4.6-.9,1.3-1.6,1.9-.3.2-.4.4-.5.4s-.2-.1-.5-.4c-.3-.4-.6-.6-.9-.8,1.1-1,2-2,2.6-3.3.2-.4.3-.7.4-1.1.6,0,1.4.2,1.8.3.2,0,.3.1.3.3s0,.2-.2.3c-.1.1-.2.2-.3.5,0,.1-.1.3-.2.4h2.1c1.8,0,2.3,0,2.4,0,.2,0,.3,0,.3.2v1.2c0,.2,0,.2-.3.2s-.6,0-1.9,0c.2.3.4.6.5,1.1,0,.2,0,.3-.2.3l-1,.2c0,0,.1.1.1.2,0,.1,0,.3-.1.4,0,.1,0,.3-.1.6h1ZM77.3,502.2v-1.1h-1.4v1.1h1.4ZM77.3,504.5v-1.2h-1.4v1.2h1.4ZM79.1,501.1v1.1h1.5v-1.1h-1.5ZM80.6,503.4h-1.5v1.2h1.5v-1.2ZM84.6,494.6c-.3.5-.7,1.1-1.2,1.6-.2.3-.3.4-.5.4s-.3-.1-.5-.4c-.3-.3-.7-.5-1-.7,1-1,1.7-2.1,2.2-3.2.1-.3.2-.6.3-1,.6,0,1.3.2,1.8.3.2,0,.3.1.3.3s0,.2-.2.3c-.1.1-.2.2-.3.5v.3c-.1,0,3,0,3,0,2.1,0,2.9,0,3,0,.2,0,.2,0,.2.2v1.2c0,.2,0,.2-.2.2s-.9,0-3,0h-.4c.3.4.5.9.7,1.4,0,.2,0,.3-.2.3l-1.4.2c-.3,0-.3,0-.4-.2-.2-.6-.4-1.1-.7-1.7h-1.6ZM85.8,507c0,.5,0,.7.2.9.2.2.7.3,1.8.3s1.8-.2,2-.5c.2-.2.3-.6.3-2,.3.2.8.4,1.4.6.5.1.5.2.5.8-.1,1.2-.4,1.9-.8,2.3-.6.6-1.5.8-3.8.8s-2.7-.1-3.2-.5c-.4-.3-.5-.8-.5-1.7v-8c0-1.7,0-2.5,0-2.7,0-.2,0-.2.2-.2s.9,0,2.4,0h2.5c1.5,0,1.9,0,2.1,0,.2,0,.3,0,.3.3,0,.5,0,.9,0,1.4,0,2.5-.1,3.9-.2,4.9,0,.6-.4,1.3-1,1.5-.4.2-1,.2-2,.3q-.6,0-.7-.6c-.1-.6-.3-1.1-.4-1.5.5,0,.9.1,1.5.1s.6-.1.6-.5c.1-.9.1-1.9.1-4h-3.2v8.1Z"/>
      <path class="cls-4" d="M104.7,495c.2,0,.3,0,.3.2.1.5.2,1.2.2,1.7,0,.2,0,.2-.3.3-1.1.2-2.2.4-3.5.6-1.3,3.5-2.6,6.4-4.1,9,0,.1-.1.2-.2.2s-.1,0-.3-.1c-.5-.3-1.1-.7-1.4-1.1-.1,0-.1-.1-.1-.2s0-.1.1-.3c1.6-2.6,2.7-4.8,3.6-7.3-.8,0-1.4,0-2.1,0s-.6,0-1.2,0c-.2,0-.3,0-.3-.3-.1-.4-.2-1.1-.2-1.8.9,0,1.3,0,1.9,0s1.4,0,2.4-.1c.3-.9.4-1.6.5-2.3.1-.7.1-1,.1-1.7.9.1,1.8.3,2.4.4.2,0,.3.2.3.3s0,.3-.2.4c-.1.2-.2.4-.3.8-.1.5-.3,1.2-.5,1.8.8,0,1.8-.3,2.6-.5ZM105.3,500.7c0-.6,0-.9-.2-1.5,1,.1,1.6.2,2.3.4.2,0,.3.1.3.3s0,.2-.1.4-.1.5,0,.9c0,1.2,0,2.1.2,3.6,1.5.6,2.5,1.1,3.8,1.9.2.1.2.2.1.4-.3.6-.6,1.2-1,1.7,0,.1-.1.1-.2.1s-.1,0-.2-.1c-.9-.8-1.7-1.3-2.6-1.8,0,2.1-1.5,3.1-3.9,3.1s-3.8-1.2-3.8-3,1.5-3.1,3.9-3.1,1,0,1.7.1c-.1-1.3-.2-2.6-.2-3.6ZM103.8,505.9c-1,0-1.9.4-1.9,1.2s.6,1,1.8,1,1.8-.6,1.8-1.5,0-.3,0-.4c-.5-.2-1.1-.3-1.7-.3ZM107.7,495.9c.1-.2.2-.2.4-.1,1.2.3,2.9,1.2,4.1,2,.1,0,.2.1.2.2s0,.1,0,.3c-.2.5-.6,1.1-.9,1.5,0,.1-.1.1-.2.1s-.1,0-.2,0c-1.2-.8-2.7-1.8-4.3-2.3.4-.6.7-1.3.9-1.6Z"/>
      <path class="cls-4" d="M121.8,501.6c0,.1,0,.2,0,.3,1,2.1,2.2,3.4,3.9,4.5-.3.4-.7.9-1,1.5-.1.3-.2.4-.3.4s-.2-.1-.4-.3c-1.2-1.2-2-2.2-2.7-3.7-.6,1.9-1.8,3.7-3.6,5.3-.2.2-.3.3-.4.3s-.3-.1-.4-.4c-.3-.5-.7-.9-1.1-1.2,2.3-1.8,3.5-3.6,4-6,0-.3.1-.5.1-.8h-1.1c-1.8,0-2.4,0-2.5,0-.2,0-.3,0-.3-.3v-1.5c0-.2,0-.2.3-.2s.7,0,2.5,0h1.3c0-1,.1-2.1.1-3.2h-1.2c-.3.6-.6,1.1-1,1.7-.2.3-.3.4-.4.4s-.3-.1-.5-.3c-.4-.4-.8-.6-1.2-.8,1.2-1.3,1.9-2.9,2.5-4.6.1-.5.2-.8.2-1.3.7.1,1.3.3,1.9.4.2,0,.4.1.4.3s0,.2-.2.4c-.1.1-.3.3-.4.8-.1.4-.3.8-.4,1.2h2.5c1.8,0,2.4,0,2.6,0,.2,0,.3,0,.3.2v1.5c0,.2,0,.2-.3.2s-.7,0-2.6,0c0,1.1,0,2.2-.1,3.2h.5c1.8,0,2.4,0,2.5,0,.2,0,.2,0,.2.2v1.5c0,.2,0,.3-.2.3s-.7,0-2.5,0h-.7ZM126.2,509.8c-.2,0-.2,0-.2-.2s0-1.3,0-6.3v-4.9c0-3.5,0-4.7,0-4.8s0-.2.2-.2.7,0,2.3,0h2.9c1.6,0,2.2,0,2.3,0,.2,0,.3,0,.3.2s0,1.3,0,4.2v5.4c0,4.9,0,6,0,6.2,0,.2,0,.2-.3.2h-1.7c-.2,0-.2,0-.2-.2v-1.3h-3.6v1.5c0,.2,0,.2-.2.2h-1.7ZM128.2,506.1h3.6v-10.6h-3.6v10.6Z"/>
      <path class="cls-4" d="M149.9,507.3c0,.5.1.6.4.7.3,0,.8.1,1.6.1s1.5,0,1.8-.3.5-.8.5-2.2c.4.3,1,.5,1.5.7q.5.2.5.7c-.1,1.5-.4,2-1,2.4-.6.5-1.9.6-3.5.6s-2.6,0-3.2-.3c-.5-.2-.9-.5-.9-1.5v-4.3h-1.9c-.6,3.5-2.8,5.7-6.4,6.4-.2,0-.3,0-.4,0-.2,0-.3-.1-.5-.5-.3-.5-.6-1-1-1.4,3.7-.5,5.6-2,6.1-4.6h0c-2,0-2.7,0-2.8,0-.2,0-.3,0-.3-.2s0-.9,0-2.6v-6.3c0-1.7,0-2.4,0-2.6,0-.2,0-.2.3-.2s.8,0,2.9,0h6.7c2,0,2.7,0,2.9,0,.2,0,.2,0,.2.2s0,.9,0,2.6v6.3c0,1.6,0,2.4,0,2.6,0,.2,0,.2-.2.2s-.9,0-2.9,0h-.4v3.3ZM142.6,494.1v1.5h8.5v-1.5h-8.5ZM151.2,498.9v-1.5h-8.5v1.5h8.5ZM151.2,500.7h-8.5v1.5h8.5v-1.5Z"/>
    </g>
    <g>
      <path class="cls-4" d="M160.4,570.1c0-.3,0-.6-.1-.9.8,0,1.6,0,2.2.1.2,0,.3.1.3.2s0,.2-.1.3c0,0,0,.1,0,.3h1.7c1.9,0,2.5,0,2.6,0,.2,0,.2,0,.2.2v1.4c0,.2,0,.3-.2.3s-.8,0-2.6,0h-1.7v.3c0,.8,0,1.5,0,2.2s-.3,1.3-.8,1.5c-.4.2-1.1.4-2.8.4s-.6,0-.8-.5c-.1-.7-.4-1.3-.6-1.6.8,0,1.5,0,1.9,0,.6,0,.9-.2.9-.7v-1.8h-9.1c-1.9,0-2.5,0-2.6,0-.2,0-.2,0-.2-.3v-1.4c0-.2,0-.2.2-.2s.8,0,2.6,0h9.1ZM154.1,568.9c-2.1,0-2.8,0-2.9,0-.2,0-.3,0-.3-.2s0-.7,0-1.9v-2.8c0-1.3,0-1.8,0-1.9,0-.2,0-.2.3-.2s.9,0,2.9,0h2.5v-1.1h-5c-1.9,0-2.5,0-2.7,0-.2,0-.2,0-.2-.2v-1.4c0-.2,0-.3.2-.3s.8,0,2.7,0h5c0-.8,0-1.3-.1-1.8.7,0,1.4,0,2.2.1.2,0,.3,0,.3.2s0,.3-.1.4c0,.1-.1.4-.1,1h5.3c1.9,0,2.6,0,2.7,0,.2,0,.2,0,.2.3v1.4c0,.2,0,.2-.2.2s-.8,0-2.7,0h-5.3v1.1h2.8c2.1,0,2.8,0,2.9,0,.2,0,.2,0,.2.2s0,.7,0,1.9v2.8c0,1.2,0,1.8,0,1.9,0,.2,0,.2-.2.2s-.9,0-2.9,0h-7.4ZM154,572.1c.3-.1.3-.1.5,0,.7.7,1.4,1.5,1.9,2.3.1.2,0,.3-.2.4l-1.5.8c-.3.1-.3.2-.4,0-.5-.9-1.2-1.7-1.9-2.4-.2-.2-.1-.3.1-.4l1.4-.7ZM156.6,564.6v-1.2h-3.5v1.2h3.5ZM156.6,567.4v-1.3h-3.5v1.3h3.5ZM158.7,563.4v1.2h3.9v-1.2h-3.9ZM162.5,566.1h-3.9v1.3h3.9v-1.3Z"/>
      <path class="cls-4" d="M154.7,580.1c1.3,0,1.9,0,2,0,.2,0,.2,0,.2.2s0,.8,0,2.1v3.1c0,1.3,0,2,0,2.1,0,.2,0,.2-.2.2s-.7,0-2,0h-3.2v5.9c0,2.8,0,4.2,0,4.4,0,.2,0,.2-.2.2h-1.8c-.2,0-.2,0-.2-.2s0-1.5,0-4.4v-9c0-2.8,0-4.3,0-4.4,0-.2,0-.2.2-.2s.9,0,2.4,0h2.8ZM151.5,581.7v1.5h3.3v-1.5h-3.3ZM154.8,584.7h-3.3v1.5h3.3v-1.5ZM166.3,591.4c0,1.5,0,3.1,0,4.2s-.1,1.5-.6,1.9c-.5.4-1,.6-3.2.6s-.7,0-.8-.7c-.1-.6-.3-1.2-.5-1.6.8,0,1.5.1,2,.1s.9-.2.9-.8v-7.4h-3.2c-1.6,0-2.1,0-2.3,0-.2,0-.3,0-.3-.2s0-.7,0-2v-3.4c0-1.3,0-1.8,0-2,0-.2,0-.2.3-.2s.6,0,2.3,0h2.9c1.6,0,2.2,0,2.3,0,.2,0,.2,0,.2.2s0,1,0,2.7v8.4ZM160.5,581.7v1.5h3.6v-1.5h-3.6ZM164.1,586.2v-1.5h-3.6v1.5h3.6Z"/>
      <path class="cls-4" d="M160.5,601.7c.3-.1.3-.1.4.1,1.4,3.2,3.9,6.1,6.8,7.7-.4.3-.9,1-1.2,1.6-.2.3-.3.5-.4.5s-.2-.1-.4-.3c-.7-.5-1.4-1.1-2-1.7,0,.6,0,1.3,0,2.1,0,2.2-.2,3.9-.5,5.9-.3,1.7-1.1,2.6-3.1,2.6s-.9,0-1.4,0c-.6,0-.6,0-.8-.7-.1-.7-.4-1.3-.6-1.7,1,.1,1.7.2,2.4.2s1.2-.3,1.4-1.3c.2-1.2.4-2.8.4-5.2h-3.7c-.4,4.2-2.5,7.2-6.4,8.9-.2.1-.4.2-.5.2s-.2-.1-.4-.5c-.3-.5-.7-1-1.1-1.3,3.8-1.4,5.7-3.6,6-7.3h-.3c-2,0-2.6,0-2.8,0-.2,0-.2,0-.2-.2v-1.5c-.6.6-1.3,1.2-2,1.7-.2.2-.4.3-.5.3s-.2-.1-.4-.5c-.3-.5-.8-1-1.2-1.3,2.8-1.8,4.9-4.3,6-6.9.2-.4.3-.8.4-1.3.8.2,1.6.5,2.2.7.2.1.3.2.3.4s0,.2-.2.3c-.2.2-.3.4-.5.7-1,2.3-2.3,4-3.8,5.5.3,0,1,0,2.6,0h5.6c1.8,0,2.5,0,2.7,0-1.9-2-3.5-4.2-4.5-6.6,0-.2,0-.3.2-.4l1.5-.6Z"/>
      <path class="cls-4" d="M155.3,634.6c1.8,0,2.4,0,2.5,0,.2,0,.3,0,.3.2v1.4c0,.2,0,.2-.3.2s-.7,0-2.5,0h-.9v2c1.3-.2,2.6-.4,3.9-.7,0,.4-.1.8-.1,1.2q0,.7-.7.8c-2.2.5-4.6.9-7.1,1.3-.4,0-.7.1-.8.2-.1.1-.3.1-.4.1s-.2-.1-.3-.3c-.2-.6-.4-1.4-.5-2,.7,0,1.4,0,2.1-.2.6,0,1.3-.1,2-.3v-2.3h-.9c-1.8,0-2.4,0-2.5,0-.2,0-.2,0-.2-.2v-1.4c0-.2,0-.2.2-.2s.7,0,2.5,0h.9v-1.8h-.8c-1.7,0-2.3,0-2.4,0-.2,0-.2,0-.2-.2s0-.7,0-2.2v-4c0-1.4,0-2,0-2.2,0-.2,0-.2.2-.2s.7,0,2.4,0h3.4c1.7,0,2.3,0,2.4,0,.2,0,.3,0,.3.2s0,.8,0,2.2v4c0,1.4,0,2,0,2.2,0,.2,0,.2-.3.2s-.7,0-2.4,0h-.7v1.8h.9ZM152.4,627.6v-1.8h-1.5v1.8h1.5ZM152.4,631.2v-2h-1.5v2h1.5ZM154.3,625.8v1.8h1.5v-1.8h-1.5ZM155.9,629.3h-1.5v2h1.5v-2ZM160.3,627c.2-.2.3-.1.4,0,.5.4.9.8,1.4,1.2.7-.6,1.2-1.4,1.8-2.2h-2.8c-1.7,0-2.2,0-2.3,0-.2,0-.2,0-.2-.2v-1.5c0-.2,0-.2.2-.2s.6,0,2.3,0h3.6c.3,0,.4,0,.5,0,.1,0,.2,0,.3,0s.3.1.8.6c.5.5.6.7.6.9s0,.3-.2.3c-.2.1-.3.3-.6.7-.8,1.1-1.6,2.1-2.5,3,.2.2.3.4.5.6.1.1.1.3,0,.4l-.2.2h1.8c.2,0,.3,0,.4,0,.1,0,.2-.1.3-.1.2,0,.3,0,.8.6.5.5.5.7.5.9s0,.2-.1.3c0,.1-.1.3-.3.6-.5,1-1,1.9-1.6,2.7-.2.3-.3.4-.4.4s-.2,0-.4-.2c-.5-.3-.9-.6-1.3-.7.8-.9,1.2-1.5,1.7-2.5h-1.8v4.8c0,1,0,1.9,0,2.4,0,.9-.1,1.5-.7,1.9-.5.4-1.2.5-2.7.5s-.7,0-.8-.6c-.1-.6-.3-1.1-.6-1.5.7,0,1.2,0,1.9,0s.8-.1.8-.8v-6.8h-.2c-1.8,0-2.4,0-2.5,0-.2,0-.2,0-.2-.2v-1.5c0-.2,0-.3.2-.3s.7,0,2.5,0h.9c-.9-1-1.8-1.9-2.7-2.6-.2-.1-.2-.2,0-.4l1-.8Z"/>
    </g>
    <path class="cls-3" d="M75.1,527v141c0,3.6-3,6.6-6.6,6.6H29c-3.6,0-6.6-3-6.6-6.6v-141"/>
    <g>
      <path class="cls-4" d="M51,570.1c0-.3,0-.6-.1-.9.8,0,1.6,0,2.2.1.2,0,.3.1.3.2s0,.2-.1.3c0,0,0,.1,0,.3h1.7c1.9,0,2.5,0,2.6,0,.2,0,.2,0,.2.2v1.4c0,.2,0,.3-.2.3s-.8,0-2.6,0h-1.7v.3c0,.8,0,1.5,0,2.2s-.3,1.3-.8,1.5c-.4.2-1.1.4-2.8.4s-.6,0-.8-.5c-.1-.7-.4-1.3-.6-1.6.8,0,1.5,0,1.9,0,.6,0,.9-.2.9-.7v-1.8h-9.1c-1.9,0-2.5,0-2.6,0-.2,0-.2,0-.2-.3v-1.4c0-.2,0-.2.2-.2s.8,0,2.6,0h9.1ZM44.7,568.9c-2.1,0-2.8,0-2.9,0-.2,0-.3,0-.3-.2s0-.7,0-1.9v-2.8c0-1.3,0-1.8,0-1.9,0-.2,0-.2.3-.2s.9,0,2.9,0h2.5v-1.1h-5c-1.9,0-2.5,0-2.7,0-.2,0-.2,0-.2-.2v-1.4c0-.2,0-.3.2-.3s.8,0,2.7,0h5c0-.8,0-1.3-.1-1.8.7,0,1.4,0,2.2.1.2,0,.3,0,.3.2s0,.3-.1.4c0,.1-.1.4-.1,1h5.3c1.9,0,2.6,0,2.7,0,.2,0,.2,0,.2.3v1.4c0,.2,0,.2-.2.2s-.8,0-2.7,0h-5.3v1.1h2.8c2.1,0,2.8,0,2.9,0,.2,0,.2,0,.2.2s0,.7,0,1.9v2.8c0,1.2,0,1.8,0,1.9,0,.2,0,.2-.2.2s-.9,0-2.9,0h-7.4ZM44.7,572.1c.3-.1.3-.1.5,0,.7.7,1.4,1.5,1.9,2.3.1.2,0,.3-.2.4l-1.5.8c-.3.1-.3.2-.4,0-.5-.9-1.2-1.7-1.9-2.4-.2-.2-.1-.3.1-.4l1.4-.7ZM47.2,564.6v-1.2h-3.5v1.2h3.5ZM47.2,567.4v-1.3h-3.5v1.3h3.5ZM49.3,563.4v1.2h3.9v-1.2h-3.9ZM53.2,566.1h-3.9v1.3h3.9v-1.3Z"/>
      <path class="cls-4" d="M45.3,580.1c1.3,0,1.9,0,2,0,.2,0,.2,0,.2.2s0,.8,0,2.1v3.1c0,1.3,0,2,0,2.1,0,.2,0,.2-.2.2s-.7,0-2,0h-3.2v5.9c0,2.8,0,4.2,0,4.4,0,.2,0,.2-.2.2h-1.8c-.2,0-.2,0-.2-.2s0-1.5,0-4.4v-9c0-2.8,0-4.3,0-4.4,0-.2,0-.2.2-.2s.9,0,2.4,0h2.8ZM42.1,581.7v1.5h3.3v-1.5h-3.3ZM45.5,584.7h-3.3v1.5h3.3v-1.5ZM56.9,591.4c0,1.5,0,3.1,0,4.2s-.1,1.5-.6,1.9c-.5.4-1,.6-3.2.6s-.7,0-.8-.7c-.1-.6-.3-1.2-.5-1.6.8,0,1.5.1,2,.1s.9-.2.9-.8v-7.4h-3.2c-1.6,0-2.1,0-2.3,0-.2,0-.3,0-.3-.2s0-.7,0-2v-3.4c0-1.3,0-1.8,0-2,0-.2,0-.2.3-.2s.6,0,2.3,0h2.9c1.6,0,2.2,0,2.3,0,.2,0,.2,0,.2.2s0,1,0,2.7v8.4ZM51.1,581.7v1.5h3.6v-1.5h-3.6ZM54.7,586.2v-1.5h-3.6v1.5h3.6Z"/>
      <path class="cls-4" d="M51.2,601.7c.3-.1.3-.1.4.1,1.4,3.2,3.9,6.1,6.8,7.7-.4.3-.9,1-1.2,1.6-.2.3-.3.5-.4.5s-.2-.1-.4-.3c-.7-.5-1.4-1.1-2-1.7,0,.6,0,1.3,0,2.1,0,2.2-.2,3.9-.5,5.9-.3,1.7-1.1,2.6-3.1,2.6s-.9,0-1.4,0c-.6,0-.6,0-.8-.7-.1-.7-.4-1.3-.6-1.7,1,.1,1.7.2,2.4.2s1.2-.3,1.4-1.3c.2-1.2.4-2.8.4-5.2h-3.7c-.4,4.2-2.5,7.2-6.4,8.9-.2.1-.4.2-.5.2s-.2-.1-.4-.5c-.3-.5-.7-1-1.1-1.3,3.8-1.4,5.7-3.6,6-7.3h-.3c-2,0-2.6,0-2.8,0-.2,0-.2,0-.2-.2v-1.5c-.6.6-1.3,1.2-2,1.7-.2.2-.4.3-.5.3s-.2-.1-.4-.5c-.3-.5-.8-1-1.2-1.3,2.8-1.8,4.9-4.3,6-6.9.2-.4.3-.8.4-1.3.8.2,1.6.5,2.2.7.2.1.3.2.3.4s0,.2-.2.3c-.2.2-.3.4-.5.7-1,2.3-2.3,4-3.8,5.5.3,0,1,0,2.6,0h5.6c1.8,0,2.5,0,2.7,0-1.9-2-3.5-4.2-4.5-6.6,0-.2,0-.3.2-.4l1.5-.6Z"/>
      <path class="cls-4" d="M45.9,634.6c1.8,0,2.4,0,2.5,0,.2,0,.3,0,.3.2v1.4c0,.2,0,.2-.3.2s-.7,0-2.5,0h-.9v2c1.3-.2,2.6-.4,3.9-.7,0,.4-.1.8-.1,1.2q0,.7-.7.8c-2.2.5-4.6.9-7.1,1.3-.4,0-.7.1-.8.2-.1.1-.3.1-.4.1s-.2-.1-.3-.3c-.2-.6-.4-1.4-.5-2,.7,0,1.4,0,2.1-.2.6,0,1.3-.1,2-.3v-2.3h-.9c-1.8,0-2.4,0-2.5,0-.2,0-.2,0-.2-.2v-1.4c0-.2,0-.2.2-.2s.7,0,2.5,0h.9v-1.8h-.8c-1.7,0-2.3,0-2.4,0-.2,0-.2,0-.2-.2s0-.7,0-2.2v-4c0-1.4,0-2,0-2.2,0-.2,0-.2.2-.2s.7,0,2.4,0h3.4c1.7,0,2.3,0,2.4,0,.2,0,.3,0,.3.2s0,.8,0,2.2v4c0,1.4,0,2,0,2.2,0,.2,0,.2-.3.2s-.7,0-2.4,0h-.7v1.8h.9ZM43,627.6v-1.8h-1.5v1.8h1.5ZM43,631.2v-2h-1.5v2h1.5ZM45,625.8v1.8h1.5v-1.8h-1.5ZM46.5,629.3h-1.5v2h1.5v-2ZM50.9,627c.2-.2.3-.1.4,0,.5.4.9.8,1.4,1.2.7-.6,1.2-1.4,1.8-2.2h-2.8c-1.7,0-2.2,0-2.3,0-.2,0-.2,0-.2-.2v-1.5c0-.2,0-.2.2-.2s.6,0,2.3,0h3.6c.3,0,.4,0,.5,0,.1,0,.2,0,.3,0s.3.1.8.6c.5.5.6.7.6.9s0,.3-.2.3c-.2.1-.3.3-.6.7-.8,1.1-1.6,2.1-2.5,3,.2.2.3.4.5.6.1.1.1.3,0,.4l-.2.2h1.8c.2,0,.3,0,.4,0,.1,0,.2-.1.3-.1.2,0,.3,0,.8.6.5.5.5.7.5.9s0,.2-.1.3c0,.1-.1.3-.3.6-.5,1-1,1.9-1.6,2.7-.2.3-.3.4-.4.4s-.2,0-.4-.2c-.5-.3-.9-.6-1.3-.7.8-.9,1.2-1.5,1.7-2.5h-1.8v4.8c0,1,0,1.9,0,2.4,0,.9-.1,1.5-.7,1.9-.5.4-1.2.5-2.7.5s-.7,0-.8-.6c-.1-.6-.3-1.1-.6-1.5.7,0,1.2,0,1.9,0s.8-.1.8-.8v-6.8h-.2c-1.8,0-2.4,0-2.5,0-.2,0-.2,0-.2-.2v-1.5c0-.2,0-.3.2-.3s.7,0,2.5,0h.9c-.9-1-1.8-1.9-2.7-2.6-.2-.1-.2-.2,0-.4l1-.8Z"/>
    </g>
  </g>
  <polygon class="cls-1" points="254.8 509.4 254.8 490.6 275.4 500 254.8 509.4"/>
  <g>
    <rect class="cls-6" x="313.4" y="473.6" width="134.4" height="52.7"/>
    <g>
      <path class="cls-2" d="M345.5,505.6c0-.9,0-4.1.1-6.4h-3.4c0,3.2-.3,6.9-.7,10.4l-3.4-.2c.6-3.5.9-7.2.9-10.2h-2.8v-2.5l1.9-.2h13.2v2.7h-2.5c-.2,2.4-.2,5.8-.2,6.6s.4,1.2,1.2,1.2.6,0,1,0l.4,2.5c-.5.2-1.2.4-2.2.4-2.6,0-3.5-1.6-3.5-4.1Z"/>
      <path class="cls-2" d="M375.9,508.1v2.5h-20.7v-2.5h9v-1.8h-6.7v-2.5h6.6v-1.4h-1.7v-4.4h-2.1c-.4,1.9-1.3,3.8-3.6,5-.3-.5-1.3-1.5-1.8-1.9,1.7-.9,2.5-2,2.8-3.1h-2.3v-2.4h2.6v-2.4h-1.8v-2.4h10.4v2.4h-1.6v2.4h2.2v2.4h-2.2v4h2v1.8h6.6v2.5h-6.6v1.8h8.9ZM362.4,495.5v-2.4h-1.9v2.4h1.9ZM370.6,499h-2.5v-7.8h2.5v7.8ZM374.9,500c0,1.3-.2,1.9-1.1,2.3-.8.4-2,.4-3.6.4-.1-.7-.5-1.7-.8-2.4,1,0,2.1,0,2.5,0,.3,0,.4,0,.4-.4v-9.8h2.6v9.8Z"/>
      <path class="cls-2" d="M391.9,490.5c0,.4,0,.8,0,1.3.2,3.2,1.3,13.1,9.9,17.1-.9.6-1.7,1.6-2.1,2.3-5.2-2.6-7.8-7.3-9.1-11.5-1.2,4.1-3.7,8.6-8.5,11.5-.5-.7-1.4-1.5-2.3-2.2,9.2-5.1,8.8-15.5,9-18.5h3.1Z"/>
      <path class="cls-2" d="M413.1,503.8c-.5-.7-1.2-1.8-2-2.8v10.4h-2.8v-8.9c-.8,2-1.7,3.9-2.8,5.1-.3-.9-.9-2-1.4-2.7,1.6-1.8,3.1-4.9,3.9-7.6h-3.2v-2.6h3.5v-4.7h2.8v4.7h2.9v2.6h-2.9v.6c.9.8,3,3,3.5,3.5l-1.6,2.3ZM425.9,497.3h-2.2v10.8c0,1.6-.3,2.3-1.3,2.7-.9.5-2.4.5-4.4.5-.1-.8-.5-2-.9-2.8,1.3,0,2.7,0,3.1,0,.4,0,.6-.1.6-.6v-7c-1.7,2.7-3.9,5.3-6.1,7-.5-.7-1.3-1.7-2-2.3,2.8-1.8,5.6-5.1,7.3-8.5h-5.3v-2.6h6.1v-4.7h2.9v4.7h2.2v2.6Z"/>
    </g>
    <g>
      <g>
        <line class="cls-5" x1="399.9" y1="580" x2="362.5" y2="617.5"/>
        <line class="cls-5" x1="399.9" y1="617.5" x2="362.5" y2="580"/>
      </g>
      <g>
        <path class="cls-2" d="M301.5,563.4c4.6-4.1,7.4-7.3,7.4-9.9s-.9-2.8-2.6-2.8-2.3.8-3.1,1.7l-1.8-1.8c1.6-1.7,3.1-2.6,5.4-2.6s5.4,2.1,5.4,5.2-2.6,6.4-5.7,9.4c.9,0,2-.2,2.8-.2h3.7v2.8h-11.4v-2Z"/>
        <path class="cls-2" d="M319.6,552.1c1.8-.5,6.4-2.2,9.7-2.2s7.4,2.4,7.4,6.6-4.9,8.5-12.9,8.9l-1.3-3c6.2-.1,11-1.9,11-5.9s-1.5-3.8-4.2-3.8-8.7,2.3-11.1,3.3l-1.3-3.2c.8-.1,2-.4,2.8-.7Z"/>
        <path class="cls-2" d="M350.6,563.6c.9-.1,1.5-.2,2.1-.4,2.9-.7,5.2-2.8,5.2-6.1s-1.7-5.5-4.8-6c-.3,1.9-.7,4-1.4,6.2-1.4,4.6-3.3,7.4-5.8,7.4s-4.6-2.8-4.6-6.6,4.6-9.7,10.5-9.7,9.2,3.9,9.2,8.9-2.9,8.2-8.7,9.1l-1.7-2.7ZM348.8,556.7c.5-1.7.9-3.6,1.2-5.5-3.8.8-5.8,4.1-5.8,6.6s.9,3.4,1.8,3.4,1.9-1.4,2.8-4.5Z"/>
        <path class="cls-2" d="M386.2,562.1h-4.9v2.7c0,1.3-.3,1.9-1.2,2.3-.9.3-2.3.4-4.2.4-.1-.7-.5-1.7-.9-2.4,1.2,0,2.7,0,3.1,0,.4,0,.5-.1.5-.4v-2.6h-7.5c1.1.8,2.4,2,3,2.8l-2.2,1.6c-.6-.9-2.1-2.3-3.3-3.2l1.7-1.2h-4.9v-2.3h13.2v-1.2h-11v-7.8h6.8v-1h-8.4v-2.2h8.4v-1.5h2.7v1.5h8.6v2.2h-8.6v1h7.1v7.8h-2.8v1.2h4.9v2.3ZM370.1,553.8h4.2v-1.2h-4.2v1.2ZM370.1,556.7h4.2v-1.2h-4.2v1.2ZM377,552.6v1.2h4.4v-1.2h-4.4ZM381.4,555.5h-4.4v1.2h4.4v-1.2Z"/>
        <path class="cls-2" d="M399.4,555.7h-6v11.7h-2.7v-20.5h8.8v8.8ZM393.4,549v1.2h3.5v-1.2h-3.5ZM396.9,553.5v-1.3h-3.5v1.3h3.5ZM410,564.1c0,1.6-.3,2.4-1.3,2.8-1,.5-2.5.5-4.7.5-.1-.8-.6-2.1-1-2.8,1.4,0,3.1,0,3.6,0s.6-.2.6-.6v-8.3h-6.2v-8.9h9v17.2ZM403.6,549v1.2h3.6v-1.2h-3.6ZM407.3,553.5v-1.4h-3.6v1.4h3.6Z"/>
        <path class="cls-2" d="M429.6,546.2c1.4,2.9,4.3,6.3,6.8,8.2-.7.6-1.8,1.7-2.3,2.5-.5-.4-1-.9-1.5-1.5v.2c-.3,6.9-.5,9.7-1.3,10.6-.6.7-1.2,1-2.1,1.1-.8.1-2.1.1-3.5,0,0-.8-.4-2-.9-2.8,1.3,0,2.5.1,3,.1s.7,0,.9-.3c.5-.5.7-2.5.9-7.3h-4.5c-.6,4.4-2.1,8.3-8,10.6-.3-.8-1.1-1.9-1.8-2.5,5.2-1.7,6.4-4.7,6.8-8h-3.9v-1.6c-.6.6-1.2,1.2-1.8,1.7-.5-.6-1.7-1.7-2.3-2.2,2.9-1.9,5.4-5.1,6.8-8.6l2.9.9c-1.1,2.6-2.7,5.2-4.6,7.2h12.4c-1.8-2.1-3.5-4.6-4.8-7.1l2.7-1.1Z"/>
        <path class="cls-2" d="M446.8,563.3c1.4-.1,2.8-.3,4.2-.5v2.4c-3.8.6-8,1-11,1.4l-.3-2.7c1.2-.1,2.8-.2,4.5-.4v-2.5h-3.7v-2.5h3.7v-1.9h-3.8v-9.8h10.2v9.8h-3.8v1.9h3.8v2.5h-3.8v2.3ZM442.6,550.9h1.7v-1.7h-1.7v1.7ZM442.6,554.6h1.7v-1.7h-1.7v1.7ZM448.2,549.2h-1.7v1.7h1.7v-1.7ZM448.2,552.9h-1.7v1.7h1.7v-1.7ZM461.3,554.8c-.4,2-1,4.3-1.5,5.8l-2.2-.5c.2-.8.5-1.9.7-3.1h-1.5v7.3c0,1.3-.3,2.1-1.1,2.5-.9.4-2.1.5-3.8.5,0-.8-.5-1.9-.8-2.7,1,0,2.2,0,2.5,0,.3,0,.5,0,.5-.4v-7.3h-3v-2.6h4.8c-1.3-.9-2.8-1.8-4.2-2.5l1.7-1.7c.6.3,1.3.6,2,1,.5-.6,1.1-1.2,1.5-1.8h-5.5v-2.5h7.9c0-.1,1.7,1.1,1.7,1.1-.9,1.5-2.3,3.1-3.6,4.4.7.5,1.4.9,1.9,1.3l-.6.7h.9c0,0,1.8.3,1.8.3Z"/>
      </g>
      <g>
        <path class="cls-2" d="M293,646.1c0,.9,0,1.5-.6,2-.5.4-1,.5-1.8.5,0-.6-.3-1.6-.6-2.2v7.3h-2.3v-14.8h-1v10.1h-2v-12.5h3v-4.2h2.3v4.2h3v9.8ZM290.9,646.3c.1,0,.2,0,.2-.2v-7.3h-1v7.5h.9ZM305.4,633.1v2.2h-11.8v-2.2h11.8ZM293.6,643.4h11.7v10.1h-2.5v-.7h-6.8v.7h-2.4v-10.2ZM304.5,636.5v5.7h-9.9v-5.7h9.9ZM296,645.5v1.6h2.2v-1.6h-2.2ZM298.2,650.8v-1.6h-2.2v1.6h2.2ZM302.1,638.5h-5.2v1.7h5.2v-1.7ZM302.8,645.5h-2.3v1.6h2.3v-1.6ZM302.8,650.8v-1.6h-2.3v1.6h2.3Z"/>
        <path class="cls-2" d="M314.1,640.9c0,3.6-.4,9.2-2.5,12.7-.5-.5-1.7-1.3-2.3-1.5,2-3.2,2.1-8,2.1-11.2v-5.8h8.1v-2.9h2.8v2.9h8.3v2.6h-16.5v3.2ZM328.3,653.7c-.2-.6-.4-1.3-.8-2-4.8.4-10,.8-13.6,1l-.3-2.8c.8,0,1.7,0,2.7,0,1.1-3.1,2.4-7.5,3-11l3.1.6c-.9,3.5-2.1,7.3-3.2,10.2,2.2,0,4.6-.2,7-.3-.8-1.5-1.8-3-2.7-4.3l2.6-1.1c2,2.6,4.1,6.1,5,8.5l-2.8,1.3Z"/>
        <path class="cls-2" d="M338.6,638c0,1.5,0,3.2.1,4.8.3,3.3,1,5.5,2.4,5.5s2-2.7,2.4-4.5l2.3,2.8c-1.5,4-2.9,5.4-4.8,5.4s-4.7-2.3-5.3-8.4c-.2-2.1-.3-4.7-.3-6.1s0-1.6-.2-2.3h3.5c-.2.8-.3,2.2-.3,2.8ZM354.4,647.4l-3,1.1c-.3-3.7-1.6-9-4-11.8l2.9-1c2.2,2.6,3.9,8.1,4.2,11.6Z"/>
        <path class="cls-2" d="M360.5,639.2c-.4.5-.9,1-1.4,1.4-.3-.6-1-1.6-1.5-2.1,2.2-1.9,3.6-4.3,4.4-6.4h2.2c1.5,1.2,3.5,3,4.4,4.3l-1.7,2.4c-.7-1.1-2.1-2.8-3.4-4-.6,1-1.2,2.1-2.1,3.2h5v2.3h-5.8v-1.3ZM367.3,648.3c0,1-.1,1.7-.8,2.1-.7.4-1.5.4-2.6.4,0-.7-.3-1.7-.6-2.3.6,0,1.2,0,1.4,0,.2,0,.3,0,.3-.3v-3.9h-1.9v9.3h-2.4v-9.3h-1.9v-2.4h8.6v6.4ZM372.8,650.5c-1.3,1.2-3.4,2.5-5.2,3.2-.4-.5-1.2-1.3-1.8-1.8,1.8-.6,3.8-1.8,4.8-2.8l2.2,1.4ZM371.7,636.9c0-.5.2-1,.2-1.5h-4.4v-2.3h11.7v2.3h-4.3c-.2.5-.3,1-.5,1.5h4.1v12.2h-10.2v-12.2h3.4ZM375.9,638.9h-5.1v1.4h5.1v-1.4ZM375.9,642.2h-5.1v1.5h5.1v-1.5ZM375.9,645.5h-5.1v1.5h5.1v-1.5ZM375.9,649.2c1.3.8,3,2.1,3.9,2.9l-2.2,1.5c-.8-.9-2.5-2.2-3.8-3.1l2-1.4Z"/>
        <path class="cls-2" d="M390,647.4c-2,1.2-4.3,2.5-6.1,3.5l-1-2.8c.6-.3,1.4-.6,2.3-1v-6.9h-2.1v-2.6h2.1v-5.1h2.6v5.1h1.7v2.6h-1.7v5.5l1.6-.8.8,2.4ZM403.8,639.7c-.7,3-1.7,5.7-3.1,8,.4,2,.9,3.3,1.5,3.3s.5-.9.6-2.9c.5.6,1.3,1.2,1.8,1.5-.4,3.1-1.1,3.9-2.8,3.9s-2.3-1.2-3-3.2c-.9,1.2-2,2.2-3.2,3-.4-.5-1.4-1.3-2-1.7,1.1-.7,2.1-1.5,2.9-2.4-2.4.6-5,1.3-7,1.8l-.6-2.6c2-.4,5-1.1,7.9-1.7l.2,1.8c.3-.4.7-.8,1-1.3-.5-2.7-.8-6.1-1-9.7h-7.4v-2.5h7.3c0-1.1,0-2.1,0-3.1h2.6c0,1.1,0,2.1,0,3.1h2.4c-.6-.6-1.3-1.3-2-1.8l1.5-1.3c.9.6,2,1.6,2.5,2.2l-1,.9h1v2.5h-4.5c0,2.1.2,4,.4,5.8.5-1.3.9-2.8,1.3-4.3l2.4.5ZM396.3,639.3v7h-5.9v-7h5.9ZM394.2,641.4h-1.8v2.8h1.8v-2.8Z"/>
        <path class="cls-2" d="M417.4,649.9c.9-.1,1.5-.2,2.1-.4,2.9-.7,5.2-2.8,5.2-6.1s-1.7-5.5-4.8-6c-.3,1.9-.7,4-1.4,6.2-1.4,4.6-3.3,7.4-5.8,7.4s-4.6-2.8-4.6-6.6,4.6-9.7,10.5-9.7,9.2,3.9,9.2,8.9-2.9,8.2-8.7,9.1l-1.7-2.7ZM415.6,643c.5-1.7.9-3.6,1.2-5.5-3.8.8-5.8,4.1-5.8,6.6s.9,3.4,1.8,3.4,1.9-1.4,2.8-4.5Z"/>
        <path class="cls-2" d="M439,643.8c0,.3,0,.6-.2.9,1.2,1.2,3.7,4,4.3,4.8l-1.8,2.3c-.8-1.2-2.1-2.9-3.2-4.3-.8,2.3-2.1,4.4-4.3,6-.4-.6-1.4-1.7-2-2.1,3-2.1,4-5,4.4-7.7h-4.1v-2.6h4.3v-3.7h-.9c-.5,1.2-1,2.2-1.6,3.1-.5-.5-1.6-1.2-2.2-1.6,1.2-1.7,2.1-4.3,2.6-6.9l2.6.5c-.2.8-.3,1.6-.6,2.4h6.1v2.5h-3.2v3.7h3.8v2.6h-4ZM452.3,634.1v18.5h-2.8v-1.3h-3.3v1.7h-2.6v-18.8h8.8ZM449.6,648.7v-12h-3.3v12h3.3Z"/>
        <path class="cls-2" d="M474.7,650.8c.8,0,.9-.4,1-3.1.6.4,1.8.9,2.5,1.1-.3,3.6-1,4.6-3.3,4.6h-3c-2.7,0-3.4-.8-3.4-3.4v-3.7h-2.8c-.5,3.7-1.8,6.1-7.5,7.4-.3-.7-1-1.9-1.5-2.4,4.7-.9,5.7-2.4,6.1-4.9h-2.8v-13.5h15v13.5h-3.7v3.7c0,.7.1.8,1,.8h2.4ZM462.6,636.7h9.6v-1.4h-9.6v1.4ZM462.6,640.3h9.6v-1.4h-9.6v1.4ZM462.6,644h9.6v-1.4h-9.6v1.4Z"/>
      </g>
    </g>
  </g>
  <g>
    <rect class="cls-3" x="77.7" width="52.7" height="147.6" rx="6.6" ry="6.6"/>
    <g>
      <path class="cls-4" d="M106.4,44.7c0-.3,0-.6-.1-.9.8,0,1.6,0,2.2.1.2,0,.3.1.3.2s0,.2-.1.3c0,0,0,.1,0,.3h1.7c1.9,0,2.5,0,2.6,0,.2,0,.2,0,.2.2v1.4c0,.2,0,.3-.2.3s-.8,0-2.6,0h-1.7v.3c0,.8,0,1.5,0,2.2s-.3,1.3-.8,1.5c-.4.2-1.1.4-2.8.4s-.6,0-.8-.5c-.1-.7-.4-1.3-.6-1.6.8,0,1.5,0,1.9,0,.6,0,.9-.2.9-.7v-1.8h-9.1c-1.9,0-2.5,0-2.6,0-.2,0-.2,0-.2-.3v-1.4c0-.2,0-.2.2-.2s.8,0,2.6,0h9.1ZM100.1,43.4c-2.1,0-2.8,0-2.9,0-.2,0-.3,0-.3-.2s0-.7,0-1.9v-2.8c0-1.3,0-1.8,0-1.9,0-.2,0-.2.3-.2s.9,0,2.9,0h2.5v-1.1h-5c-1.9,0-2.5,0-2.7,0-.2,0-.2,0-.2-.2v-1.4c0-.2,0-.3.2-.3s.8,0,2.7,0h5c0-.8,0-1.3-.1-1.8.7,0,1.4,0,2.2.1.2,0,.3,0,.3.2s0,.3-.1.4c0,.1-.1.4-.1,1h5.3c1.9,0,2.6,0,2.7,0,.2,0,.2,0,.2.3v1.4c0,.2,0,.2-.2.2s-.8,0-2.7,0h-5.3v1.1h2.8c2.1,0,2.8,0,2.9,0,.2,0,.2,0,.2.2s0,.7,0,1.9v2.8c0,1.2,0,1.8,0,1.9,0,.2,0,.2-.2.2s-.9,0-2.9,0h-7.4ZM100,46.7c.3-.1.3-.1.5,0,.7.7,1.4,1.5,1.9,2.3.1.2,0,.3-.2.4l-1.5.8c-.3.1-.3.2-.4,0-.5-.9-1.2-1.7-1.9-2.4-.2-.2-.1-.3.1-.4l1.4-.7ZM102.6,39.2v-1.2h-3.5v1.2h3.5ZM102.6,41.9v-1.3h-3.5v1.3h3.5ZM104.6,38v1.2h3.9v-1.2h-3.9ZM108.5,40.7h-3.9v1.3h3.9v-1.3Z"/>
      <path class="cls-4" d="M100.6,54.7c1.3,0,1.9,0,2,0,.2,0,.2,0,.2.2s0,.8,0,2.1v3.1c0,1.3,0,2,0,2.1,0,.2,0,.2-.2.2s-.7,0-2,0h-3.2v5.9c0,2.8,0,4.2,0,4.4,0,.2,0,.2-.2.2h-1.8c-.2,0-.2,0-.2-.2s0-1.5,0-4.4v-9c0-2.8,0-4.3,0-4.4,0-.2,0-.2.2-.2s.9,0,2.4,0h2.8ZM97.4,56.3v1.5h3.3v-1.5h-3.3ZM100.8,59.3h-3.3v1.5h3.3v-1.5ZM112.3,66c0,1.5,0,3.1,0,4.2s-.1,1.5-.6,1.9c-.5.4-1,.6-3.2.6s-.7,0-.8-.7c-.1-.6-.3-1.2-.5-1.6.8,0,1.5.1,2,.1s.9-.2.9-.8v-7.4h-3.2c-1.6,0-2.1,0-2.3,0-.2,0-.3,0-.3-.2s0-.7,0-2v-3.4c0-1.3,0-1.8,0-2,0-.2,0-.2.3-.2s.6,0,2.3,0h2.9c1.6,0,2.2,0,2.3,0,.2,0,.2,0,.2.2s0,1,0,2.7v8.4ZM106.5,56.3v1.5h3.6v-1.5h-3.6ZM110.1,60.8v-1.5h-3.6v1.5h3.6Z"/>
      <path class="cls-4" d="M106.5,76.2c.3-.1.3-.1.4.1,1.4,3.2,3.9,6.1,6.8,7.7-.4.3-.9,1-1.2,1.6-.2.3-.3.5-.4.5s-.2-.1-.4-.3c-.7-.5-1.4-1.1-2-1.7,0,.6,0,1.3,0,2.1,0,2.2-.2,3.9-.5,5.9-.3,1.7-1.1,2.6-3.1,2.6s-.9,0-1.4,0c-.6,0-.6,0-.8-.7-.1-.7-.4-1.3-.6-1.7,1,.1,1.7.2,2.4.2s1.2-.3,1.4-1.3c.2-1.2.4-2.8.4-5.2h-3.7c-.4,4.2-2.5,7.2-6.4,8.9-.2.1-.4.2-.5.2s-.2-.1-.4-.5c-.3-.5-.7-1-1.1-1.3,3.8-1.4,5.7-3.6,6-7.3h-.3c-2,0-2.6,0-2.8,0-.2,0-.2,0-.2-.2v-1.5c-.6.6-1.3,1.2-2,1.7-.2.2-.4.3-.5.3s-.2-.1-.4-.5c-.3-.5-.8-1-1.2-1.3,2.8-1.8,4.9-4.3,6-6.9.2-.4.3-.8.4-1.3.8.2,1.6.5,2.2.7.2.1.3.2.3.4s0,.2-.2.3c-.2.2-.3.4-.5.7-1,2.3-2.3,4-3.8,5.5.3,0,1,0,2.6,0h5.6c1.8,0,2.5,0,2.7,0-1.9-2-3.5-4.2-4.5-6.6,0-.2,0-.3.2-.4l1.5-.6Z"/>
      <path class="cls-4" d="M101.2,109.2c1.8,0,2.4,0,2.5,0,.2,0,.3,0,.3.2v1.4c0,.2,0,.2-.3.2s-.7,0-2.5,0h-.9v2c1.3-.2,2.6-.4,3.9-.7,0,.4-.1.8-.1,1.2q0,.7-.7.8c-2.2.5-4.6.9-7.1,1.3-.4,0-.7.1-.8.2-.1.1-.3.1-.4.1s-.2-.1-.3-.3c-.2-.6-.4-1.4-.5-2,.7,0,1.4,0,2.1-.2.6,0,1.3-.1,2-.3v-2.3h-.9c-1.8,0-2.4,0-2.5,0-.2,0-.2,0-.2-.2v-1.4c0-.2,0-.2.2-.2s.7,0,2.5,0h.9v-1.8h-.8c-1.7,0-2.3,0-2.4,0-.2,0-.2,0-.2-.2s0-.7,0-2.2v-4c0-1.4,0-2,0-2.2,0-.2,0-.2.2-.2s.7,0,2.4,0h3.4c1.7,0,2.3,0,2.4,0,.2,0,.3,0,.3.2s0,.8,0,2.2v4c0,1.4,0,2,0,2.2,0,.2,0,.2-.3.2s-.7,0-2.4,0h-.7v1.8h.9ZM98.4,102.2v-1.8h-1.5v1.8h1.5ZM98.4,105.8v-2h-1.5v2h1.5ZM100.3,100.4v1.8h1.5v-1.8h-1.5ZM101.8,103.8h-1.5v2h1.5v-2ZM106.3,101.6c.2-.2.3-.1.4,0,.5.4.9.8,1.4,1.2.7-.6,1.2-1.4,1.8-2.2h-2.8c-1.7,0-2.2,0-2.3,0-.2,0-.2,0-.2-.2v-1.5c0-.2,0-.2.2-.2s.6,0,2.3,0h3.6c.3,0,.4,0,.5,0,.1,0,.2,0,.3,0s.3.1.8.6c.5.5.6.7.6.9s0,.3-.2.3c-.2.1-.3.3-.6.7-.8,1.1-1.6,2.1-2.5,3,.2.2.3.4.5.6.1.1.1.3,0,.4l-.2.2h1.8c.2,0,.3,0,.4,0,.1,0,.2-.1.3-.1.2,0,.3,0,.8.6.5.5.5.7.5.9s0,.2-.1.3c0,.1-.1.3-.3.6-.5,1-1,1.9-1.6,2.7-.2.3-.3.4-.4.4s-.2,0-.4-.2c-.5-.3-.9-.6-1.3-.7.8-.9,1.2-1.5,1.7-2.5h-1.8v4.8c0,1,0,1.9,0,2.4,0,.9-.1,1.5-.7,1.9-.5.4-1.2.5-2.7.5s-.7,0-.8-.6c-.1-.6-.3-1.1-.6-1.5.7,0,1.2,0,1.9,0s.8-.1.8-.8v-6.8h-.2c-1.8,0-2.4,0-2.5,0-.2,0-.2,0-.2-.2v-1.5c0-.2,0-.3.2-.3s.7,0,2.5,0h.9c-.9-1-1.8-1.9-2.7-2.6-.2-.1-.2-.2,0-.4l1-.8Z"/>
    </g>
  </g>
  <polygon class="cls-1" points="254.8 39.4 254.8 20.6 275.4 30 254.8 39.4"/>
  <g>
    <rect class="cls-6" x="313.4" y="2.3" width="134.4" height="52.7"/>
    <g>
      <path class="cls-2" d="M342.4,21h3.4v17h-3.4v-17Z"/>
      <path class="cls-2" d="M371.3,36.8v2.5h-20.7v-2.5h9v-1.8h-6.7v-2.5h6.6v-1.4h-1.7v-4.4h-2.1c-.4,1.9-1.3,3.8-3.6,5-.3-.5-1.3-1.5-1.8-1.9,1.7-.9,2.5-2,2.8-3.1h-2.3v-2.4h2.6v-2.4h-1.8v-2.4h10.4v2.4h-1.6v2.4h2.2v2.4h-2.2v4h2v1.8h6.6v2.5h-6.6v1.8h8.9ZM357.9,24.2v-2.4h-1.9v2.4h1.9ZM366.1,27.7h-2.5v-7.8h2.5v7.8ZM370.4,28.6c0,1.3-.2,1.9-1.1,2.3-.8.4-2,.4-3.6.4-.1-.7-.5-1.7-.8-2.4,1,0,2.1,0,2.5,0,.3,0,.4,0,.4-.4v-9.8h2.6v9.8Z"/>
      <path class="cls-2" d="M387.4,19.1c0,.4,0,.8,0,1.3.2,3.2,1.3,13.1,9.9,17.1-.9.6-1.7,1.6-2.1,2.3-5.2-2.6-7.8-7.3-9.1-11.5-1.2,4.1-3.7,8.6-8.5,11.5-.5-.7-1.4-1.5-2.3-2.2,9.2-5.1,8.8-15.5,9-18.5h3.1Z"/>
      <path class="cls-2" d="M408.5,32.4c-.5-.7-1.2-1.8-2-2.8v10.4h-2.8v-8.9c-.8,2-1.7,3.9-2.8,5.1-.3-.9-.9-2-1.4-2.7,1.6-1.8,3.1-4.9,3.9-7.6h-3.2v-2.6h3.5v-4.7h2.8v4.7h2.9v2.6h-2.9v.6c.9.8,3,3,3.5,3.5l-1.6,2.3ZM421.3,25.9h-2.2v10.8c0,1.6-.3,2.3-1.3,2.7-.9.5-2.4.5-4.4.5-.1-.8-.5-2-.9-2.8,1.3,0,2.7,0,3.1,0,.4,0,.6-.1.6-.6v-7c-1.7,2.7-3.9,5.3-6.1,7-.5-.7-1.3-1.7-2-2.3,2.8-1.8,5.6-5.1,7.3-8.5h-5.3v-2.6h6.1v-4.7h2.9v4.7h2.2v2.6Z"/>
    </g>
    <g>
      <path class="cls-2" d="M244.7,88.2c-.7-.9-1.4-1.9-2.1-3.1.2,5.2-2.3,10.2-8.2,10.2s-6.4-2.4-6.4-6.3,1.8-6.9,3.6-8.9c-.9.1-2.1.3-2.9.5-.4,0-.8.2-1.3.3l-.4-3c.4,0,.9,0,1.3,0,2.4-.2,6.2-.8,7.7-1.3l.9,2.5c-.3.1-.8.3-1.1.5-1.6,1.2-4.7,5.2-4.7,9.1s1.6,3.7,3.6,3.7c4.4,0,6.9-5.3,5.1-13.6-.2-.4-.3-.9-.5-1.3l2.8-.9c.6,2.8,1.9,6.4,4.9,9.4l-2.1,2.3Z"/>
      <path class="cls-2" d="M266.5,80.7c-.7.4-1.4.8-2.3,1.2-1.4.7-4.3,2-6.3,3.4-1.9,1.2-3.2,2.6-3.2,4.1s1.6,2.5,4.7,2.5,5.4-.4,7.4-.8v3.3c-2,.3-4.4.6-7.4.6-4.5,0-8-1.3-8-5.2s1.6-4.4,3.8-6c-1.1-2-2.2-4.4-3.2-6.8l2.9-1.2c.9,2.4,1.9,4.6,2.8,6.3,1.9-1.1,3.8-2.1,4.9-2.7.8-.5,1.5-.9,2.1-1.4l1.6,2.6Z"/>
      <path class="cls-2" d="M275,80.7c1.8-.5,6.4-2.2,9.7-2.2s7.4,2.4,7.4,6.6-4.9,8.5-12.9,8.9l-1.3-3c6.2-.1,11-1.9,11-5.9s-1.5-3.8-4.2-3.8-8.7,2.3-11.1,3.3l-1.3-3.2c.8-.1,2-.4,2.8-.7Z"/>
      <path class="cls-2" d="M306,92.3c.9-.1,1.5-.2,2.1-.4,2.9-.7,5.2-2.8,5.2-6.1s-1.7-5.5-4.8-6c-.3,1.9-.7,4-1.4,6.2-1.4,4.6-3.3,7.4-5.8,7.4s-4.6-2.8-4.6-6.6,4.6-9.7,10.5-9.7,9.2,3.9,9.2,8.9-2.9,8.2-8.7,9.1l-1.7-2.7ZM304.2,85.4c.5-1.7.9-3.6,1.2-5.5-3.8.8-5.8,4.1-5.8,6.6s.9,3.4,1.8,3.4,1.9-1.4,2.8-4.5Z"/>
      <path class="cls-2" d="M341.6,90.7h-4.9v2.7c0,1.3-.3,1.9-1.2,2.3-.9.3-2.3.4-4.2.4-.1-.7-.5-1.7-.9-2.4,1.2,0,2.7,0,3.1,0,.4,0,.5-.1.5-.4v-2.6h-7.5c1.1.8,2.4,2,3,2.8l-2.2,1.6c-.6-.9-2.1-2.3-3.3-3.2l1.7-1.2h-4.9v-2.3h13.2v-1.2h-11v-7.8h6.8v-1h-8.4v-2.2h8.4v-1.5h2.7v1.5h8.6v2.2h-8.6v1h7.1v7.8h-2.8v1.2h4.9v2.3ZM325.5,82.4h4.2v-1.2h-4.2v1.2ZM325.5,85.3h4.2v-1.2h-4.2v1.2ZM332.4,81.2v1.2h4.4v-1.2h-4.4ZM336.8,84.1h-4.4v1.2h4.4v-1.2Z"/>
      <path class="cls-2" d="M354.8,84.3h-6v11.7h-2.7v-20.5h8.8v8.8ZM348.8,77.7v1.2h3.5v-1.2h-3.5ZM352.3,82.1v-1.3h-3.5v1.3h3.5ZM365.4,92.7c0,1.6-.3,2.4-1.3,2.8-1,.5-2.5.5-4.7.5-.1-.8-.6-2.1-1-2.8,1.4,0,3.1,0,3.6,0s.6-.2.6-.6v-8.3h-6.2v-8.9h9v17.2ZM359.1,77.7v1.2h3.6v-1.2h-3.6ZM362.7,82.2v-1.4h-3.6v1.4h3.6Z"/>
      <path class="cls-2" d="M385,74.8c1.4,2.9,4.3,6.3,6.8,8.2-.7.6-1.8,1.7-2.3,2.5-.5-.4-1-.9-1.5-1.5v.2c-.3,6.9-.5,9.7-1.3,10.6-.6.7-1.2,1-2.1,1.1-.8.1-2.1.1-3.5,0,0-.8-.4-2-.9-2.8,1.3,0,2.5.1,3,.1s.7,0,.9-.3c.5-.5.7-2.5.9-7.3h-4.5c-.6,4.4-2.1,8.3-8,10.6-.3-.8-1.1-1.9-1.8-2.5,5.2-1.7,6.4-4.7,6.8-8h-3.9v-1.6c-.6.6-1.2,1.2-1.8,1.7-.5-.6-1.7-1.7-2.3-2.2,2.9-1.9,5.4-5.1,6.8-8.6l2.9.8c-1.1,2.6-2.7,5.2-4.6,7.2h12.4c-1.8-2.1-3.5-4.6-4.8-7.1l2.7-1.1Z"/>
      <path class="cls-2" d="M402.2,92c1.4-.1,2.8-.3,4.2-.5v2.4c-3.8.6-8,1-11,1.4l-.3-2.7c1.2-.1,2.8-.2,4.5-.4v-2.5h-3.7v-2.5h3.7v-1.9h-3.8v-9.8h10.2v9.8h-3.8v1.9h3.8v2.5h-3.8v2.3ZM398,79.5h1.7v-1.7h-1.7v1.7ZM398,83.3h1.7v-1.7h-1.7v1.7ZM403.7,77.8h-1.7v1.7h1.7v-1.7ZM403.7,81.5h-1.7v1.7h1.7v-1.7ZM416.7,83.5c-.4,2-1,4.3-1.5,5.8l-2.2-.5c.2-.8.5-1.9.7-3.1h-1.5v7.3c0,1.3-.3,2.1-1.1,2.5-.9.4-2.1.5-3.8.5,0-.8-.5-1.9-.8-2.7,1,0,2.2,0,2.5,0,.3,0,.5,0,.5-.4v-7.3h-3v-2.6h4.8c-1.3-.9-2.8-1.8-4.2-2.5l1.7-1.7c.6.3,1.3.6,2,1,.5-.6,1.1-1.2,1.5-1.8h-5.5v-2.5h7.9c0-.1,1.7,1.1,1.7,1.1-.9,1.5-2.3,3.1-3.6,4.4.7.5,1.4.9,1.9,1.3l-.6.7h.9c0,0,1.8.3,1.8.3Z"/>
      <path class="cls-2" d="M425.6,76.5c-.2.5-.5,1.6-.6,2-.3,1.5-1.1,6.1-1.1,8.3s0,1,0,1.5c.3-.8.7-1.6,1-2.3l1.4,1.1c-.6,1.9-1.4,4.4-1.6,5.6,0,.3-.1.8-.1,1.1,0,.3,0,.6,0,.9l-2.6.2c-.5-1.6-.9-4.4-.9-7.4s.7-7.3.9-9c0-.6.2-1.5.2-2.2l3.2.3ZM430.9,87.7c-.2.7-.3,1.3-.3,1.9,0,1,.9,1.6,3.2,1.6s3.7-.2,5.7-.6v3.1c-1.4.3-3.2.5-5.8.5-3.9,0-5.8-1.4-5.8-3.7s.2-1.9.4-3l2.6.3ZM438.8,78v2.9c-2.8.3-6.9.3-9.8,0v-2.9c2.8.4,7.3.3,9.8,0Z"/>
      <path class="cls-2" d="M462.5,83.6v2.1h2.3v2.5h-2.3v4.8c0,1.4-.2,2.1-1.1,2.6-.9.4-2.2.5-4,.5,0-.8-.5-2-.8-2.7,1.1,0,2.4,0,2.8,0,.4,0,.5,0,.5-.4v-4.8h-4.8c1,1,2.2,2.4,2.8,3.4l-2.2,1.4c-.5-1-1.6-2.5-2.6-3.6l2-1.2h-2.8v-1.2c-.7.2-1.4.4-2,.6v8.4h-2.5v-7.7c-1.2.4-2.4.7-3.4,1l-.6-2.6c1.1-.3,2.6-.6,4.1-1v-4.2h-1.5c-.2,1.1-.5,2.1-.9,2.9-.4-.3-1.4-1-1.9-1.2.7-1.8,1.1-4.7,1.3-7.4l2.3.4c0,.9-.2,1.8-.3,2.8h1.1v-4.3h2.5v4.3h1.9v2.2h5.1v-2h-4.1v-2.5h4.1v-2h2.7v2h4.2v2.5h-4.2v2h5.2v2.5h-2.5ZM459.8,83.6h-8.2v-2.1h-1.5v3.5l2.1-.6.2,1.2h7.4v-2.1Z"/>
      <path class="cls-2" d="M477.6,75.8c-.7,1.6-1.5,3.1-2.4,4.6v15.6h-2.7v-11.7c-.7.9-1.5,1.7-2.3,2.4-.3-.7-1.1-2.2-1.6-2.9,2.5-2.1,4.9-5.5,6.3-8.9l2.7.9ZM486.7,93.2c1.1,0,1.3-.8,1.5-4,.6.5,1.8,1,2.5,1.2-.3,4-1,5.4-3.7,5.4h-3.9c-2.9,0-3.7-.9-3.7-4.2v-16.4h2.8v7.9c2.2-1.2,4.3-2.7,5.8-4l2,2.4c-2.3,1.6-5.1,3.1-7.8,4.4v5.8c0,1.4.2,1.6,1.3,1.6h3.4Z"/>
      <path class="cls-2" d="M500.1,75.9c-.2,1-.3,2.1-.3,3-.1,2.4-.3,7.5-.3,10.4s1.4,3,3.1,3c3.8,0,6.2-2.2,7.8-4.6l2.1,2.6c-1.5,2.2-4.7,5.2-9.9,5.2s-6.1-1.6-6.1-5.5.2-9,.2-11,0-2.2-.3-3.1h3.7Z"/>
      <path class="cls-2" d="M528.7,80.9c-1.4.3-2.9.6-4.4.7-.2,1-.4,2-.7,2.9-.8,3.2-2.4,7.9-3.6,10.5l-3.2-1.1c1.4-2.3,3.1-7.1,3.9-10.2.2-.6.3-1.2.5-1.9-.5,0-1,0-1.5,0-1.1,0-2,0-2.8,0v-2.8c1.1.1,1.9.2,2.8.2s1.3,0,2,0c0-.5.2-.9.2-1.3.1-.9.1-1.8,0-2.3l3.5.3c-.2.6-.4,1.6-.5,2.1l-.2.9c1.3-.2,2.6-.5,3.8-.8v2.9ZM528.2,88.4c-.2.6-.3,1.4-.3,1.9,0,1,.6,1.7,3,1.7s3.1-.2,4.7-.5v2.9c-1.4.2-2.9.3-4.8.3-3.8,0-5.8-1.3-5.8-3.6s.2-2.1.4-3l2.7.3ZM526.9,82.6c1.3-.1,2.9-.2,4.4-.2s2.7,0,4,.2v2.7c-1.2-.1-2.6-.3-4-.3s-3,0-4.4.3v-2.7Z"/>
      <path class="cls-2" d="M321.1,123.2c-.2.3-.6,1-.8,1.4-.8,1.8-2.1,4.3-3.6,6.3,2.3,2,5.1,4.9,6.4,6.6l-2.6,2.3c-1.5-2.1-3.6-4.4-5.8-6.5-2.4,2.6-5.5,5-8.6,6.5l-2.4-2.5c3.7-1.4,7.3-4.2,9.4-6.6,1.5-1.7,2.9-4,3.4-5.6h-7.8c-1,0-2.2.1-2.7.2v-3.3c.6,0,2,.2,2.7.2h8.1c1,0,1.9-.1,2.4-.3l1.9,1.4Z"/>
      <path class="cls-2" d="M327.2,130.5c1.1-1.1,2.8-3.3,4.4-5.2,1.4-1.6,2.6-1.8,4.5-.2,1.5,1.3,3.3,3.1,4.7,4.7,1.5,1.7,4,4.3,5.7,6.2l-2.5,2.7c-1.5-1.9-3.6-4.4-4.9-6-1.4-1.7-3.4-3.8-4.2-4.5-.8-.7-1.2-.7-1.9.1-.9,1.1-2.6,3.4-3.5,4.7-.5.7-1.1,1.5-1.5,2.1l-2.7-2.8c.7-.6,1.2-1.1,1.9-1.7ZM342.6,121.7c1.7,0,3,1.3,3,3s-1.3,3-3,3-3-1.3-3-3,1.3-3,3-3ZM342.6,126.2c.8,0,1.5-.6,1.5-1.4s-.7-1.5-1.5-1.5-1.4.7-1.4,1.5.6,1.4,1.4,1.4Z"/>
      <path class="cls-2" d="M357.2,129.1l-1.7,2.6c-1.3-.9-3.7-2.5-5.2-3.3l1.7-2.6c1.5.8,4.1,2.4,5.2,3.2ZM359,134.3c3.9-2.2,7.1-5.3,8.9-8.6l1.8,3.1c-2.1,3.2-5.4,6.1-9.1,8.2-2.3,1.3-5.6,2.5-7.7,2.8l-1.7-3c2.6-.4,5.3-1.2,7.8-2.6ZM360.7,123.9l-1.7,2.6c-1.3-.9-3.7-2.5-5.2-3.3l1.7-2.5c1.5.8,4,2.5,5.2,3.3Z"/>
      <path class="cls-2" d="M384.8,133.7c1.2-1.1,2.8-3,3.4-4.1-.6.1-2.8.6-5.3,1.1.9,3.1,1.8,6.7,2.2,7.9.1.4.4,1.4.6,1.9l-3.1.8c0-.6-.2-1.4-.4-2-.3-1.2-1.3-4.8-2.1-8-1.9.4-3.6.8-4.3.9l-.7-2.8c.7,0,1.4-.1,2.1-.3.3,0,1.1-.2,2.2-.4-.2-.9-.4-1.6-.6-2.1-.2-.6-.4-1.1-.6-1.6l3.1-.7c0,.6.2,1.1.4,1.7l.6,2.2c2.9-.6,6.1-1.2,7-1.4.4,0,.8-.2,1.2-.4l1.8,1.3c-1,2-3.3,5.5-4.9,7.2l-2.5-1.3Z"/>
      <path class="cls-2" d="M402.2,121.2c0,.5,0,1,0,1.7v7.8c0,.6,0,1.5,0,2h-3.4c0-.4.1-1.3.1-2v-7.7c0-.4,0-1.2,0-1.7h3.4ZM412.8,120.9c0,.6,0,1.4,0,2.3v4.5c0,4.9-1,7.1-2.7,8.9-1.5,1.7-3.9,2.8-5.6,3.3l-2.4-2.5c2.3-.5,4.2-1.4,5.6-2.9,1.6-1.7,1.9-3.4,1.9-7v-4.4c0-.9,0-1.7-.1-2.3h3.4Z"/>
      <path class="cls-2" d="M435.1,123.2c-.2.3-.6,1-.8,1.4-.8,1.8-2.1,4.3-3.6,6.3,2.3,2,5.1,4.9,6.4,6.6l-2.6,2.3c-1.5-2.1-3.6-4.4-5.8-6.5-2.4,2.6-5.5,5-8.6,6.5l-2.4-2.5c3.7-1.4,7.3-4.2,9.4-6.6,1.5-1.7,2.9-4,3.4-5.6h-7.8c-1,0-2.2.1-2.7.2v-3.3c.6,0,2,.2,2.7.2h8.1c1,0,1.9-.1,2.4-.3l1.9,1.4Z"/>
      <path class="cls-2" d="M456.1,133.5c-2.4-1.2-5.8-2.6-8.3-3.4v6.5c0,.7.1,2.3.2,3.2h-3.6c.1-.9.2-2.3.2-3.2v-13.2c0-.8,0-2-.2-2.8h3.6c0,.8-.2,1.8-.2,2.8v3.4c3.1.9,7.5,2.5,9.6,3.6l-1.3,3.2Z"/>
    </g>
  </g>
</svg>