<svg viewBox="0 0 550 382.166" xmlns="http://www.w3.org/2000/svg"><path d="m0 287.002h244.213v95.164h-244.213z" fill="#b3bfc4"/><path d="m305.787 287.002h244.213v95.164h-244.213z" fill="#d9dfe1"/><path d="m0 0h548.956v81.404h-548.956z" fill="#005a96"/><path d="m90.913 340.477h-4.488v2.442c0 1.189-.25 1.753-1.127 2.087-.856.313-2.108.334-3.778.334-.104-.668-.459-1.545-.772-2.171 1.106.042 2.421.042 2.776.042.334-.021.459-.104.459-.376v-2.358h-6.784c1.044.751 2.192 1.774 2.755 2.525l-1.983 1.461c-.564-.835-1.879-2.087-2.985-2.922l1.503-1.064h-4.467v-2.088h11.961v-1.106h-9.957v-7.097h6.137v-.939h-7.661v-2.024h7.661v-1.378h2.421v1.378h7.828v2.024h-7.828v.939h6.408v7.097h-2.568v1.106h4.488v2.088zm-14.591-7.536h3.841v-1.064h-3.841zm0 2.651h3.841v-1.064h-3.841zm6.263-3.716v1.064h3.987v-1.064zm3.987 2.652h-3.987v1.064h3.987z"/><path d="m101.558 334.695h-5.49v10.625h-2.463v-18.662h7.953zm-5.49-6.033v1.086h3.173v-1.086zm3.173 4.049v-1.189h-3.173v1.189zm11.94 9.603c0 1.419-.292 2.149-1.211 2.525-.898.418-2.275.459-4.3.459-.104-.709-.501-1.879-.877-2.547 1.315.084 2.86.063 3.298.063s.584-.146.584-.543v-7.515h-5.657v-8.1h8.162v15.656zm-5.803-13.652v1.086h3.298v-1.086zm3.298 4.091v-1.231h-3.298v1.231z"/><path d="m115.709 332.19c-.397.438-.835.897-1.294 1.314-.271-.563-.918-1.481-1.378-1.878 1.962-1.691 3.256-3.945 3.966-5.782h1.983c1.357 1.085 3.173 2.734 3.987 3.945l-1.524 2.191c-.626-1.002-1.879-2.547-3.068-3.632-.501.918-1.127 1.941-1.92 2.943h4.509v2.066h-5.26v-1.169zm6.221 8.308c0 .939-.125 1.565-.731 1.899-.605.354-1.336.376-2.38.376-.063-.626-.292-1.503-.564-2.088.584.021 1.106.021 1.294 0 .188 0 .23-.062.23-.25v-3.569h-1.733v8.412h-2.213v-8.412h-1.733v-2.15h7.828v5.782zm4.947 1.983c-1.148 1.106-3.11 2.274-4.718 2.901-.397-.48-1.127-1.19-1.67-1.629 1.628-.563 3.465-1.67 4.363-2.588l2.025 1.315zm-1.002-12.379c.083-.459.146-.918.209-1.378h-3.966v-2.087h10.583v2.087h-3.903c-.146.48-.292.939-.438 1.378h3.757v11.043h-9.289v-11.043h3.048zm3.862 1.837h-4.655v1.315h4.655zm0 3.006h-4.655v1.336h4.655zm0 3.048h-4.655v1.336h4.655zm-.021 3.319c1.148.751 2.734 1.878 3.549 2.672l-1.962 1.398c-.71-.793-2.254-2.004-3.423-2.839l1.837-1.231z"/><path d="m140.757 339.663c-1.837 1.085-3.862 2.233-5.573 3.152l-.939-2.505c.584-.251 1.294-.585 2.067-.939v-6.241h-1.879v-2.359h1.879v-4.676h2.317v4.676h1.566v2.38h-1.566v5.03l1.419-.709.71 2.191zm12.545-6.931c-.647 2.735-1.566 5.178-2.776 7.265.355 1.857.835 2.985 1.336 2.985.292 0 .459-.772.522-2.631.459.585 1.148 1.106 1.67 1.378-.355 2.776-.96 3.569-2.526 3.569-1.169 0-2.046-1.106-2.693-2.881-.856 1.065-1.837 1.983-2.922 2.756-.334-.418-1.252-1.211-1.774-1.565 1.002-.626 1.879-1.378 2.672-2.213-2.213.585-4.551 1.211-6.346 1.67l-.584-2.317c1.816-.334 4.551-.96 7.181-1.544l.188 1.648c.313-.375.605-.751.877-1.147-.48-2.484-.751-5.532-.877-8.768h-6.742v-2.254h6.659c-.021-.961-.042-1.899-.042-2.86h2.359c-.021.961-.021 1.899 0 2.86h2.213c-.522-.543-1.211-1.169-1.816-1.649l1.399-1.211c.814.585 1.816 1.42 2.296 2.025l-.898.835h.918v2.254h-4.05c.083 1.899.209 3.674.397 5.261.48-1.211.835-2.505 1.148-3.903l2.213.438zm-6.826-.397v6.346h-5.365v-6.346zm-1.941 1.901h-1.607v2.546h1.607z"/><path d="m168.873 339.538h-5.01l-1.085 3.966h-3.131l4.947-15.447h3.632l4.968 15.447h-3.235l-1.085-3.966zm-.668-2.401-.459-1.691c-.48-1.607-.898-3.382-1.357-5.052h-.083c-.397 1.691-.856 3.444-1.315 5.052l-.459 1.691h3.674z"/><path d="m396.269 341.829h-4.488v2.442c0 1.189-.25 1.753-1.127 2.087-.856.313-2.108.334-3.778.334-.104-.668-.459-1.545-.772-2.171 1.106.042 2.421.042 2.776.042.334-.021.459-.104.459-.376v-2.358h-6.784c1.044.751 2.192 1.774 2.755 2.525l-1.983 1.461c-.563-.835-1.879-2.087-2.985-2.922l1.503-1.064h-4.467v-2.088h11.961v-1.106h-9.957v-7.097h6.137v-.939h-7.661v-2.024h7.661v-1.378h2.421v1.378h7.828v2.024h-7.828v.939h6.408v7.097h-2.567v1.106h4.488zm-14.591-7.537h3.841v-1.064h-3.841zm0 2.652h3.841v-1.064h-3.841zm6.263-3.716v1.064h3.987v-1.064zm3.986 2.651h-3.987v1.064h3.987z"/><path d="m406.914 336.046h-5.49v10.625h-2.463v-18.662h7.953zm-5.49-6.033v1.086h3.173v-1.086zm3.173 4.05v-1.189h-3.173v1.189zm11.94 9.603c0 1.419-.292 2.149-1.211 2.525-.897.418-2.275.459-4.3.459-.104-.709-.501-1.879-.877-2.547 1.315.084 2.86.063 3.298.063s.584-.146.584-.543v-7.515h-5.657v-8.1h8.162v15.656zm-5.803-13.653v1.086h3.298v-1.086zm3.298 4.092v-1.231h-3.298v1.231z"/><path d="m421.065 333.542c-.397.438-.835.897-1.294 1.314-.271-.563-.918-1.481-1.378-1.878 1.962-1.691 3.256-3.945 3.966-5.782h1.983c1.357 1.085 3.173 2.734 3.987 3.945l-1.524 2.191c-.626-1.002-1.879-2.547-3.068-3.632-.501.918-1.127 1.941-1.92 2.943h4.509v2.066h-5.26v-1.169zm6.221 8.307c0 .939-.125 1.565-.731 1.899-.605.354-1.336.376-2.38.376-.062-.626-.292-1.503-.563-2.088.584.021 1.106.021 1.294 0 .188 0 .229-.062.229-.25v-3.569h-1.732v8.412h-2.213v-8.412h-1.733v-2.15h7.828v5.782zm4.947 1.984c-1.148 1.106-3.11 2.274-4.718 2.901-.396-.48-1.127-1.19-1.67-1.629 1.628-.563 3.465-1.67 4.363-2.588l2.025 1.315zm-1.002-12.379c.083-.459.146-.918.209-1.378h-3.966v-2.087h10.583v2.087h-3.904c-.146.48-.292.939-.438 1.378h3.757v11.043h-9.289v-11.043zm3.862 1.837h-4.655v1.315h4.655zm0 3.005h-4.655v1.336h4.655zm0 3.048h-4.655v1.336h4.655zm-.021 3.32c1.148.751 2.735 1.878 3.549 2.672l-1.962 1.398c-.71-.793-2.254-2.004-3.423-2.839l1.837-1.231z"/><path d="m446.113 341.014c-1.837 1.085-3.862 2.233-5.573 3.152l-.939-2.505c.584-.251 1.294-.585 2.066-.939v-6.241h-1.879v-2.359h1.879v-4.676h2.317v4.676h1.565v2.38h-1.565v5.03l1.419-.709zm12.545-6.93c-.647 2.735-1.565 5.178-2.776 7.265.355 1.857.835 2.985 1.336 2.985.292 0 .459-.772.522-2.631.459.585 1.148 1.106 1.67 1.378-.355 2.776-.96 3.569-2.526 3.569-1.169 0-2.046-1.106-2.693-2.881-.856 1.065-1.837 1.983-2.922 2.756-.334-.418-1.252-1.211-1.774-1.565 1.002-.626 1.879-1.378 2.672-2.213-2.213.585-4.551 1.211-6.346 1.67l-.584-2.317c1.816-.334 4.551-.96 7.181-1.544l.188 1.648c.313-.375.605-.751.877-1.147-.48-2.484-.751-5.532-.877-8.768h-6.742v-2.254h6.659c-.021-.961-.042-1.899-.042-2.86h2.359c-.021.961-.021 1.899 0 2.86h2.213c-.522-.543-1.211-1.169-1.816-1.649l1.399-1.211c.814.585 1.816 1.42 2.296 2.025l-.898.835h.918v2.254h-4.05c.083 1.899.209 3.674.397 5.261.48-1.211.835-2.505 1.148-3.903l2.213.438zm-6.826-.397v6.346h-5.365v-6.346zm-1.941 1.9h-1.607v2.546h1.607z"/><path d="m466.986 329.408h5.114c3.173 0 5.594.919 5.594 3.8 0 1.419-.793 2.88-2.108 3.34v.104c1.67.396 2.901 1.565 2.901 3.652 0 3.11-2.588 4.551-5.991 4.551h-5.511v-15.447zm4.884 6.283c1.962 0 2.818-.793 2.818-2.024 0-1.356-.918-1.899-2.776-1.899h-1.837v3.924h1.795zm.355 6.784c2.108 0 3.256-.751 3.256-2.358 0-1.503-1.127-2.129-3.256-2.129h-2.15v4.487z"/><circle cx="38.093" cy="162.182" fill="#005a96" r="27.224"/><g fill="#fff"><path d="m32.432 155.749c-2.484-1.039-4.968-2.079-7.452-3.118-.354-.148-.708-.296-1.062-.445-.501-.21-1.105.226-1.236.702-.159.579.199 1.026.702 1.236 2.484 1.039 4.968 2.079 7.452 3.118.354.148.708.296 1.062.445.501.21 1.105-.226 1.236-.702.159-.579-.199-1.026-.702-1.236z"/><path d="m31.974 156.029c-2.491 1.021-4.983 2.043-7.474 3.064-.355.146-.71.291-1.066.437-.502.206-.858.668-.702 1.236.131.475.731.909 1.236.702 2.491-1.021 4.983-2.043 7.474-3.064.355-.146.71-.291 1.066-.437.502-.206.858-.668.702-1.236-.131-.475-.731-.909-1.236-.702z"/><path d="m44.288 157.687c2.484-1.039 4.968-2.079 7.452-3.118.354-.148.708-.296 1.062-.445.5-.209.859-.665.702-1.236-.13-.472-.732-.913-1.236-.702-2.484 1.039-4.968 2.079-7.452 3.118-.354.148-.708.296-1.062.445-.5.209-.859.665-.702 1.236.13.472.732.913 1.236.702z"/><path d="m43.678 157.967c2.491 1.021 4.983 2.043 7.474 3.064.355.146.71.291 1.066.437.502.206 1.105-.223 1.236-.702.158-.576-.198-1.029-.702-1.236-2.491-1.021-4.983-2.043-7.474-3.064-.355-.146-.71-.291-1.066-.437-.502-.206-1.105.223-1.236.702-.158.576.198 1.029.702 1.236z"/><path d="m38.093 165.647c-5.741 0-10.395 4.654-10.395 10.395h20.789c0-5.741-4.654-10.395-10.395-10.395z"/></g><circle cx="129.923" cy="161.558" fill="#b3bfc4" r="19.622"/><path d="m119.719 186.728h20.407c16.879 0 30.582 13.703 30.582 30.582v30.209c0 1.055-.856 1.911-1.911 1.911h-77.749c-1.055 0-1.911-.856-1.911-1.911v-30.209c0-16.879 13.703-30.582 30.582-30.582z" fill="#b3bfc4"/><circle cx="420.077" cy="161.558" fill="#d4dadc" r="19.622"/><path d="m409.874 186.728h20.407c16.879 0 30.582 13.703 30.582 30.582v30.209c0 1.055-.856 1.911-1.911 1.911h-77.749c-1.055 0-1.911-.856-1.911-1.911v-30.209c0-16.879 13.703-30.582 30.582-30.582z" fill="#d4dadc"/><path d="m249.381 114.24h-1.936v10.892h-2.486v-10.892h-2.134c-.022 3.278-.484 7.921-3.323 10.957-.33-.572-1.276-1.452-1.87-1.782.11-.132.242-.264.352-.396h-6.249v1.54h-2.266v-19.209h2.266v11.926c1.1-.968 2.178-2.574 2.86-4.137h-2.442v-2.2h2.662v-6.117h2.134v5.127c.396-1.056.814-2.662 1.012-3.763l2.046.484c-.55 1.32-1.122 2.86-1.606 3.828l-1.452-.483v.924h2.64v2.2h-2.64v.309c.616.506 2.376 2.134 2.794 2.552l-1.408 1.738c-.286-.462-.836-1.21-1.386-1.914v4.511h-2.134v-3.807c-.638 1.188-1.364 2.267-2.156 2.992-.176-.616-.594-1.474-.924-2.068v3.301h7.503v.154c.968-2.267 1.078-4.797 1.078-6.932v-7.635l1.54.418c1.98-.484 4.027-1.21 5.303-1.893l2.112 1.915c-1.87.836-4.247 1.496-6.447 1.979v3.059h6.557v2.421zm-16.436-3.741c-.022-1.034-.352-2.596-.748-3.784l1.584-.506c.462 1.144.792 2.706.858 3.719z"/><path d="m256.005 117.848c-.22 2.068-.682 4.269-1.32 5.677-.462-.286-1.43-.748-2.002-.946.638-1.298.99-3.257 1.166-5.104l2.156.374zm3.895-6.139c.836 1.496 1.694 3.41 1.936 4.664l-1.848.836c-.066-.33-.154-.704-.286-1.122l-1.122.088v9h-2.266v-8.846l-3.191.198-.22-2.267 1.584-.065c.33-.418.682-.902 1.034-1.408-.638-.946-1.694-2.112-2.596-2.993l1.254-1.782c.154.133.33.286.506.44.616-1.21 1.232-2.662 1.606-3.828l2.266.836c-.792 1.496-1.672 3.19-2.464 4.423.286.308.528.615.748.88.748-1.232 1.452-2.486 1.958-3.564l2.134.99c-1.21 1.914-2.728 4.137-4.115 5.919l2.112-.089c-.242-.55-.506-1.1-.77-1.584l1.738-.726zm.572 5.589c.55 1.254 1.122 2.86 1.364 3.96l-1.936.704c-.198-1.1-.77-2.794-1.276-4.093zm9.549 5.456c1.078 0 1.276-.483 1.43-2.926.55.352 1.562.77 2.222.924-.308 3.278-.99 4.269-3.454 4.269h-4.291c-2.772 0-3.63-.727-3.63-3.498v-8.229l-.044.044c-.44-.462-1.496-1.298-2.112-1.672 1.76-1.694 3.323-4.423 4.247-7.086l2.508.639c-.154.44-.33.858-.506 1.298h2.596l.462-.153 1.606 1.056c-.418 1.012-.968 2.135-1.54 3.169h3.411v8.229h-2.42v-.704h-5.787v3.411c0 1.056.22 1.231 1.452 1.231h3.85zm-4.687-13.994c-.33.639-.682 1.255-1.056 1.827h2.662c.308-.551.616-1.188.88-1.827zm-.616 7.085h1.76v-2.97h-1.76zm5.787-2.969h-1.826v2.97h1.826z"/><path d="m294.094 110.939v2.223h-15.622v-2.223zm-15.623 5.171h15.622v2.223h-15.622z"/><path d="m306.106 110.301h-7.261v-2.068h7.261zm-.572 13.664h-3.828v.88h-2.024v-7.503h5.853v6.623zm-5.787-12.673h5.831v2.002h-5.831zm0 3.013h5.831v1.959h-5.831zm5.765-7.041h-5.633v-1.979h5.633zm-3.806 12.124v2.53h1.738v-2.53zm16.7.594c-.572.858-1.298 1.673-2.134 2.398.33.551.726.836 1.144.836.33 0 .55-.571.616-1.76.44.396 1.034.704 1.496.902-.308 2.112-.99 2.882-2.354 2.882-1.122 0-1.958-.571-2.596-1.562-.748.483-1.496.88-2.244 1.21-.264-.396-.836-1.013-1.254-1.364.924-.374 1.87-.902 2.75-1.519-.286-.902-.506-1.958-.66-3.146h-2.134v.836l1.76-.176.044 1.849-1.804.22v1.475c0 1.012-.198 1.474-.858 1.782-.704.286-1.65.308-2.948.308-.088-.55-.374-1.32-.638-1.848.748.021 1.584.021 1.826.021.264-.021.352-.088.352-.33v-1.144c-.946.132-1.848.22-2.64.308l-.242-2.002c.836-.066 1.804-.154 2.882-.242v-1.057h-2.75v-1.892h2.75v-.946c-.704.088-1.386.132-2.046.176-.066-.44-.308-1.101-.506-1.519 1.848-.176 4.049-.506 5.347-.924l1.342 1.54c-.022-.418-.044-.836-.044-1.254h2.178c0 1.056.022 2.046.066 2.927h2.266c-.44-.639-1.32-1.475-2.09-2.024l1.496-1.034c.814.55 1.804 1.408 2.244 2.024l-1.43 1.034h1.562v1.892h-3.873c.088.616.198 1.145.308 1.629.396-.419.77-.881 1.056-1.364l1.76.857zm-7.041-11.617h-4.621v-1.738h2.398c-.242-.462-.55-.968-.836-1.387l1.848-.638c.484.594 1.012 1.452 1.254 2.024h2.706c.374-.616.792-1.452.99-2.024l2.288.55c-.374.528-.726 1.034-1.034 1.475h2.376v1.738h-4.863v.814h4.181v1.649h-4.181v.881h5.303v1.87h-13.114v-1.87h5.303v-.881h-3.917v-1.649h3.917v-.814zm1.628 8.603c-.044-.528-.066-1.101-.088-1.673-.572.154-1.21.286-1.87.418v1.255z"/><path d="m333.032 111.203c-.594.484-1.21.946-1.848 1.32-.264-.638-.836-1.562-1.254-2.134l.154-.088h-7.129v-2.068h7.789v1.65c2.002-1.387 3.851-3.521 4.797-5.259h2.354c1.496 2.2 3.719 4.4 5.919 5.479-.506.616-1.012 1.54-1.386 2.288-.572-.352-1.166-.771-1.738-1.254v1.474h-7.657v-1.408zm-2.97 12.762h-4.071v.88h-2.134v-7.503h6.205zm-.044-10.672h-6.095v-2.002h6.095zm-6.095 1.012h6.095v1.959h-6.095zm6.051-7.041h-5.919v-1.979h5.919zm-3.983 12.124v2.53h1.936v-2.53zm16.547 3.477c0 .924-.132 1.475-.682 1.826-.528.33-1.188.374-2.09.374-.066-.594-.352-1.43-.616-2.002.396.021.77.021.924.021.176 0 .22-.065.22-.242v-2.376h-1.166v4.4h-1.716v-4.4h-1.1v4.4h-1.716v-4.4h-1.056v4.555h-2.178v-11.09h11.178v8.934zm-7.943-4.445v-2.421h-1.056v2.421zm5.324-7.943c-1.232-1.122-2.354-2.398-3.125-3.521-.682 1.122-1.738 2.398-2.948 3.521zm-2.508 7.943v-2.421h-1.1v2.421zm2.882 0v-2.421h-1.166v2.421z"/><path d="m349.758 108.079c1.826-.154 5.435-.484 9.417-.836 2.244-.176 4.621-.309 6.161-.374l.022 2.816c-1.166 0-3.036.021-4.203.286-2.64.704-4.599 3.521-4.599 6.095 0 3.586 3.344 4.885 7.041 5.061l-1.012 3.015c-4.577-.286-8.889-2.751-8.889-7.481 0-3.146 1.738-5.61 3.213-6.711-1.892.198-6.469.683-8.999 1.232l-.286-2.992c.88-.022 1.716-.066 2.134-.11zm14.302 6.711-1.672.748c-.55-1.21-1.012-2.068-1.716-3.059l1.628-.682c.528.792 1.342 2.112 1.76 2.992zm2.552-1.079-1.65.792c-.594-1.188-1.1-2.002-1.804-2.971l1.606-.748c.55.771 1.386 2.068 1.848 2.927z"/><path d="m387.563 113.206c-.902.33-2.09.616-3.366.88.55 1.166 1.166 2.442 1.804 3.631l-1.298 1.65c-1.21-.221-3.301-.551-4.753-.727l.242-2.09c.858.109 1.716.176 2.31.241l-.99-2.266c-2.728.308-6.271.374-9.571.132l-.11-2.509c3.257.309 6.227.309 8.691.044l-.374-.857-.528-1.232c-2.134.176-4.863.176-7.503-.088l-.132-2.486c2.486.264 4.665.352 6.601.242v-.022c-.396-.792-.682-1.276-1.056-1.87l3.102-.594c.154.659.396 1.408.682 2.178 1.474-.242 2.882-.572 4.181-1.012l.462 2.442c-1.122.33-2.31.638-3.741.88l.418.946.506 1.1c1.672-.33 2.926-.704 3.895-1.078zm-12.212 4.092c-.286.66-.528 1.584-.528 2.112 0 1.364.968 2.288 3.807 2.288 2.068 0 4.225-.176 5.765-.484l-.088 2.795c-1.21.197-3.432.418-5.611.418-4.071 0-6.579-1.387-6.579-4.401 0-.989.286-2.156.528-2.97z"/><path d="m403.25 110.411c-.99.265-2.332.551-3.784.748-1.034 3.059-2.905 6.844-4.665 9.33l-2.662-1.343c1.76-2.134 3.477-5.347 4.445-7.701-.374.022-.748.022-1.122.022-.902 0-1.782-.022-2.728-.066l-.198-2.552c.946.109 2.112.153 2.904.153.638 0 1.298-.021 1.958-.065.308-1.211.55-2.53.594-3.652l3.014.308c-.176.704-.44 1.804-.748 2.971 1.056-.177 2.068-.418 2.927-.683l.066 2.53zm2.86 1.959c-.066.924-.022 1.826 0 2.794.022.616.066 1.672.132 2.75 1.87.704 3.411 1.805 4.511 2.795l-1.452 2.332c-.77-.704-1.76-1.584-2.948-2.311v.198c0 2.024-1.1 3.608-4.203 3.608-2.706 0-4.841-1.21-4.841-3.608 0-2.134 1.782-3.784 4.819-3.784.506 0 1.012.044 1.474.088-.066-1.628-.176-3.543-.242-4.862zm-2.398 7.216c-.572-.132-1.144-.22-1.76-.22-1.254 0-2.068.527-2.068 1.298 0 .813.682 1.364 1.87 1.364 1.474 0 1.958-.858 1.958-2.024zm6.139-6.05c-1.254-1.013-3.741-2.442-5.237-3.103l1.408-2.156c1.562.682 4.269 2.156 5.369 2.948z"/><path d="m419.071 110.212c-.022 1.408 0 3.059.132 4.621.308 3.146.968 5.281 2.332 5.281 1.034 0 1.892-2.553 2.31-4.27l2.2 2.641c-1.452 3.785-2.816 5.127-4.577 5.127-2.376 0-4.467-2.156-5.083-8.009-.198-2.003-.242-4.533-.242-5.875 0-.616-.022-1.54-.154-2.2l3.344.044c-.154.77-.264 2.046-.264 2.64zm15.139 8.956-2.882 1.1c-.33-3.498-1.496-8.625-3.873-11.31l2.772-.924c2.068 2.53 3.741 7.789 3.983 11.134z"/><path d="m272.819 49.148h-4.134l-4.71-10.021c-1.128-2.431-1.904-4.234-2.781-6.414h-.351c.125 2.305.175 4.61.175 7.016v9.42h-3.107v-19.442h5.086l4.034 8.619c1.102 2.43 1.854 4.409 2.581 6.664h.351c-.15-2.38-.251-4.51-.251-7.115v-8.168h3.107v19.442z" fill="#fff"/><path d="m289.935 35.844c-.476-2.455-1.804-3.858-4.034-3.858-2.956 0-4.936 2.505-4.936 7.466s1.929 7.467 4.886 7.467c2.731 0 4.034-2.18 4.334-5.287h-4.535v-2.605h7.692v10.248h-2.255l-.376-2.832c-1.002 2.005-2.881 3.082-5.211 3.082-4.835 0-8.118-3.607-8.118-10.047s3.483-10.097 8.469-10.097c4.034 0 6.539 2.255 7.366 5.688l-3.282.776z" fill="#fff"/><path d="m277.938 141.935-11.166 11.942 11.166 11.942-11.166 11.942 11.166 11.939-11.166 11.942 11.166 11.946-11.166 11.942 11.166 11.95-11.166 11.951" fill="none" stroke="#005a96" stroke-miterlimit="10" stroke-width="4.466"/></svg>