<svg viewBox="0 0 550 483.207" xmlns="http://www.w3.org/2000/svg"><path d="m271.304 148.97h-57.126c-6.042 0-10.939 4.897-10.939 10.938v4.174h-13.837l13.837 12.104v5.677c0 6.041 4.897 10.938 10.939 10.938h57.126c6.042 0 10.938-4.897 10.938-10.938v-21.956c0-6.041-4.897-10.938-10.938-10.938z" fill="#005a96"/><path d="m271.304 148.97h-57.126c-6.042 0-10.939 4.897-10.939 10.938v4.174h-13.837l13.837 12.104v5.677c0 6.041 4.897 10.938 10.939 10.938h57.126c6.042 0 10.938-4.897 10.938-10.938v-21.956c0-6.041-4.897-10.938-10.938-10.938z" fill="none" stroke="#fff" stroke-miterlimit="10" stroke-width="2.233"/><path d="m313.093 376.755-72.011 43.833" fill="none" stroke="#d9dfe1" stroke-miterlimit="10" stroke-width="4.466"/><path d="m311.006 422.676-70.968-44.877" fill="none" stroke="#fff" stroke-miterlimit="10" stroke-width="11.166"/><path d="m311.006 422.676-70.968-44.877" fill="none" stroke="#b3bfc4" stroke-miterlimit="10" stroke-width="4.466"/><path d="m0 287.002h244.213v95.164h-244.213z" fill="#b3bfc4"/><path d="m305.787 287.002h244.213v95.164h-244.213z" fill="#d9dfe1"/><path d="m0 0h548.956v81.404h-548.956z" fill="#005a96"/><path d="m100.554 307.618c-.271.459-.668 1.377-.856 1.857-.626 1.67-1.566 3.758-2.818 5.678 1.837 1.503 3.569 3.11 4.968 4.593l-2.15 2.4c-1.461-1.712-2.943-3.152-4.613-4.593-1.837 2.213-4.237 4.53-7.765 6.45l-2.401-2.149c3.402-1.649 5.886-3.674 7.932-6.158-1.482-1.169-3.465-2.672-5.594-3.945l1.795-2.15c1.67 1.044 3.82 2.505 5.511 3.758 1.065-1.67 1.733-3.319 2.296-4.947.188-.521.397-1.378.501-1.92l3.194 1.127z"/><path d="m116.73 321.123c0 .919.042 2.213.188 2.735h-3.298c.083-.502.146-1.816.146-2.735v-6.847c-2.15 1.086-4.759 2.171-7.181 2.839l-1.503-2.546c3.653-.794 7.16-2.338 9.498-3.778 2.108-1.315 4.279-3.173 5.448-4.718l2.234 2.024c-1.586 1.587-3.465 3.152-5.532 4.488v8.537z"/><path d="m135.077 318.243c3.549-2.108 6.283-5.303 7.598-8.12l1.628 2.943c-1.586 2.817-4.363 5.698-7.723 7.723-2.108 1.273-4.801 2.442-7.744 2.943l-1.753-2.755c3.256-.459 5.97-1.524 7.995-2.734zm0-6.764-2.129 2.191c-1.085-1.168-3.695-3.443-5.219-4.508l1.962-2.088c1.461.981 4.175 3.152 5.385 4.404z"/><path d="m153.988 310.227c0-1.148.877-1.983 1.983-1.983s1.983.835 1.983 1.983c0 1.105-.877 1.941-1.983 1.941s-1.983-.836-1.983-1.941zm0 9.957c0-1.148.877-1.983 1.983-1.983s1.983.835 1.983 1.983c0 1.105-.877 1.94-1.983 1.94s-1.983-.835-1.983-1.94z"/><path d="m90.901 351.223h-4.488v2.442c0 1.189-.25 1.753-1.127 2.087-.856.313-2.108.334-3.778.334-.104-.668-.459-1.545-.772-2.171 1.106.042 2.421.042 2.776.042.334-.021.459-.104.459-.376v-2.358h-6.784c1.044.751 2.192 1.774 2.755 2.525l-1.983 1.461c-.564-.835-1.879-2.087-2.985-2.922l1.503-1.064h-4.467v-2.088h11.961v-1.106h-9.957v-7.097h6.137v-.939h-7.661v-2.024h7.661v-1.378h2.421v1.378h7.828v2.024h-7.828v.939h6.408v7.097h-2.568v1.106h4.488v2.088zm-14.591-7.537h3.841v-1.064h-3.841zm0 2.652h3.841v-1.064h-3.841zm6.262-3.716v1.064h3.987v-1.064zm3.987 2.651h-3.987v1.064h3.987z"/><path d="m101.545 345.44h-5.49v10.625h-2.463v-18.662h7.953zm-5.49-6.033v1.086h3.173v-1.086zm3.173 4.05v-1.189h-3.173v1.189zm11.94 9.602c0 1.419-.292 2.149-1.211 2.525-.898.418-2.275.459-4.3.459-.104-.709-.501-1.879-.877-2.547 1.315.084 2.86.063 3.298.063s.584-.146.584-.543v-7.515h-5.657v-8.1h8.162v15.656zm-5.803-13.652v1.086h3.298v-1.086zm3.298 4.092v-1.231h-3.298v1.231z"/><path d="m115.697 342.935c-.397.438-.835.897-1.294 1.314-.271-.563-.918-1.481-1.378-1.878 1.962-1.691 3.256-3.945 3.966-5.782h1.983c1.357 1.085 3.173 2.734 3.987 3.945l-1.524 2.191c-.626-1.002-1.879-2.547-3.068-3.632-.501.918-1.127 1.941-1.92 2.943h4.509v2.066h-5.26v-1.169zm6.22 8.308c0 .939-.125 1.565-.731 1.899-.605.354-1.336.376-2.38.376-.063-.626-.292-1.503-.564-2.088.584.021 1.106.021 1.294 0 .188 0 .23-.062.23-.25v-3.569h-1.733v8.412h-2.213v-8.412h-1.733v-2.15h7.828v5.782zm4.947 1.983c-1.148 1.106-3.11 2.274-4.718 2.901-.397-.48-1.127-1.19-1.67-1.629 1.628-.563 3.465-1.67 4.363-2.588l2.025 1.315zm-1.002-12.378c.083-.459.146-.918.209-1.378h-3.966v-2.087h10.583v2.087h-3.903c-.146.48-.292.939-.438 1.378h3.757v11.043h-9.289v-11.043h3.048zm3.862 1.836h-4.655v1.315h4.655zm0 3.006h-4.655v1.336h4.655zm0 3.048h-4.655v1.336h4.655zm-.021 3.319c1.148.751 2.734 1.878 3.549 2.672l-1.962 1.398c-.71-.793-2.254-2.004-3.423-2.839l1.837-1.231z"/><path d="m140.744 350.408c-1.837 1.085-3.862 2.233-5.573 3.152l-.939-2.505c.584-.251 1.294-.585 2.067-.939v-6.241h-1.879v-2.359h1.879v-4.676h2.317v4.676h1.566v2.38h-1.566v5.03l1.419-.709.71 2.191zm12.546-6.931c-.647 2.735-1.566 5.178-2.776 7.265.355 1.857.835 2.985 1.336 2.985.292 0 .459-.772.522-2.631.459.585 1.148 1.106 1.67 1.378-.355 2.776-.96 3.569-2.526 3.569-1.169 0-2.046-1.106-2.693-2.881-.856 1.065-1.837 1.983-2.922 2.756-.334-.418-1.252-1.211-1.774-1.565 1.002-.626 1.879-1.378 2.672-2.213-2.213.585-4.551 1.211-6.346 1.67l-.584-2.317c1.816-.334 4.551-.96 7.181-1.544l.188 1.648c.313-.375.605-.751.877-1.147-.48-2.484-.751-5.532-.877-8.768h-6.742v-2.254h6.659c-.021-.961-.042-1.899-.042-2.86h2.359c-.021.961-.021 1.899 0 2.86h2.213c-.522-.543-1.211-1.169-1.816-1.649l1.399-1.211c.814.585 1.816 1.42 2.296 2.025l-.898.835h.918v2.254h-4.05c.083 1.899.209 3.674.397 5.261.48-1.211.835-2.505 1.148-3.903l2.213.438zm-6.826-.396v6.346h-5.365v-6.346zm-1.942 1.9h-1.607v2.546h1.607z"/><path d="m168.86 350.283h-5.01l-1.085 3.966h-3.131l4.947-15.447h3.632l4.968 15.447h-3.235l-1.085-3.966zm-.668-2.4-.459-1.691c-.48-1.607-.898-3.382-1.357-5.052h-.083c-.397 1.691-.856 3.444-1.315 5.052l-.459 1.691h3.674z"/><path d="m406.341 307.618c-.271.459-.668 1.377-.856 1.857-.626 1.67-1.566 3.758-2.818 5.678 1.837 1.503 3.57 3.11 4.968 4.593l-2.15 2.4c-1.461-1.712-2.943-3.152-4.613-4.593-1.837 2.213-4.237 4.53-7.765 6.45l-2.4-2.149c3.402-1.649 5.886-3.674 7.932-6.158-1.482-1.169-3.465-2.672-5.594-3.945l1.795-2.15c1.67 1.044 3.82 2.505 5.511 3.758 1.064-1.67 1.732-3.319 2.296-4.947.188-.521.396-1.378.501-1.92l3.194 1.127z"/><path d="m422.517 321.123c0 .919.042 2.213.188 2.735h-3.298c.083-.502.146-1.816.146-2.735v-6.847c-2.15 1.086-4.759 2.171-7.181 2.839l-1.503-2.546c3.653-.794 7.16-2.338 9.498-3.778 2.108-1.315 4.279-3.173 5.448-4.718l2.234 2.024c-1.586 1.587-3.465 3.152-5.532 4.488v8.537z"/><path d="m440.865 318.243c3.549-2.108 6.283-5.303 7.598-8.12l1.628 2.943c-1.586 2.817-4.363 5.698-7.723 7.723-2.108 1.273-4.801 2.442-7.744 2.943l-1.753-2.755c3.256-.459 5.97-1.524 7.995-2.734zm0-6.764-2.129 2.191c-1.085-1.168-3.695-3.443-5.219-4.508l1.962-2.088c1.461.981 4.175 3.152 5.385 4.404z"/><path d="m459.775 310.227c0-1.148.877-1.983 1.983-1.983s1.983.835 1.983 1.983c0 1.105-.877 1.941-1.983 1.941s-1.983-.836-1.983-1.941zm0 9.957c0-1.148.877-1.983 1.983-1.983s1.983.835 1.983 1.983c0 1.105-.877 1.94-1.983 1.94s-1.983-.835-1.983-1.94z"/><path d="m396.27 351.223h-4.488v2.442c0 1.189-.25 1.753-1.127 2.087-.856.313-2.108.334-3.778.334-.104-.668-.459-1.545-.772-2.171 1.106.042 2.421.042 2.776.042.334-.021.459-.104.459-.376v-2.358h-6.784c1.044.751 2.192 1.774 2.755 2.525l-1.983 1.461c-.563-.835-1.879-2.087-2.985-2.922l1.503-1.064h-4.467v-2.088h11.961v-1.106h-9.957v-7.097h6.137v-.939h-7.661v-2.024h7.661v-1.378h2.421v1.378h7.828v2.024h-7.828v.939h6.408v7.097h-2.567v1.106h4.488zm-14.591-7.537h3.841v-1.064h-3.841zm0 2.652h3.841v-1.064h-3.841zm6.263-3.716v1.064h3.987v-1.064zm3.986 2.651h-3.987v1.064h3.987z"/><path d="m406.915 345.44h-5.49v10.625h-2.463v-18.662h7.953zm-5.49-6.033v1.086h3.173v-1.086zm3.173 4.05v-1.189h-3.173v1.189zm11.94 9.602c0 1.419-.292 2.149-1.211 2.525-.897.418-2.275.459-4.3.459-.104-.709-.501-1.879-.877-2.547 1.315.084 2.86.063 3.298.063s.584-.146.584-.543v-7.515h-5.657v-8.1h8.162v15.656zm-5.803-13.652v1.086h3.298v-1.086zm3.298 4.092v-1.231h-3.298v1.231z"/><path d="m421.066 342.935c-.397.438-.835.897-1.294 1.314-.271-.563-.918-1.481-1.378-1.878 1.962-1.691 3.256-3.945 3.966-5.782h1.983c1.357 1.085 3.173 2.734 3.987 3.945l-1.524 2.191c-.626-1.002-1.879-2.547-3.068-3.632-.501.918-1.127 1.941-1.92 2.943h4.509v2.066h-5.26v-1.169zm6.221 8.308c0 .939-.125 1.565-.731 1.899-.605.354-1.336.376-2.38.376-.062-.626-.292-1.503-.563-2.088.584.021 1.106.021 1.294 0 .188 0 .229-.062.229-.25v-3.569h-1.732v8.412h-2.213v-8.412h-1.733v-2.15h7.828v5.782zm4.947 1.983c-1.148 1.106-3.11 2.274-4.718 2.901-.396-.48-1.127-1.19-1.67-1.629 1.628-.563 3.465-1.67 4.363-2.588l2.025 1.315zm-1.002-12.378c.083-.459.146-.918.209-1.378h-3.966v-2.087h10.583v2.087h-3.904c-.146.48-.292.939-.438 1.378h3.757v11.043h-9.289v-11.043zm3.862 1.836h-4.655v1.315h4.655zm0 3.006h-4.655v1.336h4.655zm0 3.048h-4.655v1.336h4.655zm-.021 3.319c1.148.751 2.735 1.878 3.549 2.672l-1.962 1.398c-.71-.793-2.254-2.004-3.423-2.839l1.837-1.231z"/><path d="m446.114 350.408c-1.837 1.085-3.862 2.233-5.573 3.152l-.939-2.505c.584-.251 1.294-.585 2.066-.939v-6.241h-1.879v-2.359h1.879v-4.676h2.317v4.676h1.565v2.38h-1.565v5.03l1.419-.709zm12.545-6.931c-.647 2.735-1.565 5.178-2.776 7.265.355 1.857.835 2.985 1.336 2.985.292 0 .459-.772.522-2.631.459.585 1.148 1.106 1.67 1.378-.355 2.776-.96 3.569-2.526 3.569-1.169 0-2.046-1.106-2.693-2.881-.856 1.065-1.837 1.983-2.922 2.756-.334-.418-1.252-1.211-1.774-1.565 1.002-.626 1.879-1.378 2.672-2.213-2.213.585-4.551 1.211-6.346 1.67l-.584-2.317c1.816-.334 4.551-.96 7.181-1.544l.188 1.648c.313-.375.605-.751.877-1.147-.48-2.484-.751-5.532-.877-8.768h-6.742v-2.254h6.659c-.021-.961-.042-1.899-.042-2.86h2.359c-.021.961-.021 1.899 0 2.86h2.213c-.522-.543-1.211-1.169-1.816-1.649l1.399-1.211c.814.585 1.816 1.42 2.296 2.025l-.898.835h.918v2.254h-4.05c.083 1.899.209 3.674.397 5.261.48-1.211.835-2.505 1.148-3.903l2.213.438zm-6.826-.396v6.346h-5.365v-6.346zm-1.941 1.9h-1.607v2.546h1.607z"/><path d="m466.986 338.802h5.114c3.173 0 5.594.919 5.594 3.8 0 1.419-.793 2.88-2.108 3.34v.104c1.67.396 2.901 1.565 2.901 3.652 0 3.11-2.588 4.551-5.991 4.551h-5.511v-15.447zm4.885 6.283c1.962 0 2.818-.793 2.818-2.024 0-1.356-.918-1.899-2.776-1.899h-1.837v3.924h1.795zm.355 6.784c2.108 0 3.256-.751 3.256-2.358 0-1.503-1.127-2.129-3.256-2.129h-2.15v4.487z"/><path d="m0 417.457h244.213v65.75h-244.213z" fill="#d9dfe1"/><path d="m56.439 446.131c1.106 0 1.733-.042 2.296-.146v2.776c-.459-.042-1.19-.062-2.296-.062h-1.545v.688c0 5.177-1.252 8.329-6.283 10.542l-2.234-2.108c4.029-1.398 5.803-3.215 5.803-8.329v-.793h-4.947v2.839c0 .918.063 1.774.083 2.191h-2.922c.063-.417.125-1.252.125-2.191v-2.839h-1.774c-1.044 0-1.795.042-2.254.083v-2.839c.376.062 1.211.188 2.254.188h1.774v-2.066c0-.794-.083-1.482-.125-1.879h2.964c-.063.396-.125 1.064-.125 1.899v2.046h4.947v-2.192c0-.835-.063-1.523-.125-1.941h2.964c-.042.418-.125 1.106-.125 1.941v2.192z"/><path d="m76.832 444.105 1.315.856c-.188.396-.334 1.002-.459 1.44-.48 2.045-1.378 5.28-3.131 7.598-1.879 2.505-4.655 4.571-8.391 5.762l-2.275-2.484c4.154-.981 6.492-2.776 8.183-4.905 1.378-1.732 2.171-4.092 2.463-5.887h-9.727c-.96 0-1.941.042-2.484.084v-2.943c.605.083 1.795.167 2.484.167h9.665c.25 0 .605 0 .981-.042-.355-.688-.772-1.42-1.169-2.024l1.712-.71c.543.793 1.232 2.004 1.607 2.755l-.772.334zm2.088-3.61c.522.751 1.273 2.024 1.67 2.755l-1.733.751c-.459-.855-1.106-2.045-1.67-2.797z"/><path d="m89.481 445.901c0-1.148.877-1.983 1.983-1.983s1.983.835 1.983 1.983c0 1.105-.877 1.941-1.983 1.941s-1.983-.836-1.983-1.941zm0 9.957c0-1.148.877-1.983 1.983-1.983s1.983.835 1.983 1.983c0 1.105-.877 1.94-1.983 1.94s-1.983-.835-1.983-1.94z"/><path d="m121.792 455.587h-4.488v2.441c0 1.19-.25 1.754-1.127 2.088-.856.313-2.108.334-3.778.334-.104-.668-.459-1.545-.772-2.171 1.106.042 2.421.042 2.776.042.334-.021.459-.104.459-.376v-2.358h-6.784c1.044.751 2.192 1.773 2.755 2.525l-1.983 1.461c-.564-.835-1.879-2.087-2.985-2.922l1.503-1.064h-4.467v-2.088h11.961v-1.106h-9.957v-7.097h6.137v-.939h-7.661v-2.025h7.661v-1.377h2.421v1.377h7.828v2.025h-7.828v.939h6.408v7.097h-2.568v1.106h4.488v2.088zm-14.591-7.536h3.841v-1.064h-3.841zm0 2.651h3.841v-1.064h-3.841zm6.263-3.716v1.064h3.987v-1.064zm3.987 2.652h-3.987v1.064h3.987z"/><path d="m132.437 449.805h-5.49v10.625h-2.463v-18.662h7.953zm-5.49-6.034v1.086h3.173v-1.086zm3.173 4.05v-1.189h-3.173v1.189zm11.94 9.603c0 1.419-.292 2.149-1.211 2.525-.898.417-2.275.459-4.3.459-.104-.71-.501-1.878-.877-2.546 1.315.083 2.86.062 3.298.062s.584-.146.584-.543v-7.515h-5.657v-8.1h8.162v15.656zm-5.803-13.653v1.086h3.298v-1.086zm3.298 4.092v-1.231h-3.298v1.231z"/><path d="m146.588 447.3c-.397.438-.835.897-1.294 1.314-.271-.563-.918-1.481-1.378-1.878 1.962-1.691 3.256-3.945 3.966-5.782h1.983c1.357 1.085 3.173 2.734 3.987 3.945l-1.524 2.191c-.626-1.002-1.879-2.547-3.068-3.632-.501.918-1.127 1.941-1.92 2.943h4.509v2.066h-5.26v-1.169zm6.221 8.307c0 .939-.125 1.565-.731 1.899-.605.355-1.336.376-2.38.376-.063-.626-.292-1.503-.564-2.088.584.021 1.106.021 1.294 0 .188 0 .23-.062.23-.25v-3.569h-1.733v8.412h-2.213v-8.412h-1.733v-2.15h7.828v5.782zm4.947 1.984c-1.148 1.105-3.11 2.275-4.718 2.901-.397-.48-1.127-1.19-1.67-1.628 1.628-.564 3.465-1.67 4.363-2.589l2.025 1.315zm-1.002-12.379c.083-.459.146-.918.209-1.377h-3.966v-2.088h10.583v2.088h-3.903c-.146.479-.292.938-.438 1.377h3.757v11.043h-9.289v-11.043h3.048zm3.862 1.837h-4.655v1.315h4.655zm0 3.006h-4.655v1.336h4.655zm0 3.047h-4.655v1.336h4.655zm-.021 3.32c1.148.751 2.734 1.878 3.549 2.672l-1.962 1.398c-.71-.794-2.254-2.004-3.423-2.839l1.837-1.231z"/><path d="m171.636 454.772c-1.837 1.086-3.862 2.233-5.573 3.152l-.939-2.505c.584-.251 1.294-.585 2.067-.939v-6.241h-1.879v-2.359h1.879v-4.676h2.317v4.676h1.566v2.38h-1.566v5.03l1.419-.709.71 2.191zm12.545-6.929c-.647 2.734-1.566 5.176-2.776 7.264.355 1.857.835 2.985 1.336 2.985.292 0 .459-.772.522-2.631.459.585 1.148 1.106 1.67 1.378-.355 2.776-.96 3.569-2.526 3.569-1.169 0-2.046-1.106-2.693-2.88-.856 1.064-1.837 1.982-2.922 2.755-.334-.417-1.252-1.211-1.774-1.565 1.002-.626 1.879-1.378 2.672-2.213-2.213.585-4.551 1.211-6.346 1.67l-.584-2.316c1.816-.334 4.551-.961 7.181-1.545l.188 1.648c.313-.375.605-.751.877-1.147-.48-2.484-.751-5.532-.877-8.768h-6.742v-2.254h6.659c-.021-.96-.042-1.899-.042-2.86h2.359c-.021.961-.021 1.9 0 2.86h2.213c-.522-.543-1.211-1.169-1.816-1.649l1.399-1.211c.814.585 1.816 1.42 2.296 2.025l-.898.835h.918v2.254h-4.05c.083 1.899.209 3.674.397 5.261.48-1.211.835-2.505 1.148-3.903l2.213.438zm-6.826-.398v6.346h-5.365v-6.346zm-1.941 1.9h-1.607v2.547h1.607z"/><path d="m192.508 443.167h5.114c3.173 0 5.594.918 5.594 3.799 0 1.419-.793 2.881-2.108 3.34v.104c1.67.396 2.901 1.565 2.901 3.652 0 3.11-2.588 4.551-5.991 4.551h-5.511v-15.446zm4.885 6.282c1.962 0 2.818-.793 2.818-2.024 0-1.356-.918-1.899-2.776-1.899h-1.837v3.924h1.795zm.355 6.784c2.108 0 3.256-.751 3.256-2.358 0-1.503-1.127-2.129-3.256-2.129h-2.15v4.487z"/><path d="m305.787 417.457h244.213v65.75h-244.213z" fill="#b3bfc4"/><path d="m362.644 446.131c1.106 0 1.733-.042 2.296-.146v2.776c-.459-.042-1.19-.062-2.296-.062h-1.545v.688c0 5.177-1.252 8.329-6.283 10.542l-2.234-2.108c4.029-1.398 5.803-3.215 5.803-8.329v-.793h-4.947v2.839c0 .918.062 1.774.083 2.191h-2.922c.062-.417.125-1.252.125-2.191v-2.839h-1.774c-1.044 0-1.795.042-2.254.083v-2.839c.376.062 1.211.188 2.254.188h1.774v-2.066c0-.794-.083-1.482-.125-1.879h2.964c-.063.396-.125 1.064-.125 1.899v2.046h4.947v-2.192c0-.835-.062-1.523-.125-1.941h2.964c-.042.418-.125 1.106-.125 1.941v2.192z"/><path d="m383.037 444.105 1.315.856c-.188.396-.334 1.002-.459 1.44-.48 2.045-1.378 5.28-3.131 7.598-1.879 2.505-4.655 4.571-8.391 5.762l-2.275-2.484c4.154-.981 6.492-2.776 8.183-4.905 1.378-1.732 2.171-4.092 2.463-5.887h-9.727c-.96 0-1.941.042-2.484.084v-2.943c.605.083 1.795.167 2.484.167h9.665c.25 0 .605 0 .981-.042-.355-.688-.772-1.42-1.169-2.024l1.712-.71c.543.793 1.231 2.004 1.607 2.755l-.772.334zm2.087-3.61c.522.751 1.273 2.024 1.67 2.755l-1.733.751c-.459-.855-1.106-2.045-1.67-2.797z"/><path d="m395.685 445.901c0-1.148.877-1.983 1.983-1.983s1.983.835 1.983 1.983c0 1.105-.877 1.941-1.983 1.941s-1.983-.836-1.983-1.941zm0 9.957c0-1.148.877-1.983 1.983-1.983s1.983.835 1.983 1.983c0 1.105-.877 1.94-1.983 1.94s-1.983-.835-1.983-1.94z"/><path d="m427.997 455.587h-4.488v2.441c0 1.19-.25 1.754-1.127 2.088-.856.313-2.108.334-3.778.334-.104-.668-.459-1.545-.772-2.171 1.106.042 2.421.042 2.776.042.334-.021.459-.104.459-.376v-2.358h-6.784c1.044.751 2.192 1.773 2.755 2.525l-1.983 1.461c-.564-.835-1.879-2.087-2.985-2.922l1.503-1.064h-4.467v-2.088h11.961v-1.106h-9.957v-7.097h6.137v-.939h-7.661v-2.025h7.661v-1.377h2.421v1.377h7.828v2.025h-7.828v.939h6.408v7.097h-2.568v1.106h4.488v2.088zm-14.591-7.536h3.841v-1.064h-3.841zm0 2.651h3.841v-1.064h-3.841zm6.262-3.716v1.064h3.987v-1.064zm3.987 2.652h-3.987v1.064h3.987z"/><path d="m438.642 449.805h-5.49v10.625h-2.463v-18.662h7.953zm-5.49-6.034v1.086h3.173v-1.086zm3.172 4.05v-1.189h-3.173v1.189zm11.94 9.603c0 1.419-.292 2.149-1.211 2.525-.897.417-2.275.459-4.3.459-.104-.71-.501-1.878-.877-2.546 1.315.083 2.86.062 3.298.062s.584-.146.584-.543v-7.515h-5.657v-8.1h8.162v15.656zm-5.803-13.653v1.086h3.298v-1.086zm3.298 4.092v-1.231h-3.298v1.231z"/><path d="m452.793 447.3c-.397.438-.835.897-1.294 1.314-.271-.563-.918-1.481-1.378-1.878 1.962-1.691 3.256-3.945 3.966-5.782h1.983c1.357 1.085 3.173 2.734 3.987 3.945l-1.524 2.191c-.626-1.002-1.879-2.547-3.068-3.632-.501.918-1.127 1.941-1.92 2.943h4.509v2.066h-5.26v-1.169zm6.22 8.307c0 .939-.125 1.565-.731 1.899-.605.355-1.336.376-2.38.376-.062-.626-.292-1.503-.563-2.088.584.021 1.106.021 1.294 0 .188 0 .229-.062.229-.25v-3.569h-1.732v8.412h-2.213v-8.412h-1.733v-2.15h7.828v5.782zm4.947 1.984c-1.148 1.105-3.11 2.275-4.718 2.901-.396-.48-1.127-1.19-1.67-1.628 1.628-.564 3.465-1.67 4.363-2.589l2.025 1.315zm-1.002-12.379c.083-.459.146-.918.209-1.377h-3.966v-2.088h10.583v2.088h-3.904c-.146.479-.292.938-.438 1.377h3.757v11.043h-9.289v-11.043zm3.862 1.837h-4.655v1.315h4.655zm0 3.006h-4.655v1.336h4.655zm0 3.047h-4.655v1.336h4.655zm-.021 3.32c1.148.751 2.735 1.878 3.549 2.672l-1.962 1.398c-.71-.794-2.254-2.004-3.423-2.839l1.837-1.231z"/><path d="m477.84 454.772c-1.837 1.086-3.862 2.233-5.573 3.152l-.939-2.505c.584-.251 1.294-.585 2.066-.939v-6.241h-1.879v-2.359h1.879v-4.676h2.317v4.676h1.565v2.38h-1.565v5.03l1.419-.709zm12.546-6.929c-.647 2.734-1.565 5.176-2.776 7.264.355 1.857.835 2.985 1.336 2.985.292 0 .459-.772.522-2.631.459.585 1.148 1.106 1.67 1.378-.355 2.776-.96 3.569-2.526 3.569-1.169 0-2.046-1.106-2.693-2.88-.856 1.064-1.837 1.982-2.922 2.755-.334-.417-1.252-1.211-1.774-1.565 1.002-.626 1.879-1.378 2.672-2.213-2.213.585-4.551 1.211-6.346 1.67l-.584-2.316c1.816-.334 4.551-.961 7.181-1.545l.188 1.648c.313-.375.605-.751.877-1.147-.48-2.484-.751-5.532-.877-8.768h-6.742v-2.254h6.659c-.021-.96-.042-1.899-.042-2.86h2.359c-.021.961-.021 1.9 0 2.86h2.213c-.522-.543-1.211-1.169-1.816-1.649l1.399-1.211c.814.585 1.816 1.42 2.296 2.025l-.898.835h.918v2.254h-4.05c.083 1.899.209 3.674.397 5.261.48-1.211.835-2.505 1.148-3.903l2.213.438zm-6.826-.398v6.346h-5.365v-6.346zm-1.941 1.9h-1.607v2.547h1.607z"/><path d="m505.956 454.647h-5.01l-1.085 3.966h-3.131l4.947-15.446h3.632l4.968 15.446h-3.236zm-.668-2.4-.459-1.691c-.48-1.607-.897-3.381-1.357-5.051h-.083c-.397 1.69-.856 3.443-1.315 5.051l-.459 1.691h3.674z"/><circle cx="39.523" cy="162.182" fill="#005a96" r="27.224"/><path d="m33.862 155.749c-2.484-1.039-4.968-2.079-7.452-3.118-.354-.148-.708-.296-1.062-.445-.501-.21-1.105.226-1.236.702-.159.579.199 1.026.702 1.236 2.484 1.039 4.968 2.079 7.452 3.118.354.148.708.296 1.062.445.501.21 1.105-.226 1.236-.702.159-.579-.199-1.026-.702-1.236z" fill="#fff"/><path d="m33.404 156.029c-2.491 1.021-4.983 2.043-7.474 3.064-.355.146-.71.291-1.066.437-.502.206-.858.668-.702 1.236.131.475.731.909 1.236.702 2.491-1.021 4.983-2.043 7.474-3.064.355-.146.71-.291 1.066-.437.502-.206.858-.668.702-1.236-.131-.475-.731-.909-1.236-.702z" fill="#fff"/><path d="m45.718 157.687c2.484-1.039 4.968-2.079 7.452-3.118.354-.148.708-.296 1.062-.445.5-.209.859-.665.702-1.236-.13-.472-.732-.913-1.236-.702-2.484 1.039-4.968 2.079-7.452 3.118-.354.148-.708.296-1.062.445-.5.209-.859.665-.702 1.236.13.472.732.913 1.236.702z" fill="#fff"/><path d="m45.108 157.967c2.491 1.021 4.983 2.043 7.474 3.064.355.146.71.291 1.066.437.502.206 1.105-.223 1.236-.702.158-.576-.198-1.029-.702-1.236-2.491-1.021-4.983-2.043-7.474-3.064-.355-.146-.71-.291-1.066-.437-.502-.206-1.105.223-1.236.702-.158.576.198 1.029.702 1.236z" fill="#fff"/><path d="m40.018 179.011c5.741 0 10.395-4.654 10.395-10.395h-20.789c0 5.741 4.654 10.395 10.395 10.395z" fill="#fff"/><circle cx="129.923" cy="161.558" fill="#b3bfc4" r="19.622"/><path d="m119.719 186.728h20.407c16.879 0 30.582 13.703 30.582 30.582v30.209c0 1.055-.856 1.911-1.911 1.911h-77.749c-1.055 0-1.911-.856-1.911-1.911v-30.209c0-16.879 13.703-30.582 30.582-30.582z" fill="#b3bfc4"/><circle cx="420.077" cy="161.558" fill="#d4dadc" r="19.622"/><path d="m409.874 186.728h20.407c16.879 0 30.582 13.703 30.582 30.582v30.209c0 1.055-.856 1.911-1.911 1.911h-77.749c-1.055 0-1.911-.856-1.911-1.911v-30.209c0-16.879 13.703-30.582 30.582-30.582z" fill="#d4dadc"/><g fill="#005a96"><path d="m133.991 115.583v2.553h-20.045v-2.553h4.731v-4.225h-3.961v-2.53h3.961v-4.07h2.728v4.07h5.061v-4.07h2.728v4.07h4.115v2.53h-4.115v4.225zm-11.573 4.467c-1.65 1.893-4.071 3.872-6.183 5.127-.572-.572-1.54-1.408-2.156-1.826 2.068-1.101 4.401-2.904 5.567-4.379zm-1.012-4.467h5.061v-4.225h-5.061zm6.446 3.322c1.87 1.343 4.599 3.389 5.985 4.731l-2.596 1.54c-1.21-1.343-3.828-3.477-5.787-4.973l2.398-1.299z"/><path d="m143.031 120.16c.858 1.474 2.376 2.09 4.621 2.178 2.618.11 7.833.044 10.848-.198-.308.616-.704 1.827-.814 2.553-2.706.132-7.371.176-10.056.066-2.64-.11-4.379-.748-5.699-2.442-1.012.857-2.046 1.716-3.278 2.64l-1.21-2.618c.946-.528 2.068-1.254 3.08-2.002v-4.797h-2.794v-2.398h5.303v7.02zm-1.298-9.836c-.682-1.056-2.332-2.574-3.675-3.586l1.804-1.673c1.342.924 3.036 2.332 3.828 3.389l-1.958 1.87zm5.633 11.111h-2.464v-11.331h4.929c-.99-.462-2.046-.902-2.948-1.254l1.694-1.408c.77.285 1.694.638 2.596 1.034.616-.353 1.21-.771 1.76-1.167h-7.833v-1.979h10.099l.506-.133 1.562 1.255c-1.1 1.034-2.486 2.09-3.917 2.97.484.242.946.463 1.32.683h2.662v9.065c0 1.056-.198 1.606-.902 1.958-.704.374-1.65.374-2.97.374-.088-.638-.352-1.496-.638-2.046.682.021 1.452.021 1.672.021.264-.021.33-.109.33-.33v-1.012h-2.596v3.212h-2.332v-3.212h-2.53zm0-9.438v1.188h2.53v-1.188zm2.53 4.246v-1.232h-2.53v1.232zm4.929-4.246h-2.596v1.188h2.596zm0 4.246v-1.232h-2.596v1.232z"/><path d="m177.659 118.575c-.55 1.122-1.232 2.047-2.046 2.816 2.134.595 4.049 1.188 5.545 1.717l-1.606 2.134c-1.672-.682-3.895-1.452-6.381-2.178-2.464 1.21-5.721 1.782-9.989 2.112-.176-.748-.594-1.673-.99-2.244 2.905-.11 5.281-.374 7.239-.881-.704-.176-1.408-.352-2.134-.506l-.242.33-2.53-.792c.55-.704 1.188-1.562 1.848-2.509h-4.577v-2.112h5.985c.308-.483.594-.945.88-1.408h-5.457v-6.16h4.775v-1.255h-5.787v-2.266h19.165v2.266h-5.963v1.255h5.259v6.16h-8.999c-.264.463-.572.925-.88 1.408h11.112v2.112h-4.225zm-11.992-5.566h2.31v-2.046h-2.31zm2.97 6.644c1.364.286 2.75.616 4.093.969.814-.551 1.496-1.232 2.024-2.047h-5.369zm1.805-10.759h2.486v-1.255h-2.486zm2.486 4.115v-2.046h-2.486v2.046zm2.464-2.046v2.046h2.64v-2.046z"/><path d="m192.855 121.304c-1.408 1.387-3.652 2.772-5.479 3.564-.44-.483-1.408-1.364-1.958-1.782 1.87-.638 3.873-1.65 5.017-2.706zm11.024-.44c-.242-.286-.572-.639-.946-.99-2.024.065-4.115.109-6.139.153v5.062h-2.574v-5.018c-3.103.066-5.963.11-8.185.154l-.132-2.068c1.342 0 2.948-.021 4.687-.044.22-.132.462-.242.704-.374-1.078-.792-2.486-1.672-3.652-2.288l1.694-1.452c.352.176.748.374 1.144.594.528-.396 1.078-.88 1.606-1.364h-6.249v-2.002h8.361v-.836h-6.029v-1.87h6.029v-.837h-7.151v-1.892h7.151v-1.211h2.618v1.211h7.547v1.892h-7.547v.837h6.403v1.87h-6.403v.836h8.515v2.002h-7.041l2.002 1.122c-1.694 1.255-3.763 2.597-5.699 3.719l6.051-.109c-.572-.419-1.144-.837-1.694-1.188l1.826-1.32c1.738 1.078 3.983 2.729 5.061 3.961l-1.958 1.452zm-8.406-7.636c-1.078.881-2.244 1.761-3.234 2.398.44.265.858.528 1.21.792 1.606-1.034 3.19-2.178 4.379-3.19h-2.354zm4.643 7.085c1.606.792 3.873 2.024 5.061 2.949l-2.068 1.452c-1.056-.858-3.256-2.201-4.929-3.059l1.936-1.343z"/><path d="m218.215 106.078c-.132.571-.264 1.254-.374 1.804-.132.66-.308 1.452-.462 2.244.726-.044 1.386-.088 1.826-.088 2.31 0 3.939 1.034 3.939 4.159 0 2.574-.308 6.051-1.232 7.942-.726 1.519-1.914 2.003-3.587 2.003-.814 0-1.87-.132-2.596-.309l-.484-2.882c.836.242 2.112.462 2.684.462.726 0 1.276-.22 1.628-.946.594-1.21.88-3.807.88-5.963 0-1.738-.748-1.98-2.112-1.98-.352 0-.88.044-1.496.088-.858 3.301-2.442 8.428-4.445 11.64l-2.838-1.144c2.112-2.86 3.609-7.217 4.379-10.188-.77.088-1.452.176-1.87.242-.616.065-1.738.22-2.42.33l-.242-2.949c.792.066 1.518.022 2.31 0 .682-.021 1.716-.088 2.816-.176.308-1.672.484-3.256.462-4.62l3.234.33zm7.811 2.596c1.276 2.003 2.904 5.677 3.542 7.592l-2.772 1.298c-.572-2.42-2.112-6.271-3.675-8.207l2.024-.858c-.44-.836-.99-1.893-1.496-2.597l1.738-.726c.55.813 1.32 2.2 1.76 3.015l-1.122.483zm2.002-.726c-.462-.925-1.166-2.223-1.782-3.037l1.738-.726c.594.836 1.408 2.223 1.782 2.992z"/><path d="m247.658 111.182c-.11.242-.264.704-.396 1.122 2.53.836 4.203 2.794 4.203 5.347 0 3.059-1.826 6.073-7.173 6.865l-1.452-2.288c4.203-.463 5.919-2.575 5.919-4.709 0-1.32-.77-2.486-2.244-3.059-1.21 2.971-2.948 5.236-4.599 6.601.154.572.33 1.101.506 1.629l-2.508.748c-.088-.265-.198-.572-.286-.88-1.056.527-2.222.88-3.366.88-1.606 0-2.948-.969-2.948-3.19 0-2.772 2.31-5.721 5.347-7.151.066-.924.132-1.849.22-2.729h-.704c-1.144 0-2.838-.088-3.851-.132l-.088-2.53c.77.11 2.684.286 4.027.286h.836l.132-1.166c.044-.396.088-.925.066-1.299l2.86.066c-.154.44-.242.836-.308 1.166-.088.353-.154.748-.22 1.166 2.64-.088 4.995-.352 7.393-.924l.022 2.509c-2.134.396-5.061.659-7.745.792-.066.638-.132 1.298-.154 1.958 1.034-.242 2.178-.396 3.256-.396h.374c.088-.439.176-.99.198-1.298l2.684.616zm-8.581 8.889c-.242-1.363-.418-2.86-.462-4.356-1.628 1.101-2.728 2.772-2.728 4.005 0 .682.308 1.057 1.012 1.057.616 0 1.364-.242 2.178-.705zm1.98-5.456c0 1.342.088 2.53.242 3.608 1.056-1.057 2.024-2.377 2.75-4.137-1.144.022-2.156.22-2.992.484v.044z"/><path d="m271.203 108.146c-.528.33-1.034.659-1.518.989-1.166.814-3.454 2.751-4.819 3.851.726-.197 1.342-.241 2.046-.241 3.697 0 6.513 2.31 6.513 5.479 0 3.433-2.618 6.161-7.877 6.161-3.036 0-5.325-1.387-5.325-3.564 0-1.761 1.606-3.389 3.917-3.389 2.684 0 4.313 1.65 4.643 3.719 1.188-.639 1.782-1.65 1.782-2.971 0-1.958-1.98-3.278-4.511-3.278-3.344 0-5.523 1.782-7.855 4.422l-1.98-2.046c1.54-1.254 4.159-3.477 5.457-4.532 1.21-1.013 3.477-2.839 4.555-3.785-1.122.022-4.115.154-5.259.242-.594.022-1.276.088-1.782.176l-.088-2.838c.616.065 1.364.109 1.98.109 1.144 0 5.809-.109 7.041-.22.902-.065 1.408-.154 1.672-.22l1.408 1.937zm-4.929 13.708c-.132-1.408-.946-2.333-2.134-2.333-.814 0-1.342.484-1.342 1.034 0 .814.924 1.364 2.2 1.364.462 0 .88-.021 1.276-.065z"/><path d="m289.28 110.654c-1.298.286-2.772.528-4.225.704-.198.946-.418 1.914-.66 2.795-.792 3.058-2.266 7.524-3.454 10.077l-3.058-1.013c1.298-2.178 2.948-6.755 3.763-9.812.154-.572.308-1.188.462-1.805-.506.021-.99.044-1.43.044-1.056 0-1.87-.044-2.64-.088l-.066-2.729c1.122.132 1.848.176 2.75.176.638 0 1.276-.021 1.936-.065.088-.484.154-.902.198-1.255.11-.813.132-1.694.088-2.2l3.322.265c-.154.594-.352 1.562-.462 2.046l-.176.836c1.232-.198 2.464-.439 3.653-.726v2.75zm-.44 7.152c-.176.616-.308 1.342-.308 1.826 0 .946.55 1.65 2.882 1.65 1.452 0 2.97-.154 4.533-.44l-.11 2.795c-1.232.153-2.706.308-4.445.308-3.675 0-5.545-1.276-5.545-3.477 0-.99.198-2.046.374-2.904l2.618.242zm-1.277-5.479c1.21-.11 2.772-.221 4.181-.221 1.232 0 2.552.066 3.828.198l-.066 2.618c-1.078-.132-2.42-.264-3.741-.264-1.518 0-2.838.065-4.203.242v-2.574z"/><path d="m313.453 109.092c3.411.771 5.721 3.521 5.721 7.35 0 4.62-3.3 7.261-7.855 7.943l-1.672-2.509c4.797-.418 6.667-2.86 6.667-5.589 0-2.42-1.32-4.202-3.521-4.797-.748 2.53-1.694 5.039-2.948 6.932.396.462.792.901 1.188 1.298l-2.178 1.738c-.264-.286-.528-.572-.748-.858-1.474 1.585-2.684 2.333-4.291 2.333-1.804 0-3.477-1.541-3.477-4.357 0-2.508 1.254-5.148 3.213-6.887-.198-.572-.396-1.166-.572-1.76-.242-.793-.506-1.475-.88-2.267l2.86-.88c.132.704.308 1.43.484 2.068.11.418.242.88.396 1.342 1.65-.858 3.256-1.232 4.929-1.298.088-.374.154-.727.22-1.057.11-.638.176-1.562.154-2.068l3.014.286c-.176.594-.374 1.65-.506 2.2l-.198.836zm-6.931 9.351c-.682-1.056-1.386-2.53-2.024-4.181-1.012 1.21-1.584 2.751-1.584 4.093 0 1.057.44 1.738 1.232 1.738.77 0 1.584-.66 2.376-1.65zm.11-5.875c.484 1.343 1.034 2.597 1.54 3.455.77-1.387 1.43-3.059 1.936-4.665-1.32.154-2.464.594-3.476 1.21z"/><path d="m330.122 110.303h-7.261v-2.068h7.261zm-.572 13.664h-3.828v.88h-2.024v-7.503h5.853v6.623zm-5.787-12.674h5.831v2.002h-5.831zm0 3.014h5.831v1.959h-5.831zm5.765-7.042h-5.633v-1.979h5.633zm-3.807 12.125v2.53h1.738v-2.53zm16.701.593c-.572.858-1.298 1.673-2.134 2.398.33.551.726.836 1.144.836.33 0 .55-.571.616-1.76.44.396 1.034.704 1.496.902-.308 2.112-.99 2.882-2.354 2.882-1.122 0-1.958-.571-2.596-1.562-.748.483-1.496.88-2.244 1.21-.264-.396-.836-1.013-1.254-1.364.924-.374 1.87-.902 2.75-1.519-.286-.902-.506-1.958-.66-3.146h-2.134v.836l1.76-.176.044 1.849-1.804.22v1.475c0 1.012-.198 1.474-.858 1.782-.704.286-1.65.308-2.948.308-.088-.55-.374-1.32-.638-1.848.748.021 1.584.021 1.826.021.264-.021.352-.088.352-.33v-1.144c-.946.132-1.848.22-2.64.308l-.242-2.002c.836-.066 1.804-.154 2.882-.242v-1.057h-2.75v-1.892h2.75v-.946c-.704.088-1.386.132-2.046.176-.066-.44-.308-1.101-.506-1.519 1.848-.176 4.049-.506 5.347-.924l1.342 1.54c-.022-.418-.044-.836-.044-1.254h2.178c0 1.056.022 2.046.066 2.927h2.266c-.44-.639-1.32-1.475-2.09-2.024l1.496-1.034c.814.55 1.804 1.408 2.244 2.024l-1.43 1.034h1.562v1.892h-3.873c.088.616.198 1.145.308 1.629.396-.419.77-.881 1.056-1.364l1.76.857zm-7.041-11.617h-4.621v-1.738h2.398c-.242-.462-.55-.968-.836-1.387l1.848-.638c.484.594 1.012 1.452 1.254 2.024h2.706c.374-.616.792-1.452.99-2.024l2.288.55c-.374.528-.726 1.034-1.034 1.475h2.376v1.738h-4.863v.814h4.181v1.649h-4.181v.881h5.303v1.87h-13.114v-1.87h5.303v-.881h-3.917v-1.649h3.917v-.814zm1.628 8.604c-.044-.528-.066-1.101-.088-1.673-.572.154-1.21.286-1.87.418v1.255z"/><path d="m357.048 111.204c-.594.484-1.21.946-1.848 1.32-.264-.638-.836-1.562-1.254-2.134l.154-.088h-7.129v-2.068h7.789v1.65c2.002-1.387 3.851-3.521 4.797-5.259h2.354c1.496 2.2 3.719 4.4 5.919 5.479-.506.616-1.012 1.54-1.386 2.288-.572-.352-1.166-.771-1.738-1.254v1.474h-7.657v-1.408zm-2.97 12.763h-4.071v.88h-2.134v-7.503h6.205zm-.044-10.672h-6.095v-2.002h6.095zm-6.095 1.012h6.095v1.959h-6.095zm6.051-7.042h-5.919v-1.979h5.919zm-3.983 12.125v2.53h1.936v-2.53zm16.546 3.476c0 .924-.132 1.475-.682 1.826-.528.33-1.188.374-2.09.374-.066-.594-.352-1.43-.616-2.002.396.021.77.021.924.021.176 0 .22-.065.22-.242v-2.376h-1.166v4.4h-1.716v-4.4h-1.1v4.4h-1.716v-4.4h-1.056v4.555h-2.178v-11.09h11.178v8.934zm-7.943-4.444v-2.421h-1.056v2.421zm5.325-7.944c-1.232-1.122-2.354-2.398-3.125-3.521-.682 1.122-1.738 2.398-2.948 3.521zm-2.508 7.944v-2.421h-1.1v2.421zm2.882 0v-2.421h-1.166v2.421z"/><path d="m373.774 108.08c1.826-.154 5.435-.484 9.417-.836 2.244-.176 4.621-.309 6.161-.374l.022 2.816c-1.166 0-3.036.021-4.203.286-2.64.704-4.599 3.521-4.599 6.095 0 3.586 3.344 4.885 7.041 5.061l-1.012 3.015c-4.577-.286-8.889-2.751-8.889-7.481 0-3.146 1.738-5.61 3.213-6.711-1.892.198-6.469.683-8.999 1.232l-.286-2.992c.88-.022 1.716-.066 2.134-.11zm14.302 6.711-1.672.748c-.55-1.21-1.012-2.068-1.716-3.059l1.628-.682c.528.792 1.342 2.112 1.76 2.992zm2.552-1.078-1.65.792c-.594-1.188-1.1-2.002-1.804-2.971l1.606-.748c.55.771 1.386 2.068 1.848 2.927z"/><path d="m411.578 113.207c-.902.33-2.09.616-3.366.88.55 1.166 1.166 2.442 1.804 3.631l-1.298 1.65c-1.21-.221-3.301-.551-4.753-.727l.242-2.09c.858.109 1.716.176 2.31.241l-.99-2.266c-2.729.308-6.271.374-9.571.132l-.11-2.509c3.256.309 6.227.309 8.691.044l-.374-.857-.528-1.232c-2.134.176-4.863.176-7.503-.088l-.132-2.486c2.486.264 4.665.352 6.601.242v-.022c-.396-.792-.682-1.276-1.056-1.87l3.103-.594c.154.659.396 1.408.682 2.178 1.474-.242 2.882-.572 4.181-1.012l.462 2.442c-1.122.33-2.31.638-3.74.88l.418.946.506 1.1c1.672-.33 2.926-.704 3.895-1.078l.528 2.465zm-12.211 4.093c-.286.66-.528 1.584-.528 2.112 0 1.364.968 2.288 3.807 2.288 2.068 0 4.225-.176 5.765-.484l-.088 2.795c-1.21.197-3.432.418-5.611.418-4.071 0-6.579-1.387-6.579-4.401 0-.989.286-2.156.528-2.97z"/><path d="m431.03 108.146c-.528.33-1.034.659-1.518.989-1.166.814-3.454 2.751-4.819 3.851.726-.197 1.342-.241 2.046-.241 3.697 0 6.513 2.31 6.513 5.479 0 3.433-2.618 6.161-7.877 6.161-3.036 0-5.325-1.387-5.325-3.564 0-1.761 1.606-3.389 3.917-3.389 2.684 0 4.313 1.65 4.643 3.719 1.188-.639 1.782-1.65 1.782-2.971 0-1.958-1.98-3.278-4.511-3.278-3.344 0-5.523 1.782-7.855 4.422l-1.98-2.046c1.54-1.254 4.159-3.477 5.457-4.532 1.21-1.013 3.477-2.839 4.555-3.785-1.122.022-4.115.154-5.259.242-.594.022-1.276.088-1.782.176l-.088-2.838c.616.065 1.364.109 1.98.109 1.144 0 5.809-.109 7.041-.22.902-.065 1.408-.154 1.672-.22l1.408 1.937zm-4.928 13.708c-.132-1.408-.946-2.333-2.134-2.333-.814 0-1.342.484-1.342 1.034 0 .814.924 1.364 2.2 1.364.462 0 .88-.021 1.276-.065z"/></g><path d="m165.811 32.497c.301.1.451.25.451.45 0 .176-.025.276-.125.401-.225.275-.301.626-.351.902-.075.45-.125.826-.2 1.252 2.305-.226 4.084-.501 6.514-1.052.301-.075.376.024.426.25.125.526.25 1.153.25 1.704 0 .325-.25.451-.526.501-3.307.677-4.836.852-7.116 1.053-.1 1.052-.15 1.653-.175 2.53.977-.326 2.606-.526 3.833-.552.15-.4.401-1.127.426-1.828.902.275 1.879.676 2.23.927.301.2.451.4.451.551 0 .101-.05.201-.15.301-.125.125-.2.275-.326.501 3.232.853 5.136 2.981 5.136 6.113 0 3.634-2.982 5.988-6.965 7.065-.551.15-.827.075-1.103-.476-.175-.351-.676-.877-1.478-1.554 1.804-.376 3.733-1.178 4.66-1.829 1.203-.877 2.004-1.954 2.004-3.758 0-2.005-1.428-3.207-3.107-3.633-1.453 2.756-2.931 4.735-4.735 6.564.125.451.276.727.451 1.127.15.326.05.451-.2.627-.576.426-1.152.727-1.503.877-.251.125-.351.125-.501-.126-.175-.301-.301-.601-.426-.977-1.779 1.228-3.082 1.804-4.359 1.804-1.704 0-2.781-1.152-2.781-3.106 0-3.207 2.781-6.264 5.863-7.792.025-1.078.075-2.181.125-3.132-1.478.05-2.155.024-2.581.024-.727 0-1.127 0-1.428-.05-.276-.025-.426-.15-.451-.576-.075-.552-.075-1.203-.125-1.904 1.604.176 2.982.125 4.861.101.1-.902.2-2.03.2-2.731 0-.376-.025-.727-.1-1.128 1.453.176 2.305.352 2.932.577zm-6.665 16.085c0 .602.376.952.827.952.701 0 1.629-.451 2.906-1.453-.25-1.504-.451-2.856-.501-4.31-1.929 1.378-3.232 3.182-3.232 4.811zm8.895-6.515c-.902.025-2.054.201-3.207.576.025 1.303.1 2.48.301 3.759 1.027-1.178 2.205-2.932 2.906-4.335z" fill="#fff"/><path d="m189.508 41.792c1.403-.802 2.581-1.127 3.984-1.127 3.658 0 6.214 2.404 6.214 6.013 0 4.185-3.382 6.865-8.744 6.865-3.157 0-5.061-1.354-5.061-3.684 0-1.679 1.578-3.057 3.533-3.057 2.355 0 4.084 1.253 4.71 3.658 1.754-.802 2.556-1.904 2.556-3.809 0-2.279-1.604-3.783-3.934-3.783-2.08 0-4.385.928-6.414 2.656-.727.651-1.428 1.378-2.18 2.13-.175.175-.301.275-.426.275-.1 0-.225-.075-.376-.226-.526-.451-1.077-1.103-1.478-1.629-.15-.2-.075-.376.125-.576 1.954-1.578 3.683-3.182 5.938-5.537 1.553-1.604 2.731-2.856 3.884-4.284-1.503.275-3.282.626-4.836.952-.326.075-.651.15-1.052.301-.125.05-.376.125-.501.125-.251 0-.426-.125-.551-.426-.301-.576-.526-1.278-.877-2.706.752.101 1.578.101 2.33.05 1.528-.15 3.733-.476 5.688-.852.626-.125 1.127-.251 1.378-.376.125-.075.351-.2.476-.2.251 0 .401.075.576.2.752.576 1.253 1.077 1.679 1.604.2.226.276.401.276.602 0 .25-.15.476-.426.602-.426.2-.626.375-1.102.802-1.829 1.778-3.508 3.532-5.412 5.361l.025.075zm.025 7.14c-.727 0-1.203.426-1.203.952 0 .776.676 1.303 2.18 1.303.451 0 .777-.025 1.152-.101-.326-1.378-1.077-2.154-2.13-2.154z" fill="#fff"/><path d="m206.603 42.418c.827-.651 2.631-2.204 4.485-3.883.827-.752 1.453-1.053 2.18-1.053.852 0 1.328.226 2.18.927 1.879 1.504 2.956 2.506 5.412 4.31 2.23 1.604 3.959 2.581 5.913 3.684.25.1.376.301.25.526-.276.751-.752 1.703-1.228 2.354-.125.176-.225.251-.326.251s-.2-.025-.351-.125c-1.203-.702-3.934-2.706-5.412-3.859-1.804-1.353-3.608-2.956-5.261-4.435-.476-.45-.802-.576-1.102-.576-.276 0-.526.226-.852.526-1.228 1.228-3.032 2.956-4.209 4.134-.501.526-.702.777-.902 1.103-.125.2-.276.301-.451.301s-.326-.075-.476-.226c-.526-.526-1.453-1.729-2.054-2.605.752-.301 1.378-.702 2.205-1.354zm13.981-7.09c.125-.101.225-.075.376.05.777.602 1.679 1.604 2.38 2.681.1.15.1.275-.075.401l-1.052.776c-.175.125-.301.101-.426-.075-.752-1.152-1.553-2.104-2.531-2.906zm2.23-1.629c.15-.101.226-.075.376.05.927.702 1.829 1.704 2.38 2.581.1.15.125.301-.075.451l-1.002.776c-.2.15-.326.075-.426-.075-.677-1.077-1.478-2.029-2.505-2.881l1.253-.902z" fill="#fff"/><path d="m237.361 34.025c-.225-.552-.451-1.053-.877-1.604 1.002-.176 2.03-.276 3.032-.276.351 0 .551.201.551.451 0 .15-.05.326-.05.477 0 .226.05.476.1.751.175.651.25.877.401 1.303 1.954-.375 3.332-.751 5.111-1.327.225-.101.351-.075.426.125.15.476.326 1.178.426 1.679.05.251-.125.4-.301.451-1.679.526-3.207.901-4.911 1.277.225.627.551 1.403.877 2.104 2.029-.426 3.357-.852 4.56-1.303.251-.125.376-.075.451.15.225.576.326 1.053.451 1.653.05.226.05.352-.2.451-1.253.477-2.831.928-4.234 1.228 1.077 1.805 2.055 3.207 3.282 4.335.25.226.25.325.125.602-.276.576-.626 1.077-1.027 1.553-.15.176-.251.251-.401.251-.1 0-.2-.05-.351-.15-.401-.326-.902-.551-1.478-.802-1.278-.551-2.931-.802-4.71-.802-2.355 0-3.733.727-3.733 1.904 0 1.629 2.13 2.154 5.963 2.154.927 0 1.854-.1 2.756-.15.25 0 .326.126.301.326-.1.626-.276 1.604-.501 2.28-.075.25-.175.351-.526.376-.576.05-1.178.074-1.804.074-5.763 0-8.819-1.628-8.819-4.71 0-2.681 2.305-4.359 6.214-4.359 1.829 0 3.307.2 4.309.626-.576-.676-1.403-1.879-2.08-2.956-2.581.4-5.036.701-6.865.752-.276 0-.376-.101-.451-.352-.15-.501-.376-1.353-.451-2.054 2.505-.051 4.51-.251 6.74-.627-.25-.526-.626-1.378-.952-2.079-2.305.351-4.159.576-6.088.601-.301 0-.451-.1-.501-.351-.075-.275-.251-1.202-.401-2.004 2.455.024 4.46-.176 6.239-.401-.2-.576-.351-1.002-.601-1.628z" fill="#fff"/><path d="m253.427 46.953c.075-.501.125-.852.1-1.403.752.101 1.453.201 1.929.326.301.075.426.176.426.301s-.075.226-.15.351-.125.501-.2.902c-.225 1.453-.626 3.231-1.127 4.609-.125.376-.225.526-.351.526s-.301-.1-.576-.301c-.351-.226-.902-.501-1.278-.626.601-1.604 1.027-3.082 1.228-4.686zm7.341-7.616c.301-.126.351-.075.476.15.777 1.478 1.353 3.006 1.829 4.484.1.275.025.376-.301.501l-1.178.426c-.276.101-.376.051-.426-.175l-.301-1.128c-.626.051-1.278.126-1.929.201v6.915c0 2.305.05 3.156.05 3.282 0 .25-.025.275-.276.275h-1.954c-.251 0-.276-.025-.276-.275 0-.15.05-.978.05-3.282v-6.715c-.827.075-1.604.125-2.355.175-.426.025-.752.126-.902.201-.1.05-.251.125-.401.125s-.226-.176-.276-.426c-.125-.602-.225-1.303-.351-2.104.727.05 1.403.075 2.004.05h.351c.451-.552.877-1.128 1.278-1.729-1.027-1.328-2.205-2.606-3.458-3.783-.1-.101-.15-.15-.15-.226s.075-.176.175-.326l.827-1.303c.1-.15.175-.226.25-.226.05 0 .125.05.226.15l.752.752c.526-.853.927-1.654 1.378-2.606.326-.676.451-1.077.576-1.553.702.25 1.604.602 2.18.927.251.15.326.275.326.401 0 .125-.1.225-.226.325-.2.15-.301.275-.476.602-.802 1.403-1.428 2.431-2.23 3.532.401.451.827.902 1.203 1.378.626-.977 1.228-1.979 1.804-2.981.301-.551.551-1.177.752-1.729.827.351 1.528.727 2.105 1.077.225.126.301.226.301.376 0 .176-.075.275-.276.376-.251.15-.451.426-.827 1.027-1.278 2.004-2.631 3.908-3.783 5.412l2.881-.201c-.2-.525-.451-1.026-.702-1.528-.1-.226-.075-.301.276-.426l1.002-.4zm.275 5.988c.301-.075.351-.051.426.225.401 1.253.727 2.456.927 3.909.025.275 0 .376-.326.451l-1.228.325c-.376.101-.426.101-.451-.15-.125-1.604-.426-2.881-.802-4.033-.1-.276 0-.326.301-.401l1.152-.325zm3.658 8.242c-2.405 0-3.232.051-3.382.051-.276 0-.301-.025-.301-.275v-1.955c0-.275.025-.301.301-.301.125 0 .651.051 2.105.051v-13.956c0-2.856-.05-4.284-.05-4.435 0-.275.025-.301.276-.301.15 0 .852.051 2.856.051h3.959c2.029 0 2.706-.051 2.856-.051.276 0 .301.025.301.301 0 .15-.05 1.604-.05 4.435v13.956c1.253 0 1.754-.051 1.879-.051.276 0 .301.025.301.301v1.955c0 .25-.025.275-.301.275-.15 0-.952-.051-3.357-.051h-7.391zm1.278-18.64v3.633h5.036v-3.633zm5.036 9.746v-3.708h-5.036v3.708zm0 6.465v-4.059h-5.036v4.059z" fill="#fff"/><path d="m279.839 47.129c.025-.477.05-.927.025-1.528.701.1 1.378.226 1.779.325.301.075.376.176.376.301s0 .226-.1.376c-.075.15-.1.477-.125.877-.15 1.679-.426 3.257-.877 4.66-.125.401-.2.576-.326.576s-.301-.1-.576-.301c-.351-.25-.902-.551-1.152-.651.576-1.403.852-2.981.977-4.635zm10.348-11.15c-1.704 0-2.23.05-2.38.05-.25 0-.276-.025-.276-.301v-.275l-.15.101c-.25.15-.376.351-.727.952-1.303 2.104-2.505 3.883-3.708 5.486.727-.024 1.428-.075 2.155-.15-.175-.476-.351-.952-.551-1.428-.075-.275-.075-.351.275-.451l.952-.275c.301-.075.376-.075.451.125.626 1.528.977 2.906 1.303 4.31.05.251.025.326-.276.401l-1.052.3c-.326.101-.426.051-.451-.2l-.15-.852c-.326.05-.651.101-.952.125v6.815c0 2.305.05 3.156.05 3.282 0 .25-.025.275-.276.275h-1.804c-.25 0-.275-.025-.275-.275 0-.15.05-.978.05-3.282v-6.59c-.476.05-.977.101-1.503.125-.451.025-.802.101-.952.201-.125.075-.226.125-.401.125-.1 0-.2-.15-.276-.426-.15-.651-.276-1.378-.376-2.104.601.024 1.103.024 1.604.024.501-.676 1.002-1.353 1.453-2.055-.902-1.177-1.829-2.279-2.906-3.382-.2-.15-.175-.226.05-.501l1.027-1.203c.2-.226.226-.226.401-.024l.376.4c.476-.752.927-1.629 1.378-2.681.225-.526.376-.952.501-1.429.677.276 1.353.526 1.954.827.25.125.326.251.326.401s-.1.25-.226.325c-.175.125-.301.275-.426.602-.727 1.303-1.328 2.405-2.054 3.532l.902 1.103c.526-.852.977-1.703 1.453-2.556.301-.501.526-1.027.702-1.528.701.251 1.353.576 1.929.902.075.05.15.075.2.125v-.826c0-.226.025-.251.276-.251.15 0 .677.05 2.355.05v-.727c0-.701-.025-1.277-.15-1.854.927 0 1.528.05 2.355.125.275.025.426.125.426.226 0 .175-.1.301-.175.476-.075.201-.1.502-.1 1.027v.727c1.654 0 2.155-.05 2.305-.05.25 0 .276.025.276.251v1.628c0 .275-.025.301-.276.301-.15 0-.651-.05-2.38-.05h-2.255zm-3.834 9.446c.301-.075.351-.024.426.226.301 1.178.651 3.057.752 4.46.025.275-.05.301-.351.4l-.977.301c-.401.126-.426.101-.451-.2-.125-1.578-.376-3.407-.677-4.585-.05-.275 0-.301.301-.376zm4.26-4.134c-2.43 0-3.282.05-3.433.05-.25 0-.276-.024-.276-.275v-1.653c0-.276.025-.301.276-.301.1 0 .576.05 1.679.05-.15-.701-.426-1.554-.651-2.104-.1-.251-.05-.275.276-.376l1.152-.325c.276-.075.326-.051.426.2.276.651.601 1.703.802 2.605h1.052c.176-.602.326-1.253.426-1.804.05-.301.1-.627.125-1.077.727.15 1.453.325 1.954.525.15.075.276.126.276.276 0 .175-.075.226-.15.301-.1.1-.175.225-.25.45l-.451 1.328h1.904l-.075-4.209c-.025-1.679-.05-2.431-.175-3.482.927.024 1.453.05 2.355.15.226.024.426.15.426.275 0 .2-.1.351-.15.526-.125.3-.175.751-.15 2.455 0 1.554 0 2.981.05 4.284h.426c2.43 0 3.282-.05 3.407-.05.276 0 .301.024.301.301v1.653c0 .251-.025.275-.301.275-.125 0-.977-.05-3.407-.05h-.351c.1 1.729.2 3.232.401 4.51.25-.476.476-.978.677-1.503.225-.627.426-1.253.576-2.005.651.275 1.403.627 1.904.952.226.15.301.275.301.426 0 .201-.1.301-.276.501-.15.176-.426.727-.651 1.229-.576 1.252-1.203 2.354-1.879 3.356.401 1.529.777 2.256 1.077 2.256.276 0 .501-.602.601-2.932.351.325.852.651 1.278.901.451.226.426.326.376.827-.326 2.981-1.027 4.034-2.23 4.034-.952 0-1.954-.952-2.781-2.957-1.002 1.103-2.155 2.104-3.458 3.057-.276.201-.451.276-.576.276s-.225-.126-.401-.401c-.301-.451-.727-.978-1.152-1.277.651-.401 1.278-.777 1.829-1.203h-.727c-.25 0-.276-.025-.276-.275v-.301h-2.631v1.428c0 .251-.025.276-.276.276h-1.528c-.251 0-.276-.025-.276-.276 0-.15.05-.826.05-4.484v-1.979c0-2.18-.05-2.906-.05-3.082 0-.25.025-.275.276-.275.175 0 .651.05 2.155.05h1.979c1.478 0 1.954-.05 2.104-.05.251 0 .276.025.276.275 0 .15-.05.853-.05 2.456v2.255c0 1.703 0 2.655.025 3.182.727-.626 1.378-1.277 1.954-1.979l-.175-.877c-.376-1.703-.576-3.833-.702-6.389h-5.236zm-.526 4.434h2.631v-1.528h-2.631zm2.63 3.257v-1.528h-2.631v1.528zm7.517-11.8c-.301.126-.401.126-.476-.175-.326-1.303-.727-2.456-1.228-3.357-.125-.226-.1-.326.2-.451l1.127-.451c.301-.125.326-.15.476.075.601 1.002 1.077 2.28 1.353 3.308.075.25.025.4-.226.501l-1.228.551z" fill="#fff"/><path d="m315.077 42.769c0 1.378-1.128 2.505-2.506 2.505s-2.505-1.127-2.505-2.505 1.127-2.506 2.505-2.506 2.506 1.128 2.506 2.506z" fill="#fff"/><path d="m332.923 40.79c0-.802-.025-1.804-.05-2.531-.025-.325-.05-.651-.125-1.152-1.654.301-4.009.677-5.938.802-.376.051-.526-.275-.626-.551-.251-.501-.601-1.027-1.278-1.729 3.132-.15 5.086-.477 7.441-.928 1.729-.376 2.982-.651 4.134-1.077 1.178-.451 1.604-.701 2.155-1.127.852.626 1.654 1.252 2.054 1.754.2.2.326.426.326.701s-.251.325-.652.351c-.526.075-1.052.301-1.578.426-1.528.426-3.057.802-4.535 1.103.651.075 1.228.176 1.628.326.2.05.326.175.326.351 0 .125-.075.25-.15.426-.1.226-.15.476-.176.852-.025.552-.025 1.128-.025 1.979h3.107c1.579 0 3.708-.125 4.836-.175.25 0 .25.125.276.4.05.651.025 1.428 0 2.005-.025.351-.025.45-.326.45-1.579-.05-3.032-.075-4.861-.075h-3.082c-.2 2.13-.551 3.634-1.253 5.036-.877 1.854-2.355 3.608-3.984 4.686-.15.101-.276.176-.426.176-.125 0-.276-.051-.451-.15-.902-.477-1.829-.777-2.656-.952 2.505-1.479 3.658-2.756 4.685-4.636.651-1.277 1.002-2.605 1.102-4.159h-4.46c-.902 0-2.756 0-3.984.101-.326.025-.401-.176-.476-.576-.125-.477-.251-1.503-.251-2.28 1.779.15 3.633.176 4.861.176h4.41z" fill="#fff"/><path d="m353.898 44.548c-2.48 0-3.432.301-3.683.301-.301 0-.501-.15-.576-.526-.125-.576-.276-1.754-.376-3.031 1.628.25 2.881.301 5.412.301h8.068c1.904 0 3.833-.051 5.763-.075.376-.025.451.05.451.351.05.752.05 1.604 0 2.355 0 .301-.1.4-.451.376-1.879-.025-3.733-.051-5.587-.051h-9.02z" fill="#fff"/><path d="m383.729 33.899c.176.126.301.251.301.401 0 .125-.075.301-.251.501-.451.576-.751 1.353-1.027 2.079-1.403 3.834-2.731 7.517-4.31 11.275 3.859-.326 5.963-.526 8.769-.952-.777-1.378-1.704-2.756-2.781-4.009.751-.401 1.478-.827 2.18-1.203.276-.15.426-.05.601.15 1.954 2.28 3.833 5.412 5.061 8.193.075.125.1.226.1.325 0 .15-.1.301-.326.426-.601.401-1.228.728-1.904 1.027-.1.051-.2.075-.301.075-.15 0-.276-.125-.351-.351-.301-.701-.576-1.353-.877-2.004-4.009.601-7.817 1.027-11.901 1.453-1.654.175-2.33.301-2.931.602-.326.149-.601.1-.727-.251-.2-.426-.526-1.679-.877-3.232 1.002.075 2.054.051 3.057.025 1.779-4.485 3.082-8.193 4.385-12.402.401-1.303.651-2.18.727-3.433 1.528.451 2.606.802 3.382 1.303z" fill="#fff"/><path d="m364.543 178.391h-13.837v-4.174c0-6.041-4.897-10.938-10.939-10.938h-57.126c-6.042 0-10.938 4.897-10.938 10.938v21.957c0 6.041 4.897 10.938 10.938 10.938h57.126c6.042 0 10.939-4.897 10.939-10.938v-5.678l13.837-12.104z" fill="#005a96"/><path d="m364.543 178.391h-13.837v-4.174c0-6.041-4.897-10.938-10.939-10.938h-57.126c-6.042 0-10.938 4.897-10.938 10.938v21.957c0 6.041 4.897 10.938 10.938 10.938h57.126c6.042 0 10.939-4.897 10.939-10.938v-5.678l13.837-12.104z" fill="none" stroke="#fff" stroke-miterlimit="10" stroke-width="2.233"/></svg>