<?xml version="1.0" encoding="UTF-8"?>
<svg id="_レイヤー_2" data-name="レイヤー 2" xmlns="http://www.w3.org/2000/svg" viewBox="0 0 222.5 219.346">
  <defs>
    <style>
      .cls-1 {
        fill: #ff3131;
      }

      .cls-2 {
        fill: #052323;
      }
    </style>
  </defs>
  <g id="_レイヤー_1-2" data-name="レイヤー 1">
    <g>
      <path class="cls-1" d="M86.2,124.296c-1.7-.3-2.2-1.1-2.2-3.5,0-3.5.7-3.75,9.9-3.95l7.6-.2v-1.45c0-1.8.25-1.9,5-2.1,5.3-.2,6.2.1,6.5,2.1l.25,1.65,6.75-.05c8.1-.05,10,.5,10.7,2.8.7,2.5-.4,4.65-2.4,4.75-3.4.15-41.2.15-42.1-.05h0Z"/>
      <path class="cls-1" d="M41,107.696c-.7-.3-1.8-1-2.4-1.6-2.7-2.5-2.6-1.3-2.6-36.85,0-36.55-.1-35.3,3.15-37.6,1.3-.95,2.4-1.15,7.2-1.3l5.65-.25v8.15h-8v62h9.65c11.2,0,16.95.55,24.6,2.25,5.75,1.3,16.65,4.6,17.5,5.35.65.6-53.2.45-54.75-.15h0Z"/>
      <path class="cls-1" d="M118.55,108.046c.95-.95,11.5-4.15,19.75-6,5.45-1.2,17.15-2.2,25.05-2.1,5.55.05,7.2-.1,7.4-.6.15-.4.25-12.35.25-26.65v-25.95h7.85l.05,26.05c.05,15.05-.15,27.1-.45,28.6-.55,3.05-2.75,5.6-5.45,6.35-1.65.45-54.9.75-54.45.3h0Z"/>
      <path class="cls-1" d="M94.75,102.746c-3.65-1.45-9.45-3.2-14.85-4.45-8.05-1.85-10.6-2.2-20.15-2.75l-3-.15-.15-38.1-.1-38.05h6.5v69.75l5.65,1.2c10,2.15,19.5,6.05,27.35,11.3,3.9,2.6,5.55,3.85,5,3.7-.15-.05-2.95-1.15-6.25-2.45h0Z"/>
      <path class="cls-1" d="M113.8,104.796c1.5-1.5,9.65-6.45,13.45-8.3,5.35-2.55,13.9-5.4,19.9-6.55l4.35-.85V19.246h6.5l-.1,38.15-.15,38.1-6.75.35c-10.05.55-22.2,3.25-31.95,7.1-3.15,1.25-5.5,2.05-5.25,1.85h0Z"/>
      <path class="cls-1" d="M96,97.596c-7.8-5.65-16.4-10.6-24.35-13.9l-3.65-1.55V5.696l1.15.3c2.8.9,11.95,5,15.1,6.85,4.85,2.85,12.65,8.45,14.75,10.65,1.65,1.75,1.5,1.7-2.75-1-5.75-3.6-11.45-6.35-17-8.25-2.45-.85-4.5-1.5-4.6-1.5s-.15,14.25-.15,31.7v31.7l4.85,3.9c5.4,4.35,14.9,13.35,18.75,17.8,1.4,1.6,2.4,2.9,2.3,2.85-.05,0-2.05-1.4-4.4-3.1h0Z"/>
      <path class="cls-1" d="M116.3,97.946c3.85-4.45,13.3-13.4,18.95-18l5-4,.15-31.6c.05-17.4-.1-31.6-.3-31.6-.25,0-2.35.65-4.75,1.45-5.6,1.9-12.5,5.3-17.85,8.85l-4.25,2.8,2-2.1c2.2-2.25,9.7-7.75,14.55-10.7,3-1.75,13.3-6.35,15.6-6.95l1.1-.25v76.15l-7.2,3.4c-6.45,3.1-16.65,9.2-23.15,13.85l-2.4,1.7,2.55-3Z"/>
      <path class="cls-1" d="M170.85,38.446c-.2-.2-.35-4.25-.35-9,0-7.35.1-8.65.8-8.9.45-.15,3.85-.3,7.65-.3h6.85l1.6-1.65c1.45-1.5,1.55-1.85,1.7-5.85l.15-4.25h11v11.95l-4.1.05c-3.8,0-4.2.1-5.6,1.45l-1.5,1.45-.15,7.55-.15,7.55-8.8.15c-4.8.05-8.9-.05-9.1-.2Z"/>
      <path class="cls-1" d="M180.25,6.296c-.45-.75-.15-5.55.4-5.9.6-.35,5.4-.55,6.25-.25.4.15.6,1.3.6,3.4v3.2h-3.45c-1.95,0-3.6-.2-3.8-.45Z"/>
    </g>
    <g>
      <path class="cls-2" d="M0,210.046v-9.3h4c4.7,0,6.55.75,7.5,2.95.85,2.05.2,4.45-1.65,6.15l-1.5,1.4,2.35,3.8c1.25,2.05,2.3,3.85,2.3,3.95,0,.15-.55.25-1.2.25-.95,0-1.6-.8-3.5-4.05-2.3-3.95-2.4-4-4.15-3.85l-1.75.15-.1,3.75c-.05,3.5-.15,3.75-1.15,3.9L0,219.296v-9.25h0ZM7.35,209.196c.75-.25,1.55-.8,1.75-1.1.65-1,.45-3.75-.35-4.55s-4.8-1.6-5.85-1.15c-.55.2-.7,2.85-.45,7,.05.55,3.3.45,4.9-.2h0Z"/>
      <path class="cls-2" d="M16.5,209.996v-9.25h5.3c4.65,0,5.25.1,5,.8-.15.45-.3.8-.3.85s-1.8.05-4-.05l-4-.2v6.6h4.05c3,0,4,.15,3.85.65-.15.4-1.55.65-4.05.75l-3.85.15v6.9l4.15.15c3.25.1,4.1.3,4.1.9s-.95.8-5.1.9l-5.15.15v-9.3h0Z"/>
      <path class="cls-2" d="M28.5,218.896c0-.2,1.6-4.4,3.55-9.3,4.65-11.65,4.5-11.65,9.05.15,1.85,4.8,3.4,8.9,3.4,9.15,0,.2-.5.35-1.05.25-.85-.1-1.35-.85-2.1-3l-1.05-2.9h-7.6l-1.05,2.9c-.75,2.15-1.25,2.9-2.1,3-.55.1-1.05,0-1.05-.25h0ZM39.25,210.396c-.2-.5-.85-2.35-1.5-4.1l-1.15-3.2-1,2.7c-.55,1.5-1.25,3.3-1.55,4.1l-.55,1.35h3.05c2.7,0,3-.1,2.7-.85Z"/>
      <path class="cls-2" d="M47.5,210.046v-9.3h4.35c3.65,0,4.6.2,6.4,1.2,2.9,1.7,3.95,4.15,3.65,8.75-.3,6-2.8,8.1-10,8.45l-4.4.2v-9.3h0ZM56.15,216.546c2.6-1.05,3.6-3,3.6-6.9,0-3.1-.1-3.5-1.55-4.9-1.55-1.6-4.1-2.45-7.05-2.5h-1.65v15h2.5c1.4,0,3.25-.3,4.15-.7Z"/>
      <path class="cls-2" d="M70.65,218.896c-.35-.1-.65-.7-.65-1.25,0-.85.2-.95,1.65-.55,4.3,1.1,7.85-.1,7.85-2.6,0-1.45-1.15-2.45-4.5-3.9-3.3-1.5-4.45-2.65-4.8-4.95-.4-2.25,1.6-4.7,4.1-5.2,2.55-.45,6.4.35,6.6,1.45.15.85-.1.9-2.85.55-3.75-.4-5.55.5-5.55,2.8,0,1.6,1.55,3,4.6,3.95,4.95,1.6,6.1,7.15,1.9,9.3-1.4.7-6.95,1-8.35.4h0Z"/>
      <path class="cls-2" d="M95.5,210.746v-8.5h-3c-2.35,0-3-.15-3-.75,0-.65,1.15-.75,7.25-.75,4,0,7.25.15,7.25.4-.05.95-.95,1.35-3.25,1.35h-2.5l-.15,8.4-.1,8.35h-2.5v-8.5Z"/>
      <path class="cls-2" d="M106.5,209.996v-9.25h5.3c4.6,0,5.25.1,5.1.8-.1.65-.9.85-4.15.9l-4,.05v6l3.9.15c2.9.1,3.85.3,3.85.85s-.95.75-3.85.85l-3.9.15-.15,3.4-.15,3.35h4.3c3.9,0,4.25.1,4.25,1,0,.95-.35,1-5.25,1h-5.25v-9.25h0Z"/>
      <path class="cls-2" d="M124,218.096c-2.7-1.75-3.7-4-3.75-8.1,0-2.65.25-3.9,1.05-5.25,2-3.45,5.85-5.05,10.15-4.2,1.6.3,2.35.7,2.45,1.35.15.85-.1.9-3.25.6-2.9-.25-3.65-.15-5.05.75-2.25,1.4-3.25,4-3,7.6.35,5.1,3.55,7.5,8.55,6.5,2.1-.4,2.35-.35,2.35.4,0,1.2-1,1.5-4.7,1.5-2.45,0-3.55-.25-4.8-1.15Z"/>
      <path class="cls-2" d="M138,210.046c0-7.4.15-9.25.7-9.45,1.15-.45,1.3.1,1.3,4.25v3.95l4.9-.15,4.85-.15.15-3.75c.15-3.45.7-4.8,1.7-4.2.2.15.4,4.4.4,9.5,0,8.8-.05,9.2-1,9.2-.85,0-.95-.4-1.1-4.35l-.15-4.4-4.85-.15-4.9-.15v4.55c0,4.15-.05,4.5-1,4.5s-1-.35-1-9.2Z"/>
      <path class="cls-2" d="M157,210.046v-9.3h4.2c2.35,0,4.8.2,5.5.5,3.25,1.2,3.65,5.7.65,7.5-1.1.7-1.35,1-.7,1,.5,0,1.45.55,2.1,1.25,1.75,1.7,1.7,4.25-.2,6.35-1.4,1.6-1.55,1.6-6.5,1.8l-5.05.2v-9.3h0ZM166.4,216.446c.8-.55,1.1-1.25,1.1-2.75,0-1.8-.15-2.05-1.8-2.75-1-.4-2.85-.7-4.1-.6l-2.35.15-.1,2.75c-.05,1.5,0,3.05.1,3.4.3.9,5.75.8,7.15-.2h0ZM166.2,207.796c1-.85,1.05-3.75.1-4.5-.4-.35-2.15-.65-3.85-.7l-3.15-.1-.2,2c-.05,1.1,0,2.55.15,3.2.3,1.1.5,1.15,3.25.95,1.6-.1,3.25-.5,3.7-.85Z"/>
      <path class="cls-2" d="M174,210.096c0-5.05.15-9.3.3-9.45.15-.15.7-.2,1.25-.05.9.25.95.7.8,8.45l-.1,8.15,4,.15c3.35.15,4,.3,4.15,1.05s-.35.85-5.1.85h-5.3v-9.15h0Z"/>
      <path class="cls-2" d="M190.5,218.096c-2.7-1.75-3.7-4-3.75-8.1,0-4.6,1.2-7.05,4.25-8.6,4.6-2.35,9.55-.85,11.85,3.55,1.15,2.2.95,7.7-.35,10.25-1.45,2.9-3.5,4.05-7.3,4.05-2.35,0-3.45-.25-4.7-1.15h0ZM198.85,216.496c3.65-2.4,3.4-11.55-.4-13.5-3.2-1.65-7.25-.5-8.65,2.45-1.05,2.25-1.05,6.6.1,8.8,1.6,3.25,5.8,4.3,8.95,2.25h0Z"/>
      <path class="cls-2" d="M211.55,218.346c-2.35-1.15-3.45-2.8-4.15-6.25-.55-2.55-.5-3.2.35-5.75,1.25-3.5,3.75-5.45,7.5-5.9,3.25-.4,6.9.55,6.65,1.7-.15.45-.55.75-.95.65-.4-.05-1.95-.25-3.45-.4-5-.4-8,2.4-8,7.5,0,5.6,3.45,8.55,9,7.6l2-.35v-5.9h-2c-1.65,0-2-.15-2-1,0-.9.35-1,3-1h3v9.4l-1.55.3c-3.05.6-7.65.3-9.4-.6Z"/>
      <path class="cls-2" d="M64.5,206.596c0-.45.25-1.9.6-3.3.5-2.2.75-2.55,1.8-2.55s1.15.15.9,1.3c-.85,3.3-3.3,6.7-3.3,4.55Z"/>
      <path class="cls-2" d="M21.1,162.396l.15-15.85,8.25.15c8.85.15,10.65.55,13.1,2.9,4.45,4.3,3.35,12.4-2.1,15.15-1.65.85-1.95,1.2-1.55,1.9.25.5,1.85,3.2,3.5,6,1.7,2.85,3.05,5.3,3.05,5.4,0,.15-1.95.15-4.3.1l-4.3-.15-3.25-5.85c-2.4-4.3-3.5-5.9-4.2-5.9-.9,0-.95.45-.95,6v6h-7.5l.1-15.85h0ZM36.35,159.646c.8-.75,1.15-1.65,1.15-2.9,0-2.75-1.3-3.7-5.55-3.9l-3.45-.2v8.1h3.35c2.75,0,3.55-.2,4.5-1.1h0Z"/>
      <path class="cls-2" d="M50.5,162.396v-15.9l8.9.1c4.85.05,9.2.1,9.6.1.6.05.75.7.65,2.9l-.05,2.9-5.8.15-5.8.15v6.45h10.55l-.15,2.85-.15,2.9-5.15.15-5.15.15.15,3.35.15,3.35,5.7.25,5.65.25.05,2.75.05,2.75-9.6.15-9.6.1v-15.85h0Z"/>
      <path class="cls-2" d="M72.75,177.396c.2-.5,2.7-7.4,5.6-15.4,2.9-8,5.45-14.7,5.7-14.95.7-.8,8.25-.9,8.8-.15.25.3,2.35,5.8,4.65,12.1,2.25,6.35,4.75,13.25,5.55,15.4l1.4,3.85h-8.25l-.9-2.75-.85-2.8-6.05.15-6.05.15-.85,2.5-.85,2.5-4.15.15c-3.8.15-4.1.05-3.75-.75h0ZM92,166.146c0-1.05-3.2-10.4-3.55-10.4-.2,0-1.1,2.2-2,4.9-.85,2.65-1.7,5.15-1.85,5.5-.15.45.75.6,3.6.6,2.6,0,3.8-.2,3.8-.6Z"/>
      <path class="cls-2" d="M108.1,162.446l.15-15.95h4.75c8.2-.05,12.6.5,15.3,1.9,4.95,2.55,7.7,6.85,8.1,12.55.45,7.25-2.2,12.3-8.1,15.3l-3.45,1.75-8.45.2-8.4.15.1-15.9h0ZM124.25,170.446c2.9-1.35,3.95-3.35,4.15-7.7.15-3.25.05-3.95-1-5.45-2-3-3.55-3.75-7.7-3.95l-3.7-.2v18.75l3.25-.3c1.8-.2,4.05-.7,5-1.15h0Z"/>
      <path class="cls-2" d="M141.1,162.396l.15-15.9h4.2c3.65-.05,4.25.05,4.8,1,.3.55,2.4,5.45,4.55,10.85s4.05,9.7,4.15,9.6c.15-.15,2.2-5,4.55-10.8l4.25-10.55,4.15-.05c2.3-.05,4.4.1,4.65.25.3.15.45,6.45.35,15.75l-.15,15.45-3.85.15-3.9.15v-9.4l-.05-9.4-2.25,6c-1.25,3.3-2.8,7.5-3.5,9.4l-1.3,3.35h-6.15l-3.5-9.35-3.5-9.4-.15,9.4-.1,9.35h-7.5l.1-15.85h0Z"/>
      <path class="cls-2" d="M182.5,162.496v-15.75l2.9-.05c1.55-.05,5.9-.05,9.6-.05l6.75.05.15,3,.15,3.05h-11.55v6.5h10v6h-10v7h11.5v6h-19.5v-15.75Z"/>
    </g>
  </g>
</svg>