<?xml version="1.0" encoding="UTF-8"?><svg id="_レイヤー_2" xmlns="http://www.w3.org/2000/svg" viewBox="0 0 360.32644 50.30494"><defs><style>.cls-1{stroke-width:5px;}.cls-1,.cls-2{stroke:#fff;stroke-miterlimit:10;}.cls-1,.cls-3{fill:#fff;}.cls-2{fill:#000;}.cls-3{stroke-width:0px;}</style></defs><g id="_レイヤー_1-2"><path class="cls-2" d="M335.17397.5H25.15247C11.53679.5.5,11.53728.5,25.15247s11.03679,24.65247,24.65247,24.65247h310.0215c13.61519,0,24.65247-11.03728,24.65247-24.65247S348.78917.5,335.17397.5Z"/><path class="cls-3" d="M28.11217,27.72397c-.33594-.76758-1.17603-2.2793-1.89624-3.45605v11.25684h-1.65601v-11.23242c-.81616,2.61621-1.92017,5.18457-3.02441,6.74414-.19189-.45605-.6001-1.15137-.91211-1.55957,1.51221-2.0166,3.02441-5.78516,3.74438-9.04883h-3.14429v-1.65625h3.33643v-5.13672h1.65601v5.13672h2.80835v.95996h3.24023v-2.40039h-2.83228v-1.48828h2.83228v-2.18359h1.68018v2.18359h3.81641v-2.18359h1.67993v2.18359h2.9043v1.48828h-2.9043v2.40039h3.43237v1.51172h-6.3125v1.75293h5.40039v8.04004h-12.14502v-8.04004h5.08838v-1.75293h-6.14453v-.81543h-2.54419v1.7998c.69604.86426,2.49634,3.45605,2.88037,4.08008l-.98413,1.41602ZM34.52062,32.52475c-1.34399,1.15234-3.48022,2.35254-5.23242,3.04883-.28809-.33691-.81592-.88867-1.17603-1.22461,1.7522-.64844,3.81641-1.7998,4.84839-2.78418l1.56006.95996ZM31.37633,26.35678h3.52832v-2.04102h-3.52832v2.04102ZM31.37633,29.71616h3.52832v-2.08789h-3.52832v2.08789ZM33.94469,19.73178h3.81641v-2.40039h-3.81641v2.40039ZM36.5609,24.31577v2.04102h3.76831v-2.04102h-3.76831ZM40.32921,27.62827h-3.76831v2.08789h3.76831v-2.08789ZM38.50499,31.63706c1.53613.79199,3.57642,2.01562,4.6084,2.83203l-1.32007,1.12793c-.98413-.83984-3.00024-2.1123-4.58447-2.97656l1.29614-.9834Z"/><path class="cls-3" d="M50.38878,17.28354c-.45605,2.20801-1.19995,6.50488-1.19995,9.19238,0,1.17676.07178,2.18457.21582,3.36035.4082-1.08008.98413-2.51953,1.39209-3.50391l1.0083.76758c-.62402,1.7041-1.48828,4.24902-1.70435,5.37695-.07202.36035-.1438.81641-.11987,1.08008s.04785.59961.07202.83984l-1.72827.12012c-.47998-1.7041-.88794-4.46387-.88794-7.7041,0-3.52832.79199-7.63281,1.08008-9.625.09595-.55273.16797-1.17676.16797-1.7041l2.13623.19141c-.12012.4082-.33618,1.17676-.43213,1.6084ZM55.98131,29.50034c0,1.10449.79199,2.16016,4.0564,2.16016,2.16016,0,4.0083-.19141,5.95239-.62402l.0481,2.0166c-1.51221.28809-3.52832.50391-6.00049.50391-4.03247,0-5.83252-1.34375-5.83252-3.60059,0-.81543.14404-1.65625.40796-2.83203l1.72827.16797c-.23999.8877-.36011,1.56055-.36011,2.20801ZM65.27013,17.49936v1.94434c-2.56812.28809-7.22461.28809-9.86499,0v-1.91992c2.61646.43164,7.46484.33594,9.86499-.02441Z"/><path class="cls-3" d="M87.13854,18.72397c-.81592,2.06348-2.32812,4.87207-4.03223,7.03223,2.52002,2.16016,5.44849,5.28027,7.00854,7.17676l-1.68018,1.44043c-1.60815-2.1123-4.15234-4.94434-6.60059-7.12891-2.56812,2.75977-5.80835,5.40039-9.36084,7.00879l-1.53613-1.6084c3.8645-1.51172,7.41675-4.36816,9.88892-7.12891,1.63208-1.84766,3.38428-4.67969,3.98438-6.67188h-9.36084c-.84009,0-2.16016.0957-2.42432.11914v-2.18359c.33618.04785,1.70435.14355,2.42432.14355h9.26489c.79199,0,1.41602-.07129,1.80005-.19141l1.22412.93555c-.14404.19238-.45605.7207-.6001,1.05664Z"/><path class="cls-3" d="M103.19884,16.97104c-.16797.33691-.36011.67285-.57593,1.00879h6.50439c.64819,0,1.17627-.07227,1.5603-.24023l1.60815.98438c-.19214.33594-.43213.8877-.55225,1.27148-.64795,2.4248-2.13623,5.66504-4.27222,8.25684-2.18433,2.66406-5.04053,4.87305-9.55298,6.52832l-1.72803-1.55957c4.39233-1.2959,7.39258-3.48047,9.57666-6.02441,1.87231-2.20801,3.33643-5.30469,3.84033-7.48926h-8.11255c-1.46411,2.0166-3.48022,4.15234-6.09644,5.90527l-1.65625-1.24805c4.12842-2.47266,6.50464-5.95312,7.53662-8.11328.23999-.4082.6001-1.27246.74414-1.89648l2.23218.7207c-.40796.62402-.84009,1.43945-1.05615,1.89551Z"/><path class="cls-3" d="M120.16393,17.33139h12.88916c.52808,0,1.39209,0,2.1123-.04785-.0481.59961-.0481,1.27246-.0481,1.87207v11.83301c0,.76855.02393,2.64062.0481,2.9043h-2.06421c0-.16797.02393-.74414.02393-1.3916h-13.10498c.02393.62402.02393,1.19922.04785,1.3916h-2.06421c.02417-.31152.07202-2.08789.07202-2.92773v-11.80957c0-.55176,0-1.2959-.04785-1.87207.93604.02441,1.58398.04785,2.13599.04785ZM120.02013,30.62827h13.12915v-11.40039h-13.12915v11.40039Z"/><path class="cls-3" d="M144.25499,23.45249h13.15332c1.19995,0,2.06396-.07227,2.59204-.12012v2.35156c-.47998-.02344-1.48804-.12012-2.56812-.12012h-13.17725c-1.32007,0-2.59204.04883-3.33618.12012v-2.35156c.71997.04785,1.99219.12012,3.33618.12012Z"/><path class="cls-3" d="M166.64245,27.19663c.69604-2.18457.71997-6.98438.71997-9.64941,0-.71973-.07202-1.24805-.16797-1.75195h2.20825c-.02393.28809-.12012,1.00781-.12012,1.72852,0,2.66406-.09595,7.80078-.7439,10.2002-.72021,2.56836-2.25635,4.9209-4.27246,6.60059l-1.80005-1.22363c2.01611-1.44043,3.4563-3.57617,4.17627-5.9043ZM173.62706,31.87631v-14.37695c0-.91211-.12012-1.6084-.14404-1.77637h2.20825c-.02393.16797-.09595.86426-.09595,1.77637v13.84961c2.20801-1.00879,5.1604-3.19238,7.00854-5.9043l1.12793,1.63184c-2.06396,2.80859-5.40039,5.28027-8.18457,6.64844-.38403.21582-.64795.4082-.81616.55176l-1.27197-1.05566c.09595-.38379.16797-.86426.16797-1.34473Z"/><path class="cls-3" d="M191.84972,17.45151c-.11987,2.71191-.28784,8.37695-.28784,11.95312,0,2.64062,1.65601,3.57617,3.93628,3.57617,4.39233,0,6.8645-2.47168,8.59277-4.96875l1.36816,1.63281c-1.65625,2.28027-4.75244,5.30371-10.03296,5.30371-3.4563,0-5.83252-1.43945-5.83252-5.35156,0-3.55273.23999-9.625.23999-12.14551,0-.8877-.04785-1.75195-.19189-2.44824l2.42407.02441c-.11987.79199-.19189,1.63184-.21606,2.42383Z"/><path class="cls-3" d="M208.4862,17.66733c1.5603-.16797,6.09668-.62402,10.51294-.9834,2.61621-.24023,4.87256-.36035,6.48071-.43262v1.91992c-1.36816,0-3.48047.02441-4.70459.38477-3.4082,1.10352-5.49634,4.75195-5.49634,7.58398,0,4.70508,4.36841,6.19238,8.28076,6.33691l-.69604,1.99219c-4.44043-.16797-9.50488-2.54395-9.50488-7.89648,0-3.74414,2.28027-6.79297,4.48828-8.11328-2.56812.28809-8.68872.86426-11.28101,1.41602l-.21582-2.08789c.91187-.02344,1.67993-.07227,2.13599-.12012Z"/><path class="cls-3" d="M239.63659,17.37924c-1.63208,1.44043-5.08838,4.17676-6.8645,5.66504-1.44019,1.22363-1.46411,1.60742.07202,2.9043,2.18408,1.77539,6.43262,5.20801,8.97681,7.75195l-1.7041,1.58496c-.50415-.57617-1.05615-1.17676-1.65625-1.75293-1.68018-1.72754-5.32837-4.84766-7.56055-6.69629-2.28027-1.89648-1.99219-2.92773.16797-4.75195,1.80005-1.5127,5.44849-4.39258,7.08057-6.04883.47998-.48047,1.08008-1.15234,1.36816-1.6084l1.77612,1.58398c-.50415.4082-1.24805,1.03223-1.65625,1.36816Z"/><path class="cls-3" d="M255.95617,17.09116c-.09595.52832-.23999,1.12891-.35986,1.77637,1.56006-.19141,3.14429-.47949,4.6084-.83984v1.87207c-1.5603.36035-3.31226.62402-4.99243.81641-.23999,1.05566-.47998,2.16016-.76807,3.21582-.86426,3.4082-2.49634,8.37695-3.74438,10.99316l-2.11206-.71973c1.43994-2.47266,3.14404-7.34473,4.03223-10.72949.21606-.79199.43213-1.7041.62402-2.56836-.79199.04785-1.53613.07227-2.20825.07227-1.05591,0-1.92017-.04785-2.78418-.0957l-.07202-1.87207c1.1521.14355,2.01611.16797,2.88037.16797.79199,0,1.65601-.04883,2.59204-.12012.16821-.83984.28809-1.6084.36011-2.08887.09595-.67188.12012-1.4873.07202-1.96777l2.3042.19238c-.14404.50391-.33594,1.41602-.43213,1.89551ZM258.81261,30.48471c0,1.12793.62402,2.23242,4.05615,2.23242,1.5603,0,3.21631-.16797,4.68042-.48047l-.07202,1.94434c-1.2959.19238-2.88013.36035-4.63232.36035-3.79224,0-5.85645-1.17676-5.85645-3.55273,0-.91211.14404-1.82422.36011-2.83203l1.80005.16797c-.21606.79199-.33594,1.53613-.33594,2.16016ZM263.03698,22.27573c1.41602,0,2.8562.07227,4.15234.21582l-.0481,1.82422c-1.22412-.16797-2.64014-.28809-4.03223-.28809-1.51221,0-2.97632.09668-4.4646.26465v-1.80078c1.27222-.11914,2.85645-.21582,4.39258-.21582ZM266.5653,19.22788l-1.29614.57617c-.48022-.98438-1.29614-2.4248-1.94434-3.33691l1.27222-.55176c.62402.86426,1.48804,2.32812,1.96826,3.3125ZM269.27746,18.2435l-1.29614.57617c-.52808-1.05566-1.32007-2.42383-1.99219-3.33594l1.24805-.55273c.64819.91211,1.58423,2.40039,2.04028,3.3125Z"/><path class="cls-3" d="M282.43078,14.8353l2.04028-.26367c.19189,1.12793.62402,2.71191,1.104,4.10449,1.72803-.24023,3.72021-.625,5.35254-1.17676l.21582,1.87207c-1.46411.43262-3.36011.76855-4.96826.98438.7439,1.84766,1.80005,3.69629,2.68823,4.94434.33594.45605.69604.86426,1.05591,1.27246l-.98389,1.34375c-1.1521-.26367-4.0564-.52832-5.78467-.64844l.14404-1.60742c1.34424.12012,3.12036.26367,3.98438.35938-.93604-1.36816-2.08813-3.47949-2.9043-5.47168-2.8562.26367-6.3125.23926-10.08081-.04883l-.0481-1.91992c3.52832.43262,6.86475.48047,9.48096.28809-.28809-.8877-.52808-1.6084-.69604-2.16016-.16797-.50391-.38403-1.24805-.6001-1.87207ZM276.81432,29.5726c0,2.28027,2.08813,3.28809,5.64038,3.3125,2.44824.02344,4.51245-.21582,6.19263-.60059l-.09595,1.9209c-1.48828.26367-3.52832.52734-6.19263.52734-4.5603-.02344-7.44067-1.67969-7.44067-4.94434,0-1.32031.47998-2.56836,1.1521-3.98438l1.87207.43262c-.71997,1.15137-1.12793,2.18359-1.12793,3.33594Z"/><path class="cls-3" d="M298.8319,19.30014c-.02393,1.51172,0,3.69629.16797,5.68848.38403,4.00781,1.5603,6.67188,3.2644,6.67188,1.22412,0,2.35229-2.49609,2.97632-4.89648l1.51196,1.7041c-1.43994,4.08105-2.90405,5.47266-4.51221,5.47266-2.28027,0-4.4646-2.25586-5.11255-8.47266-.21606-2.08789-.26392-5.0166-.26392-6.4082,0-.55273-.02417-1.56055-.16821-2.13672l2.32837.04785c-.09619.57617-.19214,1.70508-.19214,2.3291ZM315.75329,29.5726l-1.91992.79199c-.43213-4.34473-1.87231-9.26465-4.17651-12.07324l1.87231-.64746c2.13599,2.78418,3.86426,7.87207,4.22412,11.92871Z"/><polyline class="cls-3" points="334.51196 31.22933 350.37888 25.34116 334.51196 19.45299 334.51196 31.22933"/><line class="cls-1" x1="338.36792" y1="25.34116" x2="323.83992" y2="25.34116"/></g></svg>