<?xml version="1.0" encoding="UTF-8"?><svg id="_レイヤー_2" xmlns="http://www.w3.org/2000/svg" viewBox="0 0 157.78468 57.11908"><defs><style>.cls-1{fill:#a0afb5;}.cls-1,.cls-2{stroke-width:0px;}.cls-2{fill:#fff;}</style></defs><g id="_背景"><polygon class="cls-1" points="0 57.11908 157.78468 57.11908 138.58076 0 0 0 0 57.11908"/><path class="cls-2" d="M42.91248,26.99006c-.14258,2.66016-.47485,4.25-1.40088,6.05469-.94971,1.85156-2.65918,3.58594-4.17871,4.48828-.26123.16602-.49854.2832-.71228.2832-.16614,0-.3324-.07031-.49866-.23633-.47485-.47461-1.28198-.94922-2.11304-1.25781,2.32678-1.25977,3.72754-2.42188,4.72485-4.22656.87842-1.56836,1.11584-2.84961,1.21082-5.10547h-4.51111c-1.18713,0-2.35059.07227-3.5614.14258-.21375.02344-.28491-.14258-.30872-.45117-.11865-.66406-.18994-1.56641-.18994-2.2793,1.32959.11914,2.65918.11914,4.03638.11914h10.6604c1.85193,0,3.229-.04688,4.62988-.14258.2373,0,.26111.14258.26111.47461.0238.30859.0238,1.51953,0,1.82812,0,.30859-.14246.4043-.35608.4043-1.23462-.04883-2.87292-.0957-4.51123-.0957h-3.1814ZM38.2113,21.48225c-1.09204,0-2.04175.04688-3.37134.0957-.30872,0-.37988-.11914-.40369-.4043-.07117-.57031-.09497-1.42578-.16614-2.2793,1.66187.09375,2.8728.11914,3.94116.11914h4.36865c1.32959,0,2.82544-.02539,4.01257-.0957.23743,0,.28491.14258.28491.45117.04749.57031.04749,1.16406,0,1.73242,0,.33398-.04749.45117-.30872.45117-1.28198-.04688-2.68286-.07031-3.98877-.07031h-4.36865ZM48.42078,17.35139c.11865-.07227.21362-.04883.33228.07031.6886.64062,1.44836,1.68555,2.01819,2.75391.07117.14258.07117.26172-.11877.38086l-1.06836.64062c-.16626.0957-.28491.04688-.37988-.11914-.61731-1.16211-1.2821-2.13672-2.13684-2.9668l1.35339-.75977ZM50.67627,16.02131c.14246-.0957.21375-.04688.3324.07031.80725.75977,1.56702,1.78125,2.01807,2.66016.07129.14258.09497.28516-.11865.42773l-.99719.64062c-.21375.11914-.3324.02344-.40369-.11914-.54602-1.06836-1.21082-2.04102-2.11304-2.94336l1.2821-.73633Z"/><path class="cls-2" d="M57.98218,24.47444c.11877-.16797.23743-.28516.45105-.23828,1.78076.59375,3.20532,1.35352,4.55859,2.32617.16626.11914.26123.21484.26123.35742,0,.07031-.04749.16602-.09497.25977-.26123.64258-.66479,1.25977-1.04468,1.80469-.11865.14258-.21362.23828-.30859.23828s-.16626-.04688-.28491-.14258c-1.51953-1.11523-3.06287-1.90039-4.79614-2.58789.59363-.94922.97351-1.63867,1.25842-2.01758ZM61.82849,33.28303c2.25562-1.1875,4.20239-2.30469,6.50549-4.10742,1.89941-1.44922,4.43982-3.72852,6.83789-6.625.14246,1.04492.3324,1.63867.6886,2.6582.07117.16797.11865.30859.11865.45117,0,.19141-.07129.35742-.26123.54688-2.20801,2.375-3.70386,3.67969-6.03052,5.48438-2.06567,1.56641-4.27368,2.91992-7.09912,4.46289-.56982.30859-1.13965.57031-1.37708.80859-.14246.14258-.26111.18945-.37988.18945-.16614,0-.3324-.0957-.47485-.28516-.49866-.49805-1.13965-1.42383-1.75696-2.42188.99719-.18945,1.82812-.45117,3.229-1.16211ZM60.8551,19.0135c.16614-.28516.30859-.33398.59351-.19141,1.51953.61719,3.15771,1.49609,4.46362,2.63672.14246.09375.18994.21289.18994.30859,0,.09375-.02368.18945-.09497.30859-.3324.59375-.80725,1.35352-1.21094,1.78125-.07117.11719-.16614.14062-.2373.14062-.11877,0-.23755-.07031-.3562-.16602-1.23462-1.01953-3.08655-2.23047-4.60608-2.91992.40369-.61719.85474-1.28125,1.25842-1.89844ZM71.72913,18.27717c.11877-.0957.21375-.07227.3562.04688.73608.57031,1.59082,1.51953,2.25562,2.54102.09497.14258.09497.26172-.07129.37891l-.99719.73633c-.16614.11914-.28491.0957-.40369-.07031-.71216-1.0918-1.47192-1.99414-2.39795-2.75391l1.2583-.87891ZM73.84229,16.7342c.14246-.0957.21375-.07227.35608.04688.87854.66406,1.73328,1.61523,2.25562,2.44531.09497.14258.11865.28516-.07129.42773l-.94971.73633c-.18994.14258-.30859.07031-.40356-.07227-.64111-1.01953-1.40088-1.92188-2.37427-2.73047l1.18713-.85352Z"/><path class="cls-2" d="M94.95447,20.7928c.68848-.02344.99719-.16602,1.30591-.35547.16614-.11914.28491-.16602.40356-.16602s.26123.07031.42737.18945c.52234.30859,1.18713.94922,1.6145,1.44922.14246.14258.18994.28516.18994.42773,0,.14062-.07117.2832-.26111.44922-.23755.21484-.47485.45117-.7124.90234-1.02087,2.01953-2.13672,3.9668-3.49011,5.74609.97351.7832,1.87561,1.61523,2.56421,2.39844.09497.0957.14246.21289.14246.33203,0,.0957-.04749.21484-.14246.30859-.3324.4043-1.06848,1.16406-1.47205,1.49609-.09497.07227-.18994.11914-.28491.11914-.07129,0-.16626-.04688-.26123-.14258-.56982-.66406-1.51953-1.61523-2.30298-2.30273-2.42175,2.61133-4.86719,4.46289-7.57397,5.93555-.21362.11914-.40356.21289-.59351.21289-.14246,0-.28491-.07031-.45117-.21289-.75977-.61719-1.42456-.92578-2.25549-1.21094,3.68005-1.875,6.05432-3.58594,8.7373-6.43359-.90222-.73633-1.97058-1.47266-3.41895-2.23242.52234-.57031,1.02087-1.1875,1.56702-1.68555.09497-.0957.18994-.16602.30859-.16602.07129,0,.14258.04688.23755.09375.85474.4043,1.89941,1.0918,3.06274,1.90039,1.13965-1.47266,2.01807-3.01562,2.77783-4.70117l-5.88818.11914c-1.94678,2.49219-3.49011,4.13086-5.08081,5.3418-.16626.11914-.30872.21289-.47485.21289-.11877,0-.26123-.04688-.37988-.16602-.59363-.42773-1.21094-.75977-1.99438-1.0918,3.32397-2.63477,5.10461-4.82031,6.71912-7.45508.75977-1.2832,1.06848-1.92383,1.2821-2.91992.80725.2832,2.04187.6875,2.77783,1.16211.18994.0957.26123.23828.26123.38086,0,.16602-.11865.35547-.28491.47461-.21362.14258-.37988.33203-.49854.49805-.18994.33203-.33252.57031-.73608,1.1875l4.17871-.0957Z"/><path class="cls-2" d="M110.78625,21.52912c.40356.11914.45117.4043.30859.73633-.26111.52148-.28491,1.04492-.28491,1.61523-.04736,2.9668-.49854,5.22266-1.28198,6.98047-.61743,1.44727-1.66211,2.99023-3.37158,4.46289-.2373.18945-.42725.30859-.61719.30859-.14258,0-.28491-.07031-.45117-.18945-.59351-.4043-1.16333-.68945-2.01807-.99805,1.85181-1.40039,3.11023-2.84961,3.94116-4.72461.66479-1.61523.97351-2.91992.99731-6.71875,0-.90234-.04761-1.2832-.23755-1.99414,1.35339.16602,2.44556.33203,3.01538.52148ZM116.05713,31.57209c1.16345-.61719,2.25549-1.35352,3.37146-2.20703,1.42456-1.0918,2.82544-2.35156,4.15503-4.03711.09497.83203.33228,1.61523.73596,2.39844.07117.16602.14246.28516.14246.4043,0,.16602-.09497.33203-.3562.59375-1.18701,1.21094-2.2793,2.18359-3.51392,3.10938-1.23462.94922-2.56421,1.875-4.22607,2.84961-.42749.28516-.47485.33203-.6886.49805-.14246.11914-.30872.18945-.47485.18945-.14246,0-.30872-.07031-.49866-.18945-.52222-.35547-1.06836-.97266-1.42456-1.44727-.14233-.21484-.21362-.35742-.21362-.5,0-.11914.02368-.21289.09497-.35547.16626-.30859.14246-.59375.14246-1.80469v-7.43164c0-2.06445,0-3.03906-.23743-4.13086.94971.11914,2.25562.28516,2.96777.49805.30872.07227.42749.21484.42749.4043,0,.14258-.07129.35547-.18994.59375-.21375.45117-.21375.92578-.21375,2.63477v7.92969Z"/></g></svg>