<?xml version="1.0" encoding="UTF-8"?>
<svg id="_レイヤー_2" data-name="レイヤー 2" xmlns="http://www.w3.org/2000/svg" viewBox="0 0 202.55 81.56">
  <defs>
    <style>
      .cls-1 {
        fill: #005a96;
      }

      .cls-1, .cls-2 {
        stroke-width: 0px;
      }

      .cls-2 {
        fill: #fff;
      }
    </style>
  </defs>
  <g id="_背景" data-name="背景">
    <g>
      <polygon class="cls-1" points="0 0 202.55 0 202.55 51.66 101.27 81.56 0 51.66 0 0"/>
      <g>
        <path class="cls-2" d="M74.15,38.67c-1.81,0-2.45.04-2.58.04-.21,0-.21-.02-.21-.23v-1.51c0-.21,0-.23.21-.23.12,0,.76.04,2.58.04h12.82c1.81,0,2.45-.04,2.58-.04.21,0,.21.02.21.23v1.51c0,.21,0,.23-.21.23-.12,0-.76-.04-2.58-.04h-12.82ZM78.65,39.84c.25.19.31.29.31.41,0,.14-.1.23-.33.29-.27.08-.52.17-.82.37-1.18.83-2.95,1.59-4.56,2.04-.23.06-.37.1-.47.1-.21,0-.27-.14-.45-.54-.27-.52-.56-.97-.87-1.26,1.79-.33,3.73-1.09,4.84-1.79.29-.17.56-.37.82-.66.66.39,1.05.68,1.53,1.03ZM83.53,25.04c1.98,0,2.66-.04,2.78-.04.21,0,.23.02.23.23,0,.12-.04.85-.04,2.39v5.42c0,1.55.04,2.25.04,2.37,0,.23-.02.25-.23.25-.12,0-.8-.04-2.78-.04h-6.04c-1.98,0-2.66.04-2.8.04-.21,0-.23-.02-.23-.25,0-.12.04-.82.04-2.37v-5.42c0-1.55-.04-2.25-.04-2.39,0-.21.02-.23.23-.23.14,0,.82.04,2.8.04h6.04ZM76.67,26.73v1.32h7.67v-1.32h-7.67ZM84.34,30.98v-1.36h-7.67v1.36h7.67ZM84.34,32.55h-7.67v1.4h7.67v-1.4ZM83.33,38.98c.21-.16.27-.16.43-.04,1.4.95,3.44,1.81,5.75,2.23-.31.37-.6.8-.82,1.3-.21.41-.29.56-.47.56-.1,0-.27-.04-.47-.08-1.96-.47-4.18-1.65-5.59-2.74-.21-.14-.14-.19.08-.37l1.09-.85Z"/>
        <path class="cls-2" d="M100.21,30.53c-2.02,0-2.7.04-2.82.04-.21,0-.23-.02-.23-.23v-1.59c0-.23.02-.23.23-.23.12,0,.8.02,2.82.02h2.08v-1.34c0-1.32-.04-2.04-.14-2.93.74.02,1.46.06,2.16.16.21,0,.33.1.33.21,0,.16-.08.29-.14.43-.1.25-.12.68-.12,2.08v1.38h2.93c2,0,2.7-.02,2.84-.02.19,0,.21,0,.21.23v1.59c0,.21-.02.23-.21.23-.14,0-.85-.04-2.84-.04h-2.14c1.42,2.78,2.95,4.7,5.73,7.05-.43.43-.76.89-1.01,1.38-.14.29-.23.43-.33.43s-.23-.12-.43-.33c-2.37-2.33-3.69-4.35-4.8-6.93,0,1.86.02,3.69.04,5.3h.47c1.61,0,2.12-.04,2.25-.04.21,0,.23.02.23.23v1.5c0,.23-.02.25-.23.25-.12,0-.64-.04-2.25-.04h-.45c.02,1.96.06,3.32.06,3.52s-.02.23-.23.23h-1.77c-.23,0-.25-.02-.25-.23s.04-1.59.08-3.52h-.37c-1.61,0-2.12.04-2.25.04-.21,0-.23-.02-.23-.25v-1.5c0-.21.02-.23.23-.23.12,0,.64.04,2.25.04h.39c.04-1.61.06-3.44.06-5.28-1.18,2.78-2.66,4.99-4.7,6.88-.21.19-.33.31-.43.31s-.19-.12-.33-.39c-.29-.5-.62-.89-.93-1.22v1.98c0,2.02.04,3.03.04,3.13,0,.21-.02.23-.23.23h-1.75c-.19,0-.21-.02-.21-.23,0-.12.04-1.11.04-3.13v-4.68c0-.68,0-1.5.02-2.33-.39.51-.78,1.03-1.2,1.5-.14.16-.27.27-.37.27s-.16-.12-.23-.37c-.14-.66-.43-1.36-.7-1.77,1.77-1.94,3.13-4.25,3.92-6.7.14-.49.27-.95.31-1.46.74.19,1.4.39,2,.64.23.1.33.17.33.31s-.06.23-.23.37c-.12.12-.23.29-.41.83-.39,1.01-.82,2.02-1.34,3.01v8.35c2.29-1.92,4.04-4.1,5.4-7.15h-1.15Z"/>
        <path class="cls-2" d="M115.72,35.04c0-.78.02-1.73.04-2.64-.62.8-1.24,1.55-1.83,2.14-.21.19-.33.31-.45.31s-.21-.14-.31-.45c-.17-.56-.49-1.22-.78-1.69,2.19-1.96,3.73-4.19,4.76-6.97.19-.47.33-.97.41-1.44.8.21,1.34.39,2,.66.27.1.35.16.35.31s-.06.25-.19.35c-.17.12-.29.35-.52.89-.37.88-.8,1.79-1.3,2.66v10.54c0,2,.04,3.01.04,3.13,0,.19-.02.21-.23.21h-1.79c-.23,0-.25-.02-.25-.21,0-.14.04-1.13.04-3.13v-4.66ZM123.58,39.25c0,.74.12,1.01.58,1.18.37.12.91.14,2.04.14,1.05,0,1.67-.12,2.12-.52.35-.29.54-1.18.62-3.13.43.33,1.03.64,1.59.84.52.19.49.19.45.72-.14,2.02-.49,2.91-1.2,3.42-.68.47-1.92.7-3.73.7-1.94,0-2.93-.08-3.59-.41-.68-.33-1.09-.87-1.09-2.25v-13.01c0-1.15-.02-1.75-.12-2.39.82.02,1.48.06,2.21.14.27.02.39.1.39.27s-.06.27-.12.39c-.1.19-.14.51-.14,1.4v5.15c1.32-.82,2.54-1.79,3.81-3.03.41-.37.89-.91,1.22-1.4.56.41,1.15.93,1.61,1.36.16.17.23.27.23.41s-.14.27-.35.33c-.23.08-.62.37-1.07.78-1.53,1.36-3.34,2.74-5.44,4v4.88Z"/>
      </g>
    </g>
  </g>
</svg>