<?xml version="1.0" encoding="UTF-8"?>
<svg id="_レイヤー_2" data-name="レイヤー 2" xmlns="http://www.w3.org/2000/svg" viewBox="0 0 147.43 59.37">
  <defs>
    <style>
      .cls-1 {
        fill: #005a96;
      }

      .cls-1, .cls-2 {
        stroke-width: 0px;
      }

      .cls-2 {
        fill: #fff;
      }
    </style>
  </defs>
  <g id="_背景" data-name="背景">
    <g>
      <polygon class="cls-1" points="147.43 59.37 0 59.37 0 21.77 73.72 0 147.43 21.77 147.43 59.37"/>
      <g>
        <path class="cls-2" d="M20.79,32.78c.08,1.68.29,3.04.62,4.25.36-.58.66-1.17.9-1.75.17-.44.32-.87.41-1.38.52.15,1.06.38,1.39.54.15.08.23.15.23.24,0,.1-.11.19-.21.31-.11.1-.2.29-.38.73-.46,1.06-1.04,2.1-1.71,3.04.54,1.15,1.23,1.88,1.6,1.88.34,0,.53-.45.62-1.84.2.22.52.42.84.58q.43.22.36.69c-.24,1.6-.78,2.34-1.7,2.34-1.04,0-2.02-.96-2.77-2.35-.79.87-1.7,1.63-2.71,2.23-.18.1-.29.17-.36.17-.09,0-.17-.09-.32-.31-.24-.35-.51-.6-.76-.79,1.37-.72,2.54-1.71,3.48-2.82-.63-1.6-.96-3.39-1.09-5.75h-4.62v1.94h2.16c.92,0,1.19-.03,1.28-.03.15,0,.18.03.18.19-.03.57-.04,1.2-.08,1.65-.08,1.27-.12,2.08-.34,2.79-.27.78-.84,1.24-1.74,1.24-.27,0-.5,0-.76-.03-.34-.03-.36-.03-.43-.5-.08-.44-.2-.81-.36-1.08.54.09.85.12,1.23.12.35,0,.6-.09.72-.54.12-.39.18-1.21.22-2.41h-2.1c-.04,1.03-.13,1.87-.27,2.62-.19,1.11-.51,2.29-1.17,3.51-.1.19-.18.28-.25.28s-.17-.07-.3-.24c-.29-.33-.65-.66-.93-.84.69-1,.99-2.19,1.17-3.31.13-.93.21-1.98.21-3.63,0-2.04-.03-2.93-.03-3.02,0-.17.01-.18.18-.18.09,0,.58.03,2.01.03h3.99v-.31c-.01-1-.01-1.37-.12-2.11.57.03,1.08.04,1.62.1.15.01.22.09.22.18,0,.12-.04.21-.07.29-.06.18-.09.5-.08,1.5v.36h2.25c1.41,0,1.9-.03,1.99-.03.15,0,.17.01.17.18v1.14c0,.15-.01.17-.17.17-.09,0-.58-.03-1.99-.03h-2.21ZM22.54,29.07c.15-.1.2-.1.31-.02.44.33.9.75,1.29,1.26.09.12.09.18-.07.29l-.72.54c-.09.06-.15.1-.19.1s-.08-.04-.12-.1c-.36-.56-.79-.98-1.21-1.32-.06-.06-.09-.09-.09-.14s.04-.07.12-.13l.69-.48Z"/>
        <path class="cls-2" d="M29.54,37.07c-1.33,0-1.8.03-1.89.03-.14,0-.15-.01-.15-.17v-1.11c0-.15.01-.17.15-.17.09,0,.55.03,1.89.03h.45v-4.35c0-1.09-.03-1.6-.03-1.69,0-.15.01-.17.17-.17.09,0,.62.03,2.07.03h5.01c1.45,0,1.95-.03,2.04-.03.16,0,.18.02.18.17v1.1c0,.13-.02.15-.18.15-.09,0-.59-.03-2.04-.03h-5.62v.84h5c1.39,0,1.86-.03,1.95-.03.15,0,.17.02.17.18v.87c0,.15-.01.17-.17.17-.09,0-.55-.03-1.95-.03h-5v.82h5c1.39,0,1.84-.03,1.93-.03.17,0,.18.02.18.18v.87c0,.15-.01.17-.18.17-.09,0-.54-.03-1.93-.03h-5v.85h7.2c1.33,0,1.79-.03,1.88-.03.17,0,.18.02.18.17v1.11c0,.15-.02.17-.18.17-.09,0-.54-.03-1.88-.03h-4.23c.41.73.93,1.36,1.58,1.89.58-.4,1.11-.82,1.53-1.23.2-.18.35-.36.48-.61.48.3.83.51,1.2.79.1.08.15.14.15.23s-.08.13-.18.15c-.13.04-.27.1-.53.31-.43.35-.93.72-1.53,1.1,1.09.6,2.42,1.03,3.93,1.29-.24.27-.46.62-.65,1.04q-.22.46-.67.36c-3.33-.87-5.59-2.59-6.81-5.31h-1.47v3.21c.9-.21,1.81-.44,2.8-.72-.04.27-.06.63-.06.94q0,.48-.46.62c-1.65.5-3.3.92-4.79,1.23-.24.04-.44.12-.53.19-.08.06-.13.09-.22.09-.06,0-.12-.06-.18-.2-.15-.42-.32-1.03-.42-1.46.63-.06,1.08-.12,1.6-.22l.66-.14v-3.55h-.45Z"/>
        <path class="cls-2" d="M46.45,32.7c-.98,0-1.83.04-2.47.07-.2.02-.26-.09-.29-.3-.04-.3-.11-1.08-.14-1.52.68.08,1.47.1,2.88.1h5.36c.45,0,.62-.03.83-.15.07-.04.15-.06.22-.06.09,0,.18.03.29.08.4.25.81.63,1.09.99.08.09.11.17.11.26,0,.13-.08.25-.21.37-.13.14-.21.29-.34.59-.73,1.77-1.65,3.42-2.91,4.87-1.29,1.47-2.74,2.71-4.26,3.57-.13.09-.27.14-.4.14-.12,0-.25-.04-.38-.17-.35-.33-.84-.6-1.4-.83,2.19-1.11,3.53-2.15,4.91-3.75,1.17-1.33,1.93-2.61,2.54-4.27h-5.42Z"/>
        <path class="cls-2" d="M62.63,39.47c0,.72.03,1.68.04,2.44.01.18-.08.25-.25.27-.39.03-.83.03-1.21,0-.17-.02-.26-.09-.24-.27.01-.85.04-1.6.04-2.4v-2.56c-1.02.85-2.34,1.77-3.11,2.16-.06.04-.13.06-.19.06-.11,0-.23-.06-.3-.15-.27-.31-.68-.61-1.08-.75,2.35-1.23,4.39-2.8,6.22-4.87.34-.41.6-.78.79-1.29.51.3,1.14.69,1.38.9.11.09.17.19.17.27,0,.1-.08.21-.22.29-.2.1-.54.46-.68.61-.39.45-.84.94-1.36,1.46v3.84Z"/>
        <path class="cls-2" d="M71.24,36.8c-1.48,0-2.05.18-2.21.18-.18,0-.3-.09-.34-.32-.08-.34-.17-1.05-.22-1.81.97.15,1.72.18,3.24.18h4.83c1.14,0,2.29-.03,3.45-.04.22-.02.27.03.27.21.03.45.03.96,0,1.41,0,.18-.06.24-.27.22-1.12-.01-2.24-.03-3.34-.03h-5.4Z"/>
        <path class="cls-2" d="M87.05,33.72c1.83.57,3.29,1.15,4.77,2.04.17.09.24.2.17.39-.2.5-.43.96-.64,1.31-.06.1-.12.16-.2.16-.04,0-.1-.01-.17-.07-1.38-.89-2.73-1.54-3.94-1.92v3.31c0,.97.03,1.86.06,2.94.01.18-.06.22-.27.22-.44.03-.9.03-1.33,0-.21,0-.29-.04-.29-.22.04-1.11.06-2,.06-2.96v-7.38c0-1.12-.04-1.62-.15-2.22.69.04,1.44.12,1.87.24.21.05.29.14.29.26,0,.09-.04.21-.12.34-.1.2-.1.57-.1,1.41v2.15ZM90.55,30.03c.07-.06.13-.04.22.03.46.36,1,.96,1.42,1.6.06.09.06.17-.04.24l-.63.46c-.11.07-.18.06-.25-.04-.45-.69-.93-1.26-1.51-1.74l.79-.55ZM91.88,29.06c.09-.06.13-.04.22.03.55.42,1.09,1.02,1.42,1.54.06.09.08.18-.04.27l-.6.47c-.12.09-.2.04-.25-.04-.41-.65-.89-1.22-1.5-1.73l.75-.54Z"/>
        <path class="cls-2" d="M97.84,34.56c.41-.92.63-1.68.67-2.22.76.27,1.44.54,1.86.77.13.06.18.15.18.24,0,.1-.06.21-.15.3-.17.17-.29.38-.52.92-.89,1.99-1.77,3.52-3.21,5.04-.13.15-.27.23-.42.23-.12,0-.23-.04-.35-.15-.3-.24-.78-.48-1.32-.65,1.58-1.4,2.65-3.1,3.25-4.47ZM103.45,32.52c.08-.06.15-.09.21-.09.08,0,.13.03.23.12,1.63,1.64,2.89,3.58,3.76,5.5.04.08.06.14.06.21,0,.09-.04.17-.15.24-.29.23-.77.54-1.25.79-.2.09-.3.06-.36-.14-1.11-2.5-2.22-4.26-3.71-5.83.54-.36.95-.65,1.2-.81ZM105.2,30.72c.08-.06.13-.04.23.03.46.36,1,.96,1.42,1.6.06.09.06.17-.04.24l-.63.46c-.11.08-.18.06-.25-.04-.45-.69-.93-1.26-1.52-1.74l.79-.55ZM106.54,29.75c.09-.06.13-.04.23.03.55.42,1.09,1.02,1.42,1.54.06.09.08.18-.04.27l-.6.47c-.12.09-.19.04-.25-.04-.41-.65-.88-1.22-1.5-1.73l.75-.54Z"/>
        <path class="cls-2" d="M111.4,33.77c.17-.08.27-.06.39.1.52.66,1,1.42,1.29,2.22.03.1.06.17.06.23,0,.09-.06.13-.18.21-.36.21-.62.33-.96.46-.21.08-.3,0-.38-.21-.35-.87-.81-1.69-1.41-2.42.51-.28.87-.45,1.18-.6ZM119.64,33.96c.12.09.2.17.2.25s-.04.17-.17.27c-.22.2-.33.5-.45.77-.64,1.53-1.42,2.9-2.26,3.99-.99,1.26-1.81,2.06-3.09,2.9-.12.09-.24.17-.36.17-.07,0-.16-.03-.24-.1-.38-.3-.72-.47-1.28-.63,1.8-1.18,2.7-1.95,3.6-3.12.75-.98,1.59-2.44,2.03-3.61.2-.56.29-.89.34-1.59.63.19,1.3.46,1.68.72ZM114.43,33.05c.17-.07.27-.06.39.12.41.52.92,1.47,1.16,2.19.08.23.04.3-.15.4-.29.17-.62.31-1.04.47-.17.06-.22-.02-.3-.23-.34-.89-.69-1.6-1.26-2.4.6-.29.95-.45,1.2-.56Z"/>
        <path class="cls-2" d="M131.6,31.79c.39-.02.58-.08.75-.18.06-.04.12-.06.2-.06s.15.03.24.09c.38.24.72.52,1.02.81.13.12.2.24.2.35,0,.12-.08.23-.18.31-.21.17-.36.38-.5.65-1,2.04-1.96,3.49-2.97,4.63-1.29,1.46-3.07,2.91-4.56,3.73-.09.06-.17.08-.24.08-.12,0-.22-.06-.34-.17-.38-.3-.84-.52-1.42-.69,2.34-1.29,3.52-2.23,5-3.83,1.18-1.32,1.87-2.34,2.77-4.26l-3.63.1c-1.23,1.52-1.98,2.37-2.83,3.08-.1.1-.21.17-.31.17-.08,0-.15-.03-.23-.09-.38-.27-.93-.54-1.44-.65,1.95-1.59,3.1-2.98,4.03-4.45.5-.84.72-1.31.89-2.02.85.3,1.42.55,1.75.79.1.08.15.17.15.25s-.04.18-.17.25c-.15.09-.25.26-.38.41-.17.25-.31.48-.5.75l2.7-.06Z"/>
      </g>
    </g>
  </g>
</svg>