<svg viewBox="0 0 269.45 131.85" xmlns="http://www.w3.org/2000/svg"><g fill="#fff"><path d="m14.24 111.02c-.71-1.34-2.04-2.24-3.55-2.39-1.39.02-2.52 1.14-2.55 2.54 0 1.23.46 2.04 1.78 3.56l5.49 6.56 4.68-4.37 2.75 3.05-4.68 4.42 5.08 5.95h-5.9l-2.39-2.85-2.13 1.84c-3.3 2.79-8.64 2.54-11.08-.46-2.43-3-2.59-7.62 1.26-11.08l2.34-2.08-.51-.87c-.77-1.21-1.14-2.63-1.07-4.07.2-3.54 3.16-6.3 6.7-6.24 2.81.04 5.39 1.54 6.82 3.96l-3.05 2.55zm-4.14 14.99 1.93-1.74-4.32-5.13-2.03 1.83c-1.58 1.24-1.89 3.51-.72 5.14 1.26 1.42 3.35 1.52 5.14-.1z"/><path d="m44.48 14.76c-4.45-2.39-11.34-4.98-16.9-4.98-8.49 0-13.88 4.26-13.88 9.97 0 6.33 6.76 9.87 15.58 13.09 16.11 6.13 21.94 13.52 21.73 23.07-.34 12.83-12.03 20.05-25.82 19.95-10.82-.1-19.29-4.05-23.96-7.79l4.51-8.42c4.14 3.01 11.13 6.65 18.87 6.65 8.16 0 15.27-4.06 15.27-10.14 0-7.17-7.74-10.14-17.93-14.55-12.14-5.24-19.56-11.18-19.56-21.86 0-9.6 7.95-19.75 24.17-19.75 7.89 0 17.18 3.39 21.52 5.64l-3.61 9.12z"/><path d="m83.34 50.3v24.08h-11.09v-72.4c33.51-5.81 48.57 5.63 48.57 23.17 0 16.63-13.26 26.61-37.48 25.15zm0-9.67c18.03 1.25 25.92-5.08 25.92-15.58 0-9.56-7.1-16.52-25.92-14.13v29.72z"/><path d="m186.65 65.27v9.12h-46.2v-72.93h44.85v9.25h-33.74v21.97h27.88v9.15h-27.88v23.43h35.09z"/><path d="m269.45 64.63c-5.08 4.89-13.35 11.27-29.37 11.27-21.94 0-38.7-16.52-38.7-38.03 0-22.9 18.56-37.86 39.23-37.86 10.46-.22 20.61 3.62 28.31 10.71l-6.67 7.79c-4.25-3.84-11.78-8.82-21.41-8.82-15.37 0-27.35 12.4-27.35 28.17s11.12 28.26 27.45 28.26c8.04-.19 15.75-3.25 21.73-8.63l6.78 7.16z"/><path d="m65.12 127.12c-3.06 3.17-7.33 4.87-11.73 4.67-8.77 0-15.45-6.87-15.45-15.78-.2-8.51 6.54-15.57 15.05-15.77h.61c4.2-.05 8.26 1.58 11.27 4.51l-2.67 3.23c-2.28-2.26-5.34-3.57-8.55-3.67-6.14 0-10.93 5.15-10.93 11.71s4.45 11.75 10.96 11.75c3.24-.09 6.33-1.36 8.69-3.58l2.75 2.94z"/><path d="m86.38 100.3c8.71-.11 15.86 6.87 15.97 15.58s-6.87 15.86-15.58 15.97-15.86-6.87-15.97-15.58c0-.06 0-.13 0-.19-.19-8.52 6.55-15.58 15.07-15.77h.51zm0 27.47c5.8 0 10.84-4.67 10.84-11.66s-5.04-11.85-10.84-11.85-10.8 4.8-10.8 11.82 4.95 11.64 10.8 11.64v.06z"/><path d="m110.83 131.18v-30.43l1.26-.35 13.05 17.41 13-17.4 1.26.35v30.43h-4.39v-19.75l-9.66 13.13h-.47l-9.66-12.99v19.61h-4.39z"/><path d="m154.45 121.15v10.03h-4.45v-30.12c13.39-2.41 19.39 2.34 19.39 9.65 0 6.91-5.29 11.01-14.94 10.45zm0-4.02c7.2.52 10.37-2.12 10.37-6.48 0-3.98-2.83-6.87-10.37-5.88z"/><path d="m172.15 131.18 13.74-30.67h1.52l13.52 30.67h-4.9l-2.79-6.18h-13.42l-2.79 6.18h-4.87zm9.27-9.94h10.2l-5.08-12.09z"/><path d="m232.49 100.84v30.43l-1.01.3-18.81-21v20.61h-4.36v-30.43l1.01-.35 18.81 21.13v-20.69z"/><path d="m265.95 100.84-10.72 17.42v12.91h-4.51v-12.91l-10.63-17.42h5.25l7.75 12.71 7.79-12.71h5.06z"/></g></svg>