<?xml version="1.0" encoding="UTF-8"?>
<svg id="_レイヤー_2" data-name="レイヤー 2" xmlns="http://www.w3.org/2000/svg" viewBox="0 0 68 34">
  <defs>
    <style>
      .cls-1 {
        fill: none;
        stroke: #fff;
        stroke-miterlimit: 10;
      }

      .cls-2 {
        fill: #fff;
        stroke-width: 0px;
      }
    </style>
  </defs>
  <g id="_メニュー" data-name="メニュー">
    <g>
      <g>
        <path class="cls-2" d="M15.43,21.66l.9-1.01c.83.88,2.02,1.46,3.23,1.46,1.54,0,2.47-.77,2.47-1.92s-.85-1.58-1.95-2.08l-1.7-.74c-1.09-.46-2.38-1.3-2.38-3.01,0-1.81,1.57-3.12,3.7-3.12,1.39,0,2.62.59,3.46,1.46l-.78.94c-.72-.67-1.58-1.1-2.67-1.1-1.33,0-2.19.67-2.19,1.73,0,1.14,1.02,1.57,1.94,1.95l1.68.72c1.36.59,2.42,1.39,2.42,3.14,0,1.86-1.54,3.33-3.99,3.33-1.67,0-3.09-.67-4.11-1.75Z"/>
        <path class="cls-2" d="M27.21,11.45h1.49v5.91h.05l4.9-5.91h1.66l-3.67,4.48,4.24,7.27h-1.65l-3.52-6.11-2.02,2.4v3.71h-1.49v-11.75Z"/>
        <path class="cls-2" d="M39.22,11.45h1.49v11.75h-1.49v-11.75Z"/>
        <path class="cls-2" d="M45.25,11.45h3.36c2.62,0,4.39.9,4.39,3.46s-1.74,3.63-4.32,3.63h-1.94v4.66h-1.49v-11.75ZM48.48,17.34c2.06,0,3.04-.75,3.04-2.43s-1.04-2.24-3.1-2.24h-1.68v4.67h1.74Z"/>
      </g>
      <rect class="cls-1" x=".5" y=".5" width="67" height="33"/>
    </g>
  </g>
</svg>