<?xml version="1.0" encoding="UTF-8"?>
<svg id="_レイヤー_2" data-name="レイヤー 2" xmlns="http://www.w3.org/2000/svg" viewBox="0 0 655.27 141.36">
  <defs>
    <style>
      .cls-1 {
        fill: #000;
        stroke-width: 0px;
      }
    </style>
  </defs>
  <g id="_枠" data-name="枠">
    <g>
      <path class="cls-1" d="M261.06,23.97c.27.11.59.32.59.75,0,.8-.96.75-1.66.75l-.16.21h15.79l2.25,2.94c-3.69,4.92-6.42,7.97-9.74,10.65,3.85,1.77,11.08,3.37,16.21,3.37.96,0,1.66-.05,2.84-.16-2.78,3.16-3.59,4.33-5.14,7.6-7.38-.54-14.82-3-20.5-6.26-2.3,1.23-9.9,5.03-19.1,6.69-.86-2.89-2.41-5.03-4.76-6.8,6.69-.16,13.32-2.3,17.61-4.44-2.03-1.87-3.32-3.42-4.12-4.66-1.12.96-3.75,3-7.87,5.24-2.09-2.62-2.41-2.84-5.94-5.35,4.92-1.87,8.94-3.59,14.29-9.95-1.98,1.02-3.1,1.39-4.28,1.71-.32-.91-1.02-2.78-4.17-5.51-.8.64-1.12.91-1.55,1.23-1.39-1.61-3.05-3.21-5.94-5.03,1.87-1.12,5.03-3.05,7.87-6.74h-6.53v-6.1h20.23V0l8.4.27c.38,0,1.18.05,1.18.64,0,.54-.48.75-1.18,1.07v2.14h20.33v6.1h-8.67c3.96,2.89,6.1,5.89,7.87,8.4-2.68,1.28-5.03,3.32-6.31,4.44-2.73-3.91-4.01-5.62-7.55-8.67l5.94-4.17h-6.21v9.9c0,2.46-.59,4.12-8.67,4.55-.37-2.46-1.18-4.28-3.26-7.06,1.61.32,3,.32,3.21.32,1.55,0,1.55-.43,1.55-2.41v-5.3h-3.48c-.27,3.05-.59,7.38-4.66,11.34l5.3,2.41ZM250.19,13.06c.21.16.7.48.7.91,0,.75-1.07.7-1.77.7-2.03,2.57-3.91,4.33-5.3,5.57,8.19-2.03,8.78-5.24,9.15-10.01h-6.85l4.07,2.84ZM257.74,31.68c.54.54,1.66,1.77,4.01,3.69,2.3-1.82,2.78-2.62,3.42-3.69h-7.44Z"/>
      <path class="cls-1" d="M304.92.7l8.13.48c.43,0,.96.11.96.59,0,.43-.43.64-1.34,1.12v1.34h9.36V.7l8.24.48c.48.05.91.21.91.64s-.8.86-1.45,1.07v1.34h11.93v6.05h-11.93v7.22h-8.24v2.19h15.14v14.77h-15.14v1.98h20.17v6.37h-20.17v6.74h-8.35v-6.74h-20.12v-6.37h20.12v-1.98h-15.14v-14.77h15.14v-2.19h-8.24v-7.22h-11.88v-6.05h11.88V.7ZM313.16,28.52v-3h-7.28v3h7.28ZM322.04,10.27h-9.36v2.14h9.36v-2.14ZM321.51,25.53v3h7.33v-3h-7.33Z"/>
      <path class="cls-1" d="M360.61,4.76c.43.16.7.37.7.75,0,.64-1.02.75-1.5.8-3.21,11.02-3.21,18.94-3.21,20.6,0,2.68.21,3.91.38,5.35.7-1.02,1.82-2.73,2.51-3.8,1.07,2.03,2.3,3.69,3.85,5.3-1.07,1.55-4.49,6.74-4.44,13.11l-7.17,1.34c-.75-2.57-2.89-10.17-2.89-21.57,0-5.46.59-15.09,3.21-24.51l8.56,2.62ZM386.03,3.59c.27.05.7.11.7.59,0,.64-.75.8-1.23.86-.16,1.18-.38,2.68-.54,6.42,4.17-.75,5.99-1.34,7.92-1.98v8.08c-1.23.32-3.69.91-8.13,1.71,0,5.3.54,10.49.86,12.31,4.12,1.39,8.19,3.59,10.17,5.51-.86,1.55-2.46,5.03-3.64,7.54-1.71-1.66-3.48-3.1-5.73-4.07-.21,6.85-7.06,7.65-10.44,7.65-8.03,0-12.04-4.39-12.04-9.36,0-6.37,6.31-8.78,13.27-8.62-.43-6.1-.48-6.8-.59-9.9-3.05.27-5.24.27-6.15.27-1.71,0-2.84-.05-3.96-.16v-8.4c1.93.21,4.66.59,10.06.37,0-2.25,0-6.96.05-10.44l9.42,1.61ZM374.95,36.76c-1.18,0-3.75.37-3.75,2.03,0,1.39,1.77,1.98,3.48,1.98.43,0,3.64,0,3.64-2.62,0-.27,0-.48-.11-.7-.64-.27-1.61-.7-3.26-.7Z"/>
      <path class="cls-1" d="M414.02,48.7c-2.35-2.78-5.73-6.1-10.86-9.2l5.19-5.73c5.57,3.32,9.9,7.28,11.72,8.99l-6.05,5.94Z"/>
      <path class="cls-1" d="M23.22,103.36h4.12v6.53h-4.12v9.26l6.21.21c.37,0,.91.11.91.64,0,.37-.11.48-1.23,1.23v1.82h13.86v6.48h-13.86v3.21h20.12v6.74H1.18v-6.74h20.28v-3.21H7.33v-6.48h14.13v-2.57h-5.62v-10.6h-3c-1.28,7.17-4.39,10.86-5.67,12.47-2.3-1.61-4.6-2.68-7.17-3.53,3.75-3.91,4.82-6.05,5.46-8.94H1.28v-6.53h4.76v-3.64h-3.37v-6.37h23.44v6.37h-2.89v3.64ZM15.84,99.72h-2.68v3.64h2.68v-3.64ZM40.51,91.86l7.81.48c.37,0,.7.11.7.48,0,.32-.16.54-.96,1.12v22.74c0,3.69-.64,5.62-9.74,5.57-.37-2.89-1.18-5.62-2.3-7.6h-6.26v-19.21l7.54.43c.48.05.96.05.96.54,0,.64-.64.91-1.23,1.12v16.75c.16,0,1.6.11,1.98.11,1.5,0,1.5-.64,1.5-2.52v-20.01Z"/>
      <path class="cls-1" d="M81.92,92.5c.32.05,1.07.21,1.07.96s-.96.8-1.34.8l-1.23,2.62c1.55-.21,6.64-.91,11.08-2.51v7.92c-7.97,1.39-8.94,1.55-15.25,2.3-.64,1.12-.75,1.34-2.09,3.69,1.93-1.07,4.23-1.07,4.66-1.07,2.73,0,6.15,1.61,7.81,4.55,7.92-3.8,8.83-4.17,10.81-5.3l3.16,8.56c-5.94,1.87-9.04,3-12.2,4.33.11,1.55.16,3.21.16,4.82,0,2.41-.11,3.91-.16,5.35-1.71-.11-3.64-.11-5.35-.11s-2.03,0-3.1.11c.21-1.71.32-2.78.37-6.1-3.32,2.03-6.69,4.28-6.69,6.48,0,2.41,5.46,2.57,8.19,2.57,5.89,0,11.45-.96,17.12-2.62-.7,2.68-1.07,5.94-1.02,8.51-4.87,1.12-9.9,1.55-14.93,1.55-3.59,0-17.5,0-17.5-9.47,0-6.31,8.51-11.61,14.34-14.66-.86-2.35-2.73-2.68-4.01-2.68-5.57,0-9.31,5.99-12.25,10.76l-7.44-4.23c3.53-3.75,8.88-11.13,10.86-14.4-2.89.11-5.24.11-7.55.05l.05-7.76c1.66.16,4.76.43,8.4.43,1.55,0,2.19,0,3.05-.05,1.98-4.12,2.41-5.57,2.84-7.01l8.13,1.61Z"/>
      <path class="cls-1" d="M152.78,112.46l4.17,2.62c-1.71,7.33-6.1,13.54-7.28,15.09.91.7,4.07,3.05,8.51,4.66-1.87,2.84-2.57,4.33-3.26,6.53-1.6-.64-5.83-2.35-10.01-5.78-1.66,1.61-5.08,4.28-8.35,5.67-1.39-2.57-3.75-4.6-4.07-4.87-1.44,2.52-2.57,3.8-3.48,4.87-4.17-2.46-5.24-2.84-6.74-3.21,1.02-1.23,1.77-2.14,2.89-3.69h-4.23v-1.39h-2.14v6.85h-7.71v-15.09l-.75.75c-2.09-3.64-2.78-4.55-4.66-6.1,4.82-5.19,7.81-11.72,8.83-18.68h-6.69v-6.69h21.4v6.69h-7.06c-.7,3.64-1.44,6.05-2.41,8.88h8.46v18.89c1.82-5.57,1.93-9.42,1.93-15.2v-15.63h9.53v-6.96l7.28.32c.43,0,1.02.05,1.02.64,0,.43-.21.54-1.02,1.07v4.92h7.55l3.32,3.26c-.59,3.16-2.41,8.72-3.64,10.7-3.59-1.18-5.14-1.44-6.96-1.61.59-.91,1.82-2.84,2.46-5.67h-2.73v8.13h5.83ZM118.8,116.58v9.53h2.14v-9.53h-2.14ZM136.51,125.09c-.11.8-.75,4.92-3.26,9.9,3.21-1.44,4.76-2.62,6.8-4.44-1.12-1.5-2.25-3.16-3.53-5.46ZM139.67,112.46v-8.13h-2.25v8.13h2.25ZM141.01,119.15c1.28,2.89,2.84,5.08,3.64,6.05,1.87-2.89,2.41-4.44,2.94-6.05h-6.58Z"/>
      <path class="cls-1" d="M199.47,97.96c-3.64,2.41-11.93,10.7-13.11,11.93.91-.21,3.53-.8,6.42-.8,7.28,0,14.77,4.6,14.77,14.07,0,11.77-11.18,16.91-20.44,16.91-6.9,0-13.59-2.73-13.59-9.2,0-5.3,4.92-8.56,10.49-8.56,5.03,0,10.27,2.84,11.51,7.87,3.53-1.77,3.53-5.89,3.53-6.31,0-1.28-.43-7.81-8.72-7.81-9.04,0-14.18,5.3-21.62,13.06l-6.42-6.26c6.15-4.28,18.09-16.05,21.67-20.82-1.71.38-3.53.8-14.23,1.87l-1.28-8.4c2.09.05,17.55.21,26.76-3.37l4.28,5.83ZM183.36,128.99c-1.82,0-2.25,1.02-2.25,1.93,0,2.03,3,2.84,4.82,2.84,1.23,0,2.14-.27,2.68-.43-.86-3.64-3.75-4.33-5.24-4.33Z"/>
      <path class="cls-1" d="M230.52,119.79c-2.89,2.57-4.82,5.51-4.82,6.74,0,.91.7,1.5,1.07,1.71,1.98,1.07,8.13,1.18,10.65,1.18,11.29,0,18.09-1.93,20.66-2.68.21,2.89,1.02,6.74,1.55,8.88-7.33,1.82-18.52,2.14-22.69,2.14-12.25,0-20.12-2.25-20.12-10.38,0-4.6,3.75-8.67,7.97-12.25l5.73,4.66ZM256.09,101.11c-6.64,2.62-11.51,5.73-16.86,10.6-.11-.11-.59-.64-4.76-5.35,1.44-.96,2.62-1.98,3.8-3.21-1.34.11-4.66.32-9.52.32-4.23,0-5.94-.21-7.22-.32l-.43-8.83c4.33.91,11.56,1.18,16.16,1.18,8.46,0,12.95-.86,14.5-1.18l4.33,6.8Z"/>
      <path class="cls-1" d="M309.08,110.26c-3.8.27-8.29.64-17.98,5.03-9.42,4.28-13.16,8.88-13.16,11.5,0,3.85,5.73,4.6,12.52,4.6,5.94,0,14.07-1.28,18.3-3.05-.48,2.41-.75,4.6-.59,9.42-7.22,1.34-15.14,1.61-18.09,1.61-9.31,0-12.95-1.39-15.63-2.84-3.37-1.82-5.83-4.98-5.83-9.2,0-7.28,6.1-11.83,11.4-15.14-2.68-3-3.05-5.83-3.96-12.63-.32-2.57-.64-3.42-1.44-5.73l10.49-2.25c-.21,2.73-.32,3.91-.32,5.62,0,6.42,1.87,10.54,2.35,11.4,8.35-3.96,12.15-5.3,18.68-7.65l3.26,9.31Z"/>
      <path class="cls-1" d="M342.39,94.48c.59.16,1.07.32,1.07.8,0,.75-1.12.86-1.44.86-.8,3.64-1.12,5.03-1.5,6.42,4.6,0,12.25.16,12.25,13.11,0,8.83-2.78,16.38-5.35,19.8-.91,1.23-3.1,3.75-7.92,3.75-1.66,0-4.07-.21-5.67-.59.05-.59.16-1.07.16-1.98,0-.8-.05-3.05-.8-7.17,1.23.7,2.62,1.18,4.66,1.18,1.44,0,2.3-.21,3.16-1.02,1.82-1.61,3.53-7.6,3.53-14.23,0-5.51-3.85-5.19-6.15-5.03-4.23,14.5-9.26,22.64-13.59,28.25-2.25-1.66-5.73-3.42-7.87-4.23,5.67-6.58,10.11-14.13,12.74-22.42-2.57.64-6.8,1.87-8.51,2.73l-2.94-8.62c2.19-.43,11.72-2.41,13.7-2.73,1.12-5.14,1.45-9.04,1.66-11.72l8.83,2.84ZM356.84,97.26c5.89,6.58,9.63,15.52,9.63,19.75,0,2.78-.91,4.28-3.8,5.67-.48.21-2.62,1.23-5.35,1.66-1.12-3.16-1.77-4.71-3.1-7.17,1.44-.32,3.42-.75,3.42-2.46,0-1.34-1.34-4.87-2.78-7.33-1.39-2.41-3.42-4.66-4.55-5.94l6.53-4.17Z"/>
      <path class="cls-1" d="M389.23,103.74c.38.11.8.21.8.7,0,.64-.64.7-1.23.75-1.28,2.41-2.73,5.57-3.53,9.26,4.76-3.26,10.97-4.98,15.62-4.98,9.21,0,13.7,6.8,13.7,13.16,0,10.22-9.63,17.23-27.34,17.23-1.55,0-2.89-.05-3.91-.11-.32-2.94-.75-4.39-2.51-8.99,1.82.43,3.69.8,7.92.8,12.15,0,16.96-4.55,16.96-9.04,0-1.55-.75-5.46-6.26-5.46-7.65,0-13.22,4.92-17.07,8.78l-7.65-2.78c1.55-9.15,3.16-14.98,5.62-22.15l8.88,2.84ZM386.29,91.21c1.87.27,10.11,1.5,17.98,5.94-2.03,2.84-3.37,5.14-4.82,7.81-4.5-3.16-11.02-5.51-15.95-6.58l2.78-7.17Z"/>
      <path class="cls-1" d="M443.01,101.33v-9.79l8.03.21c.8,0,1.23.16,1.23.75,0,.21-.11.43-.37.75-.16.21-.32.37-.48.54v7.55h17.34v7.17h-17.34v7.49h12.36v7.12h-12.36v9.47h19.53v7.01h-48.96v-7.01h21.03v-9.47h-12.15v-7.12h12.15v-7.49h-10.86c-2.3,4.17-3.75,6.1-5.35,8.08-2.2-1.71-4.5-2.89-7.01-3.75,8.51-10.65,10.22-19.85,10.33-20.44l7.44,2.19c.59.16,1.18.43,1.18,1.02,0,.86-.8.8-1.18.8-.64,1.77-1.87,4.71-1.98,4.92h7.44Z"/>
      <path class="cls-1" d="M504.68,93.3c.48.11.96.16.96.7,0,.59-.59.7-.96.75-.21,2.09-.21,2.57-.27,3.16,2.46,0,10.76-.16,14.77.32v7.97c-2.57-.21-7.22-.64-15.04-.48v5.89c1.5-.11,7.49-.7,13.59-2.52v7.97c-4.39.96-8.88,1.39-13.38,1.77,0,2.3,0,2.52.11,4.76,6.69.91,15.89,5.56,17.87,7.06-1.71,1.66-2.68,2.84-5.94,6.69-2.62-2.25-7.49-5.3-11.45-6.74.11,2.78.48,9.1-11.24,9.1-8.29,0-14.34-3.8-14.34-8.67,0-6.1,7.65-8.72,16.59-8.56q0-1.23-.05-3.16c-5.3.11-14.98.27-14.98-5.03,0-1.87.96-3.58,3.75-6.47l5.89,1.34c-.96,1.28-1.12,1.44-1.12,1.82,0,.59,0,1.5,6.26,1.23,0-.96-.05-5.3-.05-6.15-6.58.27-12.36,1.02-16.8,1.61v-8.46c2.62-.27,14.34-.8,16.75-.96,0-2.03,0-4.12-.21-6.58l9.31,1.66ZM493.6,128.62c-.27,0-5.41,0-5.41,2.19,0,1.77,2.94,1.93,3.85,1.93,2.62,0,4.23-.96,3.91-3.91-.53-.11-1.28-.21-2.35-.21Z"/>
      <path class="cls-1" d="M552.03,105.61c4.12-4.01,8.62-5.46,10.97-5.46,1.55,0,6.8,1.12,6.8,8.35,0,1.77-.05,2.14-1.34,10.97-.27,1.77-.43,4.28-.43,6.1,0,.7,0,2.52,1.39,2.52.64,0,2.89-.38,6.74-4.6.75,3.21.91,3.69,2.89,8.29-4.82,4.66-8.94,5.67-11.35,5.67-3,0-8.08-1.93-8.08-9.69,0-2.68,1.45-15.2,1.45-16.75,0-1.12-.64-1.77-1.66-1.77-3.26,0-7.87,5.46-11.29,9.47.11,11.08.16,12.31,1.02,21.08l-9.37.43c.38-2.68.48-6.47.48-9.2v-2.19c-.75,1.07-3.8,5.89-4.55,6.74l-6.53-6.58c7.65-8.4,10.27-12.25,11.24-13.7,0-.54.05-1.34.05-2.03-1.5.54-5.14,1.55-8.51,1.93l-1.77-9.04c3.85,0,6.8-.59,10.49-1.61.11-3.64.16-10.76.05-12.63l7.81.64c.59.05,1.5.16,1.5.91,0,.59-.7.7-1.07.8-.43,4.23-.54,6.37-.59,7.92l3.64,3.42Z"/>
      <path class="cls-1" d="M621.03,97.96c-3.64,2.41-11.93,10.7-13.11,11.93.91-.21,3.53-.8,6.42-.8,7.28,0,14.77,4.6,14.77,14.07,0,11.77-11.18,16.91-20.44,16.91-6.9,0-13.59-2.73-13.59-9.2,0-5.3,4.92-8.56,10.49-8.56,5.03,0,10.27,2.84,11.5,7.87,3.53-1.77,3.53-5.89,3.53-6.31,0-1.28-.43-7.81-8.72-7.81-9.04,0-14.18,5.3-21.62,13.06l-6.42-6.26c6.15-4.28,18.09-16.05,21.67-20.82-1.71.38-3.53.8-14.23,1.87l-1.28-8.4c2.09.05,17.55.21,26.76-3.37l4.28,5.83ZM604.92,128.99c-1.82,0-2.25,1.02-2.25,1.93,0,2.03,3,2.84,4.82,2.84,1.23,0,2.14-.27,2.68-.43-.86-3.64-3.75-4.33-5.24-4.33Z"/>
      <path class="cls-1" d="M655.27,132.1c0,4.23-3.42,7.6-7.54,7.6s-7.54-3.37-7.54-7.6,3.37-7.55,7.54-7.55,7.54,3.42,7.54,7.55ZM643.5,132.1c0,2.35,1.87,4.23,4.23,4.23s4.23-1.93,4.23-4.23-1.82-4.23-4.23-4.23-4.23,1.93-4.23,4.23Z"/>
    </g>
  </g>
</svg>