<?xml version="1.0" encoding="UTF-8"?>
<svg id="_レイヤー_2" data-name="レイヤー 2" xmlns="http://www.w3.org/2000/svg" viewBox="0 0 608.74 142.32">
  <defs>
    <style>
      .cls-1 {
        fill: #fff;
        stroke-width: 0px;
      }
    </style>
  </defs>
  <g id="_枠" data-name="枠">
    <g>
      <path class="cls-1" d="M14.56,50.09h-7.81v-17.12c-1.28,1.5-1.61,1.77-2.25,2.41-.27-.64-1.93-4.01-4.5-6.31,5.08-4.82,9.53-11.56,11.08-14.93l5.99,3.32c.27.16.43.27.59.43v-6.85h8.08c-1.55-2.94-2.94-5.24-4.87-7.28l6.31-3.75c3,3.37,3.85,4.71,5.78,8.51-2.78,1.55-3.1,1.71-4.33,2.52h6.1c1.66-2.3,4.82-8.51,5.46-10.7l6.74,1.87c.27.05.96.27.96.91,0,.59-.54.86-1.18,1.12-.7,1.87-1.39,3.42-3.48,6.8h7.17v6.96h-11.67v6.64h9.74v7.33h-9.74v9.63c1.66.27,3.64.54,6.26.54,1.12,0,6.15-.32,7.17-.43-1.18,2.36-2.3,4.87-2.62,7.92-13.97-.11-18.57-.32-24.35-8.45-1.28,3.75-2.94,6.47-5.08,9.36-.75-.75-2.14-2.03-5.56-3.26v2.84ZM16.7,4.98c.32.21.54.37.54.75,0,.86-.75.86-1.28.91-2.62,3.26-6.64,7.06-9.9,9.36-1.23-1.77-2.62-3.37-5.89-5.51C4.07,8.13,8.24,4.23,10.49.64l6.21,4.33ZM27.45,22.74c.54.05,1.28.11,1.28.96,0,.59-.43.8-.86,1.02-.05,3.64-.7,7.54-.8,8.24.75,1.61,1.82,3.53,3.53,5.14v-20.12h-12.9c.21.64-.05,1.39-1.23,1.23-.32.75-.91,1.82-2.25,3.91.54.21,1.07.59,1.07,1.02,0,.38-.48.86-.75,1.07v20.12c3.91-5.08,5.94-11.34,5.94-17.77,0-.96-.11-3.37-.21-5.35l7.17.54Z"/>
      <path class="cls-1" d="M86.9,50.03h-7.71v-14.29c-.8,1.07-7.06,9.1-15.68,13.65-1.66-2.09-4.55-4.44-6.85-5.3,7.12-3.53,12.68-7.71,17.18-13.7h-15.41v-6.96h10.01c-.54-1.23-2.3-5.3-4.28-7.92l3.85-2.14h-7.06v-6.96h18.25V.96l8.03.48c.64.05,1.18.11,1.18.8,0,.75-1.07.91-1.5,1.02v3.16h18.14v6.96h-6.96l3.26,1.39c.37.16.54.37.54.64,0,.7-.64.8-1.07.91-.86,2.57-2.78,6.1-3.37,7.12h10.11v6.96h-15.89c4.28,5.73,10.11,10.06,16.64,12.95-2.52,1.98-4.07,3.48-5.67,5.78-7.71-3.96-12.58-9.1-15.73-13.7v14.61ZM79.2,23.44v-10.06h-6.9c1.34,1.77,3.16,4.55,4.44,8.24-1.02.37-2.19.8-4.07,1.82h6.53ZM86.9,13.38v10.06h6.21c-2.25-1.28-2.78-1.5-3.69-1.93.75-1.12,1.87-2.84,4.07-8.13h-6.58Z"/>
      <path class="cls-1" d="M138.84,40.83c11.61-2.14,15.04-11.13,15.04-16.7,0-4.33-2.3-12.31-12.36-13.11-1.66,19.59-9.74,34.19-15.41,34.19-4.17,0-11.93-7.06-11.93-16.96,0-11.5,10.49-24.94,26.22-24.94,11.72,0,21.94,7.97,21.94,20.76,0,2.46-.21,9.31-6.31,16.54-3.26,3.8-7.06,5.78-11.61,7.76-1.77-3.1-2.94-4.71-5.56-7.54ZM122.09,27.61c0,4.12,2.3,7.22,3.42,7.22,1.28,0,2.3-2.41,2.89-3.8,2.3-5.3,4.07-11.45,4.12-18.41-6.21,2.3-10.44,10.17-10.44,14.98Z"/>
      <path class="cls-1" d="M203.2,4.17c.43,0,2.78-.11,3.69-.32l6.21,5.03c-.64.8-1.23,1.5-1.77,2.84-5.35,13.06-6.48,15.68-10.38,20.92-4.55,6.05-9.85,10.43-19.8,15.95-.91-1.23-2.19-2.94-6.64-6.53,12.15-5.83,20.39-11.29,27.08-29.97h-32.54v-7.92h34.14Z"/>
      <path class="cls-1" d="M232.59,3.8c.7.05,1.12.05,1.12.54,0,.64-.75.96-1.12,1.12v30.88c7.6-2.14,19.96-9.04,27.99-19.42,1.28,3.58,1.98,5.14,3.96,8.45-5.67,5.94-13.38,13.97-35.59,22.58l-5.62-5.35c.11-.75.21-2.46.21-3.21V3.37l9.04.43Z"/>
      <path class="cls-1" d="M318.97,21.14v9.1h-46.5v-9.1h46.5Z"/>
      <path class="cls-1" d="M357.88,19.8c5.46,6.63,11.45,16.16,13.11,20.87-2.46,1.82-5.41,4.01-7.28,5.62-.64-1.71-1.28-3.42-2.46-5.99-12.47,2.3-20.44,3.53-34.78,5.19-.11.48-.37,1.02-.8,1.02-.54,0-.7-.59-.8-1.07l-2.03-8.24c2.52-.05,3.91-.11,5.62-.21,3.85-7.12,9.85-22.53,12.47-34.73l9.26,2.35c.48.11.96.27.96.75,0,.75-.86.91-1.29,1.02-.91,2.3-4.6,12.63-5.46,14.72-.86,2.19-3.91,9.74-6.69,15.2,5.08-.54,11.4-1.28,19.64-2.84-2.14-3.26-4.28-6.48-6.96-9.26l7.49-4.39Z"/>
      <path class="cls-1" d="M371.88,21.4c2.52-1.07,4.23-1.98,9.58-5.03-1.93-3.48-3.26-5.94-5.99-9.37l8.88-3.48c.21-.11.48-.21.86-.21.32,0,.75.05.75.7,0,.38-.32.59-.64.8.96,2.14,2.62,5.41,3.64,7.44,1.45-.75,2.57-1.34,5.08-2.46-2.25-3.1-3.53-4.44-4.76-5.73l7.06-3.26c1.02.91,2.62,2.46,5.41,6.15,2.14-.54,4.17-.86,6.42-.86,10.33,0,13.27,6.8,13.27,12.25,0,11.93-12.2,13.75-19.91,13.86-.91-3.37-1.34-4.71-2.89-8.03,3.8.16,5.89,0,7.97-.43,6.58-1.45,6.58-4.23,6.58-5.78,0-2.67-2.09-4.28-4.66-4.28-.64,0-1.55.11-2.03.16,1.23,1.93,1.98,3.42,2.57,4.6-3.05,1.07-6.1,2.46-8.08,3.37-.59-1.45-1.18-2.89-2.68-5.46-2.52.96-4.39,1.87-6.05,2.73,5.89,12.52,8.78,21.83,9.74,26.33-1.44.54-7.76,3.53-9.04,4.12-1.23-10.54-4.66-18.41-7.97-26.01-3.32,2.25-3.96,2.73-7.97,5.94l-5.14-8.08Z"/>
      <path class="cls-1" d="M455.67,16h16.54v7.38h-16.54v3.69h20.07v7.54h-20.07v8.03c0,6.69-3.16,7.65-12.63,7.81-.64-4.23-2.14-6.58-3.48-8.4,2.03.43,4.98.59,5.19.59,2.19,0,2.3-1.07,2.3-2.62v-5.41h-21.08v-7.54h21.08v-3.69h-17.55v-7.38h17.55v-3.37c-5.24.37-11.18.48-14.23.48-.27-1.77-.91-4.55-3-7.33,7.55.21,22.1.54,35.48-5.08l5.41,6.48c.21.27.32.53.32.7,0,.37-.32.96-.96.96-.59,0-1.29-.37-1.61-.59-3.26,1.23-6.64,2.36-12.79,3.37v4.39Z"/>
      <path class="cls-1" d="M483.65,14.13c1.55,1.07,5.89,4.01,8.51,6.64-1.98,1.98-2.57,2.84-4.33,5.51-4.55-3.96-7.06-5.57-8.51-6.53l4.33-5.62ZM479.37,45.11c2.68-3.16,6.47-10.81,8.29-16.54,2.25,2.03,3.8,2.94,6.21,3.85-2.89,8.78-5.51,13.43-6.9,15.95.11.21.16.43.16.7,0,.43-.43.7-.75.7-.38,0-.75-.21-1.02-.38l-5.99-4.28ZM487.24.86c3.21,1.93,6.26,4.66,8.29,6.96-2.52,2.73-2.78,3.05-5.03,5.78-.75-.86-4.23-4.87-8.13-7.49l4.87-5.25ZM520.04,29.32c5.35,5.78,9.69,13.38,10.92,16.32-2.78,1.23-4.33,2.25-6.74,4.17-1.12-2.3-1.71-3.48-2.73-5.3-3.91.86-11.67,2.68-23.65,3.58-.21.48-.48,1.07-1.12,1.07-.59,0-.75-.64-.91-1.28l-1.71-7.33c2.46,0,4.07,0,5.99-.16,1.23-2.25,4.17-8.67,5.14-11.83h-11.13v-7.01h13.75v-5.94h-11.02v-6.9h11.02V.91l8.29.16c.86,0,1.5.11,1.5.75,0,.59-.54.75-1.55,1.12v5.78h11.93v6.9h-11.93v5.94h13.97v7.01h-14.23c.11.11.11.21.11.38,0,.75-1.5,1.07-2.25,1.18-1.07,2.52-2.35,5.03-4.71,9.63,5.03-.48,7.81-1.07,8.83-1.28-1.66-2.62-2.36-3.64-3.91-5.19l6.15-3.96Z"/>
      <path class="cls-1" d="M549.34,5.08c1.02.38,1.45.54,1.45.91,0,.48-1.07.59-1.45.64-1.61,4.76-3.48,10.86-3.48,22.1,0,2.19.11,2.78.38,4.28.32-.59,1.61-2.94,2.25-4.01,1.55,2.41,3.26,3.8,4.12,4.39-1.34,2.51-3.8,8.72-3.53,12.79l-7.6,2.03c-1.82-5.03-3.8-10.97-3.8-21.41,0-9.69,1.5-16.32,3.43-24.83l8.24,3.1ZM563.47,30.23c-.32.91-.8,2.73-.8,3.8,0,2.35,1.28,2.73,7.44,2.73,3.58,0,8.29-.21,13.22-1.44-.96,3.96-.8,7.97-.8,8.72-3.69.54-9.74.7-13.54.7-7.97,0-14.13-1.39-14.13-7.92,0-.7,0-3.75,1.77-7.87l6.85,1.28ZM556.99,7.38c1.61.11,3.75.27,6.96.27,8.83,0,13.7-1.23,15.73-1.71.05.86.27,5.57.75,8.13-2.2.43-7.81,1.61-16.48,1.61-3.16,0-5.24-.16-6.96-.27V7.38Z"/>
      <path class="cls-1" d="M602.69,49.07c-2.36-2.78-5.73-6.1-10.86-9.2l5.19-5.73c5.57,3.32,9.9,7.28,11.72,8.99l-6.05,5.94Z"/>
      <path class="cls-1" d="M211.91,113.26c.32.21.53.48.53.7,0,.59-.8.7-1.87.64-2.41,3.42-4.44,5.46-8.03,8.56,3.91,6.53,7.6,9.31,10.86,11.77-1.34,1.07-3.16,2.68-5.03,5.62-6.42-3.96-13.48-13.59-16.05-26.11-.96,1.77-1.39,2.46-1.77,3v13.75c3.42-.91,4.92-1.34,6.9-1.98-.43,2.46-.54,4.28-.37,7.17-7.12,2.36-11.93,3.48-17.07,4.5-.27.86-.43,1.45-1.34,1.45-.37,0-.7-.32-.86-.86l-1.93-6.9c1.66-.32,3.53-.7,6.53-1.34v-6.42c-1.44,1.34-2.14,1.82-3.05,2.46-.91-1.12-2.09-2.46-4.5-4.23v16.05h-7.76v-24.67c-.38.59-.64.96-.96,1.34-2.52-3.26-3.96-4.28-5.94-5.14,2.68-3.42,7.44-9.53,10.6-21.08l7.92,2.51c.27.11.54.38.54.54,0,.91-1.18.96-1.5.96-2.14,5.51-2.41,6.1-3.53,8.4l1.12.27c.32.05.75.16.75.59,0,.64-.7.96-1.23,1.23v16.37c5.08-3.26,9.69-8.08,12.41-14.72h-10.54v-7.28h12.79v-8.88l8.78.37c.43,0,.86.11.86.64s-.54.91-1.39,1.28v6.58h13.48v7.28h-12.84c.16,1.34.43,3.75,1.39,7.38,2.68-2.73,3.91-4.44,5.19-6.58l6.9,4.76Z"/>
      <path class="cls-1" d="M266.2,97.85v6.9h-27.4c-1.93,4.01-3.96,6.74-5.57,8.78v27.34h-7.6v-19.8c-2.14,1.55-3,2.09-4.07,2.73-1.34-1.93-3.8-4.44-5.67-5.62,4.07-2.09,6.58-4.07,9.74-7.01v-3.53l2.68.54c1.34-1.77,1.93-2.89,2.19-3.42h-11.88v-6.9h14.61c.91-3,1.12-4.66,1.23-5.99l8.35,1.07c.32.05,1.02.21,1.02.8,0,.64-.7.91-1.66,1.28-.43,1.61-.59,2.09-.8,2.84h24.83ZM266.2,119.36v6.8h-10.6v9.2c0,4.6-3.59,5.24-10.92,5.35-.21-3-1.28-5.57-2.73-8.03,2.03.38,3.85.48,4.39.48.48,0,1.55,0,1.55-1.61v-5.41h-12.68v-6.8h12.68v-4.23l1.02.11c.7-.54,1.12-1.07,1.44-1.45h-12.52v-6.8h23.87l3.1,3.26c-3.48,3.42-5.51,5.08-9.2,7.92v1.18h10.6Z"/>
      <path class="cls-1" d="M287.22,94.1c.8.11,1.23.16,1.23.75,0,.48-.37.64-1.02.91-1.28,6.31-1.71,14.77-1.71,21.24,0,12.15,1.18,14.39,5.3,14.39,9.15,0,17.23-12.36,18.68-15.36,1.34,1.77,3.69,4.71,6.21,7.01-6.1,9.9-15.2,17.34-26.01,17.34-11.88,0-12.84-10.06-12.84-23.44,0-3.1.54-16.64.54-19.37,0-1.55,0-3.37-.11-4.92l9.74,1.45Z"/>
      <path class="cls-1" d="M323.22,100.53c1.61.21,3.1.43,5.94.43,1.55,0,3.16-.11,5.46-.27,1.23-4.6,1.61-6.85,1.98-9.1l8.4,2.62c.75.21,1.02.43,1.02.86,0,.64-.86.64-1.12.64-.16.37-.86,2.84-1.07,3.53,2.62-.64,4.23-1.18,5.78-1.77-.16,2.19-.05,5.83.16,7.97-3.8,1.07-6.79,1.61-8.56,1.87-.75,2.19-2.57,7.12-5.46,13.7-2.84,6.42-4.82,9.63-6.26,11.77-2.51-1.28-5.4-2.51-8.03-3.21,3.69-5.24,7.92-13.16,10.81-21.14-1.23.11-6.37.27-8.03.27l-1.02-8.19ZM357.84,115.13c-1.28,1.82-1.93,3-1.93,5.24,0,1.77.38,4.28.54,5.24,3.21,1.34,8.56,4.28,11.34,6.53-1.82,1.87-4.23,5.35-4.92,6.42-4.07-3.21-4.55-3.53-6.15-4.5-1.02,5.03-4.55,6.53-10.7,6.53-8.51,0-12.74-3.8-12.74-8.83,0-1.02.21-8.46,11.02-8.46,1.5,0,2.57.11,3.53.16-.05-.37-.27-4.23-.27-4.66,0-3.48,2.57-6.64,3.75-7.44l6.53,3.75ZM344.57,129.69c-1.5,0-3.42.75-3.42,2.19,0,1.28,1.55,1.98,3.8,1.98,3.64,0,3.85-1.77,4.01-3.1-1.28-.64-2.94-1.07-4.39-1.07ZM354.95,101.17c8.51,2.78,11.67,5.03,14.07,6.96-1.82,2.19-3.96,5.4-4.87,6.9-3.16-2.73-8.51-5.51-13.43-6.9l4.23-6.96Z"/>
      <path class="cls-1" d="M387.46,97.26c.48.16,1.07.32,1.07.8,0,.7-.64.8-1.12.86-1.12,3.26-3,8.88-3,16.11,0,6.53,2.03,11.08,3.58,11.08,1.71,0,3.75-4.71,5.19-8.08,1.98,2.73,4.01,4.55,5.62,5.67-4.28,10.38-9.15,14.02-11.77,14.02-3,0-10.92-6.37-10.92-22.9,0-6.85,1.18-13.11,2.62-20.01l8.72,2.46ZM413.31,97.64c5.89,7.92,9.9,17.02,10.81,26.92-3.16,1.23-6.96,3.05-8.72,3.96-.64-11.34-3.96-19.16-8.99-26.49l6.9-4.39Z"/>
      <path class="cls-1" d="M447.24,132.47c0,4.23-3.43,7.6-7.54,7.6s-7.55-3.37-7.55-7.6,3.37-7.54,7.55-7.54,7.54,3.42,7.54,7.54ZM435.46,132.47c0,2.35,1.87,4.23,4.23,4.23s4.23-1.93,4.23-4.23-1.82-4.23-4.23-4.23-4.23,1.93-4.23,4.23Z"/>
    </g>
  </g>
</svg>