<?xml version="1.0" encoding="UTF-8"?>
<svg id="_レイヤー_2" data-name="レイヤー 2" xmlns="http://www.w3.org/2000/svg" viewBox="0 0 439.23 143.39">
  <defs>
    <style>
      .cls-1 {
        fill: #fff;
        stroke-width: 0px;
      }
    </style>
  </defs>
  <g id="_枠" data-name="枠">
    <g>
      <path class="cls-1" d="M28.68,51.21h-8.51v-16.16H0v-7.49h20.17V10.92H2.14V3.64h44.31v7.28h-17.77v16.64h9.15c-.43-.27-3.75-2.35-7.17-3.05,2.46-4.44,4.76-10.65,5.19-13l7.92,2.52c.48.16,1.07.43,1.07.96s-.64.7-1.5.7c-2.3,6.21-3.75,9.21-5.14,11.88h10.44v7.49h-19.96v16.16ZM12.09,11.83c2.68,4.55,4.12,7.22,5.83,12.15-2.09.91-5.35,2.41-7.44,3.26-.21-.86-2.25-7.49-5.3-12.31l6.9-3.1Z"/>
      <path class="cls-1" d="M74.75,16.54c3.64,5.73,5.19,9.47,6.31,12.79-3.48,1.5-5.51,2.62-7.44,3.64-.54-1.71-2.14-6.74-5.3-11.77v3.48c0,12.68-2.94,19.53-12.04,26.54-2.03-2.46-3.53-3.64-6.37-5.35,8.51-6.53,10.38-11.45,10.38-20.39V3.21h28.68v37.67c0,1.23.21,1.66,1.5,1.66h1.34c1.23,0,2.09,0,2.62-6.47,2.68,2.57,6.1,3.1,7.17,3.26-.32,2.68-.96,5.83-2.25,8.29-1.5,3-5.19,3.1-5.78,3.1h-5.83c-6.53,0-6.53-5.19-6.53-7.12V11.34h-12.9v8.78l6.42-3.58Z"/>
      <path class="cls-1" d="M109.39,10.54c1.61.21,3.1.43,5.94.43,1.55,0,3.16-.11,5.46-.27,1.23-4.6,1.61-6.85,1.98-9.1l8.4,2.62c.75.21,1.02.43,1.02.86,0,.64-.86.64-1.12.64-.16.38-.86,2.84-1.07,3.53,2.62-.64,4.23-1.18,5.78-1.77-.16,2.19-.05,5.83.16,7.97-3.8,1.07-6.8,1.61-8.56,1.87-.75,2.19-2.57,7.12-5.46,13.7-2.84,6.42-4.82,9.63-6.26,11.77-2.52-1.28-5.4-2.51-8.03-3.21,3.69-5.24,7.92-13.16,10.81-21.14-1.23.11-6.37.27-8.03.27l-1.02-8.19ZM144.02,25.15c-1.28,1.82-1.93,3-1.93,5.24,0,1.77.37,4.28.54,5.24,3.21,1.34,8.56,4.28,11.34,6.53-1.82,1.87-4.23,5.35-4.92,6.42-4.07-3.21-4.55-3.53-6.15-4.49-1.02,5.03-4.55,6.53-10.7,6.53-8.51,0-12.74-3.8-12.74-8.83,0-1.02.21-8.45,11.02-8.45,1.5,0,2.57.11,3.53.16-.05-.38-.27-4.23-.27-4.66,0-3.48,2.57-6.63,3.75-7.44l6.53,3.75ZM130.74,39.71c-1.5,0-3.42.75-3.42,2.19,0,1.28,1.55,1.98,3.8,1.98,3.64,0,3.85-1.77,4.01-3.1-1.28-.64-2.94-1.07-4.39-1.07ZM141.13,11.18c8.51,2.78,11.67,5.03,14.07,6.96-1.82,2.19-3.96,5.41-4.87,6.9-3.16-2.73-8.51-5.51-13.43-6.9l4.23-6.96Z"/>
      <path class="cls-1" d="M200.41,5.73c.37,0,1.71,0,3-.48l5.94,5.46c-.54.75-.7,1.02-1.93,2.78-7.06,10.17-11.61,14.82-14.39,17.66-1.93-2.46-3.53-4.01-6.15-5.89,4.44-4.12,6.8-6.69,10.01-11.45h-35.8V5.73h39.33ZM187.46,15.89c.37,0,.96.05.96.64,0,.54-.7.8-.96.91-.21,5.89-1.18,11.88-2.78,16-2.14,5.51-7.17,12.25-13.43,15.84-2.62-2.41-4.33-3.69-7.49-5.67,7.49-4.28,15.57-10.11,14.61-28.25l9.1.54Z"/>
      <path class="cls-1" d="M239.84,50.03h-9.21v-24.35c-4.76,2.89-9.63,5.56-14.82,7.6-1.55-2.94-3.96-5.62-6.42-7.65,20.39-5.78,33.18-20.33,36.44-24.51l7.12,5.62c.32.21.64.53.64,1.02s-.43.7-.86.7c-.27,0-.48,0-1.07-.16-3.8,4.55-11.51,10.7-11.83,10.97v30.77Z"/>
      <path class="cls-1" d="M258.8,25.9v-7.65h45.59v7.65h-17.45c-.75,18.62-13.97,23.28-17.55,24.51-1.28-2.14-4.66-5.24-6.58-6.58,14.82-3.75,15.25-13.86,15.41-17.93h-19.43ZM300.27,6.58c1.12,1.02,4.28,4.12,5.41,5.57-.59.64-3,3.42-3.48,4.01-1.55-1.98-3.26-3.85-5.14-5.41v1.34h-30.61v-7.76h30.61v5.72l3.21-3.48ZM303,0c1.87,1.66,4.01,3.85,5.51,5.57-.91.8-1.61,1.44-3.53,3.69-1.23-1.6-3.42-4.07-5.24-5.56l3.26-3.69Z"/>
      <path class="cls-1" d="M354.29,5.73c.37,0,1.71,0,3-.48l5.94,5.46c-.54.75-.7,1.02-1.93,2.78-7.06,10.17-11.61,14.82-14.39,17.66-1.93-2.46-3.53-4.01-6.15-5.89,4.44-4.12,6.8-6.69,10.01-11.45h-35.8V5.73h39.33ZM341.34,15.89c.38,0,.96.05.96.64,0,.54-.7.8-.96.91-.21,5.89-1.18,11.88-2.78,16-2.14,5.51-7.17,12.25-13.43,15.84-2.62-2.41-4.33-3.69-7.49-5.67,7.49-4.28,15.57-10.11,14.61-28.25l9.1.54Z"/>
      <path class="cls-1" d="M393.9,2.89c.32.05,1.07.21,1.07.96s-.96.8-1.34.8l-1.23,2.62c1.55-.21,6.64-.91,11.08-2.51v7.92c-7.97,1.39-8.94,1.55-15.25,2.3-.64,1.12-.75,1.34-2.09,3.69,1.93-1.07,4.23-1.07,4.66-1.07,2.73,0,6.15,1.61,7.81,4.55,7.92-3.8,8.83-4.17,10.81-5.3l3.16,8.56c-5.94,1.87-9.04,3-12.2,4.33.11,1.55.16,3.21.16,4.82,0,2.41-.11,3.91-.16,5.35-1.71-.11-3.64-.11-5.35-.11s-2.03,0-3.1.11c.21-1.71.32-2.78.38-6.1-3.32,2.03-6.69,4.28-6.69,6.48,0,2.41,5.46,2.57,8.19,2.57,5.89,0,11.45-.96,17.12-2.62-.7,2.68-1.07,5.94-1.02,8.51-4.87,1.12-9.9,1.55-14.93,1.55-3.59,0-17.5,0-17.5-9.47,0-6.31,8.51-11.61,14.34-14.66-.86-2.35-2.73-2.68-4.01-2.68-5.56,0-9.31,5.99-12.25,10.76l-7.44-4.23c3.53-3.75,8.88-11.13,10.86-14.39-2.89.11-5.24.11-7.54.05l.05-7.76c1.66.16,4.76.43,8.4.43,1.55,0,2.2,0,3.05-.05,1.98-4.12,2.41-5.56,2.84-7.01l8.13,1.61Z"/>
      <path class="cls-1" d="M433.18,50.09c-2.35-2.78-5.73-6.1-10.86-9.2l5.19-5.73c5.57,3.32,9.9,7.28,11.72,8.99l-6.05,5.94Z"/>
      <path class="cls-1" d="M116.1,123.75c3.85-.32,7.17-1.07,9.63-1.77.11-1.12.11-1.71.11-3.26v-1.12h-5.67v-7.06h5.67v-4.76h-6.21v2.03h-5.14v5.89c1.5-.54,2.52-.91,4.28-1.66-.11.86-.21,2.09-.21,3.96,0,1.66.05,2.09.21,2.94-2.41,1.28-3.37,1.66-4.28,2.09v15.3c0,4.55-4.12,4.82-9.58,5.14-.43-3.21-1.12-5.19-2.57-7.71,1.87.37,3.1.37,3.32.37,1.39,0,1.44-.48,1.44-1.66v-8.46c-.64.27-.86.32-2.89,1.07-.54,1.61-.59,1.77-1.02,1.77-.59,0-.7-.48-.75-.91l-1.39-8.13c1.55-.38,2.94-.75,6.05-1.71v-8.29h-5.3v-6.8h5.3v-7.92l7.87.21c.54,0,1.12.05,1.12.48,0,.86-1.07,1.23-1.61,1.45v5.78h4.07v-1.93h7.28v-5.99l7.54.21c.64,0,1.34.05,1.34.64,0,.48-.7.91-1.39,1.29v23.81c0,4.5-1.34,10.01-3.64,14.23-1.6,3-4.66,7.06-8.29,9.21-1.28-1.98-4.39-4.07-5.99-4.92,3.64-2.35,6.9-5.83,8.08-7.71-2.35.59-2.78.7-3.85.86-.64,1.45-.7,1.61-1.23,1.61-.43,0-.48-.21-.64-.91l-1.66-7.65ZM149.87,99.08v6.69h-7.06v5.41h6.42v7.12h-6.42v5.46h7.81v7.38h-7.81v10.54h-7.49v-48.59l7.49.21c.96.05,1.39.05,1.39.64,0,.27-.05.43-1.39,1.34v3.8h7.06Z"/>
      <path class="cls-1" d="M193.11,116.95h12.25v7.06h-12.25v11.35c0,3,0,6.79-8.67,6.79-.7,0-1.23-.05-2.03-.11,0-1.12-.05-3.58-1.5-6.96-2.14,3.1-3.05,4.07-3.85,4.92-2.73-2.09-4.17-2.78-7.01-3.53,2.89-2.78,6.69-8.51,8.13-12.04l6.85,3.16c.43.21.54.32.75.48v-4.07h-9.9c-.11,1.93-.38,5.24-3,6.85-2.84,1.71-4.39,1.66-6.15,1.5-.11-1.12-.37-3.64-1.66-6.53v16.27h-6.69v-48.05h15.68l3.42,3.05c-.43,1.23-.7,2.09-1.98,6.05,5.83-5.08,7.12-7.87,8.4-10.6l8.62.27c.32,0,1.02.05,1.02.7,0,.7-.59.91-1.07,1.02.32.43,4.87,6.79,15.25,10.92-1.5,1.23-3.69,3.75-4.76,6.1-1.28-.59-2.03-1.02-3.32-1.77v4.12h-6.53v3.05ZM165.07,100.69v8.94c1.28-3.05,2.68-6.26,3.16-8.94h-3.16ZM165.07,124.12c.7.27,1.39.43,2.03.43,2.03,0,2.14-1.87,2.14-2.3,0-2.09-1.82-6.53-4.17-8.78v10.65ZM185.78,113.9h-7.33v-3.75c-.59.48-1.39,1.12-2.19,1.71-.7-1.02-1.18-1.77-2.73-3.32-.37.91-.64,1.55-1.5,3.59,2.57,4.07,3.16,6.37,3.53,8.19v-3.37h10.22v-3.05ZM185.78,129.1c-.32.21-.7.27-1.44.16-.64,1.34-1.07,2.3-2.84,4.98.64.16,1.66.32,2.73.32,1.44,0,1.55-.7,1.55-2.3v-3.16ZM195.89,107.32c-1.71-1.23-3.8-2.78-7.71-7.44-2.03,2.78-3.69,4.87-6.42,7.44h14.13ZM199.26,124.66c2.73,2.78,5.19,5.83,8.46,11.13-1.98.75-5.19,2.68-6.96,3.96-.7-1.71-1.82-4.82-7.49-11.61l5.99-3.48Z"/>
      <path class="cls-1" d="M243.39,93.89c.86.11,1.34.16,1.34.59,0,.59-.64.8-1.07.91-.11.96-.16,1.61-.27,3.75,15.09-.64,16.75-.7,17.77-.8-.05,1.12-.16,6.42.05,8.62-9.69-.48-13.75-.48-17.66-.43-.11,3.85-.05,4.82.05,5.94,3.1,3.8,3.1,9.53,3.1,10.28,0,7.6-4.98,16.48-12.41,20.66-2.3-2.19-5.24-4.17-7.81-5.51,1.61-.64,7.92-3.32,9.85-7.71-.54.43-1.61,1.29-4.23,1.29-.86,0-3.91,0-5.78-2.41-1.93-2.46-2.3-5.94-2.3-7.92,0-11.77,10.06-11.4,11.18-11.24.05-1.71.05-2.19.05-3-11.18.7-18.19,2.14-21.35,2.78l-.59-9.04c1.23.05,3.26-.05,21.73-1.12-.37-4.5-.37-4.66-.75-6.8l9.1,1.18ZM231.02,120.65c0,3.53,1.77,4.5,2.73,4.5,1.66,0,2.62-2.46,2.62-5.14,0-1.23-.27-3.32-2.41-3.32-1.77,0-2.94,1.77-2.94,3.96Z"/>
      <path class="cls-1" d="M302.25,99.35c-3.64,2.41-11.93,10.7-13.11,11.93.91-.21,3.53-.8,6.42-.8,7.28,0,14.77,4.6,14.77,14.07,0,11.77-11.18,16.91-20.44,16.91-6.9,0-13.59-2.73-13.59-9.2,0-5.3,4.92-8.56,10.49-8.56,5.03,0,10.27,2.84,11.5,7.87,3.53-1.77,3.53-5.89,3.53-6.31,0-1.28-.43-7.81-8.72-7.81-9.04,0-14.18,5.3-21.62,13.06l-6.42-6.26c6.15-4.28,18.09-16.05,21.67-20.82-1.71.38-3.53.8-14.23,1.87l-1.28-8.4c2.09.05,17.55.21,26.76-3.37l4.28,5.83ZM286.15,130.39c-1.82,0-2.25,1.02-2.25,1.93,0,2.03,3,2.84,4.82,2.84,1.23,0,2.14-.27,2.68-.43-.86-3.64-3.75-4.33-5.24-4.33Z"/>
      <path class="cls-1" d="M336.5,133.49c0,4.23-3.42,7.6-7.54,7.6s-7.54-3.37-7.54-7.6,3.37-7.55,7.54-7.55,7.54,3.42,7.54,7.55ZM324.73,133.49c0,2.35,1.87,4.23,4.23,4.23s4.23-1.93,4.23-4.23-1.82-4.23-4.23-4.23-4.23,1.93-4.23,4.23Z"/>
    </g>
  </g>
</svg>