<?xml version="1.0" encoding="UTF-8"?>
<svg id="_レイヤー_2" data-name="レイヤー 2" xmlns="http://www.w3.org/2000/svg" viewBox="0 0 605.5 142.1">
  <defs>
    <style>
      .cls-1 {
        fill: #fff;
        stroke-width: 0px;
      }
    </style>
  </defs>
  <g id="_枠" data-name="枠">
    <g>
      <path class="cls-1" d="M45.75,19.26l3.91,3.91c-4.01,7.01-8.67,11.93-12.63,15.95-2.03-2.46-3.64-3.75-6.42-5.19,3.26-2.51,5.4-5.08,6.8-7.12h-8.78v16.38c0,5.99-3.75,6.69-12.36,6.53-.21-1.82-.7-4.87-2.62-7.87,1.71.32,3.05.43,4.33.43,2.3,0,2.57-.75,2.57-3.16v-12.31H0v-7.54h22.1c-2.57-1.23-4.44-2.14-11.67-4.71l5.08-5.56H5.03V2.14h34.94l3,4.12c-2.73,2.89-7.87,6.58-11.72,9.15,1.98,1.07,2.46,1.44,3,1.82-.8.59-1.44,1.02-2.62,2.03h14.13ZM16.11,8.99c.96.38,5.14,1.82,7.97,2.94,2.14-1.39,3-2.14,3.96-2.94h-11.93Z"/>
      <path class="cls-1" d="M82.2,26.76h14.07v7.01h-14.07v7.97c1.34.05,2.89.11,4.98.11,5.03,0,5.89-.05,16.48-.91-1.87,4.44-1.98,6.47-1.93,8.35h-20.92c-9.79,0-14.23-5.35-15.79-7.49-1.98,4.5-4.12,7.22-5.03,8.46-2.78-2.03-3.37-2.25-7.65-3.32,1.98-2.3,7.92-9.15,9.1-22.15l8.24,1.44c.48.11,1.07.21,1.07.86,0,.54-.32.64-1.5,1.07-.27,1.34-.54,2.68-1.23,5.24.96,2.3,2.19,5.19,5.99,6.96v-18.52h-13.86v-4.07h-6.69V5.35h20.28V.32l8.19.54c.75.05,1.44.11,1.44.64,0,.43-.27.64-1.44,1.18v2.68h20.55v12.2h-6.21v4.28h-14.07v4.92ZM94.57,14.93v-3.1h-33.34v3.1h33.34Z"/>
      <path class="cls-1" d="M127.49,9.58v5.46h-18.73v-5.46h18.73ZM128.77,1.98h28.58v41.1c0,5.56-2.35,6.58-10.01,6.69-.43-3.05-1.18-4.92-2.3-7.06,1.44.27,2.78.27,3.16.27,2.35,0,2.35-.48,2.35-2.73V7.87h-15.36v14.29c0,4.92-.48,12.68-1.18,17.45-.75,5.35-1.82,8.78-2.3,10.33-1.44-.96-3-1.61-4.98-2.3v1.5h-6.47v-1.66h-3.53v2.41h-6.9v-18.94h16.91v10.92c1.98-8.4,2.03-15.89,2.03-20.82V1.98ZM126.15,1.98v5.89h-15.41V1.98h15.41ZM126.15,16.75v5.24h-15.41v-5.24h15.41ZM126.15,23.71v5.51h-15.41v-5.51h15.41ZM116.73,36.5v5.03h3.53v-5.03h-3.53ZM148.62,26.38v14.93h-7.49v3.05h-4.92v-17.98h12.41ZM148.94,11.29v5.24h-3.32v2.36h3.32v5.46h-12.42v-5.46h3.21v-2.36h-3.21v-5.24h3.21v-2.84l5.89.38c.32,0,1.02.05,1.02.64,0,.21-.11.32-1.02.86v.96h3.32ZM141.13,31.95v3.48h3v-3.48h-3Z"/>
      <path class="cls-1" d="M190.89,5.35h22.15v42.6h-7.97v-3.32h-6.26v4.33h-7.92v-16.75c-2.35,1.55-2.89,2.19-4.87,5.3-.91-.86-1.82-1.77-3.53-4.07v16.48h-7.71v-14.07c-2.14,3.64-3.75,5.35-4.71,6.37-2.25-2.3-3.53-3.42-6.96-4.65,2.46-2.14,7.01-6.15,10.6-14.88h-8.4v-7.49h9.47v-3.8c-.91.16-4.92.8-5.73.96-1.82-4.44-3-5.99-3.75-7.01,3.96-.27,12.58-.91,19.53-4.82l5.4,6.05c.16.16.37.48.37.7,0,.32-.21.64-.64.64-.32,0-1.07-.27-1.66-.48-1.18.48-3.48,1.45-5.83,2.14v5.62h6.96v7.49h-5.73c.64,1.07,3.21,5.08,7.17,8.46V5.35ZM205.07,37.51V12.68h-6.26v24.83h6.26Z"/>
      <path class="cls-1" d="M222.04,9.26c1.61.21,3.1.43,5.94.43,1.55,0,3.16-.11,5.46-.27,1.23-4.6,1.61-6.85,1.98-9.1l8.4,2.62c.75.21,1.02.43,1.02.86,0,.64-.86.64-1.12.64-.16.38-.86,2.84-1.07,3.53,2.62-.64,4.23-1.18,5.78-1.77-.16,2.19-.05,5.83.16,7.97-3.8,1.07-6.8,1.61-8.56,1.87-.75,2.19-2.57,7.12-5.46,13.7-2.84,6.42-4.82,9.63-6.26,11.77-2.52-1.28-5.4-2.51-8.03-3.21,3.69-5.24,7.92-13.16,10.81-21.14-1.23.11-6.37.27-8.03.27l-1.02-8.19ZM256.67,23.87c-1.28,1.82-1.93,3-1.93,5.24,0,1.77.37,4.28.54,5.24,3.21,1.34,8.56,4.28,11.34,6.53-1.82,1.87-4.23,5.35-4.92,6.42-4.07-3.21-4.55-3.53-6.15-4.49-1.02,5.03-4.55,6.53-10.7,6.53-8.51,0-12.74-3.8-12.74-8.83,0-1.02.21-8.45,11.02-8.45,1.5,0,2.57.11,3.53.16-.05-.38-.27-4.23-.27-4.66,0-3.48,2.57-6.63,3.75-7.44l6.53,3.75ZM243.4,38.42c-1.5,0-3.42.75-3.42,2.19,0,1.28,1.55,1.98,3.8,1.98,3.64,0,3.85-1.77,4.01-3.1-1.28-.64-2.94-1.07-4.39-1.07ZM253.78,9.9c8.51,2.78,11.67,5.03,14.07,6.96-1.82,2.19-3.96,5.41-4.87,6.9-3.16-2.73-8.51-5.51-13.43-6.9l4.23-6.96Z"/>
      <path class="cls-1" d="M279.31,12.52V4.5h27.34c.86,0,2.78-.11,3.69-.43l4.17,4.55c-.43.54-1.23,1.66-2.03,3.43-1.98,4.49-4.12,8.99-6.8,13.11,2.25,1.71,12.04,9.85,16.05,14.66-1.77,2.03-4.66,5.24-6.42,7.28-1.98-2.73-6.47-8.99-14.4-15.25-5.14,6.15-13.54,13.06-20.55,16-2.03-3.37-3.16-4.87-6.1-7.33,6.9-2.46,12.2-5.62,17.39-10.7,6.1-5.89,8.29-11.13,10.7-17.29h-23.06Z"/>
      <path class="cls-1" d="M347.22,15.52c7.92,4.01,14.72,8.62,18.68,12.58-2.41,3.48-2.68,3.85-5.03,7.49-1.77-1.66-7.12-6.64-16.7-11.88v25.1h-9.04V1.55l9.04.43c.37,0,1.02.05,1.02.59s-.59.75-1.02.86v16.38l3.05-4.28Z"/>
      <path class="cls-1" d="M421.67,20.87v9.1h-46.5v-9.1h46.5Z"/>
      <path class="cls-1" d="M442.66,2.62c.64,0,1.02.05,1.02.54,0,.54-.64.86-1.02,1.02v26.17h-8.94V2.35l8.94.27ZM467.17,1.66c.54,0,1.02.11,1.02.54,0,.64-.64.91-1.02,1.07v17.45c0,5.83-1.02,11.72-4.28,16.54-2.94,4.33-8.88,10.11-16.21,12.36-.8-2.19-2.73-4.87-5.56-6.85,16.75-5.83,17.07-16.54,17.07-21.99V1.34l8.99.32Z"/>
      <path class="cls-1" d="M525.86,20.87v9.1h-46.5v-9.1h46.5Z"/>
      <path class="cls-1" d="M560.17,1.61c.32.05,1.07.21,1.07.96s-.96.8-1.34.8l-1.23,2.62c1.55-.21,6.64-.91,11.08-2.51v7.92c-7.97,1.39-8.94,1.55-15.25,2.3-.64,1.12-.75,1.34-2.09,3.69,1.93-1.07,4.23-1.07,4.66-1.07,2.73,0,6.15,1.61,7.81,4.55,7.92-3.8,8.83-4.17,10.81-5.3l3.16,8.56c-5.94,1.87-9.04,3-12.2,4.33.11,1.55.16,3.21.16,4.82,0,2.41-.11,3.91-.16,5.35-1.71-.11-3.64-.11-5.35-.11s-2.03,0-3.1.11c.21-1.71.32-2.78.38-6.1-3.32,2.03-6.69,4.28-6.69,6.48,0,2.41,5.46,2.57,8.19,2.57,5.89,0,11.45-.96,17.12-2.62-.7,2.68-1.07,5.94-1.02,8.51-4.87,1.12-9.9,1.55-14.93,1.55-3.59,0-17.5,0-17.5-9.47,0-6.31,8.51-11.61,14.34-14.66-.86-2.35-2.73-2.68-4.01-2.68-5.56,0-9.31,5.99-12.25,10.76l-7.44-4.23c3.53-3.75,8.88-11.13,10.86-14.39-2.89.11-5.24.11-7.54.05l.05-7.76c1.66.16,4.76.43,8.4.43,1.55,0,2.2,0,3.05-.05,1.98-4.12,2.41-5.56,2.84-7.01l8.13,1.61Z"/>
      <path class="cls-1" d="M599.45,48.8c-2.35-2.78-5.73-6.1-10.86-9.2l5.19-5.73c5.57,3.32,9.9,7.28,11.72,8.99l-6.05,5.94Z"/>
      <path class="cls-1" d="M185.06,108.34v-6.9h3.8c.86-5.73.91-8.35.96-10.01l7.28.96c.43.05.91.21.91.7,0,.43-.27.7-1.44.96-.32,2.89-.8,6.69-.91,7.38h6.85c.05,7.01-1.18,15.36-2.62,20.82,1.6,2.03,2.73,3.58,4.23,6.26-1.55.91-3.42,2.46-4.92,4.5-.43-.86-.91-1.66-1.98-3.26-2.19,4.87-4.6,8.24-7.6,11.67-2.35-2.35-5.19-3.42-6.26-3.8,1.77-1.5,6.53-5.4,9.69-13-.16-.16-.96-1.07-2.09-2.19-.11.21-.48,1.28-.7,1.93-.91-.59-2.46-1.66-6.69-2.57,1.93-4.01,3.1-8.72,4.12-13.43h-2.62ZM194.53,108.34c-.59,3.26-.8,4.12-1.55,7.33.54.37,1.18.86,2.25,1.82.59-2.89.91-5.4,1.07-9.15h-1.77ZM223.96,107.05h8.35v7.71h2.14v5.19h-2.14v7.97h-6.37c.32.32,3.75,4.71,9.1,6.96-2.46,1.93-3.42,2.73-4.92,5.14-1.07-.59-3.05-1.55-6.15-4.92v5.57h-6.58v-12.74h-2.25v12.74h-6.58v-6.21c-2.41,2.46-4.23,3.69-7.17,5.73-1.71-2.46-2.46-3.16-4.87-4.49,3.75-1.98,7.01-3.69,10.44-7.76h-2.46v-4.6h4.07v-3.37h-6.05v-5.19h6.05v-3.26h-4.07v-4.44h4.07v-2.35h-5.4v-5.14h5.51c-1.02-1.5-1.61-2.3-4.28-5.57l5.78-3.21c1.82,1.77,4.17,5.03,5.14,7.01-.43.27-1.66,1.18-2.52,1.77h5.46c3.1-4.01,4.28-5.73,5.89-8.62l6.1,4.33c.27.21.54.38.54.75,0,.54-.64.7-1.12.7h-.96c-.96,1.23-1.55,1.98-2.25,2.84h7.22v5.14h-9.69v2.35ZM217.38,104.7h-2.25v2.35h2.25v-2.35ZM215.13,114.76h2.25v-3.26h-2.25v3.26ZM215.13,123.32h2.25v-3.37h-2.25v3.37ZM223.96,114.76h2.35v-3.26h-2.35v3.26ZM223.96,123.32h2.35v-3.37h-2.35v3.37Z"/>
      <path class="cls-1" d="M275,100.9h11.13v13.22h-11.13v2.3h15.63v6.05h-20.82c.37.32,2.78,2.46,4.6,4.66-2.57,1.66-4.39,3.53-5.51,4.76-1.07-1.39-2.78-3.53-6.15-6.64-.16.16-.32.21-.59.32v6.48c0,.91.21,1.34,1.28,1.34h6.74c2.57,0,2.89-.54,3.85-5.3,1.39,1.12,3.69,2.94,6.64,3.42-1.18-1.6-2.3-2.78-3.42-3.96l6.21-4.28c4.44,4.82,6.74,8.94,8.08,11.45-2.35.96-5.14,2.94-6.31,4.33-.96-2.09-1.93-3.96-4.12-7.01-1.28,5.73-2.68,8.51-9.36,8.51h-12.47c-1.18,0-2.84-.54-3.69-1.45-.91-.96-1.18-2.25-1.18-3.69v-7.92c-.21.32-.37.48-1.28.64-1.02,2.68-2.89,7.22-6.21,11.56-2.52-2.3-3.48-3.1-6.42-4.39,2.89-3.53,4.76-6.85,6.21-11.56l5.94,2.09c1.44.54,1.55.64,1.77.96v-3.48l7.76.75c.48.05.96.05.96.54,0,.11-.05.21-.16.38l3.37-2.52h-24.99v-6.05h15.41v-2.3h-11.08v-13.22h11.08v-2.25h-14.5v-5.94h47.25v5.94h-14.5v2.25ZM256.75,106.04h-3.26v2.94h3.26v-2.94ZM267.51,98.65h-3.26v2.25h3.26v-2.25ZM264.25,108.98h3.26v-2.94h-3.26v2.94ZM267.51,114.12h-3.26v2.3h3.26v-2.3ZM275,108.98h3.26v-2.94h-3.26v2.94Z"/>
      <path class="cls-1" d="M326.42,92.61c.86.11,1.34.16,1.34.59,0,.59-.64.8-1.07.91-.11.96-.16,1.61-.27,3.75,15.09-.64,16.75-.7,17.77-.8-.05,1.12-.16,6.42.05,8.62-9.69-.48-13.75-.48-17.66-.43-.11,3.85-.05,4.82.05,5.94,3.1,3.8,3.1,9.53,3.1,10.28,0,7.6-4.98,16.48-12.42,20.66-2.3-2.19-5.24-4.17-7.81-5.51,1.61-.64,7.92-3.32,9.85-7.71-.54.43-1.61,1.29-4.23,1.29-.86,0-3.91,0-5.78-2.41-1.93-2.46-2.3-5.94-2.3-7.92,0-11.77,10.06-11.4,11.18-11.24.05-1.71.05-2.19.05-3-11.18.7-18.19,2.14-21.35,2.78l-.59-9.04c1.23.05,3.26-.05,21.73-1.12-.37-4.5-.37-4.66-.75-6.8l9.1,1.18ZM314.05,119.36c0,3.53,1.77,4.5,2.73,4.5,1.66,0,2.62-2.46,2.62-5.14,0-1.23-.27-3.32-2.41-3.32-1.77,0-2.94,1.77-2.94,3.96Z"/>
      <path class="cls-1" d="M385.28,98.06c-3.64,2.41-11.93,10.7-13.11,11.93.91-.21,3.53-.8,6.42-.8,7.28,0,14.77,4.6,14.77,14.07,0,11.77-11.18,16.91-20.44,16.91-6.9,0-13.59-2.73-13.59-9.2,0-5.3,4.92-8.56,10.49-8.56,5.03,0,10.27,2.84,11.51,7.87,3.53-1.77,3.53-5.89,3.53-6.31,0-1.28-.43-7.81-8.72-7.81-9.04,0-14.18,5.3-21.62,13.06l-6.42-6.26c6.15-4.28,18.09-16.05,21.67-20.82-1.71.38-3.53.8-14.23,1.87l-1.29-8.4c2.09.05,17.55.21,26.76-3.37l4.28,5.83ZM369.17,129.1c-1.82,0-2.25,1.02-2.25,1.93,0,2.03,3,2.84,4.82,2.84,1.23,0,2.14-.27,2.68-.43-.86-3.64-3.75-4.33-5.24-4.33Z"/>
      <path class="cls-1" d="M419.53,132.21c0,4.23-3.42,7.6-7.54,7.6s-7.55-3.37-7.55-7.6,3.37-7.55,7.55-7.55,7.54,3.42,7.54,7.55ZM407.76,132.21c0,2.35,1.87,4.23,4.23,4.23s4.23-1.93,4.23-4.23-1.82-4.23-4.23-4.23-4.23,1.93-4.23,4.23Z"/>
    </g>
  </g>
</svg>