<?xml version="1.0" encoding="UTF-8"?>
<svg id="_レイヤー_2" data-name="レイヤー 2" xmlns="http://www.w3.org/2000/svg" viewBox="0 0 616.85 142.1">
  <defs>
    <style>
      .cls-1 {
        fill: #fff;
        stroke-width: 0px;
      }
    </style>
  </defs>
  <g id="_枠" data-name="枠">
    <g>
      <path class="cls-1" d="M41.37,22.26v5.94h-13.86c-.05.86-.11,1.44-.21,1.87h20.66v6.15h-16c6.42,4.98,12.95,6.05,16.75,6.53-1.98,2.25-2.89,3.91-4.23,7.01-2.57-.48-13.22-3.1-20.44-11.24-3.16,4.5-9.58,9.53-19.59,11.4-.8-2.14-2.78-5.46-4.07-6.85,5.51-.43,12.2-1.98,16.16-6.85H.27v-6.15h19.05c.05-.43.16-.91.27-1.87H6.9v-5.94h13.06v-2.03H6.1v-2.09H0V4.92h19.69V.8l8.51.21c.7,0,1.23.27,1.23.7,0,.32-.43.64-1.23,1.07v2.14h19.85v12.84h-6.26v2.46h-13.86c0,.86-.05,1.5-.05,2.03h13.49ZM19.96,11.02H7.54v3.32h12.42v-3.32ZM27.93,14.34h12.63v-3.32h-11.34c.11.11.16.27.16.37,0,.64-.7.8-1.44.96v1.98Z"/>
      <path class="cls-1" d="M68.42,18.41h4.55v6.37h-4.55v8.56c2.78-.7,4.66-1.18,6.26-1.61-.43,2.46-.53,3.64-.59,6.31-3.26,1.39-13.38,4.23-16.16,4.76,0,.38,0,1.66-.96,1.66-.48,0-.75-.54-.86-.8l-2.3-7.44c1.34-.11,3-.32,6.9-1.12v-10.33h-4.98v-6.37h4.98v-8.51h-5.4V3.32h18.78v6.58h-5.67v8.51ZM76.23,31.63V1.77h24.83v29.86h-5.89v8.72c0,1.28.48,1.55,1.87,1.55s2.41,0,3.26-5.35c2.14,1.93,3.59,2.78,6.31,3.53-.59,2.94-1.61,5.14-1.93,5.78-1.28,2.78-2.78,2.94-6.85,2.94-6.85,0-9.74,0-9.74-6.1v-8.4c-.11.59-.75.7-1.5.7-2.03,4.55-5.67,12.58-16.7,15.04-.7-2.68-2.03-4.5-4.23-6.37,4.23-.64,13.16-2.03,14.29-12.04h-3.75ZM87.31,33.39c.32.11.7.21.8.7v-2.46h-6.8l5.99,1.77ZM93.52,10.38v-2.41h-9.69v2.41h9.69ZM83.83,15.68v2.41h9.69v-2.41h-9.69ZM83.83,22.96v2.41h9.69v-2.41h-9.69Z"/>
      <path class="cls-1" d="M125.7,2.84c.8.11,1.23.16,1.23.75,0,.48-.37.64-1.02.91-1.28,6.31-1.71,14.77-1.71,21.24,0,12.15,1.18,14.39,5.3,14.39,9.15,0,17.23-12.36,18.68-15.36,1.34,1.77,3.69,4.71,6.21,7.01-6.1,9.9-15.2,17.34-26.01,17.34-11.88,0-12.84-10.06-12.84-23.44,0-3.1.54-16.64.54-19.37,0-1.55,0-3.37-.11-4.92l9.74,1.44Z"/>
      <path class="cls-1" d="M161.71,9.26c1.61.21,3.1.43,5.94.43,1.55,0,3.16-.11,5.46-.27,1.23-4.6,1.61-6.85,1.98-9.1l8.4,2.62c.75.21,1.02.43,1.02.86,0,.64-.86.64-1.12.64-.16.37-.86,2.84-1.07,3.53,2.62-.64,4.23-1.18,5.78-1.77-.16,2.19-.05,5.83.16,7.97-3.8,1.07-6.8,1.61-8.56,1.87-.75,2.19-2.57,7.12-5.46,13.7-2.84,6.42-4.82,9.63-6.26,11.77-2.52-1.29-5.4-2.52-8.03-3.21,3.69-5.24,7.92-13.16,10.81-21.14-1.23.11-6.37.27-8.03.27l-1.02-8.19ZM196.33,23.87c-1.28,1.82-1.93,3-1.93,5.24,0,1.77.37,4.28.54,5.24,3.21,1.34,8.56,4.28,11.34,6.53-1.82,1.87-4.23,5.35-4.92,6.42-4.07-3.21-4.55-3.53-6.15-4.5-1.02,5.03-4.55,6.53-10.7,6.53-8.51,0-12.74-3.8-12.74-8.83,0-1.02.21-8.46,11.02-8.46,1.5,0,2.57.11,3.53.16-.05-.37-.27-4.23-.27-4.65,0-3.48,2.57-6.64,3.75-7.44l6.53,3.75ZM183.06,38.42c-1.5,0-3.42.75-3.42,2.19,0,1.28,1.55,1.98,3.8,1.98,3.64,0,3.85-1.77,4.01-3.1-1.28-.64-2.94-1.07-4.39-1.07ZM193.44,9.9c8.51,2.78,11.67,5.03,14.07,6.96-1.82,2.19-3.96,5.4-4.87,6.9-3.16-2.73-8.51-5.51-13.43-6.9l4.23-6.96Z"/>
      <path class="cls-1" d="M225.95,5.99c.48.16,1.07.32,1.07.8,0,.7-.64.8-1.12.86-1.12,3.26-3,8.88-3,16.11,0,6.53,2.03,11.08,3.58,11.08,1.71,0,3.75-4.71,5.19-8.08,1.98,2.73,4.01,4.55,5.62,5.67-4.28,10.38-9.15,14.02-11.77,14.02-3,0-10.92-6.37-10.92-22.9,0-6.85,1.18-13.11,2.62-20.01l8.72,2.46ZM251.8,6.37c5.89,7.92,9.9,17.02,10.81,26.92-3.16,1.23-6.96,3.05-8.72,3.96-.64-11.35-3.96-19.16-8.99-26.49l6.9-4.39Z"/>
      <path class="cls-1" d="M283.88,49.77h-7.22v-14.88c-1.23,3.16-1.66,3.96-2.19,5.08-1.87-1.77-4.66-3.53-6.9-4.6,3.85-5.24,6.37-11.34,8.08-17.61h-6.37v-7.01h7.38V.75l7.12.43c.8.05,1.55.11,1.55.8,0,.64-.59.86-1.44,1.07v7.71h6.42v7.01h-6.42v.11c2.19,5.41,4.66,8.35,7.12,10.86-2.35,2.09-3,2.67-5.08,5.41-.64-.86-1.02-1.5-2.03-3.43v19.05ZM310.75,2.09v37.14c0,.64,0,2.14,1.44,2.14,1.07,0,1.23-1.12,1.34-1.61.11-.54.21-3,.32-3.48,2.3,2.19,5.24,2.94,6.26,3.16-.16,4.39-1.07,9.47-6.26,9.47h-5.46c-1.82,0-5.3-.05-5.3-5.94V8.94h-3.8v17.45c0,4.33-.11,14.55-7.22,23.01-2.25-1.5-4.5-2.78-7.17-3.69,6.58-6.37,6.96-14.34,6.96-19.37V2.09h18.89Z"/>
      <path class="cls-1" d="M371.62,17.23v7.97h-18.94v15.3h21.94v7.81h-48.91v-7.81h18.35V.96l9.21.64c.59.05.75.27.75.59,0,.48-.37.64-1.34.96v14.07h18.94Z"/>
      <path class="cls-1" d="M404.22,40.56c11.61-2.14,15.04-11.13,15.04-16.7,0-4.33-2.3-12.31-12.36-13.11-1.66,19.59-9.74,34.19-15.41,34.19-4.17,0-11.93-7.06-11.93-16.96,0-11.51,10.49-24.94,26.22-24.94,11.72,0,21.94,7.97,21.94,20.76,0,2.46-.21,9.31-6.31,16.54-3.26,3.8-7.06,5.78-11.61,7.76-1.77-3.1-2.94-4.71-5.56-7.55ZM387.47,27.34c0,4.12,2.3,7.22,3.43,7.22,1.28,0,2.3-2.41,2.89-3.8,2.3-5.3,4.07-11.45,4.12-18.41-6.21,2.3-10.44,10.17-10.44,14.98Z"/>
      <path class="cls-1" d="M483.05,5.46v12.31h-7.01c.91.75,2.94,2.25,6.31,2.94-.54,2.51-1.5,7.01-7.49,7.01h-10.28c-.64,0-5.03-.48-5.03-5.08v-10.22h-11.08l7.76,2.89c.32.11.64.32.64.7,0,.91-1.34,1.02-1.82,1.02-.7,1.5-3.8,7.71-10.06,12.25h31.25v6.85h-13.48v5.41h20.28v6.96h-48.8v-6.96h20.23v-5.41h-13v-4.71c-.59.32-.96.48-1.87.91-2.14-3.96-3.75-4.98-5.35-5.78,5.99-2.41,11.88-6.1,13.97-14.13h-6.21v5.35h-7.76V5.46h20.28V.37l8.88.21c.43,0,.8.27.8.64,0,.54-.7.8-1.39,1.02v3.21h20.23ZM467.05,12.42v6.58c0,1.02.48,1.71,1.61,1.71h4.12c1.61,0,2.25-1.45,2.68-3.21v-5.08h-8.4Z"/>
      <path class="cls-1" d="M532.56,19.42h-17.18v-2.62c-1.34,1.23-2.41,2.09-3.37,2.84-1.07-1.61-2.3-3.16-4.6-4.55h-18.41v-5.57h19.8v3.48c6.85-5.14,10.38-11.4,11.13-12.95l8.08,1.98c.21.05.54.21.54.53s-.16.7-.8,1.07c4.17,5.73,9.85,8.99,13.38,10.49-3.64,2.57-4.55,4.28-5.08,5.51-.96-.64-1.82-1.23-3.48-2.46v2.25ZM507.3,31.79v17.29h-6.42v-.96h-3.05v1.71h-7.01v-18.03h16.48ZM506.92,2.03v5.99h-15.36V2.03h15.36ZM506.92,16.91v5.78h-15.36v-5.78h15.36ZM506.92,24.51v5.4h-15.36v-5.4h15.36ZM497.83,37.78v3.91h3.05v-3.91h-3.05ZM522.33,37.62v10.76h-4.6v-10.76h-2.14v12.2h-6.37v-28.36h28.42v22.69c0,4.55-.54,5.57-6.96,5.83-.54-3.27-1.39-5.14-1.61-5.57v3.96h-4.6v-10.76h-2.14ZM517.73,31.25v-3.75h-2.14v3.75h2.14ZM528.06,13.54c-2.62-2.46-4.17-4.76-4.6-5.4-2.09,2.68-3.1,3.8-4.66,5.4h9.26ZM524.48,31.25v-3.75h-2.14v3.75h2.14ZM531.22,31.25v-3.75h-2.14v3.75h2.14ZM529.08,37.62v5.46c.27.05,1.18.11,1.39.11.75,0,.75-.54.75-1.71v-3.85h-2.14Z"/>
      <path class="cls-1" d="M571.53,1.61c.32.05,1.07.21,1.07.96s-.96.8-1.34.8l-1.23,2.62c1.55-.21,6.64-.91,11.08-2.51v7.92c-7.97,1.39-8.94,1.55-15.25,2.3-.64,1.12-.75,1.34-2.09,3.69,1.93-1.07,4.23-1.07,4.66-1.07,2.73,0,6.15,1.61,7.81,4.55,7.92-3.8,8.83-4.17,10.81-5.3l3.16,8.56c-5.94,1.87-9.04,3-12.2,4.33.11,1.55.16,3.21.16,4.82,0,2.41-.11,3.91-.16,5.35-1.71-.11-3.64-.11-5.35-.11s-2.03,0-3.1.11c.21-1.71.32-2.78.38-6.1-3.32,2.03-6.69,4.28-6.69,6.47,0,2.41,5.46,2.57,8.19,2.57,5.89,0,11.45-.96,17.12-2.62-.7,2.68-1.07,5.94-1.02,8.51-4.87,1.12-9.9,1.55-14.93,1.55-3.59,0-17.5,0-17.5-9.47,0-6.31,8.51-11.61,14.34-14.66-.86-2.36-2.73-2.68-4.01-2.68-5.56,0-9.31,5.99-12.25,10.76l-7.44-4.23c3.53-3.75,8.88-11.13,10.86-14.4-2.89.11-5.24.11-7.54.05l.05-7.76c1.66.16,4.76.43,8.4.43,1.55,0,2.2,0,3.05-.05,1.98-4.12,2.41-5.57,2.84-7.01l8.13,1.61Z"/>
      <path class="cls-1" d="M610.8,48.8c-2.35-2.78-5.73-6.1-10.86-9.21l5.19-5.72c5.57,3.32,9.9,7.28,11.72,8.99l-6.05,5.94Z"/>
      <path class="cls-1" d="M219.3,102.5c.27,0,1.28.11,1.28.86,0,.48-.7.8-1.34,1.07v13.65h-8.03v-10.01c-3.53,3-10.38,8.03-16.32,10.97-1.39-2.41-2.94-4.39-6.21-6.42,11.88-3.91,18.41-10.27,20.98-12.79h-19.1v-6.96h49.29v6.96h-19.96c-.43.54-1.55,1.66-2.35,2.52l1.77.16ZM204.53,138.73v1.87h-8.03v-21.08h37.89v21.08h-8.45v-1.87h-21.41ZM225.94,131.67v-5.72h-21.41v5.72h21.41ZM225.67,100.79c5.35,2.94,10.49,6.96,15.2,11.34-2.62,2.14-3.8,3.64-5.35,6.1-3.64-4.23-10.97-9.85-15.57-12.52l5.73-4.92Z"/>
      <path class="cls-1" d="M274.93,117.76h14.07v7.01h-14.07v7.97c1.34.05,2.89.11,4.98.11,5.03,0,5.89-.05,16.48-.91-1.87,4.44-1.98,6.48-1.93,8.35h-20.92c-9.79,0-14.23-5.35-15.79-7.49-1.98,4.49-4.12,7.22-5.03,8.45-2.78-2.03-3.37-2.25-7.65-3.32,1.98-2.3,7.92-9.15,9.1-22.15l8.24,1.45c.48.11,1.07.21,1.07.86,0,.54-.32.64-1.5,1.07-.27,1.34-.54,2.68-1.23,5.24.96,2.3,2.19,5.19,5.99,6.96v-18.52h-13.86v-4.07h-6.69v-12.42h20.28v-5.03l8.19.54c.75.05,1.44.11,1.44.64,0,.43-.27.64-1.44,1.18v2.67h20.55v12.2h-6.21v4.28h-14.07v4.92ZM287.29,105.93v-3.1h-33.34v3.1h33.34Z"/>
      <path class="cls-1" d="M331.67,92.61c.86.11,1.34.16,1.34.59,0,.59-.64.8-1.07.91-.11.96-.16,1.61-.27,3.75,15.09-.64,16.75-.7,17.77-.8-.05,1.12-.16,6.42.05,8.62-9.69-.48-13.75-.48-17.66-.43-.11,3.85-.05,4.82.05,5.94,3.1,3.8,3.1,9.52,3.1,10.27,0,7.6-4.98,16.48-12.42,20.66-2.3-2.19-5.24-4.17-7.81-5.51,1.61-.64,7.92-3.32,9.85-7.71-.54.43-1.61,1.28-4.23,1.28-.86,0-3.91,0-5.78-2.41-1.93-2.46-2.3-5.94-2.3-7.92,0-11.77,10.06-11.4,11.18-11.24.05-1.71.05-2.19.05-3-11.18.7-18.19,2.14-21.35,2.78l-.59-9.04c1.23.05,3.26-.05,21.73-1.12-.37-4.49-.37-4.66-.75-6.79l9.1,1.18ZM319.31,119.36c0,3.53,1.77,4.49,2.73,4.49,1.66,0,2.62-2.46,2.62-5.14,0-1.23-.27-3.32-2.41-3.32-1.77,0-2.94,1.77-2.94,3.96Z"/>
      <path class="cls-1" d="M390.54,98.06c-3.64,2.41-11.93,10.7-13.11,11.93.91-.21,3.53-.8,6.42-.8,7.28,0,14.77,4.6,14.77,14.07,0,11.77-11.18,16.91-20.44,16.91-6.9,0-13.59-2.73-13.59-9.21,0-5.3,4.92-8.56,10.49-8.56,5.03,0,10.27,2.84,11.51,7.87,3.53-1.77,3.53-5.89,3.53-6.31,0-1.29-.43-7.81-8.72-7.81-9.04,0-14.18,5.3-21.62,13.06l-6.42-6.26c6.15-4.28,18.09-16.05,21.67-20.82-1.71.38-3.53.8-14.23,1.87l-1.29-8.4c2.09.05,17.55.21,26.76-3.37l4.28,5.83ZM374.43,129.1c-1.82,0-2.25,1.02-2.25,1.93,0,2.03,3,2.84,4.82,2.84,1.23,0,2.14-.27,2.68-.43-.86-3.64-3.75-4.33-5.24-4.33Z"/>
      <path class="cls-1" d="M424.79,132.2c0,4.23-3.42,7.6-7.54,7.6s-7.55-3.37-7.55-7.6,3.37-7.54,7.55-7.54,7.54,3.42,7.54,7.54ZM413.01,132.2c0,2.36,1.87,4.23,4.23,4.23s4.23-1.93,4.23-4.23-1.82-4.23-4.23-4.23-4.23,1.93-4.23,4.23Z"/>
    </g>
  </g>
</svg>