<?xml version="1.0" encoding="UTF-8"?><svg id="_レイヤー_2" xmlns="http://www.w3.org/2000/svg" viewBox="0 0 662.23743 843.45774"><defs><style>.cls-1{fill:#3c3c3c;}.cls-2{fill:#005a96;}.cls-3,.cls-4,.cls-5,.cls-6,.cls-7,.cls-8,.cls-9{stroke-miterlimit:10;}.cls-3,.cls-4,.cls-5,.cls-6,.cls-8,.cls-9{fill:none;}.cls-3,.cls-5,.cls-6{stroke:#3c3c3c;stroke-width:1.5px;}.cls-10{fill:#eceff0;}.cls-11{fill:#94a5ac;}.cls-12{fill:#c5ced1;}.cls-4,.cls-7{stroke-width:1.00006px;}.cls-4,.cls-7,.cls-8{stroke:#000;}.cls-13{fill:#b4c0c4;}.cls-5{stroke-dasharray:4.88266 4.88266;}.cls-6{stroke-dasharray:4.96298 4.96298;}.cls-14{fill:#9ec0d7;}.cls-15,.cls-7{fill:#fff;}.cls-8,.cls-9{stroke-width:2px;}.cls-9{stroke:#94a5ac;stroke-dasharray:2.07519 2.07519;}</style></defs><g id="_メニュー"><path class="cls-1" d="M252.93811,1.99182v184.26685H1.9917V1.99182h250.94641M254.92987,0H0v188.25037h254.92987V0h0Z"/><line class="cls-8" x1="109.51459" y1="45.85999" x2="202.19495" y2="373.70911"/><polygon points="193.53998 370.31848 201.52289 371.33167 207.79388 366.28918 205.44287 385.19836 193.53998 370.31848"/><line class="cls-8" x1="552.14163" y1="94.02844" x2="458.45612" y2="423.19373"/><polygon points="543.48059 97.40369 551.46527 96.40491 557.72733 101.45862 555.40997 82.54504 543.48059 97.40369"/><rect class="cls-10" x="12.23743" y="11.97175" width="193.68414" height="67.95036" rx="6.22557" ry="6.22557"/><rect class="cls-12" x="35.2562" y="109.87366" width="193.68414" height="67.95036" rx="6.22557" ry="6.22557"/><rect class="cls-13" x="65.41181" y="200.63873" width="193.68414" height="67.95036" rx="6.22557" ry="6.22557"/><rect class="cls-14" x="91.999" y="294.97222" width="193.68414" height="67.95036" rx="6.22557" ry="6.22557"/><rect class="cls-10" x="468.55329" y="11.97175" width="193.68414" height="67.95036" rx="6.22557" ry="6.22557" transform="translate(1130.79072 91.89387) rotate(180)"/><rect class="cls-12" x="438.39768" y="109.87366" width="193.68414" height="67.95036" rx="6.22557" ry="6.22557" transform="translate(1070.4795 287.69768) rotate(180)"/><rect class="cls-13" x="415.37891" y="200.63873" width="193.68414" height="67.95036" rx="6.22557" ry="6.22557" transform="translate(1024.44195 469.22782) rotate(180)"/><rect class="cls-14" x="388.79172" y="294.97222" width="193.68414" height="67.95036" rx="6.22557" ry="6.22557" transform="translate(971.26757 657.8948) rotate(180)"/><rect class="cls-2" x="118.58619" y="389.30571" width="183.68351" height="67.95036" rx="6.22557" ry="6.22557"/><rect class="cls-2" x="372.20516" y="389.30571" width="183.68351" height="67.95036" rx="6.22557" ry="6.22557" transform="translate(928.09382 846.56178) rotate(180)"/><line class="cls-9" x1="448.52911" y1="45.85999" x2="225.94574" y2="45.85999"/><polygon class="cls-11" points="442.91193 38.45374 446.05841 45.85999 442.91193 53.26624 460.46857 45.85999 442.91193 38.45374"/><polygon class="cls-11" points="231.56293 38.45374 228.41644 45.85999 231.56293 53.26624 214.00629 45.85999 231.56293 38.45374"/><line class="cls-9" x1="421.0152" y1="141.50354" x2="253.45966" y2="141.50354"/><polygon class="cls-11" points="415.39801 134.09729 418.54449 141.50354 415.39801 148.90979 432.95465 141.50354 415.39801 134.09729"/><polygon class="cls-11" points="259.07684 134.09729 255.93036 141.50354 259.07684 148.90979 241.5202 141.50354 259.07684 134.09729"/><line class="cls-9" x1="394.81146" y1="237.14734" x2="279.66339" y2="237.14734"/><polygon class="cls-11" points="389.19427 229.74109 392.34076 237.14734 389.19427 244.55359 406.75092 237.14734 389.19427 229.74109"/><polygon class="cls-11" points="285.28058 229.74109 282.13409 237.14734 285.28058 244.55359 267.72394 237.14734 285.28058 229.74109"/><line class="cls-9" x1="369.26276" y1="332.79089" x2="305.2121" y2="332.79089"/><polygon class="cls-11" points="363.64563 325.38464 366.79205 332.79089 363.64563 340.19714 381.20227 332.79089 363.64563 325.38464"/><polygon class="cls-11" points="310.82922 325.38464 307.6828 332.79089 310.82922 340.19714 293.27258 332.79089 310.82922 325.38464"/><line class="cls-9" x1="351.09436" y1="424.50403" x2="323.38049" y2="424.50403"/><polygon class="cls-11" points="345.47723 417.09778 348.62366 424.50403 345.47723 431.91028 363.03387 424.50403 345.47723 417.09778"/><polygon class="cls-11" points="328.99762 417.09778 325.8512 424.50403 328.99762 431.91028 311.44098 424.50403 328.99762 417.09778"/><path d="M80.38464,48.09827c-.67212,1.41602-1.56006,2.56836-2.66431,3.50391,2.52026.67285,4.80054,1.39258,6.52881,2.04004l-1.32031,1.82422c-1.94409-.79199-4.51221-1.65527-7.4165-2.44824-2.68823,1.34473-6.26465,2.0166-10.94507,2.37695-.14404-.64844-.47998-1.46484-.84009-1.94434,3.50439-.16797,6.33667-.52832,8.59277-1.24805-1.12793-.28809-2.28027-.52832-3.4563-.79199l-.38403.52734-2.13623-.69531c.67212-.86426,1.48828-1.96875,2.3042-3.14453h-5.30444v-1.82422h6.55273c.43188-.64844.86401-1.2959,1.22412-1.89648h-6.12061v-6.38379h5.23242v-1.72852h-6.38452v-1.96777h20.56982v1.96777h-6.60059v1.72852h5.7124v6.38379h-10.27295l.36011.09668c-.36011.5752-.74414,1.17578-1.1521,1.7998h12.55322v1.82422h-4.63257ZM67.08752,42.57776h3.14429v-2.78418h-3.14429v2.78418ZM71.23987,48.09827c-.40796.57617-.81592,1.15234-1.2002,1.7041,1.70435.33594,3.43237.71973,5.08862,1.12793,1.17603-.74414,2.06421-1.65625,2.76025-2.83203h-6.64868ZM72.36804,37.99377h3.33618v-1.72852h-3.33618v1.72852ZM75.70422,42.57776v-2.78418h-3.33618v2.78418h3.33618ZM77.81653,39.79358v2.78418h3.50415v-2.78418h-3.50415Z"/><path d="M95.76794,48.72229c-2.47217,1.56055-5.23242,3.19238-7.32056,4.39258l-1.39209-2.0166c2.04004-1.00781,5.1123-2.73633,7.99268-4.39258l.71997,2.0166ZM107.76892,41.47327c-1.48804,1.68066-3.38428,3.55273-4.92041,4.87305,1.77612,2.32812,3.96045,4.22363,6.50464,5.35254-.50415.47949-1.24805,1.34375-1.60815,1.99219-3.67236-1.84863-6.48047-5.20898-8.49683-9.28906v8.1123c0,1.41602-.33594,2.08887-1.19995,2.47266-.86426.36035-2.35229.43164-4.44043.43164-.12012-.64746-.47998-1.67969-.79199-2.35156,1.53613.04785,3.07227.04785,3.55225.02344.43188,0,.6001-.14355.6001-.57617v-13.17676h-9.19287v-2.16016h9.19287v-3.76855h2.28003v3.76855h5.88062c-1.00806-.76855-2.64038-1.72852-3.93628-2.40039l1.34399-1.41602c1.44019.69629,3.40845,1.7998,4.4165,2.5918l-1.10425,1.22461h2.80835v2.16016h-9.40894v.26367c.62402,1.77637,1.44019,3.50488,2.44824,5.08887,1.44019-1.34473,3.09619-3.14453,4.10449-4.6084l1.96802,1.3916ZM92.62366,46.05823c-.69604-1.24805-2.3042-3.09668-3.72021-4.39258l1.68018-1.17578c1.41602,1.22363,3.12012,3,3.84033,4.22363l-1.80029,1.34473Z"/><path d="M126.41663,33.72131c1.53613,3.12012,4.5603,6.64844,7.15259,8.56836-.57617.48047-1.44019,1.36816-1.87231,1.99219-.64795-.55176-1.34399-1.22363-2.01611-1.96777,0,.21582,0,.71973-.02393.93555-.31201,7.27246-.64819,10.05664-1.46411,10.99316-.552.69629-1.10425.86426-1.96826.98438-.81616.0957-2.28027.07129-3.72021,0-.02417-.67285-.33618-1.6084-.74414-2.25684,1.46411.14453,2.83228.16797,3.38428.16797.47998,0,.76807-.07129,1.03198-.33594.55225-.57617.86426-2.83203,1.10425-8.40039h-5.54443c-.6001,4.65625-2.13623,8.85645-8.30493,11.11328-.23999-.57617-.91187-1.53613-1.41602-1.99219,5.52051-1.82422,6.79248-5.3291,7.29663-9.12109h-4.48828v-1.84863c-.69604.7207-1.44019,1.36816-2.18433,1.94434-.40796-.47949-1.36816-1.36816-1.896-1.77637,2.97607-2.01562,5.61646-5.30371,7.10449-8.95215l2.37622.69629c-1.24805,2.9043-3.04834,5.5918-5.08838,7.75195h14.44922c-1.99219-2.18359-3.96045-4.96777-5.32861-7.63281l2.1604-.86328Z"/><path d="M143.04797,48.14612c-.38403-.76758-1.2002-2.06445-1.94434-3.16797v10.39258h-2.13623v-10.48926c-.81592,2.44824-1.87207,4.72852-2.97607,6.2168-.23999-.64746-.76807-1.53613-1.10425-2.04004,1.53613-1.96777,3.04834-5.49609,3.79248-8.56836h-3.21631v-2.1123h3.50415v-5.0166h2.13623v5.0166h3.09644v2.1123h-3.09644v1.84766c.81616.91211,2.80835,3.38477,3.2644,4.05664l-1.32007,1.75195ZM157.2572,43.53772h-3.36035v11.83301h-2.20825v-11.83301h-3.79224c-.12012,3.64844-.79224,8.40039-3.40845,11.78516-.31201-.48047-1.17603-1.22461-1.7041-1.46387,2.68823-3.52832,2.92822-8.30469,2.92822-11.88184v-6.81641l1.84814.52832c2.56836-.55176,5.2085-1.2959,6.84058-2.06445l1.89624,1.72852c-2.32812.95996-5.47241,1.75195-8.37671,2.28027v3.79199h9.33691v2.1123Z"/><path d="M102.3158,145.05237c-.67212,1.41602-1.56006,2.56836-2.66431,3.50391,2.52026.67285,4.80054,1.39258,6.52881,2.04004l-1.32031,1.82422c-1.94409-.79199-4.51221-1.65527-7.4165-2.44824-2.68823,1.34473-6.26465,2.0166-10.94507,2.37695-.14404-.64844-.47998-1.46484-.84009-1.94434,3.50439-.16797,6.33667-.52832,8.59277-1.24805-1.12793-.28809-2.28027-.52832-3.4563-.79199l-.38403.52734-2.13623-.69531c.67212-.86426,1.48828-1.96875,2.3042-3.14453h-5.30444v-1.82422h6.55273c.43188-.64844.86401-1.2959,1.22412-1.89648h-6.12061v-6.38379h5.23242v-1.72852h-6.38452v-1.96875h20.56982v1.96875h-6.60059v1.72852h5.7124v6.38379h-10.27295l.36011.09668c-.36011.57617-.74414,1.17578-1.1521,1.7998h12.55322v1.82422h-4.63257ZM89.01868,139.53186h3.14429v-2.78418h-3.14429v2.78418ZM93.17102,145.05237c-.40796.57617-.81592,1.15234-1.2002,1.7041,1.70435.33594,3.43237.71973,5.08862,1.12793,1.17603-.74414,2.06421-1.65625,2.76025-2.83203h-6.64868ZM94.29919,134.94788h3.33618v-1.72852h-3.33618v1.72852ZM97.63538,139.53186v-2.78418h-3.33618v2.78418h3.33618ZM99.74768,136.74768v2.78418h3.50415v-2.78418h-3.50415Z"/><path d="M116.42688,131.03479c-.62402,1.75293-1.43994,3.50488-2.35205,5.18457v16.08203h-2.1123v-12.72168c-.6001.83984-1.24805,1.65625-1.87207,2.32812-.21606-.52832-.84009-1.72754-1.22412-2.25586,2.18408-2.25684,4.22437-5.73633,5.47241-9.24121l2.08813.62402ZM130.99622,144.18811h-6.3606v8.13672h-2.23218v-8.13672h-6.64844v-2.18359h6.64844v-4.75293h-3.4082c-.47998,1.2959-1.00806,2.47266-1.60815,3.38477-.43213-.3125-1.39209-.84082-1.92017-1.08008,1.34399-1.9209,2.32812-4.99316,2.8562-7.99316l2.16016.43164c-.21606,1.03223-.47998,2.06445-.76807,3.07227h2.68823v-4.46387h2.23218v4.46387h5.28052v2.18457h-5.28052v4.75293h6.3606v2.18359Z"/><path d="M145.22742,149.61292c1.05615.14355,2.18408.21582,3.38428.21582,1.03198,0,5.06445,0,6.43262-.04785-.36011.52832-.74414,1.6084-.84009,2.25586h-5.71265c-4.70435,0-8.16064-.79199-10.34473-4.56055-.79224,2.04004-1.89624,3.7207-3.38428,4.99316-.36011-.4082-1.29614-1.17676-1.84814-1.53613,2.64014-1.96875,3.86426-5.3291,4.36841-9.5293l2.3042.21582c-.14404,1.10449-.33618,2.16016-.57617,3.14453.84009,2.23242,2.18408,3.50391,3.91235,4.22461v-9.31348h-5.54443v-2.13574h13.51318v2.13574h-5.66455v3.52832h6.8645v2.08887h-6.8645v4.32031ZM136.27454,138.42737h-2.18408v-5.52051h8.78467v-2.56738h2.37622v2.56738h8.88086v5.52051h-2.28027v-3.4082h-15.57739v3.4082Z"/><path d="M177.07605,146.32483c-.79199,1.05566-1.84814,1.96777-3.04834,2.78418.79224.76758,1.65625,1.2002,2.54443,1.17578.62402,0,.79199-.50391.91187-2.04004.43213.35938,1.12817.71973,1.68018.86426-.33594,2.5918-1.03198,3.21582-2.71216,3.21582-1.63208,0-3.09619-.76758-4.27246-2.08789-1.60815.83984-3.38428,1.53613-5.1123,2.06445-.21606-.43262-.76807-1.36816-1.1521-1.77637,1.77612-.4082,3.57617-1.00879,5.1604-1.80078-.552-.91211-1.00806-1.99219-1.36816-3.16797h-5.1604v1.2959c1.29614-.0957,2.64014-.19141,3.96045-.28809v1.56055c-1.32031.12012-2.66431.24023-3.96045.33594v1.7998c0,1.08008-.23999,1.56055-1.03198,1.80078-.76807.26367-1.94434.28809-3.74438.28809-.12012-.52832-.4082-1.24805-.64819-1.75293,1.2002.07227,2.47241.07227,2.78442.04883.38403,0,.47998-.09668.47998-.43262v-1.55957l-4.80054.38379-.19189-1.72852c1.36816-.07129,3.09619-.16797,4.99243-.31152v-1.44043h-4.89648v-1.7041h4.89648v-1.34375c-1.39209.14355-2.78418.23926-4.08032.28809-.07202-.38477-.26416-1.00879-.48022-1.39258,3.16846-.16797,6.9126-.57617,9.0249-1.10449l1.32007,1.34473c-1.05615.26367-2.3042.45605-3.62427.64746v1.56055h4.72852c-.21606-1.03223-.36011-2.16016-.43213-3.3125h2.16016c.0481,1.17676.19214,2.28027.43213,3.3125h4.80029c-.81592-.69629-2.49609-1.63184-3.86426-2.20801l1.24805-1.2959c1.36816.50391,3.07227,1.36816,3.93628,2.11133l-1.27197,1.39258h2.52026v1.7041h-6.86475c.26416.79199.6001,1.51172.98413,2.13672.91211-.60059,1.68018-1.27246,2.2561-2.0166l1.89624.64844ZM178.70813,140.20374h-21.19385v-1.75195h9.40894v-1.22461h-7.08057v-1.60742h7.08057v-1.22461h-8.35278v-1.67969h4.6084c-.28809-.57617-.71997-1.22461-1.1521-1.75195l1.94409-.64844c.67212.67188,1.29614,1.67969,1.58423,2.35254l-.11987.04785h5.32837c.43213-.7207.98413-1.75195,1.27222-2.44824l2.42407.52832c-.47998.69531-.93604,1.36719-1.36816,1.91992h4.58447v1.67969h-8.47266v1.22461h7.20044v1.60742h-7.20044v1.22461h9.50464v1.75195Z"/><path d="M132.37488,235.53967c1.34399,1.3916,3.24023,2.61621,5.08838,3.26465-.47998.40723-1.12793,1.19922-1.46411,1.72754-2.3042-1.00781-4.58447-2.9043-6.04858-4.99219h-7.15259c-.57593.83984-1.32007,1.67969-2.11206,2.42383h4.39233v-1.7998h2.2561v1.7998h4.75244v1.77637h-4.75244v2.13672h8.0647v1.84766h-18.07349v-1.84766h7.75269v-2.13672h-4.58447v-1.58398c-1.19995,1.08008-2.59204,1.99219-3.96021,2.64062-.31201-.52832-.96021-1.32031-1.44019-1.70508,1.89624-.71973,3.81641-2.06348,5.18433-3.55176h-4.94434v-1.84863h4.65649v-7.41602h-3.48047v-1.82422h3.48047v-2.08789h2.23218v2.08789h8.16064v-2.06445h2.28027v2.06445h3.43213v1.82422h-3.43213v7.41602h4.51221v1.84863h-4.80029ZM122.22205,226.27502v1.34375h8.16064v-1.34375h-8.16064ZM122.22205,230.61877h8.16064v-1.36816h-8.16064v1.36816ZM122.22205,233.69104h8.16064v-1.43945h-8.16064v1.43945Z"/><path d="M152.77454,229.44299c1.94409,3.86426,5.2085,7.41699,8.80884,9.24121-.52808.45605-1.32007,1.36816-1.68018,1.96777-3.43237-1.94434-6.38452-5.32812-8.49683-9.2168v6.4082h4.29639v2.25684h-4.29639v4.24805h-2.35205v-4.24805h-4.39258v-2.25684h4.39258v-6.38379c-2.1123,3.8877-5.08862,7.24805-8.44873,9.26465-.36011-.55176-1.10425-1.39258-1.58423-1.84863,3.48022-1.84766,6.7207-5.52051,8.68872-9.43262h-7.84863v-2.25586h9.19287v-4.84863h2.35205v4.84863h9.28882v2.25586h-7.92065Z"/><path d="M172.3822,228.07483h-9.16895v-1.77637h9.16895v1.77637ZM171.51819,243.05237h-5.30444v1.00781h-1.92017v-8.06445h7.22461v7.05664ZM171.54211,230.93127c2.18408-1.46387,2.52026-3.36035,2.52026-5.0166v-2.85645h7.70459v5.64062c0,.55176.0481.64844.38403.64844h.93604c.36011,0,.45605-.3125.50415-2.52051.43188.36035,1.27197.69629,1.82422.81641-.14404,2.85645-.69629,3.59961-2.08838,3.59961h-1.53613c-1.65601,0-2.16016-.55176-2.16016-2.51953v-3.67285h-3.4563v.88867c0,2.16016-.50391,4.77637-3.02417,6.45605-.31201-.38379-1.12817-1.12793-1.60815-1.41602v.3125h-7.20068v-1.72852h7.20068v1.36816ZM164.34143,232.75549h7.20068v1.75195h-7.20068v-1.75195ZM171.47009,224.88245h-7.03271v-1.75195h7.03271v1.75195ZM166.21375,237.79553v3.45703h3.36011v-3.45703h-3.36011ZM184.09509,233.06702c-.79199,2.92871-2.13599,5.23242-3.88818,7.00879,1.51196,1.05664,3.26416,1.84863,5.25635,2.35254-.47998.43164-1.12793,1.34375-1.44019,1.91992-2.08813-.62402-3.93628-1.55957-5.49634-2.80859-1.7041,1.27246-3.64844,2.18457-5.78442,2.80859-.21606-.55176-.76807-1.48828-1.2002-1.96777,1.94409-.48047,3.74438-1.27246,5.32837-2.35254-1.27197-1.36816-2.32812-2.95215-3.12012-4.75195l1.99219-.62402c.64795,1.4873,1.58398,2.85547,2.76025,4.00781,1.17603-1.12793,2.11206-2.47168,2.76025-4.03223h-8.59277v-2.04004h9.57666l.4082-.07227,1.43994.55176Z"/><path d="M196.79016,228.07483h-9.5769v-1.77637h9.5769v1.77637ZM195.80603,243.05237h-5.54443v1.00781h-1.96802v-8.06445h7.51245v7.05664ZM188.34143,229.56311h7.53662v1.72852h-7.53662v-1.72852ZM188.34143,232.75549h7.53662v1.75195h-7.53662v-1.75195ZM195.90222,224.88245h-7.41675v-1.75195h7.41675v1.75195ZM190.2616,237.79553v3.45703h3.55225v-3.45703h-3.55225ZM209.51135,232.61096h-5.18457v11.7373h-2.2561v-11.7373h-5.35254v-2.20801h5.35254v-7.99219h2.2561v7.99219h5.18457v2.20801Z"/><path d="M150.97009,322.09729h-9.16895v-1.77637h9.16895v1.77637ZM150.10608,337.07483h-5.30444v1.00781h-1.92017v-8.06445h7.22461v7.05664ZM142.92932,323.58557h7.20068v1.72852h-7.20068v-1.72852ZM142.92932,326.77795h7.20068v1.75195h-7.20068v-1.75195ZM150.05798,318.90491h-7.03271v-1.75195h7.03271v1.75195ZM144.80164,331.81799v3.45703h3.36011v-3.45703h-3.36011ZM163.93127,332.68225h-5.47266v5.68848h-2.18408v-5.68848h-5.5686v-2.04004h5.5686v-2.97656h-4.34448v-2.01562h4.34448v-2.76074h-4.80054v-2.01562h2.49634c-.31201-1.10449-.93604-2.59277-1.60815-3.74512l1.80005-.64746c.76807,1.24805,1.53613,2.87988,1.80029,3.98438l-1.00806.4082h4.82446l-1.0083-.36035c.57617-1.12793,1.36816-2.92871,1.72827-4.2002l2.20825.64746c-.69604,1.36816-1.41626,2.85645-2.04028,3.91309h2.9043v2.01562h-5.11255v2.76074h4.58447v2.01562h-4.58447v2.97656h5.47266v2.04004Z"/><path d="M168.82556,330.40198c-.28809,2.25684-.81616,4.58496-1.56006,6.09668-.38403-.24023-1.24829-.64844-1.70435-.81641.72021-1.43945,1.1521-3.57617,1.36816-5.61621l1.89624.33594ZM187.13904,318.20862v19.6582h-2.08813v-1.08008h-7.32056v1.27246h-2.01611v-9.12109l-1.65625.79199c-.12012-.48047-.31201-1.05566-.552-1.68066l-1.84814.19238v10.10547h-1.99219v-9.91309c-1.34424.14355-2.61621.26367-3.72046.35938l-.28784-1.99219c.552-.02344,1.19995-.07129,1.896-.11914.4082-.50488.81616-1.05664,1.24829-1.65625-.72021-1.05664-1.96826-2.40039-3.04834-3.4082l1.08008-1.48828c.21606.19141.43213.38379.67212.59961.7439-1.36816,1.53613-3.0957,1.99219-4.39258l1.99219.76855c-.86426,1.63184-1.87231,3.50391-2.73633,4.84863.45605.47949.86401.95996,1.17603,1.3916.96021-1.44043,1.84814-2.95215,2.47217-4.2002l1.87231.8877c-1.32007,2.06445-3.04834,4.53711-4.6084,6.50488l3.0481-.21582c-.31201-.57617-.62402-1.12793-.93604-1.65625l1.65625-.71973c.91211,1.41602,1.84814,3.21582,2.28027,4.53613v-10.27344h11.4248ZM173.89001,329.97034c.64795,1.46387,1.29614,3.36035,1.56006,4.58398l-1.77612.64844c-.21606-1.27246-.88818-3.19238-1.48804-4.68066l1.7041-.55176ZM177.73035,320.29749v6.09668h2.59229v-6.09668h-2.59229ZM177.73035,334.72229h2.59229v-6.28809h-2.59229v6.28809ZM185.0509,320.29749h-2.76025v6.09668h2.76025v-6.09668ZM185.0509,334.72229v-6.28809h-2.76025v6.28809h2.76025Z"/><path d="M198.97009,322.09729h-9.16895v-1.77637h9.16895v1.77637ZM198.10608,337.07483h-5.30444v1.00781h-1.92017v-8.06445h7.22461v7.05664ZM198.13,324.95374c2.18408-1.46387,2.52026-3.36035,2.52026-5.0166v-2.85645h7.70459v5.64062c0,.55176.0481.64844.38403.64844h.93604c.36011,0,.45605-.3125.50415-2.52051.43188.36035,1.27197.69629,1.82422.81641-.14404,2.85645-.69629,3.59961-2.08838,3.59961h-1.53613c-1.65601,0-2.16016-.55176-2.16016-2.51953v-3.67285h-3.4563v.88867c0,2.16016-.50391,4.77637-3.02417,6.45605-.31201-.38379-1.12817-1.12793-1.60815-1.41602v.3125h-7.20068v-1.72852h7.20068v1.36816ZM190.92932,326.77795h7.20068v1.75195h-7.20068v-1.75195ZM198.05798,318.90491h-7.03271v-1.75195h7.03271v1.75195ZM192.80164,331.81799v3.45703h3.36011v-3.45703h-3.36011ZM210.68298,327.08948c-.79199,2.92871-2.13599,5.23242-3.88818,7.00879,1.51196,1.05664,3.26416,1.84863,5.25635,2.35254-.47998.43164-1.12793,1.34375-1.44019,1.91992-2.08813-.62402-3.93628-1.55957-5.49634-2.80859-1.7041,1.27246-3.64844,2.18457-5.78442,2.80859-.21606-.55176-.76807-1.48828-1.2002-1.96777,1.94409-.48047,3.74438-1.27246,5.32837-2.35254-1.27197-1.36816-2.32812-2.95215-3.12012-4.75195l1.99219-.62402c.64795,1.4873,1.58398,2.85547,2.76025,4.00781,1.17603-1.12793,2.11206-2.47168,2.76025-4.03223h-8.59277v-2.04004h9.57666l.4082-.07227,1.43994.55176Z"/><path d="M223.37805,322.09729h-9.5769v-1.77637h9.5769v1.77637ZM222.39392,337.07483h-5.54443v1.00781h-1.96802v-8.06445h7.51245v7.05664ZM214.92932,323.58557h7.53662v1.72852h-7.53662v-1.72852ZM214.92932,326.77795h7.53662v1.75195h-7.53662v-1.75195ZM222.49011,318.90491h-7.41675v-1.75195h7.41675v1.75195ZM216.84949,331.81799v3.45703h3.55225v-3.45703h-3.55225ZM236.09924,326.63342h-5.18457v11.7373h-2.2561v-11.7373h-5.35254v-2.20801h5.35254v-7.99219h2.2561v7.99219h5.18457v2.20801Z"/><path class="cls-15" d="M156.33337,430.19299c0-.33594.02393-.79199.02393-1.29688h-11.37695c-.98413,0-2.18408.04883-2.88013.09668v-2.71289c.69604.04883,1.7522.12012,2.78418.12012h11.49707v-10.70508h-11.20898c-.93604,0-2.16016.04883-2.78418.07227v-2.63965c.83984.07129,1.99219.14355,2.78418.14355h11.92896c.64819,0,1.48804-.02344,1.92017-.04785-.02393.52832-.04785,1.3916-.04785,2.01562v12.40918c0,.84082.04785,2.0166.09595,2.54492h-2.73633Z"/><path class="cls-15" d="M164.78015,419.12756c.76807.07227,2.2561.14453,3.55225.14453h13.0332c1.17603,0,2.11206-.09668,2.68823-.14453v2.95215c-.52808-.02344-1.60815-.0957-2.66431-.0957h-13.05713c-1.34424,0-2.76025.04785-3.55225.0957v-2.95215Z"/><path class="cls-15" d="M206.20569,418.23987c.50391,0,1.41602-.02441,2.01611-.12012v2.47168c-.552-.02344-1.39209-.04785-2.01611-.04785h-6.1687c-.09595,2.54492-.57593,4.65625-1.48804,6.38477-.86401,1.63184-2.68823,3.4082-4.75244,4.48828l-2.23218-1.63184c1.77612-.71973,3.50415-2.1123,4.44043-3.57617,1.03198-1.6084,1.36792-3.52832,1.43994-5.66504h-6.93652c-.71997,0-1.51221.02441-2.18408.07227v-2.49609c.69604.07227,1.43994.12012,2.18408.12012h15.69751ZM193.50842,414.42346c-.81592,0-1.7041.04785-2.35205.0957v-2.47168c.71997.0957,1.56006.14355,2.32812.14355h8.11279c.7439,0,1.65601-.04785,2.40015-.14355v2.47168c-.76807-.04785-1.63208-.0957-2.40015-.0957h-8.08887ZM205.67761,414.18323c-.48022-.95996-1.24829-2.40039-1.89624-3.3125l1.53613-.64746c.6001.86328,1.46411,2.35156,1.94409,3.28809l-1.58398.67188ZM208.02966,409.21448c.64819.88867,1.5603,2.37695,1.99219,3.26465l-1.56006.67188c-.50415-1.03223-1.29614-2.40039-1.96826-3.28809l1.53613-.64844Z"/><path class="cls-15" d="M229.5575,416.8717c-1.12817,1.24805-3.26416,2.95215-5.42456,4.34375v8.28125c0,.76758.02417,1.89648.12012,2.30371h-2.78418c.04785-.40723.11987-1.53613.11987-2.30371v-6.81641c-2.06421,1.05566-4.87231,2.23145-7.22461,2.85645l-1.27197-2.20898c3.07227-.64746,6.43237-2.1123,8.40063-3.26367,2.40015-1.39258,4.96851-3.4082,6.16846-4.94434l1.89624,1.75195Z"/><path class="cls-15" d="M246.98083,424.64807c3.8645-2.37598,6.86475-5.97656,8.32886-9.04883l1.46411,2.61621c-1.72827,3.09668-4.68042,6.38477-8.4248,8.68848-2.42407,1.48828-5.47241,2.9043-9.19263,3.57715l-1.60815-2.47266c4.0083-.59961,7.12842-1.94434,9.43262-3.36035ZM246.16492,416.96741l-1.89624,1.94434c-1.24805-1.27246-4.22437-3.86426-6.00049-5.08887l1.7522-1.87207c1.7041,1.12793,4.80029,3.625,6.14453,5.0166Z"/><path class="cls-15" d="M275.01331,414.47131c.67212,0,1.34399-.07227,1.80005-.24023l1.96826,1.2002c-.23999.38379-.50415.98438-.67212,1.46387-.64795,2.30469-2.06421,5.52051-4.22437,8.16113-2.20825,2.71191-5.1123,4.91992-9.60083,6.625l-2.23218-1.99219c4.63257-1.36816,7.48877-3.50488,9.62476-5.97656,1.77637-2.06445,3.21631-5.06445,3.64844-7.08105h-7.5127c-1.51221,2.06445-3.57617,4.17676-6.07251,5.85645l-2.11206-1.55957c4.17627-2.52051,6.40845-5.83301,7.53662-7.94531.28809-.50391.69604-1.46387.88794-2.16016l2.78442.91211c-.48022.71973-.98413,1.63184-1.24829,2.1123-.11987.21582-.21606.4082-.35986.62402h5.78442ZM276.93347,410.43909c.6001.86426,1.46411,2.35254,1.94409,3.28809l-1.58398.67188c-.48022-.95996-1.24829-2.40039-1.89624-3.3125l1.53613-.64746ZM279.64563,409.40686c.64819.8877,1.5603,2.40039,1.99219,3.26465l-1.56006.69531c-.50415-1.03125-1.29614-2.39941-1.96826-3.31152l1.53613-.64844Z"/><path d="M500.78894,46.62561c-1.15186,2.44824-2.95215,4.34473-5.1123,5.83203,2.44824.98438,5.28052,1.65625,8.44873,1.99219-.47998.50391-1.05615,1.46484-1.36816,2.1123-3.55225-.50391-6.69653-1.41602-9.36084-2.78418-2.80811,1.39258-6.07251,2.25586-9.48071,2.80859-.21606-.57617-.81616-1.53613-1.29614-2.0166,3.16821-.38379,6.09644-1.05566,8.6167-2.1123-1.7522-1.2002-3.21631-2.6875-4.36841-4.41602l.43213-.19238h-1.03223v-2.06348h12.60132l.40796-.07227,1.51196.91211ZM485.23572,46.48108h-2.08813v-4.96777h3.62427c-.28809-.84082-.84009-1.99219-1.36816-2.85645l1.94434-.55176c.64795.91211,1.27197,2.18359,1.53613,3l-1.29614.4082h5.18433c-.11987-.88867-.57593-2.30469-1.08008-3.38477l1.99219-.43164c.52808,1.05566,1.05615,2.42383,1.2002,3.3125l-2.01636.50391h4.77661c.69604-1.12793,1.46411-2.68848,1.92017-3.86426l2.32812.62402c-.62402,1.08008-1.32007,2.28027-1.99219,3.24023h3.76831v4.96777h-2.18408v-3h-16.24951v3ZM502.54114,36.37659c-5.04028,1.00781-12.43311,1.58398-18.67358,1.7998-.02393-.55176-.26392-1.41602-.47998-1.89551,6.16846-.24023,13.41724-.84082,17.59351-1.72852l1.56006,1.82422ZM489.24402,47.84924c1.05615,1.39258,2.47217,2.56836,4.20044,3.52832,1.63208-.93555,2.97632-2.08789,3.98438-3.52832h-8.18481Z"/><path d="M511.85168,36.37659c-.16797.50391-.35986,1.24805-.47998,1.72852-.67188,3.07227-1.48828,8.16016-.72021,11.64062.33643-.8877.79248-2.18457,1.2002-3.24023l1.24805.79199c-.62402,1.82422-1.31982,4.22461-1.58398,5.49609-.07178.33691-.14404.81641-.12012,1.08008,0,.24023.04834.60059.04834.88867l-2.06445.24023c-.50391-1.46484-1.2959-4.65723-1.2959-7.60938,0-3.8877.55176-7.53613.83984-9.50488.09619-.59961.12012-1.2959.14404-1.77539l2.78418.26367ZM527.42932,42.8092c-1.03223.14355-2.3042.26367-3.69629.36035v.8877c0,5.52051-.19238,9.2168-5.08887,12.2168l-2.20801-1.72754c.81592-.36035,1.896-1.00879,2.52051-1.68066,2.23193-2.06445,2.47217-4.48828,2.47217-8.83301v-.74414c-.96045.02441-1.92041.04883-2.85645.04883-1.104,0-2.66406-.07227-3.76855-.14453v-2.40039c1.10449.16797,2.44824.24023,3.7207.24023.91211,0,1.896-.02344,2.85596-.04785-.02393-1.44043-.07178-2.85645-.11963-3.48047-.04834-.50391-.14404-1.10352-.24023-1.48828h2.76025c-.07227.45605-.07227.95996-.09619,1.48828s0,1.91992.02393,3.33691c1.36816-.12012,2.66455-.28809,3.7207-.50488v2.47266Z"/><path d="M542.86047,36.06409c0,4.34473.55176,13.25,9.69678,18.65039-.50391.38379-1.41602,1.34375-1.80029,1.89551-5.44824-3.28809-8.0166-8.18457-9.19287-12.60059-1.77588,5.78418-4.77637,9.98438-9.2168,12.64941-.43164-.45605-1.46387-1.39258-2.06396-1.80078,5.16064-2.66406,8.06494-7.39258,9.45703-13.89746l1.22412.2168c-.16846-1.00879-.26416-1.99219-.31201-2.85645h-5.71289v-2.25684h7.9209Z"/><path d="M576.67737,53.13049c-1.2002,1.17578-2.66455,1.89551-4.4165,1.89551-1.65625,0-2.80811-1.15234-2.80811-3.26367,0-2.61621.8877-6.33691.8877-8.59277,0-1.27246-.64795-1.84863-1.77588-1.84863-1.84814,0-4.58447,2.23242-6.64844,4.46484-.04834.83984-.07227,1.65625-.07227,2.39941,0,2.06445-.02393,3.76855.09619,5.92871.02393.43262.0957,1.12793.14404,1.6084h-2.59229c.02393-.4082.07178-1.17578.07178-1.56055.02441-2.20801.04834-3.57617.09619-6.21582-1.104,1.63184-2.49609,3.69629-3.50439,5.06445l-1.48779-2.08887c1.31982-1.65625,3.91211-5.08789,5.18408-7.00781.04834-.67285.09619-1.36816.14404-2.04102-1.104.14453-3.07227.4082-4.51221.60059l-.24023-2.44824c.6001.02344,1.104,0,1.77637-.02441.74414-.04785,1.99219-.19141,3.12012-.35938.07227-1.03223.12012-1.80078.12012-2.06445,0-.60059,0-1.27246-.12012-1.91992l2.80811.0957c-.11963.59961-.31201,1.87207-.47998,3.4082l.84033,1.00781c-.31201.43262-.74414,1.10449-1.12842,1.7041-.02393.33594-.04785.64844-.07178.98438,1.84814-1.67969,4.75244-3.76855,7.08057-3.76855,2.37598,0,3.52832,1.36816,3.52832,3.33691,0,2.40039-.84033,6.24023-.84033,8.66406,0,.74414.33594,1.27246,1.08008,1.27246,1.05615,0,2.28027-.69629,3.36035-1.84766l.36035,2.61621Z"/><path d="M582.48352,37.26428c1.104,1.6084,3.21631,5.28125,4.08057,6.88867l-2.47217,1.39258c-.91211-1.94434-2.80859-5.37695-4.0083-7.05664l2.3999-1.22461ZM591.89221,46.98596c1.80029-2.66504,2.52051-5.44922,2.92822-7.58496.16846-.81641.24023-1.84863.24023-2.35254l3.02441.4082c-.21631.76855-.45605,1.75195-.57617,2.28027-.57617,2.85645-1.53613,5.80859-3.28809,8.52051-1.89648,2.88086-4.58447,5.54492-8.44873,7.39258l-2.25635-1.94434c3.96045-1.60742,6.60059-4.12793,8.37646-6.71973Z"/><path d="M622.34875,38.84924c-.19189.38379-.31201.91211-.43164,1.3916-.52832,2.44824-1.63232,6.26465-3.57666,8.80859-2.18408,2.83203-5.18408,5.13672-9.55273,6.50488l-2.04004-2.25586c4.68018-1.15234,7.39258-3.19238,9.36084-5.71289,1.65625-2.08789,2.68799-5.16016,3-7.36914h-11.78467c-1.03223,0-1.99219.04883-2.59229.09668v-2.68848c.67188.0957,1.7998.19238,2.59229.19238h11.64062c.4082,0,1.0083-.02441,1.53613-.16797l1.84814,1.2002Z"/><path d="M644.88489,48.92932c-2.54443-1.36816-6.43262-2.87988-9.07275-3.74414v7.41699c0,.74414.07178,2.20801.19189,3.07227h-2.95215c.12012-.83984.19189-2.13672.19189-3.07227v-13.87305c0-.76855-.07178-1.87207-.21582-2.68848h2.95215c-.07227.79199-.16797,1.84766-.16797,2.68848v3.74414c3.16797.95996,7.75244,2.66406,10.15283,3.83984l-1.08008,2.61621Z"/><path d="M460.26453,140.4928l-1.39233,2.13672c-1.27197-.91211-3.81616-2.54492-5.35229-3.36035l1.36816-2.06445c1.51196.81641,4.24829,2.49609,5.37646,3.28809ZM462.6886,146.13342c4.0083-2.28027,7.24854-5.49609,9.19287-8.90527l1.44019,2.54492c-2.13623,3.26367-5.47266,6.33594-9.36084,8.59277-2.42432,1.41602-5.78467,2.56836-7.96875,2.97559l-1.41626-2.47168c2.66431-.45605,5.59253-1.34473,8.11279-2.73633ZM463.86462,135.18811l-1.41602,2.06445c-1.22412-.8877-3.79224-2.5918-5.28052-3.43262l1.36816-2.06348c1.48804.83984,4.20044,2.61621,5.32837,3.43164Z"/><path d="M494.80139,134.30042c-.16821.24023-.52808.83984-.69604,1.24805-.84009,1.96777-2.25635,4.68066-3.93652,6.84082,2.47241,2.1123,5.37646,5.20801,6.86475,7.03223l-2.13623,1.87207c-1.56006-2.16016-3.96045-4.7998-6.33667-7.00879-2.56812,2.73633-5.78442,5.30469-9.24072,6.88867l-1.94409-2.01562c3.88818-1.48828,7.48853-4.36816,9.86475-7.0332,1.63232-1.82422,3.24023-4.46387,3.81641-6.33594h-8.80884c-.93604,0-2.23218.12012-2.61621.14355v-2.71191c.47998.07227,1.87231.16797,2.61621.16797h8.90479c.88818,0,1.68018-.0957,2.08813-.24023l1.5603,1.15234Z"/><path d="M519.3053,138.62073c.50391,0,1.41602-.04785,2.01611-.12012v2.47266c-.55225-.04883-1.39209-.07227-2.01611-.07227h-6.16846c-.09619,2.54395-.57617,4.65625-1.48828,6.4082-.86426,1.6084-2.68799,3.4082-4.77637,4.46484l-2.20801-1.63281c1.77612-.71973,3.47998-2.08789,4.43994-3.57617,1.03223-1.60742,1.34424-3.50391,1.44043-5.66406h-6.93652c-.71997,0-1.51221.02344-2.18433.07227v-2.47266c.67212.07227,1.44019.12012,2.18433.12012h15.69727ZM506.60828,134.80432c-.79199,0-1.68018.02441-2.35229.07227v-2.47266c.72021.09668,1.5603.16797,2.35229.16797h9.67261c.74414,0,1.63232-.04785,2.40039-.16797v2.47266c-.76807-.04785-1.65625-.07227-2.40039-.07227h-9.67261Z"/><path d="M543.3053,151.39026c-.31201-.84082-.74414-1.89648-1.24805-3.00098-3.81641.45605-11.49707,1.2959-14.61719,1.58398-.6001.07227-1.39209.19238-2.1123.28809l-.43213-2.78418c.74414,0,1.68018,0,2.40039-.04785.28809-.02344.62402-.02344.98389-.04785,1.34424-3.43262,3.62451-10.58496,4.29639-13.0332.33594-1.15234.43213-1.7998.52783-2.49609l3.00049.62402c-.26416.64844-.57617,1.36816-.91211,2.42383-.72021,2.28027-2.9043,9.07324-4.10449,12.24121,3.26465-.28809,7.3208-.74414,9.88916-1.08008-.91211-1.82422-1.89648-3.57617-2.73633-4.68066l2.32812-1.00781c1.68018,2.52051,4.24854,7.29688,5.28027,9.86523l-2.54395,1.15234Z"/><path d="M552.32776,132.90784c1.10449,1.6084,3.21631,5.28125,4.08057,6.88867l-2.47217,1.39258c-.91211-1.94434-2.80811-5.37695-4.0083-7.05664l2.3999-1.22461ZM561.73694,142.62952c1.7998-2.66504,2.52002-5.44922,2.92822-7.58496.16797-.81641.23975-1.84863.23975-2.35254l3.02441.4082c-.21582.76855-.45605,1.75195-.57617,2.28027-.57617,2.85645-1.53613,5.80859-3.28809,8.52051-1.89648,2.88086-4.58447,5.54492-8.44873,7.39258l-2.25635-1.94434c3.96045-1.60742,6.60059-4.12793,8.37695-6.71973Z"/><path d="M592.19299,134.4928c-.19189.38379-.31201.91211-.43164,1.3916-.52832,2.44824-1.63232,6.26465-3.57666,8.80859-2.18408,2.83203-5.18408,5.13672-9.55273,6.50488l-2.04004-2.25586c4.68018-1.15234,7.39258-3.19238,9.36084-5.71289,1.65625-2.08789,2.68799-5.16016,3-7.36816h-11.78467c-1.03223,0-1.99219.04785-2.59229.0957v-2.68848c.67188.0957,1.7998.19238,2.59229.19238h11.64062c.4082,0,1.0083-.02441,1.53613-.16797l1.84814,1.2002Z"/><path d="M614.72913,144.57288c-2.54443-1.36816-6.43262-2.87988-9.07275-3.74414v7.41699c0,.74414.07178,2.20801.19189,3.07227h-2.95215c.12012-.83984.19189-2.13672.19189-3.07227v-13.87305c0-.76855-.07178-1.87207-.21582-2.68848h2.95215c-.07227.79199-.16797,1.84766-.16797,2.68848v3.74414c3.16797.95996,7.75244,2.66406,10.15283,3.83984l-1.08008,2.61621Z"/><path d="M456.06189,236.35706c-.31201,2.25586-.81616,4.58398-1.56006,6.0957-.33618-.23926-1.2002-.62402-1.63232-.79199.72021-1.43945,1.12817-3.57617,1.34424-5.61621l1.84814.3125ZM458.82214,234.2926v10.0332h-1.96826v-9.8418c-1.27197.12012-2.49609.2168-3.52832.3125l-.28784-1.96777c.47998-.02441,1.03198-.04883,1.63208-.09668.43213-.52734.88794-1.15137,1.32007-1.7998-.67212-1.08008-1.84814-2.37598-2.8562-3.38477l1.12817-1.4873c.21582.19141.43188.40723.64795.62402.74414-1.34473,1.53613-3.07227,1.96826-4.36914l1.94409.74414c-.84009,1.63281-1.84814,3.52832-2.71216,4.87305.38403.43164.7439.86328,1.03198,1.27148.91211-1.41602,1.7522-2.85645,2.37622-4.08008l1.82422.83984c-1.34424,2.1123-3.04834,4.65625-4.63257,6.64844l2.97632-.21582c-.31201-.59961-.67212-1.2002-1.00806-1.75195l1.58423-.69629c1.00806,1.56055,2.08813,3.625,2.44824,4.96875l-1.68018.79199c-.12012-.45605-.31201-1.00781-.552-1.58398l-1.65625.16797ZM460.9342,235.97229c.6001,1.36816,1.2002,3.19238,1.46411,4.36914.31226-.91211.52808-1.89648.67212-2.83301l1.80029.33594c-.26416,1.9209-.88818,4.12891-1.87231,5.52051l-1.72803-.79199c.43188-.57617.81592-1.34375,1.104-2.20801l-1.7041.60059c-.21606-1.22461-.79199-3.04883-1.36816-4.46484l1.63208-.52832ZM467.24695,223.17932c-.86426,2.40039-2.40039,4.65625-3.96045,6.12109-.40796-.38477-1.27197-1.03223-1.80005-1.34473,1.60815-1.27148,2.95215-3.21582,3.64819-5.28027l2.1123.50391ZM469.09509,226.94788c-.62402,1.44043-1.34424,3.12012-2.01636,4.5127l3.72046-.2168c-.40796-.59961-.86401-1.19922-1.27222-1.72754l1.70435-.86426c1.2959,1.56055,2.76001,3.67188,3.36011,5.08887l-1.80005.9834c-.21606-.47949-.52808-1.10352-.88818-1.72754-3.21631.26367-6.45654.52734-8.90479.69531l-.38403-2.01562,2.42432-.12012c.69604-1.56055,1.41602-3.64844,1.82422-5.16016l2.23218.55176ZM469.71912,242.45276c.50391,0,.62402-.28809.67212-2.39941.38403.33594,1.27197.64746,1.82397.79199-.21582,2.80762-.7439,3.50391-2.23218,3.50391h-2.16016c-1.92017,0-2.35229-.59961-2.35229-2.56836v-4.82422h2.04028v4.82422c0,.60059.09595.67188.62402.67188h1.58423ZM467.00671,233.74084c1.51221.71973,3.19238,1.94336,4.00854,2.92773l-1.46411,1.36816c-.79224-1.03223-2.44824-2.32812-3.93652-3.07227l1.39209-1.22363ZM471.3031,222.60315c.93628,1.7041,2.76025,3.67285,4.22437,4.75293-.47998.33594-1.19995,1.10352-1.53613,1.58398-1.51196-1.27246-3.4082-3.62402-4.51221-5.56836l1.82397-.76855ZM472.71936,237.12463c1.29614,1.68066,2.47217,3.86426,2.78418,5.4248l-1.82422.93555c-.31201-1.51172-1.43994-3.81641-2.66406-5.49609l1.7041-.86426Z"/><path d="M489.18274,222.38733c2.56812,3.57617,6.62451,6.74512,10.39282,8.37695-.552.55176-1.08008,1.32031-1.46411,1.99219-1.27222-.67188-2.61621-1.48828-3.88843-2.4248v1.70508h-11.95288v-1.63281c-1.22412.91211-2.54419,1.72852-3.8645,2.44824-.26392-.52832-.91187-1.32031-1.36792-1.77637,4.10425-2.08789,8.04053-5.68848,9.86475-8.68848h2.28027ZM480.90198,234.74866h14.78516v9.64844h-2.28003v-.93555h-10.32104v.93555h-2.18408v-9.64844ZM493.81506,230.04456c-2.2561-1.68066-4.32031-3.625-5.66455-5.47266-1.22412,1.77539-3.14429,3.74414-5.40039,5.47266h11.06494ZM483.08606,236.76428v4.70508h10.32104v-4.70508h-10.32104Z"/><path d="M520.28723,230.64417c.50439,0,1.4165-.04785,2.0166-.12012v2.47266c-.55225-.04883-1.39258-.07227-2.0166-.07227h-6.16846c-.0957,2.54395-.57617,4.65625-1.48779,6.4082-.86426,1.6084-2.68848,3.4082-4.77686,4.46484l-2.20801-1.63281c1.77637-.71973,3.48047-2.08789,4.44043-3.57617,1.03223-1.60742,1.34424-3.50391,1.43994-5.66406h-6.93652c-.71997,0-1.51221.02344-2.18433.07227v-2.47266c.67212.07227,1.44019.12012,2.18433.12012h15.69727ZM507.59045,226.82776c-.79224,0-1.68042.02441-2.35254.07227v-2.47266c.72021.09668,1.5603.16797,2.35254.16797h9.67285c.74414,0,1.63184-.04785,2.3999-.16797v2.47266c-.76807-.04785-1.65576-.07227-2.3999-.07227h-9.67285Z"/><path d="M543.78333,226.32385c-.16797.24023-.52783.83984-.6958,1.24805-.84033,1.96777-2.25635,4.68066-3.93652,6.84082,2.47217,2.1123,5.37646,5.20801,6.86475,7.03223l-2.13623,1.87207c-1.56006-2.16016-3.96045-4.7998-6.33691-7.00879-2.56787,2.73633-5.78418,5.30469-9.24072,6.88867l-1.94385-2.01562c3.88818-1.48828,7.48828-4.36816,9.86475-7.0332,1.63232-1.82422,3.24023-4.46387,3.81641-6.33594h-8.80908c-.93604,0-2.23193.12012-2.61621.14355v-2.71191c.47998.07227,1.87256.16797,2.61621.16797h8.90479c.88818,0,1.68018-.0957,2.08838-.24023l1.56006,1.15234Z"/><path d="M567.71155,236.59631c-2.54443-1.36816-6.43262-2.87988-9.07275-3.74414v7.41699c0,.74414.07178,2.20801.19189,3.07227h-2.95215c.12012-.83984.19189-2.13672.19189-3.07227v-13.87305c0-.76855-.07178-1.87207-.21582-2.68848h2.95215c-.07227.79199-.16797,1.84766-.16797,2.68848v3.74414c3.16797.95996,7.75244,2.66406,10.15283,3.83984l-1.08008,2.61621Z"/><path d="M448.33972,334.29163h-9.625v4.10449h-2.28003v-4.10449h-9.45679v-2.08789h9.45679v-1.89648h-7.27271v-9.76855h2.11206c-.45581-.93652-1.34399-2.18457-2.13599-3.12109l1.94409-.86328c.88794.9834,1.92017,2.39941,2.40015,3.33594l-1.34399.64844h4.80029c-.36011-1.00879-1.12817-2.4248-1.84814-3.48047l1.99219-.76855c.81616,1.12793,1.68018,2.64062,2.04028,3.625l-1.53613.62402h3.98438c.86401-1.15234,1.87207-2.88086,2.42407-4.17676l2.44824.76758c-.74414,1.17676-1.58423,2.40039-2.35229,3.40918h2.25635v9.76855h-7.63281v1.89648h9.625v2.08789ZM436.43469,322.41077h-5.08862v2.1123h5.08862v-2.1123ZM436.43469,328.43518v-2.13672h-5.08862v2.13672h5.08862ZM444.06726,322.41077h-5.35254v2.1123h5.35254v-2.1123ZM444.06726,326.29846h-5.35254v2.13672h5.35254v-2.13672Z"/><path d="M457.50623,317.08167c-.52783,1.63281-1.24805,3.26465-2.01611,4.84863v16.41797h-2.13623v-12.72168c-.59985.86426-1.17603,1.63184-1.77612,2.35254-.21606-.52832-.86401-1.75195-1.24805-2.25684,2.06421-2.25586,3.93628-5.75977,5.08838-9.24023l2.08813.59961ZM466.84314,323.05823c1.36816,3.86426,3.72021,7.72852,6.19263,9.81738-.552.4082-1.29614,1.17578-1.70435,1.77539-2.2561-2.23145-4.32031-5.97559-5.73633-9.88867v7.36914h3.55225v2.01562h-3.55225v4.10449h-2.18433v-4.10449h-3.57617v-2.01562h3.57617v-7.22461c-1.46411,3.93652-3.55225,7.56055-5.90454,9.81641-.33594-.55176-1.104-1.32031-1.58398-1.7041,2.54419-2.1123,4.89648-6.02441,6.3125-9.96094h-5.25635v-2.1123h6.43237v-4.46387h2.18433v4.46387h6.8645v2.1123h-5.61646Z"/><path d="M493.69934,324.66663c.50415,0,1.41626-.04785,2.01636-.12012v2.47266c-.55225-.04883-1.39233-.07227-2.01636-.07227h-6.16846c-.09595,2.54395-.57617,4.65625-1.48804,6.4082-.86426,1.6084-2.68823,3.4082-4.77661,4.46484l-2.20801-1.63281c1.77612-.71973,3.48022-2.08789,4.44019-3.57617,1.03223-1.60742,1.34424-3.50391,1.44019-5.66406h-6.93652c-.71997,0-1.51221.02344-2.18433.07227v-2.47266c.67212.07227,1.44019.12012,2.18433.12012h15.69727ZM481.00232,320.85022c-.79199,0-1.68018.02441-2.35229.07227v-2.47266c.72021.09668,1.5603.16797,2.35229.16797h9.67285c.74414,0,1.63208-.04785,2.40015-.16797v2.47266c-.76807-.04785-1.65601-.07227-2.40015-.07227h-9.67285Z"/><path d="M517.19543,320.34631c-.16797.24023-.52783.83984-.6958,1.24805-.84033,1.96777-2.25635,4.68066-3.93652,6.84082,2.47217,2.1123,5.37646,5.20801,6.86475,7.03223l-2.13623,1.87207c-1.56006-2.16016-3.96045-4.7998-6.33691-7.00879-2.56787,2.73633-5.78442,5.30469-9.24072,6.88867l-1.94409-2.01562c3.88818-1.48828,7.48853-4.36816,9.86499-7.0332,1.63232-1.82422,3.24023-4.46387,3.81641-6.33594h-8.80908c-.93604,0-2.23218.12012-2.61621.14355v-2.71191c.47998.07227,1.87231.16797,2.61621.16797h8.90479c.88818,0,1.68018-.0957,2.08838-.24023l1.56006,1.15234Z"/><path d="M541.12366,330.61877c-2.54443-1.36816-6.43262-2.87988-9.07275-3.74414v7.41699c0,.74414.07178,2.20801.19189,3.07227h-2.95215c.11963-.83984.19189-2.13672.19189-3.07227v-13.87305c0-.76855-.07227-1.87207-.21631-2.68848h2.95264c-.07227.79199-.16797,1.84766-.16797,2.68848v3.74414c3.16797.95996,7.75244,2.66406,10.15283,3.83984l-1.08008,2.61621Z"/><path class="cls-15" d="M405.10583,431.50452c0-.33594.02393-.79199.02393-1.29688h-11.37695c-.98413,0-2.18408.04883-2.88013.09668v-2.71289c.69604.04883,1.7522.12012,2.78418.12012h11.49707v-10.70508h-11.20898c-.93604,0-2.16016.04883-2.78418.07227v-2.63965c.83984.07129,1.99219.14355,2.78418.14355h11.92896c.64819,0,1.48804-.02344,1.92017-.04785-.02393.52832-.04785,1.3916-.04785,2.01562v12.40918c0,.84082.04785,2.0166.09595,2.54492h-2.73633Z"/><path class="cls-15" d="M412.42468,420.43909c.76807.07227,2.2561.14453,3.55225.14453h13.0332c1.17603,0,2.11206-.09668,2.68823-.14453v2.95215c-.52808-.02344-1.60815-.0957-2.66431-.0957h-13.05713c-1.34424,0-2.76025.04785-3.55225.0957v-2.95215Z"/><path class="cls-15" d="M440.68762,419.14319c3.16821.93555,7.77661,2.66406,10.15283,3.83984l-1.05615,2.59277c-2.54419-1.34375-6.45654-2.85645-9.09668-3.7207l.02393,7.41699c0,.74414.07202,2.18457.16797,3.07227h-2.92822c.12012-.83984.19189-2.16016.19189-3.07227v-13.87305c0-.76855-.07178-1.89648-.21582-2.68848h2.95215c-.07202.79199-.19189,1.82422-.19189,2.68848v3.74414ZM447.55212,417.99084c-.62402-1.36816-1.29614-2.52051-2.11206-3.67188l1.60791-.69629c.64819.93652,1.65625,2.49609,2.18433,3.62402l-1.68018.74414ZM450.67249,416.71936c-.69604-1.36816-1.36816-2.47266-2.20825-3.60059l1.60815-.74414c.64795.8877,1.68018,2.44824,2.23218,3.55176l-1.63208.79297Z"/><path class="cls-15" d="M457.26404,430.30432c.23999-.48047.26392-.83984.26392-1.34473v-13.41699c0-.76758-.09595-1.87207-.21606-2.42383h2.97632c-.12012.74414-.21606,1.6084-.21606,2.40039v13.12891c4.32031-1.15234,9.7688-4.27246,12.79321-8.06445l1.36816,2.11133c-3.19238,3.91309-8.16089,6.81738-13.99341,8.61719-.28784.07227-.7439.21582-1.19995.50391l-1.77612-1.51172Z"/><path class="cls-15" d="M481.1178,427.56799c0,1.15234.50415,1.44043,1.63208,1.67969.72021.12012,1.84814.16797,3.00024.16797,2.52026,0,6.28857-.26367,8.25684-.79199v2.76074c-2.16016.31152-5.7605.47949-8.40088.47949-1.48804,0-2.92822-.07129-3.93628-.23926-1.94409-.36035-3.0481-1.32031-3.0481-3.33691v-13.15332c0-.55176-.0481-1.53613-.16821-2.16016h2.80835c-.09595.62402-.14404,1.48828-.14404,2.16016v5.04102c2.83228-.69629,6.43262-1.82422,8.76074-2.80859.79199-.31152,1.53613-.67188,2.32812-1.17578l1.05615,2.42383c-.79199.3125-1.7522.74414-2.52026,1.00781-2.56812,1.03223-6.60059,2.25684-9.62476,3.04883v4.89648ZM492.23083,416.02307c-.50415-.95996-1.27222-2.40039-1.92017-3.3125l1.53613-.64844c.6001.86426,1.46411,2.35254,1.94409,3.28906l-1.56006.67188ZM494.58289,411.05432c.62427.88867,1.53613,2.40039,1.96826,3.26465l-1.56006.67188c-.50415-1.03223-1.27222-2.40039-1.94434-3.28809l1.53613-.64844Z"/><path class="cls-15" d="M514.12561,428.83948c.55225,0,1.53613-.04785,2.08838-.0957v2.44824c-.45605-.02344-1.46436-.04785-2.04004-.04785h-12.93726c-.79199,0-1.34399.02441-2.16016.04785v-2.47168c.62402.07129,1.39209.11914,2.16016.11914h8.30493c.33594-2.04004.95996-6.16797,1.03174-7.51172h-7.12842c-.71997,0-1.48804.04785-2.13623.07129v-2.49609c.6001.07227,1.51221.12012,2.1123.12012h6.81641c.43213,0,1.2002-.07227,1.43994-.19238l1.82422.88867c-.07178.26367-.14404.62402-.19189.86426-.19189,1.53613-.86426,6.02441-1.2002,8.25586h2.01611Z"/><path class="cls-15" d="M519.24622,420.43909c.76807.07227,2.25586.14453,3.55225.14453h13.0332c1.17578,0,2.11182-.09668,2.68799-.14453v2.95215c-.52783-.02344-1.60791-.0957-2.66406-.0957h-13.05713c-1.34424,0-2.76025.04785-3.55225.0957v-2.95215Z"/><polygon class="cls-7" points="190.76233 842.95771 484.34388 842.95771 483.71253 515.70062 190.13097 515.70062 190.76233 842.95771"/><path class="cls-1" d="M258.67639,613.66858c-.94434.16211-1.88965.35059-2.80762.5127-.94434,2.80762-2.94141,5.74902-6.91016,7.66602-.37793-.59375-1.21387-1.40332-1.78125-1.88965,3.02344-1.2959,4.77832-3.26562,5.75-5.26367-2.24121.37793-4.37305.75586-6.12793,1.05273l-.5127-2.4834c1.94336-.26953,4.64258-.64746,7.53125-1.0791.21582-1.05273.29688-2.02441.29688-2.80762v-.37793h-6.47852v-2.32129h6.47852v-3.72559h-6.77539v-2.34766h6.77539v-3.69824h2.50977v12.4707c0,.72852-.05371,1.53809-.18848,2.40234l2.13184-.32422.1084,2.21387ZM271.06604,615.1803h-7.99023v6.34277h-2.50977v-24.61719h2.50977v3.69824h7.50488v2.34766h-7.50488v3.72559h6.91016v2.32129h-6.91016v3.83301h7.99023v2.34863Z"/><path class="cls-1" d="M281.35803,612.99377c-.35156-.86426-1.13379-2.34863-1.83594-3.61719v12.14648h-2.32129v-11.41797c-.80957,2.56445-1.80859,4.93945-2.88867,6.47852-.24219-.6748-.83691-1.61914-1.1875-2.15918,1.59277-2.21387,3.13086-6.20898,3.86035-9.63672h-3.29297v-2.32129h3.50879v-5.69531h2.32129v5.69531h2.88867v2.32129h-2.88867v1.59277c.75586.99902,2.75293,4.04883,3.18555,4.77734l-1.34961,1.83594ZM298.36292,617.23108h-1.59277v1.78223c0,1.13379-.24219,1.7002-1.02539,2.07812-.7832.29688-1.99707.32422-3.72461.32422-.1084-.59375-.40527-1.45801-.6748-2.02441,1.13281.05371,2.29395.05371,2.64453.02637.32422,0,.43262-.10742.43262-.43164v-1.75488h-8.44922v4.18457h-2.29395v-4.18457h-1.72754v-1.88867h1.72754v-6.74902h5.29004v-1.32227h-6.55859v-1.8623h3.53516v-1.51172h-2.375v-1.75488h2.375v-1.48438h-2.94141v-1.80859h2.94141v-2.07812h2.34863v2.07812h3.69824v-2.07812h2.34863v2.07812h3.21191v1.80859h-3.21191v1.48438h2.80664v1.75488h-2.80664v1.51172h3.75195v1.8623h-6.85645v1.32227h5.5332v6.74902h1.59277v1.88867ZM285.97327,610.40198v1.53906h2.99609v-1.53906h-2.99609ZM285.97327,615.34241h2.99609v-1.67383h-2.99609v1.67383ZM288.29456,602.14221h3.69824v-1.48438h-3.69824v1.48438ZM288.29456,605.40881h3.69824v-1.51172h-3.69824v1.51172ZM291.23694,610.40198v1.53906h3.18555v-1.53906h-3.18555ZM294.42249,615.34241v-1.67383h-3.18555v1.67383h3.18555Z"/><path class="cls-1" d="M306.54944,615.77405c1.1875,1.8623,3.40039,2.72559,6.37012,2.83398,2.99609.1084,8.98828.02734,12.3623-.18848-.29688.59375-.70117,1.78125-.83691,2.56348-3.0498.13574-8.47559.18945-11.55273.05469-3.42773-.13574-5.74902-1.02637-7.4502-3.10449-1.26855,1.10645-2.56445,2.18652-3.96777,3.34668l-1.2959-2.59082c1.21484-.75586,2.64551-1.75488,3.91406-2.78027v-6.34375h-3.45508v-2.32129h5.91211v8.53027ZM305.30725,603.16858c-.86328-1.26953-2.80664-3.07715-4.50781-4.26562l1.8623-1.51074c1.67383,1.16016,3.69824,2.83398,4.61621,4.12988l-1.9707,1.64648ZM311.21838,602.14221c-.59375.97168-1.26855,1.8623-1.91602,2.5918-.48633-.37793-1.53906-.94531-2.13281-1.21484,1.67383-1.56543,3.07715-3.99512,3.86035-6.4248l2.34863.51367c-.27051.80957-.62109,1.61914-.97168,2.375h2.59082v-3.21191h2.4834v3.21191h6.18164v2.15918h-6.18164v2.91504h7.31543v2.13281h-17.22168v-2.13281h7.42285v-2.91504h-3.7793ZM309.86877,616.69202v-7.66602h13.14551v7.66602h-13.14551ZM312.32581,614.64026h8.07031v-3.58984h-8.07031v3.58984Z"/><path class="cls-1" d="M336.86877,597.98596c-.80957,1.88867-1.78125,3.75195-2.91504,5.5332v17.97754h-2.50977v-14.44141c-.99902,1.26855-2.0791,2.42969-3.13184,3.40137-.26953-.64844-1.05273-1.99805-1.51172-2.61914,2.99707-2.50977,5.88477-6.53223,7.6123-10.66211l2.45605.81055ZM348.15198,618.82385c1.4043,0,1.59277-.94434,1.80859-4.80469.62109.45898,1.64648.91797,2.34863,1.08008-.32422,4.48047-1.05273,6.07324-3.99512,6.07324h-5.10156c-3.0498,0-3.94141-.91797-3.94141-4.18359v-19.57031h2.51074v9.66309c2.80762-1.56543,5.6416-3.50879,7.50391-5.20898l1.80859,2.18652c-2.56445,1.9707-6.07324,3.91406-9.3125,5.58691v7.36914c0,1.53906.26953,1.80859,1.67383,1.80859h4.69629Z"/><path class="cls-1" d="M357.06702,604.27502c-.54004.62109-1.16113,1.26855-1.80859,1.8623-.29688-.56641-.99902-1.48438-1.43066-1.8623,2.53711-2.21387,4.29199-5.15527,5.18262-7.50391h2.07812c1.80859,1.51172,4.0498,3.6709,5.10254,5.20898l-1.59277,2.16016c-.86426-1.2959-2.56445-3.40137-4.15723-4.83203-.72852,1.34961-1.67383,2.88867-2.91504,4.39941h6.23535v2.10547h-6.69434v-1.53809ZM364.89514,615.77405c0,.99805-.13477,1.64648-.83691,2.02441-.6748.35059-1.64648.4043-3.02344.4043-.05371-.6748-.29688-1.56543-.59375-2.18555.91797.02637,1.67383.02637,1.94336.02637.29688-.02637.35156-.10742.35156-.32422v-5.47949h-2.91602v11.25684h-2.24023v-11.25684h-2.56445v-2.21289h9.87988v7.74707ZM371.07581,617.96057c-1.48438,1.40332-3.99414,2.86133-6.12695,3.6709-.37793-.45898-1.16113-1.24219-1.67383-1.67383,2.10547-.75586,4.48145-2.15918,5.6416-3.32031l2.15918,1.32324ZM370.29358,602.30432c.13477-.72852.29688-1.51172.4043-2.24023h-5.39844v-2.13281h13.55078v2.13281h-5.37207c-.24219.7832-.48535,1.53809-.70117,2.24023h5.26367v14.03613h-11.74219v-14.03613h3.99512ZM375.63831,604.16663h-7.01855v2.24023h7.01855v-2.24023ZM375.63831,608.16174h-7.01855v2.26758h7.01855v-2.26758ZM375.63831,612.1842h-7.01855v2.2666h7.01855v-2.2666ZM374.82776,616.77209c1.56641.94531,3.61719,2.40234,4.66992,3.40137l-1.96973,1.43066c-.94531-.97168-2.96973-2.50977-4.58887-3.5625l1.88867-1.26953Z"/><path class="cls-1" d="M389.33069,614.28967c-2.42969,1.34961-5.02051,2.75293-7.18066,3.83301l-.91699-2.51074c.80957-.35059,1.78125-.7832,2.83398-1.2959v-8.69141h-2.64551v-2.375h2.64551v-6.12793h2.34863v6.12793h2.29395v2.375h-2.29395v7.55762c.75586-.37793,1.48438-.72852,2.24023-1.10645l.6748,2.21387ZM397.88733,616.12463c-3.10449.89062-6.45117,1.78125-8.98828,2.51074l-.62109-2.37598c2.375-.5127,5.93848-1.37598,9.36621-2.26758l.24316,2.13281ZM405.36389,605.54358c-.89062,3.53613-2.13184,6.66699-3.75195,9.3125.54004,2.69922,1.2959,4.31836,2.10547,4.31836.45898,0,.70215-1.02539.7832-3.64355.48535.56641,1.24121,1.10645,1.78125,1.34961-.37793,3.58984-1.05273,4.66992-2.8877,4.66992-1.56641,0-2.69922-1.59277-3.56348-4.18359-1.21484,1.53809-2.59082,2.86035-4.15723,3.96777-.37793-.40527-1.29492-1.24219-1.80762-1.59277,2.10449-1.32227,3.83203-3.07715,5.29004-5.18262-.62109-3.21191-.97168-7.28809-1.13379-11.66113h-8.90723v-2.26758h8.82617c-.02637-1.26855-.05371-2.53711-.05371-3.80566h2.40234c-.02734,1.2959,0,2.56445,0,3.80566h3.64355c-.6748-.78223-1.83496-1.83496-2.83398-2.56348l1.43066-1.24219c1.10645.75586,2.4834,1.88965,3.1582,2.69922l-1.1875,1.10645h1.32227v2.26758h-5.45215c.10742,3.10449.35059,5.96582.64746,8.39453.89062-1.88867,1.56543-3.94043,2.10547-6.18066l2.24023.43164ZM396.67249,605.11194v7.93555h-6.74805v-7.93555h6.74805ZM394.70178,607.08167h-2.86133v3.99512h2.86133v-3.99512Z"/><path class="cls-1" d="M411.85022,601.22424c1.94336-.18848,6.7207-.64746,11.63379-1.05273,2.83398-.24219,5.5332-.4043,7.3418-.45801l.02734,2.72559c-1.48535,0-3.80664.02734-5.20996.37793-3.53613,1.08008-5.88477,4.85938-5.88477,8.01758,0,4.88477,4.53516,6.47754,8.93457,6.69336l-.97168,2.86133c-5.23633-.26953-10.71582-3.07715-10.71582-8.96094,0-4.04883,2.34863-7.28809,4.50781-8.66504-2.32129.24316-8.88086.89062-11.87695,1.53906l-.26953-2.94238c1.02539-.02734,1.94336-.08105,2.4834-.13574ZM429.28674,609.10706l-1.67285.75488c-.64844-1.37598-1.34961-2.61816-2.16016-3.77832l1.62012-.70215c.64746.94531,1.64648,2.5918,2.21289,3.72559ZM432.36389,607.86487l-1.64648.80957c-.70117-1.37598-1.40332-2.56445-2.2666-3.72461l1.61914-.72852c.64746.91699,1.7002,2.53711,2.29395,3.64355Z"/><path class="cls-1" d="M264.94202,642.81604v1.91602c0,4.58887-.4043,11.2832-3.13086,15.68359-.43164-.40527-1.51172-1.05273-2.15918-1.26855,2.59082-4.15723,2.83398-10.14941,2.83398-14.41504v-7.82715h20.21777v5.91113h-17.76172ZM264.94202,638.87463v1.9707h15.27832v-1.9707h-15.27832ZM283.13538,658.47229c0,.99805-.18848,1.45703-.89062,1.75391s-1.80859.29688-3.37402.29688c-.13477-.54004-.40527-1.21484-.64746-1.72754l.29688.02734c-.1084-.29688-.24316-.56738-.40527-.91797-3.29297.21582-6.64062.37793-9.09668.48633l-.16211-1.80859c1.1875-.02734,2.64551-.08105,4.23828-.13574v-1.88867h-5.10156v6.01953h-2.26758v-7.7207h7.36914v-1.29492h-6.31641v-4.64355h6.31641v-1.21387c-2.13281.10742-4.31934.18848-6.31641.18848-.05371-.45898-.27051-1.13379-.48633-1.59277,4.80469-.05371,10.7168-.4043,13.92871-1.05273l1.43066,1.48438c-1.7002.35156-3.91406.62109-6.2627.81055v1.37598h6.55957v4.64355h-6.55957v1.29492h7.74707v5.61523ZM273.09436,650.05042v-1.62012h-4.07617v1.62012h4.07617ZM275.38831,648.4303v1.62012h4.18457v-1.62012h-4.18457ZM279.32971,658.82288c.54004.02734.91797.02734,1.10645,0,.29688-.02734.37793-.08105.37793-.35059v-3.91406h-5.42578v1.80859l1.91699-.08105c-.18945-.35156-.40527-.70215-.59375-1.02637l1.48438-.37793c.78223,1.16113,1.61914,2.72656,1.9707,3.6709l-.83691.27051Z"/><path class="cls-1" d="M300.31018,636.49963c-.02734.37793-.02734.83691-.08105,1.32227.24316,3.59082,1.64648,15.70996,11.74219,20.35254-.7832.59473-1.51172,1.43066-1.91699,2.10547-6.53223-3.15723-9.52832-9.33887-10.93164-14.54883-1.2959,5.15625-4.12988,10.98633-10.39258,14.57617-.45898-.64746-1.26855-1.43066-2.07812-1.9707,10.79688-5.74902,10.63477-18.27344,10.82422-21.83691h2.83398Z"/><path class="cls-1" d="M313.51721,647.83655c.64746-1.80859,1.16016-4.77734,1.34961-6.96387l1.80859.26953c-.13574,2.21387-.62109,5.34473-1.26953,7.34277l-1.88867-.64844ZM338.37756,657.25745v2.375h-16.54688v-2.375h7.50391v-6.12793h-5.47949v-2.34766h5.47949v-5.0752h-3.50879c-.5127,1.51172-1.10742,2.88867-1.72754,3.99512-.5127-.35059-1.62012-.91797-2.24023-1.16113.35059-.53906.70117-1.16016.99805-1.8623l-1.51172.72852c-.24219-1.0791-.94434-2.80664-1.61914-4.2373v19.35352h-2.51074v-24.75195h2.51074v4.99316l1.59277-.64746c.6748,1.26855,1.43066,2.91504,1.75391,4.04883.83691-2.10547,1.43066-4.64258,1.78223-7.17969l2.45605.4043c-.18945,1.34961-.48633,2.67285-.80957,3.94141h2.83398v-5.45312h2.51074v5.45312h5.83008v2.375h-5.83008v5.0752h5.23633v2.34766h-5.23633v6.12793h6.53223Z"/><path class="cls-1" d="M351.58362,637.47131c-.13477.56738-.29688,1.24219-.4043,1.83594-.13574.80957-.37793,2.10547-.62109,3.31934,1.08008-.08008,2.05176-.13477,2.67188-.13477,2.56445,0,4.53516,1.08008,4.53516,4.80469,0,3.1582-.40527,7.39648-1.51172,9.69043-.89062,1.80859-2.26758,2.32129-4.12988,2.32129-1.02539,0-2.29395-.18848-3.18555-.4043l-.45801-2.80762c1.10645.32422,2.56348.56738,3.29297.56738.94434,0,1.7002-.24316,2.18652-1.26855.80957-1.67383,1.1875-5.02148,1.1875-7.80176,0-2.29395-1.02637-2.67188-2.72656-2.67188-.54004,0-1.43066.05371-2.42969.13477-.97168,3.94141-2.86035,10.06836-5.50586,14.33301l-2.78027-1.10645c2.67188-3.56348,4.58887-9.3125,5.5332-12.92969-1.21484.13477-2.29395.24316-2.91504.32422-.70215.08105-1.88965.24316-2.64551.37793l-.26953-2.91504c.91797.05371,1.67285.02637,2.59082,0,.86426-.02734,2.29492-.13574,3.7793-.27051.37793-1.9707.64746-3.99512.64746-5.72266l3.1582.32422ZM361.19299,640.95374c1.62012,2.42871,3.58984,6.74805,4.40039,9.04199l-2.67285,1.26855c-.75586-2.86035-2.78027-7.55762-4.66992-9.8252l2.51074-1.10645c.13477.18945.26953.37793.43164.59375-.54004-1.0791-1.40332-2.69922-2.15918-3.72461l1.75488-.72949c.6748.97168,1.64648,2.67285,2.18652,3.72559l-1.78223.75586ZM364.32483,639.7926c-.56738-1.16016-1.43066-2.69922-2.21387-3.72461l1.75488-.72852c.70117.99805,1.72754,2.69922,2.24023,3.69727l-1.78125.75586Z"/><path class="cls-1" d="M391.86389,638.17346v2.18652h-23.29395v-2.18652h10.22949v-2.42969h2.56445v2.42969h10.5ZM390.9469,657.71643c0,1.26855-.27051,1.96973-1.18848,2.375-.94434.37793-2.34766.40527-4.45312.40527-.1084-.70215-.45898-1.67383-.7832-2.32227h-7.20703v1.2959h-2.18652v-7.12598h10.20312v5.83008c1.18848.02734,2.21387.02734,2.53809-.02637.43164,0,.56641-.1084.56641-.45898v-6.8291h-16.27637v9.69043h-2.45703v-11.7959h21.24414v8.96191ZM387.49182,641.65491v5.6416h-14.52246v-5.6416h14.52246ZM384.95374,643.38245h-9.55469v2.18652h9.55469v-2.18652ZM383.09143,654.12561h-5.77637v2.29492h5.77637v-2.29492Z"/><path class="cls-1" d="M399.9967,642.32971c-.02734,1.67383,0,3.94141.18848,6.01953.40527,4.21094,1.48438,7.01855,3.2666,7.01855,1.34961,0,2.50977-2.91504,3.10352-5.37207l2.16016,2.51074c-1.70117,4.58887-3.34766,6.18164-5.31836,6.18164-2.69922,0-5.18262-2.5918-5.91113-9.63672-.26953-2.34863-.29688-5.5332-.29688-7.15332,0-.6748-.02734-1.78125-.18848-2.50977l3.26562.05371c-.13477.78223-.26953,2.15918-.26953,2.8877ZM418.72913,653.45081l-2.78027,1.08008c-.43164-4.58887-1.9707-10.33789-4.66992-13.52344l2.67285-.89062c2.45605,3.10449,4.42676,8.98828,4.77734,13.33398Z"/><rect class="cls-1" x="211.95439" y="538.10572" width="249.6606" height="39.83212"/><path class="cls-15" d="M243.95667,555.98987l-1.27637,1.95801c-1.16602-.83594-3.49902-2.33203-4.90723-3.08008l1.25488-1.89258c1.38574.74805,3.89453,2.28809,4.92871,3.01465ZM246.17834,561.16077c3.6748-2.09082,6.64551-5.03906,8.42773-8.16309l1.32031,2.33203c-1.95898,2.99219-5.0166,5.80859-8.58105,7.87695-2.22266,1.29785-5.30273,2.35449-7.30566,2.72852l-1.29785-2.2666c2.44238-.41797,5.12695-1.23242,7.43652-2.50781ZM247.25647,551.12659l-1.29785,1.89258c-1.12207-.81445-3.47656-2.37598-4.84082-3.14648l1.25488-1.89258c1.36328.77051,3.84961,2.39844,4.88379,3.14648Z"/><path class="cls-15" d="M275.61584,550.31311c-.1543.21973-.48438.76953-.6377,1.14355-.77051,1.80469-2.06836,4.29102-3.60938,6.27148,2.2666,1.93652,4.92871,4.77441,6.29297,6.44629l-1.95801,1.7168c-1.42969-1.98047-3.63086-4.40039-5.80859-6.4248-2.35449,2.50781-5.30273,4.8623-8.47168,6.31445l-1.78223-1.84766c3.56445-1.36426,6.86523-4.00488,9.04395-6.44727,1.49609-1.67188,2.96973-4.09277,3.49805-5.80859h-8.0752c-.8584,0-2.0459.10938-2.39844.13184v-2.48633c.44043.06543,1.7168.1543,2.39844.1543h8.16309c.81445,0,1.54004-.08887,1.91406-.2207l1.43066,1.05664Z"/><path class="cls-15" d="M298.07776,554.27307c.46191,0,1.29785-.04395,1.84863-.10938v2.26562c-.50586-.04395-1.27637-.06543-1.84863-.06543h-5.6543c-.08887,2.33203-.52832,4.26855-1.36426,5.875-.79199,1.47363-2.46484,3.12402-4.37891,4.0918l-2.02441-1.49609c1.62793-.66016,3.19043-1.91406,4.07031-3.27832.94629-1.47363,1.23242-3.21191,1.32031-5.19238h-6.3584c-.66016,0-1.38672.02148-2.00293.06543v-2.26562c.61621.06543,1.32031.10938,2.00293.10938h14.38965ZM286.43811,550.77502c-.72559,0-1.54004.02148-2.15625.06543v-2.26562c.66016.08789,1.43066.15332,2.15625.15332h8.86719c.68262,0,1.49609-.04395,2.2002-.15332v2.26562c-.7041-.04395-1.51758-.06543-2.2002-.06543h-8.86719Z"/><path class="cls-15" d="M320.07776,565.97913c-.28613-.77051-.68164-1.73828-1.14453-2.75-3.49805.41797-10.53906,1.1875-13.39941,1.45215-.5498.06543-1.27637.17578-1.93652.26367l-.39551-2.55273c.68164,0,1.54004,0,2.2002-.04395.26367-.02148.57227-.02148.90234-.04395,1.23145-3.14648,3.32227-9.70312,3.93848-11.94727.30762-1.05664.39551-1.65039.4834-2.28809l2.75098.57129c-.24219.59473-.52832,1.25488-.83594,2.22266-.66016,2.08984-2.66309,8.31738-3.7627,11.22168,2.99219-.26367,6.71094-.68262,9.06543-.99023-.83691-1.67188-1.73828-3.27832-2.50879-4.29102l2.13477-.92383c1.54004,2.31055,3.89453,6.68945,4.83984,9.04297l-2.33203,1.05664Z"/><path class="cls-15" d="M327.66565,555.04358v11.81543h-2.02441v-19.31836h8.16309v7.50293h-6.13867ZM327.66565,549.05823v1.47461h4.22461v-1.47461h-4.22461ZM331.89026,553.54749v-1.60645h-4.22461v1.60645h4.22461ZM337.72131,561.73206v4.73145h-1.82617v-4.73145h-2.66211c-.17676,1.47461-.88086,3.71875-2.88281,5.06152-.28613-.37402-.90234-.9248-1.32031-1.21094,1.62793-.98926,2.24414-2.63965,2.4209-3.85059h-2.50879v-1.69336h2.57422v-2.09082h-2.17773v-1.62793h10.6709v1.62793h-2.28809v2.09082h2.72852v1.69336h-2.72852ZM335.89514,560.0387v-2.09082h-2.61816v2.09082h2.61816ZM343.8385,564.3512c0,1.12207-.2207,1.71582-.94629,2.06836-.7041.33008-1.80469.39551-3.45508.37402-.06543-.55078-.35156-1.47461-.66016-2.02441,1.12305.02148,2.24512.02148,2.59668.02148.33008-.02148.44043-.13184.44043-.46191v-9.24121h-6.31543v-7.54688h8.33984v16.81055ZM337.45764,549.05823v1.47461h4.35645v-1.47461h-4.35645ZM341.81409,553.59143v-1.65039h-4.35645v1.65039h4.35645Z"/><path class="cls-15" d="M360.35901,556.18811v2.9043h4.97266v1.8916h-4.97266v3.01465c0,.74805.11035.8584.81445.8584h2.13477c.6377,0,.74805-.44043.83594-2.61816.46191.33008,1.27637.68164,1.82617.79199-.17578,2.83789-.74805,3.65234-2.46484,3.65234h-2.68359c-2.06836,0-2.5752-.59375-2.5752-2.68457v-3.01465h-3.49805c-.41797,2.33301-1.80469,4.5332-5.96289,5.96289-.24219-.46191-.87988-1.25391-1.29785-1.60547,3.3877-1.12305,4.68652-2.70703,5.14844-4.35742h-4.66504v-1.8916h4.90723v-2.9043h-2.13477v-.79297c-.99023.72656-2.0459,1.36426-3.12402,1.84863-.24219-.46191-.83594-1.18848-1.23242-1.54004,1.43066-.59375,2.83887-1.49609,4.09277-2.59668-.61621-.66016-1.62891-1.49609-2.4209-2.1123l1.27637-1.07812c.79199.52832,1.78223,1.29883,2.4209,1.91406.68164-.76953,1.27539-1.62793,1.75977-2.50781h-5.0166v-1.78223h6.00684l.37402-.06641,1.3418.63867c-.85742,2.46387-2.33203,4.51074-4.0918,6.13867h9.21875c-1.91406-1.89258-3.43262-4.3125-4.4668-7.01953l1.80469-.52734c.35156.90137.77051,1.75977,1.27637,2.5957.8584-.74805,1.78223-1.65039,2.35449-2.35449l1.54004,1.07812c-.94629.90234-2.06836,1.87109-3.01465,2.5752.37402.50586.79199.99023,1.20996,1.45215,1.0127-.79199,2.13477-1.82617,2.83887-2.61914l1.51758,1.05664c-.96777.92383-2.17773,1.89258-3.21191,2.64062,1.14355.96777,2.41992,1.75977,3.80664,2.31055-.46191.39551-1.10059,1.20996-1.4082,1.75977-1.05664-.48438-2.04688-1.07812-2.94824-1.80469v.79297h-2.28906ZM358.2467,556.18811h-3.34375v2.9043h3.34375v-2.9043Z"/><path class="cls-15" d="M378.22229,563.77893c.77051-.06641,1.4082-.17578,1.93652-.30859,2.79492-.6377,5.28125-2.66211,5.28125-6.18262,0-3.16797-1.89258-5.6543-5.2373-6.07227-.30762,1.95801-.7041,4.07031-1.29785,6.11621-1.32031,4.44531-3.12402,6.93164-5.30273,6.93164-2.15625,0-4.13672-2.44238-4.13672-6.07324,0-4.84082,4.29102-9.04297,9.74707-9.04297,5.2373,0,8.55957,3.65234,8.55957,8.22852,0,4.55469-2.92676,7.72363-8.25098,8.47168l-1.29883-2.06836ZM376.68225,556.86975c.55078-1.71582.96875-3.69629,1.18848-5.61035-3.91699.6377-6.20508,4.04785-6.20508,6.73242,0,2.50879,1.12207,3.65234,2.00195,3.65234.94629,0,2.00293-1.4082,3.01465-4.77441Z"/><path class="cls-15" d="M410.82874,565.7594h-7.34961v1.12207h-1.84863v-11.81641c-.17578.28613-.35156.55078-.52734.79297-.2207-.19824-.63867-.59473-1.03418-.90234v1.71582h-3.47656v1.14453h3.49805v1.51855h-3.49805v.24121c0,.33008-.02246.66016-.04395,1.0127h4.07031v1.62793h-4.35645l-.04395.11035c1.16602.68164,3.4541,2.17773,4.11426,2.64062l-1.18848,1.67188c-.79199-.7041-2.37598-1.98047-3.58594-2.83887-.72656,1.16699-1.91406,2.2666-3.89453,3.125-.24219-.39648-.79199-1.05664-1.23242-1.4082,2.15625-.83594,3.25684-2.06836,3.78418-3.30078h-3.6084v-1.62793h4.02734c.04395-.35254.06543-.7041.06543-1.03418v-.21973h-3.30078v-1.51855h3.30078v-1.14453h-3.36621v-4.73047h8.73535v1.93652c1.27637-1.91406,2.31055-4.57715,2.96973-7.2168l1.89258.43945c-.33008,1.23242-.74805,2.48633-1.20996,3.6748h2.08984c.50684-1.20996,1.0127-2.75098,1.29883-3.89453l1.98047.46191c-.41895,1.16602-.9248,2.39844-1.38672,3.43262h2.88281v1.82617h-2.9043v2.55273h2.75v1.73828h-2.75v2.61816h2.75v1.73828h-2.75v2.66211h3.14648v1.84863ZM392.71936,550.18127h-1.95801v-1.62891h1.95801v-1.8916h1.80469v1.8916h2.41992v-1.8916h1.80469v1.8916h1.91406v1.62891h-1.91406v1.3418h-1.80469v-1.3418h-2.41992v1.3418h-1.80469v-1.3418ZM392.89612,555.28577h1.87012v-1.93652h-1.87012v1.93652ZM398.37463,553.34924h-1.91406v1.93652h1.91406v-1.93652ZM405.83362,552.6012h-2.35449v2.55273h2.35449v-2.55273ZM405.83362,556.89221h-2.35449v2.61816h2.35449v-2.61816ZM403.47913,563.91077h2.35449v-2.66211h-2.35449v2.66211Z"/><path class="cls-15" d="M415.70959,555.4176v11.44141h-2.02441v-19.31836h8.09766v7.87695h-6.07324ZM415.70959,549.16858v1.54004h4.13672v-1.54004h-4.13672ZM419.84631,553.81116v-1.65039h-4.13672v1.65039h4.13672ZM420.35217,563.77893v1.27637h-1.8916v-7.87793h8.29492v6.60156h-6.40332ZM420.35217,558.89417v3.19043h4.48926v-3.19043h-4.48926ZM431.81604,564.26331c0,1.23145-.28613,1.87012-1.07812,2.22168-.81445.33008-2.1123.35254-4.09277.35254-.06543-.57227-.39551-1.51855-.7041-2.09082,1.38672.06641,2.81641.04395,3.25684.04395.41797-.02148.52832-.15332.52832-.5498v-8.80078h-6.20508v-7.89941h8.29492v16.72266ZM425.47913,549.14709v1.56152h4.24707v-1.56152h-4.24707ZM429.7262,553.83362v-1.67285h-4.24707v1.67285h4.24707Z"/><path d="M276.31604,749.45374v2.06934h-20.41895v-2.06934h9.10547v-5.28906h-6.55371v-2.0459h6.55371v-4.59961h-5.10449c-.71289,1.37988-1.47168,2.59863-2.27637,3.56445-.4375-.36816-1.37988-.98828-1.95508-1.28711,1.86328-1.95508,3.31152-5.10547,4.16211-8.32422l2.20801.50586c-.34473,1.17285-.75879,2.34473-1.19629,3.44922h4.16211v-4.27734h2.20801v4.27734h8.00195v2.0918h-8.00195v4.59961h7.15137v2.0459h-7.15137v5.28906h9.10547Z"/><path d="M298.09729,738.96838c-.96582,2.96582-2.32227,5.56445-4.00098,7.77246.78223,1.9541,1.67871,3.14941,2.64453,3.14941.59766,0,.87402-1.17188,1.01172-4.13867.50586.50586,1.26465.98926,1.83984,1.19531-.34473,4.04785-1.12695,5.12793-3.0127,5.12793-1.67871,0-3.01172-1.28711-4.04688-3.44922-1.31055,1.37988-2.75977,2.55273-4.3457,3.51855-.32227-.45996-1.08105-1.35645-1.56445-1.74805,1.90918-1.05762,3.61035-2.39062,5.01367-4.02344-.82812-2.59863-1.35742-5.88672-1.63281-9.47363h-7.3584v2.78223h5.77148v.82812c-.11523,4.98926-.22949,6.9668-.71289,7.61035-.41406.4834-.85059.66699-1.47168.73633-.57422.0918-1.60938.0918-2.71289.0459-.0459-.62109-.25293-1.44922-.5752-2.00098.94238.09277,1.83984.11523,2.20703.11523.32227,0,.55273-.06934.71289-.27539.25293-.32227.3916-1.63281.45996-5.10547h-3.67871c-.02344,3.26562-.41406,7.86426-2.4375,10.83105-.36816-.4375-1.31055-1.19629-1.79395-1.47168,1.83984-2.75977,2.00098-6.71484,2.00098-9.68066v-6.50781h9.45117c-.06934-1.19629-.11523-2.4375-.11523-3.65625h2.25293c-.02246,1.24121,0,2.45996.06934,3.65625h4.43848c-.89746-.75879-2.3916-1.74805-3.61035-2.41504l1.28711-1.31055c1.35742.71289,3.08203,1.77051,3.97852,2.55273l-1.10352,1.17285h2.3457v2.09277h-7.2207c.22949,2.73633.59766,5.21973,1.12695,7.26562,1.10352-1.70117,1.9541-3.60938,2.62109-5.72559l2.16113.5293Z"/><path d="M316.36194,745.59045h-5.88672l-1.44824,4.8291h-2.71387l5.61035-16.92383h3.08203l5.61035,16.92383h-2.82812l-1.42578-4.8291ZM315.71838,743.49768l-.66699-2.27637c-.5752-1.83887-1.08105-3.72461-1.60938-5.63281h-.09277c-.48242,1.93066-1.01172,3.79395-1.56348,5.63281l-.68945,2.27637h4.62207Z"/><path d="M322.84924,733.49573h2.66699v16.92383h-2.66699v-16.92383Z"/><path d="M344.48987,749.01721c.80469-.06934,1.47168-.18457,2.02344-.32227,2.9209-.66699,5.51855-2.78223,5.51855-6.46191,0-3.31055-1.97754-5.90918-5.47266-6.3457-.32129,2.0459-.73535,4.25391-1.35645,6.3916-1.37988,4.64551-3.26562,7.24414-5.54199,7.24414-2.25293,0-4.32324-2.55273-4.32324-6.34668,0-5.05859,4.48438-9.45117,10.1875-9.45117,5.47266,0,8.94434,3.81738,8.94434,8.59961,0,4.76074-3.05762,8.07129-8.62305,8.85352l-1.35645-2.16113ZM342.88049,741.79651c.57422-1.79297,1.01172-3.86328,1.24121-5.86328-4.09277.66699-6.48438,4.23047-6.48438,7.03613,0,2.62109,1.17285,3.81738,2.09277,3.81738.98828,0,2.09277-1.47168,3.15039-4.99023Z"/><path d="M372.24963,733.60999c2.27637,1.83984,4.99023,4.48438,6.18555,6.41602l-1.88574,1.42578c-.36719-.64355-.89648-1.37988-1.54004-2.13867-6.13965.29883-12.62402.55176-16.85547.73633l-.16113-2.16211,3.47266-.11523c1.33301-2.02344,2.75879-4.69043,3.63281-6.7832l2.3916.82812c-1.01172,1.93164-2.27637,4.07031-3.47266,5.86328,2.875-.11426,6.04785-.22949,9.19824-.36719-.87402-.87402-1.77051-1.72461-2.64453-2.46094l1.67871-1.24219ZM360.59143,742.34827h14.78613v9.8418h-2.2998v-.94238h-10.30176v.96582h-2.18457v-9.86523ZM362.776,744.39514v4.78223h10.30176v-4.78223h-10.30176Z"/><path d="M390.1217,748.97131c-3.24219.75879-6.69141,1.54004-9.24414,2.11523l-.50586-2.00098c1.65625-.29883,3.93262-.75879,6.32422-1.26465l-.91992-.25293c.34473-1.26465.75879-3.24219.91992-4.62207l2.06934.4834c-.41406,1.44824-.85059,3.05762-1.24219,4.23047l2.41504-.50586.18359,1.81738ZM389.77698,734.25452h-9.05957v-1.97754h9.05957v1.97754ZM389.27112,742.4176h-7.91016v-6.23145h7.91016v6.23145ZM382.60217,747.72913c-.0459-1.10352-.34473-2.82812-.82715-4.16211l1.72461-.43652c.50586,1.31055.87305,3.03516.94238,4.16211l-1.83984.43652ZM387.33948,737.91077h-4.16211v2.80469h4.16211v-2.80469ZM394.95081,749.2467c-1.21875,1.14941-3.28809,2.36816-5.0127,3.0127-.32227-.3916-.96582-1.01172-1.42578-1.40332,1.72461-.59766,3.70215-1.77051,4.64453-2.71289l1.79395,1.10352ZM394.10022,735.86389c.1377-.62109.25293-1.28809.34473-1.9082h-4.07031v-1.81738h11.01465v1.81738h-4.55273c-.20703.66699-.41406,1.31055-.59766,1.9082h4.50684v11.95703h-9.75v-11.95703h3.10449ZM398.69885,737.45081h-5.72559v1.9082h5.72559v-1.9082ZM398.69885,740.85413h-5.72559v1.93066h5.72559v-1.93066ZM398.69885,744.27991h-5.72559v1.93164h5.72559v-1.93164ZM398.07776,748.28088c1.28809.78223,2.99023,2.00098,3.88672,2.82812l-1.72461,1.15039c-.80469-.82812-2.4834-2.09277-3.79395-2.94336l1.63184-1.03516Z"/><path d="M406.40784,734.92151c1.65527-.16113,5.72559-.55176,9.91016-.89746,2.41504-.20703,4.71387-.34473,6.25488-.39062l.02344,2.32227c-1.26562,0-3.24316.02344-4.43848.32227-3.0127.91992-5.0127,4.13867-5.0127,6.8291,0,4.16211,3.86328,5.51855,7.61133,5.70312l-.82812,2.4375c-4.46094-.23047-9.12891-2.62207-9.12891-7.63477,0-3.44922,2.00098-6.20801,3.83984-7.38086-1.97754.20703-7.56543.75879-10.11719,1.31055l-.23047-2.50684c.87402-.02246,1.65625-.06836,2.11621-.11426ZM421.26233,741.63538l-1.42578.64355c-.55176-1.17188-1.14941-2.22949-1.83984-3.21875l1.37988-.59766c.55176.80469,1.40234,2.20703,1.88574,3.17285ZM423.88342,740.57776l-1.40234.69043c-.59766-1.17285-1.19629-2.18457-1.93164-3.17383l1.37988-.62109c.55176.78223,1.44824,2.16211,1.9541,3.10449Z"/><path d="M230.69885,773.03772c-.78223,1.97754-2.06934,3.95508-3.37988,5.24219-.36816-.34473-1.19629-.96582-1.65625-1.28711,1.26465-1.10449,2.3916-2.78223,3.03613-4.46094l2,.50586ZM235.13733,776.78577c-.41406,1.44824-.94336,2.78223-1.54102,4.02344,1.05762.96582,2.00098,1.93164,2.62109,2.7373l-1.37891,1.74707c-.5293-.75879-1.35742-1.67871-2.32324-2.64453-1.40234,2.20801-3.19629,3.97852-5.33496,5.33496-.27539-.43652-1.03418-1.31055-1.47168-1.70117,2.18457-1.19629,3.95508-2.9209,5.2666-5.08203-.94336-.87402-1.95508-1.70215-2.89746-2.4375l1.24121-1.47168c.85059.62109,1.74805,1.33398,2.64453,2.09277.4375-.96582.78223-1.95508,1.08105-3.03613l2.09277.4375ZM237.29846,771.86487h-11.10645v-1.93164h4.59863v-2.9209h2.09277v2.9209h4.41504v1.93164ZM235.71155,777.54456c-.43652-1.19629-1.58594-3.05859-2.66699-4.39258l1.67871-.82715c1.12695,1.28711,2.29883,3.03516,2.75879,4.25391l-1.77051.96582ZM246.4967,772.0719s0,.73535-.02344,1.01172c-.20703,9.49707-.39062,12.76172-1.12695,13.75098-.45996.68945-.91895.87402-1.65527.96582-.68945.11426-1.81641.0918-2.91992.0459-.0459-.5752-.27637-1.42578-.59863-2.00098,1.12695.0918,2.11621.11523,2.55273.11523.39062,0,.62109-.06934.82812-.39062.50586-.62109.73535-3.54199.91992-11.45215h-2.875c-.29883,5.88672-1.28711,10.85352-4.85156,13.98145-.34473-.4834-1.03516-1.19629-1.56348-1.51758,3.26465-2.75977,4.16211-7.1748,4.3916-12.46387h-2.50586v-2.0459h2.5752c.0459-1.56445.0459-3.19629.0459-4.875h2.04688c0,1.67871-.02344,3.28809-.06934,4.875h4.8291Z"/><path d="M254.50354,778.51038c-1.49414.71289-3.03516,1.42578-4.2998,2l-1.03516-1.74707c1.44922-.4834,3.63379-1.35645,5.74902-2.23047l.39062,1.60938-.39062.18359,1.44922-.06836c.50586-.4834,1.05762-1.03516,1.60938-1.61035-.89746-.78125-2.18457-1.72461-3.24219-2.41406l1.03418-1.19531c.20703.11426.3916.22949.62109.36719.4834-.66602.98926-1.44824,1.37988-2.11523h-7.72656v-1.9541h8.30176v-2.41504h2.20703v2.41504h8.53125v1.9541h-9.68066l.48242.18359c-.71289.94336-1.54004,1.95508-2.23047,2.75977.5293.36816,1.05762.75879,1.49512,1.10352.85059-.98828,1.65527-1.97754,2.25293-2.85059l1.70215.78125c-1.35742,1.58691-3.0127,3.40332-4.57617,4.89844l3.24219-.16113c-.34473-.5293-.73535-1.05762-1.10352-1.51758l1.54004-.66699c.3916.48242.82812,1.01172,1.21875,1.56348l1.31152-1.05762c1.70117.82812,3.90918,2.11523,5.05859,3.03516l-1.58691,1.33398c-.96582-.87402-2.94336-2.13867-4.59863-3.0127.57422.80469,1.05762,1.63281,1.31055,2.27637l-1.63281.80469c-.1377-.36719-.34473-.78125-.59766-1.24121-2.85156.22949-5.67969.43652-7.8877.59766l-.29883-1.60938ZM260.55139,781.68323h9.19824v1.97754h-9.19824v4.39258h-2.20703v-4.39258h-9.01465v-1.97754h9.01465v-1.65527h2.20703v1.65527ZM251.33069,772.04846c1.24121.64355,2.82812,1.67871,3.61035,2.41504l-1.49512,1.28711c-.73535-.73535-2.2998-1.81641-3.51855-2.55273l1.40332-1.14941ZM263.72522,774.66956c1.08008-.75879,2.5293-2,3.33398-2.89648l1.9082.94238c-1.14941,1.05762-2.5752,2.11523-3.67871,2.80566l-1.56348-.85156Z"/><path d="M280.07874,767.95569c-.68945,1.60938-1.51758,3.19629-2.4834,4.71387v15.31445h-2.1377v-12.30176c-.85156,1.08008-1.77148,2.06934-2.66797,2.89648-.22949-.55176-.89648-1.70117-1.28809-2.23047,2.55273-2.1377,5.01367-5.56445,6.48535-9.08301l2.0918.69043ZM289.69104,785.70764c1.19531,0,1.35645-.80469,1.54102-4.09277.52832.39062,1.40234.78125,2,.91895-.27539,3.81738-.89648,5.1748-3.40332,5.1748h-4.3457c-2.59863,0-3.35742-.78223-3.35742-3.56445v-16.67188h2.13867v8.23242c2.3916-1.33398,4.80566-2.98926,6.39258-4.4375l1.54102,1.8623c-2.18457,1.67871-5.17383,3.33398-7.93359,4.75977v6.27734c0,1.31055.22949,1.54102,1.42578,1.54102h4.00098Z"/><path d="M305.51624,774.80823c1.47168,0,2.66797,1.19531,2.66797,2.66699s-1.19629,2.66797-2.66797,2.66797-2.66699-1.19629-2.66699-2.66797,1.19531-2.66699,2.66699-2.66699Z"/><path d="M338.42737,768.96741v1.8623h-19.84473v-1.8623h8.71484v-2.06934h2.18457v2.06934h8.94531ZM337.64612,785.61584c0,1.08008-.23047,1.67871-1.0127,2.02344-.80469.32227-2,.34473-3.79395.34473-.0918-.59766-.39062-1.42578-.66699-1.97754h-6.13965v1.10352h-1.8623v-6.07031h8.69238v4.9668c1.01172.02344,1.88574.02344,2.16113-.02246.36816,0,.4834-.09277.4834-.3916v-5.81738h-13.86621v8.25488h-2.09277v-10.04883h18.09766v7.63477ZM334.70276,771.93323v4.80664h-12.37207v-4.80664h12.37207ZM332.54065,773.40491h-8.13965v1.86328h8.13965v-1.86328ZM330.95374,782.55725h-4.9209v1.95508h4.9209v-1.95508Z"/><path d="M344.84827,775.56702c0,3.61035-.32227,8.94531-2.32227,12.44043-.3916-.3457-1.28809-.96582-1.74805-1.17285,1.8623-3.26562,2.02344-7.93359,2.02344-11.26758v-6.48438h8.27832v-2.16211h2.23047v2.16211h8.37012v1.9082h-16.83203v4.57617ZM360.14026,780.55627c-.96582,1.90918-2.46094,3.35742-4.27734,4.46191,1.83984.59766,3.95508.98828,6.23145,1.21875-.43652.43652-.98926,1.28711-1.24219,1.83887-2.71289-.34473-5.17383-.96582-7.28906-1.9082-2.32227.96582-5.0127,1.54102-7.81836,1.88574-.16113-.5293-.55176-1.35742-.89648-1.79395,2.32227-.22949,4.57617-.62109,6.57617-1.26465-1.26465-.82812-2.32227-1.81641-3.17285-2.9668l1.03418-.39062h-3.51758v-1.72461h12.66992l.39062-.06836,1.31152.71191ZM348.91858,778.71741v-3.67969h-3.40332v-1.74707h3.40332v-1.74805h2.02344v1.74805h4.9668v-1.74805h2.09277v1.74805h3.51758v1.74707h-3.51758v3.67969h-9.08301ZM350.29749,781.63733c.82812.98926,1.95508,1.81641,3.33496,2.4834,1.35645-.66699,2.5293-1.47168,3.40332-2.4834h-6.73828ZM350.94202,775.03772v2.02344h4.9668v-2.02344h-4.9668Z"/><path d="M372.07874,767.95569c-.68945,1.60938-1.51758,3.19629-2.4834,4.71387v15.31445h-2.1377v-12.30176c-.85156,1.08008-1.77148,2.06934-2.66797,2.89648-.22949-.55176-.89648-1.70117-1.28809-2.23047,2.55273-2.1377,5.01367-5.56445,6.48535-9.08301l2.0918.69043ZM381.69104,785.70764c1.19531,0,1.35645-.80469,1.54102-4.09277.52832.39062,1.40234.78125,2,.91895-.27539,3.81738-.89648,5.1748-3.40332,5.1748h-4.3457c-2.59863,0-3.35742-.78223-3.35742-3.56445v-16.67188h2.13867v8.23242c2.3916-1.33398,4.80566-2.98926,6.39258-4.4375l1.54102,1.8623c-2.18457,1.67871-5.17383,3.33398-7.93359,4.75977v6.27734c0,1.31055.22949,1.54102,1.42578,1.54102h4.00098Z"/><path d="M396.11389,768.36975c-.11523.48242-.25293,1.05762-.34473,1.56348-.11523.68945-.32227,1.79297-.5293,2.82812.91992-.06934,1.74805-.11523,2.27637-.11523,2.18457,0,3.86328.91992,3.86328,4.09375,0,2.69043-.34473,6.30078-1.28711,8.25488-.75879,1.54102-1.93164,1.97754-3.51855,1.97754-.87402,0-1.9541-.16113-2.71387-.34473l-.39062-2.3916c.94336.27637,2.18457.48242,2.80566.48242.80469,0,1.44824-.20605,1.8623-1.08008.69043-1.42578,1.01172-4.27734,1.01172-6.64551,0-1.95508-.87402-2.27637-2.32227-2.27637-.45996,0-1.21875.0459-2.06934.11426-.82812,3.35742-2.4375,8.57715-4.69141,12.21094l-2.36816-.94336c2.27637-3.03516,3.90918-7.93262,4.71387-11.01465-1.03516.11523-1.9541.20703-2.4834.27637-.59766.06934-1.60938.20703-2.25391.32227l-.22949-2.48438c.78125.04688,1.42578.02344,2.20703,0,.73633-.02246,1.95508-.11426,3.21973-.22949.32227-1.67871.55176-3.40332.55176-4.875l2.69043.27637ZM404.30042,771.33557c1.37988,2.06934,3.05859,5.74902,3.74805,7.70312l-2.27637,1.08105c-.64453-2.4375-2.36914-6.43848-3.97852-8.37012l2.13867-.94238c.11523.16016.22949.32129.36816.50586-.45996-.91992-1.19629-2.2998-1.83984-3.17383l1.49512-.62109c.57422.82812,1.40234,2.27734,1.8623,3.17383l-1.51758.64355ZM406.96741,770.34729c-.48242-.98926-1.21875-2.2998-1.88574-3.17383l1.49512-.62109c.59766.85156,1.47168,2.2998,1.9082,3.15039l-1.51758.64453Z"/><path d="M430.74963,770.64612h-2.73633v14.53223c0,1.37988-.34473,2.09277-1.31055,2.41504-.98926.39062-2.59863.41406-4.89844.41406-.11523-.62109-.55176-1.67871-.89648-2.2998,1.74707.0918,3.65625.06934,4.20801.06934.50586-.02344.66699-.16113.66699-.64453v-14.48633h-15.45312v-2.13867h20.41992v2.13867ZM414.65295,782.30432v1.79395h-2.06934v-10.44043h9.47363v8.64648h-7.4043ZM414.65295,775.68225v4.59863h5.28906v-4.59863h-5.28906Z"/><path d="M441.3551,768.48401c1.17285,1.58691,2.41406,3.72559,2.87402,5.17383l-1.9082.78223c-.11523-.36816-.29883-.80469-.50586-1.28809-3.15039.18457-6.32324.3916-8.66895.5293l-.18457-2.04688c.5293-.02246,1.10449-.0459,1.74805-.06836.73535-1.44922,1.49512-3.31152,1.9082-4.71387l2.23047.50586c-.57422,1.37891-1.26465,2.85059-1.9082,4.11523l3.93262-.18359c-.41406-.73535-.85156-1.47168-1.31152-2.11523l1.79395-.69043ZM442.66565,785.70764c0,1.01172-.20703,1.56348-.87402,1.9082-.71289.32227-1.72461.3457-3.12695.3457-.11523-.55273-.41406-1.37988-.71289-1.93164.96582.0459,1.9082.0459,2.23047.02246.29883,0,.36816-.0918.36816-.36816v-2.18457h-4.23145v4.48438h-2v-12.92285h8.34668v10.64648ZM436.31897,776.85413v1.63281h4.23145v-1.63281h-4.23145ZM440.55042,781.8678v-1.74805h-4.23145v1.74805h4.23145ZM447.65588,777.01526c-2.41504,0-3.0127-.59766-3.0127-2.78223v-7.2666h2.13867v3.58789c1.77051-.62109,3.56445-1.37988,4.7832-2.02441l1.37988,1.54102c-1.77051.80469-4.07031,1.60938-6.16309,2.23047v1.90918c0,.75879.16113.89648,1.12695.89648h3.12695c.82812,0,.96582-.36816,1.05762-2.50684.45996.34473,1.33398.66699,1.93164.78223-.22949,2.87402-.85059,3.63281-2.80469,3.63281h-3.56445ZM451.1969,785.96057c.89648,0,1.05762-.43652,1.14941-2.89746.4834.32227,1.33398.66699,1.90918.80469-.25293,3.12793-.85059,3.95508-2.875,3.95508h-3.70215c-2.41406,0-3.03516-.62012-3.03516-2.75879v-7.47363h2.11621v3.40332c1.88477-.66699,3.79395-1.49512,5.03516-2.2998l1.37988,1.56348c-1.74707,1.01172-4.20801,1.83984-6.41504,2.50684v2.27637c0,.78223.18359.91992,1.19531.91992h3.24219Z"/><line class="cls-4" x1="484.34388" y1="686.38088" x2="190.13097" y2="686.38088"/><line class="cls-3" x1="32.23706" y1="199.97205" x2="32.23706" y2="202.47205"/><line class="cls-6" x1="32.23706" y1="207.43518" x2="32.23706" y2="681.39929"/><polyline class="cls-3" points="32.23706 683.88098 32.23706 686.38098 34.73706 686.38098"/><line class="cls-5" x1="39.61975" y1="686.38098" x2="144.59692" y2="686.38098"/><line class="cls-3" x1="147.03827" y1="686.38098" x2="149.53827" y2="686.38098"/><polygon class="cls-1" points="160.12909 686.38098 145.20526 692.47913 148.74652 686.38098 145.20526 680.2843 160.12909 686.38098"/></g></svg>