<?xml version="1.0" encoding="UTF-8"?><svg id="_レイヤー_2" xmlns="http://www.w3.org/2000/svg" viewBox="0 0 256.96094 340.02051"><defs><style>.cls-1{fill:#fff;}.cls-2{stroke:#a0afb5;stroke-miterlimit:10;}.cls-2,.cls-3{fill:#a0afb5;}</style></defs><g id="_レイヤー_1-2"><path class="cls-1" d="M14.69629,278.9668l-3.22461.52686c-1.14648,3.22461-3.50391,6.57324-7.96875,8.74365-.61914-.86816-1.8291-2.01562-2.69727-2.75977,3.10059-1.30176,5.08496-3.22461,6.29492-5.27051-2.32617.37207-4.52734.71289-6.3877.99219l-.71289-3.65918c2.2627-.2168,5.30176-.58887,8.55762-1.02295.24805-1.08545.34082-2.13916.34082-2.97656v-.03076H1.64355v-3.34863h7.25488v-3.68994H1.30176v-3.44189h7.59668v-3.96875h3.62793v14.44922c0,.7749-.0625,1.6123-.18652,2.51123l2.23242-.31006.12402,3.25586ZM28.99023,280.73389h-8.92969v7.13135h-3.68945v-28.80469h3.68945v3.96875h8.37207v3.44189h-8.37207v3.68994h7.68945v3.34863h-7.68945v3.81348h8.92969v3.41064Z"/><path class="cls-1" d="M43.15723,278.43945c-.40332-.96094-1.08594-2.41846-1.76758-3.81348v13.20801h-3.34863v-11.5957c-.80566,2.38721-1.76758,4.55762-2.82129,6.10791-.3418-1.02295-1.08594-2.41846-1.6123-3.25537,1.73633-2.41895,3.37988-6.72852,4.1543-10.38721h-3.44141v-3.41064h3.7207v-6.38721h3.34863v6.38721h3.10059v3.41064h-3.10059v1.45752c.86816,1.20898,3.16211,4.77441,3.6582,5.64258l-1.89062,2.63574ZM63.03223,282.99707h-1.6748v1.3335c0,1.55029-.30957,2.32568-1.33301,2.82178-1.02344.46484-2.48047.49609-4.43359.49609-.15527-.86816-.55859-2.07764-.96191-2.91504,1.14746.0625,2.41895.03125,2.79102.03125.40332,0,.52637-.09277.52637-.46484v-1.30273h-8.71191v4.62012h-3.31738v-4.62012h-1.8916v-2.69727h1.8916v-7.75146h5.95312v-1.17822h-7.28711v-2.60449h3.84473v-1.30225h-2.54199v-2.48047h2.54199v-1.271h-3.19336v-2.54297h3.19336v-2.26318h3.41113v2.26318h3.41016v-2.26318h3.44141v2.26318h3.47266v2.54297h-3.47266v1.271h2.97656v2.48047h-2.97656v1.30225h4.03125v2.60449h-7.53418v1.17822h6.16992v7.75146h1.6748v2.69727ZM49.23438,275.09082v1.33301h2.63574v-1.33301h-2.63574ZM49.23438,280.2998h2.63574v-1.48828h-2.63574v1.48828ZM51.83887,264.98291h3.41016v-1.271h-3.41016v1.271ZM51.83887,268.76562h3.41016v-1.30225h-3.41016v1.30225ZM55.1875,275.09082v1.33301h2.75879v-1.33301h-2.75879ZM57.94629,280.2998v-1.48828h-2.75879v1.48828h2.75879Z"/><path class="cls-1" d="M75.13379,280.67188c1.27051,2.07715,3.5957,2.91455,6.82031,3.03857,3.62793.15479,10.60449.06201,14.72852-.24805-.40332.86816-.96094,2.6665-1.14746,3.7207-3.7207.18604-9.95312.24805-13.64258.09326-3.81348-.15527-6.35645-1.02344-8.37207-3.44189-1.36328,1.20947-2.72852,2.41846-4.43359,3.7207l-1.79785-3.84473c1.33301-.7749,2.88379-1.79834,4.24707-2.85254v-6.54248h-3.56543v-3.37939h7.16309v9.73584ZM72.99414,266.75c-.96191-1.48828-3.16309-3.53418-4.99219-4.89844l2.72852-2.23242c1.86035,1.30176,4.12402,3.22461,5.17773,4.68164l-2.91406,2.44922ZM78.41992,268.14551c-.74414-.55811-2.23242-1.33301-3.06934-1.73633,1.92188-1.70508,3.50391-4.43359,4.40234-7.19336l3.44141.77539c-.27832.80566-.58887,1.6123-.96094,2.38721h2.1709v-3.44189h3.6582v3.44189h6.75977v3.13135h-6.75977v2.63574h8.03027v3.06934h-19.93652v-3.06934h2.26367ZM80.52832,265.50977c-.65137.99219-1.33301,1.8916-2.04688,2.63574h5.92285v-2.63574h-3.87598ZM78.63672,281.94336v-9.02295h15.59668v9.02295h-15.59668ZM82.2334,278.99756h8.1543v-3.1626h-8.1543v3.1626Z"/><path class="cls-1" d="M112.78613,260.51807c-.89844,2.1084-1.98438,4.2168-3.22461,6.26318v21.02197h-3.68945v-15.81299c-.99219,1.20898-2.04688,2.3252-3.06934,3.28662-.40332-.93018-1.45801-2.97656-2.13965-3.90674,3.34863-2.82129,6.60449-7.37939,8.46484-12.06152l3.6582,1.20947ZM125.0957,284.05176c1.48828,0,1.73633-1.05469,1.98438-5.42627.86816.65088,2.41895,1.36426,3.41113,1.58154-.43457,5.33301-1.39551,7.28613-5.05469,7.28613h-5.30176c-3.90723,0-5.02246-1.24023-5.02246-5.6123v-22.16895h3.7207v10.604c2.91406-1.67432,5.7666-3.65869,7.8125-5.42627l2.72852,3.22461c-3.06934,2.1709-6.91406,4.24805-10.54102,5.98438v7.81348c0,1.8291.2168,2.13965,1.70508,2.13965h4.55762Z"/><path class="cls-1" d="M137.55078,269.88184h20.30859c.65137,0,2.01562-.06201,2.82129-.18604v4.03076c-.77441-.06201-1.95312-.09277-2.82129-.09277h-7.47168c-.18652,3.19336-.86914,5.79785-1.98438,7.96826-1.08594,2.17041-3.47266,4.55811-6.23242,5.95312l-3.62793-2.63525c2.20117-.8374,4.37207-2.60449,5.6123-4.43408,1.27148-1.92236,1.79785-4.24756,1.92188-6.85205h-8.52637c-.89941,0-2.1084.06152-2.97656.12402v-4.06201c.93066.12402,2.01562.18604,2.97656.18604ZM141.48828,262.00635h10.13965c1.05371,0,2.29395-.09326,3.34766-.24805v3.99951c-1.05371-.06152-2.2627-.09277-3.34766-.09277h-10.13965c-1.05371,0-2.3877.03125-3.31738.09277v-3.99951c.99219.15479,2.26367.24805,3.31738.24805ZM159.28613,263.8667l-2.48047,1.08545c-.65137-1.27148-1.6123-3.13184-2.44922-4.31006l2.48047-1.02295c.77441,1.14697,1.85938,3.10059,2.44922,4.24756ZM163.00684,262.44043l-2.48047,1.08496c-.65137-1.30176-1.64355-3.10059-2.48047-4.27832l2.44922-1.02344c.80664,1.17822,1.95312,3.13184,2.51172,4.2168Z"/><path class="cls-1" d="M172.7207,270.99805h16.64941c1.45801,0,2.82227-.12402,3.62793-.18604v4.86768c-.74414-.03076-2.3252-.15479-3.62793-.15479h-16.64941c-1.76758,0-3.84473.06201-4.99219.15479v-4.86768c1.11621.09326,3.37988.18604,4.99219.18604Z"/><path class="cls-1" d="M213.21387,263.77344h6.29492c.96094,0,2.01465-.12402,2.69727-.34082l3.16211,1.95312c-.34082.58936-.74414,1.42676-1.02344,2.20166-.83691,2.51123-2.38672,5.8291-4.58789,8.92969,1.33301.96143,2.54199,1.86035,3.44141,2.60449l-2.94531,3.50342c-.83789-.7749-1.98438-1.73633-3.25586-2.75928-2.72852,2.8833-6.26367,5.51904-11.10059,7.34814l-3.59668-3.13135c5.36426-1.64307,8.80566-4.15479,11.37891-6.72803-2.01465-1.48828-4.06152-2.88379-5.64258-3.87598l2.75977-2.82129c1.64258.92969,3.59668,2.20117,5.5498,3.50342,1.6123-2.23242,2.94531-4.93018,3.41113-6.85205h-8.86816c-2.1709,2.8833-5.05371,5.85986-8.18555,8.03027l-3.34863-2.57324c5.42578-3.37988,8.30957-7.62793,9.85938-10.3252.49609-.74414,1.14746-2.17041,1.42676-3.22461l4.49609,1.39551c-.77539,1.08496-1.55078,2.48047-1.92285,3.16211Z"/><path class="cls-1" d="M245.14746,286.625l-2.3252-3.68945c1.17871-.12402,2.04688-.31055,2.88379-.49609,3.96875-.93066,7.06934-3.7832,7.06934-8.30957,0-4.2793-2.3252-7.47266-6.51074-8.18555-.43457,2.63525-.96191,5.48779-1.86133,8.40234-1.85938,6.26318-4.52637,10.10791-7.90625,10.10791-3.44141,0-6.29395-3.78271-6.29395-9.02295,0-7.16211,6.20117-13.27051,14.23145-13.27051,7.68945,0,12.52637,5.33301,12.52637,12.09277,0,6.54199-3.99902,11.16211-11.81348,12.37109ZM236.62109,279.67969c1.30273,0,2.51172-1.95312,3.7832-6.13916.71289-2.29443,1.30176-4.93018,1.64355-7.50342-5.11621,1.0542-7.87598,5.58105-7.87598,8.9917,0,3.13135,1.24023,4.65088,2.44922,4.65088Z"/><path class="cls-1" d="M41.77051,334.74902v5.08496h-3.50391v-5.08496h-6.60352v-3.25537h6.60352v-1.82959h-5.51855v-11.53418h12.46387l-2.82129-.92969c.96191-1.6748,2.07715-4.24805,2.60449-6.20117l3.81445,1.02295c-1.11719,2.20166-2.4502,4.58887-3.47266,6.10791h2.01465v11.53418h-5.58105v1.82959h6.41797v3.25537h-6.41797ZM33.55371,317.75781c-.2168-1.36426-1.05371-3.56543-1.89062-5.20898l3.00781-.96094c.89844,1.58105,1.79785,3.68945,2.07715,5.08496l-3.19434,1.08496ZM35.72461,322.62598h2.75977v-1.79834h-2.75977v1.79834ZM35.72461,326.93555h2.75977v-1.76709h-2.75977v1.76709ZM38.51465,316.95215c-.12305-1.39551-.68164-3.62793-1.30176-5.33301l3.03809-.68262c.68262,1.6123,1.30273,3.7832,1.51953,5.14746l-3.25586.86816ZM44.18945,320.82764h-2.63574v1.79834h2.63574v-1.79834ZM44.18945,325.16846h-2.63574v1.76709h2.63574v-1.76709ZM59.97168,324.26953c-.96191,2.94531-2.41895,5.79785-4.24805,8.34033.49609,1.70557,1.08496,2.69775,1.73633,2.75928.52734,0,.83691-1.42578,1.02344-4.09277.58887.77539,2.0459,1.76758,2.63477,2.1084-.80566,5.20898-2.35645,6.41846-3.6582,6.35645-1.86035-.06201-3.28711-1.48828-4.34082-4-1.6123,1.6748-3.41113,3.06982-5.33301,4.12402-.62012-.83691-1.73633-1.92236-2.66699-2.57324,2.60449-1.17871,4.89941-3.00781,6.85254-5.24023-.58887-2.51172-1.02344-5.5498-1.30273-9.05371l-2.66602.34082-.37207-3.41016,2.75977-.34131c-.15527-2.6665-.24805-5.51904-.34082-8.55762h3.50293c.03125,2.85254.12402,5.58105.2793,8.15479l6.54199-.80664.37207,3.37988-6.66602.83691c.18652,2.01562.40332,3.90723.68262,5.55029.99219-1.73633,1.8291-3.56592,2.41797-5.45703l2.79102,1.58154ZM57.39746,318.12988c-.49609-1.42578-1.70508-3.75146-2.91406-5.39453l2.79004-1.45752c1.24023,1.64307,2.60449,3.78271,3.10059,5.23975l-2.97656,1.6123Z"/><path class="cls-1" d="M93.22461,314.99854c-1.14746,3.06982-2.85254,5.76709-4.96094,8.03076,1.92188,1.45703,4.18555,2.72852,6.72754,3.50342-.74414.71338-1.8291,2.20166-2.35547,3.10059l-.21777-.09326v10.26318h-3.59668v-.96143h-6.35547v.99219h-3.41113v-10.16992l-.77539.34131c-.24805-.46533-.65137-1.0542-1.05371-1.6123v5.39502h-8.06152v2.54248h-2.66699v-23.59521h10.72852v5.85986c2.26367-2.01514,4.18555-4.83691,5.30176-7.75146l3.47266.96094c-.2793.74414-.62012,1.45752-.99219,2.1709h5.17773l.62012-.15527,2.41895,1.17822ZM69.16406,315.89746v5.48828h1.45703v-5.48828h-1.45703ZM69.16406,330.62549h1.45703v-6.20117h-1.45703v6.20117ZM74.46582,315.89746h-1.55078v5.48828h1.55078v-5.48828ZM74.46582,330.62549v-6.20117h-1.55078v6.20117h1.55078ZM77.22559,326.71875c2.13867-.93018,4.24805-2.20117,6.07715-3.75195-.86816-.99219-1.64355-2.0459-2.29492-3.06934-.74414.86816-1.51855,1.64355-2.29395,2.29443-.31055-.40283-.89941-.99219-1.48828-1.55029v6.07715ZM90,328.39307c-1.55078-.8374-2.97656-1.86035-4.24805-2.97656-1.33301,1.11621-2.75977,2.1084-4.24805,2.97656h8.49609ZM88.82129,335.61719v-3.99951h-6.35547v3.99951h6.35547ZM83.20996,317.04492l-.18652.24805c.71289,1.14746,1.58105,2.3252,2.66699,3.44141,1.05371-1.14697,1.98438-2.38721,2.72852-3.68945h-5.20898Z"/><path class="cls-1" d="M126.85059,315.68066s0,1.24023-.03125,1.67432c-.40332,13.85986-.74414,18.78955-2.01562,20.43311-.86816,1.14697-1.73633,1.48828-2.97656,1.70508-1.17773.15527-3.03906.12402-4.86816.06201-.06152-1.02295-.55762-2.57373-1.20898-3.59668,1.98438.18604,3.81348.18604,4.62012.18604.62012,0,.96094-.12402,1.36426-.52734.89941-.99219,1.30176-5.64258,1.64355-16.58789h-6.63574c-.80566,1.86035-1.76758,3.56543-2.72852,4.89893-.49609-.46533-1.5498-1.17822-2.3877-1.73633v14.47998h-8.27832v2.26318h-3.34863v-23.0376h3.50391c.40234-1.5498.77539-3.53418.89844-4.9917l4.03125.55811c-.52734,1.55029-1.08496,3.10059-1.6123,4.43359h4.80566v5.02344c1.79883-2.60449,3.28711-6.35645,4.18555-9.98438l3.53516.80664c-.34082,1.33301-.74414,2.63525-1.20898,3.9375h8.71289ZM108.27734,319.12207h-4.92969v5.02344h4.92969v-5.02344ZM108.27734,333.41602v-6.07715h-4.92969v6.07715h4.92969ZM118.57129,331.7417c-.86816-1.86035-2.79004-4.89893-4.30957-7.1626l2.88379-1.64307c1.5498,2.13916,3.59668,5.08496,4.55762,6.8833l-3.13184,1.92236Z"/><path class="cls-1" d="M141.7832,325.1377c1.51953,1.14697,4.58887,3.78223,5.42578,4.43359l-2.13965,3.1626c-.74414-.96143-2.0459-2.35645-3.28613-3.62744v10.69678h-3.56543v-11.1001c-1.39551,2.82129-3.03906,5.48828-4.74414,7.28613-.37207-1.08496-1.27148-2.66602-1.86035-3.59668,2.23242-2.16992,4.49609-5.70508,5.8916-8.92969h-5.17871v-3.37939h5.8916v-3.84473c-1.76758.34131-3.53516.62012-5.20898.8374-.15527-.80664-.62012-2.1084-1.05469-2.88379,4.46484-.65137,9.45703-1.8291,12.46484-3.19336l2.60449,2.85254c-1.55078.62012-3.34863,1.14697-5.24023,1.6123v4.61963h5.33301v3.37939h-5.33301v1.6748ZM152.16992,331.98975h-3.59668v-17.33252h3.59668v17.33252ZM159.5498,311.49512v23.87402c0,2.13965-.43457,3.16309-1.70508,3.75195-1.27148.62012-3.34961.74414-6.1709.71289-.15527-1.05371-.71289-2.75928-1.27051-3.81348,2.01465.09277,3.99902.09277,4.65039.09277.58887-.03076.83691-.2168.83691-.7749v-23.84326h3.65918Z"/><path class="cls-1" d="M170.71094,325.85059c-1.27148-.89941-3.9375-2.35645-5.7666-3.34863l1.98438-2.72852c1.70508.83691,4.46484,2.17041,5.82812,3.00781l-2.0459,3.06934ZM165.37793,337.0127c1.64355-2.3252,4.03125-6.16992,5.89062-9.7666l2.69824,2.48047c-1.64355,3.25537-3.59668,6.79004-5.48828,9.79785l-3.10059-2.51172ZM172.04395,317.38574c-1.20898-.92969-3.84473-2.38721-5.64258-3.41016l2.07715-2.66699c1.73633.86816,4.43359,2.23242,5.7666,3.10059l-2.20117,2.97656ZM185.78027,323.43213v3.90674h6.32422v12.37109h-3.50293v-1.11621h-9.30176v1.27148h-3.34863v-12.52637h6.3252v-3.90674h-8.24805v-3.53467h8.24805v-3.62793c-2.01562.31055-4.09277.52734-6.01562.71338-.1543-.89893-.65039-2.32568-1.08496-3.1626,5.27051-.52734,11.10059-1.55029,14.51074-2.91455l2.82129,2.91455c-1.98438.74414-4.30957,1.36426-6.72754,1.8291v4.24805h7.875v3.53467h-7.875ZM188.60156,330.6875h-9.30176v4.55762h9.30176v-4.55762Z"/><path class="cls-1" d="M224.55273,335.49316c0,1.98438-.43359,2.97656-1.67383,3.53516-1.27148.62012-3.16309.68164-5.95312.65088-.12402-.99219-.71387-2.57373-1.17871-3.53467,1.73633.09277,3.7832.06201,4.34082.06201.58887,0,.80664-.18604.80664-.74414v-4.65088h-6.54199v8.65039h-3.7207v-8.65039h-6.32617c-.55762,3.37988-1.67383,6.79004-3.90625,9.20898-.58887-.68262-2.07715-1.95361-2.91406-2.3877,3.37891-3.7207,3.6582-9.23975,3.6582-13.58057v-11.06885h23.40918v22.50977ZM210.63184,327.33887v-3.81348h-5.83008v.55762c0,.99219-.03027,2.1084-.09277,3.25586h5.92285ZM204.80176,316.48682v3.59668h5.83008v-3.59668h-5.83008ZM220.89453,316.48682h-6.54199v3.59668h6.54199v-3.59668ZM220.89453,327.33887v-3.81348h-6.54199v3.81348h6.54199Z"/><path class="cls-1" d="M93.59863,2.90039c-.45996,4.30078-1.51953,7.66162-3.06055,10.24219,1.04004,1.48047,2.32031,2.68066,3.88086,3.50098-.41992.35986-1.01953,1.06006-1.28027,1.52002-1.48047-.85986-2.7207-1.97998-3.76074-3.36084-1.08008,1.38086-2.37988,2.46094-3.82031,3.32129-.26074-.44043-.76074-1.08057-1.16016-1.44043v1.64014h-1.80078v-3.42041c-2.4209.3999-4.88086.7998-6.74121,1.1001l-.33984-1.86084c.55957-.05957,1.17969-.15967,1.87988-.23975V2.92041h-1.45996v-1.72021h9.80176v1.44043h6.3418l.31934-.06006,1.2002.31982ZM79.17578,2.92041v2.3208h3.4209v-2.3208h-3.4209ZM79.17578,9.3418h3.4209v-2.44043h-3.4209v2.44043ZM82.59668,13.18262v-2.16016h-3.4209v2.64062l3.4209-.48047ZM84.39746,16.5835c1.47949-.78027,2.78027-1.96045,3.88086-3.48096-1.30078-2.30029-2.20117-5.08105-2.84082-8.22168l1.7998-.35986c.46094,2.48047,1.16016,4.78076,2.16113,6.76123,1-1.90039,1.74023-4.20068,2.16016-6.82129h-6.3418v-1.54053h-.81934v13.66309Z"/><path class="cls-1" d="M101.15234,5.82129c.87988-1.82031,2.80078-3.96094,5.2207-3.96094,2.7207,0,4.74121,2.68066,4.74121,6.98145,0,5.58105-3.48047,8.1416-8.58203,9.08203l-1.2002-1.82031c4.38086-.68066,7.66211-2.30078,7.66211-7.26172,0-3.12061-1.06055-5.16113-2.96094-5.16113-2.44043,0-4.66113,3.60059-4.84082,6.24121-.06055.66016-.06055,1.34033.08008,2.30078l-1.96094.13965c-.09961-.75977-.21973-1.91992-.21973-3.24023,0-1.88086.32031-4.62109.58008-6.44141.09961-.68066.13965-1.34082.16016-1.90039l2.18066.09961c-.34082,1.26074-.74023,3.68066-.86035,4.94141Z"/><path class="cls-1" d="M119.08594,11.72266c-.25977,1.87988-.7207,3.82031-1.34082,5.10059-.2998-.21973-1.04004-.56006-1.41992-.7002.60059-1.2002.98047-2.96045,1.18066-4.68066l1.58008.28027ZM121.44629,10.14209v8.2417h-1.66016v-8.1416c-1.14062.05957-2.2002.12012-3.12109.17969l-.16016-1.64014,1.40039-.04004c.38086-.47998.76074-1.00049,1.16016-1.56006-.62012-.88037-1.63965-1.96094-2.52051-2.80078l.90039-1.24023c.18066.16016.36035.31982.54004.47998.62012-1.1001,1.28027-2.54053,1.64062-3.62061l1.68066.6001c-.7207,1.36035-1.56055,2.94043-2.28125,4.021.38086.3999.7207.7998.98047,1.16016.78027-1.2002,1.50098-2.44043,2.02051-3.48096l1.58008.68018c-1.13965,1.82031-2.64062,4.021-3.98047,5.68115l2.66016-.1001c-.25977-.56006-.54004-1.1001-.83984-1.6001l1.34082-.58008c.81934,1.30029,1.63965,3.00049,1.91992,4.10059l-1.41992.68018c-.08008-.31982-.2002-.7002-.36035-1.12012l-1.48047.1001ZM123.28711,11.34229c.54004,1.2002,1.08008,2.76074,1.2998,3.78076l-1.48047.52002c-.17969-1.04004-.71973-2.62061-1.21973-3.84082l1.40039-.45996ZM135.06934,16.12305v1.68066h-11.62207v-1.68066h1.97949V1.06006h8.20215v15.06299h1.44043ZM127.24805,2.74023v3.28076h4.50098v-3.28076h-4.50098ZM131.74902,7.70166h-4.50098v3.30029h4.50098v-3.30029ZM127.24805,16.12305h4.50098v-3.44043h-4.50098v3.44043Z"/><path class="cls-1" d="M143.25977,1.98047c1.08008,0,3.50098-.12012,4.38086-.18018.4209-.04004.86035-.12012,1.16113-.24023l1.25977,1.00049c-.24023.23975-.44043.47998-.60059.74023-.54004.87988-1.35938,2.76025-2.16016,4.56055,1.82031.24023,3.52051.80029,5.00098,1.48047.06055-.3999.10059-.78027.12012-1.14014.04004-.68018.04004-1.40039-.01953-1.98047l2.08008.22021c-.08008,1.37988-.2002,2.66016-.40039,3.80078.90039.52002,1.66113,1.02002,2.28125,1.45996l-.9209,2.16064c-.58008-.5-1.21973-1.00049-1.91992-1.50049-.84082,2.46094-2.38086,4.30127-5.18164,5.72168l-1.67969-1.38086c3.10059-1.31982,4.52051-3.36035,5.18066-5.38086-1.56055-.86035-3.36035-1.54004-5.30078-1.74023-.74023,1.74023-1.66016,3.9209-2.40039,5.06104-.76074,1.1001-1.60059,1.54053-2.78125,1.54053-1.59961,0-2.7998-1.12061-2.7998-2.96094,0-3.02051,2.75977-5.32129,6.7207-5.46094.66016-1.46045,1.34082-3.021,1.88086-4.12109-.80078.02002-2.94043.12012-3.84082.16016-.41992.02002-1.06055.08008-1.56055.16016l-.08008-2.06055c.52051.06006,1.16016.08008,1.58008.08008ZM141.43945,14.14258c.41992,0,.74023-.17969,1.12012-.67969.64062-.86035,1.30078-2.44043,1.94043-3.90088-2.62012.27979-4.12012,1.88037-4.12012,3.38037,0,.80029.5,1.2002,1.05957,1.2002Z"/><path class="cls-1" d="M160.3418,9.56201c0-4.82129,1.83984-7.38184,4.76074-7.38184,2.94043,0,4.76074,2.58057,4.76074,7.38184,0,4.8208-1.82031,7.48145-4.76074,7.48145-2.9209,0-4.76074-2.66064-4.76074-7.48145ZM167.66309,9.56201c0-4.12109-1.06055-5.56104-2.56055-5.56104s-2.56055,1.43994-2.56055,5.56104c0,4.12061,1.06055,5.66113,2.56055,5.66113s2.56055-1.54053,2.56055-5.66113Z"/><path class="cls-1" d="M173.1709,15.02295l1.12012-1.47998c.86035.87988,1.95996,1.62012,3.48047,1.62012,1.66016,0,2.80078-.90039,2.80078-2.34033,0-1.58057-1.04004-2.60059-4.36133-2.60059v-1.70068c2.90039,0,3.86133-1.06006,3.86133-2.44043,0-1.28027-.86035-2.06055-2.26074-2.06055-1.14062,0-2.10059.56055-2.94043,1.40039l-1.2002-1.44043c1.16016-1.06006,2.52051-1.80029,4.2207-1.80029,2.64062,0,4.50098,1.36035,4.50098,3.72119,0,1.66016-.98047,2.76025-2.54102,3.34033v.1001c1.70117.41992,3.04102,1.66016,3.04102,3.60059,0,2.58105-2.2207,4.10107-4.9209,4.10107-2.32031,0-3.82129-.92041-4.80078-2.02051Z"/><circle class="cls-1" cx="129.0425" cy="133.7587" r="95.4071"/><path class="cls-3" d="M122.72693,85.54713c9.62665,0,18.37551,1.41316,24.73765,3.69541,6.79596,2.43749,10.99919,5.97912,10.99919,10.04595s-4.20323,7.60847-10.99919,10.04741c-6.36215,2.28225-15.11101,3.69396-24.73766,3.69396s-18.37551-1.41171-24.73766-3.69396c-6.79451-2.43894-10.99774-5.98057-10.99774-10.04741s4.20322-7.60847,10.99774-10.04595c6.36215-2.28225,15.11101-3.69541,24.73765-3.69541h.00001ZM146.5012,91.9296c-6.05311-2.17198-14.45665-3.5155-23.77427-3.5155s-17.72116,1.34353-23.77427,3.5155c-5.6193,2.01673-9.09418,4.62834-9.09418,7.35891s3.47488,5.34362,9.09418,7.36036c6.05311,2.17053,14.45666,3.51405,23.77427,3.51405s17.72115-1.34353,23.77427-3.51405c5.6193-2.01673,9.09562-4.62979,9.09562-7.36036s-3.47634-5.34217-9.09562-7.35891Z"/><path class="cls-3" d="M101.69339,117.32886c.76172.21764,1.20278,1.00982.98661,1.77009-.21764.76027-1.00982,1.20134-1.77009.98515-.58761-.1683-1.18102-.35111-1.77879-.54698-.53828-.17701-1.09977-.37578-1.68158-.59341-.73995-.27422-1.11574-1.09687-.84006-1.83682.27567-.73851,1.09687-1.11428,1.83682-.84007.46718.17556.99096.35837,1.56986.54843.52087.1712,1.08091.34241,1.67723.51361h0Z"/><path class="cls-3" d="M155.59682,118.92629c0-.79218.64129-1.43348,1.43348-1.43348s1.43348.64129,1.43348,1.43348c0,4.06684-4.20323,7.60847-10.99919,10.04596-6.36215,2.2837-15.11101,3.69541-24.73766,3.69541s-18.37551-1.41171-24.73766-3.69541c-6.79451-2.43749-10.99774-5.97912-10.99774-10.04595,0-.79218.64129-1.43348,1.43348-1.43348.79073,0,1.43348.64129,1.43348,1.43348,0,2.73058,3.47488,5.34217,9.09418,7.35891,6.05311,2.17198,14.45666,3.5155,23.77427,3.5155s17.72115-1.34353,23.77427-3.5155c5.6193-2.01673,9.09562-4.62834,9.09562-7.35891h.00001Z"/><path class="cls-3" d="M101.69339,136.99131c.76172.21619,1.20278,1.00837.98661,1.76864-.21764.76172-1.00982,1.20279-1.77009.98661-.58761-.16975-1.18102-.35256-1.77879-.54843-.53828-.17701-1.09977-.37433-1.68158-.59196-.73995-.27567-1.11574-1.09833-.84006-1.83682.27567-.73996,1.09687-1.11573,1.83682-.84007.46718.17556.99096.35837,1.56986.54843.52087.1712,1.08091.34241,1.67723.51361h0Z"/><path class="cls-3" d="M132.99777,148.89441c.78638-.08995,1.49586.47298,1.58438,1.25938.08995.78493-.47445,1.49441-1.25937,1.58436-1.67287.19152-3.4183.3395-5.2261.43961-1.7904.10011-3.58515.1509-5.36974.1509-9.62665,0-18.37551-1.41173-24.73766-3.69396-6.79451-2.43894-10.99774-5.98057-10.99774-10.04741,0-.79073.64129-1.43348,1.43348-1.43348.79073,0,1.43348.64275,1.43348,1.43348,0,2.73057,3.47488,5.34362,9.09418,7.35891,6.05311,2.17198,14.45666,3.5155,23.77427,3.5155,1.81506,0,3.55612-.04788,5.21305-.13929,1.7164-.09576,3.40524-.2394,5.0578-.42801h-.00002Z"/><path class="cls-3" d="M101.69339,156.6523c.76172.21762,1.20278,1.00982.98661,1.77009-.21764.76027-1.00982,1.20134-1.77009.98515-.58761-.1683-1.18102-.35112-1.77879-.54698-.53973-.177-1.09977-.37578-1.68158-.59341-.73995-.27567-1.11574-1.09687-.84006-1.83683.27567-.73851,1.09687-1.11429,1.83682-.84006.46718.17556.99096.35836,1.56986.54844.52087.1712,1.08091.3424,1.67723.51362v-.00002Z"/><path class="cls-3" d="M132.15626,168.64972c.78638-.08125,1.48716.4904,1.56841,1.27679.0798.78493-.49185,1.48715-1.27678,1.56696-1.5539.1625-3.16004.28583-4.8068.36998-1.65691.08415-3.29787.12767-4.91416.12767-9.62665,0-18.37551-1.41173-24.73766-3.69541-6.79451-2.43748-10.99774-5.97912-10.99774-10.04595,0-.79219.64129-1.43349,1.43348-1.43349.79073,0,1.43348.64129,1.43348,1.43349,0,2.73058,3.47488,5.34218,9.09418,7.35892,6.05311,2.17197,14.45666,3.51551,23.77427,3.51551,1.67433,0,3.26885-.04062,4.77923-.11607,1.58292-.08125,3.13538-.20168,4.6501-.35836v-.00004Z"/><path class="cls-3" d="M89.85849,158.24973c0,.79073-.64275,1.43349-1.43348,1.43349-.79219,0-1.43348-.64273-1.43348-1.43349v-58.96123c0-.79073.64129-1.43348,1.43348-1.43348.79073,0,1.43348.64275,1.43348,1.43348v58.96123Z"/><path class="cls-3" d="M158.46378,130.56967c0,.79073-.64129,1.43348-1.43348,1.43348s-1.43348-.64275-1.43348-1.43348v-31.28117c0-.79073.64129-1.43348,1.43348-1.43348s1.43348.64275,1.43348,1.43348v31.28117Z"/><path class="cls-1" d="M178.25435,137.97999v-9.92492c0-.50538-.41069-.91533-.91615-.91533l-43.99512.00041c-1.70331,0-3.25656.65289-4.38595,1.70421-1.14388,1.06547-1.85337,2.53859-1.856,4.16267,0,.00387-.00263.00708-.00263.01102v51.70328c0,1.69179.73977,3.22661,1.93103,4.33659,1.17415,1.09344,2.78927,1.77233,4.56102,1.77233h41.13214c.97276,0,1.856-.39629,2.49441-1.03553.63973-.63932,1.03594-1.52199,1.03594-2.49433v-49.31269c0-.00271.00132-.00502.00132-.00773Z"/><path class="cls-2" d="M128.92846,133.01851v51.70322c0,1.16453.51531,2.22656,1.34511,2.99934.84756.7893,2.02119,1.279,3.3167,1.279h41.13238c.46777,0,.89219-.19092,1.20047-.4992.30828-.30828.4992-.73309.4992-1.20047v-49.31961c0-.5054.40994-.91533.91536-.91533s.91536.40994.91536.91533v49.31963c0,.97236-.3963,1.85504-1.03558,2.49434-.63888.63928-1.52158,1.03559-2.49436,1.03559h-41.13238c-1.77159,0-3.38615-.67896-4.56059-1.77241-1.19139-1.10997-1.93112-2.64477-1.93112-4.3366v-51.70322c0-.5054.40994-.91533.91536-.91533s.91536.40994.91536.91533l-.00125.00038Z"/><path class="cls-2" d="M178.25457,137.97998v-9.92492c0-.50538-.41069-.91533-.91615-.91533l-43.99512.00041c-1.70331,0-3.25656.65289-4.38595,1.70421-1.14651,1.06786-1.85732,2.54476-1.85732,4.17337,0,1.62861.71081,3.10551,1.85732,4.17337,1.1294,1.05173,2.68265,1.70421,4.38595,1.70421h43.99512c.50546,0,.91615-.40987.91615-.91533ZM176.42358,137.06506h-43.08028c-1.22812,0-2.33909-.46367-3.14204-1.21117-.78452-.73105-1.27156-1.73523-1.27156-2.83616,0-1.10126.48704-2.10544,1.27156-2.83649.80295-.74717,1.91392-1.21125,3.14204-1.21125,0,0,6.96461.00041,6.96593.00041h36.11435s0,8.09466,0,8.09466Z"/><path class="cls-3" d="M133.56508,133.93346c-.50542,0-.91536-.40994-.91536-.91533s.40994-.91533.91536-.91533h38.22316c.50542,0,.91536.40994.91536.91533,0,.5054-.40994.91533-.91536.91533h-38.22316Z"/><path class="cls-3" d="M136.56538,149.01719c-.50542,0-.91536-.40994-.91536-.91533s.40994-.91533.91536-.91533h32.22256c.50542,0,.91536.40994.91536.91533,0,.5054-.40994.91533-.91536.91533h-32.22256Z"/><path class="cls-3" d="M136.56538,156.81628c-.50542,0-.91536-.40994-.91536-.91533s.40994-.91533.91536-.91533h32.22256c.50542,0,.91536.40994.91536.91533,0,.5054-.40994.91533-.91536.91533h-32.22256Z"/></g></svg>