<?xml version="1.0" encoding="UTF-8"?><svg id="_レイヤー_2" xmlns="http://www.w3.org/2000/svg" viewBox="0 0 549.54004 61.44141"><defs><style>.cls-1{fill:#a0afb5;}</style></defs><g id="_背景"><path class="cls-1" d="M0,1.12012h15.12012v59.20117H0V1.12012Z"/><path class="cls-1" d="M64.97656,37.20117l-.32031-36.08105h14.48047v59.20117h-13.12012l-22.64062-35.68066.32031,35.68066h-14.48047V1.12012h13.04004l22.7207,36.08105Z"/><path class="cls-1" d="M93.39844,1.12012h15.12012v59.20117h-15.12012V1.12012Z"/><path class="cls-1" d="M128.54297,14.40039h-11.68066V1.12012h38.40137v13.28027h-11.60059v45.9209h-15.12012V14.40039Z"/><path class="cls-1" d="M163.66211,1.12012h15.12012v59.20117h-15.12012V1.12012Z"/><path class="cls-1" d="M203.49414,60.32129h-16.40039L210.53418,1.12012h13.04102l22.71973,59.20117h-16.55957l-2.80078-8.56006h-20.71973l-2.7207,8.56006ZM216.375,19.12061l-6.40039,20.64014h13.04004l-6.63965-20.64014Z"/><path class="cls-1" d="M257.9502,14.40039h-11.68066V1.12012h38.40137v13.28027h-11.60059v45.9209h-15.12012V14.40039Z"/><path class="cls-1" d="M293.06836,1.12012h15.12012v59.20117h-15.12012V1.12012Z"/><path class="cls-1" d="M316.74902,1.12012h15.52051l12,41.521,12.08008-41.521h15.60059l-19.84082,59.20117h-15.60059L316.74902,1.12012Z"/><path class="cls-1" d="M380.64355,1.12012h33.52051v13.28027h-18.40039v9.2002h17.84082v13.28027h-17.84082v10.16016h18.40039v13.28027h-33.52051V1.12012Z"/><path class="cls-1" d="M452.88281,22.48047c0-17.12012,13.84082-22.48047,22.32129-22.48047,7.59961,0,21.83984,4.95996,21.83984,22.48047v16.48047c0,16.48047-12.55957,22.48047-21.83984,22.48047-8.7207,0-22.32129-5.75977-22.32129-22.48047v-16.48047ZM468.00391,39.36133c0,3.51953,1.12012,8.7998,6.95996,8.7998,6.95996,0,6.95996-7.04004,6.95996-8.7998v-17.28076c0-1.83984,0-8.80029-6.95996-8.80029-6,0-6.95996,5.60059-6.95996,8.80029v17.28076Z"/><path class="cls-1" d="M507.45898,18.40039c.16016-7.12012,3.2002-11.68018,7.2002-14.48047,4-2.87988,9.04004-3.91992,13.04004-3.91992,11.52051,0,18.56055,7.84033,18.56055,16.16016,0,8.16064-5.67969,11.20068-7.83984,12.40039,11.12012,3.76025,11.12012,12.32031,11.12012,14.32031,0,10.32031-10,18.56055-21.9209,18.56055-6.87988,0-14.64062-2.63965-18.48047-8.32031-2.63965-3.83984-3.04004-8.31982-3.28027-10.47998h15.28125c.31934,1.35986,1.35938,5.43994,6.7998,5.52002,4.40039,0,6.48047-2.87988,6.48047-6.64014,0-5.6001-5.76074-6-7.9209-6h-5.35938v-11.12061h2.55957c1.36035,0,7.44043,0,7.44043-5.91992,0-2.56006-1.2002-5.2002-4.16016-5.2002-4.40039,0-4.56055,3.68018-4.64062,5.12012h-14.87988Z"/></g></svg>