<?xml version="1.0" encoding="UTF-8"?><svg id="_レイヤー_2" xmlns="http://www.w3.org/2000/svg" viewBox="0 0 222.89844 340.02063"><defs><style>.cls-1{fill:#fff;}.cls-2{fill:#a0afb5;}</style></defs><g id="_レイヤー_1-2"><path class="cls-1" d="M10.0459,260.02234c-.77539,2.04639-1.73633,4.12378-2.79004,6.10815v21.7041h-3.47266v-16.18506c-.62012.83716-1.24023,1.6123-1.8916,2.29443-.34082-.86816-1.30273-2.82153-1.8916-3.7207,2.66699-2.69751,5.20898-6.97632,6.72852-11.25513l3.31738,1.0542ZM23.65723,265.23132v3.87573h5.24023v17.89038h-3.53418v-1.5813h-12.27832v1.76733h-3.41113v-18.07642h4.99219v-3.87573h-5.30176v-3.28662h19.68848v3.28662h-5.39551ZM13.08496,282.25354h1.92188v-9.95288h-1.92188v9.95288ZM18.10742,272.30066v9.95288h2.07715v-9.95288h-2.07715ZM20.18457,265.23132h-2.0459v3.87573h2.0459v-3.87573ZM25.36328,272.30066h-2.07715v9.95288h2.07715v-9.95288Z"/><path class="cls-1" d="M44.11523,260.11536c-.80566,2.1394-1.8291,4.30981-2.97656,6.38721v21.30103h-3.50391v-15.84399c-.68164.89917-1.39551,1.73633-2.1084,2.48047-.34082-.89917-1.33301-2.94556-1.95312-3.81372,2.79102-2.79053,5.45703-7.19336,7.03809-11.6272l3.50391,1.11621ZM62.99805,286.43933h-15.81348v1.39526h-3.41016v-19.44067h3.41016v14.88281h15.81348v3.1626ZM52.02148,266.59558c.0625-.5271.12402-1.11621.18652-1.70532h-7.7207v-3.1626h7.96875c.06152-.96118.12402-1.92236.1543-2.79053l3.69043.15503c-.0625.83716-.15527,1.73633-.24805,2.6355h6.75879v3.1626h-7.09961c-.09375.58911-.15527,1.17822-.24805,1.70532h6.07617v15.06885h-12.49512v-15.06885h2.97656ZM57.97461,269.26208h-5.51855v1.5813h5.51855v-1.5813ZM57.97461,273.32385h-5.51855v1.5813h5.51855v-1.5813ZM57.97461,277.38562h-5.51855v1.6123h5.51855v-1.6123Z"/><path class="cls-1" d="M79.72266,263.40198c2.94531-.15503,6.0459-.43408,8.77441-.89917l-.03125,3.59668c-2.94531.43408-6.75879.68213-10.10742.77515-.52734,1.14722-1.14746,2.26343-1.76758,3.1626.80664-.37207,2.48047-.62012,3.50391-.62012,1.89062,0,3.44141.80615,4.12305,2.38745,1.61328-.74414,2.91504-1.27124,4.18652-1.82935,1.20898-.5271,2.29395-1.02319,3.44141-1.6123l1.5498,3.59668c-.99219.27905-2.63477.89917-3.68945,1.30225-1.39453.55811-3.16211,1.24023-5.05371,2.1084.03125,1.73633.09277,4.03076.12402,5.45703h-3.7207c.09277-.93018.12402-2.41846.15527-3.78271-2.3252,1.33325-3.56543,2.54248-3.56543,4.09277,0,1.70532,1.45703,2.17041,4.49512,2.17041,2.63574,0,6.07715-.34106,8.80566-.86816l-.12402,3.99976c-2.0459.27905-5.86035.5271-8.77441.5271-4.86816,0-8.46484-1.17822-8.46484-5.17798,0-3.96875,3.7207-6.44922,7.25586-8.27856-.46484-.77515-1.30273-1.0542-2.1709-1.0542-1.73633,0-3.6582.99219-4.83691,2.1394-.92969.93018-1.8291,2.04639-2.88281,3.41064l-3.31836-2.48047c3.25586-3.00757,5.45703-5.76709,6.85254-8.55762h-.40332c-1.27148,0-3.53418-.06201-5.24023-.18604v-3.62769c1.58203.24805,3.87598.37207,5.45703.37207h1.48828c.3418-1.24023.55859-2.44946.62109-3.56567l4.0918.34106c-.1543.77515-.37109,1.79834-.77441,3.10059Z"/><path class="cls-1" d="M127.36621,283.36975v3.62769h-27.87402v-3.62769h11.96777v-6.23218h-8.40234v-3.56567h8.40234v-5.45703h-6.41797c-.89941,1.70532-1.86035,3.28662-2.88379,4.49585-.74414-.58911-2.3877-1.70532-3.31738-2.20142,2.41797-2.60449,4.43359-6.8833,5.48828-11.1001l3.81348.83716c-.43457,1.48828-.93066,2.94556-1.45703,4.37183h4.77441v-5.58105h3.87598v5.58105h10.44922v3.59668h-10.44922v5.45703h9.27051v3.56567h-9.27051v6.23218h12.03027Z"/><path class="cls-1" d="M139.60449,261.85168c1.76758,0,5.05371-.15503,6.51074-.27905.77539-.03101,1.58105-.21704,2.1084-.43408l2.48047,1.92236c-.43359.46509-.80566.86816-1.05371,1.30225-.80664,1.33325-1.98438,4.03076-3.10059,6.66626,2.41797.37207,4.71289,1.11621,6.72852,1.98438.03027-.37207.06152-.71313.09277-1.0542.09277-1.20923.09277-2.44946,0-3.37964l4.06152.46509c-.12402,2.07739-.2793,3.99976-.58887,5.73608,1.30176.74414,2.41797,1.45728,3.31738,2.07739l-1.79883,4.30981c-.80566-.74414-1.70508-1.45728-2.66602-2.17041-1.36426,3.50366-3.7207,6.23218-7.875,8.40259l-3.28711-2.69751c4.68164-2.01538,6.85254-4.96094,7.875-7.78247-2.20117-1.20923-4.68164-2.1394-7.34766-2.51147-1.11621,2.6355-2.41895,5.73608-3.50391,7.44141-1.24023,1.86035-2.72852,2.72852-4.83691,2.72852-2.72852,0-4.77441-1.89136-4.77441-5.02295,0-4.80591,4.37109-8.4646,10.60352-8.74365.86816-2.04639,1.76758-4.15479,2.48047-5.61206-1.24023.06201-3.90625.15503-5.33301.24805-.62012.03101-1.70508.12402-2.51172.24805l-.15527-3.99976c.83789.09302,1.8916.15503,2.57422.15503ZM136.87598,280.51721c.62012,0,1.05371-.31006,1.6123-1.08521.80566-1.14722,1.64355-3.10059,2.51074-5.05396-3.47266.5271-5.42578,2.6355-5.42578,4.58887,0,1.02319.58984,1.55029,1.30273,1.55029Z"/><path class="cls-1" d="M190.78223,274.71912v13.11548h-3.84375v-1.76733h-17.17773v1.79834h-3.75195v-13.14648h3.75195v7.72046h6.48047v-9.36377h-8.99219v-11.25513h3.65918v7.65845h5.33301v-10.26294h3.78223v10.26294h5.64355v-7.65845h3.875v11.25513h-9.51855v9.36377h6.91504v-7.72046h3.84375Z"/><path class="cls-1" d="M213.93848,262.84387c0,.24805,0,.58911-.03125.96118,3.13086,0,7.37891-.06201,8.99121-.03101l-.03027,3.65869c-1.86133-.09302-4.74414-.15503-8.96094-.15503,0,1.5813.03125,3.28662.03125,4.65088.74414,1.17822,1.11523,2.6355,1.11523,4.2478,0,4.03076-2.35547,9.17773-9.92188,11.28613l-3.31738-3.28662c3.13184-.65112,5.86035-1.67432,7.56543-3.53467-.43359.09302-.89844.15503-1.39453.15503-2.3877,0-5.33398-1.92236-5.33398-5.70508,0-3.50366,2.82227-5.7981,6.20117-5.7981.43457,0,.83789.03101,1.24023.09302,0-.68213,0-1.39526-.03027-2.07739-4.68262.06201-9.51855.24805-13.33301.46509l-.09277-3.75171c3.53418,0,9.17773-.12402,13.39453-.18604-.03125-.40308-.03125-.71313-.06152-.96118-.09375-1.27124-.21777-2.32544-.31055-2.69751h4.49609c-.0625.49609-.18652,2.17041-.2168,2.6665ZM208.75977,277.35461c1.30273,0,2.4502-.99219,2.01562-3.7207-.43457-.71313-1.17871-1.08521-2.01562-1.08521-1.20898,0-2.3877.83716-2.3877,2.48047,0,1.42627,1.14746,2.32544,2.3877,2.32544Z"/><path class="cls-1" d="M4.74219,321.8822h20.30859c.65137,0,2.01562-.06201,2.82129-.18604v4.03076c-.77441-.06201-1.95312-.09302-2.82129-.09302h-7.47168c-.18652,3.1936-.86914,5.7981-1.98438,7.96851-1.08594,2.17041-3.47266,4.55786-6.23242,5.95312l-3.62793-2.6355c2.20117-.83716,4.37207-2.60449,5.6123-4.43384,1.27148-1.92236,1.79785-4.2478,1.92188-6.85229H4.74219c-.89941,0-2.1084.06201-2.97656.12402v-4.06177c.93066.12402,2.01562.18604,2.97656.18604ZM8.67969,314.00671h10.13965c1.05371,0,2.29395-.09302,3.34766-.24805v3.99976c-1.05371-.06201-2.2627-.09302-3.34766-.09302h-10.13965c-1.05371,0-2.3877.03101-3.31738.09302v-3.99976c.99219.15503,2.26367.24805,3.31738.24805ZM26.47754,315.86707l-2.48047,1.08521c-.65137-1.27124-1.6123-3.13159-2.44922-4.30981l2.48047-1.02319c.77441,1.14722,1.85938,3.10059,2.44922,4.2478ZM30.19824,314.4408l-2.48047,1.08521c-.65137-1.30225-1.64355-3.10059-2.48047-4.27881l2.44922-1.02319c.80664,1.17822,1.95312,3.13159,2.51172,4.2168Z"/><path class="cls-1" d="M39.91211,322.99841h16.64941c1.45801,0,2.82227-.12402,3.62793-.18604v4.86792c-.74414-.03101-2.3252-.15503-3.62793-.15503h-16.64941c-1.76758,0-3.84473.06201-4.99219.15503v-4.86792c1.11621.09302,3.37988.18604,4.99219.18604Z"/><path class="cls-1" d="M80.40527,315.77405h6.29492c.96094,0,2.01465-.12402,2.69727-.34106l3.16211,1.95337c-.34082.58911-.74414,1.42627-1.02344,2.20142-.83691,2.51147-2.38672,5.8291-4.58789,8.92969,1.33301.96118,2.54199,1.86035,3.44141,2.60449l-2.94531,3.50366c-.83789-.77515-1.98438-1.73633-3.25586-2.75952-2.72852,2.88354-6.26367,5.51904-11.10059,7.34839l-3.59668-3.13159c5.36426-1.64331,8.80566-4.15479,11.37891-6.72827-2.01465-1.48828-4.06152-2.88354-5.64258-3.87573l2.75977-2.82153c1.64258.93018,3.59668,2.20142,5.5498,3.50366,1.6123-2.23242,2.94531-4.92993,3.41113-6.85229h-8.86816c-2.1709,2.88354-5.05371,5.86011-8.18555,8.03052l-3.34863-2.57349c5.42578-3.37964,8.30957-7.62744,9.85938-10.32495.49609-.74414,1.14746-2.17041,1.42676-3.22461l4.49609,1.39526c-.77539,1.08521-1.55078,2.48047-1.92285,3.1626Z"/><path class="cls-1" d="M112.33887,338.62537l-2.3252-3.6897c1.17871-.12402,2.04688-.31006,2.88379-.49609,3.96875-.93018,7.06934-3.78271,7.06934-8.30957,0-4.27881-2.3252-7.47241-6.51074-8.18555-.43457,2.6355-.96191,5.48804-1.86133,8.40259-1.85938,6.26318-4.52637,10.10791-7.90625,10.10791-3.44141,0-6.29395-3.78271-6.29395-9.02271,0-7.16235,6.20117-13.27051,14.23145-13.27051,7.68945,0,12.52637,5.33301,12.52637,12.09229,0,6.54224-3.99902,11.16211-11.81348,12.37134ZM103.8125,331.68005c1.30273,0,2.51172-1.95337,3.7832-6.13916.71289-2.29443,1.30176-4.92993,1.64355-7.50342-5.11621,1.0542-7.87598,5.58105-7.87598,8.9917,0,3.13159,1.24023,4.65088,2.44922,4.65088Z"/><path class="cls-1" d="M139.01367,325.13782c1.51953,1.14722,4.58887,3.78271,5.42578,4.43384l-2.13965,3.1626c-.74414-.96118-2.0459-2.35645-3.28613-3.62769v10.69702h-3.56543v-11.1001c-1.39551,2.82153-3.03906,5.48804-4.74414,7.28638-.37207-1.08521-1.27148-2.6665-1.86035-3.59668,2.23242-2.17041,4.49609-5.70508,5.8916-8.92969h-5.17871v-3.37964h5.8916v-3.84473c-1.76758.34106-3.53516.62012-5.20898.83716-.15527-.80615-.62012-2.1084-1.05469-2.88354,4.46484-.65112,9.45703-1.82935,12.46484-3.1936l2.60449,2.85254c-1.55078.62012-3.34863,1.14722-5.24023,1.6123v4.61987h5.33301v3.37964h-5.33301v1.67432ZM149.40039,331.99011h-3.59668v-17.33228h3.59668v17.33228ZM156.78027,311.49524v23.87451c0,2.1394-.43457,3.1626-1.70508,3.75171-1.27148.62012-3.34961.74414-6.1709.71313-.15527-1.0542-.71289-2.75952-1.27051-3.81372,2.01465.09302,3.99902.09302,4.65039.09302.58887-.03101.83691-.21704.83691-.77515v-23.84351h3.65918Z"/><path class="cls-1" d="M167.94238,325.85095c-1.27148-.89917-3.9375-2.35645-5.76758-3.34863l1.98438-2.72852c1.70605.83716,4.46484,2.17041,5.83008,3.00757l-2.04688,3.06958ZM162.60938,337.01306c1.64355-2.32544,4.03027-6.17017,5.8916-9.76685l2.69727,2.48047c-1.64355,3.25562-3.59668,6.79028-5.48828,9.79785l-3.10059-2.51147ZM169.27539,317.38635c-1.20898-.93018-3.84473-2.38745-5.64258-3.41064l2.07715-2.6665c1.73633.86816,4.43359,2.23242,5.76758,3.10059l-2.20215,2.97656ZM183.01074,323.4325v3.90674h6.32617v12.37134h-3.50391v-1.11621h-9.30176v1.27124h-3.34863v-12.52637h6.3252v-3.90674h-8.24805v-3.53467h8.24805v-3.62769c-2.01562.31006-4.09277.5271-6.01562.71313-.15527-.89917-.65137-2.32544-1.08496-3.1626,5.27148-.5271,11.09961-1.55029,14.51074-2.91455l2.82129,2.91455c-1.98438.74414-4.30957,1.36426-6.72852,1.82935v4.2478h7.87598v3.53467h-7.87598ZM185.83301,330.68787h-9.30176v4.55786h9.30176v-4.55786Z"/><path class="cls-1" d="M221.7832,335.49377c0,1.98438-.43359,2.97656-1.67383,3.53467-1.27148.62012-3.16309.68213-5.95312.65112-.12402-.99219-.71387-2.57349-1.17871-3.53467,1.73633.09302,3.7832.06201,4.34082.06201.58887,0,.80664-.18604.80664-.74414v-4.65088h-6.54199v8.65063h-3.7207v-8.65063h-6.32617c-.55762,3.37964-1.67383,6.79028-3.90625,9.20874-.58887-.68213-2.07715-1.95337-2.91406-2.38745,3.37891-3.7207,3.6582-9.23975,3.6582-13.58057v-11.06909h23.40918v22.51025ZM207.8623,327.33923v-3.81372h-5.83008v.55811c0,.99219-.03027,2.1084-.09277,3.25562h5.92285ZM202.03223,316.48718v3.59668h5.83008v-3.59668h-5.83008ZM218.125,316.48718h-6.54199v3.59668h6.54199v-3.59668ZM218.125,327.33923v-3.81372h-6.54199v3.81372h6.54199Z"/></g><g id="_メニュー"><path class="cls-1" d="M76.95117,2.90063c-.45996,4.3009-1.51953,7.66162-3.06055,10.24219,1.04004,1.48035,2.32031,2.68054,3.88086,3.50073-.41992.36011-1.01953,1.06018-1.28027,1.52026-1.48047-.86011-2.7207-1.98035-3.76074-3.36072-1.08008,1.38037-2.37988,2.46057-3.82031,3.3208-.26074-.44019-.76074-1.08032-1.16016-1.44031v1.64026h-1.80078v-3.42065c-2.4209.40002-4.88086.80017-6.74121,1.10022l-.33984-1.86047c.55957-.05994,1.17969-.15991,1.87988-.23999V2.92065h-1.45996v-1.72046h9.80176v1.44031h6.3418l.31934-.05994,1.2002.32007ZM62.52832,2.92065v2.32043h3.4209v-2.32043h-3.4209ZM62.52832,9.34192h3.4209v-2.44043h-3.4209v2.44043ZM65.94922,13.18274v-2.1604h-3.4209v2.64062l3.4209-.48022ZM67.75,16.5835c1.47949-.78015,2.78027-1.96033,3.88086-3.48071-1.30078-2.30054-2.20117-5.08105-2.84082-8.2218l1.7998-.35999c.46094,2.48047,1.16016,4.78101,2.16113,6.76135,1-1.90039,1.74023-4.20081,2.16016-6.82141h-6.3418v-1.54028h-.81934v13.66284Z"/><path class="cls-1" d="M84.50488,5.82117c.87988-1.82031,2.80078-3.96082,5.2207-3.96082,2.7207,0,4.74121,2.68054,4.74121,6.98157,0,5.58118-3.48047,8.14172-8.58203,9.08191l-1.2002-1.82043c4.38086-.68018,7.66211-2.30042,7.66211-7.26147,0-3.12073-1.06055-5.16113-2.96094-5.16113-2.44043,0-4.66113,3.60071-4.84082,6.24133-.06055.66016-.06055,1.34021.08008,2.30042l-1.96094.14014c-.09961-.76025-.21973-1.92041-.21973-3.24072,0-1.88037.32031-4.62097.58008-6.44141.09961-.68018.13965-1.34033.16016-1.90039l2.18066.09998c-.34082,1.26038-.74023,3.68079-.86035,4.94104Z"/><path class="cls-1" d="M102.43848,11.72253c-.25977,1.88037-.7207,3.8208-1.34082,5.10107-.2998-.22009-1.04004-.56018-1.41992-.7002.60059-1.2002.98047-2.96057,1.18066-4.68103l1.58008.28015ZM104.79883,10.14221v8.2417h-1.66016v-8.14172c-1.14062.05994-2.2002.12-3.12109.18005l-.16016-1.64038,1.40039-.04004c.38086-.4801.76074-1.00024,1.16016-1.5603-.62012-.88013-1.63965-1.96045-2.52051-2.80054l.90039-1.24036c.18066.16003.36035.32007.54004.4801.62012-1.10022,1.28027-2.54053,1.64062-3.62073l1.68066.6001c-.7207,1.36035-1.56055,2.94067-2.28125,4.02087.38086.40015.7207.80017.98047,1.16028.78027-1.20032,1.50098-2.44055,2.02051-3.48083l1.58008.68018c-1.13965,1.82043-2.64062,4.02087-3.98047,5.68127l2.66016-.1001c-.25977-.56006-.54004-1.10022-.83984-1.60034l1.34082-.58008c.81934,1.30029,1.63965,3.00061,1.91992,4.10083l-1.41992.68018c-.08008-.32007-.2002-.70007-.36035-1.12024l-1.48047.1001ZM106.63965,11.34241c.54004,1.2002,1.08008,2.76062,1.2998,3.78076l-1.48047.52014c-.17969-1.04016-.71973-2.62048-1.21973-3.84082l1.40039-.46008ZM118.42188,16.12341v1.68042h-11.62207v-1.68042h1.97949V1.06018h8.20215v15.06323h1.44043ZM110.60059,2.7406v3.28064h4.50098v-3.28064h-4.50098ZM115.10156,7.70166h-4.50098v3.30066h4.50098v-3.30066ZM110.60059,16.12341h4.50098v-3.44067h-4.50098v3.44067Z"/><path class="cls-1" d="M126.6123,1.98035c1.08008,0,3.50098-.12,4.38086-.17993.4209-.04004.86035-.12012,1.16113-.24011l1.25977,1.00024c-.24023.23999-.44043.4801-.60059.74011-.54004.88025-1.35938,2.76062-2.16016,4.56104,1.82031.23999,3.52051.80017,5.00098,1.48022.06055-.40002.10059-.78015.12012-1.14014.04004-.68018.04004-1.40039-.01953-1.98047l2.08008.22009c-.08008,1.38025-.2002,2.66052-.40039,3.80078.90039.52014,1.66113,1.02014,2.28125,1.46033l-.9209,2.1604c-.58008-.50012-1.21973-1.00024-1.91992-1.50024-.84082,2.46045-2.38086,4.3009-5.18164,5.72119l-1.67969-1.38037c3.10059-1.32019,4.52051-3.3606,5.18066-5.3811-1.56055-.86011-3.36035-1.54028-5.30078-1.74036-.74023,1.74036-1.66016,3.92078-2.40039,5.06104-.76074,1.10022-1.60059,1.54041-2.78125,1.54041-1.59961,0-2.7998-1.12024-2.7998-2.96069,0-3.02063,2.75977-5.32104,6.7207-5.46118.66016-1.46021,1.34082-3.02063,1.88086-4.12085-.80078.02002-2.94043.12-3.84082.16003-.41992.02002-1.06055.08008-1.56055.16003l-.08008-2.06042c.52051.06006,1.16016.07996,1.58008.07996ZM124.79199,14.14294c.41992,0,.74023-.17993,1.12012-.68005.64062-.86023,1.30078-2.44055,1.94043-3.90088-2.62012.28003-4.12012,1.88037-4.12012,3.38074,0,.80017.5,1.2002,1.05957,1.2002Z"/><path class="cls-1" d="M143.69434,9.56201c0-4.82104,1.83984-7.38159,4.76074-7.38159,2.94043,0,4.76074,2.58057,4.76074,7.38159,0,4.82104-1.82031,7.48157-4.76074,7.48157-2.9209,0-4.76074-2.66052-4.76074-7.48157ZM151.01562,9.56201c0-4.12085-1.06055-5.56116-2.56055-5.56116s-2.56055,1.44031-2.56055,5.56116,1.06055,5.66125,2.56055,5.66125,2.56055-1.54041,2.56055-5.66125Z"/><path class="cls-1" d="M157.10547,14.88318h3.2207V5.04102h-2.64062v-1.46033c1.37988-.23999,2.36035-.6001,3.2002-1.12012h1.74023v12.42261h2.88086v1.90039h-8.40137v-1.90039Z"/><circle class="cls-1" cx="112.10603" cy="133.76039" r="95.4071"/><path class="cls-2" d="M110.79095,88.54912c9.62665,0,18.37551,1.41316,24.73765,3.69541,6.79596,2.43749,10.99919,5.97912,10.99919,10.04595s-4.20323,7.60847-10.99919,10.04741c-6.36215,2.28225-15.11101,3.69396-24.73766,3.69396s-18.37551-1.41171-24.73766-3.69396c-6.79451-2.43894-10.99774-5.98057-10.99774-10.04741s4.20322-7.60847,10.99774-10.04595c6.36215-2.28225,15.11101-3.69541,24.73765-3.69541h.00001ZM134.56523,94.93158c-6.05311-2.17198-14.45665-3.5155-23.77427-3.5155s-17.72116,1.34353-23.77427,3.5155c-5.6193,2.01673-9.09418,4.62834-9.09418,7.35891s3.47488,5.34362,9.09418,7.36036c6.05311,2.17053,14.45666,3.51405,23.77427,3.51405s17.72115-1.34353,23.77427-3.51405c5.6193-2.01673,9.09562-4.62979,9.09562-7.36036s-3.47634-5.34217-9.09562-7.35891Z"/><path class="cls-2" d="M89.75742,120.33084c.76172.21764,1.20278,1.00982.98661,1.77009-.21764.76027-1.00982,1.20134-1.77009.98515-.58761-.1683-1.18102-.35111-1.77879-.54698-.53828-.17701-1.09977-.37578-1.68158-.59341-.73995-.27422-1.11574-1.09687-.84006-1.83682.27567-.73851,1.09687-1.11428,1.83682-.84007.46718.17556.99096.35837,1.56986.54843.52087.1712,1.08091.34241,1.67723.51361h0Z"/><path class="cls-2" d="M143.66085,121.92828c0-.79218.64129-1.43348,1.43348-1.43348s1.43348.64129,1.43348,1.43348c0,4.06684-4.20323,7.60847-10.99919,10.04596-6.36215,2.2837-15.11101,3.69541-24.73766,3.69541s-18.37551-1.41171-24.73766-3.69541c-6.79451-2.43749-10.99774-5.97912-10.99774-10.04595,0-.79218.64129-1.43348,1.43348-1.43348.79073,0,1.43348.64129,1.43348,1.43348,0,2.73058,3.47488,5.34217,9.09418,7.35891,6.05311,2.17198,14.45666,3.5155,23.77427,3.5155s17.72115-1.34353,23.77427-3.5155c5.6193-2.01673,9.09562-4.62834,9.09562-7.35891h.00001Z"/><path class="cls-2" d="M143.66085,141.58927c0-.79218.64129-1.43348,1.43348-1.43348s1.43348.64129,1.43348,1.43348c0,4.06684-4.20323,7.60847-10.99919,10.04596-6.36215,2.2837-15.11101,3.69541-24.73766,3.69541s-18.37551-1.41171-24.73766-3.69541c-6.79451-2.43749-10.99774-5.97912-10.99774-10.04595,0-.79218.64129-1.43348,1.43348-1.43348.79073,0,1.43348.64129,1.43348,1.43348,0,2.73058,3.47488,5.34217,9.09418,7.35891,6.05311,2.17198,14.45666,3.5155,23.77427,3.5155s17.72115-1.34353,23.77427-3.5155c5.6193-2.01673,9.09562-4.62834,9.09562-7.35891h.00001Z"/><path class="cls-2" d="M143.66085,161.25026c0-.79218.64129-1.43348,1.43348-1.43348s1.43348.64129,1.43348,1.43348c0,4.06684-4.20323,7.60847-10.99919,10.04596-6.36215,2.2837-15.11101,3.69541-24.73766,3.69541s-18.37551-1.41171-24.73766-3.69541c-6.79451-2.43749-10.99774-5.97912-10.99774-10.04595,0-.79218.64129-1.43348,1.43348-1.43348.79073,0,1.43348.64129,1.43348,1.43348,0,2.73058,3.47488,5.34217,9.09418,7.35891,6.05311,2.17198,14.45666,3.5155,23.77427,3.5155s17.72115-1.34353,23.77427-3.5155c5.6193-2.01673,9.09562-4.62834,9.09562-7.35891h.00001Z"/><path class="cls-2" d="M89.75742,139.99329c.76172.21619,1.20278,1.00837.98661,1.76864-.21764.76172-1.00982,1.20279-1.77009.98661-.58761-.16975-1.18102-.35256-1.77879-.54843-.53828-.17701-1.09977-.37433-1.68158-.59196-.73995-.27567-1.11574-1.09833-.84006-1.83682.27567-.73996,1.09687-1.11573,1.83682-.84007.46718.17556.99096.35837,1.56986.54843.52087.1712,1.08091.34241,1.67723.51361h0Z"/><path class="cls-2" d="M89.75742,159.65428c.76172.21762,1.20278,1.00982.98661,1.77009-.21764.76027-1.00982,1.20134-1.77009.98515-.58761-.1683-1.18102-.35112-1.77879-.54698-.53973-.177-1.09977-.37578-1.68158-.59341-.73995-.27567-1.11574-1.09687-.84006-1.83683.27567-.73851,1.09687-1.11429,1.83682-.84006.46718.17556.99096.35836,1.56986.54844.52087.1712,1.08091.3424,1.67723.51362v-.00002Z"/><path class="cls-2" d="M77.92251,161.25171c0,.79073-.64275,1.43349-1.43348,1.43349-.79219,0-1.43348-.64273-1.43348-1.43349v-58.96123c0-.79073.64129-1.43348,1.43348-1.43348.79073,0,1.43348.64275,1.43348,1.43348v58.96123Z"/><path class="cls-2" d="M146.52781,152.73022c0,.79073-.64129,1.43348-1.43348,1.43348s-1.43348-.64275-1.43348-1.43348v-50.43973c0-.79073.64129-1.43348,1.43348-1.43348s1.43348.64275,1.43348,1.43348v50.43973Z"/><path class="cls-2" d="M148.18416,179.98105l-12.78637-.1365c-.76931-.00821-1.38629-.63851-1.37808-1.40781.00821-.76931.63851-1.38629,1.40782-1.37808l12.78637.1365c.76931.00821,1.38629.63851,1.37808,1.40782-.00821.7693-.63851,1.38629-1.40782,1.37807Z"/><path class="cls-2" d="M147.36709,184.01084l-11.23845-.11997c-.7693-.00821-1.38629-.63851-1.37807-1.40782s.63851-1.38629,1.40781-1.37807l11.23845.11997c.76931.00821,1.38629.63851,1.37807,1.40781s-.63851,1.38629-1.40781,1.37808Z"/><path class="cls-2" d="M144.84985,187.78882l-6.43999-.06875c-.76931-.00821-1.38629-.63851-1.37807-1.40782s.63851-1.38629,1.40781-1.37807l6.43999.06875c.76931.00821,1.38629.63851,1.37808,1.40781s-.63851,1.38629-1.40782,1.37808Z"/><path class="cls-2" d="M147.95822,175.98862l-12.24933-.13076c-.70595-.00754-1.34052-.26135-1.83509-.73399-.38346-.36644-.67573-.85197-.89347-1.48428-.3207-.93126-.45147-2.11556-.58989-3.36937-.0397-.35959-.08076-.73139-.1269-1.10377-.16636-1.34271-.52687-3.26604-1.29968-4.8035-.49093-.97669-.94108-1.84606-1.37642-2.68684-1.10975-2.14329-1.98629-3.83622-2.59851-5.51784-.67797-1.86225-.97112-3.55373-.9505-5.48448.02314-2.16786.47048-4.26707,1.32961-6.23933.82954-1.90429,2.00587-3.6096,3.49634-5.0686,1.49048-1.45899,3.22052-2.59865,5.14207-3.38733,1.99015-.81683,4.09845-1.21926,6.2663-1.19612s4.26706.47049,6.23932,1.32963c1.90428.82951,3.60962,2.00584,5.06859,3.49633,1.45899,1.49048,2.59867,3.22052,3.38734,5.14207.81683,1.99015,1.21925,4.09843,1.19611,6.26629-.02061,1.93078-.3498,3.61563-1.06739,5.46299-.64798,1.66821-1.56049,3.34204-2.71576,5.4612-.45316.83125-.92175,1.69076-1.43339,2.6567-.80543,1.52057-1.20693,3.43577-1.40191,4.77466-.05408.3713-.10306.74214-.15041,1.10078-.16518,1.25058-.32119,2.43183-.6617,3.35604-.2312.62752-.53376,1.1067-.92496,1.46487-.50457.46198-1.14439.70219-1.85036.69465Z"/><path class="cls-1" d="M135.76934,173.0723l12.18793.13011c.05498-.07719.17742-.29474.30759-.82752.15005-.61429.25607-1.4169.36828-2.26663.04857-.36766.09879-.74784.15552-1.13749.22666-1.5564.70507-3.80476,1.69691-5.67725.51948-.98072,1.0134-1.88675,1.4492-2.68614,1.10729-2.03114,1.98191-3.63549,2.56493-5.13643.59069-1.52071.86164-2.9036.87851-4.48396.01914-1.79299-.31316-3.53536-.98764-5.17868-.65177-1.58798-1.5941-3.01825-2.80088-4.25105-1.20675-1.23279-2.61657-2.20546-4.19025-2.89099-1.62857-.70941-3.36344-1.07882-5.15643-1.09796s-3.53535.31315-5.1787.98763c-1.58798.65178-3.01824,1.59413-4.25104,2.80089-1.23282,1.20675-2.20547,2.61657-2.89099,4.19028-.70941,1.62855-1.07883,3.36343-1.09797,5.15642-.01687,1.58033.22449,2.96869.78256,4.50165.55085,1.51303,1.391,3.13565,2.45466,5.18993.41865.80855.89317,1.72498,1.39161,2.7166.95165,1.89328,1.38194,4.15131,1.57533,5.71218.0484.39078.09049.77194.13118,1.14058.09407.85193.1829,1.6566.31983,2.27395.11876.53546.23654.75555.28986.83389Z"/><path class="cls-2" d="M132.96846,152.09768c-.69829-.00745-1.25831-.57956-1.25085-1.27784.01496-1.40111.30417-2.75804.85958-4.0331.53622-1.23094,1.29653-2.3332,2.25982-3.27615.96329-.94294,2.08154-1.67956,3.32365-2.18936,1.28661-.52809,2.64944-.78826,4.05053-.7733.69829.00745,1.25831.57957,1.25085,1.27785s-.57956,1.2583-1.27785,1.25085c-2.0979-.0224-4.07894.77351-5.57821,2.24112-1.49926,1.4676-2.33729,3.4312-2.35969,5.52909-.00745.69828-.57956,1.2583-1.27785,1.25085Z"/></g></svg>