<?xml version="1.0" encoding="UTF-8"?><svg id="_レイヤー_2" xmlns="http://www.w3.org/2000/svg" viewBox="0 0 116.21679 36.9787"><defs><style>.cls-1{fill:#005a96;}.cls-1,.cls-2{stroke-width:0px;}.cls-2{fill:#fff;}</style></defs><g id="_レイヤー_1-2"><path class="cls-1" d="M97.72744,0H18.48935C8.2776,0,0,8.27796,0,18.48935s8.2776,18.48935,18.48935,18.48935h79.23809c10.21139,0,18.48935-8.27796,18.48935-18.48935S107.93883,0,97.72744,0Z"/><path class="cls-2" d="M30.6582,14.3487h1.35059l.14453,1.42236h.05371c.8457-.93652,1.87207-1.67432,3.04297-1.67432,1.49414,0,2.30469.72021,2.7002,1.87256,1.00879-1.09863,2.03516-1.87256,3.22363-1.87256,2.0166,0,2.9707,1.33203,2.9707,3.83496v6.19386h-1.63867v-5.97755c0-1.83691-.57617-2.61084-1.81836-2.61084-.75586,0-1.54883.48584-2.4668,1.49414v7.09425h-1.63867v-5.97755c0-1.83691-.57617-2.61084-1.81836-2.61084-.73828,0-1.56641.48584-2.4668,1.49414v7.09425h-1.63867v-9.77687Z"/><path class="cls-2" d="M47.37597,19.24616c0-3.25928,2.14258-5.14941,4.53809-5.14941,2.39453,0,4.53711,1.89014,4.53711,5.14941,0,3.24072-2.14258,5.11328-4.53711,5.11328-2.39551,0-4.53809-1.87256-4.53809-5.11328ZM54.75879,19.24616c0-2.25049-1.15234-3.78125-2.84473-3.78125-1.69336,0-2.82715,1.53076-2.82715,3.78125s1.13379,3.74512,2.82715,3.74512c1.69238,0,2.84473-1.49463,2.84473-3.74512Z"/><path class="cls-2" d="M59.76074,14.3487h1.35059l.14453,1.78271h.05371c.68457-1.24268,1.6748-2.03467,2.77246-2.03467.43262,0,.73828.05371,1.04492.21582l-.30664,1.44043c-.32422-.12598-.55762-.16211-.9541-.16211-.81055,0-1.81836.57617-2.4668,2.25098v6.28371h-1.63867v-9.77687Z"/><path class="cls-2" d="M66.74414,19.24616c0-3.16895,2.14258-5.14941,4.41211-5.14941,2.48438,0,3.88867,1.80029,3.88867,4.59131,0,.35986-.03613.70215-.07227.93604h-6.58984c.1084,2.08887,1.38672,3.42139,3.24121,3.42139.9541,0,1.72852-.28809,2.44824-.77441l.59473,1.08008c-.86426.55859-1.90918,1.0083-3.24121,1.0083-2.59277,0-4.68164-1.89014-4.68164-5.11328ZM73.60449,18.4361c0-1.96289-.90039-3.02539-2.43066-3.02539-1.38672,0-2.61133,1.1167-2.80859,3.02539h5.23926Z"/><polyline class="cls-2" points="83.06986 23.04699 94.97006 18.63087 83.06986 14.21474 83.06986 23.04699"/></g></svg>