<?xml version="1.0" encoding="UTF-8"?>
<svg id="_レイヤー_2" data-name="レイヤー 2" xmlns="http://www.w3.org/2000/svg" viewBox="0 0 650 76.9">
  <defs>
    <style>
      .cls-1 {
        fill: #000;
      }

      .cls-1, .cls-2 {
        stroke-width: 0px;
      }

      .cls-2 {
        fill: #fff;
      }
    </style>
  </defs>
  <g id="_枠" data-name="枠">
    <g>
      <g>
        <g>
          <rect class="cls-2" x="1" y="1.35" width="113.52" height="74.54"/>
          <path class="cls-1" d="M113.52,2.35v72.54H2V2.35h111.52M115.52.35H0v76.54h115.52V.35h0Z"/>
        </g>
        <g>
          <path class="cls-1" d="M12.25,42.25c-2.1,0-2.82.05-2.96.05-.22,0-.24-.02-.24-.27v-1.45c0-.24.02-.27.24-.27.14,0,.87.05,2.96.05h6.46v-1.13h-3.98c-2.34,0-3.13.05-3.28.05-.24,0-.27-.02-.27-.24v-1.33c0-.24.02-.26.27-.26.14,0,.94.05,3.28.05h3.98v-1.06h-3.11c-2.36,0-3.2.05-3.35.05-.27,0-.29-.02-.29-.29,0-.14.05-.46.05-1.25v-1.3c0-.8-.05-1.11-.05-1.25,0-.26.02-.29.29-.29.14,0,.99.05,3.35.05h3.11v-1.06h-6.07c-2.17,0-2.92.05-3.06.05-.24,0-.27-.02-.27-.26v-1.52c0-.24.02-.27.27-.27.14,0,.89.05,3.06.05h6.07c0-.96-.05-1.54-.17-2.22.89.02,1.66.05,2.51.14.22.02.39.12.39.27,0,.19-.07.31-.14.46-.1.26-.14.55-.14,1.35h6.12c2.17,0,2.92-.05,3.06-.05.24,0,.27.02.27.27v1.52c0,.24-.02.26-.27.26-.14,0-.89-.05-3.06-.05h-6.12v1.06h3.2c2.36,0,3.2-.05,3.37-.05.24,0,.27.02.27.29,0,.14-.05.46-.05,1.25v1.3c0,.8.05,1.11.05,1.25,0,.26-.02.29-.27.29-.17,0-1.01-.05-3.37-.05h-3.2v1.06h3.9c2.36,0,3.2-.05,3.32-.05.24,0,.27.02.27.26,0,.14-.05.72-.05,2.1v.55c1.42,0,1.98-.05,2.1-.05.22,0,.24.02.24.27v1.45c0,.24-.02.27-.24.27-.12,0-.67-.02-2.1-.05v1.23c0,1.45.05,2.07.05,2.22,0,.24-.02.26-.27.26h-1.86c-.24,0-.27-.02-.27-.26v-.53h-5.08c.02.43.02.84.02,1.2,0,1.11-.22,1.76-.87,2.14-.6.34-1.66.51-3.4.53-.72,0-.72-.02-.96-.7-.22-.6-.53-1.25-.94-1.83.89.1,1.54.12,2.43.1,1.04-.02,1.25-.19,1.25-.89v-.55h-3.95c-2.36,0-3.16.05-3.3.05-.24,0-.27-.02-.27-.29v-1.3c0-.27.02-.29.27-.29.14,0,.94.05,3.3.05h3.95v-1.13h-6.46ZM18.71,34.9v-1.2h-4.36v1.2h4.36ZM25.6,33.7h-4.46v1.2h4.46v-1.2ZM21.14,39.24v1.13h5.11v-1.13h-5.11ZM26.25,43.38v-1.13h-5.11v1.13h5.11Z"/>
          <path class="cls-1" d="M37.78,43.19c-2.17,0-2.89.05-3.04.05-.27,0-.29-.02-.29-.27v-1.42c0-.26.02-.29.29-.29.14,0,.87.05,3.04.05h5.95v-1.3h-3.4c-2.34,0-3.18.05-3.32.05-.24,0-.24-.02-.24-.27v-1.37c0-.27,0-.29.24-.29.14,0,.99.05,3.32.05h3.4v-1.28h-4.53c-2.31,0-3.08.05-3.23.05-.27,0-.29-.02-.29-.24v-1.42c0-.24.02-.27.29-.27.14,0,.92.05,3.23.05h1.47c-.27-.58-.51-1.06-.77-1.52-.12-.22-.14-.31.17-.41l1.57-.43h-3.85c-2.17,0-2.89.05-3.04.05-.27,0-.29-.02-.29-.26v-1.49c0-.26.02-.29.29-.29.14,0,.87.05,3.04.05h.17c-.39-.77-.82-1.37-1.37-2.07-.14-.17-.1-.26.19-.41l1.4-.65c.24-.12.31-.1.46.1.58.7,1.18,1.52,1.61,2.34.12.22.12.24-.19.41l-.58.29h2.24v-1.59c0-.84,0-1.42-.14-2.1.75.02,1.69.07,2.34.14.19.02.29.1.29.22,0,.14-.05.26-.1.41-.07.17-.14.53-.14,1.33v1.59h1.95v-1.57c0-.87,0-1.45-.14-2.12.72.02,1.66.07,2.31.17.22.02.31.1.31.22s-.05.27-.1.39c-.07.17-.14.53-.14,1.33v1.59h1.49c.43-.67.77-1.28,1.11-1.98.17-.36.31-.72.41-1.3.84.17,1.69.41,2.34.63.22.07.31.19.31.31,0,.19-.1.29-.24.41-.17.14-.29.29-.41.46-.31.51-.65.99-.99,1.47h.34c2.17,0,2.89-.05,3.04-.05.24,0,.27.02.27.29v1.49c0,.24-.02.26-.27.26-.14,0-.87-.05-3.04-.05h-4.22c.63.12,1.18.24,1.9.43.19.05.31.14.31.29,0,.17-.12.29-.27.36-.12.07-.24.34-.34.51l-.43.77h1.57c2.31,0,3.08-.05,3.23-.05.24,0,.27.02.27.27v1.42c0,.22-.02.24-.27.24-.14,0-.92-.05-3.23-.05h-4.87v1.28h3.83c2.36,0,3.18-.05,3.32-.05.24,0,.27.02.27.29v1.37c0,.24-.02.27-.27.27-.14,0-.96-.05-3.32-.05h-3.83v1.3h6.34c2.17,0,2.89-.05,3.04-.05.24,0,.27.02.27.29v1.42c0,.24-.02.27-.27.27-.14,0-.87-.05-3.04-.05h-4.29c2.02,1.42,4.55,2.36,8.02,3.13-.31.39-.65.89-.94,1.54-.19.46-.29.63-.53.63-.12,0-.29-.05-.55-.12-3.25-.94-6.12-2.53-8.1-4.31,0,2.87.12,4.36.12,4.77,0,.24-.02.27-.27.27h-2.05c-.22,0-.24-.02-.24-.27,0-.41.07-1.81.1-4.67-2.02,1.93-4.53,3.28-7.73,4.31-.27.1-.43.14-.55.14-.22,0-.31-.17-.53-.63-.31-.63-.65-1.13-.96-1.45,3.2-.8,5.66-1.78,7.69-3.35h-3.9ZM47.08,35.07c.22-.41.41-.82.65-1.4.12-.27.17-.51.27-.96h-6.14c.07.02.12.1.19.19.36.6.75,1.32,1.08,2.17h3.95Z"/>
          <path class="cls-1" d="M66.48,27.7c1.59,0,2.29-.05,2.43-.05.22,0,.24.02.24.26,0,.17-.05.84-.05,2.31v2.84c0,1.47.05,2.14.05,2.29,0,.24-.02.26-.24.26-.14,0-.84-.05-2.43-.05h-3.95v8.05c0,3.37.05,5.04.05,5.2,0,.24-.02.27-.27.27h-2.05c-.24,0-.27-.02-.27-.27,0-.17.05-1.83.05-5.2v-10.46c0-3.37-.05-5.08-.05-5.25,0-.24.02-.26.27-.26.17,0,1.08.05,2.87.05h3.35ZM62.53,29.48v1.37h4.22v-1.37h-4.22ZM66.74,32.47h-4.22v1.4h4.22v-1.4ZM68.74,43.21c-.05.39-.1.72-.17,1.04-.34,1.57-1.13,2.94-2.29,4.05-.24.22-.36.34-.46.34-.14,0-.27-.14-.55-.43-.39-.39-.96-.77-1.42-1.01,1.33-.84,2.19-1.98,2.58-3.54l.05-.43c-1.83.02-2.51.05-2.63.05-.24,0-.27-.02-.27-.29v-1.45c0-.24.02-.27.27-.27.12,0,.82.05,2.75.05.02-.6.05-1.35.05-2.19-1.45.02-2,.05-2.12.05-.27,0-.29-.02-.29-.26v-1.47c0-.24.02-.27.29-.27.14,0,.87.05,3.01.05h5.16c2.14,0,2.87-.05,3.01-.05.24,0,.27.02.27.27v1.47c0,.24-.02.26-.27.26-.12,0-.72-.02-2.22-.05v2.19c1.9,0,2.63-.05,2.75-.05.24,0,.27.02.27.27v1.45c0,.27-.02.29-.27.29-.12,0-.84-.05-2.75-.05v2.24c0,1.66.05,2.46.05,2.6,0,.27-.02.29-.27.29h-1.78c-.24,0-.27-.02-.27-.29,0-.14.05-.94.05-2.6v-2.24h-2.53ZM71.27,41.31v-2.19h-2.34c0,.82-.02,1.57-.05,2.19h2.39ZM80.19,41.55c0,1.69.1,3.23.1,4.41s-.14,1.73-.7,2.22c-.55.48-1.25.65-3.18.65-.75,0-.77,0-.89-.75-.12-.72-.31-1.28-.55-1.76.67.1,1.23.12,1.76.12.8,0,.99-.22.99-.94v-9.93h-3.95c-1.88,0-2.51.05-2.65.05-.27,0-.29-.02-.29-.26,0-.14.05-.67.05-2.1v-3.23c0-1.4-.05-1.95-.05-2.12,0-.24.02-.26.29-.26.14,0,.77.05,2.65.05h3.54c1.88,0,2.53-.05,2.67-.05.24,0,.27.02.27.26,0,.17-.05,1.18-.05,3.3v10.34ZM73.22,29.48v1.37h4.48v-1.37h-4.48ZM77.71,32.47h-4.48v1.4h4.48v-1.4Z"/>
          <path class="cls-1" d="M98.7,45.45c0,.46.07.7.27.84.22.17.67.24,1.76.24s1.61-.12,1.9-.39c.31-.29.51-.84.6-2.41.48.31,1.04.53,1.64.67.65.17.7.19.6.82-.24,1.71-.55,2.43-1.28,2.89-.67.43-1.73.6-3.47.6-1.98,0-3.11-.1-3.73-.53-.6-.41-.75-.82-.75-2.02v-3.98h-2.96c-.67,3.35-2.53,5.16-6.51,6.6-.27.1-.41.17-.53.17-.19,0-.29-.17-.53-.6-.34-.63-.8-1.2-1.23-1.57,3.76-.99,5.49-2.12,6.19-4.6h-1.81c-2.29,0-3.08.05-3.23.05-.27,0-.29-.02-.29-.26v-1.73c0-.24.02-.26.29-.26.14,0,.94.05,3.23.05h2.17c.02-.53.05-1.11.05-1.76v-.82c-1.04.02-1.47.05-1.57.05-.27,0-.29-.02-.29-.27v-.92c-1.01.65-2.1,1.23-3.23,1.78-.27.12-.43.19-.55.19-.19,0-.29-.19-.51-.63-.27-.51-.58-.92-.99-1.33,1.66-.65,3.16-1.4,4.46-2.22-.82-.92-1.57-1.64-2.43-2.34-.12-.1-.19-.17-.19-.24,0-.05.07-.12.19-.22l1.2-.96c.22-.17.27-.22.48-.05.96.8,1.78,1.57,2.63,2.43,1.06-.87,1.95-1.81,2.7-2.87h-2.7c-1.81,0-2.39.05-2.53.05-.27,0-.29-.02-.29-.27v-1.66c0-.24.02-.26.29-.26.14,0,.72.05,2.53.05h3.32c1.35,0,2.02-.05,2.19-.05.22,0,.29.02.41.29.27.75.63,1.45,1.11,2.07.1.17.22.31.34.48.58-.53,1.06-1.04,1.45-1.54.24-.29.43-.58.67-1.01.72.36,1.42.82,1.86,1.11.22.14.27.27.27.39,0,.14-.1.27-.31.36-.19.1-.43.22-.82.65-.51.53-1.01,1.04-1.66,1.59.43.39.87.77,1.33,1.11.82-.7,1.54-1.42,2.05-2,.24-.31.46-.6.67-1.04.7.39,1.33.75,1.88,1.11.22.14.29.27.29.41s-.12.26-.31.34c-.24.1-.43.22-.84.65-.53.53-1.16,1.11-1.86,1.71,1.2.65,2.51,1.18,3.93,1.64-.36.48-.63.94-.87,1.52-.19.46-.27.63-.46.63-.12,0-.29-.05-.55-.17-1.4-.6-2.63-1.23-3.71-1.93v1.13c0,.24-.02.27-.27.27-.12,0-.58-.02-1.69-.05v2.58h2.43c2.31,0,3.08-.05,3.25-.05.24,0,.27.02.27.26v1.73c0,.24-.02.26-.27.26-.17,0-.94-.05-3.25-.05h-2.43v3.25ZM99.52,35.33c-1.81-1.35-3.2-2.92-4.36-4.84-1.16,1.86-2.67,3.45-4.53,4.84h8.89ZM96.24,40.03v-2.58h-2.65v.82c0,.63-.02,1.2-.05,1.76h2.7Z"/>
        </g>
      </g>
      <g>
        <g>
          <rect class="cls-2" x="169.47" y="1.35" width="90.14" height="74.54"/>
          <path class="cls-1" d="M258.61,2.35v72.54h-88.14V2.35h88.14M260.61.35h-92.14v76.54h92.14V.35h0Z"/>
        </g>
        <g>
          <path class="cls-1" d="M199.6,31.19h-5.57v16.07h-3.28v-16.07h-5.52v-2.63h14.36v2.63Z"/>
          <path class="cls-1" d="M203.26,41.31c.02,2.51,1.13,4.17,3.32,4.17,1.37,0,2.34-.77,2.79-2.51l2.75.8c-.82,2.53-2.63,3.83-5.57,3.83-3.95,0-6.26-2.53-6.26-6.87s2.43-6.99,6-6.99c3.37,0,5.9,2.46,5.9,6.94v.63h-8.94ZM209.23,39.31c-.14-2.22-1.08-3.47-2.89-3.47s-2.89,1.35-3.04,3.47h5.93Z"/>
          <path class="cls-1" d="M224,38.63c-.29-1.83-1.11-2.67-2.34-2.67-1.95,0-2.96,1.66-2.96,4.7s1.01,4.72,2.96,4.72c1.42,0,2.24-.94,2.53-2.77l2.82.77c-.65,2.75-2.58,4.22-5.42,4.22-3.76,0-6-2.58-6-6.89s2.31-6.96,6-6.96c2.84,0,4.77,1.52,5.35,4.22l-2.94.67Z"/>
          <path class="cls-1" d="M233.8,36.27c1.06-1.49,2.58-2.51,4.24-2.51,2.19,0,3.78,1.42,3.78,3.95v9.54h-3.11v-8.67c0-1.54-.65-2.22-1.83-2.22-1.06,0-2.26.89-3.08,2.26v8.63h-3.04v-19.03h3.04v8.05Z"/>
        </g>
      </g>
      <g>
        <g>
          <rect class="cls-2" x="314.56" y="1" width="165.97" height="74.54"/>
          <path class="cls-1" d="M479.53,2v72.54h-163.97V2h163.97M481.53,0h-167.97v76.54h167.97V0h0Z"/>
        </g>
        <g>
          <path class="cls-1" d="M338.69,31.96c1.4,0,1.69-.07,2-.22.12-.07.24-.12.34-.12.14,0,.29.07.41.19.65.58,1.2,1.18,1.73,1.93.12.19.19.36.19.53,0,.19-.1.36-.31.51-.51.36-.84.58-1.16.92-2.07,2.29-4.31,4.53-6.48,6.46.77.77,1.42,1.52,2.12,2.41.12.14.17.24.17.36s-.07.24-.22.39c-.48.48-1.01.99-1.57,1.42-.12.07-.22.12-.31.12s-.19-.07-.29-.22c-2.34-3.01-4.77-5.37-7.73-7.49.48-.46,1.3-1.23,1.73-1.61.1-.07.19-.12.27-.12.1,0,.19.07.34.17,1.25.92,2.41,1.76,3.42,2.7,2.02-1.76,3.78-3.61,5.57-5.69l-10.14.05c-1.4,0-3.18.05-4.48.17-.31,0-.39-.14-.43-.43-.14-.84-.24-1.69-.29-2.58,1.64.17,3.59.17,5.25.17h9.88Z"/>
          <path class="cls-1" d="M348.47,39.77c-1.67,0-2.31.29-2.48.29-.2,0-.34-.14-.39-.51-.08-.55-.19-1.69-.25-2.92,1.1.24,1.94.29,3.64.29h5.43c1.28,0,2.58-.05,3.88-.07.25-.02.3.05.3.34.03.72.03,1.54,0,2.26,0,.29-.07.39-.3.36-1.26-.02-2.51-.05-3.76-.05h-6.07Z"/>
          <path class="cls-1" d="M375.76,35.65c-.22,3.2-.75,5.18-1.95,7.37-1.18,2.1-2.79,3.95-4.77,5.16-.14.12-.34.19-.51.19-.14,0-.27-.05-.41-.17-.72-.48-1.64-.82-2.48-1.06,2.79-1.66,4.31-3.13,5.45-5.18,1.04-1.86,1.54-3.73,1.66-6.31h-4.96c-1.01,1.59-2.24,3.08-3.35,4.14-.12.12-.27.19-.41.19-.12,0-.24-.05-.34-.12-.6-.39-1.52-.72-2.24-.87,2.7-2.63,4.36-5.01,5.69-7.85.53-1.2.82-2.02.96-3.32.94.29,2.14.7,2.89,1.11.19.07.29.24.29.41s-.1.36-.26.46c-.34.22-.58.67-.72.99-.36.84-.8,1.71-1.11,2.31h7.73c1.49,0,3.11-.1,4.63-.12.29,0,.39.12.39.43.02.65.02,1.3,0,1.95,0,.24-.1.39-.34.39-.99-.05-2.94-.1-4.41-.1h-1.42Z"/>
          <path class="cls-1" d="M398.1,37.36c-.14,2.7-.48,4.31-1.42,6.14-.96,1.88-2.7,3.64-4.24,4.55-.26.17-.51.29-.72.29-.17,0-.34-.07-.51-.24-.48-.48-1.3-.96-2.14-1.28,2.36-1.28,3.78-2.46,4.79-4.29.89-1.59,1.13-2.89,1.23-5.18h-4.58c-1.2,0-2.39.07-3.61.14-.22.02-.29-.14-.31-.46-.12-.67-.19-1.59-.19-2.31,1.35.12,2.7.12,4.1.12h10.82c1.88,0,3.28-.05,4.7-.14.24,0,.27.14.27.48.02.31.02,1.54,0,1.86,0,.31-.14.41-.36.41-1.25-.05-2.92-.1-4.58-.1h-3.23ZM393.33,31.77c-1.11,0-2.07.05-3.42.1-.31,0-.39-.12-.41-.41-.07-.58-.1-1.45-.17-2.31,1.69.1,2.92.12,4,.12h5.4c1.35,0,2.87-.02,4.07-.1.24,0,.29.14.29.46.05.58.05,1.18,0,1.76,0,.34-.05.46-.31.46-1.3-.05-2.72-.07-4.05-.07h-5.4Z"/>
          <path class="cls-1" d="M419.69,44.06c0,1.16.05,2.7.07,3.93.02.29-.12.41-.41.43-.63.05-1.33.05-1.95,0-.27-.02-.41-.14-.39-.43.02-1.37.07-2.58.07-3.85v-4.12c-1.64,1.37-3.76,2.84-4.99,3.47-.1.07-.22.1-.31.1-.17,0-.36-.1-.48-.24-.43-.51-1.08-.99-1.73-1.2,3.78-1.98,7.06-4.51,10-7.83.55-.65.96-1.25,1.28-2.07.82.48,1.83,1.11,2.22,1.45.17.14.27.31.27.43,0,.17-.12.34-.36.46-.31.17-.87.75-1.08.99-.63.72-1.35,1.52-2.19,2.34v6.17Z"/>
          <path class="cls-1" d="M431.35,30.32c.1-.12.22-.19.34-.19.1,0,.19.05.31.12,1.23.65,3.23,2.12,4.6,3.42.14.14.22.24.22.34s-.05.19-.14.31c-.36.48-1.16,1.45-1.49,1.81-.12.12-.19.19-.29.19s-.19-.07-.31-.19c-1.45-1.49-3.18-2.87-4.92-3.93.53-.65,1.23-1.4,1.69-1.88ZM433.45,43.02c2.94-1.52,4.51-2.53,6.94-4.48,2.94-2.39,4.55-3.93,6.6-6.55.14,1.2.36,2.02.67,2.82.07.17.12.31.12.46,0,.22-.12.41-.39.72-1.28,1.49-3.35,3.42-5.54,5.11-2,1.57-4.02,2.92-7.28,4.72-1.08.65-1.4.89-1.61,1.11-.14.14-.29.24-.43.24-.12,0-.27-.1-.41-.27-.6-.67-1.35-1.66-1.93-2.67,1.23-.34,1.98-.55,3.25-1.2Z"/>
          <path class="cls-1" d="M465.08,31.94c.63-.02.94-.12,1.2-.29.1-.07.19-.1.31-.1s.24.05.39.14c.6.39,1.16.84,1.64,1.3.22.19.31.39.31.55,0,.19-.12.36-.29.51-.34.26-.58.6-.8,1.04-1.61,3.28-3.16,5.61-4.77,7.45-2.07,2.34-4.94,4.67-7.32,6-.14.1-.26.12-.39.12-.19,0-.36-.1-.55-.26-.6-.48-1.35-.84-2.29-1.11,3.76-2.07,5.66-3.59,8.02-6.14,1.9-2.12,3.01-3.76,4.46-6.84l-5.83.17c-1.98,2.43-3.18,3.81-4.55,4.94-.17.17-.34.27-.51.27-.12,0-.24-.05-.36-.14-.6-.43-1.49-.87-2.31-1.04,3.13-2.55,4.99-4.79,6.48-7.16.8-1.35,1.16-2.1,1.42-3.25,1.37.48,2.29.89,2.82,1.28.17.12.24.26.24.41s-.07.29-.26.41c-.24.14-.41.41-.6.65-.26.41-.51.77-.79,1.2l4.34-.1ZM468.07,28.68c.12-.1.22-.07.36.05.75.58,1.61,1.54,2.29,2.58.1.14.1.27-.07.39l-1.01.75c-.17.12-.29.1-.41-.07-.72-1.11-1.49-2.02-2.43-2.79l1.28-.89ZM470.21,27.12c.14-.1.22-.07.36.05.89.67,1.76,1.64,2.29,2.48.1.14.12.29-.07.43l-.96.75c-.19.14-.31.07-.41-.07-.65-1.04-1.42-1.95-2.41-2.77l1.2-.87Z"/>
        </g>
      </g>
      <g>
        <g>
          <rect class="cls-2" x="535.48" y="1" width="113.52" height="74.54"/>
          <path class="cls-1" d="M648,2v72.54h-111.52V2h111.52M650,0h-115.52v76.54h115.52V0h0Z"/>
        </g>
        <g>
          <path class="cls-1" d="M562.51,34.46h-8.41c-1.64,0-2.77.05-3.61.14-.27,0-.36-.12-.36-.41-.07-.65-.12-1.78-.12-2.58,1.45.14,2.29.17,4.02.17h7.16c1.25,0,2.53-.05,3.81-.1.39,0,.51.1.48.41,0,1.28-.05,2.53-.05,3.81v5.76c0,1.76.07,3.69.1,4.36,0,.24-.1.31-.43.34-.67.05-1.45.05-2.12,0-.39-.02-.46-.05-.46-.41v-.96h-8.29c-1.52,0-2.79.07-3.95.1-.22,0-.31-.1-.34-.36-.07-.63-.12-1.49-.12-2.51,1.13.07,2.53.12,4.43.12h8.26v-7.88Z"/>
          <path class="cls-1" d="M573.22,30.67c.1-.12.22-.19.34-.19.1,0,.19.05.31.12,1.23.65,3.23,2.12,4.6,3.42.14.14.22.24.22.34s-.05.19-.14.31c-.36.48-1.16,1.45-1.49,1.81-.12.12-.19.19-.29.19s-.19-.07-.31-.19c-1.45-1.49-3.18-2.87-4.92-3.93.53-.65,1.23-1.4,1.69-1.88ZM575.32,43.37c2.94-1.52,4.51-2.53,6.94-4.48,2.94-2.39,4.55-3.93,6.6-6.55.14,1.2.36,2.02.67,2.82.07.17.12.31.12.46,0,.22-.12.41-.39.72-1.28,1.49-3.35,3.42-5.54,5.11-2,1.57-4.02,2.92-7.28,4.72-1.08.65-1.4.89-1.61,1.11-.14.14-.29.24-.43.24-.12,0-.27-.1-.41-.27-.6-.67-1.35-1.66-1.93-2.67,1.23-.34,1.98-.55,3.25-1.2Z"/>
          <path class="cls-1" d="M610.79,33.95c1.18,0,2.53-.02,3.64-.07.29-.02.31.12.34.39.05.6.05,1.3,0,1.9-.02.31-.07.41-.41.39-.82,0-2.29-.02-3.47-.02h-.99c-.14,3.45-.67,5.47-1.86,7.42-1.2,2-3.16,3.45-5.69,4.48-.34.14-.53.22-.67.22s-.26-.07-.46-.27c-.72-.75-1.18-1.08-2-1.45,3.42-1.06,5.28-2.29,6.51-4.26.94-1.54,1.33-3.2,1.42-6.14h-5.13v.87c0,1.42,0,2.72.07,4,.02.27-.14.31-.41.34-.63.05-1.42.05-2.07,0-.31-.02-.46-.07-.43-.34.07-1.25.12-2.43.12-3.95v-.92h-.72c-1.3,0-3.23.07-3.98.12-.19,0-.26-.14-.29-.46-.1-.51-.12-1.35-.17-2.34,1.01.07,2.58.12,4.43.12h.72v-1.76c0-1.54-.05-2.14-.29-3.54,1.25.12,2.43.24,2.94.39.26.05.36.17.36.34,0,.14-.07.31-.14.51-.17.43-.17.67-.17,2.31v1.76h5.18l.02-2.36c.02-1.35-.05-2.46-.22-3.3.92.1,2.24.24,2.82.41.34.07.43.19.43.39,0,.1-.02.24-.1.43-.17.46-.19,1.08-.19,2.12v2.29h.84Z"/>
          <path class="cls-1" d="M623.94,32.29c.41.12.46.41.31.75-.26.53-.29,1.06-.29,1.64-.05,3.01-.51,5.3-1.3,7.08-.63,1.47-1.69,3.04-3.42,4.53-.24.19-.43.31-.63.31-.14,0-.29-.07-.46-.19-.6-.41-1.18-.7-2.05-1.01,1.88-1.42,3.16-2.89,4-4.79.67-1.64.99-2.96,1.01-6.82,0-.92-.05-1.3-.24-2.02,1.37.17,2.48.34,3.06.53ZM629.29,42.48c1.18-.63,2.29-1.37,3.42-2.24,1.45-1.11,2.87-2.39,4.22-4.1.1.84.34,1.64.75,2.43.07.17.14.29.14.41,0,.17-.1.34-.36.6-1.2,1.23-2.31,2.22-3.57,3.16-1.25.96-2.6,1.9-4.29,2.89-.43.29-.48.34-.7.51-.14.12-.31.19-.48.19-.14,0-.31-.07-.51-.19-.53-.36-1.08-.99-1.45-1.47-.14-.22-.22-.36-.22-.51,0-.12.02-.22.1-.36.17-.31.14-.6.14-1.83v-7.54c0-2.1,0-3.08-.24-4.19.96.12,2.29.29,3.01.51.31.07.43.22.43.41,0,.14-.07.36-.19.6-.22.46-.22.94-.22,2.67v8.05Z"/>
        </g>
      </g>
    </g>
  </g>
</svg>