<?xml version="1.0" encoding="UTF-8"?><svg id="_レイヤー_2" xmlns="http://www.w3.org/2000/svg" viewBox="0 0 502.54093 245.90564"><defs><style>.cls-1{fill:#a0afb5;stroke-width:0px;}</style></defs><g id="_枠"><path class="cls-1" d="M26.56211,207.0485c-1.3163-2.50461-3.80425-4.17905-6.62016-4.45548-2.60095.03369-4.70448,2.1279-4.7497,4.72868,0,2.29078.86167,3.80396,3.32059,6.64118l10.23497,12.23153,8.7218-8.15435,5.128,5.69544-8.72179,8.23841,9.47838,11.09664h-11.01258l-4.45547-5.31714-3.9721,3.42566c-6.1578,5.21207-16.11956,4.72868-20.65909-.86168-4.53954-5.59036-4.83377-14.20707,2.35383-20.6591l4.37141-3.88803-.94574-1.61825c-1.43293-2.26216-2.13038-4.91245-1.99656-7.58691.37123-6.60655,5.88854-11.74367,12.50474-11.64307,5.23496.07244,10.05368,2.86811,12.71491,7.37675l-5.69544,4.7497ZM18.82808,235.02129l3.5938-3.23652-8.04927-9.56246-3.78295,3.40466c-2.94062,2.31986-3.53344,6.54374-1.34505,9.58346,2.35383,2.64807,6.24186,2.83722,9.58347-.18914Z"/><path class="cls-1" d="M82.94903,27.52664c-8.30147-4.45547-21.14247-9.28924-31.52456-9.28924-15.82533,0-25.89217,7.94419-25.89217,18.59949,0,11.8112,12.60982,18.41034,29.06564,24.42102,30.05342,11.4329,40.91888,25.21965,40.51957,43.02052-.63049,23.93765-22.44549,37.38813-48.14851,37.19897-20.17572-.18914-35.98003-7.54488-44.68081-14.52231l8.40655-15.69923c7.71301,5.61138,20.76418,12.39966,35.20242,12.39966,15.21585,0,28.47719-7.56589,28.47719-18.91474,0-13.36641-14.43825-18.91474-33.43705-27.13214C18.30267,67.83604,4.45288,56.76041,4.45288,36.83689,4.45288,18.93094,19.29044.0162,49.533.0162c14.71146,0,32.04997,6.30491,40.14127,10.50819l-6.72524,17.00225Z"/><path class="cls-1" d="M155.43451,93.81228v44.91199h-20.6801V3.69407c62.50269-10.84445,90.58056,10.50819,90.58056,43.20966,0,31.02017-24.73628,49.61965-69.90046,46.90855ZM155.43451,75.78024c33.6262,2.33282,48.33766-9.47838,48.33766-29.06564,0-17.82188-13.24032-30.81-48.33766-26.35453v55.42018Z"/><path class="cls-1" d="M348.1126,121.72202v17.00225h-86.16713V2.72732h83.64517v17.25444h-62.92303v40.98193h51.99452v17.06529h-51.99452v43.69304h65.44498Z"/><path class="cls-1" d="M502.54093,120.5451c-9.47837,9.12111-24.90441,21.01637-54.76866,21.01637-40.91888,0-72.17022-30.81-72.17022-70.93026-.00003-42.70527,34.61394-70.61501,73.15799-70.61501,19.51426-.40373,38.42957,6.74975,52.79312,19.96555l-12.44169,14.52231c-7.92318-7.16658-21.9621-16.45582-39.93111-16.45582-28.66633,0-51.00675,23.11801-51.00675,52.54094,0,28.4982,20.74315,52.70907,51.19589,52.70907,14.99761-.34536,29.37418-6.05722,40.51956-16.09855l12.65187,13.34539Z"/><path class="cls-1" d="M121.45103,237.0809c-5.6993,5.91571-13.67264,9.08666-21.87804,8.70078-16.35074,0-28.81345-12.81998-28.81345-29.42292-.37355-15.87401,12.19206-29.04527,28.06607-29.41882.38216-.009.76446-.01036,1.14668-.0041,7.841-.0846,15.39675,2.93771,21.01637,8.40655l-4.98088,6.0317c-4.26076-4.21681-9.95971-6.66458-15.95143-6.85134-11.45392,0-20.38588,9.60448-20.38588,21.83601,0,11.85323,8.30147,21.92008,20.44893,21.92008,6.03878-.16169,11.80673-2.54069,16.20362-6.68321l5.128,5.48527Z"/><path class="cls-1" d="M161.10892,187.06192c16.24863-.19732,29.58071,12.81485,29.77803,29.06348.19732,16.24863-12.81485,29.5807-29.06348,29.77802-16.24863.19732-29.58071-12.81484-29.77802-29.06347-.00144-.11836-.00216-.23675-.00217-.35511-.36069-15.88592,12.22499-29.0564,28.11091-29.41709.3182-.00723.63648-.00917.95474-.00584ZM161.10892,238.29984c10.82344,0,20.21776-8.70078,20.21776-21.75194s-9.39432-22.10922-20.21776-22.10922-20.13367,8.95296-20.13367,22.04617,9.22619,21.70992,20.13367,21.70992v.10507Z"/><path class="cls-1" d="M206.69344,244.64679v-56.74421l2.35384-.6515,24.33696,32.47029,24.25288-32.44928,2.35384.6515v56.74421h-8.19639v-36.8417l-18.01103,24.48408h-.88268l-18.01103-24.23188v36.56849h-8.19639Z"/><path class="cls-1" d="M288.04783,225.94221v18.70458h-8.30146v-56.17677c24.96746-4.4975,36.16919,4.37141,36.16919,17.99001-.00003,12.88305-9.85672,20.53301-27.86773,19.48219ZM288.04783,218.46039c13.42946.96675,19.33506-3.95107,19.33506-12.08441,0-7.41878-5.2751-12.81998-19.33506-10.97055v23.05496Z"/><path class="cls-1" d="M321.06454,244.64679l25.61896-57.20657h2.83722l25.21965,57.20657h-9.14214l-5.21205-11.51698h-25.03051l-5.21205,11.51698h-9.07909ZM338.361,226.11035h19.01982l-9.47837-22.55056-9.54145,22.55056Z"/><path class="cls-1" d="M433.60722,188.07072v56.74421l-1.89146.56744-35.07633-39.17452v38.43895h-8.13336v-56.74421l1.89146-.6515,35.07633,39.4057v-38.58606h8.13336Z"/><path class="cls-1" d="M496.00484,188.07072l-19.98656,32.49131v24.08476h-8.40655v-24.08476l-19.81842-32.49131h9.79364l14.45927,23.70647,14.52232-23.70647h9.4363Z"/></g></svg>