<?xml version="1.0" encoding="UTF-8"?><svg xmlns="http://www.w3.org/2000/svg" xmlns:xlink="http://www.w3.org/1999/xlink" viewBox="0 0 78.60409 70.28543"><defs><style>.cls-1{clip-path:url(#clippath);}.cls-2{fill:none;stroke-width:0px;}.cls-3{fill:#a0afb5;stroke:#a0afb5;stroke-miterlimit:10;}.cls-4{mix-blend-mode:multiply;}.cls-5{isolation:isolate;}</style><clipPath id="clippath"><rect id="_スライス_" class="cls-2" x="0" width="78.60409" height="70.28543"/></clipPath></defs><g class="cls-5"><g id="_レイヤー_2"><g id="_枠"><g class="cls-1"><g class="cls-4"><path class="cls-3" d="M.94809,23.48129C.94809,9.08188,9.40805.80209,21.827.80209c12.41992,0,20.87988,8.27979,20.87988,22.6792v23.39893c0,14.39941-8.45996,22.6792-20.87988,22.6792-12.41895,0-20.87891-8.27979-20.87891-22.6792v-23.39893ZM13.72739,45.98032c0,7.6499,3.33008,11.15967,8.09961,11.15967,4.77051,0,8.10059-3.50977,8.10059-11.15967v-21.59912c0-7.64941-3.33008-11.15967-8.10059-11.15967-4.76953,0-8.09961,3.51025-8.09961,11.15967v21.59912Z"/><path class="cls-3" d="M64.73032,13.94174h-9.89941V1.88217h22.67871v66.59717h-12.7793V13.94174Z"/></g></g></g></g></g></svg>