<?xml version="1.0" encoding="UTF-8"?><svg xmlns="http://www.w3.org/2000/svg" viewBox="0 0 94.1758 70.14565"><defs><style>.cls-1{fill:none;stroke-width:0px;}.cls-2{fill:#a0afb5;stroke:#a0afb5;stroke-miterlimit:10;}.cls-3{mix-blend-mode:multiply;}.cls-4{isolation:isolate;}</style></defs><g class="cls-4"><g id="_レイヤー_2"><g id="_枠"><g class="cls-3"><path class="cls-2" d="M.50001,23.56752C.50001,9.16811,8.95997.88832,21.37892.88832c12.41992,0,20.87988,8.27979,20.87988,22.6792v23.39893c0,14.39941-8.45996,22.6792-20.87988,22.6792-12.41895,0-20.87891-8.27979-20.87891-22.6792v-23.39893ZM13.27931,46.06655c0,7.64941,3.33008,11.15918,8.09961,11.15918,4.77051,0,8.09961-3.50977,8.09961-11.15918v-21.59912c0-7.6499-3.3291-11.15967-8.09961-11.15967-4.76953,0-8.09961,3.50977-8.09961,11.15967v21.59912Z"/><path class="cls-2" d="M52.90724,55.24623c8.09961-8.09961,13.67969-14.21973,17.63965-18.17969,7.8291-7.91943,8.81934-10.79932,8.81934-14.84912,0-5.12988-3.33008-7.6499-6.56934-7.6499-3.06055,0-6.92969,1.44043-6.92969,9h-13.67969c0-7.83008,2.25-13.49951,5.93945-17.18945,3.69043-3.77979,8.91016-5.48975,14.75977-5.48975,11.96973,0,20.51855,8.81982,20.51855,21.59912,0,5.58008-1.43945,10.5293-4.49902,14.66943-3.60059,4.67969-9.4502,10.34961-18,18.80908h22.76953v12.59961h-40.76855v-13.31934Z"/></g><rect id="_スライス_" class="cls-1" width="94.1758" height="70.14564"/></g></g></g></svg>