<?xml version="1.0" encoding="UTF-8"?><svg xmlns="http://www.w3.org/2000/svg" viewBox="0 0 97.1025 70.45319"><defs><style>.cls-1{fill:none;stroke-width:0px;}.cls-2{fill:#a0afb5;stroke:#a0afb5;stroke-miterlimit:10;}.cls-3{mix-blend-mode:multiply;}.cls-4{isolation:isolate;}</style></defs><g class="cls-4"><g id="_レイヤー_2"><g id="_枠"><g class="cls-3"><path class="cls-2" d="M1.0971,23.60022C1.0971,9.20081,9.55706.92151,21.97601.92151c12.41992,0,20.87988,8.2793,20.87988,22.67871v23.39941c0,14.39941-8.45996,22.67871-20.87988,22.67871-12.41895,0-20.87891-8.2793-20.87891-22.67871v-23.39941ZM13.8764,46.09924c0,7.6499,3.33008,11.15967,8.09961,11.15967,4.77051,0,8.09961-3.50977,8.09961-11.15967v-21.59863c0-7.6499-3.3291-11.16016-8.09961-11.16016-4.76953,0-8.09961,3.51025-8.09961,11.16016v21.59863Z"/><path class="cls-2" d="M53.37835,20.99036c.08984-13.04932,8.36914-20.06885,20.51953-20.06885,12.05859,0,19.61914,7.19922,19.61914,17.63867,0,7.65039-3.15039,11.33986-8.09961,13.41016,8.09961,2.4297,10.79883,9.62891,10.79883,17.2793,0,11.24902-7.55957,20.42871-21.23926,20.42871-9.17969,0-15.74902-3.50977-19.34863-9.44922-2.07031-3.41992-3.24023-7.56006-3.33008-12.23975h14.03906c0,5.48975,2.79004,9.08936,8.37012,9.08936,4.41016,0,7.46973-3.41992,7.46973-8.45947,0-6.65967-4.13965-9.53955-9.89941-9.53955h-4.32031v-12.05957h3.41992c5.39941,0,8.09961-2.51953,8.09961-7.01953,0-3.59961-1.97949-6.47949-6.38965-6.47949-3.95996,0-5.66992,3.41943-5.66992,7.46924h-14.03906Z"/></g><rect id="_スライス_" class="cls-1" x="0" width="97.1025" height="70.45319"/></g></g></g></svg>