<?xml version="1.0" encoding="UTF-8"?><svg xmlns="http://www.w3.org/2000/svg" viewBox="0 0 96 70.22089"><defs><style>.cls-1{fill:none;stroke-width:0px;}.cls-2{fill:#a0afb5;stroke:#a0afb5;stroke-miterlimit:10;}.cls-3{mix-blend-mode:multiply;}.cls-4{isolation:isolate;}</style></defs><g class="cls-4"><g id="_レイヤー_2"><g id="_枠"><g class="cls-3"><path class="cls-2" d="M.97088,23.39406C.97088,8.99464,9.43084.71486,21.84979.71486c12.41992,0,20.87988,8.27979,20.87988,22.6792v23.39893c0,14.39941-8.45996,22.6792-20.87988,22.6792-12.41895,0-20.87891-8.27979-20.87891-22.6792v-23.39893ZM13.75018,45.89308c0,7.6499,3.33008,11.15967,8.09961,11.15967,4.77051,0,8.10059-3.50977,8.10059-11.15967v-21.59912c0-7.64941-3.33008-11.15967-8.10059-11.15967-4.76953,0-8.09961,3.51025-8.09961,11.15967v21.59912Z"/><path class="cls-2" d="M75.83221,55.07277h-23.5791v-12.05957L75.47284,1.79493h13.13867v41.21826h6.48047v12.05957h-6.48047v13.31934h-12.7793v-13.31934ZM75.83221,43.0132v-21.86914l-11.51953,21.86914h11.51953Z"/></g><rect id="_スライス_" class="cls-1" width="96" height="70.22089"/></g></g></g></svg>