<?xml version="1.0" encoding="UTF-8"?><svg id="_レイヤー_2" xmlns="http://www.w3.org/2000/svg" viewBox="0 0 750 70.23984"><defs><style>.cls-1{fill:#005a96;stroke-width:0px;}.cls-2{fill:none;stroke:#005a96;stroke-miterlimit:10;}</style></defs><g id="_枠"><rect class="cls-2" x="99.11737" y=".5" width="551.76526" height="69.23984"/><path class="cls-1" d="M145.74536,29.74751c-.67505-2.83496-2.22754-4.28662-4.65771-4.28662-2.76782,0-4.35425,1.31641-4.35425,3.40918,0,2.29492,1.0127,3.34131,4.79297,4.3877l1.38379.40527c5.97412,1.62012,7.66187,3.88135,7.66187,7.729,0,4.59033-3.17285,7.76318-9.45068,7.76318-5.09668,0-8.64062-2.22754-9.8894-6.78418l4.354-1.38379c.67505,3.0376,2.6665,4.7251,5.43408,4.7251,3.44287,0,4.99536-1.48486,4.99536-3.74658,0-2.26123-.81006-3.30762-5.09668-4.52246l-1.3501-.40527c-5.56909-1.65381-7.35791-3.84766-7.35791-7.86426,0-3.94922,3.10522-7.15527,8.74194-7.15527,4.59033,0,7.83057,2.16016,9.21436,6.51416l-4.42163,1.21484Z"/><path class="cls-1" d="M166.68701,22.45698c6.44653,0,9.34937,2.6665,9.34937,7.49316s-3.34155,7.69531-9.61938,7.69531h-4.42163v11.00342h-4.55664v-26.19189h9.24829ZM161.99536,34.23677h4.28662c3.47632,0,5.16406-1.58643,5.16406-4.25293,0-2.59912-1.5188-4.11768-4.99536-4.11768h-4.45532v8.37061Z"/><path class="cls-1" d="M199.80957,26.0688h-12.72485v6.91895h9.61963v3.61182h-9.61963v8.43799h12.99487v3.61133h-17.55127v-26.19189h17.28125v3.61182Z"/><path class="cls-1" d="M221.32837,31.03023c-.64136-3.64551-2.53149-5.53516-5.50171-5.53516-3.88159,0-6.58179,3.375-6.58179,10.05811,0,6.64893,2.76782,10.05811,6.58179,10.05811,3.13892,0,5.02905-1.78906,5.77173-5.60303l4.28638,1.31641c-1.38379,5.40039-4.75903,7.79688-10.0918,7.79688-6.78442,0-11.37476-4.89404-11.37476-13.53467,0-8.67432,4.62427-13.60254,11.37476-13.60254,5.36646,0,8.87671,3.00439,9.95679,7.96582l-4.42139,1.08008Z"/><path class="cls-1" d="M252.76636,36.36323c-.30396,3.17285-1.3501,6.21045-2.90283,7.89795,1.31641,1.51904,2.39648,1.82275,4.72534,1.78906l-.84375,3.0376h-1.14771c-2.83521,0-4.05029-.6416-5.50146-2.19385-1.78906,1.51855-3.94922,2.22754-6.91943,2.22754-5.19775,0-8.77563-3.13916-8.77563-7.86426,0-3.61182,1.75513-5.87305,5.56934-7.62793-1.3501-1.9917-1.92407-3.40918-1.92407-5.26562,0-3.40869,2.6665-5.90674,6.61548-5.90674,3.81421,0,6.44678,2.09277,6.44678,5.60303,0,3.24023-1.82251,5.26514-6.21045,6.54785,1.78882,2.6665,3.8479,5.33301,5.77173,7.59424,1.08008-1.82227,1.38379-3.98242,1.5188-6.61523l3.57788.77637ZM235.3501,40.71724c0,3.20654,2.49756,5.40039,5.67041,5.40039,1.65381,0,3.0376-.43896,4.08398-1.3501-2.29517-2.59912-4.75903-5.83936-6.7168-8.91064-2.05884,1.11377-3.0376,2.53125-3.0376,4.86035ZM244.32812,28.02632c0-1.62012-1.11377-2.73389-2.6665-2.73389-1.48511,0-2.80127,1.14746-2.80127,2.93652,0,1.24854.43872,2.43018,1.62012,4.18506,2.90259-.97852,3.84766-2.29492,3.84766-4.3877Z"/><path class="cls-1" d="M275.90796,31.03023c-.64136-3.64551-2.53149-5.53516-5.50171-5.53516-3.88159,0-6.58179,3.375-6.58179,10.05811,0,6.64893,2.76782,10.05811,6.58179,10.05811,3.13892,0,5.02905-1.78906,5.77173-5.60303l4.28638,1.31641c-1.38379,5.40039-4.75903,7.79688-10.0918,7.79688-6.78442,0-11.37476-4.89404-11.37476-13.53467,0-8.67432,4.62427-13.60254,11.37476-13.60254,5.36646,0,8.87671,3.00439,9.95679,7.96582l-4.42139,1.08008Z"/><path class="cls-1" d="M308.09521,35.55317c0,8.64062-4.52271,13.60205-11.2395,13.60205s-11.20581-4.89404-11.20581-13.53467c0-8.67432,4.55664-13.60205,11.2395-13.60205,6.7168,0,11.20581,4.86035,11.20581,13.53467ZM290.47656,35.58687c0,6.68311,2.56519,10.05811,6.41284,10.05811,3.8479,0,6.37915-3.375,6.37915-10.05811,0-6.7168-2.53125-10.05811-6.37915-10.05811-3.84766,0-6.41284,3.34131-6.41284,10.05811Z"/><path class="cls-1" d="M340.97827,48.64888h-4.35425v-13.23096c0-3.27393.03394-6.14258.06763-9.24805h-.47266c-.67505,3.00391-1.28247,5.7041-2.16016,8.91064l-3.54395,13.56836h-5.33276l-3.44287-13.39941c-.81006-3.03809-1.45142-5.87305-2.22754-9.07959h-.47266c.06763,3.0376.10132,6.0752.10132,9.31543v13.16357h-4.0166v-26.19189h7.39185l3.30762,13.36621c.67505,2.73389,1.3501,5.77148,1.89014,8.64062h.47266c.70874-2.86914,1.24878-5.56934,2.02515-8.57324l3.34155-13.43359h7.42554v26.19189Z"/><path class="cls-1" d="M358.4729,22.45698c6.44653,0,9.34937,2.6665,9.34937,7.49316s-3.34155,7.69531-9.61938,7.69531h-4.42163v11.00342h-4.55664v-26.19189h9.24829ZM353.78125,34.23677h4.28662c3.47632,0,5.16406-1.58643,5.16406-4.25293,0-2.59912-1.5188-4.11768-4.99536-4.11768h-4.45532v8.37061Z"/><path class="cls-1" d="M392.1189,48.64888h-4.75928l-2.22754-7.69531h-8.0332l-2.26123,7.69531h-4.32031l8.03296-26.19189h5.50171l8.06689,26.19189ZM382.80322,32.27925c-.57397-2.05908-.979-3.98291-1.55273-6.44678h-.30371c-.57373,2.49756-1.04639,4.3877-1.62012,6.4126l-1.41772,5.33301h6.41309l-1.5188-5.29883Z"/><path class="cls-1" d="M418.27124,48.64888h-5.56909l-6.34546-13.50098c-1.5188-3.27393-2.56519-5.7041-3.74658-8.64062h-.47241c.1687,3.10547.23633,6.21045.23633,9.45068v12.69092h-4.1853v-26.19189h6.85156l5.43433,11.61084c1.48511,3.27393,2.49756,5.94043,3.47632,8.97803h.47266c-.20264-3.20605-.33765-6.0752-.33765-9.58545v-11.00342h4.1853v26.19189Z"/><path class="cls-1" d="M437.08936,37.8144v10.83447h-4.59033v-10.83447l-8.43823-15.35742h5.06299l5.19775,9.75439c.33765.60791.50635.979.81006,1.58643.30371-.64111.47266-.97852.84375-1.62012l5.0293-9.7207h4.65771l-8.573,15.35742Z"/><path class="cls-1" d="M464.30518,27.89107c-.77612,5.73828-2.19385,11.00342-4.21899,14.54736-1.45142,2.53174-3.20654,3.88184-5.73779,3.88184-2.97021,0-5.97437-3.17285-5.97437-8.6748,0-3.24023,1.38403-6.34521,3.81421-8.77539,2.83521-2.83496,6.41284-4.32031,10.96948-4.32031,8.10059,0,12.85962,4.99512,12.85962,11.71191,0,6.27832-3.54395,10.22705-10.39575,12.28613-.70874.20264-1.01245.06738-1.45142-.60742-.37109-.57422-1.08008-1.3501-2.36255-2.12646,5.7041-1.3501,10.19312-3.71289,10.19312-10.09229,0-4.0166-3.0376-7.83057-7.56055-7.83057h-.13501ZM454.61841,31.16499c-1.62012,1.82275-2.63281,4.08447-2.63281,6.24463,0,3.10498,1.24878,4.82666,2.29517,4.82666.87769,0,1.62012-.43896,2.53149-2.05908,1.48511-2.73389,3.00391-7.59424,3.57764-12.0835-2.36255.47266-4.25269,1.41748-5.77148,3.07129Z"/><path class="cls-1" d="M485.61719,21.3769c.40503-.20215.50635-.16846.70898.16895.70874,1.0127,1.3501,1.99121,1.92383,2.97021.64136-.77637,1.1814-1.58643,1.6875-2.46387.33765-.57373.54004-1.11377.74268-1.65381,1.04639.47217,1.82251.94482,2.59888,1.55225.27002.23633.37134.37158.37134.54004,0,.23633-.13501.40527-.33765.50635-.30371.16895-.64111.60742-.87744,1.04639-.77637,1.24902-1.62012,2.43018-2.63281,3.57764,1.58643,3.78027,2.26147,7.93213,2.26147,13.50098,0,7.99951-1.72144,9.82227-5.50171,9.82227-.40503,0-.84375,0-1.41748-.03369s-.57373-.03369-.74268-1.11377c-.20239-1.08008-.47241-1.92432-.77612-2.49805,1.18115.20264,1.99121.23633,2.76758.23633,1.55273,0,2.32886-.91113,2.32886-6.34521,0-1.31641-.03369-2.56543-.10107-3.74658-1.21509,1.95752-2.63281,3.61133-4.28662,5.09668-.33765.27002-.54004.43848-.70874.43848-.20264,0-.33765-.23633-.50635-.74219-.33765-.94531-.70874-1.6543-1.08008-2.09277,2.49756-1.92383,4.45532-3.91553,6.10913-6.64941-.23633-1.18115-.50635-2.3291-.87744-3.40918-.84399.74268-1.78906,1.45166-2.83521,2.16016-.33765.23633-.54004.33789-.70898.33789-.23608,0-.37109-.23633-.57373-.77637-.3374-.84375-.70874-1.45117-1.11377-1.89014,1.45142-.91162,2.76758-1.89014,3.91528-2.97021-.43872-.91113-.94507-1.78906-1.5188-2.6665l-.979-1.24902c-.10107-.13477-.1687-.23584-.1687-.30371,0-.10107.10132-.16846.37134-.30371l1.95752-1.04639ZM509.58154,41.59468c.40503-.13477.43872-.13477.60742.20264,1.48511,2.59912,2.39648,4.86035,3.34155,8.06689.10132.3374.03369.37109-.43872.54004l-2.16016.7085c-.50635.16895-.54004.16895-.64136-.20215-.27002-1.04639-.50635-1.9917-.81006-2.93652-4.69165.91113-9.31567,1.65381-13.87231,2.16016-.74243.06738-1.08008.20264-1.28247.3374-.27002.16895-.40503.23633-.64136.23633-.27002,0-.43872-.20264-.54004-.50635-.30371-1.08008-.54004-2.36279-.77637-3.40918,1.24902,0,2.46411-.03369,3.47656-.10107,1.72144-.10107,3.51025-.27002,5.33301-.47266v-6.68262h-3.78027v1.28223c0,.30371-.03394.33789-.37134.33789h-2.56519c-.33765,0-.37134-.03418-.37134-.33789,0-.23633.06763-1.14746.06763-6.17676v-3.00391c0-3.00391-.06763-4.0166-.06763-4.18506,0-.3374.03369-.37158.37134-.37158.23633,0,1.3501.06787,4.45532.06787h2.26147v-2.26172c0-2.09229-.06763-3.10498-.23633-4.11768,1.28247.03369,2.32886.06738,3.51025.20264.30371.03369.54004.13477.54004.37109s-.10132.43896-.20264.70898c-.13501.30371-.23608.91113-.23608,2.80127v2.29541h2.43018c3.10522,0,4.21899-.06787,4.45532-.06787.3374,0,.37109.03418.37109.37158,0,.16846-.06738,1.18115-.06738,3.64502v3.40918c0,4.92773.06738,5.87305.06738,6.0752,0,.30371-.03369.33789-.37109.33789h-2.59912c-.37109,0-.40503-.03418-.40503-.33789v-1.0459h-3.88135v6.24414l3.88135-.60791-1.14746-2.396c-.1687-.33789-.13501-.43896.30371-.57422l1.99146-.60742ZM497.39697,36.53169h3.78027v-6.4126h-3.78027v6.4126ZM504.55249,30.11909v6.4126h3.88135v-6.4126h-3.88135Z"/><path class="cls-1" d="M521.37207,51.01167c-.3374,0-.37109-.03369-.37109-.37109,0-.20264.06738-1.9917.06738-11.00342v-6.24414c0-6.27783-.06738-8.13428-.06738-8.37061,0-.33789.03369-.37158.37109-.37158.23633,0,1.41772.06787,4.69165.06787h2.19385c.54004-1.08008.84399-1.95801,1.24902-3.17285.1687-.43896.27002-.94531.37109-1.58643,1.14771.10107,2.63281.3374,3.61157.50635.30371.06738.47266.27002.47266.43848,0,.20264-.13501.33789-.27002.47266-.23633.27002-.40503.50635-.50635.81006-.33765.81006-.64136,1.51904-1.1814,2.53174h6.58179c3.27393,0,4.45532-.06787,4.69165-.06787.3374,0,.37109.03369.37109.37158,0,.20215-.06738,2.09277-.06738,7.45898v7.12207c0,9.01172.06738,10.80078.06738,10.96924,0,.33789-.03369.37158-.37109.37158h-3.00415c-.3374,0-.37109-.03369-.37109-.37158v-1.51855h-15.22241v1.58643c0,.3374-.03369.37109-.37134.37109h-2.93652ZM524.67993,31.63765h15.22241v-3.67871h-15.22241v3.67871ZM539.90234,38.59077v-3.78027h-15.22241v3.78027h15.22241ZM539.90234,45.81392v-4.05029h-15.22241v4.05029h15.22241Z"/><path class="cls-1" d="M554.46729,38.69185c0-1.21484,0-2.73389.03369-4.18506-.5061.74268-1.08008,1.45117-1.6875,2.19385-.27002.30371-.47266.47266-.60767.47266-.20239,0-.30371-.20264-.37109-.57373-.20264-1.14795-.60767-2.36279-1.0127-3.07178,2.59888-3.0376,4.42163-6.75049,5.77173-10.86816.23633-.81006.43872-1.58643.54004-2.43018,1.11377.3374,2.16016.6748,3.10522,1.14746.3374.13525.54004.30371.54004.60742,0,.23633-.1687.40527-.37134.60791-.23633.20264-.37134.50635-.67505,1.3501-.60742,1.72119-1.21509,3.30762-1.92383,4.82666v17.07861c0,3.27393.06738,4.92773.06738,5.09668,0,.3374-.03369.37109-.37109.37109h-2.73413c-.3374,0-.37109-.03369-.37109-.37109,0-.20264.06738-1.82275.06738-5.09668v-7.15576ZM565.53809,25.93355c-3.30762,0-4.42163.06738-4.62402.06738-.33765,0-.37134-.03369-.37134-.37109v-2.49756c0-.37158.03369-.40527.37134-.40527.20239,0,1.31641.06787,4.62402.06787h11.94849c3.30762,0,4.42139-.06787,4.62402-.06787.3374,0,.37134.03369.37134.40527v2.49756c0,.3374-.03394.37109-.37134.37109-.20264,0-1.31641-.06738-4.62402-.06738h-2.16016v5.19775h1.04614c3.27417,0,4.45532-.06738,4.69165-.06738.33765,0,.37134.03369.37134.37158,0,.20215-.06763,1.51855-.06763,5.53516v5.87305c0,5.94043.06763,7.18896.06763,7.3916,0,.3374-.03369.37109-.37134.37109h-2.63257c-.33765,0-.37134-.03369-.37134-.37109v-1.41748h-14.14233v1.55273c0,.3374-.03369.37109-.37134.37109h-2.59888c-.3374,0-.37134-.03369-.37134-.37109,0-.20264.06763-1.45166.06763-7.42578v-5.33301c0-4.65771-.06763-5.94043-.06763-6.17627,0-.33789.03394-.37158.37134-.37158.20264,0,1.3501.06738,4.62402.06738h.87769v-5.19775h-.91138ZM566.44946,45.81392v-11.7124h-2.53149v11.7124h2.53149ZM572.18726,31.1313v-5.19775h-2.59888v5.19775h2.59888ZM572.18726,45.81392v-11.7124h-2.59888v11.7124h2.59888ZM575.32642,34.10151v11.7124h2.73389v-11.7124h-2.73389Z"/><path class="cls-1" d="M591.0625,38.38814c0-1.28271,0-2.90283.03369-4.45508-.60742.81006-1.24878,1.62012-1.92383,2.39648-.27002.30371-.43872.47217-.60767.47217-.13501,0-.27002-.20215-.37109-.60742-.27002-1.0127-.67505-2.16016-1.08008-2.83496,2.7002-3.00391,4.72534-6.61572,6.14282-10.7334.27002-.81006.47266-1.55273.57373-2.36279,1.08008.27002,2.09277.54004,3.10522.94531.37134.13477.54004.23584.54004.50635,0,.23584-.10107.37109-.3374.60742-.23633.20215-.40503.50635-.70874,1.38379-.60767,1.65381-1.28271,3.24023-1.99146,4.7251v17.28125c0,3.30811.06738,4.96191.06738,5.13037,0,.33789-.03369.37158-.37109.37158h-2.80151c-.30371,0-.33765-.03369-.33765-.37158,0-.20215.06763-1.82227.06763-5.13037v-7.32422ZM597.10425,34.00044c0-2.05908-.06763-3.10498-.23633-4.3877,1.28247.03369,2.26147.10107,3.47656.23633.3374.03369.57373.23584.57373.43848,0,.23633-.13501.43896-.23633.74268-.13501.37109-.20239.979-.20239,2.93652v12.55566h13.50098c3.17261,0,4.21899-.06738,4.42139-.06738.33765,0,.37134.03369.37134.40527v2.39648c0,.3374-.03369.37109-.37134.37109-.20239,0-1.24878-.06738-4.42139-.06738h-13.50098v1.21484c0,.3374-.03394.37109-.37134.37109h-2.7002c-.33765,0-.37134-.03369-.37134-.37109,0-.20264.06763-1.24902.06763-3.57764v-13.19727ZM602.90967,26.67622c-3.30786,0-4.42163.06738-4.62427.06738-.3374,0-.3374-.03369-.3374-.40479v-2.29541c0-.30371,0-.3374.3374-.3374.20264,0,1.31641.06738,4.62427.06738h4.01636l.13501-.97852c.10132-.91162.16895-1.75537.13501-2.39648,1.1814.06738,2.3291.16846,3.40918.30371.3374,0,.5061.20215.5061.40479,0,.16895-.10107.37158-.23608.54004-.16895.23633-.30396.50635-.37134.979-.06763.37109-.13501.77637-.1687,1.14746h3.30762c3.30786,0,4.38794-.06738,4.59033-.06738.33765,0,.37134.03369.37134.3374v2.29541c0,.37109-.03369.40479-.37134.40479-.20239,0-1.28247-.06738-4.59033-.06738h-3.81396c-.13501.84375-.33765,1.65381-.50635,2.46387h2.76782c2.66626,0,3.57764-.06738,3.78027-.06738.37109,0,.40503.03369.40503.37109,0,.20264-.06763,1.28271-.06763,3.6792v7.59424c0,2.39648.06763,3.44287.06763,3.64502,0,.33789-.03394.37158-.40503.37158-.20264,0-1.11401-.06787-3.78027-.06787h-4.99536c-2.6665,0-3.57788.06787-3.81421.06787-.3374,0-.37109-.03369-.37109-.37158,0-.23633.06738-1.24854.06738-3.64502v-7.59424c0-2.39648-.06738-3.44287-.06738-3.6792,0-.3374.03369-.37109.37109-.37109.20264,0,.91138.06738,2.7002.06738.20264-.87744.33765-1.6875.50635-2.46387h-3.57764ZM606.18359,33.52778h6.78418v-1.92383h-6.78418v1.92383ZM612.96777,37.8144v-1.95752h-6.78418v1.95752h6.78418ZM612.96777,40.1772h-6.78418v1.99121h6.78418v-1.99121Z"/><line class="cls-2" x1="84.10367" y1="35.11992" y2="35.11992"/><line class="cls-2" x1="750" y1="35.11992" x2="665.89633" y2="35.11992"/></g></svg>