<?xml version="1.0" encoding="UTF-8"?><svg xmlns="http://www.w3.org/2000/svg" viewBox="0 0 686.96216 686.96216"><defs><style>.cls-1{fill:none;stroke:#000;stroke-miterlimit:10;stroke-width:.9px;}.cls-2{fill:#005a96;mix-blend-mode:multiply;}.cls-2,.cls-3{stroke-width:0px;}.cls-4{isolation:isolate;}.cls-3{fill:#fff;}</style></defs><g class="cls-4"><g id="_レイヤー_2"><g id="_枠"><rect class="cls-2" x="126.28159" y="126.28159" width="434.39897" height="434.39897" transform="translate(343.48108 -142.27452) rotate(45)"/><rect class="cls-1" x="101.05328" y="101.05328" width="484.8556" height="484.8556" transform="translate(343.48108 -142.27452) rotate(45)"/><path class="cls-3" d="M238.71253,295.52927c-4.17871,1.48193-8.73828,2.92578-12.38574,4.10352l-1.02539-4.59717c1.3291-.34229,2.88672-.76025,4.63477-1.25391v-8.92871h-3.83691v-4.1416h3.83691v-6.68701h-4.17969v-4.21729h12.53906v4.21729h-4.06543v6.68701h3.41895v4.1416h-3.41895v7.59863c1.25293-.37988,2.50684-.75977,3.72266-1.17773l.75977,4.25537ZM261.28186,297.84714v4.10352h-24.43066v-4.10352h10.48633v-3.60938h-7.86426v-4.06543h7.86426v-3.26758h-7.59863v-17.66748h19.83301v17.66748h-7.63672v3.26758h8.05469v4.06543h-8.05469v3.60938h9.34668ZM243.80432,276.228h3.91309v-3.15332h-3.91309v3.15332ZM243.80432,283.06736h3.91309v-3.26758h-3.91309v3.26758ZM255.27893,273.07468h-3.76172v3.15332h3.76172v-3.15332ZM255.27893,279.79978h-3.76172v3.26758h3.76172v-3.26758Z"/><path class="cls-3" d="M284.42639,279.04002c-1.02539.83545-2.08984,1.6333-3.19141,2.2793-.45605-1.10156-1.44434-2.69727-2.16602-3.68506l.2666-.15234h-12.31055v-3.57129h13.4502v2.84961c3.45703-2.39355,6.64844-6.0791,8.28223-9.08057h4.06543c2.58398,3.79932,6.4209,7.59863,10.2207,9.46045-.87402,1.06396-1.74805,2.65967-2.39355,3.95117-.98828-.60791-2.01367-1.32959-3.00195-2.16553v2.5459h-13.22168v-2.43164ZM279.29749,301.07664h-7.0293v1.51953h-3.68555v-12.95605h10.71484v11.43652ZM279.22131,282.64939h-10.52441v-3.45752h10.52441v3.45752ZM268.6969,284.39695h10.52441v3.38135h-10.52441v-3.38135ZM279.14514,272.23875h-10.2207v-3.41943h10.2207v3.41943ZM272.26819,293.17381v4.36914h3.34375v-4.36914h-3.34375ZM300.83948,299.17673c0,1.5957-.22754,2.5459-1.17773,3.15381-.91113.56982-2.05176.64551-3.60938.64551-.11328-1.02539-.60742-2.46924-1.06348-3.45703.68359.0376,1.33008.0376,1.5957.0376.30371,0,.37988-.11377.37988-.41797v-4.10303h-2.01367v7.59863h-2.96387v-7.59863h-1.89941v7.59863h-2.96387v-7.59863h-1.82324v7.86475h-3.76172v-19.14941h19.30078v15.42578ZM287.12366,291.50193v-4.1792h-1.82324v4.1792h1.82324ZM296.31897,277.78611c-2.12793-1.93799-4.06543-4.1416-5.39551-6.0791-1.17773,1.9375-3.00195,4.14111-5.09082,6.0791h10.48633ZM291.98694,291.50193v-4.1792h-1.89941v4.1792h1.89941ZM296.96448,291.50193v-4.1792h-2.01367v4.1792h2.01367Z"/><path class="cls-3" d="M334.86975,277.70994c-1.13965.68408-2.35547,1.33008-3.72363,2.01367-2.35547,1.17773-7.06641,3.38135-10.48633,5.58545-3.15332,2.05176-5.24316,4.21729-5.24316,6.83887,0,2.69775,2.62207,4.14111,7.82715,4.14111,3.875,0,8.9668-.60791,12.30957-1.36768l-.0752,5.43311c-3.19238.53223-7.18164.91211-12.08301.91211-7.48438,0-13.14551-2.08984-13.14551-8.54883,0-4.1792,2.62109-7.25684,6.23047-9.9165-1.74707-3.22949-3.57129-7.21875-5.28125-11.2085l4.75-1.9375c1.44336,3.91357,3.19141,7.52295,4.71094,10.41064,3.07812-1.78613,6.34473-3.45752,8.13086-4.4458,1.40625-.83545,2.50781-1.48145,3.45801-2.2793l2.62109,4.36914Z"/><path class="cls-3" d="M365.8219,293.8198c2.69727,3.03955,6.95215,4.78711,12.95605,5.43311-.91211.94971-2.08984,2.73535-2.66016,3.95117-7.21875-1.13965-11.74023-3.8374-14.74121-8.54834-2.24219,3.38135-6.45898,6.38281-14.20996,8.47266-.53223-.98779-1.82422-2.69775-2.81152-3.64746,6.38281-1.44385,10.03027-3.41943,12.12012-5.66113h-11.43652v-3.91357h13.63965c.19043-.79785.30469-1.5957.37988-2.39355h-9.72656v-3.64746h9.76465v-2.27979h-10.37207v-2.50781h-3.38184v-8.09277h13.86816v-3.30518h4.63574v3.30518h13.90527v8.09277h-3.03906v2.50781h-11.09473v2.27979h10.33496v3.64746h-10.37305c-.03809.79785-.11426,1.5957-.30371,2.39355h15.00781v3.91357h-12.46191ZM359.09631,277.93797v-2.16553h4.52148v2.16553h9.46094v-3.00146h-23.25293v3.00146h9.27051Z"/><path class="cls-3" d="M400.36096,297.999c-5.09082,1.32959-10.52441,2.62158-14.58984,3.60938l-.87402-4.1792,1.67188-.3418v-12.8042h3.57129v12.08203l1.52051-.3418v-14.43799h-4.86328v-12.5h12.46191v12.5h-3.64746v4.4834h4.17871v3.91357h-4.17871v5.16699c1.44336-.3418,2.8877-.68408,4.33105-1.02588l.41797,3.87549ZM390.59631,277.78611h4.63574v-4.90137h-4.63574v4.90137ZM419.01624,290.74216c-1.48145,2.08936-3.30566,3.95117-5.35742,5.58496.79785,1.52002,1.67188,2.39355,2.66016,2.39355.75977,0,1.13965-1.02588,1.36719-4.36914.87402,1.02588,2.28027,1.9375,3.34375,2.43164-.75977,5.05322-1.97559,6.34521-5.09082,6.34521-2.50781,0-4.44531-1.5957-5.96582-4.29346-2.73535,1.5957-5.77441,2.92529-8.89062,3.95117-.53125-1.17773-1.63379-2.73535-2.65918-3.76123,3.49512-.91211,6.91504-2.27979,9.91602-4.02734-.56934-1.67188-1.02539-3.53369-1.40527-5.58545l-6.23145.646-.41797-3.87549,6.04102-.60791c-.11328-.72168-.18945-1.44385-.26562-2.16553l-4.40723.45605-.41797-3.76172,4.4834-.45557c-.03809-.646-.07617-1.29199-.11426-1.97607l-5.01562.49414-.41797-3.87549,5.24414-.49414c-.07617-2.01367-.11426-4.06543-.11426-6.1167h4.59668c-.03711,1.89941-.03711,3.79932,0,5.66113l5.20605-.49414c-1.17773-.87402-2.81152-1.86182-4.1416-2.62158l2.46973-2.65967c1.70996.79785,4.02734,2.16553,5.20508,3.15381l-1.67188,1.97559,1.82422-.18994.37988,3.79932-9.11914.91211c.03809.68359.07617,1.36768.11426,2.01367l7.78906-.76025.41797,3.68555-7.86523.79785c.07617.76025.15234,1.48193.26562,2.16602l9.30859-.91211.45605,3.79932-9.15625.9502c.26562,1.21582.49414,2.31738.79785,3.34326,1.13965-.98779,2.16602-2.08984,3.00098-3.26758l3.83789,1.70996Z"/><path class="cls-3" d="M442.54456,296.93504c1.44336-.18994,2.50781-.37988,3.49512-.60791,4.8252-1.13965,8.54883-4.59717,8.54883-10.06836,0-5.20508-2.81152-9.08057-7.86426-9.95459-.53223,3.19141-1.17871,6.68701-2.24219,10.2207-2.24121,7.59863-5.50879,12.23389-9.6123,12.23389-4.1416,0-7.6748-4.59717-7.6748-10.94238,0-8.6626,7.56055-16.10938,17.3252-16.10938,9.30859,0,15.19727,6.49707,15.19727,14.70361,0,7.90283-4.86328,13.52588-14.36133,14.96973l-2.81152-4.44531ZM439.61878,285.5366c.87402-2.77344,1.55762-6.00293,2.01367-9.11816-6.23145,1.2915-9.53613,6.7627-9.53613,10.9043,0,3.79932,1.51953,5.66113,2.9248,5.66113,1.55859,0,3.07812-2.35596,4.59766-7.44727Z"/><path class="cls-3" d="M267.4801,333.59422v3.60986h13.48828v20.40283c0,2.12793-.45605,3.22949-1.89941,3.87549-1.48242.646-3.57227.72168-6.45898.68408-.19043-1.14014-.87402-2.8877-1.48242-3.95166,1.8623.11377,3.95117.11377,4.55957.07617.64551,0,.83594-.18994.83594-.76025v-16.14746h-9.04297v9.38477h2.77344v-7.33301h3.98926v13.10791h-3.98926v-1.86182h-9.83984v2.65967h-3.76172v-13.90576h3.76172v7.33301h2.65918v-9.38477h-8.70117v20.8208h-4.40723v-25h13.1084v-3.60986h-14.62793v-4.36914h34.11914v4.36914h-15.08398Z"/><path class="cls-3" d="M298.29944,352.17381h5.54785v3.95117h-5.54785v6.00342h-3.72266v-6.00342h-5.88965v-3.95117h5.88965v-2.27979h-4.75v-13.71582h4.71191v-1.97559h-5.31934v-3.91357h5.31934v-3.60938h3.72266v3.60938h5.43359v3.91357h-5.43359v1.97559h4.93945c3.38184-2.27979,6.72559-6.26904,8.32129-9.42285h3.95117c2.31738,3.68555,5.85156,7.44727,9.27051,9.38477-.79785,1.02588-1.74805,2.54541-2.39355,3.8374-.83594-.56982-1.70996-1.25391-2.5459-2.01367v2.65967h-12.04395v-2.73584c-.87402.79785-1.82324,1.52002-2.77344,2.16602-.37988-.87402-1.06445-2.05176-1.70996-2.96387v12.8042h-4.97754v2.27979ZM292.98108,341.57322h2.01367v-2.2417h-2.01367v2.2417ZM292.98108,346.7783h2.01367v-2.2417h-2.01367v2.2417ZM300.0094,339.33152h-2.12793v2.2417h2.12793v-2.2417ZM300.0094,344.5366h-2.12793v2.2417h2.12793v-2.2417ZM323.0719,358.29099c0,1.55762-.22754,2.50732-1.13965,3.11523-.91211.646-2.01367.72217-3.45703.68408-.15234-1.02588-.6084-2.5459-1.10254-3.49561.64648.03809,1.29199.03809,1.55762.03809.2666,0,.34277-.11377.34277-.41797v-4.36914h-1.93848v7.78857h-2.73535v-7.78857h-1.86133v7.78857h-2.73535v-7.78857h-1.78613v8.28271h-3.41992v-19.33936h18.27539v15.50195ZM310.00256,350.19822v-3.76172h-1.78613v3.76172h1.78613ZM318.70276,336.93797c-1.97559-1.9375-3.83691-4.1792-5.09082-6.15527-1.14062,1.97607-2.84961,4.17969-4.86328,6.15527h9.9541ZM314.59924,350.19822v-3.76172h-1.86133v3.76172h1.86133ZM319.27307,350.19822v-3.76172h-1.93848v3.76172h1.93848Z"/><path class="cls-3" d="M339.21057,329.83298c-.30371.75977-.75977,2.65967-.91113,3.34375-.53223,2.50732-1.82422,10.03027-1.82422,13.7915,0,.72217.03809,1.63379.15234,2.43164.53125-1.32959,1.13965-2.5835,1.67188-3.79932l2.35547,1.82373c-1.06445,3.15381-2.31836,7.21924-2.69824,9.23291-.11328.53174-.22754,1.36768-.22754,1.74756.03809.41797.03809,1.02588.07617,1.55762l-4.33203.3042c-.75977-2.62158-1.48145-7.21924-1.48145-12.31006,0-5.66113,1.13965-12.00635,1.55762-14.89404.15234-1.06396.37988-2.50732.37988-3.68555l5.28125.45605ZM348.026,348.41209c-.30469,1.21582-.45605,2.12793-.45605,3.15381,0,1.67188,1.44336,2.65967,5.24316,2.65967,3.38086,0,6.1543-.3042,9.42188-.98779l.11426,5.09082c-2.43164.45605-5.4707.76025-9.72656.76025-6.49707,0-9.57422-2.35596-9.57422-6.19336,0-1.55762.26562-3.15332.64551-4.90137l4.33203.41797ZM361.17151,332.30271v4.86328c-4.63574.41797-11.43652.41797-16.14746,0l-.03809-4.86328c4.63574.646,12.12012.49365,16.18555,0Z"/><path class="cls-3" d="M396.9596,359.01267c-2.12695-2.12744-4.97656-4.36914-8.32031-5.88916.03809.49414.03809.91211.03809,1.29199,0,3.30518-1.70996,6.49707-8.0166,6.49707-5.35742,0-9.76465-1.74805-9.76465-6.87695,0-3.91357,3.34277-7.0293,10.25781-7.0293.76074,0,1.52051.03809,2.24219.11426-.11426-2.92578-.2666-6.15527-.2666-8.13086,0-2.27979-.03711-4.52148-.0752-6.11719-.03809-1.86182-.15234-3.45752-.37988-4.40723h5.66113c-.15234,1.10156-.2666,2.92529-.34277,4.40723v2.73584c2.96387-.07617,7.37109-.22803,10.4873-.57031l.18945,4.4834c-3.15332.3042-7.63672.45605-10.67676.53223.07617,2.2793.22852,5.24316.41797,8.0166,4.78809,1.44385,8.85352,4.02734,11.43652,6.45898l-2.8877,4.4834ZM383.54749,351.48972c-.9873-.15186-2.05078-.26562-3.11523-.26562-2.92578,0-4.67285.98779-4.67285,2.5835,0,1.86182,1.89941,2.54541,4.52148,2.54541,2.43164,0,3.30469-1.10156,3.30469-3.57129,0-.3418,0-.79785-.03809-1.29199Z"/><path class="cls-3" d="M416.28577,328.42722c-.53223,1.86182-1.29199,5.69922-1.51953,7.78906,1.78516-2.8877,5.05273-6.0791,9.30859-6.0791,5.24316,0,9.30859,5.12891,9.30859,13.41162,0,10.63867-6.53516,15.72998-16.49023,17.55371l-2.84961-4.36963c8.35938-1.2915,14.20996-4.02734,14.20996-13.146,0-5.81299-1.9375-9.04248-5.05273-9.04248-4.44531,0-8.32129,6.68701-8.51074,11.62598-.03809,1.02588-.03809,2.2417.18945,3.98975l-4.67285.30371c-.19043-1.44385-.45605-3.76123-.45605-6.26904,0-3.49561.49414-8.16895,1.06348-12.04395.19043-1.36816.2666-2.8877.30469-3.95166l5.16699.22803Z"/><path class="cls-3" d="M186.26721,388.4531c-1.06348,1.9375-2.35547,3.79932-3.79883,5.58496,1.82324,3.95166,2.16504,8.09277,2.16504,12.42432,0,5.24316-.41797,10.33447-2.16504,12.65234-.57031.75977-1.40625,1.2915-2.39355,1.51953-1.48242.3418-3.07812.37988-4.86328.3042-.03809-1.44385-.45605-3.03955-1.21582-4.33154,1.86133.15186,3.22949.11377,4.02734.03809.53125-.07617.87305-.26611,1.17773-.68408.75977-.94971,1.06348-4.21729,1.13965-8.24463-1.51953,1.82373-3.11523,3.49561-4.63574,4.71143-.72168-1.02588-1.9375-2.5459-3.00098-3.30566,2.62109-1.67188,5.58496-4.8252,7.37109-7.82666-.19043-1.29199-.41797-2.50781-.79785-3.68555-1.10254,1.10156-2.28027,2.12744-3.45801,3.03955-.68359-.91211-2.12793-2.2417-3.11523-2.96387,1.63379-1.17773,3.22949-2.65967,4.71094-4.25537-1.02539-1.63379-2.43164-3.19141-4.2168-4.71094l3.11523-2.39404c1.51953,1.21582,2.73535,2.46973,3.76172,3.7998.83594-1.25391,1.63379-2.46973,2.24121-3.64746l3.95117,1.97559ZM204.27698,421.09031c-.19043-.83594-.49414-1.82373-.79785-2.84961-6.49707.75977-13.22266,1.51953-18.08594,2.05176l-.75977-4.7876c2.62207-.22754,6.00391-.49365,9.65039-.83545v-6.83936h-7.75v-15.15967h7.75v-6.91504h4.55957v6.91504h7.90332v15.15967h-7.90332v6.3833l3.07812-.3042c-.53223-1.48145-1.14062-2.88721-1.63379-4.21729l4.17871-1.17773c1.5957,3.5332,3.53418,8.16895,4.33203,11.09424l-4.52148,1.48193ZM194.28381,403.95457v-7.40869h-3.30469v7.40869h3.30469ZM198.84338,396.54588v7.40869h3.15332v-7.40869h-3.15332Z"/><path class="cls-3" d="M244.4967,390.54295v30.50928h-4.8252v-1.86182h-18.04785v1.8999h-4.59766v-30.54736h9.72656c.41797-1.63379.83594-3.45752,1.02637-4.97754l5.4707.60791c-.56934,1.52002-1.17773,3.00146-1.78516,4.36963h13.03223ZM221.62366,394.874v3.91357h18.04785v-3.91357h-18.04785ZM221.62366,402.96677v3.91357h18.04785v-3.91357h-18.04785ZM239.67151,415.01121v-3.95166h-18.04785v3.95166h18.04785Z"/><path class="cls-3" d="M281.95667,389.93504c-.49414.83594-1.21582,2.50732-1.55762,3.38135-1.14062,3.03955-2.84961,6.83887-5.12988,10.33447,3.34375,2.73535,6.49707,5.66113,9.04297,8.35889l-3.91309,4.36914c-2.66016-3.11572-5.35742-5.7373-8.39746-8.35889-3.34277,4.02734-7.71289,8.24512-14.13379,11.74023l-4.36914-3.91309c6.19336-3.00146,10.71484-6.68701,14.4375-11.2085-2.69727-2.12744-6.30664-4.86328-10.18164-7.18115l3.2666-3.91309c3.04004,1.89941,6.95312,4.55908,10.03125,6.83887,1.9375-3.03955,3.15332-6.04102,4.17871-9.00488.34277-.94971.72266-2.50732.91211-3.49512l5.81348,2.05176Z"/><path class="cls-3" d="M295.82581,389.40281c1.89941,2.65967,5.16699,8.47266,6.57324,11.13232l-5.01562,2.84961c-1.55762-3.38135-4.36914-8.58643-6.4209-11.47412l4.86328-2.50781ZM309.6178,405.28464c2.81152-4.06543,3.875-8.35889,4.4834-11.47461.37988-1.74756.53223-3.64746.49414-4.59717l6.15527.87402c-.45605,1.44385-.87402,3.30566-1.14062,4.40723-.9873,4.44531-2.50684,9.08057-5.28125,13.33594-2.96289,4.59766-7.18066,8.73877-13.18359,11.66455l-4.52148-3.91357c6.15527-2.54541,10.2207-6.30713,12.99414-10.29639Z"/><path class="cls-3" d="M337.55335,405.89256l-4.63574,1.74756c-.64551-2.05176-2.5459-7.10498-3.45703-8.77637l4.55859-1.63379c.9502,1.9375,2.77441,6.53467,3.53418,8.6626ZM356.85413,397.98972c-.45605,1.21582-.68359,2.01367-.91211,2.77344-.9873,3.8374-2.58301,7.78906-5.16699,11.13232-3.5332,4.55957-8.28223,7.75098-12.72852,9.42285l-3.98926-4.06543c4.17969-1.10205,9.46094-3.98975,12.61426-7.94092,2.58398-3.22949,4.40723-8.28271,4.8252-13.03223l5.35742,1.70996ZM345.94983,403.5366l-4.55957,1.59619c-.45605-1.86182-2.12793-6.45947-3.07715-8.43506l4.52148-1.48145c.72168,1.63379,2.58301,6.57275,3.11523,8.32031Z"/><path class="cls-3" d="M374.31409,398.44578c5.05273,1.51953,12.38574,4.21729,15.88086,5.92676l-2.12695,5.28125c-3.95215-2.08936-9.65137-4.29297-13.75391-5.66113v10.75244c0,1.06396.18945,3.72363.37988,5.28125h-5.96582c.22852-1.48193.37988-3.79932.37988-5.28125v-21.84668c0-1.36768-.11328-3.22949-.37988-4.59717h5.92773c-.15234,1.32959-.3418,3.00146-.3418,4.59717v5.54736ZM384.42053,396.7739c-1.10254-2.39355-1.93848-3.91357-3.34375-5.85107l3.19141-1.36768c1.06348,1.5957,2.58398,4.02734,3.45801,5.73682l-3.30566,1.48193ZM389.62561,394.64597c-1.21582-2.39355-2.12793-3.79932-3.5332-5.69922l3.15332-1.48145c1.10156,1.51953,2.69727,3.91309,3.57129,5.62305l-3.19141,1.55762Z"/><path class="cls-3" d="M416.25842,412.35154c.07617-1.10205.11328-2.84961.15137-4.4834-2.77344,1.52002-4.29297,3.00146-4.29297,4.86328,0,2.08984,1.78613,2.65967,5.4707,2.65967,3.19238,0,7.37109-.41797,10.67676-1.10205l-.15234,4.90137c-2.50684.3042-7.10449.60791-10.6377.60791-5.88965,0-10.33496-1.40576-10.33496-6.26904,0-4.78711,4.55957-7.82666,8.85254-10.03027-.60742-.9502-1.5957-1.29199-2.62109-1.29199-2.12793,0-4.44531,1.21582-5.88965,2.5835-1.13965,1.14014-2.20312,2.50781-3.49512,4.1416l-4.02734-3.00146c3.95117-3.64746,6.61133-6.99121,8.2832-10.33447h-.45605c-1.52051,0-4.29395-.07617-6.3457-.26611v-4.40723c1.90039.30371,4.71191.41797,6.61133.41797h1.82422c.45508-1.70996.72168-3.22949.75977-4.29346l4.93848.41797c-.18945.91162-.45508,2.20361-.91113,3.72314,3.5332-.18994,7.33301-.49365,10.6377-1.10156l-.03711,4.40723c-3.61035.53174-8.24512.83594-12.27246.98779-.6084,1.33008-1.36816,2.69775-2.16602,3.7998.98828-.49414,3.00195-.76025,4.25586-.76025,2.2793,0,4.17871.98779,5.01465,2.92578,1.93848-.91211,3.53418-1.55811,5.0918-2.2417,1.44336-.646,2.77344-1.29199,4.1416-1.93799l1.89941,4.36963c-1.21582.30371-3.19141,1.06396-4.4834,1.5957-1.67188.646-3.7998,1.48193-6.11719,2.54541.03809,2.08984.11426,4.86328.15234,6.57324h-4.52148Z"/><path class="cls-3" d="M443.8219,400.53513v20.59326h-4.4082v-34.04297h14.62793v13.44971h-10.21973ZM443.8219,390.31492v1.9375h5.96484v-1.9375h-5.96484ZM449.78674,397.26756v-2.08936h-5.96484v2.08936h5.96484ZM460.91858,412.57957v7.82666h-3.95117v-7.82666h-3.64746c-.37988,2.62158-1.63379,6.30713-4.86328,8.51074-.64551-.79785-2.01367-1.97559-2.8877-2.5835,2.43164-1.52002,3.49609-3.98975,3.87598-5.92725h-3.83789v-3.68555h3.98926v-2.84961h-3.45703v-3.57129h18.35156v3.57129h-3.57227v2.84961h4.17969v3.68555h-4.17969ZM456.96741,408.89402v-2.84961h-3.5332v2.84961h3.5332ZM471.44299,415.84714c0,2.31738-.41797,3.57129-1.78516,4.29346-1.36816.75977-3.34375.87354-6.23145.87354-.15137-1.25391-.75977-3.30518-1.36719-4.4834,1.70898.07617,3.57129.07617,4.14062.03809.6084,0,.79785-.22803.79785-.75977v-15.19775h-10.44824v-13.52588h14.89355v28.76172ZM460.84338,390.31492v1.9375h6.1543v-1.9375h-6.1543ZM466.99768,397.34373v-2.16553h-6.1543v2.16553h6.1543Z"/><path class="cls-3" d="M503.04553,402.73875v4.29346h8.09277v4.1416h-8.09277v4.10352c0,1.36768.15234,1.5957,1.21582,1.5957h2.92578c.9873,0,1.17773-.76025,1.33008-4.33154.94922.75977,2.77344,1.52002,4.06543,1.78564-.45605,5.01514-1.63379,6.53516-4.97754,6.53516h-4.1416c-4.10352,0-5.12891-1.32959-5.12891-5.54736v-4.14111h-5.01562c-.83594,3.98926-3.34375,7.75098-10.37207,10.10645-.57031-1.02588-1.9375-2.77344-2.8877-3.60938,5.24316-1.5957,7.52246-3.95166,8.47266-6.49707h-7.52246v-4.1416h8.12988v-4.29346h-3.19141v-1.25342c-1.5957,1.17773-3.30469,2.16553-5.05273,3.00146-.6084-1.02588-1.8623-2.5835-2.73535-3.41943,2.20312-.91211,4.36914-2.2417,6.30664-3.91357-.98828-.98779-2.50781-2.27979-3.76172-3.22949l2.84961-2.35547c1.13965.79785,2.58398,1.89941,3.64746,2.81152.91211-1.06396,1.70996-2.20361,2.39355-3.41943h-7.75098v-3.87549h9.91699l.79785-.15234,3.04004,1.40625c-1.33008,3.98926-3.49609,7.37061-6.19336,10.10645h13.75391c-2.96387-3.19189-5.24316-7.14307-6.91504-11.62646l4.06543-1.13965c.53223,1.40576,1.13965,2.77344,1.89941,4.06543,1.25391-1.14014,2.50781-2.46973,3.38184-3.53369l3.41895,2.43164c-1.55762,1.40576-3.30469,2.8877-4.86328,4.02734.53223.68408,1.10254,1.33008,1.70996,1.97559,1.51953-1.2915,3.19141-2.81152,4.25586-4.10303l3.30566,2.35547c-1.55859,1.40576-3.38184,2.92578-5.01562,4.10352,1.74805,1.40576,3.72363,2.5835,5.88867,3.45752-1.06348.91162-2.43164,2.69727-3.11523,3.91309-1.67188-.79785-3.22949-1.74756-4.67285-2.84961v1.21582h-3.45801ZM498.3346,402.73875h-4.67383v4.29346h4.67383v-4.29346Z"/></g></g></g></svg>