<svg viewBox="0 0 347.999 347.999" xmlns="http://www.w3.org/2000/svg"><path d="m.499.499h347v347h-347z" fill="none" stroke="#fff" stroke-miterlimit="10" stroke-width=".999"/><g fill="#fff"><path d="m64.954 95.058c7.078 0 9.668 2.59 9.668 7.041 0 3.247-2.189 5.582-5.618 6.166v.255c4.196.693 6.494 3.174 6.494 6.822 0 4.998-3.575 8.026-10.033 8.026h-10.617v-28.311h10.106zm-5.291 11.638h4.305c3.867 0 5.764-1.605 5.764-4.123s-1.386-3.831-5.327-3.831h-4.743v7.953zm0 12.989h5.254c3.758 0 5.618-1.751 5.618-4.706 0-2.882-2.298-4.597-6.239-4.597h-4.633z"/><path d="m96.224 108.667 8.866 14.703h-5.655l-5.254-9.084c-.365-.62-.62-1.167-.985-1.751-.328.584-.62 1.131-.949 1.751l-5.29 9.084h-5.144l8.793-14.521-8.209-13.791h5.582l4.56 8.026c.401.693.73 1.35 1.131 2.043.401-.693.766-1.386 1.167-2.116l4.633-7.953h5.181l-8.428 13.608z"/><path d="m130.047 118.043c0 .401-.219.584-.693.657s-1.569.182-2.59.182c-.328 0-.474-.219-.474-.584 0-1.313 0-3.138.036-4.451-3.247 1.678-4.415 3.101-4.415 4.852 0 1.532 1.24 2.517 5.071 2.517 3.357 0 6.275-.328 9.084-.73.328-.036.474.073.511.401.182.839.328 2.116.328 2.992.036.438-.109.693-.401.693-3.138.401-5.509.474-9.048.474-5.983 0-9.157-1.788-9.157-6.02 0-3.502 2.189-6.056 7.698-8.902-.109-1.861-.547-2.59-2.189-2.517-1.715.073-3.357 1.167-5.035 2.627-1.569 1.532-2.481 2.59-3.648 3.977-.182.219-.292.328-.438.328-.109 0-.255-.109-.401-.255-.511-.511-1.605-1.642-2.08-2.408-.109-.146-.146-.255-.146-.328 0-.146.073-.255.255-.401 2.809-2.517 5.509-5.4 7.625-9.048-1.715.073-3.685.109-5.837.109-.328 0-.438-.182-.511-.584-.109-.584-.255-1.934-.365-3.028 2.773.146 5.619.109 8.391-.036.401-.985.73-1.861 1.094-3.138.146-.62.255-1.24.255-2.226 1.605.255 3.211.657 4.159 1.022.292.109.438.365.438.62 0 .182-.073.401-.255.547-.219.182-.438.511-.62.876-.219.511-.401.985-.839 1.97 2.226-.255 4.451-.62 6.64-1.131.401-.073.511.036.584.365.182.73.328 1.569.365 2.627.036.365-.109.511-.62.584-2.736.401-5.874.803-8.537 1.095-.839 1.35-1.642 2.7-2.736 4.05l.036.073c1.167-.766 2.663-1.131 3.648-1.131 2.408 0 4.086 1.095 4.451 3.94 1.423-.657 3.502-1.605 5.363-2.554.693-.365 1.861-1.022 2.773-1.97 1.204 1.277 2.153 2.554 2.554 3.211.219.328.292.584.292.803 0 .292-.182.438-.547.511-.766.109-1.496.292-2.226.547-2.371.839-4.743 1.642-7.844 2.919v5.874z"/><path d="m154.497 116.365c-3.357 0-4.487.073-4.706.073-.365 0-.401-.036-.401-.401v-2.371c0-.401.036-.438.401-.438.219 0 1.35.073 4.706.073h7.917c.146-.693.219-1.423.255-2.225h-3.502c-3.502 0-4.743.073-4.962.073-.365 0-.401-.036-.401-.401v-2.298c0-.401.036-.438.401-.438.219 0 1.459.073 4.962.073h3.612v-2.153h-3.357c-3.393 0-4.597.073-4.816.073-.365 0-.401-.036-.401-.438v-2.262c0-.401.036-.438.401-.438.219 0 1.423.073 4.816.073h3.32c-.036-1.131-.146-2.007-.219-2.7 1.204.036 2.627.073 3.721.219.438.073.657.219.657.474 0 .219-.109.511-.219.766-.109.255-.182.547-.182 1.24h3.758c3.357 0 4.56-.073 4.779-.073.401 0 .438.036.438.438v2.262c0 .401-.036.438-.438.438-.219 0-1.423-.073-4.779-.073h-3.758v2.153h3.94c3.539 0 4.706-.073 4.925-.073.401 0 .438.036.438.438v2.298c0 .365-.036.401-.438.401-.219 0-1.386-.073-4.925-.073h-4.013c-.036.803-.146 1.532-.219 2.225h9.194c3.357 0 4.488-.073 4.706-.073.401 0 .438.036.438.438v2.371c0 .365-.036.401-.438.401-.219 0-1.35-.073-4.706-.073h-7.625c2.919 3.502 7.771 5.181 13.791 5.874-.547.693-1.094 1.751-1.386 2.736-.219.766-.328.985-.73.985-.182 0-.438 0-.803-.073-5.874-.985-10.544-3.393-13.9-7.99-.255.438-.547.876-.876 1.277-2.59 3.357-6.604 5.29-12.477 6.64-.365.073-.693.146-.839.146-.292 0-.438-.255-.693-.985-.328-1.021-.912-1.897-1.386-2.481 6.129-.876 10.726-2.955 12.55-5.582l.328-.547h-6.859zm20.504-20.066c3.393 0 4.597-.073 4.816-.073.365 0 .401.036.401.401 0 .182-.073.839-.073 1.824v1.532c0 3.174.073 3.758.073 3.94 0 .365-.036.401-.401.401h-2.992c-.365 0-.401-.036-.401-.401v-4.415h-23.167v4.415c0 .365-.036.401-.438.401h-2.955c-.365 0-.401-.036-.401-.401 0-.182.073-.766.073-3.94v-1.24c0-1.277-.073-1.934-.073-2.116 0-.365.036-.401.401-.401.255 0 1.459.073 4.816.073h7.953v-.182c0-1.569-.073-2.554-.292-3.466 1.35.036 2.7.109 3.94.219.401.036.584.182.584.328 0 .255-.109.438-.219.73s-.182.766-.182 2.189v.182z"/><path d="m196.604 98.488v6.458c2.189 0 2.919-.073 3.138-.073.365 0 .401.036.401.401v2.7c0 .365-.036.401-.401.401-.219 0-.949-.073-3.138-.073v6.056c1.386-.62 2.773-1.277 4.05-2.007-.073.803-.036 1.642 0 2.408q.073 1.167-.876 1.678c-2.554 1.35-5.618 2.736-8.391 3.758-.584.219-.949.401-1.131.511-.255.182-.365.255-.584.255-.182 0-.365-.109-.474-.438-.328-.949-.62-2.116-.912-3.43 1.094-.219 2.152-.511 3.429-.912.401-.109.803-.255 1.204-.401v-7.479c-2.371 0-3.138.073-3.357.073-.365 0-.401-.036-.401-.401v-2.7c0-.365.036-.401.401-.401.219 0 .985.073 3.357.073v-6.458h-.219c-2.554 0-3.357.073-3.575.073-.328 0-.365-.036-.365-.438v-2.663c0-.365.036-.401.365-.401.219 0 1.021.073 3.575.073h4.05c2.554 0 3.32-.073 3.539-.073.365 0 .401.036.401.401v2.663c0 .401-.036.438-.401.438-.219 0-.985-.073-3.539-.073h-.146zm17.877 22.328c0 .73.036.985.401 1.131.255.109.693.109 1.313.109.912 0 1.459-.073 1.897-.438.511-.438.62-1.605.73-4.196.839.657 1.678.949 2.371 1.167.839.255.912.365.839 1.277-.182 2.517-.657 3.867-1.496 4.597s-2.262 1.094-4.524 1.094c-1.861 0-3.101-.146-4.013-.547-.73-.328-1.131-1.167-1.131-2.408v-8.282h-2.08c-.401 6.604-3.612 9.778-10.106 11.565-.365.109-.657.182-.803.182-.365 0-.511-.182-.949-.876-.547-.876-1.094-1.569-1.678-2.043 6.275-1.459 9.522-3.065 9.851-8.829-2.043.036-2.809.073-2.992.073-.365 0-.401-.036-.401-.401 0-.255.073-1.569.073-4.451v-10.471c0-2.882-.073-4.232-.073-4.451 0-.401.036-.438.401-.438.219 0 1.313.073 4.561.073h7.589c3.247 0 4.305-.073 4.56-.073.365 0 .401.036.401.438 0 .219-.073 1.569-.073 4.451v10.471c0 2.882.073 4.232.073 4.451 0 .365-.036.401-.401.401-.255 0-1.313-.073-4.342-.073v6.494zm-9.084-23.277v2.554h10.106v-2.554zm10.106 8.063v-2.517h-10.106v2.517zm0 3.028h-10.106v2.59h10.106z"/><path d="m244.695 96.371c-.073-1.058-.146-1.569-.438-2.663 1.642.109 3.393.328 4.269.511.62.109 1.021.365 1.021.693 0 .292-.109.474-.328.839-.109.219-.219.584-.292 1.058-.036.474-.036.949-.073 2.335 3.94-.146 7.698-.182 11.2-.182.438 0 .511.073.547.547.036.912.036 1.861 0 2.773 0 .401-.182.511-.62.474-3.794-.109-7.333-.109-11.128-.073 0 2.226 0 4.56.036 6.786.365.985.547 2.408.547 3.612 0 4.232-1.715 8.647-6.494 11.784-.62.401-1.094.693-1.423.693s-.73-.255-1.094-.547c-.839-.693-1.824-1.167-2.773-1.459 4.269-1.897 6.823-4.962 7.479-8.026-.73 1.058-2.226 1.459-3.43 1.459-2.882 0-5.071-2.08-5.071-5.582 0-3.393 2.554-5.473 5.509-5.473 1.094 0 2.189.219 2.773.73 0-1.277-.036-2.517-.036-3.721-4.597.255-9.741.693-12.623 1.094-.803.109-1.386.438-1.715.438-.365 0-.511-.146-.62-.511-.292-.73-.62-2.189-.912-3.685 1.35.146 2.517 0 4.451-.146 2.225-.182 6.932-.474 11.31-.73-.036-1.131-.036-2.043-.073-3.028zm-4.67 14.776c0 1.605 1.022 2.481 2.335 2.481 1.35 0 2.481-.839 2.481-2.517 0-1.496-.949-2.335-2.408-2.335-1.131 0-2.408.766-2.408 2.371z"/><path d="m278.374 108.01c2.043-1.167 3.758-1.642 5.801-1.642 5.327 0 9.048 3.502 9.048 8.756 0 6.093-4.925 9.997-12.733 9.997-4.597 0-7.37-1.97-7.37-5.363 0-2.444 2.298-4.451 5.144-4.451 3.429 0 5.947 1.824 6.859 5.327 2.554-1.167 3.721-2.773 3.721-5.546 0-3.32-2.335-5.509-5.728-5.509-3.028 0-6.385 1.35-9.34 3.867-1.058.949-2.08 2.007-3.174 3.101-.255.255-.438.401-.62.401-.146 0-.328-.109-.547-.328-.766-.657-1.569-1.605-2.153-2.371-.219-.292-.109-.547.182-.839 2.846-2.298 5.363-4.633 8.647-8.063 2.262-2.335 3.977-4.159 5.655-6.239-2.189.401-4.779.912-7.041 1.386-.474.109-.949.219-1.532.438-.182.073-.547.182-.73.182-.365 0-.62-.182-.803-.62-.438-.839-.766-1.861-1.277-3.94 1.094.146 2.298.146 3.393.073 2.225-.219 5.436-.693 8.282-1.24.912-.182 1.642-.365 2.007-.547.182-.109.511-.292.693-.292.365 0 .584.109.839.292 1.095.839 1.824 1.569 2.444 2.335.292.328.401.584.401.876 0 .365-.219.693-.62.876-.62.292-.912.547-1.605 1.167-2.663 2.59-5.108 5.144-7.88 7.808l.036.109zm.037 10.398c-1.058 0-1.751.62-1.751 1.386 0 1.131.985 1.897 3.174 1.897.657 0 1.131-.036 1.678-.146-.474-2.007-1.569-3.138-3.101-3.138z"/><path d="m68.235 157.785v2.007h-9.267v29.844h-2.189v-31.85h11.456z"/><path d="m80.206 190.693c-3.211 0-4.342.073-4.56.073-.365 0-.365-.036-.365-.401v-2.663c0-.328 0-.365.365-.365.219 0 1.35.073 4.56.073h9.34v-3.466h-4.816c-3.539 0-4.779.073-4.998.073-.401 0-.438-.036-.438-.401v-2.59c0-.401.036-.438.438-.438.219 0 1.459.073 4.998.073h4.816c0-.912-.036-1.715-.109-2.59h-2.299c-.365 0-.401-.036-.401-.438 0-.219.073-1.423.073-4.086v-2.882h-3.43c-.182 1.24-.438 2.335-.803 3.284-.73 2.007-1.861 3.43-3.575 4.852-.401.365-.62.547-.803.547-.219 0-.401-.219-.839-.693-.657-.693-1.35-1.277-2.08-1.678 2.043-1.277 3.429-2.773 4.05-4.342.182-.511.365-1.167.511-1.97-2.736.036-3.794.073-3.977.073-.365 0-.401-.036-.401-.438v-2.444c0-.365.036-.401.401-.401.182 0 1.313.073 4.305.073.036-.766.073-1.569.073-2.481v-1.861c-2.298.036-3.174.073-3.357.073-.365 0-.401-.036-.401-.401v-2.408c0-.365.036-.401.401-.401.219 0 1.277.073 4.451.073h7.078c3.174 0 4.232-.073 4.451-.073.365 0 .401.036.401.401v2.408c0 .365-.036.401-.401.401-.182 0-.876-.036-2.627-.073v4.342c2.299 0 3.174-.073 3.357-.073.365 0 .401.036.401.401v2.444c0 .401-.036.438-.401.438-.182 0-1.058-.036-3.357-.073v2.882c0 1.751 0 2.846.036 3.466.985.036 1.897.109 2.882.219.292.036.511.219.511.438 0 .292-.073.511-.182.766-.146.365-.219.912-.219 2.226h5.363c3.575 0 4.816-.073 5.035-.073.365 0 .401.036.401.438v2.59c0 .365-.036.401-.401.401-.219 0-1.459-.073-5.035-.073h-5.363v3.466h9.668c3.211 0 4.305-.073 4.524-.073.365 0 .365.036.365.365v2.663c0 .365 0 .401-.365.401-.219 0-1.313-.073-4.524-.073h-22.729zm6.604-23.167v-4.342h-3.101v2.335c0 .693 0 1.386-.036 2.007h3.138zm8.61-3.393c0-1.277-.036-2.335-.255-3.648 1.386.036 2.189.109 3.429.219.365.036.547.219.547.401 0 .255-.036.401-.146.62-.146.292-.219.839-.219 2.408v4.524c0 2.226.073 3.247.073 3.466 0 .401-.036.438-.438.438h-2.663c-.365 0-.401-.036-.401-.438 0-.219.073-1.24.073-3.466zm10.617 6.275c0 1.897.036 3.539.036 4.816 0 1.131-.182 1.824-1.058 2.408-.657.438-2.007.73-4.743.73-1.094 0-1.131 0-1.313-1.131-.146-.839-.401-1.642-.803-2.444 1.204.146 2.262.219 3.065.219 1.058 0 1.35-.328 1.35-1.204v-10.325c0-1.97-.036-3.32-.292-4.633 1.386.036 2.371.109 3.648.255.365.036.584.219.584.401 0 .328-.109.584-.219.839-.182.401-.255 1.167-.255 3.065v7.005z"/><path d="m123.262 164.315c-.474 2.736-1.277 5.327-2.335 7.771h3.247c1.642 0 2.335-.073 2.554-.073.401 0 .438.036.438.401 0 .255-.073 1.313-.073 5.035v3.721c0 3.502.036 4.852.036 5.436.876-1.861 1.459-4.013 1.788-6.312.438-3.101.547-6.823.547-11.492 0-3.466-.073-5.108-.073-5.363 0-.365.036-.401.401-.401.219 0 1.605.073 4.524.073h2.517v-.073c0-2.116-.073-3.43-.255-4.488 1.167.036 2.408.146 3.466.255.547.073.803.219.803.438 0 .292-.109.547-.292.876-.182.401-.219 1.277-.219 2.882v.109h4.196c.474 0 .693-.036.912-.146.146-.073.401-.146.511-.146.292 0 .547.073 1.788.876.803.547.985.839.985 1.131 0 .328-.073.511-.255.657-.219.255-.401.62-.584 1.167-.474 1.131-.949 2.226-1.715 3.466-.255.401-.365.547-.62.547-.182 0-.401-.073-.803-.219-.62-.255-1.569-.474-2.371-.584.876-1.204 1.423-2.262 1.897-3.466h-3.94v5.764h3.174c.438 0 .693-.073.839-.146s.219-.109.401-.109c.328 0 .62.219 1.532 1.058.803.693.949.949.949 1.313 0 .292-.109.438-.365.657-.255.219-.438.547-.693 1.204-1.022 2.882-2.444 5.546-4.196 7.917 2.007 1.824 4.378 3.211 7.224 4.196-.547.62-1.058 1.605-1.423 2.481-.255.657-.365.912-.657.912-.182 0-.401-.109-.839-.292-2.481-1.167-4.706-2.736-6.567-4.633-1.824 1.897-3.977 3.539-6.421 4.816-.438.219-.657.328-.876.328-.255 0-.401-.255-.73-.839-.438-.803-1.022-1.569-1.569-2.08 2.846-1.131 5.327-2.809 7.37-4.852-1.788-2.517-3.174-5.436-4.05-8.793h-.584c-.109 2.08-.255 3.977-.511 5.728-.547 3.648-1.642 6.895-3.393 9.887-.292.474-.474.693-.693.693-.182 0-.401-.182-.73-.584-.62-.766-1.277-1.386-1.97-1.788.401-.547.766-1.131 1.131-1.751h-2.335c-.365 0-.401-.036-.401-.401v-.839h-2.919v2.919c0 .365-.036.401-.401.401h-2.517c-.365 0-.401-.036-.401-.401 0-.219.073-1.313.073-6.494v-4.633l-1.423 2.043c-.255.328-.438.474-.584.474-.182 0-.292-.182-.365-.62-.219-1.24-.584-2.335-1.022-3.174 2.554-2.955 4.633-7.479 5.436-12.441h-.365c-2.59 0-3.393.073-3.648.073-.328 0-.365-.036-.365-.401v-2.663c0-.365.036-.401.365-.401.255 0 1.058.073 3.648.073h4.743c2.627 0 3.43-.073 3.648-.073.401 0 .438.036.438.401v2.663c0 .365-.036.401-.438.401-.219 0-1.022-.073-3.648-.073h-.949zm-2.225 10.982v7.771h2.919v-7.771zm11.93-6.02c0 .985 0 1.97-.036 2.882h3.904v-5.764h-3.867v2.882zm3.575 6.02c.766 2.335 1.824 4.415 3.174 6.202 1.386-1.897 2.444-3.977 3.138-6.202z"/><path d="m163.618 161.068c.474.182.693.401.693.73 0 .219-.073.365-.255.584-.255.292-.438.803-.657 1.715-.511 2.481-.803 5.071-1.022 6.968-.073 1.313-.182 2.7-.109 4.013.803-1.423 1.569-2.809 2.554-4.67.328 1.095.693 1.751 1.131 2.371.182.219.219.401.219.584 0 .292-.146.584-.365.912-.803 1.532-1.642 3.065-2.153 4.67-.109.328-.146.657-.182 1.094 0 .365-.146.511-.474.584-.438.109-2.007.328-2.919.438-.255.036-.438-.219-.511-.474-.584-1.569-1.095-4.378-1.095-7.406 0-2.444.401-5.436.876-9.084.146-1.277.292-2.517.292-4.159 1.642.328 3.028.693 3.977 1.131zm11.857-.62c.73.182.803.365.73.985-.073.511-.073 1.167-.073 1.678.255 3.466.511 6.786.511 9.413 0 5.181-.839 9.668-2.773 12.66-1.423 2.262-3.721 4.415-6.02 5.874-.255.182-.511.255-.73.255-.255 0-.474-.109-.766-.401-.803-.693-1.934-1.35-3.101-1.678 2.955-1.642 4.743-2.955 6.202-4.889 2.116-2.882 3.065-5.874 3.065-11.638 0-2.59-.182-6.385-.438-8.72-.182-1.788-.365-2.7-.766-3.977 1.605.073 3.101.146 4.159.438z"/><path d="m186.826 192.736v-2.007h9.267v-29.844h2.189v31.85h-11.456z"/><path d="m227.472 166.76c-.839 6.202-2.371 11.894-4.56 15.724-1.569 2.736-3.466 4.196-6.202 4.196-3.211 0-6.458-3.43-6.458-9.376 0-3.502 1.496-6.859 4.123-9.486 3.065-3.065 6.932-4.67 11.857-4.67 8.756 0 13.9 5.4 13.9 12.66 0 6.786-3.831 11.055-11.237 13.28-.766.219-1.095.073-1.569-.657-.401-.62-1.167-1.459-2.554-2.298 6.166-1.459 11.018-4.013 11.018-10.909 0-4.342-3.284-8.464-8.172-8.464zm-10.471 3.539c-1.751 1.97-2.846 4.415-2.846 6.75 0 3.357 1.35 5.217 2.481 5.217.948 0 1.751-.474 2.736-2.226 1.605-2.955 3.247-8.209 3.867-13.061-2.554.511-4.597 1.532-6.239 3.32z"/><path d="m62.181 242.146c.584.401.803.766.146 1.277-.365.292-.62.657-.912 1.24-.949 1.934-2.554 4.488-4.05 6.093-.438.474-.73.584-1.277.219-1.058-.693-2.08-1.277-3.101-1.532 2.116-2.189 3.43-4.086 4.415-6.02.547-.985.803-1.788.985-2.955 1.496.474 2.882 1.095 3.794 1.678zm4.852-10.033c0-2.298-.073-3.977-.401-5.618 1.715.146 3.612.365 4.524.547.73.146.803.511.438 1.204-.328.62-.365 1.459-.365 3.648v1.934h4.488c3.174 0 5.655-.146 7.443-.219.328-.036.474.182.474.584.036.949.036 1.897-.036 2.846-.036.474-.146.73-.511.693-2.262-.073-5.035-.182-7.516-.182h-4.305l.036 7.37c0 1.934.073 3.502.073 6.348 0 1.788-.657 2.992-2.153 3.758-1.167.657-3.138 1.167-4.67 1.204-.438 0-.657-.219-.876-.766-.547-1.277-1.313-2.335-2.444-3.284 2.481 0 4.086-.146 4.962-.438.584-.255.839-.657.839-1.605v-12.587h-5.728c-2.08 0-4.597.109-6.312.255-.328 0-.474-.292-.474-.73-.036-.657-.146-2.298-.146-3.502 2.773.219 4.998.255 6.859.255h5.801zm10.726 8.72c.438-.328.73-.219 1.021.146 1.788 1.532 3.539 3.904 5.217 6.677.328.547.219.803-.182 1.131-.584.547-1.605 1.277-2.444 1.824-.401.255-.584.328-.839-.146-1.313-2.444-3.32-5.4-5.546-7.662.985-.73 1.934-1.35 2.773-1.97zm7.224-12.952c0 2.189-1.751 3.904-3.94 3.904s-3.94-1.715-3.94-3.904c0-2.262 1.751-3.904 3.94-3.904s3.94 1.715 3.94 3.904zm-6.093 0c0 1.24.912 2.153 2.153 2.153s2.153-.912 2.153-2.153-.912-2.153-2.153-2.153-2.153.912-2.153 2.153z"/><path d="m111.549 229.596c1.313 0 1.97-.036 2.517-.328.146-.109.255-.146.401-.146.219 0 .401.146.62.292.839.657 1.678 1.605 2.371 2.554.109.182.182.328.182.474 0 .219-.146.474-.474.73-.474.401-.949.949-1.35 1.605-1.496 2.554-2.919 4.597-4.67 6.823 3.502 2.59 6.749 5.436 10.106 8.829.182.182.292.365.292.511s-.073.328-.255.547c-.693.839-1.532 1.715-2.444 2.481-.146.146-.292.219-.438.219-.182 0-.328-.109-.511-.292-3.065-3.575-6.202-6.458-9.486-9.048-4.123 4.305-8.282 7.406-12.259 9.632-.328.146-.584.292-.839.292-.219 0-.438-.109-.62-.328-.803-.985-1.861-1.715-3.065-2.371 5.691-2.882 9.084-5.473 12.842-9.303 2.627-2.736 4.633-5.327 6.859-9.157l-9.413.036c-1.897 0-3.794.073-5.764.219-.292.036-.401-.219-.474-.62-.182-.766-.328-2.517-.328-3.794 1.97.146 3.794.146 6.166.146h10.033z"/><path d="m139.828 236.199c4.451 1.386 7.99 2.809 11.602 4.962.401.219.584.474.401.949-.474 1.204-1.058 2.335-1.569 3.174-.146.255-.292.401-.474.401-.109 0-.255-.036-.401-.182-3.357-2.153-6.64-3.758-9.595-4.67v8.063c0 2.371.073 4.524.146 7.151.036.438-.146.547-.657.547-1.058.073-2.189.073-3.247 0-.511 0-.693-.109-.693-.547.109-2.7.146-4.852.146-7.187v-17.95c0-2.736-.109-3.94-.365-5.4 1.678.109 3.502.292 4.56.584.511.109.693.328.693.62 0 .219-.109.511-.292.839-.255.474-.255 1.386-.255 3.429z"/><path d="m180.84 235.105h-12.733c-2.481 0-4.196.073-5.473.219-.401 0-.547-.182-.547-.62-.109-.985-.182-2.7-.182-3.904 2.189.219 3.466.255 6.093.255h10.836c1.897 0 3.831-.073 5.764-.146.584 0 .766.146.73.62 0 1.934-.073 3.831-.073 5.764v8.72c0 2.663.109 5.582.146 6.604 0 .365-.146.474-.657.511-1.021.073-2.189.073-3.211 0-.584-.036-.693-.073-.693-.62v-1.459h-12.55c-2.298 0-4.232.109-5.983.146-.328 0-.474-.146-.511-.547-.109-.949-.182-2.262-.182-3.794 1.715.109 3.831.182 6.713.182h12.514v-11.93z"/><path d="m198.941 229.377c.146-.182.328-.292.511-.292.146 0 .292.073.474.182 1.861.985 4.889 3.211 6.968 5.181.219.219.328.365.328.511s-.073.292-.219.474c-.547.73-1.751 2.189-2.262 2.736-.182.182-.292.292-.438.292s-.292-.109-.474-.292c-2.189-2.262-4.816-4.342-7.443-5.947.803-.985 1.861-2.116 2.554-2.846zm3.174 19.227c4.451-2.299 6.822-3.831 10.507-6.786 4.451-3.612 6.895-5.947 9.996-9.924.219 1.824.547 3.065 1.022 4.269.109.255.182.474.182.693 0 .328-.182.62-.584 1.094-1.934 2.262-5.071 5.181-8.391 7.735-3.028 2.371-6.093 4.414-11.018 7.151-1.642.985-2.116 1.35-2.444 1.678-.219.219-.438.365-.657.365-.182 0-.401-.146-.62-.401-.912-1.022-2.043-2.517-2.919-4.05 1.861-.511 2.992-.839 4.925-1.824z"/><path d="m257.028 234.339c1.788 0 3.831-.036 5.509-.109.438-.036.474.182.511.584.073.912.073 1.97 0 2.882-.036.474-.109.62-.62.584-1.24 0-3.466-.036-5.254-.036h-1.496c-.219 5.217-1.021 8.282-2.809 11.237-1.824 3.028-4.779 5.217-8.61 6.786-.511.219-.803.328-1.022.328s-.401-.109-.693-.401c-1.095-1.131-1.788-1.642-3.028-2.189 5.181-1.605 7.99-3.466 9.851-6.458 1.423-2.335 2.007-4.852 2.153-9.303h-7.771v1.313c0 2.153 0 4.123.109 6.056.036.401-.219.474-.62.511-.949.073-2.153.073-3.138 0-.474-.036-.693-.109-.657-.511.109-1.897.182-3.685.182-5.983v-1.386h-1.095c-1.97 0-4.889.109-6.02.182-.292 0-.401-.219-.438-.693-.146-.766-.182-2.043-.255-3.539 1.532.109 3.904.182 6.713.182h1.095v-2.663c0-2.335-.073-3.247-.438-5.363 1.897.182 3.685.365 4.451.584.401.073.547.255.547.511 0 .219-.109.474-.219.766-.255.657-.255 1.022-.255 3.502v2.663h7.844l.036-3.575c.036-2.043-.073-3.721-.328-4.998 1.386.146 3.393.365 4.269.62.511.109.657.292.657.584 0 .146-.036.365-.146.657-.255.693-.292 1.642-.292 3.211v3.466h1.277z"/><path d="m281.113 231.821c.62.182.693.62.474 1.131-.401.803-.438 1.605-.438 2.481-.073 4.56-.766 8.026-1.97 10.726-.949 2.226-2.554 4.597-5.181 6.859-.365.292-.657.474-.949.474-.219 0-.438-.109-.693-.292-.912-.62-1.788-1.058-3.101-1.532 2.846-2.153 4.779-4.378 6.056-7.26 1.022-2.481 1.496-4.487 1.532-10.325 0-1.386-.073-1.97-.365-3.065 2.08.255 3.758.511 4.633.803zm8.1 15.433c1.788-.949 3.466-2.08 5.181-3.393 2.189-1.678 4.342-3.612 6.385-6.202.146 1.277.511 2.481 1.131 3.685.109.255.219.438.219.62 0 .255-.146.511-.547.912-1.824 1.861-3.502 3.357-5.4 4.779-1.897 1.459-3.94 2.882-6.494 4.378-.657.438-.73.511-1.058.766-.219.182-.474.292-.73.292-.219 0-.474-.109-.766-.292-.803-.547-1.642-1.496-2.189-2.225-.219-.328-.328-.547-.328-.766 0-.182.036-.328.146-.547.255-.474.219-.912.219-2.773v-11.419c0-3.174 0-4.67-.365-6.348 1.459.182 3.466.438 4.561.766.474.109.657.328.657.62 0 .219-.109.547-.292.912-.328.693-.328 1.423-.328 4.05v12.186z"/></g></svg>