<svg viewBox="0 0 769.51 115.976" xmlns="http://www.w3.org/2000/svg"><path d="m200.976 0h368v54h-368z" fill="#d9dfe1"/><path d="m384.976 115.976-21.351-26.17h42.26z" fill="#d9dfe1"/><path d="m246.996 21.806h-8.497v-2.256h8.497zm-.744 14.905h-4.44v.96h-2.328v-8.185h6.769v7.225zm-.048-11.641h-6.648v-2.184h6.648zm-6.648 1.105h6.648v2.136h-6.648zm6.601-7.681h-6.457v-2.161h6.457zm-4.345 13.225v2.76h2.088v-2.76zm15.505.36c1.393 1.32 3.097 3.168 3.864 4.488l-2.52 1.44c-.672-1.296-2.328-3.289-3.721-4.681l2.305-1.248h-6.073l2.232 1.248c-1.128 1.656-3.096 3.601-4.824 4.656-.456-.528-1.393-1.32-2.064-1.8 1.656-.984 3.385-2.736 4.297-4.104h-3.696v-2.544h9.312v-2.136h-5.856v.984h-2.593v-10.225h2.593v6.769h8.641v4.608h1.776v2.544h-3.673zm2.545-8.497h-7.969v-7.321h7.969zm-2.617-4.968h-2.881v2.616h2.881z"/><path d="m267.631 25.118c1.632-.504 5.713-1.872 8.617-1.872 3.792 0 6.336 2.256 6.336 5.88 0 4.344-3.816 7.296-11.449 7.776l-1.271-2.952c5.496-.144 9.528-1.608 9.528-4.873 0-1.8-1.344-3.048-3.432-3.048-2.784 0-7.585 1.992-9.625 2.856l-1.248-3.12c.72-.144 1.824-.432 2.544-.648z"/><path d="m295.958 19.022c-.048.264-.12.576-.192.912 1.345-.192 2.688-.456 4.009-.768v3c-1.44.336-3.072.6-4.681.792-.216 1.032-.456 2.088-.72 3.072-.864 3.36-2.473 8.256-3.816 11.113l-3.337-1.128c1.44-2.4 3.265-7.441 4.152-10.801.169-.648.36-1.32.505-2.016-.553.024-1.08.048-1.585.048-1.151 0-2.063-.048-2.904-.096l-.071-3c1.224.144 2.04.192 3.024.192.695 0 1.416-.024 2.16-.072.096-.528.168-.984.216-1.368.096-.888.144-1.872.072-2.424l3.672.288c-.192.648-.408 1.729-.504 2.256zm2.88 13.033c0 1.056.721 1.848 3.288 1.848 1.608 0 3.265-.192 4.993-.504l-.12 3.072c-1.345.168-2.977.336-4.896.336-4.032 0-6.217-1.392-6.217-3.816 0-1.104.24-2.256.433-3.216l2.855.288c-.191.672-.336 1.464-.336 1.992zm3.649-8.281c1.368 0 2.809.072 4.225.216l-.072 2.88c-1.2-.144-2.664-.288-4.128-.288-1.633 0-3.12.072-4.633.24v-2.809c1.345-.12 3.072-.24 4.608-.24z"/><path d="m331.07 20.918c-1.129 1.873-3.409 4.896-5.761 6.577l-2.496-1.992c1.92-1.176 3.792-3.288 4.416-4.464h-12.505c-1.008 0-1.8.072-2.929.168v-3.336c.912.144 1.921.24 2.929.24h12.937c.673 0 1.992-.072 2.448-.216l1.896 1.776c-.264.312-.72.888-.936 1.248zm-15.506 16.345-2.809-2.28c.769-.264 1.633-.672 2.521-1.32 3.049-2.112 3.624-4.656 3.624-8.593 0-.744-.048-1.392-.168-2.16h3.48c0 5.953-.12 10.849-6.648 14.354z"/><path d="m344.09 22.286c2.473-1.536 5.209-3.936 6.77-5.833l2.592 2.472c-1.824 1.8-4.128 3.672-6.457 5.208v9.697c0 1.056.049 2.544.217 3.145h-3.793c.097-.576.168-2.088.168-3.145v-7.681c-2.472 1.296-5.521 2.592-8.473 3.457l-1.512-3.024c4.296-1.104 7.824-2.664 10.488-4.296z"/><path d="m359.385 24.086h15.722c.504 0 1.56-.048 2.184-.144v3.12c-.6-.048-1.512-.072-2.184-.072h-5.785c-.144 2.472-.672 4.488-1.536 6.168-.84 1.68-2.688 3.528-4.824 4.608l-2.808-2.04c1.704-.648 3.384-2.016 4.344-3.433.984-1.488 1.393-3.288 1.488-5.304h-6.601c-.696 0-1.632.048-2.304.096v-3.144c.72.096 1.56.144 2.304.144zm3.049-6.096h7.849c.815 0 1.775-.072 2.592-.192v3.096c-.816-.048-1.752-.072-2.592-.072h-7.849c-.816 0-1.849.024-2.568.072v-3.096c.768.12 1.752.192 2.568.192zm13.776 1.44-1.92.84c-.504-.984-1.248-2.424-1.896-3.336l1.921-.792c.6.888 1.439 2.4 1.896 3.289zm2.881-1.105-1.92.84c-.505-1.008-1.272-2.4-1.921-3.312l1.896-.792c.624.912 1.512 2.424 1.944 3.264z"/><path d="m402.513 20.918c-1.129 1.873-3.409 4.896-5.761 6.577l-2.496-1.992c1.92-1.176 3.792-3.288 4.416-4.464h-12.505c-1.008 0-1.8.072-2.929.168v-3.336c.912.144 1.921.24 2.929.24h12.937c.673 0 1.992-.072 2.448-.216l1.896 1.776c-.264.312-.72.888-.936 1.248zm-15.506 16.345-2.809-2.28c.769-.264 1.633-.672 2.521-1.32 3.049-2.112 3.624-4.656 3.624-8.593 0-.744-.048-1.392-.168-2.16h3.48c0 5.953-.12 10.849-6.648 14.354z"/><path d="m411.465 22.166v-.912c-.648.6-1.345 1.176-2.137 1.752h9.602v7.465h-7.753c-.048.312-.096.648-.168.96h8.28v6.457h-2.472v-.672h-4.057v.744h-2.4v-3.96c-.432 1.272-1.032 2.496-1.848 3.504-.36-.48-1.368-1.416-1.872-1.704 2.111-2.76 2.376-6.601 2.376-9.312v-3.265c-.265.168-.528.36-.792.528-.336-.624-1.152-1.584-1.704-2.016 2.856-1.656 4.896-3.889 6.024-5.856h2.544c1.681 1.296 3.864 3.072 5.017 4.32l-1.824 2.112c-.336-.384-.768-.864-1.272-1.392v1.248h-5.544zm4.897 6.313v-.912h-4.944c0 .288-.024.6-.048.912zm-4.921-3.481v.864h4.921v-.864zm4.896-4.752c-.696-.672-1.44-1.368-2.136-1.92-.504.625-1.057 1.272-1.681 1.92h3.816zm-3.576 13.225v1.704h4.057v-1.704zm10.273-1.464h-2.688v-13.513h2.688zm5.329-15.937v18.529c0 1.584-.312 2.376-1.272 2.809-.912.48-2.4.576-4.464.576-.12-.792-.528-2.088-.937-2.904 1.44.048 2.832.048 3.288.048.433 0 .601-.144.601-.552v-18.505h2.784z"/><path d="m453.077 27.83v10.153h-2.976v-1.368h-13.297v1.392h-2.904v-10.177h2.904v5.977h5.016v-7.249h-6.96v-8.713h2.832v5.929h4.128v-7.945h2.929v7.945h4.368v-5.929h3v8.713h-7.368v7.249h5.353v-5.977h2.976z"/><path d="m469.462 37.047-1.801-2.856c.912-.096 1.584-.24 2.232-.384 3.072-.72 5.473-2.928 5.473-6.433 0-3.312-1.8-5.784-5.041-6.336-.336 2.04-.743 4.249-1.439 6.504-1.44 4.849-3.505 7.825-6.121 7.825-2.664 0-4.872-2.928-4.872-6.984 0-5.544 4.801-10.273 11.017-10.273 5.953 0 9.697 4.128 9.697 9.361 0 5.064-3.097 8.641-9.145 9.577zm-6.6-5.376c1.008 0 1.943-1.512 2.928-4.752.553-1.776 1.008-3.816 1.272-5.808-3.961.816-6.097 4.32-6.097 6.96 0 2.424.96 3.6 1.896 3.6z"/><path d="m491.357 16.526c-.672 1.68-1.513 3.36-2.473 5.016v16.441h-2.832v-12.313c-.624.792-1.272 1.488-1.92 2.136-.288-.696-1.128-2.232-1.656-2.928 2.424-2.208 4.752-5.688 6.097-9.241l2.784.888zm7.824 9.096v8.737h5.665v2.736h-14.354v-2.736h5.761v-8.737h-6.36v-2.784h6.36v-6.769h2.928v6.769h6.073v2.784z"/><path d="m519.147 22.142c-.072 1.032-.144 2.088-.264 3.121h9.265s-.024.864-.097 1.248c-.432 6.528-.936 9.217-1.896 10.273-.721.768-1.464 1.008-2.593 1.104-.888.096-2.496.072-4.104 0-.049-.816-.48-1.992-1.009-2.808 1.656.168 3.337.168 4.032.168.528 0 .864-.048 1.152-.312.624-.528 1.057-2.616 1.393-6.985h-6.601c-.912 4.057-2.904 7.801-7.705 10.225-.408-.792-1.272-1.8-2.017-2.424 6.481-3 7.033-8.473 7.297-13.609h-6.864v-2.736h9.192v-3.912h2.952v3.912h9.481v2.736h-11.617z"/><g fill="none" stroke-miterlimit="10"><path d="m769.51 26.946h-190.824" stroke="#c6cfd3"/><path d="m769.51 26.946h-190.824" stroke="#a0afb5"/><path d="m190.824 26.946h-190.824" stroke="#a0afb5"/></g></svg>