<?xml version="1.0" encoding="UTF-8"?><svg id="_レイヤー_2" xmlns="http://www.w3.org/2000/svg" viewBox="0 0 1042.28748 445.1872"><defs><style>.cls-1{fill:#3c3c3c;}.cls-2{fill:#005a96;}.cls-3{fill:#eceff0;}.cls-4{fill:#c5ced1;}.cls-5,.cls-6{fill:none;}.cls-5,.cls-6,.cls-7{stroke-miterlimit:10;stroke-width:1.00006px;}.cls-5,.cls-7{stroke:#000;}.cls-6{stroke:#a0afb5;stroke-dasharray:2 2;}.cls-8{fill:#b4c0c4;}.cls-9{fill:#9ec0d7;}.cls-10,.cls-7{fill:#fff;}.cls-11{fill:#a0afb5;}</style></defs><g id="_メニュー"><polygon class="cls-7" points="1.13236 327.75712 294.71391 327.75712 294.08255 .50003 .501 .50003 1.13236 327.75712"/><path class="cls-1" d="M622.28268,3.34495v180.3566h-260.53906V3.34495h260.53906M624.28268,1.34495h-264.53906v184.3566h264.53906V1.34495h0Z"/><line class="cls-5" x1="470.58835" y1="48.6968" x2="561.41745" y2="369.99537"/><polygon points="557.08933 368.29996 561.08054 368.80655 564.21628 366.2851 563.04147 375.74033 557.08933 368.29996"/><line class="cls-5" x1="937.69675" y1="89.79492" x2="845.88913" y2="412.3591"/><polygon points="933.36569 91.48263 937.35788 90.98316 940.48972 93.51017 939.33054 84.05286 933.36569 91.48263"/><rect class="cls-3" x="376.83595" y="16.03651" width="186.66654" height="65.48837" rx="6" ry="6"/><rect class="cls-4" x="399.0207" y="110.39121" width="186.66654" height="65.48837" rx="6" ry="6"/><rect class="cls-8" x="428.08371" y="197.86766" width="186.66654" height="65.48837" rx="6" ry="6"/><rect class="cls-9" x="453.70758" y="288.78324" width="186.66654" height="65.48837" rx="6" ry="6"/><rect class="cls-3" x="855.62094" y="16.03651" width="186.66654" height="65.48837" rx="6" ry="6" transform="translate(1897.90842 97.56138) rotate(180)"/><rect class="cls-4" x="826.55794" y="110.39121" width="186.66654" height="65.48837" rx="6" ry="6" transform="translate(1839.78242 286.27079) rotate(180)"/><rect class="cls-8" x="804.37319" y="197.86766" width="186.66654" height="65.48837" rx="6" ry="6" transform="translate(1795.41291 461.2237) rotate(180)"/><rect class="cls-9" x="778.74931" y="288.78324" width="186.66654" height="65.48837" rx="6" ry="6" transform="translate(1744.16515 643.05486) rotate(180)"/><rect class="cls-2" x="479.33146" y="379.69882" width="186.66654" height="65.48837" rx="6" ry="6"/><rect class="cls-2" x="753.12543" y="379.69882" width="186.66654" height="65.48837" rx="6" ry="6" transform="translate(1692.91739 824.88602) rotate(180)"/><line class="cls-6" x1="841.85886" y1="48.6968" x2="577.26413" y2="48.6968"/><polygon class="cls-11" points="839.05026 44.99344 840.6235 48.6968 839.05026 52.40016 847.82956 48.6968 839.05026 44.99344"/><polygon class="cls-11" points="580.07272 44.99344 578.49948 48.6968 580.07272 52.40016 571.2944 48.6968 580.07272 44.99344"/><line class="cls-6" x1="815.34225" y1="140.8751" x2="603.78171" y2="140.8751"/><polygon class="cls-11" points="812.53366 137.17173 814.1069 140.8751 812.53366 144.57846 821.31198 140.8751 812.53366 137.17173"/><polygon class="cls-11" points="606.5903 137.17173 605.01706 140.8751 606.5903 144.57846 597.811 140.8751 606.5903 137.17173"/><line class="cls-6" x1="790.08737" y1="233.0534" x2="629.03561" y2="233.0534"/><polygon class="cls-11" points="787.27878 229.35003 788.85202 233.0534 787.27878 236.75675 796.05808 233.0534 787.27878 229.35003"/><polygon class="cls-11" points="631.84421 229.35003 630.27097 233.0534 631.84421 236.75675 623.06589 233.0534 631.84421 229.35003"/><line class="cls-6" x1="765.46433" y1="325.23169" x2="653.65866" y2="325.23169"/><polygon class="cls-11" points="762.65573 321.52832 764.22897 325.23169 762.65573 328.93506 771.43503 325.23169 762.65573 321.52832"/><polygon class="cls-11" points="656.46725 321.52832 654.89401 325.23169 656.46725 328.93506 647.68893 325.23169 656.46725 321.52832"/><line class="cls-6" x1="738.31589" y1="413.62183" x2="680.8071" y2="413.62183"/><polygon class="cls-11" points="735.50729 409.91846 737.08054 413.62183 735.50729 417.3252 744.28659 413.62183 735.50729 409.91846"/><polygon class="cls-11" points="683.61569 409.91846 682.04245 413.62183 683.61569 417.3252 674.83737 413.62183 683.61569 409.91846"/><path d="M450.01022,51.11701c-.49512,1.04297-1.14941,1.8916-1.96289,2.58203,1.85645.49512,3.53711,1.02539,4.81055,1.50293l-.97266,1.34375c-1.43262-.58301-3.3252-1.21973-5.46484-1.80371-1.98047.99023-4.61621,1.48535-8.06445,1.75098-.10645-.47754-.35352-1.0791-.61914-1.43262,2.58203-.12402,4.66895-.38867,6.33105-.91992-.83105-.21191-1.67969-.38867-2.5459-.58301l-.2832.38867-1.57422-.5127c.49512-.63672,1.09668-1.4502,1.69824-2.31641h-3.90918v-1.34473h4.82812c.31836-.47754.63672-.95508.90234-1.39648h-4.50977v-4.7041h3.85547v-1.27344h-4.7041v-1.4502h15.15527v1.4502h-4.86328v1.27344h4.20898v4.7041h-7.56836l.26465.07031c-.26465.4248-.54785.86621-.84863,1.32617h9.24902v1.34473h-3.41309ZM440.21237,47.04865h2.31738v-2.05078h-2.31738v2.05078ZM443.27194,51.11701c-.30078.42383-.60059.84863-.88379,1.25488,1.25586.24805,2.5293.53125,3.74902.83203.86621-.54883,1.52051-1.2207,2.03418-2.08691h-4.89941ZM444.103,43.6717h2.45898v-1.27344h-2.45898v1.27344ZM446.56198,47.04865v-2.05078h-2.45898v2.05078h2.45898ZM448.11765,44.99787v2.05078h2.58203v-2.05078h-2.58203Z"/><path d="M461.33933,51.576c-1.82227,1.15039-3.85547,2.35254-5.39453,3.23633l-1.02539-1.48535c1.50293-.74219,3.7666-2.01562,5.88867-3.23633l.53125,1.48535ZM470.18112,46.23518c-1.0957,1.23828-2.49316,2.61816-3.625,3.59082,1.30859,1.71484,2.91797,3.1123,4.79297,3.94336-.37207.35352-.91992.99023-1.18555,1.46777-2.70508-1.36133-4.77441-3.83789-6.25977-6.84375v5.97754c0,1.04297-.24805,1.53809-.88477,1.82129-.63672.26562-1.7334.31836-3.27148.31836-.08887-.47754-.35352-1.23828-.58398-1.7334,1.13184.03516,2.26367.03516,2.61719.01758.31836,0,.44238-.10547.44238-.42383v-9.70898h-6.77344v-1.5918h6.77344v-2.77637h1.68066v2.77637h4.33203c-.74219-.56641-1.94531-1.27344-2.90039-1.76855l.99121-1.04395c1.06055.51367,2.51074,1.32715,3.25391,1.91016l-.81348.90234h2.06836v1.5918h-6.93164v.19434c.45898,1.30859,1.06055,2.58203,1.80371,3.74902,1.06055-.99023,2.28125-2.31641,3.02344-3.39551l1.4502,1.02539ZM459.02194,49.61311c-.5127-.91895-1.69727-2.28125-2.74121-3.23633l1.23828-.86621c1.04395.90234,2.29883,2.21094,2.83008,3.1123l-1.32715.99023Z"/><path d="M483.9155,40.52326c1.13184,2.29883,3.36035,4.89844,5.27051,6.31348-.4248.35352-1.06152,1.00781-1.37988,1.46777-.47754-.40625-.99023-.90137-1.48535-1.4502,0,.15918,0,.53125-.01758.69043-.23047,5.3584-.47754,7.40918-1.0791,8.09961-.40625.5127-.81348.63672-1.4502.72461-.60156.07129-1.67969.05273-2.74121,0-.01758-.49512-.24707-1.18457-.54785-1.66211,1.07812.10547,2.08691.12402,2.49316.12402.35352,0,.56641-.05371.76074-.24805.40625-.4248.63672-2.08691.81348-6.18945h-4.08496c-.44238,3.43066-1.57422,6.52539-6.11914,8.1875-.17676-.42383-.67188-1.13184-1.04395-1.46777,4.06836-1.34375,5.00488-3.92578,5.37695-6.71973h-3.30762v-1.3623c-.5127.53125-1.06055,1.00879-1.60938,1.43262-.30078-.35352-1.00781-1.00781-1.39648-1.30859,2.19238-1.48535,4.1377-3.9082,5.23438-6.59668l1.75098.51367c-.91992,2.13965-2.24609,4.12012-3.74902,5.71191h10.64551c-1.46777-1.60938-2.91797-3.66113-3.92578-5.62402l1.5918-.63672Z"/><path d="M496.16354,51.15217c-.28223-.56641-.88379-1.52148-1.43164-2.33496v7.6582h-1.57422v-7.72852c-.60156,1.80371-1.37988,3.48438-2.19336,4.58008-.17676-.47754-.56543-1.13184-.81348-1.50293,1.13184-1.4502,2.24609-4.0498,2.79492-6.31348h-2.37012v-1.55664h2.58203v-3.69629h1.57422v3.69629h2.28125v1.55664h-2.28125v1.36133c.60059.67285,2.06836,2.49414,2.4043,2.98926l-.97266,1.29102ZM506.63327,47.75666h-2.47559v8.71875h-1.62695v-8.71875h-2.79395c-.08887,2.6875-.58398,6.18945-2.51172,8.68359-.22949-.35449-.86621-.90234-1.25586-1.0791,1.98145-2.59961,2.1582-6.11914,2.1582-8.75391v-5.02246l1.36133.38867c1.89258-.40625,3.83789-.95508,5.04004-1.52051l1.39746,1.27344c-1.71582.70703-4.03223,1.29102-6.17188,1.67969v2.79395h6.87891v1.55664Z"/><path d="M475.26413,144.55744c-.49512,1.04297-1.14941,1.8916-1.96289,2.58203,1.85645.49512,3.53711,1.02539,4.81055,1.50293l-.97266,1.34375c-1.43262-.58301-3.3252-1.21973-5.46484-1.80371-1.98047.99023-4.61621,1.48535-8.06445,1.75098-.10645-.47754-.35352-1.0791-.61914-1.43262,2.58203-.12402,4.66895-.38867,6.33105-.91992-.83105-.21191-1.67969-.38867-2.5459-.58301l-.2832.38867-1.57422-.5127c.49512-.63672,1.09668-1.4502,1.69824-2.31641h-3.90918v-1.34473h4.82812c.31836-.47754.63672-.95508.90234-1.39648h-4.50977v-4.7041h3.85547v-1.27344h-4.7041v-1.4502h15.15527v1.4502h-4.86328v1.27344h4.20898v4.7041h-7.56836l.26465.07031c-.26465.4248-.54785.86621-.84863,1.32617h9.24902v1.34473h-3.41309ZM465.46628,140.48908h2.31738v-2.05078h-2.31738v2.05078ZM468.52585,144.55744c-.30078.42383-.60059.84863-.88379,1.25488,1.25586.24805,2.5293.53125,3.74902.83203.86621-.54882,1.52051-1.2207,2.03418-2.08691h-4.89941ZM469.3569,137.11213h2.45898v-1.27344h-2.45898v1.27344ZM471.81589,140.48908v-2.05078h-2.45898v2.05078h2.45898ZM473.37155,138.4383v2.05078h2.58203v-2.05078h-2.58203Z"/><path d="M485.65573,134.22932c-.45996,1.29102-1.06152,2.58203-1.7334,3.81934v11.84961h-1.55566v-9.37305c-.44238.61914-.91992,1.21973-1.37988,1.71484-.15918-.38867-.61914-1.27344-.90234-1.66211,1.60938-1.66211,3.11328-4.22656,4.03223-6.80859l1.53906.45996ZM496.39011,143.92072h-4.68652v5.99512h-1.64453v-5.99512h-4.89844v-1.60938h4.89844v-3.50195h-2.51074c-.35449.95508-.74316,1.82129-1.18555,2.49414-.31836-.23047-1.02539-.61914-1.41406-.7959.99023-1.41504,1.71484-3.67871,2.10449-5.88965l1.59082.31836c-.15918.76074-.35352,1.52148-.56543,2.26367h1.98047v-3.28906h1.64453v3.28906h3.89062v1.60938h-3.89062v3.50195h4.68652v1.60938Z"/><path d="M506.87058,147.91682c.77832.10645,1.60938.15918,2.49316.15918.76074,0,3.73145,0,4.74023-.03516-.26562.38965-.54883,1.18555-.61914,1.66211h-4.20898c-3.4668,0-6.0127-.58301-7.62207-3.35938-.58398,1.50293-1.39746,2.74121-2.49414,3.67773-.26465-.2998-.95508-.86621-1.36133-1.13184,1.94531-1.4502,2.84668-3.92578,3.21875-7.02051l1.69727.15918c-.10645.81348-.24707,1.5918-.4248,2.31641.61914,1.64453,1.60938,2.58203,2.88281,3.11328v-6.8623h-4.08496v-1.57423h9.95703v1.57423h-4.17383v2.5996h5.05762v1.53906h-5.05762v3.18262ZM500.2739,139.67561h-1.60938v-4.06738h6.47266v-1.8916h1.75098v1.8916h6.54297v4.06738h-1.67969v-2.51074h-11.47754v2.51074Z"/><path d="M530.33151,145.49397c-.58398.77832-1.3623,1.4502-2.24609,2.05176.58301.56641,1.21973.88477,1.87402.86621.45996,0,.58398-.37109.67188-1.50293.31836.26562.83203.53027,1.23828.63672-.24707,1.91016-.76074,2.37012-1.99805,2.37012-1.20312,0-2.28125-.56641-3.14844-1.53906-1.18457.61914-2.49316,1.13184-3.7666,1.52148-.15918-.31836-.56641-1.00879-.84863-1.30859,1.30859-.30078,2.63477-.74316,3.80176-1.32715-.40625-.67188-.74219-1.46777-1.00781-2.33398h-3.80176v.95508c.9541-.07129,1.94531-.1416,2.91797-.21191v1.14941c-.97266.08789-1.96387.17676-2.91797.24707v1.32617c0,.7959-.17773,1.14941-.76074,1.32715-.56641.19434-1.43262.21191-2.75879.21191-.08887-.38965-.30078-.91992-.47754-1.29102.88379.05273,1.82129.05273,2.05078.03516.2832,0,.35449-.07031.35449-.31836v-1.14941l-3.53711.2832-.1416-1.27344c1.00781-.05273,2.28125-.12402,3.67871-.23047v-1.06055h-3.6084v-1.25586h3.6084v-.99023c-1.02637.10645-2.05176.17676-3.00684.21191-.05273-.28223-.19434-.74219-.35352-1.02539,2.33398-.12402,5.09277-.4248,6.64941-.81348l.97266.99023c-.77832.19434-1.69727.33594-2.66992.47754v1.14941h3.4834c-.15918-.76074-.26562-1.5918-.31836-2.44043h1.5918c.03516.86621.1416,1.67969.31836,2.44043h3.53711c-.60156-.5127-1.83984-1.20214-2.84766-1.62695l.91992-.95508c1.00781.37109,2.26367,1.00781,2.90039,1.55664l-.9375,1.02539h1.85645v1.25586h-5.05762c.19434.58398.44238,1.11426.72559,1.57422.67188-.44238,1.2373-.9375,1.66211-1.48633l1.39746.47754ZM531.53366,140.98518h-15.61621v-1.29102h6.93262v-.90234h-5.2168v-1.18457h5.2168v-.90234h-6.1543v-1.23828h3.39551c-.21191-.42383-.53027-.90137-.84863-1.29102l1.43262-.47754c.49512.49609.95508,1.23828,1.16699,1.7334l-.08789.03516h3.92578c.31836-.53027.72461-1.29102.9375-1.80371l1.78613.38965c-.35449.5127-.69043,1.00781-1.00879,1.41406h3.37793v1.23828h-6.24219v.90234h5.30566v1.18457h-5.30566v.90234h7.00293v1.29102Z"/><path d="M499.41354,233.07795c.99023,1.02637,2.38672,1.92773,3.74902,2.40527-.35352.30078-.83105.88477-1.0791,1.27344-1.69727-.74219-3.37793-2.13965-4.45605-3.67871h-5.27051c-.4248.61914-.97266,1.23828-1.55664,1.78613h3.23633v-1.32617h1.66309v1.32617h3.50098v1.30957h-3.50098v1.57324h5.94141v1.3623h-13.31641v-1.3623h5.71191v-1.57324h-3.37793v-1.16797c-.88379.7959-1.90918,1.46777-2.91797,1.94531-.22949-.38867-.70703-.97266-1.06055-1.25488,1.39648-.53125,2.81152-1.52148,3.81934-2.61816h-3.64258v-1.36133h3.43066v-5.46484h-2.56445v-1.34375h2.56445v-1.53906h1.64453v1.53906h6.01367v-1.52148h1.67969v1.52148h2.5293v1.34375h-2.5293v5.46484h3.32422v1.36133h-3.53613ZM491.9321,226.25178v.99023h6.01367v-.99023h-6.01367ZM491.9321,229.45295h6.01367v-1.00781h-6.01367v1.00781ZM491.9321,231.71662h6.01367v-1.06152h-6.01367v1.06152Z"/><path d="M514.43796,228.58674c1.43262,2.84668,3.83789,5.46387,6.49023,6.80859-.38867.33594-.97266,1.00781-1.2373,1.4502-2.5293-1.43262-4.7041-3.92676-6.26074-6.79102v4.72168h3.16602v1.66211h-3.16602v3.13086h-1.7334v-3.13086h-3.23633v-1.66211h3.23633v-4.7041c-1.55566,2.86523-3.74902,5.34082-6.22461,6.82617-.26562-.40625-.81348-1.02539-1.16699-1.36133,2.56348-1.3623,4.95117-4.06836,6.40137-6.9502h-5.7832v-1.66309h6.77344v-3.57227h1.7334v3.57227h6.84375v1.66309h-5.83594Z"/><path d="M528.87936,227.57795h-6.75586v-1.30859h6.75586v1.30859ZM528.24265,238.61408h-3.9082v.74219h-1.41504v-5.94238h5.32324v5.2002ZM528.26022,229.68244c1.60938-1.07812,1.85742-2.47559,1.85742-3.69531v-2.10449h5.67676v4.15527c0,.40723.03516.47754.2832.47754h.68945c.26562,0,.33594-.22949.37109-1.85645.31836.26465.9375.5127,1.34473.60059-.10645,2.10449-.51367,2.65332-1.53906,2.65332h-1.13184c-1.2207,0-1.5918-.40723-1.5918-1.85742v-2.70508h-2.54688v.6543c0,1.59082-.37109,3.51855-2.22754,4.75684-.23047-.2832-.83105-.83105-1.18555-1.04297v.22949h-5.30469v-1.27344h5.30469v1.00781ZM522.95554,231.02717h5.30469v1.29102h-5.30469v-1.29102ZM528.20749,225.22639h-5.18164v-1.29102h5.18164v1.29102ZM524.33444,234.74104v2.5459h2.47559v-2.5459h-2.47559ZM537.51022,231.25666c-.58398,2.15723-1.57422,3.85547-2.86523,5.16406,1.11426.77832,2.40527,1.36133,3.87305,1.7334-.35352.31836-.83105.99023-1.06152,1.41504-1.53809-.45996-2.90039-1.15039-4.0498-2.06934-1.25586.9375-2.6875,1.60938-4.26172,2.06934-.15918-.40723-.56641-1.09668-.88477-1.4502,1.43262-.35449,2.75879-.9375,3.92676-1.7334-.9375-1.00781-1.71582-2.17578-2.2998-3.50195l1.46777-.45996c.47754,1.09668,1.16797,2.10449,2.03418,2.9541.86621-.83203,1.55664-1.82227,2.03418-2.97168h-6.33203v-1.50293h7.05664l.30078-.05273,1.06152.40625Z"/><path d="M546.85788,227.57795h-7.05664v-1.30859h7.05664v1.30859ZM546.13327,238.61408h-4.08594v.74219h-1.4502v-5.94238h5.53613v5.2002ZM540.63327,228.67463h5.55273v1.27344h-5.55273v-1.27344ZM540.63327,231.02717h5.55273v1.29102h-5.55273v-1.29102ZM546.20358,225.22639h-5.46484v-1.29102h5.46484v1.29102ZM542.04733,234.74104v2.5459h2.61719v-2.5459h-2.61719ZM556.23093,230.92072h-3.82031v8.64844h-1.66211v-8.64844h-3.94336v-1.62695h3.94336v-5.88867h1.66211v5.88867h3.82031v1.62695Z"/><path d="M519.14792,317.23029h-6.75586v-1.30859h6.75586v1.30859ZM518.5112,328.26643h-3.9082v.74219h-1.41504v-5.94238h5.32324v5.2002ZM513.22409,318.32697h5.30469v1.27344h-5.30469v-1.27344ZM513.22409,320.67951h5.30469v1.29102h-5.30469v-1.29102ZM518.47604,314.87873h-5.18164v-1.29102h5.18164v1.29102ZM514.603,324.39338v2.5459h2.47559v-2.5459h-2.47559ZM528.69772,325.0301h-4.03223v4.19141h-1.60938v-4.19141h-4.10254v-1.50391h4.10254v-2.19238h-3.2002v-1.48535h3.2002v-2.03418h-3.53711v-1.48535h1.83984c-.23047-.81348-.68945-1.91016-1.18457-2.75879l1.32617-.47754c.56543.91895,1.13184,2.12207,1.32617,2.93555l-.74316.30078h3.55469l-.74219-.26562c.42383-.83105,1.00781-2.15723,1.27344-3.09473l1.62695.47754c-.51367,1.00781-1.04395,2.10449-1.50391,2.88281h2.14062v1.48535h-3.76758v2.03418h3.37793v1.48535h-3.37793v2.19238h4.03223v1.50391Z"/><path d="M532.29831,323.34944c-.21191,1.66211-.60156,3.37793-1.14941,4.49219-.2832-.17676-.91992-.47754-1.25586-.60156.53125-1.06055.84961-2.63477,1.00879-4.1377l1.39648.24707ZM545.79245,314.36604v14.4834h-1.53906v-.7959h-5.39355v.9375h-1.48535v-6.71973l-1.2207.58301c-.08887-.35352-.22949-.77832-.40723-1.2373l-1.36133.14062v7.44531h-1.46777v-7.30371c-.99023.10645-1.92773.19434-2.74121.26562l-.21191-1.46777c.40625-.01758.88379-.05371,1.39648-.08887.30078-.37109.60156-.77832.91992-1.21973-.53027-.77832-1.4502-1.76855-2.24609-2.51172l.7959-1.09668c.15918.1416.31836.2832.49512.44238.54883-1.00781,1.13184-2.28125,1.46777-3.23633l1.46777.56641c-.63672,1.20215-1.37891,2.58203-2.01562,3.57227.33594.35352.63672.70703.86621,1.02539.70801-1.06055,1.3623-2.1748,1.82129-3.09473l1.37988.6543c-.97266,1.52051-2.24609,3.34277-3.39551,4.79297l2.24609-.15918c-.23047-.4248-.45996-.83203-.68945-1.2207l1.21973-.53027c.67188,1.04297,1.3623,2.36914,1.68066,3.3418v-7.56836h8.41797ZM536.02975,323.03108c.47754,1.0791.95508,2.47656,1.14941,3.37793l-1.30859.47754c-.15918-.9375-.6543-2.35156-1.09668-3.44824l1.25586-.40723ZM538.85983,315.90412v4.49219h1.91016v-4.49219h-1.91016ZM538.85983,326.53303h1.91016v-4.63379h-1.91016v4.63379ZM544.25339,315.90412h-2.0332v4.49219h2.0332v-4.49219ZM544.25339,326.53303v-4.63379h-2.0332v4.63379h2.0332Z"/><path d="M554.50339,317.23029h-6.75586v-1.30859h6.75586v1.30859ZM553.86667,328.26643h-3.9082v.74219h-1.41504v-5.94238h5.32324v5.2002ZM553.88425,319.33479c1.60938-1.07812,1.85742-2.47559,1.85742-3.69531v-2.10449h5.67676v4.15527c0,.40723.03516.47754.2832.47754h.68945c.26562,0,.33594-.22949.37109-1.85645.31836.26465.9375.5127,1.34473.60059-.10645,2.10449-.51367,2.65332-1.53906,2.65332h-1.13184c-1.2207,0-1.5918-.40723-1.5918-1.85742v-2.70508h-2.54688v.6543c0,1.59082-.37109,3.51855-2.22754,4.75684-.23047-.2832-.83105-.83105-1.18555-1.04297v.22949h-5.30469v-1.27344h5.30469v1.00781ZM548.57956,320.67951h5.30469v1.29102h-5.30469v-1.29102ZM553.83151,314.87873h-5.18164v-1.29102h5.18164v1.29102ZM549.95847,324.39338v2.5459h2.47559v-2.5459h-2.47559ZM563.13425,320.90901c-.58398,2.15723-1.57422,3.85547-2.86523,5.16406,1.11426.77832,2.40527,1.36133,3.87305,1.7334-.35352.31836-.83105.99023-1.06152,1.41504-1.53809-.45996-2.90039-1.15039-4.0498-2.06934-1.25586.9375-2.6875,1.60938-4.26172,2.06934-.15918-.40723-.56641-1.09668-.88477-1.4502,1.43262-.35449,2.75879-.9375,3.92676-1.7334-.9375-1.00781-1.71582-2.17578-2.2998-3.50195l1.46777-.45996c.47754,1.09668,1.16797,2.10449,2.03418,2.9541.86621-.83203,1.55664-1.82227,2.03418-2.97168h-6.33203v-1.50293h7.05664l.30078-.05273,1.06152.40625Z"/><path d="M572.4819,317.23029h-7.05664v-1.30859h7.05664v1.30859ZM571.75729,328.26643h-4.08594v.74219h-1.4502v-5.94238h5.53613v5.2002ZM566.25729,318.32697h5.55273v1.27344h-5.55273v-1.27344ZM566.25729,320.67951h5.55273v1.29102h-5.55273v-1.29102ZM571.82761,314.87873h-5.46484v-1.29102h5.46484v1.29102ZM567.67136,324.39338v2.5459h2.61719v-2.5459h-2.61719ZM581.85495,320.57307h-3.82031v8.64844h-1.66211v-8.64844h-3.94336v-1.62695h3.94336v-5.88867h1.66211v5.88867h3.82031v1.62695Z"/><path class="cls-10" d="M533.1196,419.02326c0-.24805.01758-.58398.01758-.95508h-8.38281c-.72559,0-1.60938.03516-2.12207.07031v-1.99805c.5127.03516,1.29102.08789,2.05078.08789h8.47168v-7.88672h-8.25879c-.69043,0-1.5918.03516-2.05176.05273v-1.94531c.61914.05273,1.46777.10645,2.05176.10645h8.78906c.47754,0,1.09668-.01855,1.41504-.03613-.01758.38965-.03516,1.02637-.03516,1.48633v9.14258c0,.61914.03516,1.48535.07031,1.875h-2.01562Z"/><path class="cls-10" d="M539.33737,410.86994c.56543.05371,1.66211.10645,2.61719.10645h9.60254c.86719,0,1.55664-.07129,1.98145-.10645v2.17578c-.38965-.01758-1.18555-.07129-1.96387-.07129h-9.62012c-.99023,0-2.03418.03516-2.61719.07129v-2.17578Z"/><path class="cls-10" d="M569.85397,410.21565c.37109,0,1.04395-.01758,1.48535-.08789v1.82129c-.40625-.01758-1.02539-.03516-1.48535-.03516h-4.54492c-.07031,1.87402-.4248,3.43066-1.09668,4.7041-.63672,1.20215-1.98047,2.51074-3.50098,3.30664l-1.64551-1.20215c1.30957-.53125,2.58203-1.55664,3.27246-2.63574.75977-1.18457,1.00781-2.59961,1.06055-4.17285h-5.11035c-.53125,0-1.11426.01758-1.60938.05273v-1.83887c.5127.05273,1.06055.08789,1.60938.08789h11.56543ZM560.4985,407.40412c-.60059,0-1.25586.03516-1.73242.07031v-1.82129c.53027.07031,1.14941.10645,1.71484.10645h5.97754c.54883,0,1.2207-.03613,1.76855-.10645v1.82129c-.56543-.03516-1.20215-.07031-1.76855-.07031h-5.95996ZM569.4653,407.22737c-.35352-.70801-.91992-1.76855-1.39746-2.44043l1.13184-.47754c.44238.63672,1.0791,1.73242,1.43262,2.42285l-1.16699.49512ZM571.19772,403.56623c.47754.6543,1.15039,1.75098,1.46875,2.40527l-1.15039.49512c-.37109-.76074-.95508-1.76855-1.4502-2.42285l1.13184-.47754Z"/><path class="cls-10" d="M587.05417,409.20783c-.83105.91992-2.40527,2.1748-3.99707,3.20117v6.10059c0,.56641.01855,1.39746.08887,1.69824h-2.05176c.03613-.30078.08887-1.13184.08887-1.69824v-5.02246c-1.52148.77832-3.58984,1.64551-5.32324,2.10449l-.9375-1.62695c2.26367-.47754,4.73926-1.55566,6.18945-2.40527,1.76855-1.02539,3.66113-2.51074,4.5459-3.64258l1.39648,1.29102Z"/><path class="cls-10" d="M599.8862,414.93733c2.84766-1.75,5.05762-4.40332,6.13672-6.66699l1.0791,1.92773c-1.27344,2.28125-3.44922,4.7041-6.20801,6.40234-1.78613,1.0957-4.03223,2.13965-6.77246,2.63477l-1.18555-1.82129c2.95312-.44238,5.25293-1.43262,6.9502-2.47656ZM599.28464,409.27815l-1.39648,1.43262c-.91992-.9375-3.1123-2.84668-4.4209-3.74902l1.29004-1.37891c1.25586.83105,3.53711,2.66992,4.52734,3.69531Z"/><path class="cls-10" d="M620.53561,407.43928c.49512,0,.99023-.05273,1.32617-.17676l1.4502.88379c-.17676.2832-.37207.72559-.49512,1.0791-.47754,1.69824-1.52148,4.06738-3.11328,6.0127-1.62695,1.99902-3.7666,3.62598-7.07324,4.88086l-1.64453-1.46777c3.41309-1.00781,5.51758-2.58203,7.09082-4.40332,1.30859-1.52051,2.37012-3.73145,2.68848-5.2168h-5.53516c-1.11426,1.52051-2.63574,3.07715-4.47461,4.31543l-1.55664-1.15039c3.07715-1.85645,4.72266-4.29688,5.55371-5.85352.21191-.37109.5127-1.07812.6543-1.5918l2.05176.67285c-.35449.53027-.72559,1.20215-.91992,1.55566-.08887.15918-.15918.30078-.26562.45996h4.2627ZM621.94968,404.46858c.44238.63672,1.0791,1.73242,1.43262,2.42285l-1.16699.49512c-.35352-.70801-.91992-1.76855-1.39746-2.44043l1.13184-.47754ZM623.9487,403.70783c.47754.6543,1.14941,1.76855,1.46777,2.40527l-1.14941.5127c-.37207-.76074-.95508-1.76855-1.4502-2.44043l1.13184-.47754Z"/><path d="M904.19186,50.32795c-.84863,1.80371-2.1748,3.20117-3.7666,4.29785,1.80371.72461,3.89062,1.21974,6.22559,1.46777-.35449.37109-.77832,1.07812-1.00879,1.55566-2.61719-.37109-4.93359-1.04297-6.89648-2.05078-2.06934,1.02539-4.47461,1.66211-6.98633,2.06836-.15918-.42383-.60059-1.13184-.9541-1.48535,2.33398-.2832,4.49121-.77832,6.34863-1.55566-1.29102-.88477-2.37012-1.98145-3.21875-3.25488l.31836-.14062h-.76074v-1.52148h9.28516l.2998-.05273,1.11426.67188ZM892.73288,50.22151h-1.53906v-3.66016h2.66992c-.21191-.61914-.61816-1.46777-1.00781-2.10449l1.43262-.40723c.47754.67188.9375,1.60938,1.13184,2.21094l-.95508.30078h3.82031c-.08887-.6543-.4248-1.69824-.7959-2.49414l1.46777-.31836c.38867.77832.77832,1.78613.88379,2.44043l-1.48535.37207h3.51953c.5127-.83105,1.0791-1.98145,1.41504-2.84766l1.71484.45996c-.45898.7959-.97266,1.67969-1.46777,2.3877h2.77734v3.66016h-1.60938v-2.20996h-11.97266v2.20996ZM905.48288,42.77619c-3.71387.74316-9.16016,1.16699-13.75879,1.32617-.01758-.40625-.19434-1.04297-.35352-1.39648,4.54492-.17676,9.88574-.61914,12.96289-1.27344l1.14941,1.34375ZM895.686,51.23029c.77832,1.02539,1.82129,1.8916,3.09473,2.59961,1.20215-.69043,2.19238-1.53906,2.93555-2.59961h-6.03027Z"/><path d="M912.33737,42.77619c-.12305.37207-.26465.91992-.35352,1.27344-.49512,2.26367-1.09668,6.0127-.53027,8.57715.24707-.6543.58398-1.60938.88379-2.3877l.91992.58398c-.45996,1.34375-.97266,3.1123-1.16699,4.0498-.05273.24805-.10645.60156-.08887.7959,0,.17677.03613.44238.03613.6543l-1.52148.17676c-.37109-1.0791-.95508-3.43066-.95508-5.60645,0-2.86426.40723-5.55273.61914-7.00293.07129-.44238.08887-.95508.10645-1.30859l2.05078.19434ZM923.81491,47.51643c-.75977.10547-1.69727.19434-2.72266.26465v.6543c0,4.06738-.1416,6.79102-3.75,9.00195l-1.62695-1.27344c.60156-.26562,1.39746-.74316,1.85742-1.23828,1.64453-1.52051,1.82129-3.30664,1.82129-6.50781v-.54785c-.70703.01758-1.41504.03516-2.10449.03516-.81348,0-1.96289-.05273-2.77637-.10645v-1.76855c.81348.12402,1.80371.17676,2.74121.17676.67188,0,1.39648-.01758,2.10449-.03516-.01758-1.06055-.05273-2.10449-.08887-2.56445-.03516-.37109-.10547-.81348-.17676-1.0957h2.03418c-.05371.33594-.05371.70703-.07129,1.0957-.01758.38965,0,1.41504.01758,2.45898,1.00879-.08887,1.96387-.21289,2.74121-.37207v1.82227Z"/><path d="M935.17917,42.5467c0,3.20117.40723,9.76172,7.14551,13.74121-.37207.2832-1.04395.99023-1.32715,1.39648-4.01367-2.42285-5.90625-6.03027-6.77344-9.28418-1.30859,4.26172-3.51855,7.35742-6.79102,9.32032-.31836-.33595-1.07812-1.02638-1.52051-1.32716,3.80273-1.96289,5.94238-5.44629,6.96777-10.23926l.90234.15918c-.12402-.74219-.19434-1.46776-.23047-2.10449h-4.20898v-1.66211h5.83594Z"/><path d="M960.0903,55.12092c-.88379.86621-1.96289,1.39648-3.25391,1.39648-1.2207,0-2.06934-.84863-2.06934-2.40527,0-1.92773.6543-4.66895.6543-6.33105,0-.9375-.47754-1.36133-1.30859-1.36133-1.36133,0-3.37793,1.64453-4.89844,3.28906-.03516.61914-.05371,1.2207-.05371,1.76855,0,1.52051-.01758,2.77637.07129,4.36817.01758.31835.07031.83105.10645,1.18456h-1.91016c.01758-.2998.05273-.86621.05273-1.14941.01758-1.62695.03516-2.63477.07129-4.58008-.81348,1.20215-1.83984,2.72363-2.58203,3.73145l-1.09668-1.53809c.97266-1.2207,2.88281-3.75,3.81934-5.16406.03613-.49512.07129-1.00879.10645-1.50391-.81348.10645-2.26367.30078-3.32422.44238l-.17773-1.80371c.44238.01758.81348,0,1.30957-.01758.54785-.03516,1.46777-.1416,2.29883-.26562.05273-.76074.08789-1.32617.08789-1.52051,0-.44238,0-.9375-.08789-1.41504l2.06934.07031c-.08887.44238-.23047,1.37988-.35449,2.51172l.61914.74316c-.22949.31738-.54785.81348-.83105,1.25488-.01758.24805-.03516.47754-.05273.72559,1.36133-1.23828,3.50098-2.77637,5.2168-2.77637,1.75098,0,2.59961,1.00781,2.59961,2.45801,0,1.76855-.61914,4.59766-.61914,6.38379,0,.54883.24805.9375.7959.9375.77832,0,1.68066-.5127,2.47559-1.36133l.26562,1.92773Z"/><path d="M964.36276,43.43049c.81348,1.18555,2.37012,3.89062,3.00684,5.07617l-1.82129,1.02539c-.67285-1.43262-2.06934-3.96094-2.9541-5.19922l1.76855-.90234ZM971.29538,50.59358c1.32617-1.96387,1.85742-4.01465,2.15723-5.58887.12402-.60156.17676-1.36133.17676-1.7334l2.22852.30078c-.15918.56641-.33594,1.29102-.42383,1.68066-.4248,2.10449-1.13184,4.2793-2.42285,6.27734-1.39746,2.12305-3.37793,4.08594-6.22559,5.44727l-1.66211-1.43262c2.91797-1.18457,4.86328-3.04199,6.17188-4.95117Z"/><path d="M993.72995,44.59846c-.14062.28223-.22949.67188-.31738,1.02539-.38965,1.80371-1.20312,4.61523-2.63574,6.49023-1.60938,2.08691-3.81934,3.78418-7.03809,4.79297l-1.50391-1.66309c3.44922-.84863,5.44727-2.35156,6.89746-4.20898,1.2207-1.53809,1.98047-3.80176,2.21094-5.42871h-8.68359c-.76074,0-1.46777.03516-1.91016.07031v-1.98047c.49512.07031,1.32617.1416,1.91016.1416h8.57715c.30078,0,.74316-.01758,1.13184-.12402l1.36133.88477Z"/><path d="M1010.32956,52.02522c-1.875-1.00781-4.73926-2.12207-6.68555-2.75879v5.46484c0,.54883.05371,1.62695.1416,2.26367h-2.1748c.08789-.61914.1416-1.57422.1416-2.26367v-10.22168c0-.56641-.05371-1.37988-.15918-1.98047h2.1748c-.05273.58301-.12402,1.36133-.12402,1.98047v2.75879c2.33496.70703,5.71289,1.96289,7.48145,2.83008l-.7959,1.92676Z"/><path d="M868.1069,141.19709l-1.02539,1.57422c-.9375-.67285-2.8125-1.875-3.94434-2.47656l1.00879-1.52051c1.11426.60156,3.12988,1.83887,3.96094,2.42285ZM869.89304,145.35334c2.95312-1.68066,5.34082-4.0498,6.77344-6.56152l1.06152,1.875c-1.57422,2.4043-4.03223,4.66797-6.89746,6.33105-1.78613,1.04297-4.26172,1.8916-5.87109,2.19238l-1.04395-1.82129c1.96289-.33594,4.12109-.99023,5.97754-2.01562ZM870.76022,137.28889l-1.04395,1.52051c-.90137-.6543-2.79395-1.91016-3.89062-2.5293l1.00781-1.52051c1.09668.61914,3.09473,1.92773,3.92676,2.5293Z"/><path d="M893.54831,136.63459c-.12402.17676-.38867.61816-.5127.91895-.61914,1.4502-1.66211,3.44922-2.90039,5.04004,1.82129,1.55664,3.96191,3.83789,5.05762,5.18262l-1.57324,1.37891c-1.15039-1.5918-2.91797-3.53711-4.66895-5.16406-1.89258,2.0166-4.2627,3.9082-6.80859,5.07617l-1.43262-1.48633c2.86426-1.0957,5.51758-3.21875,7.26855-5.18164,1.20215-1.34375,2.38672-3.28906,2.81152-4.66895h-6.49023c-.68945,0-1.64453.08887-1.92773.10645v-1.99805c.35352.05273,1.37988.12305,1.92773.12305h6.56152c.6543,0,1.2373-.07031,1.53809-.17676l1.14941.84961Z"/><path d="M911.59714,139.81721c.37207,0,1.04395-.03516,1.48633-.08789v1.82129c-.40723-.03516-1.02637-.05273-1.48633-.05273h-4.54492c-.07031,1.87402-.42383,3.43066-1.0957,4.72168-.63672,1.18457-1.98145,2.51074-3.51953,3.28906l-1.62695-1.20215c1.30859-.53027,2.56445-1.53906,3.27148-2.63477.76074-1.18555.99023-2.58203,1.06152-4.17383h-5.11133c-.53027,0-1.11426.01758-1.60938.05273v-1.82129c.49512.05273,1.06152.08789,1.60938.08789h11.56543ZM902.24265,137.00569c-.58398,0-1.23828.01758-1.7334.05273v-1.82129c.53027.07031,1.14941.12402,1.7334.12402h7.12695c.54785,0,1.20215-.03516,1.76855-.12402v1.82129c-.56641-.03516-1.2207-.05273-1.76855-.05273h-7.12695Z"/><path d="M929.27487,149.22639c-.22949-.61914-.54785-1.39746-.91895-2.21094-2.8125.33594-8.47168.95508-10.77051,1.16699-.44238.05273-1.02539.1416-1.55566.21191l-.31836-2.05078c.54785,0,1.2373,0,1.76758-.03613.21289-.01758.45996-.01758.72559-.03516.99023-2.52832,2.66992-7.79883,3.16602-9.60254.24707-.84863.31836-1.32617.38867-1.83984l2.21094.45996c-.19531.47754-.4248,1.00879-.67285,1.78613-.53027,1.68066-2.13965,6.68555-3.02344,9.01954,2.40527-.21192,5.39355-.54786,7.28613-.7959-.67188-1.34375-1.39746-2.63477-2.0166-3.44824l1.71582-.74316c1.23828,1.85742,3.12988,5.37695,3.89062,7.26855l-1.875.84961Z"/><path d="M935.91745,135.60822c.81348,1.18555,2.37012,3.89062,3.00684,5.07617l-1.82129,1.02539c-.67285-1.43262-2.06934-3.96094-2.9541-5.19922l1.76855-.90234ZM942.85007,142.77131c1.32617-1.96387,1.85742-4.01465,2.15723-5.58887.12402-.60156.17676-1.36133.17676-1.7334l2.22852.30078c-.15918.56641-.33594,1.29102-.42383,1.68066-.4248,2.10449-1.13184,4.2793-2.42285,6.27734-1.39746,2.12305-3.37793,4.08594-6.22559,5.44727l-1.66211-1.43262c2.91797-1.18457,4.86328-3.04199,6.17188-4.95117Z"/><path d="M965.28464,136.77619c-.14062.28223-.22949.67188-.31738,1.02539-.38965,1.80371-1.20312,4.61523-2.63574,6.49023-1.60938,2.08691-3.81934,3.78418-7.03809,4.79297l-1.50391-1.66309c3.44922-.84863,5.44727-2.35156,6.89746-4.20898,1.2207-1.53809,1.98047-3.80176,2.21094-5.42871h-8.68359c-.76074,0-1.46777.03516-1.91016.07031v-1.98047c.49512.07031,1.32617.1416,1.91016.1416h8.57715c.30078,0,.74316-.01758,1.13184-.12402l1.36133.88477Z"/><path d="M981.88425,144.20295c-1.875-1.00781-4.73926-2.12207-6.68555-2.75879v5.46484c0,.54883.05371,1.62695.1416,2.26367h-2.1748c.08789-.61914.1416-1.57422.1416-2.26367v-10.22168c0-.56641-.05371-1.37988-.15918-1.98047h2.1748c-.05273.58301-.12402,1.36133-.12402,1.98047v2.75879c2.33496.70703,5.71289,1.96289,7.48145,2.83008l-.7959,1.92676Z"/><path d="M856.34225,233.67951c-.23047,1.66211-.60156,3.37793-1.15039,4.49219-.24707-.17676-.88379-.45996-1.20215-.58398.53027-1.06055.83105-2.63477.99023-4.1377l1.3623.22949ZM858.37546,232.15901v7.3916h-1.4502v-7.25c-.9375.08789-1.83887.15918-2.59961.22949l-.21191-1.4502c.35352-.01758.75977-.03516,1.20215-.07031.31836-.38965.6543-.84961.97266-1.32715-.49512-.7959-1.36133-1.75-2.10449-2.49316l.83105-1.09668c.15918.1416.31836.30078.47754.45996.54883-.99023,1.13184-2.26367,1.4502-3.21875l1.43262.54883c-.61914,1.20215-1.36133,2.59961-1.99805,3.58984.28223.31836.54785.63672.75977.9375.67285-1.04395,1.29102-2.10547,1.75098-3.00684l1.34473.61914c-.99121,1.55566-2.24609,3.43066-3.41406,4.89844l2.19336-.15918c-.22949-.44238-.49512-.88379-.74316-1.29101l1.16797-.5127c.74219,1.14941,1.53809,2.66992,1.80371,3.66113l-1.23828.58301c-.08789-.33594-.22949-.74219-.40625-1.16699l-1.2207.12402ZM859.9321,233.39631c.44141,1.00879.88379,2.35254,1.07812,3.21875.23047-.67188.38965-1.39648.49512-2.08691l1.32715.24805c-.19531,1.41504-.6543,3.04199-1.37988,4.06738l-1.27344-.58398c.31836-.42383.60156-.99023.81348-1.62695l-1.25586.44238c-.1582-.90137-.58301-2.24609-1.00781-3.28906l1.20312-.38965ZM864.58249,223.97053c-.63574,1.76855-1.76758,3.43066-2.91797,4.50976-.2998-.2832-.93652-.76074-1.32617-.99023,1.18555-.9375,2.17578-2.37012,2.68848-3.89062l1.55566.3711ZM865.94479,226.7469c-.45996,1.06152-.99023,2.29883-1.48535,3.3252l2.74121-.15918c-.30078-.44238-.63672-.88477-.9375-1.27344l1.25586-.63672c.95508,1.14941,2.0332,2.70605,2.47559,3.74902l-1.32617.72559c-.15918-.35449-.38965-.81348-.6543-1.27344-2.37012.19434-4.75781.38867-6.56152.5127l-.2832-1.48535,1.78613-.08887c.51367-1.14941,1.04395-2.6875,1.34473-3.80176l1.64453.40625ZM866.40475,238.1717c.37109,0,.45996-.21191.49512-1.76855.2832.24707.9375.47754,1.34375.58398-.15918,2.06836-.54785,2.58203-1.64453,2.58203h-1.5918c-1.41504,0-1.7334-.44238-1.7334-1.89258v-3.55469h1.50391v3.55469c0,.44238.07031.49512.45996.49512h1.16699ZM864.40573,231.75178c1.11426.53027,2.35254,1.43262,2.9541,2.1582l-1.0791,1.00781c-.58398-.76074-1.80371-1.71582-2.90039-2.26367l1.02539-.90234ZM867.57175,223.54572c.68945,1.25586,2.03418,2.70605,3.1123,3.50195-.35352.24805-.88379.81348-1.13184,1.16699-1.11426-.93652-2.51074-2.66992-3.32422-4.10254l1.34375-.56641ZM868.61472,234.24592c.95508,1.2373,1.82227,2.84668,2.05176,3.99609l-1.34375.69043c-.23047-1.11426-1.06152-2.8125-1.96289-4.0498l1.25488-.63672Z"/><path d="M880.73972,223.38654c1.89258,2.63574,4.88086,4.96973,7.65723,6.17285-.40625.40625-.79492.97266-1.07812,1.46777-.9375-.49512-1.92773-1.09668-2.86523-1.78613v1.25488h-8.80664v-1.20215c-.90234.67188-1.875,1.27344-2.84766,1.80371-.19434-.38867-.67188-.97266-1.00781-1.30859,3.02344-1.53809,5.92383-4.19141,7.26855-6.40234h1.67969ZM874.63815,232.49494h10.89453v7.10938h-1.68066v-.69043h-7.60449v.69043h-1.60938v-7.10938ZM884.1528,229.02815c-1.66211-1.2373-3.18359-2.66992-4.17383-4.03223-.90137,1.30859-2.31641,2.75879-3.97852,4.03223h8.15234ZM876.24753,233.98029v3.46582h7.60449v-3.46582h-7.60449Z"/><path d="M903.65183,229.47053c.37207,0,1.04395-.03516,1.48633-.0879v1.82129c-.40723-.03516-1.02637-.05371-1.48633-.05371h-4.54492c-.07031,1.875-.42383,3.43164-1.0957,4.72266-.63672,1.18457-1.98145,2.51074-3.51953,3.28906l-1.62695-1.20215c1.30859-.53125,2.56445-1.53906,3.27148-2.63574.76074-1.18457.99023-2.58203,1.06152-4.17383h-5.11133c-.53027,0-1.11426.01855-1.60938.05371v-1.82129c.49512.05273,1.06152.0879,1.60938.0879h11.56543ZM894.29733,226.65901c-.58398,0-1.23828.01758-1.7334.05273v-1.82129c.53027.07031,1.14941.12402,1.7334.12402h7.12695c.54785,0,1.20215-.03613,1.76855-.12402v1.82129c-.56641-.03516-1.2207-.05273-1.76855-.05273h-7.12695Z"/><path d="M920.95847,226.28694c-.12402.17676-.38867.61914-.5127.91992-.61914,1.4502-1.66211,3.44824-2.90039,5.04004,1.82129,1.55664,3.96191,3.83789,5.05762,5.18164l-1.57324,1.37988c-1.15039-1.5918-2.91797-3.53711-4.66895-5.16406-1.89258,2.01562-4.2627,3.9082-6.80859,5.0752l-1.43262-1.48535c2.86426-1.09668,5.51758-3.21875,7.26855-5.18164,1.20215-1.34375,2.38672-3.28906,2.81152-4.66895h-6.49023c-.68945,0-1.64453.08887-1.92773.10645v-1.99902c.35352.05371,1.37988.12402,1.92773.12402h6.56152c.6543,0,1.2373-.07031,1.53809-.17676l1.14941.84863Z"/><path d="M938.58347,233.85627c-1.875-1.00781-4.73926-2.12207-6.68555-2.75879v5.46484c0,.54785.05371,1.62695.1416,2.26367h-2.1748c.08789-.61914.1416-1.57422.1416-2.26367v-10.22168c0-.56641-.05371-1.37988-.15918-1.98145h2.1748c-.05273.58398-.12402,1.3623-.12402,1.98145v2.75879c2.33496.70703,5.71289,1.96289,7.48145,2.8291l-.7959,1.92773Z"/><path d="M844.61765,326.21467h-7.09082v3.02441h-1.68066v-3.02441h-6.96777v-1.53906h6.96777v-1.39648h-5.3584v-7.19824h1.55664c-.33594-.68945-.99023-1.60938-1.57422-2.29883l1.43262-.63672c.6543.72559,1.41504,1.76855,1.76855,2.45801l-.99023.47754h3.53711c-.26562-.74219-.83203-1.78613-1.3623-2.56445l1.46777-.56543c.60156.83105,1.23828,1.94531,1.50293,2.66992l-1.13184.45996h2.93652c.63672-.84863,1.37891-2.12207,1.78613-3.07715l1.80371.56641c-.54883.86621-1.16699,1.76855-1.7334,2.51074h1.66211v7.19824h-5.62305v1.39648h7.09082v1.53906ZM835.84616,317.46076h-3.74902v1.55566h3.74902v-1.55566ZM835.84616,321.89924v-1.57324h-3.74902v1.57324h3.74902ZM841.47018,317.46076h-3.94336v1.55566h3.94336v-1.55566ZM841.47018,320.326h-3.94336v1.57324h3.94336v-1.57324Z"/><path d="M851.36667,313.53498c-.38965,1.20215-.91992,2.4043-1.48535,3.57227v12.0957h-1.57422v-9.37305c-.44238.63672-.86621,1.20312-1.30859,1.7334-.15918-.38867-.63672-1.29102-.91992-1.66211,1.52148-1.66211,2.90039-4.24414,3.74902-6.80859l1.53906.44238ZM858.24558,317.9383c1.00879,2.84668,2.74121,5.69434,4.56348,7.23242-.40723.30078-.95508.86719-1.25586,1.30957-1.66211-1.64551-3.18359-4.4043-4.22656-7.28613v5.42871h2.61719v1.48535h-2.61719v3.02441h-1.60938v-3.02441h-2.63574v-1.48535h2.63574v-5.32324c-1.0791,2.90039-2.61719,5.57129-4.35059,7.2334-.24805-.40723-.81348-.97266-1.16699-1.25586,1.87402-1.55566,3.60742-4.43848,4.65039-7.33887h-3.87305v-1.55664h4.74023v-3.28906h1.60938v3.28906h5.05762v1.55664h-4.13867Z"/><path d="M878.0278,319.12287c.37207,0,1.04395-.03516,1.48633-.08789v1.82129c-.40723-.03516-1.02637-.05371-1.48633-.05371h-4.54492c-.07031,1.875-.42383,3.43164-1.0957,4.72266-.63672,1.18457-1.98145,2.51074-3.51953,3.28906l-1.62695-1.20215c1.30859-.53125,2.56445-1.53906,3.27148-2.63574.76074-1.18457.99023-2.58203,1.06152-4.17383h-5.11133c-.53027,0-1.11426.01855-1.60938.05371v-1.82129c.49512.05273,1.06152.08789,1.60938.08789h11.56543ZM868.67331,316.31135c-.58398,0-1.23828.01758-1.7334.05273v-1.82129c.53027.07031,1.14941.12402,1.7334.12402h7.12695c.54785,0,1.20215-.03613,1.76855-.12402v1.82129c-.56641-.03516-1.2207-.05273-1.76855-.05273h-7.12695Z"/><path d="M895.33444,315.93928c-.12402.17676-.38867.61914-.5127.91992-.61914,1.4502-1.66211,3.44824-2.90039,5.04004,1.82129,1.55664,3.96191,3.83789,5.05762,5.18164l-1.57324,1.37988c-1.15039-1.5918-2.91797-3.53711-4.66895-5.16406-1.89258,2.01562-4.2627,3.9082-6.80859,5.0752l-1.43262-1.48535c2.86426-1.09668,5.51758-3.21875,7.26855-5.18164,1.20215-1.34375,2.38672-3.28906,2.81152-4.66895h-6.49023c-.68945,0-1.64453.08887-1.92773.10645v-1.99902c.35352.05371,1.37988.12402,1.92773.12402h6.56152c.6543,0,1.2373-.07031,1.53809-.17676l1.14941.84863Z"/><path d="M912.95944,323.50862c-1.875-1.00781-4.74023-2.12207-6.68555-2.75879v5.46484c0,.54785.05371,1.62695.1416,2.26367h-2.1748c.08789-.61914.1416-1.57422.1416-2.26367v-10.22168c0-.56641-.05371-1.37988-.15918-1.98145h2.1748c-.05273.58398-.12402,1.3623-.12402,1.98145v2.75879c2.33496.70703,5.71289,1.96289,7.48145,2.8291l-.7959,1.92773Z"/><path class="cls-10" d="M798.2905,420.28596c0-.24805.01758-.58398.01758-.95508h-8.38281c-.72559,0-1.60938.03516-2.12207.07031v-1.99805c.5127.03516,1.29102.08789,2.05078.08789h8.47168v-7.88672h-8.25879c-.69043,0-1.5918.03516-2.05176.05273v-1.94531c.61914.05273,1.46777.10645,2.05176.10645h8.78906c.47754,0,1.09668-.01855,1.41504-.03613-.01758.38965-.03516,1.02637-.03516,1.48535v9.14355c0,.61914.03516,1.48535.07031,1.875h-2.01562Z"/><path class="cls-10" d="M804.50827,412.13264c.56543.05371,1.66211.10645,2.61719.10645h9.60254c.86719,0,1.55664-.07129,1.98145-.10645v2.17578c-.38965-.01758-1.18555-.07129-1.96387-.07129h-9.62012c-.99023,0-2.03418.03516-2.61719.07129v-2.17578Z"/><path class="cls-10" d="M827.56198,411.17756c2.33398.69043,5.72949,1.96289,7.48047,2.83008l-.77832,1.91016c-1.87402-.99023-4.75684-2.10449-6.70215-2.74121l.01758,5.46387c0,.54883.05273,1.60938.12402,2.26367h-2.1582c.08887-.61816.1416-1.59082.1416-2.26367v-10.22168c0-.56543-.05273-1.39648-.15918-1.98047h2.17578c-.05273.58398-.1416,1.34375-.1416,1.98047v2.75879ZM832.6196,410.32893c-.45996-1.00781-.95508-1.85645-1.55566-2.70605l1.18457-.5127c.47754.68945,1.2207,1.83984,1.60938,2.6709l-1.23828.54785ZM834.91843,409.39143c-.5127-1.00781-1.00781-1.82129-1.62695-2.65234l1.18555-.54883c.47754.65527,1.2373,1.80469,1.64453,2.61816l-1.20312.58301Z"/><path class="cls-10" d="M841.84421,419.40119c.17676-.35352.19434-.61914.19434-.99023v-9.88574c0-.56641-.07031-1.37988-.15918-1.78613h2.19336c-.08887.54785-.15918,1.18457-.15918,1.76855v9.67383c3.18262-.84961,7.19727-3.14844,9.42578-5.94238l1.00781,1.55566c-2.35156,2.88281-6.0127,5.02344-10.30957,6.34961-.21289.05273-.54883.15918-.88477.37109l-1.30859-1.11426Z"/><path class="cls-10" d="M860.84811,417.38557c0,.84863.37109,1.06055,1.20312,1.2373.53027.08887,1.36133.12402,2.20996.12402,1.85742,0,4.63379-.19434,6.08398-.58301v2.0332c-1.5918.23047-4.24414.35352-6.18945.35352-1.09668,0-2.1582-.05273-2.90039-.17676-1.43262-.26465-2.24609-.97266-2.24609-2.45801v-9.69141c0-.40625-.03516-1.13184-.12402-1.5918h2.06934c-.07129.45996-.10645,1.09668-.10645,1.5918v3.71387c2.08691-.5127,4.73926-1.34375,6.45508-2.06934.58398-.22949,1.13184-.49512,1.71582-.86621l.77832,1.78613c-.58398.22949-1.29102.54785-1.85742.74219-1.89258.76074-4.86328,1.66309-7.0918,2.24609v3.6084ZM869.03659,408.87873c-.37109-.70703-.9375-1.76855-1.41504-2.44043l1.13184-.47754c.44238.63672,1.0791,1.7334,1.43262,2.42285l-1.14941.49512ZM870.76999,405.2176c.45898.65527,1.13184,1.76855,1.44922,2.40527l-1.14941.49512c-.37109-.75977-.93652-1.76855-1.43164-2.42285l1.13184-.47754Z"/><path class="cls-10" d="M887.13815,418.32209c.40723,0,1.13184-.03516,1.53906-.07031v1.80371c-.33594-.01758-1.0791-.03516-1.50293-.03516h-9.53223c-.58398,0-.99023.01758-1.5918.03516v-1.82129c.45996.05273,1.02539.08789,1.5918.08789h6.11914c.24707-1.50293.70703-4.54492.75977-5.53516h-5.25195c-.53125,0-1.09668.03516-1.57422.05371v-1.83984c.44238.05371,1.11426.08887,1.55664.08887h5.02246c.31836,0,.88379-.05371,1.06055-.1416l1.34473.6543c-.05371.19434-.10645.45996-.1416.63672-.1416,1.13184-.63672,4.43848-.88477,6.08301h1.48535Z"/><path class="cls-10" d="M892.89694,412.13264c.56543.05371,1.66211.10645,2.61719.10645h9.60254c.86719,0,1.55664-.07129,1.98145-.10645v2.17578c-.38965-.01758-1.18555-.07129-1.96387-.07129h-9.62012c-.99023,0-2.03418.03516-2.61719.07129v-2.17578Z"/><rect class="cls-1" x="330.27879" y="81.52743" width="7.32009" height="22.72889" transform="translate(426.83071 -241.04696) rotate(90)"/><polygon class="cls-1" points="329.89448 82.14049 326.69194 92.89187 329.89448 103.64326 308.3917 92.89187 329.89448 82.14049"/><path class="cls-1" d="M70.50143,98.56819c-.92871.15918-1.85645.34473-2.75781.50391-.92871,2.75879-2.89062,5.64941-6.78906,7.53223-.37207-.58398-1.19336-1.37891-1.75098-1.85645,2.9707-1.27344,4.69434-3.20898,5.64941-5.17188-2.20117.37207-4.29688.74316-6.02051,1.03418l-.50391-2.43945c1.90918-.26465,4.56152-.63672,7.39941-1.06055.21191-1.03418.29102-1.98926.29102-2.75781v-.37207h-6.36426v-2.28027h6.36426v-3.66016h-6.65625v-2.30664h6.65625v-3.63379h2.4668v12.25293c0,.71582-.05273,1.51172-.18555,2.36035l2.09473-.31836.10645,2.17383ZM82.67429,100.05354h-7.85059v6.23242h-2.46582v-24.18652h2.46582v3.63379h7.37305v2.30664h-7.37305v3.66016h6.78906v2.28027h-6.78906v3.7666h7.85059v2.30664Z"/><path class="cls-1" d="M92.77487,97.90608c-.34473-.84863-1.11426-2.30762-1.80371-3.55371v11.93359h-2.28027v-11.21777c-.7959,2.51953-1.77734,4.85254-2.83789,6.36426-.23828-.66309-.82227-1.59082-1.16699-2.12109,1.56445-2.1748,3.07617-6.09961,3.79297-9.46777h-3.23633v-2.28027h3.44824v-5.5957h2.28027v5.5957h2.83789v2.28027h-2.83789v1.56445c.74316.98145,2.70508,3.97852,3.12988,4.69434l-1.32617,1.80371ZM109.4819,102.06916h-1.56445v1.75c0,1.11426-.23828,1.6709-1.00781,2.04199-.76855.29199-1.96191.31836-3.65918.31836-.10645-.58301-.39844-1.43164-.66309-1.98828,1.11328.05273,2.25391.05273,2.59863.02637.31836,0,.42383-.10645.42383-.4248v-1.72363h-8.2998v4.11035h-2.25488v-4.11035h-1.69727v-1.85645h1.69727v-6.62988h5.19824v-1.2998h-6.44434v-1.8291h3.47363v-1.48535h-2.33301v-1.72363h2.33301v-1.45898h-2.89062v-1.77637h2.89062v-2.04199h2.30762v2.04199h3.63281v-2.04199h2.30762v2.04199h3.15625v1.77637h-3.15625v1.45898h2.75781v1.72363h-2.75781v1.48535h3.68652v1.8291h-6.73633v1.2998h5.43652v6.62988h1.56445v1.85645ZM97.31003,95.36018v1.51074h2.94336v-1.51074h-2.94336ZM97.31003,100.21272h2.94336v-1.64453h-2.94336v1.64453ZM99.5903,87.24494h3.63281v-1.45898h-3.63281v1.45898ZM99.5903,90.45393h3.63281v-1.48535h-3.63281v1.48535ZM102.48093,95.36018v1.51074h3.12891v-1.51074h-3.12891ZM105.60983,100.21272v-1.64453h-3.12891v1.64453h3.12891Z"/><path class="cls-1" d="M117.51413,100.63752c1.16699,1.8291,3.3418,2.67773,6.25879,2.78418,2.94434.10645,8.83105.02637,12.14648-.18555-.29199.58301-.68945,1.75-.82227,2.51953-2.99707.13281-8.32715.18555-11.35059.05273-3.36816-.13281-5.64844-1.00781-7.31934-3.0498-1.24609,1.08789-2.51953,2.14844-3.89844,3.28906l-1.27344-2.5459c1.19434-.74316,2.59961-1.72461,3.8457-2.73242v-6.23145h-3.39453v-2.28125h5.80762v8.38086ZM116.2944,88.25276c-.84863-1.24707-2.75781-3.02344-4.42871-4.19043l1.83008-1.48535c1.64453,1.14062,3.63281,2.78516,4.53516,4.05762l-1.93652,1.61816ZM122.10202,87.24494c-.58301.9541-1.24609,1.83008-1.88281,2.5459-.47754-.37109-1.51172-.92871-2.09473-1.19336,1.64453-1.53809,3.02344-3.9248,3.79199-6.31152l2.30762.50293c-.26562.7959-.61035,1.5918-.95508,2.33398h2.5459v-3.15527h2.44043v3.15527h6.07227v2.12207h-6.07227v2.86426h7.18652v2.09473h-16.91992v-2.09473h7.29297v-2.86426h-3.71289ZM120.77683,101.53889v-7.53125h12.91504v7.53125h-12.91504ZM123.18991,99.52326h7.92969v-3.52734h-7.92969v3.52734Z"/><path class="cls-1" d="M147.29343,83.16096c-.7959,1.85645-1.75098,3.68555-2.86426,5.43652v17.66211h-2.4668v-14.18848c-.98145,1.24707-2.04199,2.38672-3.07617,3.3418-.26562-.63672-1.03418-1.96289-1.48535-2.57227,2.94434-2.4668,5.78125-6.41797,7.47852-10.47559l2.41406.7959ZM158.37839,103.63362c1.37891,0,1.56445-.92773,1.77637-4.7207.61035.45117,1.61816.90234,2.30762,1.06152-.31836,4.40234-1.03418,5.9668-3.9248,5.9668h-5.0127c-2.99609,0-3.87207-.90137-3.87207-4.11035v-19.22754h2.4668v9.49414c2.75781-1.53809,5.54297-3.44727,7.37207-5.11816l1.77734,2.14844c-2.51953,1.93555-5.9668,3.84473-9.14941,5.48926v7.24023c0,1.51172.26562,1.77637,1.64453,1.77637h4.61426Z"/><path class="cls-1" d="M167.12643,89.33967c-.53027.61035-1.14062,1.24609-1.77637,1.83008-.29199-.55664-.98145-1.45898-1.40625-1.83008,2.49316-2.1748,4.2168-5.06543,5.0918-7.37207h2.04199c1.77734,1.48438,3.97852,3.60645,5.0127,5.11816l-1.56445,2.12109c-.84863-1.27246-2.51953-3.34082-4.08398-4.74707-.7168,1.32617-1.64453,2.83789-2.86426,4.32324h6.12598v2.06836h-6.57715v-1.51172ZM174.81686,100.63752c0,.98047-.13184,1.61719-.82129,1.98828-.66309.34473-1.61816.39844-2.9707.39844-.05273-.66309-.29199-1.53809-.58301-2.14844.90137.02637,1.64355.02637,1.90918.02637.29199-.02637.34473-.10547.34473-.31836v-5.38281h-2.86426v11.05859h-2.20117v-11.05859h-2.51953v-2.1748h9.70605v7.61133ZM180.89011,102.78498c-1.45801,1.37891-3.9248,2.81152-6.01953,3.60742-.37109-.45117-1.14062-1.2207-1.64453-1.64453,2.06836-.74316,4.40234-2.12207,5.54297-3.26172l2.12109,1.29883ZM180.12155,87.40412c.13281-.7168.29102-1.48535.39746-2.20117h-5.30371v-2.0957h13.3125v2.0957h-5.27734c-.23828.76855-.47754,1.51172-.68945,2.20117h5.17188v13.79004h-11.53613v-13.79004h3.9248ZM185.37253,89.23322h-6.89551v2.20117h6.89551v-2.20117ZM185.37253,93.15901h-6.89551v2.22754h6.89551v-2.22754ZM185.37253,97.11018h-6.89551v2.22754h6.89551v-2.22754ZM184.57663,101.61799c1.53809.92871,3.55371,2.36035,4.58789,3.3418l-1.93555,1.40527c-.92871-.9541-2.91797-2.46582-4.50879-3.5l1.85645-1.24707Z"/><path class="cls-1" d="M198.81491,99.17854c-2.38672,1.32617-4.93262,2.70508-7.05469,3.76562l-.90137-2.46582c.79492-.34473,1.75-.76953,2.78418-1.27344v-8.53906h-2.59863v-2.33398h2.59863v-6.01953h2.30762v6.01953h2.25391v2.33398h-2.25391v7.42578c.74219-.37207,1.45801-.7168,2.20117-1.08789l.66309,2.1748ZM207.22116,100.98225c-3.0498.875-6.33789,1.75-8.83105,2.46582l-.60938-2.33398c2.33301-.50391,5.83398-1.35254,9.20215-2.22754l.23828,2.0957ZM214.56686,90.58576c-.875,3.47461-2.09473,6.55078-3.68555,9.14941.53027,2.65234,1.27246,4.24316,2.06836,4.24316.45117,0,.68945-1.0078.76855-3.58008.47754.55762,1.2207,1.08789,1.75098,1.32617-.37109,3.52734-1.03418,4.58789-2.83789,4.58789-1.53809,0-2.65234-1.56445-3.50098-4.11035-1.19336,1.51172-2.5459,2.81055-4.08398,3.89844-.37109-.39844-1.27246-1.21973-1.77637-1.56445,2.06836-1.2998,3.76562-3.02344,5.19824-5.0918-.61035-3.15625-.95508-7.16113-1.11426-11.45703h-8.75195v-2.22754h8.67188c-.02637-1.24609-.05273-2.49316-.05273-3.73926h2.36035c-.02637,1.27246,0,2.51953,0,3.73926h3.58008c-.66309-.76953-1.80273-1.80371-2.78418-2.51953l1.40527-1.21973c1.08691.74219,2.43945,1.85645,3.10254,2.65234l-1.16699,1.08691h1.2998v2.22754h-5.35645c.10547,3.0498.34473,5.86133.63574,8.24805.875-1.85645,1.53809-3.87207,2.06836-6.07324l2.20117.42383ZM206.0278,90.16194v7.79688h-6.62988v-7.79688h6.62988ZM204.09225,92.09748h-2.81152v3.9248h2.81152v-3.9248Z"/><path class="cls-1" d="M220.92917,86.3426c1.90918-.18555,6.60352-.63574,11.42969-1.03418,2.78418-.23828,5.43652-.39746,7.21387-.4502l.02637,2.67773c-1.45898,0-3.73926.02734-5.11816.37207-3.47461,1.06055-5.78125,4.77344-5.78125,7.87598,0,4.7998,4.45508,6.36523,8.77734,6.57715l-.9541,2.81055c-5.14551-.26465-10.52832-3.02246-10.52832-8.80469,0-3.97754,2.30664-7.16016,4.42871-8.5127-2.28125.23926-8.72559.875-11.66895,1.51172l-.26562-2.89062c1.00781-.02637,1.91016-.0791,2.44043-.13281ZM238.061,94.08674l-1.64453.74219c-.63672-1.35254-1.32617-2.57227-2.12207-3.71191l1.5918-.69043c.63672.92871,1.61719,2.5459,2.1748,3.66016ZM241.08347,92.86701l-1.61719.7959c-.68945-1.35254-1.37891-2.51953-2.22754-3.66016l1.59082-.71582c.63672.90137,1.6709,2.49219,2.25391,3.58008Z"/><path class="cls-1" d="M76.6528,124.68244v1.88281c0,4.50879-.39746,11.08496-3.07617,15.4082-.4248-.39844-1.48535-1.03418-2.12207-1.24707,2.5459-4.08398,2.78516-9.9707,2.78516-14.16113v-7.69043h19.86328v5.80762h-17.4502ZM76.6528,120.81037v1.93652h15.00977v-1.93652h-15.00977ZM94.52683,140.06428c0,.98047-.18555,1.43164-.875,1.72363-.68945.29102-1.77637.29102-3.31445.29102-.13281-.53027-.39844-1.19336-.63672-1.69727l.29199.02734c-.10645-.29199-.23926-.55762-.39844-.90234-3.23535.21289-6.52344.37109-8.93652.47754l-.15918-1.77637c1.16602-.02734,2.59863-.08008,4.16309-.13281v-1.85645h-5.01172v5.91406h-2.22852v-7.58496h7.24023v-1.27246h-6.20508v-4.56152h6.20508v-1.19336c-2.09473.10547-4.24316.18555-6.20508.18555-.05371-.45117-.26562-1.11426-.47754-1.56445,4.7207-.05371,10.52832-.39844,13.68359-1.03516l1.40625,1.45898c-1.6709.34473-3.8457.61035-6.15332.7959v1.35254h6.44434v4.56152h-6.44434v1.27246h7.61133v5.5166ZM84.66159,131.78987v-1.5918h-4.00391v1.5918h4.00391ZM86.9155,130.19807v1.5918h4.11133v-1.5918h-4.11133ZM90.78757,140.40901c.53027.02637.90234.02637,1.08789,0,.29102-.02734.37109-.08008.37109-.34473v-3.8457h-5.33105v1.77637l1.88379-.0791c-.18652-.34473-.39844-.68945-.58398-1.00781l1.45898-.37109c.76855,1.13965,1.59082,2.67871,1.93555,3.60645l-.82227.26562Z"/><path class="cls-1" d="M111.39011,118.47639c-.02637.37207-.02637.82227-.0791,1.2998.23828,3.52734,1.61719,15.43457,11.53613,19.99609-.76953.58301-1.48535,1.40527-1.88281,2.06836-6.41797-3.10254-9.36133-9.17578-10.74121-14.29395-1.27246,5.06543-4.05664,10.79297-10.20996,14.32031-.4502-.63672-1.24609-1.40527-2.04199-1.93555,10.6084-5.64941,10.44922-17.9541,10.63477-21.45508h2.78418Z"/><path class="cls-1" d="M124.35593,129.61506c.63574-1.77637,1.13965-4.69434,1.3252-6.8418l1.77734.26465c-.13281,2.1748-.61035,5.25098-1.24707,7.21387l-1.85547-.63672ZM148.77975,138.87092v2.33301h-16.25586v-2.33301h7.37207v-6.02051h-5.38379v-2.30762h5.38379v-4.98535h-3.44727c-.50391,1.48535-1.08789,2.83789-1.69727,3.9248-.50391-.34473-1.5918-.90137-2.20117-1.14062.34473-.53027.68945-1.13965.98145-1.8291l-1.48535.71582c-.23926-1.06055-.92871-2.75781-1.5918-4.16406v19.01465h-2.46582v-24.31836h2.46582v4.90625l1.56543-.63672c.66309,1.24707,1.40527,2.86426,1.72363,3.97852.82227-2.06836,1.40527-4.56152,1.75-7.05469l2.41309.39844c-.18555,1.3252-.47656,2.625-.79492,3.87109h2.78418v-5.35645h2.4668v5.35645h5.72754v2.33398h-5.72754v4.98535h5.14453v2.30762h-5.14453v6.02051h6.41699Z"/><path class="cls-1" d="M161.74558,119.43147c-.13281.55664-.29199,1.21973-.39844,1.80371-.13281.79492-.37109,2.06836-.60938,3.26172,1.06055-.08008,2.01562-.13281,2.625-.13281,2.51953,0,4.45508,1.06055,4.45508,4.7207,0,3.10254-.39746,7.2666-1.48438,9.52051-.87598,1.77637-2.22754,2.28027-4.05762,2.28027-1.00781,0-2.25488-.18555-3.12988-.39746l-.4502-2.75781c1.08691.31836,2.51855.55664,3.23535.55664.92773,0,1.6709-.23828,2.14746-1.24609.7959-1.64453,1.16699-4.93262,1.16699-7.66406,0-2.25488-1.00781-2.62598-2.67871-2.62598-.53027,0-1.40527.05273-2.38672.13281-.9541,3.87207-2.81055,9.8916-5.41016,14.08203l-2.73145-1.08789c2.62598-3.5,4.50879-9.14844,5.43652-12.70215-1.19336.13184-2.25391.23828-2.86328.31738-.68945.08008-1.85645.23926-2.59961.37207l-.26465-2.86426c.90137.05273,1.64355.02637,2.5459,0,.84863-.02637,2.25391-.13281,3.71289-.26562.37109-1.93555.63574-3.9248.63574-5.62207l3.10352.31836ZM171.186,122.85237c1.5918,2.38672,3.52734,6.62988,4.32324,8.88379l-2.62598,1.24707c-.74219-2.81152-2.73145-7.42578-4.58789-9.65332l2.4668-1.08691c.13281.18555.26465.37109.42383.58301-.53027-1.06055-1.37891-2.65234-2.12109-3.66016l1.72363-.71582c.66309.95508,1.61719,2.62598,2.14844,3.66016l-1.75098.74219ZM174.26218,121.71174c-.55664-1.13965-1.40527-2.65137-2.17383-3.65918l1.72363-.71582c.68945.98047,1.69727,2.65137,2.20117,3.63281l-1.75098.74219Z"/><path class="cls-1" d="M201.30905,120.12092v2.14844h-22.88574v-2.14844h10.05078v-2.38672h2.51953v2.38672h10.31543ZM200.40768,139.32112c0,1.24707-.26465,1.93652-1.16699,2.33398-.92773.37109-2.30664.39746-4.375.39746-.10645-.68945-.45117-1.64355-.76953-2.28027h-7.08105v1.27246h-2.14746v-7.00098h10.02441v5.72852c1.16699.02637,2.17383.02637,2.49219-.02637.4248,0,.55762-.10645.55762-.45117v-6.70996h-15.99219v9.52148h-2.41309v-11.58984h20.87109v8.80469ZM197.01315,123.54182v5.54297h-14.26758v-5.54297h14.26758ZM194.51999,125.23908h-9.3877v2.14844h9.3877v-2.14844ZM192.69089,135.79377h-5.67578v2.25488h5.67578v-2.25488Z"/><path class="cls-1" d="M209.28854,124.2049c-.02637,1.64453,0,3.87207.18555,5.91406.39844,4.13672,1.45898,6.89551,3.20898,6.89551,1.32617,0,2.4668-2.86426,3.0498-5.27832l2.12207,2.4668c-1.6709,4.50879-3.28906,6.07324-5.22461,6.07324-2.65234,0-5.0918-2.5459-5.80762-9.46777-.26562-2.30762-.29199-5.43652-.29199-7.02734,0-.66309-.02637-1.75098-.18555-2.4668l3.20898.05273c-.13281.76953-.26562,2.12207-.26562,2.83789ZM227.69382,135.13069l-2.73145,1.06152c-.4248-4.50879-1.93652-10.15723-4.58789-13.28711l2.625-.875c2.41309,3.0498,4.34961,8.83105,4.69434,13.10059Z"/><rect class="cls-1" x="22.32441" y="22.90514" width="249.6606" height="39.83212"/><path class="cls-10" d="M61.73288,41.53596l-1.1709,1.79883c-1.07129-.76855-3.21289-2.1416-4.50586-2.8291l1.15137-1.7373c1.27344.6875,3.57617,2.10156,4.52539,2.76758ZM63.7739,46.28401c3.37402-1.91895,6.10156-4.62598,7.7373-7.49512l1.21191,2.1416c-1.79785,2.74707-4.60547,5.33301-7.87891,7.23242-2.04004,1.19141-4.86816,2.16113-6.70703,2.50488l-1.19141-2.08105c2.24219-.38379,4.70703-1.13086,6.82812-2.30273ZM64.76413,37.07112l-1.19238,1.73828c-1.03027-.74805-3.19238-2.18262-4.44434-2.88965l1.15137-1.7373c1.25293.70703,3.53516,2.20215,4.48535,2.88867Z"/><path class="cls-10" d="M90.80515,36.32404c-.14062.20215-.44434.70703-.58594,1.05078-.70703,1.65625-1.89844,3.93945-3.3125,5.75781,2.08008,1.77734,4.52539,4.38379,5.77734,5.91895l-1.79785,1.57617c-1.31348-1.81836-3.33301-4.04102-5.33301-5.89941-2.16211,2.30273-4.86914,4.46484-7.77832,5.79785l-1.63672-1.69629c3.27344-1.25293,6.30371-3.67773,8.30371-5.91992,1.37305-1.53516,2.72754-3.75781,3.21191-5.33301h-7.41406c-.78809,0-1.87891.10059-2.20215.12109v-2.2832c.4043.06055,1.5752.1416,2.20215.1416h7.49512c.74707,0,1.41406-.08105,1.75781-.20215l1.3125.96973Z"/><path class="cls-10" d="M111.43308,39.96076c.42383,0,1.19141-.04102,1.69629-.10156v2.08105c-.46387-.04004-1.1709-.06055-1.69629-.06055h-5.19238c-.08105,2.1416-.48438,3.91895-1.25293,5.39453-.72656,1.35352-2.2627,2.86816-4.01953,3.75781l-1.85938-1.37402c1.49512-.60645,2.92969-1.75781,3.73828-3.01074.86816-1.35352,1.13086-2.94922,1.21191-4.76758h-5.83887c-.60645,0-1.27246.02051-1.83789.06055v-2.08105c.56543.06055,1.21191.10156,1.83789.10156h13.21289ZM100.74558,36.74787c-.66699,0-1.41406.02051-1.97949.06152v-2.08105c.60547.08008,1.3125.1416,1.97949.1416h8.1416c.62598,0,1.37402-.04102,2.02051-.1416v2.08105c-.64648-.04102-1.39453-.06152-2.02051-.06152h-8.1416Z"/><path class="cls-10" d="M131.6362,50.70881c-.2627-.70801-.62695-1.59668-1.05078-2.52539-3.21191.38379-9.67676,1.09082-12.30371,1.33301-.50488.06055-1.17188.16113-1.77734.24219l-.36426-2.34375c.62695,0,1.41504,0,2.02051-.04004.24219-.02051.52539-.02051.82812-.04004,1.13184-2.88965,3.05078-8.90918,3.61621-10.9707.2832-.96973.36426-1.51465.44531-2.10059l2.52441.52539c-.22168.54492-.48438,1.15137-.76758,2.04004-.60547,1.91992-2.44434,7.63672-3.4541,10.30371,2.74707-.24219,6.16113-.62598,8.32324-.90918-.76758-1.53516-1.5957-3.01074-2.30273-3.93945l1.95898-.84863c1.41406,2.12109,3.57617,6.1416,4.44531,8.30371l-2.1416.96973Z"/><path class="cls-10" d="M138.60593,40.66779v10.84863h-1.8584v-17.73828h7.49512v6.88965h-5.63672ZM138.60593,35.17268v1.35352h3.87891v-1.35352h-3.87891ZM142.48483,39.29377v-1.47461h-3.87891v1.47461h3.87891ZM147.83933,46.8094v4.34375h-1.67676v-4.34375h-2.44531c-.16113,1.35352-.80762,3.41406-2.64648,4.64648-.2627-.34375-.82812-.84863-1.21191-1.11133,1.49512-.90918,2.06055-2.42383,2.22266-3.53516h-2.30371v-1.55566h2.36426v-1.91895h-2v-1.49512h9.79785v1.49512h-2.10059v1.91895h2.50488v1.55566h-2.50488ZM146.16257,45.25373v-1.91895h-2.4043v1.91895h2.4043ZM153.45554,49.21369c0,1.03027-.20215,1.5752-.86914,1.89844-.64648.30371-1.65625.36426-3.17188.34375-.06055-.50488-.32324-1.35352-.60547-1.8584,1.03027.01953,2.06055.01953,2.38379.01953.30273-.01953.40332-.12109.40332-.42383v-8.48535h-5.79785v-6.92969h7.65723v15.43555ZM147.59616,35.17268v1.35352h4v-1.35352h-4ZM151.59616,39.33381v-1.51465h-4v1.51465h4Z"/><path class="cls-10" d="M168.62839,41.71858v2.66602h4.56543v1.7373h-4.56543v2.76855c0,.68652.10059.78711.74707.78711h1.95996c.58594,0,.68652-.40332.76758-2.40332.42383.30273,1.17188.62598,1.67676.72656-.16211,2.60645-.6875,3.35449-2.2627,3.35449h-2.46484c-1.89941,0-2.36328-.5459-2.36328-2.46484v-2.76855h-3.21289c-.38379,2.1416-1.65625,4.16211-5.47461,5.47559-.22266-.4248-.80859-1.15137-1.19238-1.47461,3.11133-1.03027,4.30371-2.48535,4.72754-4.00098h-4.28223v-1.7373h4.50488v-2.66602h-1.95996v-.72754c-.90918.66699-1.87891,1.25195-2.86914,1.69727-.22168-.4248-.76758-1.0918-1.13086-1.41504,1.31348-.54492,2.60645-1.37305,3.75781-2.38379-.56543-.60547-1.49512-1.37305-2.22266-1.93945l1.17188-.98926c.72754.48438,1.63672,1.19141,2.22266,1.75684.62598-.70703,1.17188-1.49414,1.61621-2.30273h-4.60645v-1.63672h5.51562l.34277-.06055,1.23242.58594c-.78809,2.2627-2.1416,4.1416-3.75781,5.63672h8.46582c-1.75781-1.7373-3.15234-3.95996-4.10156-6.44434l1.65625-.48535c.32324.82812.70703,1.61621,1.17188,2.38379.78809-.68652,1.63672-1.51465,2.16211-2.16113l1.41406.99023c-.86914.82812-1.89941,1.7168-2.76758,2.36328.34277.46484.72656.90918,1.11133,1.33301.92871-.72656,1.95898-1.67676,2.60547-2.40332l1.39453.96973c-.88965.84766-2,1.7373-2.9502,2.42383,1.05078.88867,2.22266,1.61621,3.49512,2.12109-.42383.36426-1.00977,1.11133-1.29297,1.61621-.96973-.44434-1.87891-.98926-2.70703-1.65625v.72754h-2.10059ZM166.68893,41.71858h-3.07129v2.66602h3.07129v-2.66602Z"/><path class="cls-10" d="M185.03268,48.6883c.70703-.06055,1.29297-.16211,1.77832-.2832,2.56543-.58594,4.84863-2.44434,4.84863-5.67676,0-2.90918-1.7373-5.19238-4.80859-5.57617-.28223,1.79785-.64648,3.7373-1.19141,5.61621-1.21289,4.08105-2.86914,6.36426-4.86914,6.36426-1.97949,0-3.79785-2.24219-3.79785-5.57617,0-4.44434,3.93945-8.30273,8.94922-8.30273,4.80859,0,7.85938,3.35352,7.85938,7.55566,0,4.18164-2.6875,7.09082-7.57617,7.77734l-1.19238-1.89844ZM183.61862,42.34455c.50488-1.57617.88867-3.39453,1.09082-5.15137-3.5957.58594-5.69727,3.7168-5.69727,6.18164,0,2.30273,1.03125,3.35352,1.83887,3.35352.86914,0,1.83887-1.29297,2.76758-4.38379Z"/><path class="cls-10" d="M214.97409,50.50666h-6.74805v1.03027h-1.69727v-10.84863c-.16113.26172-.32324.50488-.48438.72656-.20215-.18164-.58594-.54492-.9502-.82812v1.57617h-3.19141v1.0498h3.21191v1.39453h-3.21191v.22168c0,.30371-.02051.60645-.04102.92969h3.73828v1.49512h-4l-.04102.10059c1.07129.62695,3.17188,2,3.77832,2.4248l-1.09082,1.53516c-.72754-.64648-2.18262-1.81836-3.29297-2.60645-.66699,1.07129-1.75781,2.08105-3.57617,2.86914-.22266-.36328-.72754-.96973-1.13184-1.29297,1.98047-.76758,2.99023-1.89941,3.47559-3.03027h-3.31348v-1.49512h3.69727c.04004-.32324.06055-.64648.06055-.94922v-.20215h-3.03027v-1.39453h3.03027v-1.0498h-3.09082v-4.34375h8.01953v1.77734c1.17188-1.75684,2.12207-4.20215,2.72754-6.62597l1.7373.40429c-.30273,1.13086-.68652,2.28223-1.11035,3.37305h1.91895c.46484-1.11035.92969-2.52441,1.19141-3.5752l1.81836.42383c-.38379,1.07129-.84766,2.20215-1.27246,3.15137h2.64648v1.67773h-2.66699v2.34277h2.52539v1.59668h-2.52539v2.40332h2.52539v1.59668h-2.52539v2.44434h2.88965v1.69727ZM198.34714,36.20295h-1.79785v-1.49512h1.79785v-1.7373h1.65625v1.7373h2.22266v-1.7373h1.65625v1.7373h1.75781v1.49512h-1.75781v1.23242h-1.65625v-1.23242h-2.22266v1.23242h-1.65625v-1.23242ZM198.50827,40.88947h1.71777v-1.77734h-1.71777v1.77734ZM203.53952,39.11213h-1.75781v1.77734h1.75781v-1.77734ZM210.38815,38.42561h-2.16211v2.34277h2.16211v-2.34277ZM210.38815,42.36506h-2.16211v2.40332h2.16211v-2.40332ZM208.22604,48.8094h2.16211v-2.44434h-2.16211v2.44434Z"/><path class="cls-10" d="M219.45944,41.01154v10.50488h-1.8584v-17.73828h7.43457v7.2334h-5.57617ZM219.45944,35.27326v1.41406h3.79785v-1.41406h-3.79785ZM223.25729,39.53596v-1.51465h-3.79785v1.51465h3.79785ZM223.72214,48.6883v1.17188h-1.7373v-7.23242h7.61621v6.06055h-5.87891ZM223.72214,44.20295v2.92969h4.12109v-2.92969h-4.12109ZM234.24753,49.13264c0,1.13086-.2627,1.7168-.99023,2.04004-.74707.30371-1.93945.32324-3.75684.32324-.06152-.52538-.36426-1.39355-.64648-1.91895,1.27246.06055,2.58594.04004,2.98926.04004.38379-.01953.48535-.14062.48535-.50488v-8.08105h-5.69727v-7.25293h7.61621v15.35449ZM228.42917,35.25373v1.43359h3.89941v-1.43359h-3.89941ZM232.32858,39.55647v-1.53516h-3.89941v1.53516h3.89941Z"/><path d="M94.43503,234.37043v1.81836h-17.93945v-1.81836h8v-4.64648h-5.75781v-1.79785h5.75781v-4.04053h-4.48535c-.62598,1.21191-1.29297,2.28271-2,3.13135-.38379-.32324-1.21191-.86865-1.7168-1.13135,1.63672-1.71729,2.90918-4.48486,3.65625-7.31348l1.93945.44434c-.30273,1.03027-.66602,2.06104-1.0498,3.03076h3.65625v-3.75781h1.93945v3.75781h7.03027v1.83838h-7.03027v4.04053h6.2832v1.79785h-6.2832v4.64648h8Z"/><path d="M113.56784,225.15803c-.84863,2.60596-2.04004,4.88916-3.51562,6.82861.6875,1.7168,1.47559,2.76758,2.32324,2.76758.52539,0,.76758-1.03027.88965-3.63672.44434.44531,1.11035.86914,1.61621,1.05078-.30371,3.55566-.99023,4.50488-2.64648,4.50488-1.47559,0-2.64648-1.13086-3.55566-3.03027-1.15234,1.21289-2.4248,2.24316-3.81836,3.0918-.2832-.4043-.9502-1.19238-1.37402-1.53613,1.67676-.92871,3.17188-2.10059,4.4043-3.53516-.72754-2.2832-1.19238-5.17188-1.43457-8.32324h-6.46484v2.44434h5.07129v.72754c-.10156,4.38379-.20215,6.12109-.62695,6.68652-.36328.4248-.74707.58594-1.29297.64648-.50488.08105-1.41406.08105-2.38379.04102-.04004-.5459-.22168-1.27344-.50488-1.75781.82812.08105,1.61621.10059,1.93945.10059.2832,0,.48438-.06055.62598-.24219.22266-.2832.34375-1.43457.4043-4.48535h-3.23242c-.02051,2.86914-.36328,6.91016-2.1416,9.51562-.32324-.38379-1.15137-1.05078-1.57617-1.29297,1.61621-2.42383,1.75781-5.89941,1.75781-8.50488v-5.71777h8.30371c-.06055-1.05029-.10156-2.14111-.10156-3.21191h1.98047c-.02051,1.09082,0,2.16162.06055,3.21191h3.89941c-.78809-.6665-2.10156-1.53516-3.17188-2.12109l1.13086-1.15137c1.19238.62598,2.70703,1.55566,3.49512,2.24219l-.96973,1.03027h2.06055v1.83887h-6.34375c.20215,2.40381.52539,4.58594.99023,6.38379.96973-1.49512,1.7168-3.17188,2.30273-5.03027l1.89941.46436Z"/><path d="M129.60886,230.97688h-5.17188l-1.27246,4.24219h-2.38379l4.92969-14.86914h2.70703l4.92969,14.86914h-2.48535l-1.25293-4.24219ZM129.04343,229.13801l-.58594-2c-.50488-1.61621-.94922-3.27295-1.41406-4.94971h-.08105c-.42383,1.69727-.88867,3.3335-1.37305,4.94971l-.60645,2h4.06055Z"/><path d="M135.3071,220.34992h2.34277v14.86914h-2.34277v-14.86914Z"/><path d="M154.31784,233.98664c.70703-.06055,1.29297-.16113,1.77832-.2832,2.56543-.58496,4.84863-2.44434,4.84863-5.67676,0-2.90918-1.7373-5.19189-4.80859-5.57568-.28223,1.79785-.64648,3.7373-1.19141,5.6167-1.21289,4.08008-2.86914,6.36328-4.86914,6.36328-1.97949,0-3.79785-2.24219-3.79785-5.57617,0-4.44434,3.93945-8.30273,8.94922-8.30273,4.80859,0,7.85938,3.35352,7.85938,7.55566,0,4.18164-2.6875,7.09082-7.57617,7.77832l-1.19238-1.89941ZM152.90378,227.64289c.50488-1.57568.88867-3.39404,1.09082-5.15137-3.5957.58594-5.69727,3.71729-5.69727,6.18164,0,2.30371,1.03125,3.35352,1.83887,3.35352.86914,0,1.83887-1.29297,2.76758-4.38379Z"/><path d="M178.70358,220.451c2,1.61621,4.38379,3.93945,5.43457,5.63623l-1.65723,1.25293c-.32324-.56543-.78809-1.2124-1.35352-1.87891-5.39355.2627-11.09082.48486-14.80859.64648l-.1416-1.89893,3.05078-.10107c1.17188-1.77783,2.4248-4.12158,3.19238-5.95996l2.10059.72754c-.88867,1.69678-2,3.57568-3.0498,5.15137,2.52441-.10107,5.3125-.20215,8.08008-.32324-.76758-.76758-1.55469-1.51514-2.32324-2.16162l1.47559-1.09082ZM168.46042,228.12824h12.99023v8.64648h-2.02051v-.82812h-9.05078v.84863h-1.91895v-8.66699ZM170.37936,229.9261v4.20215h9.05078v-4.20215h-9.05078Z"/><path d="M194.40085,233.9466c-2.84863.66602-5.87891,1.35352-8.12109,1.8584l-.44434-1.75781c1.4541-.2627,3.4541-.66699,5.55566-1.11133l-.80859-.22168c.30371-1.11133.66699-2.84863.80859-4.06055l1.81836.42383c-.36426,1.27246-.74805,2.68652-1.09082,3.7168l2.12109-.44434.16113,1.59668ZM194.09811,221.01643h-7.95996v-1.7373h7.95996v1.7373ZM193.65378,228.18879h-6.9502v-5.4751h6.9502v5.4751ZM187.79538,232.85578c-.04102-.96973-.30371-2.48535-.72754-3.65723l1.51465-.38379c.44434,1.15137.76758,2.66699.82812,3.65723l-1.61523.38379ZM191.95651,224.22883h-3.65625v2.46484h3.65625v-2.46484ZM198.64401,234.18879c-1.07129,1.00977-2.88965,2.08105-4.4043,2.64648-.2832-.34375-.84863-.88867-1.25293-1.23242,1.51562-.52539,3.25293-1.55566,4.08105-2.38379l1.57617.96973ZM197.89597,222.43098c.12109-.5459.22266-1.13135.30371-1.67676h-3.57617v-1.59619h9.67676v1.59619h-4c-.18164.58545-.36328,1.15137-.52539,1.67676h3.95996v10.50488h-8.56641v-10.50488h2.72754ZM201.93698,223.82453h-5.03027v1.67725h5.03027v-1.67725ZM201.93698,226.81477h-5.03027v1.69727h5.03027v-1.69727ZM201.93698,229.82453h-5.03027v1.69727h5.03027v-1.69727ZM201.39108,233.34016c1.13184.68652,2.62695,1.75781,3.41406,2.48535l-1.51465,1.00977c-.70703-.72754-2.18164-1.83887-3.33398-2.58594l1.43457-.90918Z"/><path d="M208.70554,221.60237c1.4541-.14111,5.03027-.48486,8.70703-.7876,2.12109-.18213,4.1416-.30322,5.49512-.34375l.02051,2.04053c-1.11133,0-2.84863.02002-3.89941.28271-2.64648.80811-4.4043,3.63672-4.4043,6,0,3.65723,3.39355,4.84863,6.6875,5.01074l-.72754,2.1416c-3.91992-.20215-8.02051-2.30371-8.02051-6.70703,0-3.03076,1.75781-5.45508,3.37402-6.48535-1.7373.18164-6.64648.6665-8.88965,1.15137l-.20215-2.20215c.76758-.02002,1.45508-.06055,1.85938-.10107ZM221.75632,227.50129l-1.25293.56641c-.48438-1.03027-1.00977-1.95996-1.61621-2.82861l1.21191-.52539c.48535.70703,1.23242,1.93994,1.65723,2.7876ZM224.05905,226.57258l-1.23242.60547c-.52539-1.02979-1.05078-1.91895-1.69727-2.7876l1.21289-.54541c.48438.68701,1.27246,1.89893,1.7168,2.72754Z"/><path d="M54.36179,259.43684c-.6875,1.7373-1.81836,3.47461-2.96973,4.60645-.32324-.30371-1.05078-.84863-1.45508-1.13184,1.11133-.96973,2.10156-2.44434,2.66699-3.91895l1.75781.44434ZM58.26022,262.72981c-.36328,1.27246-.82812,2.44434-1.35352,3.53516.92969.84863,1.75781,1.69727,2.30371,2.4043l-1.21191,1.53516c-.46484-.66602-1.19238-1.47461-2.04102-2.32324-1.23242,1.93945-2.80762,3.49512-4.68652,4.6875-.24316-.38379-.90918-1.15137-1.29297-1.49512,1.91895-1.05078,3.47461-2.56543,4.62598-4.46484-.82812-.76758-1.7168-1.49512-2.5459-2.1416l1.0918-1.29297c.74707.5459,1.53516,1.17188,2.32324,1.83887.38379-.84863.68652-1.71777.94922-2.66699l1.83789.38379ZM60.15964,258.40656h-9.75781v-1.69727h4.04102v-2.56543h1.83789v2.56543h3.87891v1.69727ZM58.76608,263.3968c-.38379-1.05078-1.39453-2.6875-2.34375-3.8584l1.47461-.72754c.99023,1.13086,2.02051,2.66699,2.4248,3.7373l-1.55566.84863ZM68.24069,258.5882s0,.64648-.02051.88867c-.18164,8.34375-.34277,11.21289-.98926,12.08203-.4043.60547-.80859.76758-1.45508.84766-.60547.10156-1.5957.08105-2.56543.04102-.04004-.50488-.24219-1.25293-.52539-1.75781.99023.08105,1.8584.10059,2.24219.10059.34375,0,.5459-.06055.72754-.34277.44434-.5459.64648-3.11133.80859-10.06152h-2.52539c-.2627,5.17188-1.13184,9.53613-4.2627,12.2832-.30371-.42383-.90918-1.0498-1.37402-1.33301,2.86914-2.4248,3.65625-6.30371,3.8584-10.9502h-2.20215v-1.79785h2.2627c.04102-1.37402.04102-2.80762.04102-4.2832h1.79785c0,1.47559-.02051,2.88965-.06055,4.2832h4.24219Z"/><path d="M75.27194,264.24543c-1.31348.62598-2.66699,1.25195-3.77832,1.75781l-.90918-1.53613c1.27344-.42383,3.19238-1.19141,5.05078-1.95898l.34375,1.41406-.34375.16113,1.27344-.06055c.44434-.42383.92871-.90918,1.41406-1.41406-.78809-.68652-1.91992-1.51562-2.84863-2.12109l.90918-1.05078c.18164.10156.34277.20215.54492.32324.4248-.58594.86914-1.27246,1.21289-1.8584h-6.78906v-1.71777h7.29395v-2.12109h1.93945v2.12109h7.49512v1.71777h-8.50586l.4248.16113c-.62695.8291-1.35352,1.71777-1.95996,2.4248.46484.32324.92969.66602,1.31348.96973.74707-.86914,1.4541-1.7373,1.97949-2.50488l1.49512.68652c-1.19238,1.39355-2.64648,2.99023-4.02051,4.30273l2.84863-.14062c-.30273-.46484-.64648-.92969-.96973-1.33398l1.35352-.58594c.34375.4248.72754.88965,1.07129,1.37402l1.15137-.92969c1.49512.72754,3.43457,1.85938,4.44434,2.66699l-1.39355,1.17188c-.84863-.76758-2.58594-1.87891-4.04102-2.64648.50488.70703.92969,1.43457,1.15137,2l-1.43457.70703c-.12109-.32324-.30273-.68652-.52441-1.09082-2.50586.20215-4.99023.38379-6.92969.52539l-.2627-1.41406ZM80.58542,267.03352h8.08105v1.7373h-8.08105v3.8584h-1.93945v-3.8584h-7.91992v-1.7373h7.91992v-1.45508h1.93945v1.45508ZM72.48386,258.5677c1.09082.56641,2.48535,1.47559,3.17188,2.12207l-1.31348,1.13086c-.64648-.64648-2.01953-1.5957-3.09082-2.24219l1.23242-1.01074ZM83.3735,260.87141c.94922-.66699,2.22168-1.75781,2.92871-2.5459l1.67676.82812c-1.00977.92969-2.2627,1.85938-3.23242,2.46484l-1.37305-.74707Z"/><path d="M97.73776,254.97199c-.60645,1.41406-1.33301,2.80859-2.18164,4.1416v13.45508h-1.87891v-10.80859c-.74805.94922-1.55566,1.81836-2.34375,2.5459-.20215-.48535-.78809-1.49512-1.13184-1.95996,2.24316-1.87891,4.4043-4.88867,5.69727-7.97949l1.83887.60547ZM106.1821,270.56867c1.05078,0,1.19238-.70703,1.35352-3.59668.46484.34375,1.23242.6875,1.75781.80859-.24219,3.35352-.78809,4.5459-2.99023,4.5459h-3.81836c-2.28223,0-2.94922-.6875-2.94922-3.13184v-14.64648h1.87891v7.23242c2.10156-1.17188,4.22266-2.62695,5.61621-3.89941l1.35352,1.63672c-1.91895,1.47461-4.5459,2.92871-6.96973,4.18164v5.51562c0,1.15137.20215,1.35352,1.25293,1.35352h3.51465Z"/><path d="M120.08249,260.9925c1.29297,0,2.34375,1.05078,2.34375,2.34375s-1.05078,2.34277-2.34375,2.34277-2.34375-1.0498-2.34375-2.34277,1.05078-2.34375,2.34375-2.34375Z"/><path d="M148.99265,255.86067v1.63672h-17.43457v-1.63672h7.65625v-1.81836h1.91992v1.81836h7.8584ZM148.30612,270.48762c0,.94922-.20215,1.47461-.88965,1.77832-.70703.28223-1.75684.30273-3.33301.30273-.08105-.52539-.34375-1.25293-.58594-1.7373h-5.39355v.96973h-1.63672v-5.33398h7.63672v4.36426c.88867.01953,1.65625.01953,1.89844-.02051.32324,0,.4248-.08105.4248-.34375v-5.11035h-12.18262v7.25195h-1.83789v-8.82812h15.89941v6.70703ZM145.72018,258.46711v4.22266h-10.86914v-4.22266h10.86914ZM143.82077,259.76008h-7.15137v1.63672h7.15137v-1.63672ZM142.42722,267.8011h-4.32324v1.7168h4.32324v-1.7168Z"/><path d="M154.62936,261.65949c0,3.17188-.28223,7.8584-2.04004,10.92969-.34375-.30371-1.13184-.84863-1.53516-1.03027,1.63574-2.86914,1.77734-6.9707,1.77734-9.89941v-5.69727h7.27344v-1.89941h1.95898v1.89941h7.35449v1.67676h-14.78906v4.02051ZM168.06491,266.04328c-.84863,1.67676-2.16211,2.94922-3.75781,3.91895,1.61621.52539,3.47461.86914,5.47461,1.07129-.38379.38379-.86914,1.13086-1.09082,1.61621-2.38379-.30371-4.5459-.84863-6.4043-1.67676-2.04004.84863-4.4043,1.35352-6.86914,1.65625-.1416-.46484-.48438-1.19238-.78809-1.57617,2.04102-.20215,4.02051-.54492,5.77832-1.11035-1.11133-.72754-2.04004-1.59668-2.78809-2.60645l.90918-.34375h-3.09082v-1.51465h11.13184l.34277-.06055,1.15234.62598ZM158.20554,264.42707v-3.23242h-2.99023v-1.53516h2.99023v-1.53613h1.77832v1.53613h4.36328v-1.53613h1.83887v1.53613h3.09082v1.53516h-3.09082v3.23242h-7.98047ZM159.41745,266.9925c.72754.86914,1.71777,1.59668,2.92969,2.18164,1.19238-.58496,2.22266-1.29297,2.99023-2.18164h-5.91992ZM159.98386,261.19465v1.77734h4.36328v-1.77734h-4.36328Z"/><path d="M178.55026,254.97199c-.60645,1.41406-1.33301,2.80859-2.18164,4.1416v13.45508h-1.87891v-10.80859c-.74805.94922-1.55566,1.81836-2.34375,2.5459-.20215-.48535-.78809-1.49512-1.13184-1.95996,2.24316-1.87891,4.4043-4.88867,5.69727-7.97949l1.83887.60547ZM186.9946,270.56867c1.05078,0,1.19238-.70703,1.35352-3.59668.46484.34375,1.23242.6875,1.75781.80859-.24219,3.35352-.78809,4.5459-2.99023,4.5459h-3.81836c-2.28223,0-2.94922-.6875-2.94922-3.13184v-14.64648h1.87891v7.23242c2.10156-1.17188,4.22266-2.62695,5.61621-3.89941l1.35352,1.63672c-1.91895,1.47461-4.5459,2.92871-6.96973,4.18164v5.51562c0,1.15137.20215,1.35352,1.25293,1.35352h3.51465Z"/><path d="M199.66257,255.33528c-.10156.4248-.22266.92969-.30273,1.37402-.10156.60645-.2832,1.57617-.46484,2.48535.80762-.06055,1.53516-.10156,2-.10156,1.91895,0,3.39355.80859,3.39355,3.59668,0,2.36328-.30273,5.53516-1.13086,7.25293-.66699,1.35352-1.69727,1.7373-3.09082,1.7373-.76855,0-1.71777-.1416-2.38477-.30371l-.34277-2.10059c.82812.24219,1.91895.42383,2.46484.42383.70703,0,1.27246-.18164,1.63574-.94922.60645-1.25293.88965-3.75781.88965-5.83887,0-1.7168-.76855-2-2.04102-2-.4043,0-1.07031.04102-1.81836.10156-.72754,2.94922-2.1416,7.53516-4.12109,10.72754l-2.08105-.82812c2-2.66699,3.43457-6.9707,4.1416-9.67773-.90918.10156-1.7168.18164-2.18164.24316-.52539.06055-1.41406.18164-1.97949.28223l-.20215-2.18164c.68652.04004,1.25195.02051,1.93945,0,.64648-.02051,1.7168-.10156,2.82812-.20215.28223-1.47461.48438-2.99023.48438-4.2832l2.36426.24219ZM206.85495,257.94172c1.21191,1.81836,2.68652,5.05078,3.29297,6.76855l-2,.94922c-.56641-2.1416-2.08105-5.65723-3.49512-7.35352l1.87891-.8291c.10059.1416.20117.2832.32324.44434-.4043-.80762-1.05078-2.01953-1.61621-2.78711l1.3125-.5459c.50488.72754,1.23242,2,1.63672,2.78809l-1.33301.56543ZM209.19772,257.07356c-.42383-.86914-1.07031-2.02051-1.65625-2.78809l1.31348-.5459c.52441.74805,1.29297,2.02051,1.67676,2.76758l-1.33398.56641Z"/><path d="M230.08835,257.33625h-2.4043v12.76758c0,1.21191-.30273,1.83887-1.15137,2.12109-.86914.34375-2.2832.36426-4.30371.36426-.10059-.5459-.48438-1.47559-.78809-2.02051,1.53613.08105,3.21289.06055,3.69727.06055.44434-.02051.58594-.1416.58594-.56543v-12.72754h-13.57617v-1.87891h17.94043v1.87891ZM215.94577,267.57844v1.57617h-1.81738v-9.17188h8.32324v7.5957h-6.50586ZM215.94577,261.76008v4.04102h4.64746v-4.04102h-4.64746Z"/><path d="M239.40183,255.43684c1.03027,1.39355,2.12109,3.27246,2.52539,4.5459l-1.67676.68652c-.10059-.32324-.2627-.70703-.44434-1.13086-2.76758.16113-5.55566.34277-7.61621.46387l-.16211-1.79785c.46484-.02051.96973-.04004,1.53516-.06055.64648-1.27246,1.31348-2.90918,1.67773-4.1416l1.95898.44434c-.50488,1.21289-1.11133,2.50586-1.67676,3.61621l3.45508-.16113c-.36426-.64648-.74805-1.29297-1.15137-1.8584l1.5752-.60645ZM240.55319,270.56867c0,.88867-.18164,1.37402-.76758,1.67676-.62598.2832-1.51465.30273-2.74707.30273-.10156-.48438-.36426-1.21191-.62695-1.69727.84863.04102,1.67676.04102,1.95996.02051.2627,0,.32324-.08105.32324-.32324v-1.91895h-3.7168v3.93945h-1.75781v-11.35352h7.33301v9.35352ZM234.978,262.79035v1.43457h3.7168v-1.43457h-3.7168ZM238.69479,267.19465v-1.53516h-3.7168v1.53516h3.7168ZM244.93796,262.93195c-2.12207,0-2.64746-.52539-2.64746-2.44434v-6.38379h1.87891v3.15137c1.55566-.5459,3.13184-1.21191,4.20215-1.77832l1.21289,1.35352c-1.55566.70703-3.57617,1.41504-5.41504,1.95996v1.67676c0,.66699.1416.78809.99023.78809h2.74805c.72656,0,.84766-.32324.92871-2.20215.4043.30273,1.17188.58594,1.69727.68652-.20215,2.52539-.74805,3.19238-2.46484,3.19238h-3.13086ZM248.04831,270.79035c.78809,0,.92969-.38379,1.01074-2.54492.42383.28223,1.17188.58594,1.67676.70703-.22266,2.74707-.74805,3.47461-2.52539,3.47461h-3.25293c-2.12109,0-2.66699-.54492-2.66699-2.42383v-6.56641h1.85938v2.99023c1.65625-.58594,3.33301-1.31348,4.42383-2.02051l1.21191,1.37402c-1.53516.88867-3.69629,1.61621-5.63574,2.20215v2c0,.68652.16113.80762,1.0498.80762h2.84863Z"/><line class="cls-5" x1="294.71391" y1="171.18029" x2=".501" y2="171.18029"/></g></svg>