<?xml version="1.0" encoding="UTF-8"?><svg id="_レイヤー_2" xmlns="http://www.w3.org/2000/svg" viewBox="0 0 300.80368 147.19064"><defs><style>.cls-1{fill:#a0afb5;stroke-width:0px;}</style></defs><g id="_背景"><path class="cls-1" d="M15.89916,123.9321c-.78789-1.49917-2.27709-2.50143-3.9626-2.66689-1.55684.02016-2.81594,1.27369-2.84301,2.83043,0,1.37118.51577,2.27692,1.98759,3.97518l6.1263,7.32137,5.22057-4.88091,3.06944,3.40909-5.22057,4.93123,5.67343,6.64207h-6.59175l-2.66689-3.18266-2.37756,2.05048c-3.68585,3.11976-9.64861,2.83043-12.36582-.51577-2.71721-3.3462-2.89333-8.50386,1.40892-12.36582l2.61657-2.32724-.56609-.96863c-.8577-1.35405-1.27517-2.94042-1.19507-4.54126.2222-3.95445,3.52468-7.02936,7.48491-6.96914,3.13347.04336,6.01779,1.71675,7.6107,4.41547l-3.40909,2.84301ZM11.26984,140.67564l2.15112-1.93727-4.81802-5.72376-2.26434,2.03791c-1.76015,1.38859-2.115,3.91686-.8051,5.73633,1.40892,1.58504,3.73616,1.69826,5.73633-.11321Z"/><path class="cls-1" d="M49.65043,16.4765c-4.96897-2.66689-12.65516-5.56022-18.86951-5.56022-9.4725,0-15.49816,4.75512-15.49816,11.13301,0,7.06978,7.54781,11.0198,17.39769,14.61758,17.98894,6.84334,24.49263,15.09561,24.25362,25.7506-.37739,14.32825-13.4351,22.37925-28.82004,22.26602-12.07649-.11321-21.53641-4.5161-26.74439-8.69256l5.03187-9.39702c4.61674,3.35878,12.42872,7.42201,21.07096,7.42201,9.10769,0,17.04546-4.52868,17.04546-11.32171,0-8.00068-8.64224-11.32171-20.01427-16.24036C10.95535,40.60432,2.66534,33.97483,2.66534,22.04929,2.66534,11.33141,11.54659.0097,29.64875.0097,38.45452.0097,48.83276,3.7836,53.67593,6.29954l-4.0255,10.17696Z"/><path class="cls-1" d="M93.03774,56.1528v26.88277h-12.3784V2.21114c37.41196-6.49111,54.2184,6.28984,54.2184,25.86381,0,18.5676-14.80628,29.70061-41.84001,28.07784ZM93.03774,45.35944c20.12748,1.39634,28.93326-5.67343,28.93326-17.39769,0-10.66757-7.9252-18.44181-28.93326-15.77491v33.17261Z"/><path class="cls-1" d="M208.3682,72.85861v10.17696h-51.57667V1.63248h50.06712v10.32791h-37.66355v24.53037h31.12213v10.2147h-31.12213v26.15315h39.17311Z"/><path class="cls-1" d="M300.80368,72.15414c-5.67343,5.45958-14.90692,12.57968-32.78263,12.57968-24.49263,0-43.1986-18.44181-43.1986-42.45641-.00002-25.5619,20.71871-42.26771,43.78985-42.26771,11.68056-.24166,23.00262,4.04017,31.60014,11.95069l-7.44717,8.69256c-4.74254-4.28967-13.14576-9.84989-23.90139-9.84989-17.15868,0-30.53088,13.83764-30.53088,31.44919,0,17.05804,12.41613,31.54983,30.64409,31.54983,8.97705-.20672,17.58237-3.62565,24.25361-9.63604l7.57297,7.98809Z"/><path class="cls-1" d="M72.6964,141.90846c-3.4114,3.54094-8.18397,5.43896-13.09544,5.20799-9.78699,0-17.24674-7.6736-17.24674-17.61155-.22359-9.50163,7.29775-17.3855,16.79938-17.60909.22875-.00538.45758-.0062.68636-.00246,4.69335-.05064,9.21596,1.75841,12.57968,5.03187l-2.98138,3.61037c-2.55034-2.52404-5.96154-3.98919-9.54797-4.10098-6.85592,0-12.20229,5.74891-12.20229,13.07028,0,7.09494,4.96897,13.1206,12.24002,13.1206,3.61461-.09678,7.0671-1.52077,9.69893-4.00034l3.06944,3.2833Z"/><path class="cls-1" d="M96.43425,111.96882c9.72587-.11811,17.706,7.67053,17.8241,17.3964s-7.67053,17.70599-17.3964,17.82409c-9.72587.11811-17.70599-7.67052-17.8241-17.39639-.00086-.07085-.0013-.14171-.0013-.21256-.2159-9.50876,7.31746-17.39216,16.82622-17.60805.19046-.00433.38097-.00549.57148-.00349ZM96.43425,142.63807c6.47854,0,12.10165-5.20799,12.10165-13.01996s-5.62312-13.23382-12.10165-13.23382-12.05132,5.35894-12.05132,13.19608,5.52248,12.99481,12.05132,12.99481v.06289Z"/><path class="cls-1" d="M123.71957,146.43714v-33.96513l1.40893-.38997,14.56727,19.4356,14.51694-19.42302,1.40893.38997v33.96513h-4.90608v-22.05217l-10.78078,14.65533h-.52834l-10.78078-14.50437v21.88864h-4.90608Z"/><path class="cls-1" d="M172.41551,135.24122v11.19591h-4.96897v-33.62548c14.94466-2.69205,21.64963,2.61658,21.64963,10.7682-.00002,7.71135-5.89989,12.29035-16.68066,11.66137ZM172.41551,130.76286c8.03841.57866,11.5733-2.36498,11.5733-7.23331,0-4.44062-3.15749-7.6736-11.5733-6.56659v13.79991Z"/><path class="cls-1" d="M192.17817,146.43714l15.33463-34.24188h1.69826l15.09561,34.24188h-5.47217l-3.11975-6.89367h-14.9824l-3.11975,6.89367h-5.43443ZM202.53124,135.34186h11.38461l-5.67343-13.49799-5.71118,13.49799Z"/><path class="cls-1" d="M259.54234,112.57265v33.96513l-1.13216.33965-20.99548-23.44852v23.00823h-4.86835v-33.96513l1.13216-.38997,20.99548,23.58689v-23.09629h4.86835Z"/><path class="cls-1" d="M296.8914,112.57265l-11.96327,19.44818v14.41631h-5.03187v-14.41631l-11.86263-19.44818h5.86213l8.65482,14.18987,8.69256-14.18987h5.64824Z"/></g></svg>