<?xml version="1.0" encoding="UTF-8"?>
<svg id="_レイヤー_2" data-name="レイヤー 2" xmlns="http://www.w3.org/2000/svg" viewBox="0 0 126.31 61.81">
  <defs>
    <style>
      .cls-1 {
        fill: #000;
        stroke-width: 0px;
      }
    </style>
  </defs>
  <g id="_メニュー" data-name="メニュー">
    <g>
      <path class="cls-1" d="M6.68,52.04c-.33-.63-.96-1.05-1.66-1.12-.65,0-1.18.53-1.19,1.19,0,.58.22.96.83,1.67l2.57,3.07,2.19-2.05,1.29,1.43-2.19,2.07,2.38,2.79h-2.77l-1.12-1.34-1,.86c-1.55,1.31-4.05,1.19-5.19-.22-1.14-1.41-1.21-3.57.59-5.19l1.1-.98-.24-.41c-.36-.57-.54-1.23-.5-1.91.09-1.66,1.48-2.95,3.14-2.93,1.32.02,2.53.72,3.2,1.85l-1.43,1.19ZM4.73,59.07l.9-.81-2.02-2.4-.95.86c-.74.58-.89,1.64-.34,2.41.59.67,1.57.71,2.41-.05Z"/>
      <path class="cls-1" d="M20.85,6.92c-2.09-1.12-5.31-2.33-7.92-2.33-3.98,0-6.51,2-6.51,4.68,0,2.97,3.17,4.63,7.31,6.14,7.55,2.87,10.29,6.34,10.18,10.81-.16,6.02-5.64,9.4-12.1,9.35-5.07-.05-9.04-1.9-11.23-3.65l2.11-3.95c1.94,1.41,5.22,3.12,8.85,3.12,3.82,0,7.16-1.9,7.16-4.75,0-3.36-3.63-4.75-8.4-6.82C4.6,17.05,1.12,14.27,1.12,9.26,1.12,4.76,4.85,0,12.45,0,16.15,0,20.51,1.59,22.54,2.65l-1.69,4.27Z"/>
      <path class="cls-1" d="M39.07,23.58v11.29h-5.2V.93c15.71-2.73,22.77,2.64,22.77,10.86,0,7.8-6.22,12.47-17.57,11.79ZM39.07,19.05c8.45.59,12.15-2.38,12.15-7.31,0-4.48-3.33-7.74-12.15-6.62v13.93Z"/>
      <path class="cls-1" d="M87.5,30.6v4.27h-21.66V.69h21.02v4.34h-15.82v10.3h13.07v4.29h-13.07v10.98h16.45Z"/>
      <path class="cls-1" d="M126.31,30.3c-2.38,2.29-6.26,5.28-13.77,5.28-10.29,0-18.14-7.74-18.14-17.83,0-10.73,8.7-17.75,18.39-17.75,4.9-.1,9.66,1.7,13.27,5.02l-3.13,3.65c-1.99-1.8-5.52-4.14-10.04-4.14-7.21,0-12.82,5.81-12.82,13.21s5.21,13.25,12.87,13.25c3.77-.09,7.38-1.52,10.18-4.05l3.18,3.35Z"/>
      <path class="cls-1" d="M30.53,59.59c-1.43,1.49-3.44,2.28-5.5,2.19-4.11,0-7.24-3.22-7.24-7.4-.09-3.99,3.06-7.3,7.05-7.39.1,0,.19,0,.29,0,1.97-.02,3.87.74,5.28,2.11l-1.25,1.52c-1.07-1.06-2.5-1.68-4.01-1.72-2.88,0-5.12,2.41-5.12,5.49s2.09,5.51,5.14,5.51c1.52-.04,2.97-.64,4.07-1.68l1.29,1.38Z"/>
      <path class="cls-1" d="M40.49,47.02c4.08-.05,7.44,3.22,7.48,7.31s-3.22,7.44-7.31,7.48c-4.08.05-7.44-3.22-7.48-7.31,0-.03,0-.06,0-.09-.09-3.99,3.07-7.3,7.07-7.39.08,0,.16,0,.24,0ZM40.49,59.9c2.72,0,5.08-2.19,5.08-5.47s-2.36-5.56-5.08-5.56-5.06,2.25-5.06,5.54,2.32,5.46,5.06,5.46v.03Z"/>
      <path class="cls-1" d="M51.95,61.49v-14.26l.59-.16,6.12,8.16,6.1-8.16.59.16v14.26h-2.06v-9.26l-4.53,6.15h-.22l-4.53-6.09v9.19h-2.06Z"/>
      <path class="cls-1" d="M72.4,56.79v4.7h-2.09v-14.12c6.28-1.13,9.09,1.1,9.09,4.52,0,3.24-2.48,5.16-7,4.9ZM72.4,54.91c3.38.24,4.86-.99,4.86-3.04,0-1.86-1.33-3.22-4.86-2.76v5.79Z"/>
      <path class="cls-1" d="M80.7,61.49l6.44-14.38h.71l6.34,14.38h-2.3l-1.31-2.89h-6.29l-1.31,2.89h-2.28ZM85.05,56.83h4.78l-2.38-5.67-2.4,5.67Z"/>
      <path class="cls-1" d="M108.99,47.27v14.26l-.48.14-8.82-9.85v9.66h-2.04v-14.26l.48-.16,8.82,9.9v-9.7h2.04Z"/>
      <path class="cls-1" d="M124.67,47.27l-5.02,8.17v6.05h-2.11v-6.05l-4.98-8.17h2.46l3.63,5.96,3.65-5.96h2.37Z"/>
    </g>
  </g>
</svg>