<?xml version="1.0" encoding="UTF-8"?><svg id="_レイヤー_2" xmlns="http://www.w3.org/2000/svg" viewBox="0 0 107.95574 36.7754"><defs><style>.cls-1{fill:#fff;stroke-width:0px;}</style></defs><g id="_背景"><path class="cls-1" d="M19.35332,36.11003h-3.66721v-3.03736h-.08108c-1.46698,2.20539-3.74879,3.70273-6.4783,3.70273-5.82664,0-9.12673-4.95018-9.12673-10.52511,0-5.32503,3.46325-10.19191,9.00435-10.19191,2.81109,0,5.0929,1.49735,6.60067,3.82667h.08108v-3.24459h3.66721v19.46957ZM15.89007,26.37524c0-3.78603-2.24102-6.98897-6.19326-6.98897-3.78908,0-6.0301,3.36954-6.0301,6.98897,0,3.66108,2.15943,7.07227,6.0301,7.07227,3.99304,0,6.19326-3.24459,6.19326-7.07227Z"/><path class="cls-1" d="M26.46388,0h3.66671v19.88505h.08158c1.50777-2.32932,3.78958-3.82667,6.64146-3.82667,5.50031,0,8.96356,4.86688,8.96356,10.19191,0,5.57492-3.2593,10.52511-9.12673,10.52511-2.68872,0-5.01132-1.49735-6.4783-3.70273h-.08158v3.03736h-3.66671V0ZM42.15048,26.37524c0-3.78603-2.24102-6.98897-6.19326-6.98897-3.78908,0-6.0301,3.36954-6.0301,6.98897,0,3.66108,2.15943,7.07227,6.0301,7.07227,3.99304,0,6.19326-3.24459,6.19326-7.07227Z"/><path class="cls-1" d="M71.026,26.41689c0,5.86545-4.48153,10.35851-10.1858,10.35851s-10.1863-4.49306-10.1863-10.35851,4.48203-10.35851,10.1863-10.35851,10.1858,4.49306,10.1858,10.35851ZM54.32111,26.41689c0,3.66108,2.89268,6.78072,6.51909,6.78072,3.62592,0,6.51909-3.11964,6.51909-6.78072,0-3.70273-2.89317-6.78072-6.51909-6.78072-3.62642,0-6.51909,3.07799-6.51909,6.78072Z"/><path class="cls-1" d="M80.48652,16.64046v10.775c0,3.11964.77403,5.86545,4.40045,5.86545s4.40045-2.74581,4.40045-5.86545v-10.775h3.66671v11.19048c0,5.32503-2.44447,8.94446-8.06716,8.94446s-8.06716-3.61943-8.06716-8.94446v-11.19048h3.66671Z"/><path class="cls-1" d="M104.37062,36.11003h-3.66721v-15.97508h-1.99627v-3.49449h1.99627v-7.44712h3.66721v7.44712h3.58513v3.49449h-3.58513v15.97508Z"/></g></svg>