<?xml version="1.0" encoding="UTF-8"?><svg id="_レイヤー_2" xmlns="http://www.w3.org/2000/svg" viewBox="0 0 67.87431 11.7041"><defs><style>.cls-1{fill:#fff;}</style></defs><g id="_メニュー"><path class="cls-1" d="M.91895,0c.50488,0,.91895.41504.91895.91895s-.41406.91797-.91895.91797-.91895-.41406-.91895-.91797.41406-.91895.91895-.91895ZM1.56641,3.74512v7.47266H.27148V3.74512h1.29492Z"/><path class="cls-1" d="M5.37695,3.74512h1.29688v.86426c.23438-.30566.90039-1.04395,2.14258-1.04395.88281,0,1.69238.36035,2.14258,1.02637.37793.55859.43164,1.16992.43164,1.99902v4.62695h-1.2959v-4.5918c0-.44922-.03613-.97168-.34277-1.36816-.25195-.32422-.64746-.54004-1.22363-.54004-.4502,0-.93652.12598-1.31445.57617-.50488.59375-.54004,1.47656-.54004,2.0166v3.90723h-1.29688V3.74512Z"/><path class="cls-1" d="M15.83398,0c.50391,0,.91797.41504.91797.91895s-.41406.91797-.91797.91797-.91895-.41406-.91895-.91797.41504-.91895.91895-.91895ZM16.48242,3.74512v7.47266h-1.29688V3.74512h1.29688Z"/><path class="cls-1" d="M21.69531,4.93359v6.28418h-1.2959v-6.28418h-.79199v-1.18848h.79199V1.04492h1.2959v2.7002h1.29688v1.18848h-1.29688Z"/><path class="cls-1" d="M26.39648,0c.50391,0,.91895.41504.91895.91895s-.41504.91797-.91895.91797-.91797-.41406-.91797-.91797.41406-.91895.91797-.91895ZM27.04492,3.74512v7.47266h-1.29688V3.74512h1.29688Z"/><path class="cls-1" d="M36.58203,3.74512h1.29688v7.47266h-1.29688v-1.04395c-.43164.55762-1.24219,1.25977-2.55664,1.25977-1.89062,0-3.63672-1.33203-3.63672-3.96094,0-2.5752,1.72852-3.90723,3.63672-3.90723,1.44141,0,2.21484.79199,2.55664,1.24219v-1.0625ZM31.7207,7.47266c0,1.60254.90039,2.80859,2.44922,2.80859,1.58398,0,2.48438-1.31445,2.48438-2.79102,0-1.92578-1.33203-2.77246-2.48438-2.77246-1.2793,0-2.44922.93652-2.44922,2.75488Z"/><path class="cls-1" d="M43.14844,4.93359v6.28418h-1.2959v-6.28418h-.79199v-1.18848h.79199V1.04492h1.2959v2.7002h1.29688v1.18848h-1.29688Z"/><path class="cls-1" d="M47.85059,0c.50488,0,.91895.41504.91895.91895s-.41406.91797-.91895.91797-.91895-.41406-.91895-.91797.41406-.91895.91895-.91895ZM48.49805,3.74512v7.47266h-1.29492V3.74512h1.29492Z"/><path class="cls-1" d="M52.75879,3.74512l2.2334,5.04199,2.23242-5.04199h1.43945l-3.67188,7.95898-3.67383-7.95898h1.44043Z"/><path class="cls-1" d="M67.81641,9.30957c-.21484.41406-.53906.86426-.91797,1.20605-.68359.6123-1.5293.91797-2.48438.91797-1.80078,0-3.69141-1.13379-3.69141-3.90723,0-2.23242,1.36914-3.96094,3.61914-3.96094,1.45898,0,2.37695.7207,2.82715,1.36816.46777.66699.73828,1.81934.70215,2.80957h-5.81641c.01855,1.54785,1.08105,2.53809,2.37695,2.53809.61328,0,1.09863-.17969,1.53125-.54004.3418-.28809.61133-.66602.77344-1.02637l1.08008.59473ZM66.53906,6.66211c-.2168-1.16992-1.09863-1.94434-2.19727-1.94434-1.09766,0-1.99805.82812-2.19629,1.94434h4.39355Z"/></g></svg>