<?xml version="1.0" encoding="UTF-8"?><svg id="_レイヤー_2" xmlns="http://www.w3.org/2000/svg" viewBox="0 0 172.25522 31.20048"><defs><style>.cls-1{fill:#fff;stroke-width:0px;}</style></defs><g id="_背景"><path class="cls-1" d="M15.48265,6.11535c-1.46698-1.70559-3.25979-2.62086-5.45952-2.62086-3.58562,0-6.35642,3.24459-6.35642,6.82237,0,3.99326,2.73001,6.90567,6.60067,6.90567,2.11864,0,3.82987-.99857,5.21527-2.57922v4.7846c-1.67044.91527-3.34088,1.2891-5.25606,1.2891C4.60391,20.71702,0,16.30726,0,10.48346,0,4.45141,4.56311,0,10.43054,0c1.71123,0,3.58513.41548,5.05211,1.2891v4.82625Z"/><path class="cls-1" d="M40.74718,10.35851c0,5.86545-4.48153,10.35851-10.1858,10.35851s-10.1863-4.49306-10.1863-10.35851S24.85711,0,30.56138,0s10.1858,4.49306,10.1858,10.35851ZM24.04229,10.35851c0,3.66108,2.89268,6.78072,6.51909,6.78072,3.62592,0,6.51909-3.11964,6.51909-6.78072,0-3.70273-2.89317-6.78072-6.51909-6.78072-3.62642,0-6.51909,3.07799-6.51909,6.78072Z"/><path class="cls-1" d="M50.37484,3.03634h.08158c1.05907-1.70559,2.97426-3.03634,5.05211-3.03634,2.48576,0,4.27808,1.2891,5.50081,3.45284,1.18145-2.08044,3.46325-3.45284,5.86693-3.45284,5.01182,0,6.31563,3.99326,6.31563,8.40302v11.64862h-3.66721v-11.0249c0-2.49592-.32583-5.69886-3.54483-5.69886-3.91145,0-4.19649,4.15986-4.19649,7.15557v9.56819h-3.66721v-10.31686c0-2.53858-.12188-6.4069-3.50404-6.4069-3.91145,0-4.23728,4.11821-4.23728,7.15557v9.56819h-3.66721V.58208h3.66721v2.45427Z"/><path class="cls-1" d="M84.03533,3.82667h.08158c1.50777-2.32932,3.78908-3.82667,6.64146-3.82667,5.50031,0,8.96356,4.86688,8.96356,10.19191,0,5.57492-3.2593,10.52511-9.12673,10.52511-2.68922,0-5.01132-1.49735-6.4783-3.70273h-.08158v14.18619h-3.66671V.58208h3.66671v3.24459ZM96.05523,10.31686c0-3.78603-2.24102-6.98897-6.19326-6.98897-3.78908,0-6.0301,3.36954-6.0301,6.98897,0,3.66108,2.15943,7.07227,6.0301,7.07227,3.99304,0,6.19326-3.24459,6.19326-7.07227Z"/><path class="cls-1" d="M124.1199,20.05164h-3.66721v-3.03736h-.08108c-1.46698,2.20539-3.74879,3.70273-6.4783,3.70273-5.82664,0-9.12673-4.95018-9.12673-10.52511,0-5.32503,3.46325-10.19191,9.00435-10.19191,2.81109,0,5.0929,1.49735,6.60067,3.82667h.08108V.58208h3.66721v19.46957ZM120.65665,10.31686c0-3.78603-2.24102-6.98897-6.19326-6.98897-3.78908,0-6.0301,3.36954-6.0301,6.98897,0,3.66108,2.15943,7.07227,6.0301,7.07227,3.99304,0,6.19326-3.24459,6.19326-7.07227Z"/><path class="cls-1" d="M135.03198,3.20294h.08158c1.14065-2.08044,3.42246-3.20294,5.74456-3.20294,5.37844,0,6.76384,3.70172,6.76384,8.44467v11.60698h-3.66721v-11.14883c0-3.3289-.4482-5.57492-4.19649-5.57492-4.72628,0-4.72628,4.24316-4.72628,7.77929v8.94446h-3.66721V.58208h3.66721v2.62086Z"/><path class="cls-1" d="M151.43492.58208h4.27808l6.43801,12.35565,5.98931-12.35565h4.11491l-15.44186,30.6184h-4.1562l7.49708-14.47672L151.43492.58208Z"/></g></svg>