<?xml version="1.0" encoding="UTF-8"?><svg id="_レイヤー_2" xmlns="http://www.w3.org/2000/svg" viewBox="0 0 136.6676 27.58206"><defs><style>.cls-1{fill:#fff;stroke-width:0px;}</style></defs><g id="_背景"><path class="cls-1" d="M15.48265,12.98039c-1.46698-1.70559-3.25979-2.62086-5.45952-2.62086-3.58562,0-6.35642,3.24459-6.35642,6.82237,0,3.99326,2.73001,6.90567,6.60067,6.90567,2.11864,0,3.82987-.99857,5.21527-2.57922v4.7846c-1.67044.91527-3.34088,1.2891-5.25606,1.2891-5.62268,0-10.22659-4.40976-10.22659-10.23356C0,11.31645,4.56311,6.86504,10.43054,6.86504c1.71123,0,3.58513.41548,5.05211,1.2891v4.82625Z"/><path class="cls-1" d="M40.74718,17.22355c0,5.86545-4.48153,10.35851-10.1858,10.35851s-10.1863-4.49306-10.1863-10.35851,4.48203-10.35851,10.1863-10.35851,10.1858,4.49306,10.1858,10.35851ZM24.04229,17.22355c0,3.66108,2.89268,6.78072,6.51909,6.78072,3.62592,0,6.51909-3.11964,6.51909-6.78072,0-3.70273-2.89317-6.78072-6.51909-6.78072-3.62642,0-6.51909,3.07799-6.51909,6.78072Z"/><path class="cls-1" d="M50.43602,10.06798h.08158c1.14065-2.08044,3.42246-3.20294,5.74456-3.20294,5.37844,0,6.76384,3.70172,6.76384,8.44467v11.60698h-3.66721v-11.14883c0-3.3289-.4482-5.57492-4.19649-5.57492-4.72628,0-4.72628,4.24316-4.72628,7.77929v8.94446h-3.66721V7.44712h3.66721v2.62086Z"/><path class="cls-1" d="M74.43006,26.91668h-3.66721v-15.97508h-1.99627v-3.49449h1.99627V0h3.66721v7.44712h3.58513v3.49449h-3.58513v15.97508Z"/><path class="cls-1" d="M100.74022,26.91668h-3.66721v-3.03736h-.08108c-1.46698,2.20539-3.74879,3.70273-6.4783,3.70273-5.82664,0-9.12673-4.95018-9.12673-10.52511,0-5.32503,3.46325-10.19191,9.00435-10.19191,2.81109,0,5.0929,1.49735,6.60067,3.82667h.08108v-3.24459h3.66721v19.46957ZM97.27697,17.1819c0-3.78603-2.24102-6.98897-6.19326-6.98897-3.78908,0-6.0301,3.36954-6.0301,6.98897,0,3.66108,2.15943,7.07227,6.0301,7.07227,3.99304,0,6.19326-3.24459,6.19326-7.07227Z"/><path class="cls-1" d="M122.22462,12.98039c-1.46698-1.70559-3.25979-2.62086-5.45952-2.62086-3.58562,0-6.35642,3.24459-6.35642,6.82237,0,3.99326,2.73001,6.90567,6.60067,6.90567,2.11864,0,3.82987-.99857,5.21527-2.57922v4.7846c-1.67044.91527-3.34088,1.2891-5.25606,1.2891-5.62268,0-10.22659-4.40976-10.22659-10.23356,0-6.03205,4.56311-10.48346,10.43054-10.48346,1.71123,0,3.58513.41548,5.05211,1.2891v4.82625Z"/><path class="cls-1" d="M133.08247,26.91668h-3.66721v-15.97508h-1.99627v-3.49449h1.99627V0h3.66721v7.44712h3.58513v3.49449h-3.58513v15.97508Z"/></g></svg>