<?xml version="1.0" encoding="UTF-8"?><svg id="_レイヤー_2" xmlns="http://www.w3.org/2000/svg" viewBox="0 0 381.94922 340.02051"><defs><style>.cls-1{fill:#fff;}.cls-2{fill:#a0afb5;}</style></defs><g id="_レイヤー_1-2"><circle class="cls-1" cx="190.88625" cy="133.76022" r="95.4071"/><path class="cls-2" d="M189.57118,88.54895c9.62665,0,18.37551,1.41316,24.73765,3.69541,6.79596,2.43749,10.99919,5.97912,10.99919,10.04595s-4.20323,7.60847-10.99919,10.04741c-6.36215,2.28225-15.11101,3.69396-24.73766,3.69396s-18.37551-1.41171-24.73766-3.69396c-6.79451-2.43894-10.99774-5.98057-10.99774-10.04741s4.20322-7.60847,10.99774-10.04595c6.36215-2.28225,15.11101-3.69541,24.73765-3.69541h.00001ZM213.34545,94.93141c-6.05311-2.17198-14.45665-3.5155-23.77427-3.5155s-17.72116,1.34353-23.77427,3.5155c-5.6193,2.01673-9.09418,4.62834-9.09418,7.35891s3.47488,5.34362,9.09418,7.36036c6.05311,2.17053,14.45666,3.51405,23.77427,3.51405s17.72115-1.34353,23.77427-3.51405c5.6193-2.01673,9.09562-4.62979,9.09562-7.36036s-3.47634-5.34217-9.09562-7.35891Z"/><path class="cls-2" d="M168.53764,120.33067c.76172.21764,1.20278,1.00982.98661,1.77009-.21764.76027-1.00982,1.20134-1.77009.98515-.58761-.1683-1.18102-.35111-1.77879-.54698-.53828-.17701-1.09977-.37578-1.68158-.59341-.73995-.27422-1.11574-1.09687-.84006-1.83682.27567-.73851,1.09687-1.11428,1.83682-.84007.46718.17556.99096.35837,1.56986.54843.52087.1712,1.08091.34241,1.67723.51361h0Z"/><path class="cls-2" d="M222.44107,121.92811c0-.79218.64129-1.43348,1.43348-1.43348s1.43348.64129,1.43348,1.43348c0,4.06684-4.20323,7.60847-10.99919,10.04596-6.36215,2.2837-15.11101,3.69541-24.73766,3.69541s-18.37551-1.41171-24.73766-3.69541c-6.79451-2.43749-10.99774-5.97912-10.99774-10.04595,0-.79218.64129-1.43348,1.43348-1.43348.79073,0,1.43348.64129,1.43348,1.43348,0,2.73058,3.47488,5.34217,9.09418,7.35891,6.05311,2.17198,14.45666,3.5155,23.77427,3.5155s17.72115-1.34353,23.77427-3.5155c5.6193-2.01673,9.09562-4.62834,9.09562-7.35891h.00001Z"/><path class="cls-2" d="M168.53764,139.99312c.76172.21619,1.20278,1.00837.98661,1.76864-.21764.76172-1.00982,1.20279-1.77009.98661-.58761-.16975-1.18102-.35256-1.77879-.54843-.53828-.17701-1.09977-.37433-1.68158-.59196-.73995-.27567-1.11574-1.09833-.84006-1.83682.27567-.73996,1.09687-1.11573,1.83682-.84007.46718.17556.99096.35837,1.56986.54843.52087.1712,1.08091.34241,1.67723.51361h0Z"/><path class="cls-2" d="M199.84202,151.89622c.78638-.08995,1.49586.47298,1.58438,1.25938.08995.78493-.47445,1.49441-1.25937,1.58436-1.67287.19152-3.4183.3395-5.2261.43961-1.7904.10011-3.58515.1509-5.36974.1509-9.62665,0-18.37551-1.41173-24.73766-3.69396-6.79451-2.43894-10.99774-5.98057-10.99774-10.04741,0-.79073.64129-1.43348,1.43348-1.43348.79073,0,1.43348.64275,1.43348,1.43348,0,2.73057,3.47488,5.34362,9.09418,7.35891,6.05311,2.17198,14.45666,3.5155,23.77427,3.5155,1.81506,0,3.55612-.04788,5.21305-.13929,1.7164-.09576,3.40524-.2394,5.0578-.42801h-.00002Z"/><path class="cls-2" d="M168.53764,159.65411c.76172.21762,1.20278,1.00982.98661,1.77009-.21764.76027-1.00982,1.20134-1.77009.98515-.58761-.1683-1.18102-.35112-1.77879-.54698-.53973-.177-1.09977-.37578-1.68158-.59341-.73995-.27567-1.11574-1.09687-.84006-1.83683.27567-.73851,1.09687-1.11429,1.83682-.84006.46718.17556.99096.35836,1.56986.54844.52087.1712,1.08091.3424,1.67723.51362v-.00002Z"/><path class="cls-2" d="M199.00051,171.65153c.78638-.08125,1.48716.4904,1.56841,1.27679.0798.78493-.49185,1.48715-1.27678,1.56696-1.5539.1625-3.16004.28583-4.8068.36998-1.65691.08415-3.29787.12767-4.91416.12767-9.62665,0-18.37551-1.41173-24.73766-3.69541-6.79451-2.43748-10.99774-5.97912-10.99774-10.04595,0-.79219.64129-1.43349,1.43348-1.43349.79073,0,1.43348.64129,1.43348,1.43349,0,2.73058,3.47488,5.34218,9.09418,7.35892,6.05311,2.17197,14.45666,3.51551,23.77427,3.51551,1.67433,0,3.26885-.04062,4.77923-.11607,1.58292-.08125,3.13538-.20168,4.6501-.35836v-.00004Z"/><path class="cls-2" d="M156.70274,161.25154c0,.79073-.64275,1.43349-1.43348,1.43349-.79219,0-1.43348-.64273-1.43348-1.43349v-58.96123c0-.79073.64129-1.43348,1.43348-1.43348.79073,0,1.43348.64275,1.43348,1.43348v58.96123Z"/><path class="cls-2" d="M225.30803,133.57148c0,.79073-.64129,1.43348-1.43348,1.43348s-1.43348-.64275-1.43348-1.43348v-31.28117c0-.79073.64129-1.43348,1.43348-1.43348s1.43348.64275,1.43348,1.43348v31.28117Z"/><path class="cls-2" d="M222.84274,145.55902c4.43249,0,8.44484,1.79678,11.35007,4.70068,2.90522,2.90523,4.702,6.9189,4.702,11.35007,0,4.43248-1.79678,8.44617-4.702,11.35007-2.90522,2.90523-6.91758,4.70201-11.35007,4.70201s-8.44484-1.79678-11.35007-4.70201c-2.90522-2.9039-4.702-6.91757-4.702-11.35007,0-4.43117,1.79678-8.44484,4.702-11.35007,2.90522-2.9039,6.91758-4.70068,11.35007-4.70068ZM232.34715,152.10667c-2.43226-2.43226-5.79328-3.93705-9.50441-3.93705-3.71245,0-7.07215,1.5048-9.50441,3.93705-2.43226,2.43226-3.93705,5.79196-3.93705,9.50308,0,3.71245,1.5048,7.07215,3.93705,9.50441,2.43226,2.43226,5.79196,3.93704,9.50441,3.93704,3.71113,0,7.07215-1.50481,9.50441-3.93704,2.43226-2.43226,3.93705-5.79196,3.93705-9.50441,0-3.71114-1.5048-7.07084-3.93705-9.50308Z"/><path class="cls-2" d="M246.84554,178.8588l-6.71545,6.71546c-.50997.50864-1.33569.50864-1.84566,0l-2.49039-2.49171c-1.06617.64473-2.18387,1.21151-3.34517,1.69372-1.13752.47298-2.32392.86405-3.5526,1.16922v3.51693c0,.72136-.58527,1.30531-1.3053,1.30531h-9.49649c-.72135,0-1.3053-.58395-1.3053-1.30531v-3.51693c-1.22868-.30386-2.41508-.69624-3.5526-1.16922-1.16129-.48223-2.279-1.04901-3.34517-1.69372l-2.49039,2.49171c-.50997.50864-1.33701.50864-1.84566,0l-6.71545-6.71546c-.50997-.50997-.50997-1.33569,0-1.84566l2.50095-2.50096c-.63812-1.06221-1.20226-2.1799-1.68184-3.34386-.47034-1.13884-.86008-2.32259-1.15997-3.54335h-3.54731c-.72135,0-1.3053-.58526-1.3053-1.30531v-9.49649c0-.72136.58395-1.30531,1.3053-1.30531h3.56448c.30387-1.21943.69493-2.3979,1.16659-3.53146.4809-1.15469,1.04636-2.26711,1.68712-3.32667l-2.53002-2.53002c-.50997-.50997-.50997-1.33701,0-1.84566l6.71545-6.71545c.50865-.50997,1.33569-.50997,1.84566,0l2.53926,2.54058c1.05693-.63548,2.16934-1.19697,3.32667-1.67523,1.13091-.46902,2.30806-.85743,3.52221-1.15865v-3.59619c0-.72003.58395-1.3053,1.3053-1.3053h9.49649c.72003,0,1.3053.58527,1.3053,1.3053v3.59619c1.21414.30122,2.38997.68965,3.52089,1.15733,1.15865.47958,2.26975,1.04108,3.32667,1.67655l2.54058-2.54058c.50997-.50997,1.33569-.50997,1.84566,0l6.71545,6.71545c.50865.50865.50865,1.33569,0,1.84566l-2.53002,2.53002c.64076,1.05957,1.2049,2.17066,1.6858,3.32536.47166,1.13356.86404,2.31336,1.16791,3.53277h3.56448c.72135,0,1.3053.58395,1.3053,1.30531v9.49649c0,.72003-.58395,1.30531-1.3053,1.30531h-3.54731c-.30122,1.22074-.68965,2.40452-1.15997,3.54202-.47958,1.16527-1.04372,2.28165-1.68316,3.34517l2.50227,2.50096c.50865.50997.50865,1.33569,0,1.84566l.00002.00002ZM239.20792,182.8051l4.86846-4.86846-2.31335-2.31336.00132-.00264c-.42937-.42806-.51261-1.11374-.16382-1.63955.79137-1.19698,1.46913-2.47056,2.02005-3.8023.52979-1.28284.9433-2.6225,1.22868-4.00311.07134-.65397.62491-1.16129,1.29738-1.16129h3.28176v-6.88588h-3.29761v-.00397c-.60509,0-1.14809-.42409-1.27359-1.04106-.28934-1.41232-.71475-2.78367-1.26303-4.09955-.54432-1.30662-1.20886-2.55248-1.9791-3.72038-.38842-.51261-.35011-1.24585.11758-1.71354l2.34374-2.34374-4.86846-4.86846-2.35298,2.35166-.00132-.00132c-.42937.42937-1.11506.51261-1.63955.16514-1.19301-.78873-2.46-1.46517-3.78643-2.01345-1.27756-.52979-2.60928-.9433-3.98329-1.22868-.65133-.07266-1.15865-.62491-1.15865-1.29738v-3.32799h-6.88587v3.32799h-.00528c.00132.60773-.42673,1.15205-1.04504,1.27491-1.41232.2867-2.78104.70814-4.09427,1.25113-1.30002.53903-2.54323,1.19961-3.71509,1.96852-.51129.3871-1.24321.34747-1.70958-.1189l-2.35298-2.35166-4.86846,4.86846,2.34374,2.34374-.00132.00264c.42937.42805.51261,1.11374.16514,1.63955-.79005,1.18904-1.47177,2.45866-2.02665,3.79305-.53375,1.28417-.95256,2.61986-1.24057,3.99649-.07795.64604-.62887,1.14676-1.29606,1.14676h-3.29629v6.88588h3.28176v.00528c.60773-.00133,1.15073.42673,1.27491,1.04504.28537,1.42024.70682,2.7969,1.25113,4.11408.54035,1.30795,1.20358,2.55644,1.97513,3.7336.38842.51261.34879,1.24453-.11758,1.7109l-2.31335,2.31336,4.86846,4.86846,2.30542-2.30541.00132.00264c.42937-.4307,1.11506-.51394,1.64087-.16514,1.19433.7927,2.46925,1.47574,3.81022,2.03326,1.28945.53507,2.6291.95255,4.00443,1.23925.65266.07265,1.15997.62492,1.15997,1.29737v3.25006h6.88587v-3.25006h.00528c-.00132-.60774.42673-1.15204,1.04504-1.27491,1.41364-.28668,2.79028-.71211,4.11408-1.26302,1.31456-.54563,2.56569-1.21282,3.7402-1.98571.51129-.38974,1.24453-.35011,1.71222.11626l2.30542,2.30541-.00002.00002Z"/><path class="cls-1" d="M89.40332,260.02197c-.77539,2.04688-1.73633,4.12402-2.79004,6.1084v21.7041h-3.47266v-16.18506c-.62012.8374-1.24023,1.6123-1.8916,2.29443-.34082-.86816-1.30273-2.82129-1.8916-3.7207,2.66699-2.69727,5.20898-6.97656,6.72852-11.25488l3.31738,1.05371ZM103.01465,265.23096v3.87598h5.24023v17.89062h-3.53418v-1.58154h-12.27832v1.76709h-3.41113v-18.07617h4.99219v-3.87598h-5.30176v-3.28613h19.68848v3.28613h-5.39551ZM92.44238,282.25342h1.92188v-9.95312h-1.92188v9.95312ZM97.46484,272.30029v9.95312h2.07715v-9.95312h-2.07715ZM99.54199,265.23096h-2.0459v3.87598h2.0459v-3.87598ZM104.7207,272.30029h-2.07715v9.95312h2.07715v-9.95312Z"/><path class="cls-1" d="M123.47266,260.11523c-.80566,2.13916-1.8291,4.31006-2.97656,6.38721v21.30078h-3.50391v-15.84375c-.68164.89941-1.39551,1.73633-2.1084,2.48047-.34082-.89941-1.33301-2.94531-1.95312-3.81348,2.79102-2.79102,5.45703-7.19336,7.03809-11.62744l3.50391,1.11621ZM142.35547,286.43896h-15.81348v1.39551h-3.41016v-19.44043h3.41016v14.88281h15.81348v3.16211ZM131.37891,266.59521c.0625-.52686.12402-1.11621.18652-1.70508h-7.7207v-3.1626h7.96875c.06152-.96143.12402-1.92236.1543-2.79053l3.69043.15527c-.0625.83691-.15527,1.73633-.24805,2.63525h6.75879v3.1626h-7.09961c-.09375.58887-.15527,1.17822-.24805,1.70508h6.07617v15.06934h-12.49512v-15.06934h2.97656ZM137.33203,269.26221h-5.51855v1.58105h5.51855v-1.58105ZM137.33203,273.32373h-5.51855v1.58105h5.51855v-1.58105ZM137.33203,277.38525h-5.51855v1.6123h5.51855v-1.6123Z"/><path class="cls-1" d="M159.08008,263.40186c2.94531-.15527,6.0459-.43408,8.77441-.89941l-.03125,3.59668c-2.94531.43457-6.75879.68262-10.10742.77539-.52734,1.14746-1.14746,2.26367-1.76758,3.1626.80664-.37207,2.48047-.62012,3.50391-.62012,1.89062,0,3.44141.80615,4.12305,2.38721,1.61328-.74414,2.91504-1.271,4.18652-1.8291,1.20898-.52734,2.29395-1.02344,3.44141-1.6123l1.5498,3.59668c-.99219.2793-2.63477.89941-3.68945,1.30225-1.39453.55811-3.16211,1.24023-5.05371,2.1084.03125,1.73633.09277,4.03076.12402,5.45703h-3.7207c.09277-.93018.12402-2.41846.15527-3.78271-2.3252,1.33301-3.56543,2.54248-3.56543,4.09277,0,1.70508,1.45703,2.17041,4.49512,2.17041,2.63574,0,6.07715-.34131,8.80566-.86816l-.12402,3.99951c-2.0459.2793-5.86035.52734-8.77441.52734-4.86816,0-8.46484-1.17822-8.46484-5.17773,0-3.96875,3.7207-6.44922,7.25586-8.27881-.46484-.7749-1.30273-1.0542-2.1709-1.0542-1.73633,0-3.6582.99219-4.83691,2.13965-.92969.92969-1.8291,2.0459-2.88281,3.41016l-3.31836-2.48047c3.25586-3.00732,5.45703-5.7666,6.85254-8.55762h-.40332c-1.27148,0-3.53418-.06152-5.24023-.18555v-3.62793c1.58203.24805,3.87598.37207,5.45703.37207h1.48828c.3418-1.24023.55859-2.44922.62109-3.56543l4.0918.34082c-.1543.77539-.37109,1.79834-.77441,3.10059Z"/><path class="cls-1" d="M183.3457,267.40186v-1.17871c-.83691.77539-1.73633,1.51953-2.75977,2.26367h12.40234v9.64258h-10.01465c-.0625.40332-.12402.8374-.2168,1.24023h10.69727v8.34082h-3.19434v-.86816h-5.23926v.96094h-3.10156v-5.11572c-.55762,1.64307-1.33301,3.22461-2.38672,4.52686-.46484-.62012-1.76758-1.8291-2.41895-2.20117,2.72852-3.56592,3.06934-8.52686,3.06934-12.03027v-4.2168c-.34082.2168-.68164.46484-1.02246.68164-.43457-.80566-1.48828-2.0459-2.20215-2.60449,3.69043-2.13916,6.32617-5.02246,7.7832-7.56543h3.28613c2.1709,1.6748,4.99219,3.96875,6.48047,5.58105l-2.35645,2.72852c-.43359-.49609-.99219-1.11621-1.64355-1.79785v1.6123h-7.16211ZM189.6709,275.55615v-1.17822h-6.38672c0,.37207-.03125.7749-.0625,1.17822h6.44922ZM183.31445,271.06006v1.11621h6.35645v-1.11621h-6.35645ZM189.63965,264.92139c-.89844-.86816-1.86035-1.76758-2.75977-2.48047-.65039.80566-1.36328,1.64307-2.16992,2.48047h4.92969ZM185.02051,282.00537v2.20117h5.23926v-2.20117h-5.23926ZM198.29004,280.11377h-3.47266v-17.45605h3.47266v17.45605ZM205.17383,259.52588v23.93652c0,2.04688-.40332,3.06982-1.64355,3.62793-1.17773.62012-3.10059.74414-5.7666.74414-.15527-1.02344-.68262-2.69727-1.20996-3.75195,1.86133.0625,3.65918.0625,4.24805.0625.55859,0,.77539-.18652.77539-.71338v-23.90576h3.59668Z"/><path class="cls-1" d="M218.11426,280.67236c1.27148,2.07715,3.59766,2.91406,6.82227,3.03809,3.62695.15527,10.60352.0625,14.72754-.24805-.40332.86816-.96191,2.66699-1.14746,3.7207-3.7207.18652-9.95312.24805-13.64258.09326-3.81348-.15479-6.35645-1.02295-8.37109-3.44189-1.36523,1.20947-2.72852,2.41895-4.43457,3.7207l-1.79785-3.84473c1.33301-.7749,2.88281-1.79785,4.24805-2.85254v-6.54199h-3.56641v-3.37988h7.16211v9.73633ZM215.97559,266.75049c-.96094-1.48828-3.16309-3.53467-4.99219-4.89893l2.72852-2.23242c1.86035,1.30225,4.12402,3.22461,5.17773,4.68213l-2.91406,2.44922ZM221.40137,268.146c-.74414-.55859-2.23242-1.3335-3.06934-1.73633,1.92188-1.70557,3.50293-4.43408,4.40234-7.19336l3.44238.7749c-.2793.80615-.58984,1.6123-.96191,2.38721h2.1709v-3.44141h3.6582v3.44141h6.75977v3.13184h-6.75977v2.63574h8.03125v3.06934h-19.9375v-3.06934h2.26367ZM223.50977,265.51025c-.65137.99219-1.33301,1.8916-2.0459,2.63574h5.92188v-2.63574h-3.87598ZM221.61816,281.94336v-9.02295h15.5957v9.02295h-15.5957ZM225.21484,278.99756h8.15527v-3.16211h-8.15527v3.16211Z"/><path class="cls-1" d="M262.04199,262.84375c0,.24805,0,.58936-.03125.96143,3.13086,0,7.37891-.0625,8.99121-.03125l-.03027,3.65869c-1.86133-.09326-4.74414-.15479-8.96094-.15479,0,1.58105.03125,3.28613.03125,4.65039.74414,1.17871,1.11523,2.63574,1.11523,4.24805,0,4.03076-2.35547,9.17773-9.92188,11.28613l-3.31738-3.28662c3.13184-.65088,5.86035-1.67432,7.56543-3.53467-.43359.09277-.89844.15527-1.39453.15527-2.3877,0-5.33398-1.92285-5.33398-5.70508,0-3.50391,2.82227-5.79834,6.20117-5.79834.43457,0,.83789.03076,1.24023.09326,0-.68262,0-1.39551-.03027-2.07764-4.68262.06201-9.51855.24805-13.33301.46533l-.09277-3.75195c3.53418,0,9.17773-.12402,13.39453-.18604-.03125-.40283-.03125-.71338-.06152-.96143-.09375-1.271-.21777-2.3252-.31055-2.69727h4.49609c-.0625.49609-.18652,2.17041-.2168,2.6665ZM256.86328,277.35449c1.30273,0,2.4502-.99219,2.01562-3.7207-.43457-.71338-1.17871-1.08545-2.01562-1.08545-1.20898,0-2.3877.8374-2.3877,2.48047,0,1.42676,1.14746,2.32568,2.3877,2.32568Z"/><path class="cls-1" d="M281.75488,261.69678c1.64355,0,8.2793-.12402,10.0459-.2793,1.27148-.12402,1.98438-.2168,2.35645-.34082l2.01562,2.75928c-.71289.46533-1.45703.89893-2.16992,1.42627-1.6748,1.17822-4.93066,3.90674-6.88379,5.45703,1.02344-.24805,1.95312-.34082,2.94531-.34082,5.27148,0,9.27051,3.28613,9.27051,7.81348,0,4.89844-3.7207,8.77441-11.22363,8.77441-4.30957,0-7.56543-1.98438-7.56543-5.08496,0-2.51172,2.26367-4.83691,5.5498-4.83691,3.84473,0,6.1709,2.35645,6.60449,5.30176,1.70508-.89893,2.57324-2.3252,2.57324-4.2168,0-2.79004-2.79004-4.68164-6.44922-4.68164-4.74316,0-7.84473,2.51172-11.16211,6.29395l-2.82129-2.91406c2.20117-1.76758,5.95312-4.93018,7.78223-6.44922,1.73633-1.42676,4.96094-4.03125,6.48047-5.36426-1.58105.03125-5.86035.2168-7.50293.31006-.83789.06201-1.83008.15479-2.54297.24805l-.12402-4.03076c.86816.12402,1.95312.15527,2.82129.15527ZM287.33594,283.43164c.65137,0,1.24023-.03076,1.79883-.09326-.18652-2.01514-1.33301-3.31738-3.00781-3.31738-1.17871,0-1.92285.71289-1.92285,1.48828,0,1.14746,1.27148,1.92236,3.13184,1.92236Z"/><path class="cls-1" d="M9.14746,328.20752c-2.1709,2.51123-4.68262,5.20898-6.79102,7.28613l-2.35645-3.13184c1.70605-1.67383,4.46484-4.52637,7.00781-7.34814l2.13965,3.19385ZM6.26367,320.20752c-1.08496-1.33301-3.50391-3.31738-5.42676-4.68164l2.66699-2.69727c1.8291,1.17773,4.34082,3.03809,5.51855,4.34082l-2.75879,3.03809ZM19.84375,323.09131c0,3.31738,1.86035,10.07715,9.45703,13.39453-.71289.89941-1.76758,2.41846-2.35645,3.37988-5.5498-2.54297-8.43359-8-9.02246-10.75928-.74414,2.75928-3.90723,8.03076-10.16992,10.75928-.43457-.86816-1.58105-2.41895-2.23242-3.10059,8.37109-3.34863,10.44824-10.20117,10.44824-13.64258v-3.19385h-2.48047c-.92969,2.20166-2.0459,4.15479-3.22461,5.67432-.74414-.58936-2.54199-1.58154-3.47266-2.01562,2.63574-2.85254,4.49609-7.62744,5.45703-12.58838l3.8457.71338c-.3418,1.5498-.74414,3.06934-1.24023,4.52637h10.66602l.71289-.18555,2.72852,1.58105c-.86816,3.10059-2.35645,6.29395-3.56641,8.52637-.74414-.43359-2.2627-1.17773-3.13086-1.51904.62012-1.17822,1.39453-2.9458,1.95312-4.71289h-4.37207v3.1626Z"/><path class="cls-1" d="M54.07715,331.46289v-1.24023h-4.1543v1.271h-3.7207v-9.58057h-4.2168v12.43311h19.34766v3.56592h-19.34766v1.95361h-3.81445v-17.95264h-4.40234v-3.56592h4.40234v-6.51074h3.81445v6.51074h4.2168v-7.19336h3.7207v7.19336h4.1543v-6.88281h3.7207v6.88281h4.58887v3.56592h-4.58887v9.5498h-3.7207ZM54.07715,326.78076v-4.86768h-4.1543v4.86768h4.1543Z"/><path class="cls-1" d="M78.38867,312.30127c-.80566,1.8916-1.7666,3.81348-2.88379,5.70508v21.79688h-3.84375v-16.27783c-1.05469,1.30225-2.10938,2.48047-3.22461,3.47266-.3418-.86816-1.39551-2.85254-2.04688-3.75146,3.34863-2.85254,6.60449-7.41064,8.46484-12.09277l3.53418,1.14746ZM86.88477,323.52539c.86816,6.8833,2.51074,11.47217,4.99121,11.78223.71387.06201,1.08594-1.48828,1.33398-4.93018.68164.80664,2.3252,1.73633,3.00781,2.1084-.77539,5.98438-2.4502,7.41064-4.18652,7.31738-5.23926-.49609-7.68945-6.3252-8.80566-15.78174l-6.10742.8374-.52734-3.56592,6.2627-.8374c-.2168-2.79004-.40332-5.8291-.49609-9.08447h3.75195c.06152,3.03857.18652,5.95312.40332,8.58838l8.83594-1.14697.52734,3.47266-8.99121,1.24023ZM92.43457,318.0376c-.77539-1.45752-2.63574-3.62793-4.24805-5.20898l2.75977-1.70557c1.64355,1.48828,3.56543,3.53467,4.46484,4.9917l-2.97656,1.92285Z"/><path class="cls-1" d="M102.03418,314.19287h14.07715v3.84473h-9.48828v5.30176h8.06152v3.84473h-8.06152v6.13916h9.8291v3.84473h-14.41797v-22.9751Z"/><path class="cls-1" d="M122.71973,314.19287h8c4.80566,0,8.61914,1.70508,8.61914,6.97607,0,3.44189-1.73633,5.58105-4.37109,6.604l5.36328,9.39502h-5.11523l-4.71289-8.68164h-3.19434v8.68164h-4.58887v-22.9751ZM130.28516,324.85889c2.94629,0,4.58887-1.24023,4.58887-3.68994,0-2.48047-1.64258-3.31787-4.58887-3.31787h-2.97656v7.00781h2.97656Z"/><path class="cls-1" d="M145.78906,314.19287h7.53418c5.08594,0,8.99219,1.79785,8.99219,7.22412,0,5.23975-3.9375,7.59619-8.86719,7.59619h-3.07031v8.15479h-4.58887v-22.9751ZM153.1377,325.38574c3.16211,0,4.68164-1.3335,4.68164-3.96875,0-2.6665-1.67383-3.56592-4.83691-3.56592h-2.60449v7.53467h2.75977Z"/><path class="cls-1" d="M177.15039,324.05225l-2.2627,3.47266c-1.76758-1.20898-4.99219-3.31738-7.07031-4.40234l2.26367-3.44189c2.07812,1.11621,5.48828,3.25537,7.06934,4.37158ZM179.66211,331.15283c5.27051-2.94531,9.58105-7.19336,12.06152-11.62695l2.38672,4.2168c-2.88281,4.27832-7.25488,8.21631-12.33984,11.13086-3.16211,1.79834-7.59668,3.34863-10.35547,3.84473l-2.32617-4.09277c3.47266-.58887,7.19336-1.6123,10.57324-3.47266ZM181.92578,317.04541l-2.3252,3.44141c-1.73633-1.20898-4.96094-3.31738-7.00781-4.46484l2.26367-3.41064c2.0459,1.11621,5.45703,3.31787,7.06934,4.43408Z"/><path class="cls-1" d="M219.41211,318.06836c-1.05371,2.41846-2.79004,5.73584-4.86816,8.52686,3.07031,2.66602,6.82227,6.63477,8.65137,8.86719l-3.53516,3.06982c-2.01465-2.79053-4.89844-5.95312-7.81348-8.7749-3.28613,3.47266-7.41016,6.69727-11.6582,8.71289l-3.19336-3.34863c4.99219-1.86035,9.79785-5.64307,12.71289-8.89844,2.0459-2.32568,3.9375-5.39551,4.61914-7.59668h-10.51074c-1.30176,0-3.00781.18604-3.65918.2168v-4.40234c.83789.12402,2.72852.2168,3.65918.2168h10.94531c1.33301,0,2.57324-.18604,3.19336-.40332l2.54199,1.8916c-.24805.34082-.80566,1.30225-1.08496,1.92236Z"/><path class="cls-1" d="M230.0293,321.51025h20.30859c.65137,0,2.01562-.0625,2.82129-.18652v4.03125c-.77539-.0625-1.95312-.09326-2.82129-.09326h-7.47266c-.18555,3.19385-.86816,5.79834-1.98438,7.96826-1.08496,2.13965-3.47266,4.55811-6.23145,5.95312l-3.62793-2.63525c2.20117-.8374,4.37207-2.63525,5.6123-4.43408,1.27051-1.92188,1.79785-4.24756,1.92188-6.85205h-8.52637c-.93066,0-2.1084.06201-2.97656.12402v-4.06201c.92969.09326,2.01465.18652,2.97656.18652ZM233.9668,313.60352h12.46387c1.05469,0,2.29492-.06201,3.34961-.21729v4c-1.05469-.06201-2.26367-.12402-3.34961-.12402h-12.43262c-1.08496,0-2.3877.06201-3.34863.12402v-4c1.02344.15527,2.29395.21729,3.31738.21729Z"/><path class="cls-1" d="M269.52832,317.23096c-.99219,3.03906-3.50391,10.91406-5.05371,15.06934,3.78223-.37207,8.18555-.86816,11.31738-1.24023-1.08594-2.23242-2.23242-4.31006-3.25586-5.67432l3.875-1.58154c2.20215,3.34863,5.36426,9.42578,6.79102,12.89844l-4.18555,1.86035c-.40332-1.05371-.89941-2.3252-1.48828-3.6582-5.02344.58887-14.41797,1.58105-18.3252,1.98438-.77441.09277-1.92188.24805-2.91406.37207l-.71387-4.52734c1.05469,0,2.3877,0,3.41113-.03076.24805,0,.55762-.03076.83691-.03076,1.79883-4.58887,4.46484-13.08496,5.36426-16.30957.43457-1.58105.62012-2.54199.74414-3.59668l4.92969,1.02344c-.40332.93018-.86816,2.07715-1.33301,3.44141Z"/><path class="cls-1" d="M302.1377,338.62549l-2.32617-3.68994c1.17871-.12402,2.04688-.31006,2.88379-.49609,3.96875-.93018,7.06934-3.78271,7.06934-8.30957,0-4.27881-2.3252-7.47217-6.51172-8.18555-.43359,2.63525-.96094,5.48779-1.85938,8.40283-1.86133,6.2627-4.52734,10.10742-7.90723,10.10742-3.44141,0-6.29395-3.78223-6.29395-9.02246,0-7.16211,6.20117-13.27051,14.23145-13.27051,7.68945,0,12.52637,5.33301,12.52637,12.09229,0,6.54248-4,11.16211-11.8125,12.37158ZM293.61035,331.68018c1.30273,0,2.51172-1.95361,3.7832-6.13965.71289-2.29395,1.30176-4.92969,1.64258-7.50293-5.11523,1.05371-7.875,5.58105-7.875,8.99121,0,3.13184,1.24023,4.65137,2.44922,4.65137Z"/><path class="cls-1" d="M341.2666,331.58691c1.79883,3.22461,4.12402,4.40283,7.10059,5.33301-.83691.7749-1.70508,1.98438-2.1084,3.06982-3.06934-1.17871-5.51855-2.75977-7.41016-6.1084-1.30273,2.48047-3.7832,4.68164-8.34082,6.13916-.34082-.74414-1.39551-2.13916-1.95312-2.72852,4.74414-1.48828,6.82129-3.50342,7.68945-5.70508h-5.67383v-8.55762h6.2627v-1.98438h-3.875v-1.58154c-.83789.58936-1.6748,1.08545-2.54297,1.51953-.2168-.52734-.52734-1.17822-.89941-1.79834v1.48828h-2.82129v1.48828c.83691,1.08545,3.00781,4.40283,3.47266,5.17822l-1.86035,2.85254c-.34082-.89941-.96094-2.23242-1.6123-3.53516v13.17773h-3.41016v-11.41016c-.80664,2.3252-1.76758,4.46484-2.82227,5.95312-.34082-.99219-1.11621-2.41846-1.67383-3.28662,1.79785-2.44971,3.47266-6.72803,4.27832-10.41797h-3.56543v-3.41064h3.7832v-6.35645h3.41016v6.35645h2.82129v.2168c3.00781-1.51904,5.70508-4.1543,7.19336-6.54199h3.34863c2.13965,2.97656,5.30273,5.58105,8.52734,6.79004-.68262.86816-1.39551,2.23242-1.8916,3.22461-.80664-.40283-1.64355-.89893-2.4502-1.42578v1.51904h-4.0918v1.98438h6.60352v8.55762h-5.48828ZM336.80176,328.76514c.03125-.34082.03125-.71289.03125-1.05371v-1.86035h-3.06934v2.91406h3.03809ZM342.22852,318.00635c-1.48828-1.20898-2.82129-2.60449-3.75195-3.90674-.86816,1.30225-2.13965,2.6665-3.59668,3.90674h7.34863ZM340.15137,325.85107v1.95312c0,.31006,0,.65137-.03125.96094h3.31738v-2.91406h-3.28613Z"/><path class="cls-1" d="M352.99023,316.02197h12.58789v2.91455h-12.58789v-2.91455ZM364.33789,338.22217h-6.75879v1.20898h-3.19336v-10.57275h9.95215v9.36377ZM354.47852,320.33154h9.95215v2.82178h-9.95215v-2.82178ZM354.47852,324.57959h9.95215v2.75977h-9.95215v-2.75977ZM364.49316,314.65771h-9.8291v-2.79053h9.8291v2.79053ZM357.5791,331.77295v3.56543h3.53418v-3.56543h-3.53418ZM381.94922,321.04492h-3.47266v14.23193c0,2.20117-.40332,3.22461-1.67383,3.81348-1.30273.62012-3.34863.74414-6.13965.74414-.1543-1.08496-.74414-2.82129-1.27148-3.90674,2.01562.09326,4,.09326,4.65137.09326.62012-.03125.83691-.18652.83691-.77539v-14.20068h-8.92969v-3.53467h8.92969v-6.57324h3.59668v6.57324h3.47266v3.53467ZM370.16699,331.95898c-.62012-1.95361-2.13867-4.96094-3.59668-7.1001l3.03906-1.51953c1.58105,2.13965,3.10059,4.96094,3.78223,6.8833l-3.22461,1.73633Z"/><path class="cls-1" d="M155.47363,2.90039c-.45996,4.30103-1.51953,7.66162-3.06055,10.24219,1.04004,1.48047,2.32031,2.68066,3.88086,3.50098-.41992.35986-1.01953,1.06006-1.28027,1.52002-1.48047-.85986-2.7207-1.98022-3.76074-3.3606-1.08008,1.38037-2.37988,2.46069-3.82031,3.3208-.26074-.44019-.76074-1.08032-1.16016-1.44019v1.64014h-1.80078v-3.42065c-2.4209.40015-4.88086.80005-6.74121,1.10034l-.33984-1.8606c.55957-.05981,1.17969-.15991,1.87988-.23999V2.92041h-1.45996v-1.72021h9.80176v1.44019h6.3418l.31934-.05981,1.2002.31982ZM141.05078,2.92041v2.32056h3.4209v-2.32056h-3.4209ZM141.05078,9.3418h3.4209v-2.44043h-3.4209v2.44043ZM144.47168,13.18262v-2.1604h-3.4209v2.64062l3.4209-.48022ZM146.27246,16.5835c1.47949-.78027,2.78027-1.96045,3.88086-3.48096-1.30078-2.30029-2.20117-5.08105-2.84082-8.22168l1.7998-.35986c.46094,2.48047,1.16016,4.78076,2.16113,6.76123,1-1.90039,1.74023-4.20068,2.16016-6.82129h-6.3418v-1.54053h-.81934v13.66309Z"/><path class="cls-1" d="M163.02734,5.82104c.87988-1.82031,2.80078-3.96069,5.2207-3.96069,2.7207,0,4.74121,2.68042,4.74121,6.98145,0,5.58105-3.48047,8.1416-8.58203,9.08203l-1.2002-1.82056c4.38086-.68018,7.66211-2.30054,7.66211-7.26147,0-3.12061-1.06055-5.16113-2.96094-5.16113-2.44043,0-4.66113,3.60059-4.84082,6.24121-.06055.66016-.06055,1.34033.08008,2.30054l-1.96094.14014c-.09961-.76025-.21973-1.92041-.21973-3.24072,0-1.88037.32031-4.62085.58008-6.44141.09961-.68018.13965-1.34033.16016-1.90039l2.18066.09985c-.34082,1.2605-.74023,3.68091-.86035,4.94116Z"/><path class="cls-1" d="M180.96094,11.72241c-.25977,1.88037-.7207,3.8208-1.34082,5.10107-.2998-.21997-1.04004-.5603-1.41992-.7002.60059-1.2002.98047-2.96069,1.18066-4.68091l1.58008.28003ZM183.32129,10.14209v8.2417h-1.66016v-8.1416c-1.14062.05981-2.2002.11987-3.12109.17993l-.16016-1.64038,1.40039-.04004c.38086-.47998.76074-1.00024,1.16016-1.5603-.62012-.88013-1.63965-1.96045-2.52051-2.80054l.90039-1.24023c.18066.15991.36035.31982.54004.47998.62012-1.1001,1.28027-2.54053,1.64062-3.62061l1.68066.6001c-.7207,1.36035-1.56055,2.94043-2.28125,4.02075.38086.40015.7207.80005.98047,1.1604.78027-1.20044,1.50098-2.44067,2.02051-3.48096l1.58008.68018c-1.13965,1.82031-2.64062,4.021-3.98047,5.68115l2.66016-.1001c-.25977-.56006-.54004-1.1001-.83984-1.6001l1.34082-.58008c.81934,1.30029,1.63965,3.00049,1.91992,4.10059l-1.41992.68018c-.08008-.31982-.2002-.69995-.36035-1.12012l-1.48047.1001ZM185.16211,11.34229c.54004,1.2002,1.08008,2.76074,1.2998,3.78076l-1.48047.52002c-.17969-1.04004-.71973-2.62036-1.21973-3.84082l1.40039-.45996ZM196.94434,16.12329v1.68042h-11.62207v-1.68042h1.97949V1.06006h8.20215v15.06323h1.44043ZM189.12305,2.74048v3.28052h4.50098v-3.28052h-4.50098ZM193.62402,7.70166h-4.50098v3.30054h4.50098v-3.30054ZM189.12305,16.12329h4.50098v-3.44067h-4.50098v3.44067Z"/><path class="cls-1" d="M205.13477,1.98022c1.08008,0,3.50098-.11987,4.38086-.17993.4209-.04004.86035-.12012,1.16113-.24023l1.25977,1.00049c-.24023.23975-.44043.47998-.60059.73999-.54004.88013-1.35938,2.7605-2.16016,4.56104,1.82031.23999,3.52051.80005,5.00098,1.48022.06055-.3999.10059-.78027.12012-1.14014.04004-.68018.04004-1.40039-.01953-1.98047l2.08008.22021c-.08008,1.38013-.2002,2.6604-.40039,3.80078.90039.52002,1.66113,1.02002,2.28125,1.46021l-.9209,2.1604c-.58008-.5-1.21973-1.00024-1.91992-1.50024-.84082,2.46045-2.38086,4.30103-5.18164,5.72119l-1.67969-1.38037c3.10059-1.32007,4.52051-3.3606,5.18066-5.3811-1.56055-.86011-3.36035-1.54028-5.30078-1.74023-.74023,1.74023-1.66016,3.92065-2.40039,5.06104-.76074,1.1001-1.60059,1.54028-2.78125,1.54028-1.59961,0-2.7998-1.12036-2.7998-2.96069,0-3.02051,2.75977-5.32104,6.7207-5.46118.66016-1.46021,1.34082-3.02075,1.88086-4.12085-.80078.02002-2.94043.12012-3.84082.16016-.41992.02002-1.06055.08008-1.56055.15991l-.08008-2.0603c.52051.06006,1.16016.07983,1.58008.07983ZM203.31445,14.14282c.41992,0,.74023-.17993,1.12012-.67993.64062-.86035,1.30078-2.44067,1.94043-3.90088-2.62012.27979-4.12012,1.88037-4.12012,3.38062,0,.80005.5,1.2002,1.05957,1.2002Z"/><path class="cls-1" d="M222.2168,9.56201c0-4.82129,1.83984-7.38184,4.76074-7.38184,2.94043,0,4.76074,2.58057,4.76074,7.38184,0,4.8208-1.82031,7.48145-4.76074,7.48145-2.9209,0-4.76074-2.66064-4.76074-7.48145ZM229.53809,9.56201c0-4.12109-1.06055-5.56128-2.56055-5.56128s-2.56055,1.44019-2.56055,5.56128c0,4.12061,1.06055,5.66113,2.56055,5.66113s2.56055-1.54053,2.56055-5.66113Z"/><path class="cls-1" d="M235.30371,15.44312c4.10156-4.02075,6.58203-6.5813,6.58203-8.82178,0-1.5603-.84082-2.60059-2.50098-2.60059-1.16016,0-2.12012.73999-2.90039,1.64038l-1.30078-1.28027c1.26074-1.36035,2.56055-2.20068,4.48145-2.20068,2.7002,0,4.44043,1.72046,4.44043,4.32104,0,2.62061-2.37988,5.26099-5.44043,8.46167.74023-.07983,1.67969-.13989,2.40039-.13989h3.74023v1.96045h-9.50195v-1.34033Z"/></g></svg>