<?xml version="1.0" encoding="UTF-8"?><svg id="_レイヤー_2" xmlns="http://www.w3.org/2000/svg" viewBox="0 0 549.01172 61.44141"><defs><style>.cls-1{fill:#a0afb5;}</style></defs><g id="_背景"><path class="cls-1" d="M0,1.11987h15.12012v59.20142H0V1.11987Z"/><path class="cls-1" d="M64.97656,37.20068l-.32031-36.08081h14.48047v59.20142h-13.12012l-22.64062-35.68091.32031,35.68091h-14.48047V1.11987h13.04004l22.7207,36.08081Z"/><path class="cls-1" d="M93.39844,1.11987h15.12012v59.20142h-15.12012V1.11987Z"/><path class="cls-1" d="M128.54297,14.40015h-11.68066V1.11987h38.40137v13.28027h-11.60059v45.92114h-15.12012V14.40015Z"/><path class="cls-1" d="M163.66211,1.11987h15.12012v59.20142h-15.12012V1.11987Z"/><path class="cls-1" d="M203.49414,60.32129h-16.40039L210.53418,1.11987h13.04102l22.71973,59.20142h-16.55957l-2.80078-8.5603h-20.71973l-2.7207,8.5603ZM216.375,19.12036l-6.40039,20.64038h13.04004l-6.63965-20.64038Z"/><path class="cls-1" d="M257.9502,14.40015h-11.68066V1.11987h38.40137v13.28027h-11.60059v45.92114h-15.12012V14.40015Z"/><path class="cls-1" d="M293.06836,1.11987h15.12012v59.20142h-15.12012V1.11987Z"/><path class="cls-1" d="M316.74902,1.11987h15.52051l12,41.521,12.08008-41.521h15.60059l-19.84082,59.20142h-15.60059L316.74902,1.11987Z"/><path class="cls-1" d="M380.64355,1.11987h33.52051v13.28027h-18.40039v9.2002h17.84082v13.28052h-17.84082v10.16016h18.40039v13.28027h-33.52051V1.11987Z"/><path class="cls-1" d="M452.88281,22.48047c0-17.12036,13.84082-22.48047,22.32129-22.48047,7.59961,0,21.83984,4.95996,21.83984,22.48047v16.48022c0,16.48047-12.55957,22.48071-21.83984,22.48071-8.7207,0-22.32129-5.76025-22.32129-22.48071v-16.48022ZM468.00391,39.36084c0,3.52002,1.12012,8.80029,6.95996,8.80029,6.95996,0,6.95996-7.04028,6.95996-8.80029v-17.28052c0-1.83984,0-8.80005-6.95996-8.80005-6,0-6.95996,5.6001-6.95996,8.80005v17.28052Z"/><path class="cls-1" d="M507.25098,48.56104c5.36035-4.48022,10.64062-8.96021,15.91992-13.44043,6.24023-5.19995,10.32031-8.80005,10.32031-15.2002,0-4.72021-2.71973-6.64014-6.31934-6.64014-5.2002,0-6.00098,5.04004-6.08105,9.36011h-14.39941c.15918-3.84009.31934-8.72021,3.51953-13.60034,5.04004-7.84009,13.9209-9.04004,18.24023-9.04004,13.2002,0,20.16113,8.80005,20.16113,18.32031,0,7.2002-2.16016,12.40039-9.76074,19.36035-3.59961,3.28027-7.2002,6.5603-10.87988,9.92041h21.04004v12.72021h-41.76074v-11.76025Z"/></g></svg>