<?xml version="1.0" encoding="UTF-8"?>
<svg id="_レイヤー_2" data-name="レイヤー 2" xmlns="http://www.w3.org/2000/svg" viewBox="0 0 6.08 29.9">
  <defs>
    <style>
      .cls-1 {
        fill: #fff;
        stroke-width: 0px;
      }
    </style>
  </defs>
  <g id="_メニュー" data-name="メニュー">
    <g>
      <g>
        <path class="cls-1" d="M.87,0l.5.45c-.44.42-.73,1.01-.73,1.62,0,.77.38,1.23.96,1.23s.79-.42,1.04-.98l.37-.85c.23-.54.65-1.19,1.5-1.19.9,0,1.56.78,1.56,1.85,0,.7-.3,1.31-.73,1.73l-.47-.39c.34-.36.55-.79.55-1.34,0-.66-.34-1.09-.86-1.09-.57,0-.78.51-.98.97l-.36.84c-.3.68-.7,1.21-1.57,1.21-.93,0-1.66-.77-1.66-1.99C0,1.22.34.51.87,0Z"/>
        <path class="cls-1" d="M5.97,6.06v.74h-2.95v.02l2.95,2.45v.83l-2.24-1.83L.1,10.4v-.82l3.05-1.76-1.2-1.01H.1v-.74h5.87Z"/>
        <path class="cls-1" d="M5.97,12.23v.74H.1v-.74h5.87Z"/>
        <path class="cls-1" d="M5.97,15.42v1.68c0,1.31-.45,2.19-1.73,2.19s-1.81-.87-1.81-2.16v-.97H.1v-.74h5.87ZM3.03,17.03c0,1.03.38,1.52,1.22,1.52s1.12-.52,1.12-1.55v-.84h-2.33v.87Z"/>
      </g>
      <polyline class="cls-1" points=".47 23.04 3.02 29.9 5.56 23.04 .47 23.04"/>
    </g>
  </g>
</svg>